G04 #@! TF.GenerationSoftware,KiCad,Pcbnew,(5.0.0)*
G04 #@! TF.CreationDate,2018-11-05T10:44:16+00:00*
G04 #@! TF.ProjectId,analog,616E616C6F672E6B696361645F706362,rev?*
G04 #@! TF.SameCoordinates,Original*
G04 #@! TF.FileFunction,Legend,Bot*
G04 #@! TF.FilePolarity,Positive*
%FSLAX46Y46*%
G04 Gerber Fmt 4.6, Leading zero omitted, Abs format (unit mm)*
G04 Created by KiCad (PCBNEW (5.0.0)) date 11/05/18 10:44:16*
%MOMM*%
%LPD*%
G01*
G04 APERTURE LIST*
%ADD10C,0.125000*%
%ADD11C,0.120000*%
%ADD12C,0.150000*%
G04 APERTURE END LIST*
D10*
X131869619Y-118844190D02*
X132155333Y-118844190D01*
X132012476Y-118844190D02*
X132012476Y-118344190D01*
X132060095Y-118415619D01*
X132107714Y-118463238D01*
X132155333Y-118487047D01*
X131441047Y-118510857D02*
X131441047Y-118844190D01*
X131655333Y-118510857D02*
X131655333Y-118772761D01*
X131631523Y-118820380D01*
X131583904Y-118844190D01*
X131512476Y-118844190D01*
X131464857Y-118820380D01*
X131441047Y-118796571D01*
X131036285Y-118582285D02*
X131202952Y-118582285D01*
X131202952Y-118844190D02*
X131202952Y-118344190D01*
X130964857Y-118344190D01*
X130782190Y-127226285D02*
X130782190Y-126940571D01*
X130782190Y-127083428D02*
X130282190Y-127083428D01*
X130353619Y-127035809D01*
X130401238Y-126988190D01*
X130425047Y-126940571D01*
X130282190Y-127535809D02*
X130282190Y-127583428D01*
X130306000Y-127631047D01*
X130329809Y-127654857D01*
X130377428Y-127678666D01*
X130472666Y-127702476D01*
X130591714Y-127702476D01*
X130686952Y-127678666D01*
X130734571Y-127654857D01*
X130758380Y-127631047D01*
X130782190Y-127583428D01*
X130782190Y-127535809D01*
X130758380Y-127488190D01*
X130734571Y-127464380D01*
X130686952Y-127440571D01*
X130591714Y-127416761D01*
X130472666Y-127416761D01*
X130377428Y-127440571D01*
X130329809Y-127464380D01*
X130306000Y-127488190D01*
X130282190Y-127535809D01*
X130448857Y-128131047D02*
X130782190Y-128131047D01*
X130448857Y-127916761D02*
X130710761Y-127916761D01*
X130758380Y-127940571D01*
X130782190Y-127988190D01*
X130782190Y-128059619D01*
X130758380Y-128107238D01*
X130734571Y-128131047D01*
X130520285Y-128535809D02*
X130520285Y-128369142D01*
X130782190Y-128369142D02*
X130282190Y-128369142D01*
X130282190Y-128607238D01*
X138005333Y-84097857D02*
X138005333Y-84335952D01*
X138148190Y-84050238D02*
X137648190Y-84216904D01*
X138148190Y-84383571D01*
X137648190Y-84645476D02*
X137648190Y-84693095D01*
X137672000Y-84740714D01*
X137695809Y-84764523D01*
X137743428Y-84788333D01*
X137838666Y-84812142D01*
X137957714Y-84812142D01*
X138052952Y-84788333D01*
X138100571Y-84764523D01*
X138124380Y-84740714D01*
X138148190Y-84693095D01*
X138148190Y-84645476D01*
X138124380Y-84597857D01*
X138100571Y-84574047D01*
X138052952Y-84550238D01*
X137957714Y-84526428D01*
X137838666Y-84526428D01*
X137743428Y-84550238D01*
X137695809Y-84574047D01*
X137672000Y-84597857D01*
X137648190Y-84645476D01*
X137878333Y-87526857D02*
X137878333Y-87764952D01*
X138021190Y-87479238D02*
X137521190Y-87645904D01*
X138021190Y-87812571D01*
X138021190Y-88241142D02*
X138021190Y-87955428D01*
X138021190Y-88098285D02*
X137521190Y-88098285D01*
X137592619Y-88050666D01*
X137640238Y-88003047D01*
X137664047Y-87955428D01*
X138005333Y-91082857D02*
X138005333Y-91320952D01*
X138148190Y-91035238D02*
X137648190Y-91201904D01*
X138148190Y-91368571D01*
X137695809Y-91511428D02*
X137672000Y-91535238D01*
X137648190Y-91582857D01*
X137648190Y-91701904D01*
X137672000Y-91749523D01*
X137695809Y-91773333D01*
X137743428Y-91797142D01*
X137791047Y-91797142D01*
X137862476Y-91773333D01*
X138148190Y-91487619D01*
X138148190Y-91797142D01*
X138132333Y-144819761D02*
X138132333Y-145057857D01*
X138275190Y-144772142D02*
X137775190Y-144938809D01*
X138275190Y-145105476D01*
X138275190Y-145534047D02*
X138275190Y-145248333D01*
X138275190Y-145391190D02*
X137775190Y-145391190D01*
X137846619Y-145343571D01*
X137894238Y-145295952D01*
X137918047Y-145248333D01*
X137775190Y-145986428D02*
X137775190Y-145748333D01*
X138013285Y-145724523D01*
X137989476Y-145748333D01*
X137965666Y-145795952D01*
X137965666Y-145915000D01*
X137989476Y-145962619D01*
X138013285Y-145986428D01*
X138060904Y-146010238D01*
X138179952Y-146010238D01*
X138227571Y-145986428D01*
X138251380Y-145962619D01*
X138275190Y-145915000D01*
X138275190Y-145795952D01*
X138251380Y-145748333D01*
X138227571Y-145724523D01*
X138005333Y-141390761D02*
X138005333Y-141628857D01*
X138148190Y-141343142D02*
X137648190Y-141509809D01*
X138148190Y-141676476D01*
X138148190Y-142105047D02*
X138148190Y-141819333D01*
X138148190Y-141962190D02*
X137648190Y-141962190D01*
X137719619Y-141914571D01*
X137767238Y-141866952D01*
X137791047Y-141819333D01*
X137814857Y-142533619D02*
X138148190Y-142533619D01*
X137624380Y-142414571D02*
X137981523Y-142295523D01*
X137981523Y-142605047D01*
X138132333Y-137834761D02*
X138132333Y-138072857D01*
X138275190Y-137787142D02*
X137775190Y-137953809D01*
X138275190Y-138120476D01*
X138275190Y-138549047D02*
X138275190Y-138263333D01*
X138275190Y-138406190D02*
X137775190Y-138406190D01*
X137846619Y-138358571D01*
X137894238Y-138310952D01*
X137918047Y-138263333D01*
X137775190Y-138715714D02*
X137775190Y-139025238D01*
X137965666Y-138858571D01*
X137965666Y-138930000D01*
X137989476Y-138977619D01*
X138013285Y-139001428D01*
X138060904Y-139025238D01*
X138179952Y-139025238D01*
X138227571Y-139001428D01*
X138251380Y-138977619D01*
X138275190Y-138930000D01*
X138275190Y-138787142D01*
X138251380Y-138739523D01*
X138227571Y-138715714D01*
X142704333Y-116355857D02*
X142704333Y-116593952D01*
X142847190Y-116308238D02*
X142347190Y-116474904D01*
X142847190Y-116641571D01*
X142561476Y-116879666D02*
X142537666Y-116832047D01*
X142513857Y-116808238D01*
X142466238Y-116784428D01*
X142442428Y-116784428D01*
X142394809Y-116808238D01*
X142371000Y-116832047D01*
X142347190Y-116879666D01*
X142347190Y-116974904D01*
X142371000Y-117022523D01*
X142394809Y-117046333D01*
X142442428Y-117070142D01*
X142466238Y-117070142D01*
X142513857Y-117046333D01*
X142537666Y-117022523D01*
X142561476Y-116974904D01*
X142561476Y-116879666D01*
X142585285Y-116832047D01*
X142609095Y-116808238D01*
X142656714Y-116784428D01*
X142751952Y-116784428D01*
X142799571Y-116808238D01*
X142823380Y-116832047D01*
X142847190Y-116879666D01*
X142847190Y-116974904D01*
X142823380Y-117022523D01*
X142799571Y-117046333D01*
X142751952Y-117070142D01*
X142656714Y-117070142D01*
X142609095Y-117046333D01*
X142585285Y-117022523D01*
X142561476Y-116974904D01*
X142704333Y-109497857D02*
X142704333Y-109735952D01*
X142847190Y-109450238D02*
X142347190Y-109616904D01*
X142847190Y-109783571D01*
X142347190Y-110164523D02*
X142347190Y-110069285D01*
X142371000Y-110021666D01*
X142394809Y-109997857D01*
X142466238Y-109950238D01*
X142561476Y-109926428D01*
X142751952Y-109926428D01*
X142799571Y-109950238D01*
X142823380Y-109974047D01*
X142847190Y-110021666D01*
X142847190Y-110116904D01*
X142823380Y-110164523D01*
X142799571Y-110188333D01*
X142751952Y-110212142D01*
X142632904Y-110212142D01*
X142585285Y-110188333D01*
X142561476Y-110164523D01*
X142537666Y-110116904D01*
X142537666Y-110021666D01*
X142561476Y-109974047D01*
X142585285Y-109950238D01*
X142632904Y-109926428D01*
X142704333Y-105941857D02*
X142704333Y-106179952D01*
X142847190Y-105894238D02*
X142347190Y-106060904D01*
X142847190Y-106227571D01*
X142347190Y-106632333D02*
X142347190Y-106394238D01*
X142585285Y-106370428D01*
X142561476Y-106394238D01*
X142537666Y-106441857D01*
X142537666Y-106560904D01*
X142561476Y-106608523D01*
X142585285Y-106632333D01*
X142632904Y-106656142D01*
X142751952Y-106656142D01*
X142799571Y-106632333D01*
X142823380Y-106608523D01*
X142847190Y-106560904D01*
X142847190Y-106441857D01*
X142823380Y-106394238D01*
X142799571Y-106370428D01*
X142704333Y-112926857D02*
X142704333Y-113164952D01*
X142847190Y-112879238D02*
X142347190Y-113045904D01*
X142847190Y-113212571D01*
X142347190Y-113331619D02*
X142347190Y-113664952D01*
X142847190Y-113450666D01*
X142704333Y-98829857D02*
X142704333Y-99067952D01*
X142847190Y-98782238D02*
X142347190Y-98948904D01*
X142847190Y-99115571D01*
X142347190Y-99234619D02*
X142347190Y-99544142D01*
X142537666Y-99377476D01*
X142537666Y-99448904D01*
X142561476Y-99496523D01*
X142585285Y-99520333D01*
X142632904Y-99544142D01*
X142751952Y-99544142D01*
X142799571Y-99520333D01*
X142823380Y-99496523D01*
X142847190Y-99448904D01*
X142847190Y-99306047D01*
X142823380Y-99258428D01*
X142799571Y-99234619D01*
X142704333Y-102385857D02*
X142704333Y-102623952D01*
X142847190Y-102338238D02*
X142347190Y-102504904D01*
X142847190Y-102671571D01*
X142513857Y-103052523D02*
X142847190Y-103052523D01*
X142323380Y-102933476D02*
X142680523Y-102814428D01*
X142680523Y-103123952D01*
X142704333Y-130214761D02*
X142704333Y-130452857D01*
X142847190Y-130167142D02*
X142347190Y-130333809D01*
X142847190Y-130500476D01*
X142847190Y-130929047D02*
X142847190Y-130643333D01*
X142847190Y-130786190D02*
X142347190Y-130786190D01*
X142418619Y-130738571D01*
X142466238Y-130690952D01*
X142490047Y-130643333D01*
X142394809Y-131119523D02*
X142371000Y-131143333D01*
X142347190Y-131190952D01*
X142347190Y-131310000D01*
X142371000Y-131357619D01*
X142394809Y-131381428D01*
X142442428Y-131405238D01*
X142490047Y-131405238D01*
X142561476Y-131381428D01*
X142847190Y-131095714D01*
X142847190Y-131405238D01*
X142704333Y-126658761D02*
X142704333Y-126896857D01*
X142847190Y-126611142D02*
X142347190Y-126777809D01*
X142847190Y-126944476D01*
X142847190Y-127373047D02*
X142847190Y-127087333D01*
X142847190Y-127230190D02*
X142347190Y-127230190D01*
X142418619Y-127182571D01*
X142466238Y-127134952D01*
X142490047Y-127087333D01*
X142847190Y-127849238D02*
X142847190Y-127563523D01*
X142847190Y-127706380D02*
X142347190Y-127706380D01*
X142418619Y-127658761D01*
X142466238Y-127611142D01*
X142490047Y-127563523D01*
X142704333Y-119911857D02*
X142704333Y-120149952D01*
X142847190Y-119864238D02*
X142347190Y-120030904D01*
X142847190Y-120197571D01*
X142847190Y-120388047D02*
X142847190Y-120483285D01*
X142823380Y-120530904D01*
X142799571Y-120554714D01*
X142728142Y-120602333D01*
X142632904Y-120626142D01*
X142442428Y-120626142D01*
X142394809Y-120602333D01*
X142371000Y-120578523D01*
X142347190Y-120530904D01*
X142347190Y-120435666D01*
X142371000Y-120388047D01*
X142394809Y-120364238D01*
X142442428Y-120340428D01*
X142561476Y-120340428D01*
X142609095Y-120364238D01*
X142632904Y-120388047D01*
X142656714Y-120435666D01*
X142656714Y-120530904D01*
X142632904Y-120578523D01*
X142609095Y-120602333D01*
X142561476Y-120626142D01*
X142704333Y-123229761D02*
X142704333Y-123467857D01*
X142847190Y-123182142D02*
X142347190Y-123348809D01*
X142847190Y-123515476D01*
X142847190Y-123944047D02*
X142847190Y-123658333D01*
X142847190Y-123801190D02*
X142347190Y-123801190D01*
X142418619Y-123753571D01*
X142466238Y-123705952D01*
X142490047Y-123658333D01*
X142347190Y-124253571D02*
X142347190Y-124301190D01*
X142371000Y-124348809D01*
X142394809Y-124372619D01*
X142442428Y-124396428D01*
X142537666Y-124420238D01*
X142656714Y-124420238D01*
X142751952Y-124396428D01*
X142799571Y-124372619D01*
X142823380Y-124348809D01*
X142847190Y-124301190D01*
X142847190Y-124253571D01*
X142823380Y-124205952D01*
X142799571Y-124182142D01*
X142751952Y-124158333D01*
X142656714Y-124134523D01*
X142537666Y-124134523D01*
X142442428Y-124158333D01*
X142394809Y-124182142D01*
X142371000Y-124205952D01*
X142347190Y-124253571D01*
D11*
G04 #@! TO.C,JP3*
X130286000Y-98564000D02*
X128286000Y-98564000D01*
X130286000Y-101364000D02*
X130286000Y-98564000D01*
X128286000Y-101364000D02*
X130286000Y-101364000D01*
X128286000Y-98564000D02*
X128286000Y-101364000D01*
G04 #@! TO.C,C2*
X132193000Y-122329000D02*
X132193000Y-126539000D01*
X132193000Y-126539000D02*
X129173000Y-126539000D01*
X129173000Y-126539000D02*
X129173000Y-122329000D01*
G04 #@! TO.C,JP1*
X130286000Y-105168000D02*
X128286000Y-105168000D01*
X130286000Y-107968000D02*
X130286000Y-105168000D01*
X128286000Y-107968000D02*
X130286000Y-107968000D01*
X128286000Y-105168000D02*
X128286000Y-107968000D01*
G04 #@! TO.C,JP2*
X128286000Y-101836000D02*
X128286000Y-104636000D01*
X128286000Y-104636000D02*
X130286000Y-104636000D01*
X130286000Y-104636000D02*
X130286000Y-101836000D01*
X130286000Y-101836000D02*
X128286000Y-101836000D01*
D12*
G04 #@! TO.C,U2*
X128074000Y-117560000D02*
X128599000Y-117560000D01*
X135324000Y-112310000D02*
X134799000Y-112310000D01*
X135324000Y-117560000D02*
X134799000Y-117560000D01*
X128074000Y-112310000D02*
X128074000Y-113085000D01*
X135324000Y-112310000D02*
X135324000Y-113085000D01*
X135324000Y-117560000D02*
X135324000Y-116785000D01*
X128074000Y-117560000D02*
X128074000Y-116785000D01*
G04 #@! TO.C,JP3*
X128738380Y-99115666D02*
X129452666Y-99115666D01*
X129595523Y-99068047D01*
X129690761Y-98972809D01*
X129738380Y-98829952D01*
X129738380Y-98734714D01*
X129738380Y-99591857D02*
X128738380Y-99591857D01*
X128738380Y-99972809D01*
X128786000Y-100068047D01*
X128833619Y-100115666D01*
X128928857Y-100163285D01*
X129071714Y-100163285D01*
X129166952Y-100115666D01*
X129214571Y-100068047D01*
X129262190Y-99972809D01*
X129262190Y-99591857D01*
X128738380Y-100496619D02*
X128738380Y-101115666D01*
X129119333Y-100782333D01*
X129119333Y-100925190D01*
X129166952Y-101020428D01*
X129214571Y-101068047D01*
X129309809Y-101115666D01*
X129547904Y-101115666D01*
X129643142Y-101068047D01*
X129690761Y-101020428D01*
X129738380Y-100925190D01*
X129738380Y-100639476D01*
X129690761Y-100544238D01*
X129643142Y-100496619D01*
G04 #@! TO.C,C2*
X131040142Y-123912333D02*
X131087761Y-123864714D01*
X131135380Y-123721857D01*
X131135380Y-123626619D01*
X131087761Y-123483761D01*
X130992523Y-123388523D01*
X130897285Y-123340904D01*
X130706809Y-123293285D01*
X130563952Y-123293285D01*
X130373476Y-123340904D01*
X130278238Y-123388523D01*
X130183000Y-123483761D01*
X130135380Y-123626619D01*
X130135380Y-123721857D01*
X130183000Y-123864714D01*
X130230619Y-123912333D01*
X130230619Y-124293285D02*
X130183000Y-124340904D01*
X130135380Y-124436142D01*
X130135380Y-124674238D01*
X130183000Y-124769476D01*
X130230619Y-124817095D01*
X130325857Y-124864714D01*
X130421095Y-124864714D01*
X130563952Y-124817095D01*
X131135380Y-124245666D01*
X131135380Y-124864714D01*
G04 #@! TO.C,C1*
X129960666Y-118848142D02*
X130008285Y-118895761D01*
X130151142Y-118943380D01*
X130246380Y-118943380D01*
X130389238Y-118895761D01*
X130484476Y-118800523D01*
X130532095Y-118705285D01*
X130579714Y-118514809D01*
X130579714Y-118371952D01*
X130532095Y-118181476D01*
X130484476Y-118086238D01*
X130389238Y-117991000D01*
X130246380Y-117943380D01*
X130151142Y-117943380D01*
X130008285Y-117991000D01*
X129960666Y-118038619D01*
X129008285Y-118943380D02*
X129579714Y-118943380D01*
X129294000Y-118943380D02*
X129294000Y-117943380D01*
X129389238Y-118086238D01*
X129484476Y-118181476D01*
X129579714Y-118229095D01*
G04 #@! TO.C,JP1*
X128738380Y-105734666D02*
X129452666Y-105734666D01*
X129595523Y-105687047D01*
X129690761Y-105591809D01*
X129738380Y-105448952D01*
X129738380Y-105353714D01*
X129738380Y-106210857D02*
X128738380Y-106210857D01*
X128738380Y-106591809D01*
X128786000Y-106687047D01*
X128833619Y-106734666D01*
X128928857Y-106782285D01*
X129071714Y-106782285D01*
X129166952Y-106734666D01*
X129214571Y-106687047D01*
X129262190Y-106591809D01*
X129262190Y-106210857D01*
X129738380Y-107734666D02*
X129738380Y-107163238D01*
X129738380Y-107448952D02*
X128738380Y-107448952D01*
X128881238Y-107353714D01*
X128976476Y-107258476D01*
X129024095Y-107163238D01*
G04 #@! TO.C,JP2*
X128738380Y-102402666D02*
X129452666Y-102402666D01*
X129595523Y-102355047D01*
X129690761Y-102259809D01*
X129738380Y-102116952D01*
X129738380Y-102021714D01*
X129738380Y-102878857D02*
X128738380Y-102878857D01*
X128738380Y-103259809D01*
X128786000Y-103355047D01*
X128833619Y-103402666D01*
X128928857Y-103450285D01*
X129071714Y-103450285D01*
X129166952Y-103402666D01*
X129214571Y-103355047D01*
X129262190Y-103259809D01*
X129262190Y-102878857D01*
X128833619Y-103831238D02*
X128786000Y-103878857D01*
X128738380Y-103974095D01*
X128738380Y-104212190D01*
X128786000Y-104307428D01*
X128833619Y-104355047D01*
X128928857Y-104402666D01*
X129024095Y-104402666D01*
X129166952Y-104355047D01*
X129738380Y-103783619D01*
X129738380Y-104402666D01*
G04 #@! TO.C,U2*
X126401380Y-114173095D02*
X127210904Y-114173095D01*
X127306142Y-114220714D01*
X127353761Y-114268333D01*
X127401380Y-114363571D01*
X127401380Y-114554047D01*
X127353761Y-114649285D01*
X127306142Y-114696904D01*
X127210904Y-114744523D01*
X126401380Y-114744523D01*
X126496619Y-115173095D02*
X126449000Y-115220714D01*
X126401380Y-115315952D01*
X126401380Y-115554047D01*
X126449000Y-115649285D01*
X126496619Y-115696904D01*
X126591857Y-115744523D01*
X126687095Y-115744523D01*
X126829952Y-115696904D01*
X127401380Y-115125476D01*
X127401380Y-115744523D01*
G04 #@! TD*
M02*
