G04 #@! TF.GenerationSoftware,KiCad,Pcbnew,(5.0.0)*
G04 #@! TF.CreationDate,2018-11-05T10:44:16+00:00*
G04 #@! TF.ProjectId,analog,616E616C6F672E6B696361645F706362,rev?*
G04 #@! TF.SameCoordinates,Original*
G04 #@! TF.FileFunction,Copper,L2,Bot,Signal*
G04 #@! TF.FilePolarity,Positive*
%FSLAX46Y46*%
G04 Gerber Fmt 4.6, Leading zero omitted, Abs format (unit mm)*
G04 Created by KiCad (PCBNEW (5.0.0)) date 11/05/18 10:44:16*
%MOMM*%
%LPD*%
G01*
G04 APERTURE LIST*
G04 #@! TA.AperFunction,ComponentPad*
%ADD10C,6.000000*%
G04 #@! TD*
G04 #@! TA.AperFunction,ComponentPad*
%ADD11C,1.524000*%
G04 #@! TD*
G04 #@! TA.AperFunction,SMDPad,CuDef*
%ADD12R,1.500000X1.000000*%
G04 #@! TD*
G04 #@! TA.AperFunction,Conductor*
%ADD13C,0.100000*%
G04 #@! TD*
G04 #@! TA.AperFunction,SMDPad,CuDef*
%ADD14C,1.325000*%
G04 #@! TD*
G04 #@! TA.AperFunction,ComponentPad*
%ADD15C,2.400000*%
G04 #@! TD*
G04 #@! TA.AperFunction,ComponentPad*
%ADD16R,2.400000X2.400000*%
G04 #@! TD*
G04 #@! TA.AperFunction,SMDPad,CuDef*
%ADD17C,0.590000*%
G04 #@! TD*
G04 #@! TA.AperFunction,SMDPad,CuDef*
%ADD18R,0.250000X0.700000*%
G04 #@! TD*
G04 #@! TA.AperFunction,SMDPad,CuDef*
%ADD19R,0.700000X0.250000*%
G04 #@! TD*
G04 #@! TA.AperFunction,SMDPad,CuDef*
%ADD20R,5.150000X3.150000*%
G04 #@! TD*
G04 #@! TA.AperFunction,ViaPad*
%ADD21C,0.800000*%
G04 #@! TD*
G04 #@! TA.AperFunction,Conductor*
%ADD22C,0.250000*%
G04 #@! TD*
G04 #@! TA.AperFunction,Conductor*
%ADD23C,0.254000*%
G04 #@! TD*
G04 APERTURE END LIST*
D10*
G04 #@! TO.P,U1,*
G04 #@! TO.N,*
X148665001Y-85800001D03*
X148665001Y-144220001D03*
X125170001Y-85800001D03*
X125170001Y-144220001D03*
D11*
G04 #@! TO.P,U1,40*
G04 #@! TO.N,Net-(U1-Pad40)*
X123900001Y-90880001D03*
G04 #@! TO.P,U1,39*
G04 #@! TO.N,GND*
X126440001Y-90880001D03*
G04 #@! TO.P,U1,38*
G04 #@! TO.N,Net-(U1-Pad38)*
X123900001Y-93420001D03*
G04 #@! TO.P,U1,37*
G04 #@! TO.N,Net-(U1-Pad37)*
X126440001Y-93420001D03*
G04 #@! TO.P,U1,36*
G04 #@! TO.N,Net-(U1-Pad36)*
X123900001Y-95960001D03*
G04 #@! TO.P,U1,35*
G04 #@! TO.N,Net-(U1-Pad35)*
X126440001Y-95960001D03*
G04 #@! TO.P,U1,34*
G04 #@! TO.N,GND*
X123900001Y-98500001D03*
G04 #@! TO.P,U1,33*
G04 #@! TO.N,Net-(U1-Pad33)*
X126440001Y-98500001D03*
G04 #@! TO.P,U1,32*
G04 #@! TO.N,Net-(U1-Pad32)*
X123900001Y-101040001D03*
G04 #@! TO.P,U1,31*
G04 #@! TO.N,Net-(U1-Pad31)*
X126440001Y-101040001D03*
G04 #@! TO.P,U1,30*
G04 #@! TO.N,GND*
X123900001Y-103580001D03*
G04 #@! TO.P,U1,29*
G04 #@! TO.N,Net-(U1-Pad29)*
X126440001Y-103580001D03*
G04 #@! TO.P,U1,28*
G04 #@! TO.N,Net-(U1-Pad28)*
X123900001Y-106120001D03*
G04 #@! TO.P,U1,27*
G04 #@! TO.N,Net-(U1-Pad27)*
X126440001Y-106120001D03*
G04 #@! TO.P,U1,26*
G04 #@! TO.N,Net-(U1-Pad26)*
X123900001Y-108660001D03*
G04 #@! TO.P,U1,25*
G04 #@! TO.N,GND*
X126440001Y-108660001D03*
G04 #@! TO.P,U1,24*
G04 #@! TO.N,Net-(U1-Pad24)*
X123900001Y-111200001D03*
G04 #@! TO.P,U1,23*
G04 #@! TO.N,Net-(U1-Pad23)*
X126440001Y-111200001D03*
G04 #@! TO.P,U1,22*
G04 #@! TO.N,Net-(U1-Pad22)*
X123900001Y-113740001D03*
G04 #@! TO.P,U1,21*
G04 #@! TO.N,Net-(U1-Pad21)*
X126440001Y-113740001D03*
G04 #@! TO.P,U1,20*
G04 #@! TO.N,GND*
X123900001Y-116280001D03*
G04 #@! TO.P,U1,19*
G04 #@! TO.N,Net-(U1-Pad19)*
X126440001Y-116280001D03*
G04 #@! TO.P,U1,18*
G04 #@! TO.N,Net-(U1-Pad18)*
X123900001Y-118820001D03*
G04 #@! TO.P,U1,17*
G04 #@! TO.N,Net-(U1-Pad17)*
X126440001Y-118820001D03*
G04 #@! TO.P,U1,16*
G04 #@! TO.N,Net-(U1-Pad16)*
X123900001Y-121360001D03*
G04 #@! TO.P,U1,15*
G04 #@! TO.N,Net-(U1-Pad15)*
X126440001Y-121360001D03*
G04 #@! TO.P,U1,14*
G04 #@! TO.N,GND*
X123900001Y-123900001D03*
G04 #@! TO.P,U1,13*
G04 #@! TO.N,Net-(U1-Pad13)*
X126440001Y-123900001D03*
G04 #@! TO.P,U1,12*
G04 #@! TO.N,Net-(U1-Pad12)*
X123900001Y-126440001D03*
G04 #@! TO.P,U1,11*
G04 #@! TO.N,Net-(U1-Pad11)*
X126440001Y-126440001D03*
G04 #@! TO.P,U1,10*
G04 #@! TO.N,Net-(U1-Pad10)*
X123900001Y-128980001D03*
G04 #@! TO.P,U1,9*
G04 #@! TO.N,GND*
X126440001Y-128980001D03*
G04 #@! TO.P,U1,8*
G04 #@! TO.N,Net-(U1-Pad8)*
X123900001Y-131520001D03*
G04 #@! TO.P,U1,7*
G04 #@! TO.N,Net-(U1-Pad7)*
X126440001Y-131520001D03*
G04 #@! TO.P,U1,6*
G04 #@! TO.N,GND*
X123900001Y-134060001D03*
G04 #@! TO.P,U1,5*
G04 #@! TO.N,SCL*
X126440001Y-134060001D03*
G04 #@! TO.P,U1,4*
G04 #@! TO.N,5V*
X123900001Y-136600001D03*
G04 #@! TO.P,U1,3*
G04 #@! TO.N,SDA*
X126440001Y-136600001D03*
G04 #@! TO.P,U1,2*
G04 #@! TO.N,5V*
X123900001Y-139140001D03*
G04 #@! TO.P,U1,1*
G04 #@! TO.N,Net-(U1-Pad1)*
X126440001Y-139140001D03*
G04 #@! TD*
D12*
G04 #@! TO.P,JP3,2*
G04 #@! TO.N,Net-(JP3-Pad2)*
X129286000Y-100614000D03*
G04 #@! TO.P,JP3,1*
G04 #@! TO.N,GND*
X129286000Y-99314000D03*
G04 #@! TD*
D13*
G04 #@! TO.N,5V*
G04 #@! TO.C,C2*
G36*
X131632505Y-124955204D02*
X131656773Y-124958804D01*
X131680572Y-124964765D01*
X131703671Y-124973030D01*
X131725850Y-124983520D01*
X131746893Y-124996132D01*
X131766599Y-125010747D01*
X131784777Y-125027223D01*
X131801253Y-125045401D01*
X131815868Y-125065107D01*
X131828480Y-125086150D01*
X131838970Y-125108329D01*
X131847235Y-125131428D01*
X131853196Y-125155227D01*
X131856796Y-125179495D01*
X131858000Y-125203999D01*
X131858000Y-126029001D01*
X131856796Y-126053505D01*
X131853196Y-126077773D01*
X131847235Y-126101572D01*
X131838970Y-126124671D01*
X131828480Y-126146850D01*
X131815868Y-126167893D01*
X131801253Y-126187599D01*
X131784777Y-126205777D01*
X131766599Y-126222253D01*
X131746893Y-126236868D01*
X131725850Y-126249480D01*
X131703671Y-126259970D01*
X131680572Y-126268235D01*
X131656773Y-126274196D01*
X131632505Y-126277796D01*
X131608001Y-126279000D01*
X129757999Y-126279000D01*
X129733495Y-126277796D01*
X129709227Y-126274196D01*
X129685428Y-126268235D01*
X129662329Y-126259970D01*
X129640150Y-126249480D01*
X129619107Y-126236868D01*
X129599401Y-126222253D01*
X129581223Y-126205777D01*
X129564747Y-126187599D01*
X129550132Y-126167893D01*
X129537520Y-126146850D01*
X129527030Y-126124671D01*
X129518765Y-126101572D01*
X129512804Y-126077773D01*
X129509204Y-126053505D01*
X129508000Y-126029001D01*
X129508000Y-125203999D01*
X129509204Y-125179495D01*
X129512804Y-125155227D01*
X129518765Y-125131428D01*
X129527030Y-125108329D01*
X129537520Y-125086150D01*
X129550132Y-125065107D01*
X129564747Y-125045401D01*
X129581223Y-125027223D01*
X129599401Y-125010747D01*
X129619107Y-124996132D01*
X129640150Y-124983520D01*
X129662329Y-124973030D01*
X129685428Y-124964765D01*
X129709227Y-124958804D01*
X129733495Y-124955204D01*
X129757999Y-124954000D01*
X131608001Y-124954000D01*
X131632505Y-124955204D01*
X131632505Y-124955204D01*
G37*
D14*
G04 #@! TD*
G04 #@! TO.P,C2,1*
G04 #@! TO.N,5V*
X130683000Y-125616500D03*
D13*
G04 #@! TO.N,GND*
G04 #@! TO.C,C2*
G36*
X131632505Y-121880204D02*
X131656773Y-121883804D01*
X131680572Y-121889765D01*
X131703671Y-121898030D01*
X131725850Y-121908520D01*
X131746893Y-121921132D01*
X131766599Y-121935747D01*
X131784777Y-121952223D01*
X131801253Y-121970401D01*
X131815868Y-121990107D01*
X131828480Y-122011150D01*
X131838970Y-122033329D01*
X131847235Y-122056428D01*
X131853196Y-122080227D01*
X131856796Y-122104495D01*
X131858000Y-122128999D01*
X131858000Y-122954001D01*
X131856796Y-122978505D01*
X131853196Y-123002773D01*
X131847235Y-123026572D01*
X131838970Y-123049671D01*
X131828480Y-123071850D01*
X131815868Y-123092893D01*
X131801253Y-123112599D01*
X131784777Y-123130777D01*
X131766599Y-123147253D01*
X131746893Y-123161868D01*
X131725850Y-123174480D01*
X131703671Y-123184970D01*
X131680572Y-123193235D01*
X131656773Y-123199196D01*
X131632505Y-123202796D01*
X131608001Y-123204000D01*
X129757999Y-123204000D01*
X129733495Y-123202796D01*
X129709227Y-123199196D01*
X129685428Y-123193235D01*
X129662329Y-123184970D01*
X129640150Y-123174480D01*
X129619107Y-123161868D01*
X129599401Y-123147253D01*
X129581223Y-123130777D01*
X129564747Y-123112599D01*
X129550132Y-123092893D01*
X129537520Y-123071850D01*
X129527030Y-123049671D01*
X129518765Y-123026572D01*
X129512804Y-123002773D01*
X129509204Y-122978505D01*
X129508000Y-122954001D01*
X129508000Y-122128999D01*
X129509204Y-122104495D01*
X129512804Y-122080227D01*
X129518765Y-122056428D01*
X129527030Y-122033329D01*
X129537520Y-122011150D01*
X129550132Y-121990107D01*
X129564747Y-121970401D01*
X129581223Y-121952223D01*
X129599401Y-121935747D01*
X129619107Y-121921132D01*
X129640150Y-121908520D01*
X129662329Y-121898030D01*
X129685428Y-121889765D01*
X129709227Y-121883804D01*
X129733495Y-121880204D01*
X129757999Y-121879000D01*
X131608001Y-121879000D01*
X131632505Y-121880204D01*
X131632505Y-121880204D01*
G37*
D14*
G04 #@! TD*
G04 #@! TO.P,C2,2*
G04 #@! TO.N,GND*
X130683000Y-122541500D03*
D15*
G04 #@! TO.P,J3,3*
G04 #@! TO.N,Net-(J3-Pad3)*
X140208000Y-138415000D03*
G04 #@! TO.P,J3,2*
G04 #@! TO.N,Net-(J3-Pad2)*
X140208000Y-141915000D03*
D16*
G04 #@! TO.P,J3,1*
G04 #@! TO.N,Net-(J3-Pad1)*
X140208000Y-145415000D03*
G04 #@! TD*
G04 #@! TO.P,J4,1*
G04 #@! TO.N,GND*
X133604000Y-138430000D03*
D15*
G04 #@! TO.P,J4,2*
X133604000Y-141930000D03*
G04 #@! TO.P,J4,3*
X133604000Y-145430000D03*
G04 #@! TD*
D16*
G04 #@! TO.P,J1,1*
G04 #@! TO.N,Net-(J1-Pad1)*
X140208000Y-91440000D03*
D15*
G04 #@! TO.P,J1,2*
G04 #@! TO.N,Net-(J1-Pad2)*
X140208000Y-87940000D03*
G04 #@! TO.P,J1,3*
G04 #@! TO.N,Net-(J1-Pad3)*
X140208000Y-84440000D03*
G04 #@! TD*
D16*
G04 #@! TO.P,J2,1*
G04 #@! TO.N,Net-(J2-Pad1)*
X144780000Y-130810000D03*
D15*
G04 #@! TO.P,J2,2*
G04 #@! TO.N,Net-(J2-Pad2)*
X144780000Y-127310000D03*
G04 #@! TO.P,J2,3*
G04 #@! TO.N,Net-(J2-Pad3)*
X144780000Y-123810000D03*
G04 #@! TO.P,J2,4*
G04 #@! TO.N,Net-(J2-Pad4)*
X144780000Y-120310000D03*
G04 #@! TO.P,J2,5*
G04 #@! TO.N,Net-(J2-Pad5)*
X144780000Y-116810000D03*
G04 #@! TO.P,J2,6*
G04 #@! TO.N,Net-(J2-Pad6)*
X144780000Y-113310000D03*
G04 #@! TO.P,J2,7*
G04 #@! TO.N,Net-(J2-Pad7)*
X144780000Y-109810000D03*
G04 #@! TO.P,J2,8*
G04 #@! TO.N,Net-(J2-Pad8)*
X144780000Y-106310000D03*
G04 #@! TO.P,J2,9*
G04 #@! TO.N,Net-(J2-Pad9)*
X144780000Y-102810000D03*
G04 #@! TO.P,J2,10*
G04 #@! TO.N,Net-(J2-Pad10)*
X144780000Y-99310000D03*
G04 #@! TD*
D13*
G04 #@! TO.N,5V*
G04 #@! TO.C,C1*
G36*
X130440958Y-118171710D02*
X130455276Y-118173834D01*
X130469317Y-118177351D01*
X130482946Y-118182228D01*
X130496031Y-118188417D01*
X130508447Y-118195858D01*
X130520073Y-118204481D01*
X130530798Y-118214202D01*
X130540519Y-118224927D01*
X130549142Y-118236553D01*
X130556583Y-118248969D01*
X130562772Y-118262054D01*
X130567649Y-118275683D01*
X130571166Y-118289724D01*
X130573290Y-118304042D01*
X130574000Y-118318500D01*
X130574000Y-118663500D01*
X130573290Y-118677958D01*
X130571166Y-118692276D01*
X130567649Y-118706317D01*
X130562772Y-118719946D01*
X130556583Y-118733031D01*
X130549142Y-118745447D01*
X130540519Y-118757073D01*
X130530798Y-118767798D01*
X130520073Y-118777519D01*
X130508447Y-118786142D01*
X130496031Y-118793583D01*
X130482946Y-118799772D01*
X130469317Y-118804649D01*
X130455276Y-118808166D01*
X130440958Y-118810290D01*
X130426500Y-118811000D01*
X130131500Y-118811000D01*
X130117042Y-118810290D01*
X130102724Y-118808166D01*
X130088683Y-118804649D01*
X130075054Y-118799772D01*
X130061969Y-118793583D01*
X130049553Y-118786142D01*
X130037927Y-118777519D01*
X130027202Y-118767798D01*
X130017481Y-118757073D01*
X130008858Y-118745447D01*
X130001417Y-118733031D01*
X129995228Y-118719946D01*
X129990351Y-118706317D01*
X129986834Y-118692276D01*
X129984710Y-118677958D01*
X129984000Y-118663500D01*
X129984000Y-118318500D01*
X129984710Y-118304042D01*
X129986834Y-118289724D01*
X129990351Y-118275683D01*
X129995228Y-118262054D01*
X130001417Y-118248969D01*
X130008858Y-118236553D01*
X130017481Y-118224927D01*
X130027202Y-118214202D01*
X130037927Y-118204481D01*
X130049553Y-118195858D01*
X130061969Y-118188417D01*
X130075054Y-118182228D01*
X130088683Y-118177351D01*
X130102724Y-118173834D01*
X130117042Y-118171710D01*
X130131500Y-118171000D01*
X130426500Y-118171000D01*
X130440958Y-118171710D01*
X130440958Y-118171710D01*
G37*
D17*
G04 #@! TD*
G04 #@! TO.P,C1,1*
G04 #@! TO.N,5V*
X130279000Y-118491000D03*
D13*
G04 #@! TO.N,GND*
G04 #@! TO.C,C1*
G36*
X129470958Y-118171710D02*
X129485276Y-118173834D01*
X129499317Y-118177351D01*
X129512946Y-118182228D01*
X129526031Y-118188417D01*
X129538447Y-118195858D01*
X129550073Y-118204481D01*
X129560798Y-118214202D01*
X129570519Y-118224927D01*
X129579142Y-118236553D01*
X129586583Y-118248969D01*
X129592772Y-118262054D01*
X129597649Y-118275683D01*
X129601166Y-118289724D01*
X129603290Y-118304042D01*
X129604000Y-118318500D01*
X129604000Y-118663500D01*
X129603290Y-118677958D01*
X129601166Y-118692276D01*
X129597649Y-118706317D01*
X129592772Y-118719946D01*
X129586583Y-118733031D01*
X129579142Y-118745447D01*
X129570519Y-118757073D01*
X129560798Y-118767798D01*
X129550073Y-118777519D01*
X129538447Y-118786142D01*
X129526031Y-118793583D01*
X129512946Y-118799772D01*
X129499317Y-118804649D01*
X129485276Y-118808166D01*
X129470958Y-118810290D01*
X129456500Y-118811000D01*
X129161500Y-118811000D01*
X129147042Y-118810290D01*
X129132724Y-118808166D01*
X129118683Y-118804649D01*
X129105054Y-118799772D01*
X129091969Y-118793583D01*
X129079553Y-118786142D01*
X129067927Y-118777519D01*
X129057202Y-118767798D01*
X129047481Y-118757073D01*
X129038858Y-118745447D01*
X129031417Y-118733031D01*
X129025228Y-118719946D01*
X129020351Y-118706317D01*
X129016834Y-118692276D01*
X129014710Y-118677958D01*
X129014000Y-118663500D01*
X129014000Y-118318500D01*
X129014710Y-118304042D01*
X129016834Y-118289724D01*
X129020351Y-118275683D01*
X129025228Y-118262054D01*
X129031417Y-118248969D01*
X129038858Y-118236553D01*
X129047481Y-118224927D01*
X129057202Y-118214202D01*
X129067927Y-118204481D01*
X129079553Y-118195858D01*
X129091969Y-118188417D01*
X129105054Y-118182228D01*
X129118683Y-118177351D01*
X129132724Y-118173834D01*
X129147042Y-118171710D01*
X129161500Y-118171000D01*
X129456500Y-118171000D01*
X129470958Y-118171710D01*
X129470958Y-118171710D01*
G37*
D17*
G04 #@! TD*
G04 #@! TO.P,C1,2*
G04 #@! TO.N,GND*
X129309000Y-118491000D03*
D16*
G04 #@! TO.P,J5,1*
G04 #@! TO.N,GND*
X137922000Y-99314000D03*
D15*
G04 #@! TO.P,J5,2*
X137922000Y-102814000D03*
G04 #@! TO.P,J5,3*
X137922000Y-106314000D03*
G04 #@! TO.P,J5,4*
X137922000Y-109814000D03*
G04 #@! TO.P,J5,5*
X137922000Y-113314000D03*
G04 #@! TO.P,J5,6*
X137922000Y-116814000D03*
G04 #@! TO.P,J5,7*
X137922000Y-120314000D03*
G04 #@! TO.P,J5,8*
X137922000Y-123814000D03*
G04 #@! TO.P,J5,9*
X137922000Y-127314000D03*
G04 #@! TO.P,J5,10*
X137922000Y-130814000D03*
G04 #@! TD*
G04 #@! TO.P,J6,3*
G04 #@! TO.N,GND*
X133604000Y-91455000D03*
G04 #@! TO.P,J6,2*
X133604000Y-87955000D03*
D16*
G04 #@! TO.P,J6,1*
X133604000Y-84455000D03*
G04 #@! TD*
D12*
G04 #@! TO.P,JP1,2*
G04 #@! TO.N,Net-(JP1-Pad2)*
X129286000Y-107218000D03*
G04 #@! TO.P,JP1,1*
G04 #@! TO.N,GND*
X129286000Y-105918000D03*
G04 #@! TD*
G04 #@! TO.P,JP2,1*
G04 #@! TO.N,GND*
X129286000Y-102586000D03*
G04 #@! TO.P,JP2,2*
G04 #@! TO.N,Net-(JP2-Pad2)*
X129286000Y-103886000D03*
G04 #@! TD*
D18*
G04 #@! TO.P,U2,1*
G04 #@! TO.N,GND*
X128949000Y-112535000D03*
G04 #@! TO.P,U2,2*
G04 #@! TO.N,SCL*
X129449000Y-112535000D03*
G04 #@! TO.P,U2,3*
G04 #@! TO.N,SDA*
X129949000Y-112535000D03*
G04 #@! TO.P,U2,4*
G04 #@! TO.N,GND*
X130449000Y-112535000D03*
G04 #@! TO.P,U2,5*
X130949000Y-112535000D03*
G04 #@! TO.P,U2,6*
X131449000Y-112535000D03*
G04 #@! TO.P,U2,7*
X131949000Y-112535000D03*
G04 #@! TO.P,U2,8*
G04 #@! TO.N,Net-(J1-Pad3)*
X132449000Y-112535000D03*
G04 #@! TO.P,U2,9*
G04 #@! TO.N,Net-(J1-Pad2)*
X132949000Y-112535000D03*
G04 #@! TO.P,U2,10*
G04 #@! TO.N,Net-(J1-Pad1)*
X133449000Y-112535000D03*
G04 #@! TO.P,U2,11*
G04 #@! TO.N,Net-(J2-Pad10)*
X133949000Y-112535000D03*
G04 #@! TO.P,U2,12*
G04 #@! TO.N,Net-(J2-Pad9)*
X134449000Y-112535000D03*
D19*
G04 #@! TO.P,U2,13*
G04 #@! TO.N,Net-(J2-Pad8)*
X135099000Y-113435000D03*
G04 #@! TO.P,U2,14*
G04 #@! TO.N,Net-(J2-Pad7)*
X135099000Y-113935000D03*
G04 #@! TO.P,U2,15*
G04 #@! TO.N,Net-(J2-Pad6)*
X135099000Y-114435000D03*
G04 #@! TO.P,U2,16*
G04 #@! TO.N,Net-(J2-Pad5)*
X135099000Y-114935000D03*
G04 #@! TO.P,U2,17*
G04 #@! TO.N,Net-(J2-Pad4)*
X135099000Y-115435000D03*
G04 #@! TO.P,U2,18*
G04 #@! TO.N,Net-(J2-Pad3)*
X135099000Y-115935000D03*
G04 #@! TO.P,U2,19*
G04 #@! TO.N,Net-(J2-Pad2)*
X135099000Y-116435000D03*
D18*
G04 #@! TO.P,U2,20*
G04 #@! TO.N,Net-(J2-Pad1)*
X134449000Y-117335000D03*
G04 #@! TO.P,U2,21*
G04 #@! TO.N,Net-(J3-Pad3)*
X133949000Y-117335000D03*
G04 #@! TO.P,U2,22*
G04 #@! TO.N,Net-(J3-Pad2)*
X133449000Y-117335000D03*
G04 #@! TO.P,U2,23*
G04 #@! TO.N,Net-(J3-Pad1)*
X132949000Y-117335000D03*
G04 #@! TO.P,U2,24*
G04 #@! TO.N,Net-(U2-Pad24)*
X132449000Y-117335000D03*
G04 #@! TO.P,U2,25*
X131949000Y-117335000D03*
G04 #@! TO.P,U2,26*
G04 #@! TO.N,Net-(U2-Pad26)*
X131449000Y-117335000D03*
G04 #@! TO.P,U2,27*
X130949000Y-117335000D03*
G04 #@! TO.P,U2,28*
G04 #@! TO.N,5V*
X130449000Y-117335000D03*
G04 #@! TO.P,U2,29*
X129949000Y-117335000D03*
G04 #@! TO.P,U2,30*
G04 #@! TO.N,GND*
X129449000Y-117335000D03*
G04 #@! TO.P,U2,31*
X128949000Y-117335000D03*
D19*
G04 #@! TO.P,U2,32*
X128299000Y-116435000D03*
G04 #@! TO.P,U2,33*
X128299000Y-115935000D03*
G04 #@! TO.P,U2,34*
X128299000Y-115435000D03*
G04 #@! TO.P,U2,35*
X128299000Y-114935000D03*
G04 #@! TO.P,U2,36*
G04 #@! TO.N,Net-(JP3-Pad2)*
X128299000Y-114435000D03*
G04 #@! TO.P,U2,37*
G04 #@! TO.N,Net-(JP2-Pad2)*
X128299000Y-113935000D03*
G04 #@! TO.P,U2,38*
G04 #@! TO.N,Net-(JP1-Pad2)*
X128299000Y-113435000D03*
D20*
G04 #@! TO.P,U2,39*
G04 #@! TO.N,GND*
X131699000Y-114935000D03*
G04 #@! TD*
D21*
G04 #@! TO.N,GND*
X130556000Y-99060000D03*
G04 #@! TO.N,Net-(JP3-Pad2)*
X127254000Y-115062000D03*
X130556000Y-101600000D03*
G04 #@! TD*
D22*
G04 #@! TO.N,GND*
X129322000Y-118478000D02*
X129309000Y-118491000D01*
X128172000Y-115935000D02*
X128172000Y-116435000D01*
X132334000Y-137160000D02*
X133604000Y-138430000D01*
X128172000Y-116685000D02*
X128822000Y-117335000D01*
X128172000Y-116435000D02*
X128172000Y-116685000D01*
X130937000Y-122541500D02*
X131812500Y-122541500D01*
X130683000Y-122541500D02*
X131304500Y-122541500D01*
X129309000Y-121167500D02*
X130683000Y-122541500D01*
X129309000Y-118491000D02*
X129309000Y-121167500D01*
X128172000Y-114935000D02*
X128172000Y-115435000D01*
X128172000Y-115435000D02*
X128172000Y-115935000D01*
X129449000Y-118351000D02*
X129309000Y-118491000D01*
X129449000Y-117335000D02*
X129449000Y-118351000D01*
X131949000Y-114685000D02*
X131699000Y-114935000D01*
X131949000Y-112535000D02*
X131949000Y-114685000D01*
X130449000Y-112535000D02*
X131949000Y-112535000D01*
X128299000Y-114935000D02*
X131699000Y-114935000D01*
X128949000Y-112535000D02*
X128949000Y-113074000D01*
X130810000Y-114935000D02*
X131699000Y-114935000D01*
X128949000Y-113074000D02*
X130810000Y-114935000D01*
X129286000Y-102586000D02*
X130145000Y-102586000D01*
X130145000Y-102586000D02*
X130429000Y-102870000D01*
X130429000Y-104775000D02*
X129286000Y-105918000D01*
X130429000Y-102870000D02*
X130429000Y-104775000D01*
X129286000Y-99314000D02*
X128397000Y-99314000D01*
X128397000Y-99314000D02*
X127889000Y-99822000D01*
X127889000Y-101189000D02*
X129286000Y-102586000D01*
X127889000Y-99822000D02*
X127889000Y-101189000D01*
X129540000Y-99060000D02*
X129286000Y-99314000D01*
X130556000Y-99060000D02*
X129540000Y-99060000D01*
G04 #@! TO.N,SCL*
X125222000Y-100203000D02*
X125222000Y-132842000D01*
X125603000Y-99822000D02*
X125222000Y-100203000D01*
X126873000Y-99822000D02*
X125603000Y-99822000D01*
X125222000Y-132842000D02*
X126440001Y-134060001D01*
X131318000Y-109728000D02*
X131318000Y-98171000D01*
X131318000Y-98171000D02*
X130937000Y-97790000D01*
X130937000Y-97790000D02*
X128905000Y-97790000D01*
X128905000Y-97790000D02*
X126873000Y-99822000D01*
X129449000Y-111597000D02*
X131318000Y-109728000D01*
X129449000Y-112535000D02*
X129449000Y-111597000D01*
G04 #@! TO.N,5V*
X123900001Y-139140001D02*
X123900001Y-136600001D01*
X123900001Y-139140001D02*
X123900001Y-139521001D01*
X123900001Y-139521001D02*
X124968000Y-140589000D01*
X124968000Y-140589000D02*
X126873000Y-140589000D01*
X126873000Y-140589000D02*
X128016000Y-139446000D01*
X128016000Y-128692000D02*
X131064000Y-125644000D01*
X128016000Y-139446000D02*
X128016000Y-128692000D01*
X130683000Y-125616500D02*
X130683000Y-125349000D01*
X130683000Y-125349000D02*
X132334000Y-123698000D01*
X132334000Y-120546000D02*
X130279000Y-118491000D01*
X132334000Y-123698000D02*
X132334000Y-120546000D01*
X130449000Y-118321000D02*
X130279000Y-118491000D01*
X130449000Y-117335000D02*
X130449000Y-118321000D01*
X129949000Y-117335000D02*
X130449000Y-117335000D01*
G04 #@! TO.N,SDA*
X123190000Y-135382000D02*
X125222000Y-135382000D01*
X122555000Y-134747000D02*
X123190000Y-135382000D01*
X122555000Y-98044000D02*
X122555000Y-134747000D01*
X131826000Y-109982000D02*
X131826000Y-97790000D01*
X131826000Y-97790000D02*
X131318000Y-97282000D01*
X125222000Y-135382000D02*
X126440001Y-136600001D01*
X131318000Y-97282000D02*
X123317000Y-97282000D01*
X123317000Y-97282000D02*
X122555000Y-98044000D01*
X129949000Y-111859000D02*
X131826000Y-109982000D01*
X129949000Y-112535000D02*
X129949000Y-111859000D01*
G04 #@! TO.N,Net-(U2-Pad24)*
X131949000Y-117335000D02*
X132449000Y-117335000D01*
G04 #@! TO.N,Net-(U2-Pad26)*
X130949000Y-117335000D02*
X131449000Y-117335000D01*
G04 #@! TO.N,Net-(J1-Pad3)*
X135763000Y-88885000D02*
X140208000Y-84440000D01*
X135763000Y-92202000D02*
X135763000Y-88885000D01*
X132449000Y-95516000D02*
X132461000Y-95504000D01*
X132449000Y-112535000D02*
X132449000Y-95516000D01*
X132461000Y-95504000D02*
X135763000Y-92202000D01*
G04 #@! TO.N,Net-(J1-Pad1)*
X133449000Y-98199000D02*
X133477000Y-98171000D01*
X133449000Y-112535000D02*
X133449000Y-98199000D01*
X133477000Y-98171000D02*
X140208000Y-91440000D01*
G04 #@! TO.N,Net-(J1-Pad2)*
X136398000Y-91750000D02*
X140208000Y-87940000D01*
X136398000Y-92329000D02*
X136398000Y-91750000D01*
X132949000Y-95778000D02*
X132969000Y-95758000D01*
X132949000Y-112535000D02*
X132949000Y-95778000D01*
X132969000Y-95758000D02*
X136398000Y-92329000D01*
G04 #@! TO.N,Net-(J2-Pad1)*
X143129000Y-129159000D02*
X144780000Y-130810000D01*
X136779000Y-129159000D02*
X143129000Y-129159000D01*
X134449000Y-126829000D02*
X136779000Y-129159000D01*
X134449000Y-117335000D02*
X134449000Y-126829000D01*
G04 #@! TO.N,Net-(J2-Pad2)*
X134972000Y-116435000D02*
X134972000Y-123923000D01*
X134972000Y-123923000D02*
X136652000Y-125603000D01*
X143073000Y-125603000D02*
X144780000Y-127310000D01*
X136652000Y-125603000D02*
X143073000Y-125603000D01*
G04 #@! TO.N,Net-(J2-Pad3)*
X143144000Y-122174000D02*
X144780000Y-123810000D01*
X136906000Y-122174000D02*
X143144000Y-122174000D01*
X135099000Y-115935000D02*
X135620000Y-115935000D01*
X135890000Y-116205000D02*
X135890000Y-121158000D01*
X135620000Y-115935000D02*
X135890000Y-116205000D01*
X135890000Y-121158000D02*
X136906000Y-122174000D01*
G04 #@! TO.N,Net-(J2-Pad4)*
X142834000Y-118364000D02*
X144780000Y-120310000D01*
X137160000Y-118364000D02*
X142834000Y-118364000D01*
X135099000Y-115435000D02*
X135882000Y-115435000D01*
X135882000Y-115435000D02*
X136340010Y-115893010D01*
X136340010Y-117544010D02*
X137160000Y-118364000D01*
X136340010Y-115893010D02*
X136340010Y-117544010D01*
G04 #@! TO.N,Net-(J2-Pad5)*
X142905000Y-114935000D02*
X144780000Y-116810000D01*
X134972000Y-114935000D02*
X142905000Y-114935000D01*
G04 #@! TO.N,Net-(J2-Pad6)*
X143103000Y-111633000D02*
X144780000Y-113310000D01*
X137414000Y-111633000D02*
X143103000Y-111633000D01*
X135099000Y-114435000D02*
X136136000Y-114435000D01*
X136136000Y-114435000D02*
X136396999Y-114174001D01*
X136396999Y-112650001D02*
X137414000Y-111633000D01*
X136396999Y-114174001D02*
X136396999Y-112650001D01*
G04 #@! TO.N,Net-(J2-Pad7)*
X143047000Y-108077000D02*
X144780000Y-109810000D01*
X136398000Y-108077000D02*
X143047000Y-108077000D01*
X135099000Y-113935000D02*
X135620000Y-113935000D01*
X135890000Y-113665000D02*
X135890000Y-108585000D01*
X135620000Y-113935000D02*
X135890000Y-113665000D01*
X135890000Y-108585000D02*
X136398000Y-108077000D01*
G04 #@! TO.N,Net-(J2-Pad8)*
X142991000Y-104521000D02*
X144780000Y-106310000D01*
X136271000Y-104521000D02*
X142991000Y-104521000D01*
X135099000Y-105693000D02*
X136271000Y-104521000D01*
X135099000Y-113435000D02*
X135099000Y-105693000D01*
G04 #@! TO.N,Net-(J2-Pad9)*
X143062000Y-101092000D02*
X144780000Y-102810000D01*
X135763000Y-101092000D02*
X143062000Y-101092000D01*
X134449000Y-102406000D02*
X134493000Y-102362000D01*
X134449000Y-112535000D02*
X134449000Y-102406000D01*
X134493000Y-102362000D02*
X135763000Y-101092000D01*
G04 #@! TO.N,Net-(J2-Pad10)*
X143133000Y-97663000D02*
X144780000Y-99310000D01*
X135001000Y-97663000D02*
X143133000Y-97663000D01*
X133949000Y-98715000D02*
X133985000Y-98679000D01*
X133949000Y-112535000D02*
X133949000Y-98715000D01*
X133985000Y-98679000D02*
X135001000Y-97663000D01*
G04 #@! TO.N,Net-(J3-Pad3)*
X133949000Y-132156000D02*
X140208000Y-138415000D01*
X133949000Y-117335000D02*
X133949000Y-132156000D01*
G04 #@! TO.N,Net-(J3-Pad2)*
X137287000Y-139121000D02*
X140208000Y-142042000D01*
X137287000Y-137414000D02*
X137287000Y-139121000D01*
X133449000Y-133576000D02*
X137287000Y-137414000D01*
X133449000Y-117335000D02*
X133449000Y-133576000D01*
G04 #@! TO.N,Net-(J3-Pad1)*
X136271000Y-141605000D02*
X140208000Y-145542000D01*
X136271000Y-137922000D02*
X136271000Y-141605000D01*
X132949000Y-134600000D02*
X136271000Y-137922000D01*
X132949000Y-117335000D02*
X132949000Y-134600000D01*
G04 #@! TO.N,Net-(JP1-Pad2)*
X128172000Y-113435000D02*
X128172000Y-111858000D01*
X129286000Y-110744000D02*
X129286000Y-107218000D01*
X128172000Y-111858000D02*
X129286000Y-110744000D01*
G04 #@! TO.N,Net-(JP2-Pad2)*
X127889000Y-105283000D02*
X129286000Y-103886000D01*
X127889000Y-111252000D02*
X127889000Y-105283000D01*
X127527002Y-111613998D02*
X127889000Y-111252000D01*
X127527002Y-113792000D02*
X127527002Y-111613998D01*
X128299000Y-113935000D02*
X127670002Y-113935000D01*
X127670002Y-113935000D02*
X127527002Y-113792000D01*
G04 #@! TO.N,Net-(JP3-Pad2)*
X128299000Y-114435000D02*
X127754000Y-114435000D01*
X127754000Y-114435000D02*
X127254000Y-114935000D01*
X127254000Y-114935000D02*
X127254000Y-115062000D01*
X130272000Y-101600000D02*
X129286000Y-100614000D01*
X130556000Y-101600000D02*
X130272000Y-101600000D01*
G04 #@! TD*
D23*
G04 #@! TO.N,GND*
G36*
X145583397Y-83740939D02*
X145030001Y-85076955D01*
X145030001Y-86523047D01*
X145583397Y-87859063D01*
X146605939Y-88881605D01*
X147941955Y-89435001D01*
X149388047Y-89435001D01*
X150724063Y-88881605D01*
X151182000Y-88423668D01*
X151182001Y-141596335D01*
X150724063Y-141138397D01*
X149388047Y-140585001D01*
X147941955Y-140585001D01*
X146605939Y-141138397D01*
X145583397Y-142160939D01*
X145030001Y-143496955D01*
X145030001Y-144943047D01*
X145583397Y-146279063D01*
X146041334Y-146737000D01*
X142031173Y-146737000D01*
X142055440Y-146615000D01*
X142055440Y-144215000D01*
X142006157Y-143967235D01*
X141865809Y-143757191D01*
X141655765Y-143616843D01*
X141408000Y-143567560D01*
X141013453Y-143567560D01*
X141247444Y-143470638D01*
X141763638Y-142954444D01*
X142043000Y-142280004D01*
X142043000Y-141549996D01*
X141763638Y-140875556D01*
X141247444Y-140359362D01*
X140778212Y-140165000D01*
X141247444Y-139970638D01*
X141763638Y-139454444D01*
X142043000Y-138780004D01*
X142043000Y-138049996D01*
X141763638Y-137375556D01*
X141247444Y-136859362D01*
X140573004Y-136580000D01*
X139842996Y-136580000D01*
X139563551Y-136695750D01*
X134978976Y-132111175D01*
X136804430Y-132111175D01*
X136927565Y-132398788D01*
X137609734Y-132658707D01*
X138339443Y-132637786D01*
X138916435Y-132398788D01*
X139039570Y-132111175D01*
X137922000Y-130993605D01*
X136804430Y-132111175D01*
X134978976Y-132111175D01*
X134709000Y-131841199D01*
X134709000Y-128163801D01*
X136188670Y-129643472D01*
X136231071Y-129706929D01*
X136375262Y-129803275D01*
X136337212Y-129819565D01*
X136077293Y-130501734D01*
X136098214Y-131231443D01*
X136337212Y-131808435D01*
X136624825Y-131931570D01*
X137742395Y-130814000D01*
X137728253Y-130799858D01*
X137907858Y-130620253D01*
X137922000Y-130634395D01*
X137936143Y-130620253D01*
X138115748Y-130799858D01*
X138101605Y-130814000D01*
X139219175Y-131931570D01*
X139506788Y-131808435D01*
X139766707Y-131126266D01*
X139745786Y-130396557D01*
X139547975Y-129919000D01*
X142814199Y-129919000D01*
X142932560Y-130037361D01*
X142932560Y-132010000D01*
X142981843Y-132257765D01*
X143122191Y-132467809D01*
X143332235Y-132608157D01*
X143580000Y-132657440D01*
X145980000Y-132657440D01*
X146227765Y-132608157D01*
X146437809Y-132467809D01*
X146578157Y-132257765D01*
X146627440Y-132010000D01*
X146627440Y-129610000D01*
X146578157Y-129362235D01*
X146437809Y-129152191D01*
X146227765Y-129011843D01*
X145980000Y-128962560D01*
X145585453Y-128962560D01*
X145819444Y-128865638D01*
X146335638Y-128349444D01*
X146615000Y-127675004D01*
X146615000Y-126944996D01*
X146335638Y-126270556D01*
X145819444Y-125754362D01*
X145350212Y-125560000D01*
X145819444Y-125365638D01*
X146335638Y-124849444D01*
X146615000Y-124175004D01*
X146615000Y-123444996D01*
X146335638Y-122770556D01*
X145819444Y-122254362D01*
X145350212Y-122060000D01*
X145819444Y-121865638D01*
X146335638Y-121349444D01*
X146615000Y-120675004D01*
X146615000Y-119944996D01*
X146335638Y-119270556D01*
X145819444Y-118754362D01*
X145350212Y-118560000D01*
X145819444Y-118365638D01*
X146335638Y-117849444D01*
X146615000Y-117175004D01*
X146615000Y-116444996D01*
X146335638Y-115770556D01*
X145819444Y-115254362D01*
X145350212Y-115060000D01*
X145819444Y-114865638D01*
X146335638Y-114349444D01*
X146615000Y-113675004D01*
X146615000Y-112944996D01*
X146335638Y-112270556D01*
X145819444Y-111754362D01*
X145350212Y-111560000D01*
X145819444Y-111365638D01*
X146335638Y-110849444D01*
X146615000Y-110175004D01*
X146615000Y-109444996D01*
X146335638Y-108770556D01*
X145819444Y-108254362D01*
X145350212Y-108060000D01*
X145819444Y-107865638D01*
X146335638Y-107349444D01*
X146615000Y-106675004D01*
X146615000Y-105944996D01*
X146335638Y-105270556D01*
X145819444Y-104754362D01*
X145350212Y-104560000D01*
X145819444Y-104365638D01*
X146335638Y-103849444D01*
X146615000Y-103175004D01*
X146615000Y-102444996D01*
X146335638Y-101770556D01*
X145819444Y-101254362D01*
X145350212Y-101060000D01*
X145819444Y-100865638D01*
X146335638Y-100349444D01*
X146615000Y-99675004D01*
X146615000Y-98944996D01*
X146335638Y-98270556D01*
X145819444Y-97754362D01*
X145145004Y-97475000D01*
X144414996Y-97475000D01*
X144135551Y-97590750D01*
X143723331Y-97178530D01*
X143680929Y-97115071D01*
X143429537Y-96947096D01*
X143207852Y-96903000D01*
X143207847Y-96903000D01*
X143133000Y-96888112D01*
X143058153Y-96903000D01*
X135819802Y-96903000D01*
X139435363Y-93287440D01*
X141408000Y-93287440D01*
X141655765Y-93238157D01*
X141865809Y-93097809D01*
X142006157Y-92887765D01*
X142055440Y-92640000D01*
X142055440Y-90240000D01*
X142006157Y-89992235D01*
X141865809Y-89782191D01*
X141655765Y-89641843D01*
X141408000Y-89592560D01*
X141013453Y-89592560D01*
X141247444Y-89495638D01*
X141763638Y-88979444D01*
X142043000Y-88305004D01*
X142043000Y-87574996D01*
X141763638Y-86900556D01*
X141247444Y-86384362D01*
X140778212Y-86190000D01*
X141247444Y-85995638D01*
X141763638Y-85479444D01*
X142043000Y-84805004D01*
X142043000Y-84074996D01*
X141763638Y-83400556D01*
X141623082Y-83260000D01*
X146064336Y-83260000D01*
X145583397Y-83740939D01*
X145583397Y-83740939D01*
G37*
X145583397Y-83740939D02*
X145030001Y-85076955D01*
X145030001Y-86523047D01*
X145583397Y-87859063D01*
X146605939Y-88881605D01*
X147941955Y-89435001D01*
X149388047Y-89435001D01*
X150724063Y-88881605D01*
X151182000Y-88423668D01*
X151182001Y-141596335D01*
X150724063Y-141138397D01*
X149388047Y-140585001D01*
X147941955Y-140585001D01*
X146605939Y-141138397D01*
X145583397Y-142160939D01*
X145030001Y-143496955D01*
X145030001Y-144943047D01*
X145583397Y-146279063D01*
X146041334Y-146737000D01*
X142031173Y-146737000D01*
X142055440Y-146615000D01*
X142055440Y-144215000D01*
X142006157Y-143967235D01*
X141865809Y-143757191D01*
X141655765Y-143616843D01*
X141408000Y-143567560D01*
X141013453Y-143567560D01*
X141247444Y-143470638D01*
X141763638Y-142954444D01*
X142043000Y-142280004D01*
X142043000Y-141549996D01*
X141763638Y-140875556D01*
X141247444Y-140359362D01*
X140778212Y-140165000D01*
X141247444Y-139970638D01*
X141763638Y-139454444D01*
X142043000Y-138780004D01*
X142043000Y-138049996D01*
X141763638Y-137375556D01*
X141247444Y-136859362D01*
X140573004Y-136580000D01*
X139842996Y-136580000D01*
X139563551Y-136695750D01*
X134978976Y-132111175D01*
X136804430Y-132111175D01*
X136927565Y-132398788D01*
X137609734Y-132658707D01*
X138339443Y-132637786D01*
X138916435Y-132398788D01*
X139039570Y-132111175D01*
X137922000Y-130993605D01*
X136804430Y-132111175D01*
X134978976Y-132111175D01*
X134709000Y-131841199D01*
X134709000Y-128163801D01*
X136188670Y-129643472D01*
X136231071Y-129706929D01*
X136375262Y-129803275D01*
X136337212Y-129819565D01*
X136077293Y-130501734D01*
X136098214Y-131231443D01*
X136337212Y-131808435D01*
X136624825Y-131931570D01*
X137742395Y-130814000D01*
X137728253Y-130799858D01*
X137907858Y-130620253D01*
X137922000Y-130634395D01*
X137936143Y-130620253D01*
X138115748Y-130799858D01*
X138101605Y-130814000D01*
X139219175Y-131931570D01*
X139506788Y-131808435D01*
X139766707Y-131126266D01*
X139745786Y-130396557D01*
X139547975Y-129919000D01*
X142814199Y-129919000D01*
X142932560Y-130037361D01*
X142932560Y-132010000D01*
X142981843Y-132257765D01*
X143122191Y-132467809D01*
X143332235Y-132608157D01*
X143580000Y-132657440D01*
X145980000Y-132657440D01*
X146227765Y-132608157D01*
X146437809Y-132467809D01*
X146578157Y-132257765D01*
X146627440Y-132010000D01*
X146627440Y-129610000D01*
X146578157Y-129362235D01*
X146437809Y-129152191D01*
X146227765Y-129011843D01*
X145980000Y-128962560D01*
X145585453Y-128962560D01*
X145819444Y-128865638D01*
X146335638Y-128349444D01*
X146615000Y-127675004D01*
X146615000Y-126944996D01*
X146335638Y-126270556D01*
X145819444Y-125754362D01*
X145350212Y-125560000D01*
X145819444Y-125365638D01*
X146335638Y-124849444D01*
X146615000Y-124175004D01*
X146615000Y-123444996D01*
X146335638Y-122770556D01*
X145819444Y-122254362D01*
X145350212Y-122060000D01*
X145819444Y-121865638D01*
X146335638Y-121349444D01*
X146615000Y-120675004D01*
X146615000Y-119944996D01*
X146335638Y-119270556D01*
X145819444Y-118754362D01*
X145350212Y-118560000D01*
X145819444Y-118365638D01*
X146335638Y-117849444D01*
X146615000Y-117175004D01*
X146615000Y-116444996D01*
X146335638Y-115770556D01*
X145819444Y-115254362D01*
X145350212Y-115060000D01*
X145819444Y-114865638D01*
X146335638Y-114349444D01*
X146615000Y-113675004D01*
X146615000Y-112944996D01*
X146335638Y-112270556D01*
X145819444Y-111754362D01*
X145350212Y-111560000D01*
X145819444Y-111365638D01*
X146335638Y-110849444D01*
X146615000Y-110175004D01*
X146615000Y-109444996D01*
X146335638Y-108770556D01*
X145819444Y-108254362D01*
X145350212Y-108060000D01*
X145819444Y-107865638D01*
X146335638Y-107349444D01*
X146615000Y-106675004D01*
X146615000Y-105944996D01*
X146335638Y-105270556D01*
X145819444Y-104754362D01*
X145350212Y-104560000D01*
X145819444Y-104365638D01*
X146335638Y-103849444D01*
X146615000Y-103175004D01*
X146615000Y-102444996D01*
X146335638Y-101770556D01*
X145819444Y-101254362D01*
X145350212Y-101060000D01*
X145819444Y-100865638D01*
X146335638Y-100349444D01*
X146615000Y-99675004D01*
X146615000Y-98944996D01*
X146335638Y-98270556D01*
X145819444Y-97754362D01*
X145145004Y-97475000D01*
X144414996Y-97475000D01*
X144135551Y-97590750D01*
X143723331Y-97178530D01*
X143680929Y-97115071D01*
X143429537Y-96947096D01*
X143207852Y-96903000D01*
X143207847Y-96903000D01*
X143133000Y-96888112D01*
X143058153Y-96903000D01*
X135819802Y-96903000D01*
X139435363Y-93287440D01*
X141408000Y-93287440D01*
X141655765Y-93238157D01*
X141865809Y-93097809D01*
X142006157Y-92887765D01*
X142055440Y-92640000D01*
X142055440Y-90240000D01*
X142006157Y-89992235D01*
X141865809Y-89782191D01*
X141655765Y-89641843D01*
X141408000Y-89592560D01*
X141013453Y-89592560D01*
X141247444Y-89495638D01*
X141763638Y-88979444D01*
X142043000Y-88305004D01*
X142043000Y-87574996D01*
X141763638Y-86900556D01*
X141247444Y-86384362D01*
X140778212Y-86190000D01*
X141247444Y-85995638D01*
X141763638Y-85479444D01*
X142043000Y-84805004D01*
X142043000Y-84074996D01*
X141763638Y-83400556D01*
X141623082Y-83260000D01*
X146064336Y-83260000D01*
X145583397Y-83740939D01*
G36*
X132189001Y-134525148D02*
X132174112Y-134600000D01*
X132189001Y-134674852D01*
X132233097Y-134896537D01*
X132401072Y-135147929D01*
X132464528Y-135190329D01*
X133879474Y-136605276D01*
X133731000Y-136753750D01*
X133731000Y-138303000D01*
X135280250Y-138303000D01*
X135428724Y-138154526D01*
X135511000Y-138236803D01*
X135511001Y-141530148D01*
X135496112Y-141605000D01*
X135555097Y-141901537D01*
X135648952Y-142042000D01*
X135723072Y-142152929D01*
X135786528Y-142195329D01*
X138360560Y-144769362D01*
X138360560Y-146615000D01*
X138384827Y-146737000D01*
X134939404Y-146737000D01*
X135015006Y-146661398D01*
X134901177Y-146547569D01*
X135188788Y-146424435D01*
X135448707Y-145742266D01*
X135427786Y-145012557D01*
X135188788Y-144435565D01*
X134901175Y-144312430D01*
X133783605Y-145430000D01*
X133797748Y-145444143D01*
X133618143Y-145623748D01*
X133604000Y-145609605D01*
X133589858Y-145623748D01*
X133410253Y-145444143D01*
X133424395Y-145430000D01*
X132306825Y-144312430D01*
X132019212Y-144435565D01*
X131759293Y-145117734D01*
X131780214Y-145847443D01*
X132019212Y-146424435D01*
X132306823Y-146547569D01*
X132192994Y-146661398D01*
X132268596Y-146737000D01*
X127793668Y-146737000D01*
X128251605Y-146279063D01*
X128805001Y-144943047D01*
X128805001Y-143496955D01*
X128693255Y-143227175D01*
X132486430Y-143227175D01*
X132609565Y-143514788D01*
X133025071Y-143673104D01*
X132609565Y-143845212D01*
X132486430Y-144132825D01*
X133604000Y-145250395D01*
X134721570Y-144132825D01*
X134598435Y-143845212D01*
X134182929Y-143686896D01*
X134598435Y-143514788D01*
X134721570Y-143227175D01*
X133604000Y-142109605D01*
X132486430Y-143227175D01*
X128693255Y-143227175D01*
X128251605Y-142160939D01*
X127708400Y-141617734D01*
X131759293Y-141617734D01*
X131780214Y-142347443D01*
X132019212Y-142924435D01*
X132306825Y-143047570D01*
X133424395Y-141930000D01*
X133783605Y-141930000D01*
X134901175Y-143047570D01*
X135188788Y-142924435D01*
X135448707Y-142242266D01*
X135427786Y-141512557D01*
X135188788Y-140935565D01*
X134901175Y-140812430D01*
X133783605Y-141930000D01*
X133424395Y-141930000D01*
X132306825Y-140812430D01*
X132019212Y-140935565D01*
X131759293Y-141617734D01*
X127708400Y-141617734D01*
X127305034Y-141214368D01*
X127420929Y-141136929D01*
X127463331Y-141073470D01*
X128500473Y-140036329D01*
X128563929Y-139993929D01*
X128731904Y-139742537D01*
X128776000Y-139520852D01*
X128776000Y-139520848D01*
X128790888Y-139446001D01*
X128776000Y-139371154D01*
X128776000Y-138715750D01*
X131769000Y-138715750D01*
X131769000Y-139756309D01*
X131865673Y-139989698D01*
X132044301Y-140168327D01*
X132277690Y-140265000D01*
X132803214Y-140265000D01*
X132609565Y-140345212D01*
X132486430Y-140632825D01*
X133604000Y-141750395D01*
X134721570Y-140632825D01*
X134598435Y-140345212D01*
X134387915Y-140265000D01*
X134930310Y-140265000D01*
X135163699Y-140168327D01*
X135342327Y-139989698D01*
X135439000Y-139756309D01*
X135439000Y-138715750D01*
X135280250Y-138557000D01*
X133731000Y-138557000D01*
X133731000Y-138577000D01*
X133477000Y-138577000D01*
X133477000Y-138557000D01*
X131927750Y-138557000D01*
X131769000Y-138715750D01*
X128776000Y-138715750D01*
X128776000Y-137103691D01*
X131769000Y-137103691D01*
X131769000Y-138144250D01*
X131927750Y-138303000D01*
X133477000Y-138303000D01*
X133477000Y-136753750D01*
X133318250Y-136595000D01*
X132277690Y-136595000D01*
X132044301Y-136691673D01*
X131865673Y-136870302D01*
X131769000Y-137103691D01*
X128776000Y-137103691D01*
X128776000Y-129006801D01*
X130856362Y-126926440D01*
X131608001Y-126926440D01*
X131951436Y-126858127D01*
X132189001Y-126699391D01*
X132189001Y-134525148D01*
X132189001Y-134525148D01*
G37*
X132189001Y-134525148D02*
X132174112Y-134600000D01*
X132189001Y-134674852D01*
X132233097Y-134896537D01*
X132401072Y-135147929D01*
X132464528Y-135190329D01*
X133879474Y-136605276D01*
X133731000Y-136753750D01*
X133731000Y-138303000D01*
X135280250Y-138303000D01*
X135428724Y-138154526D01*
X135511000Y-138236803D01*
X135511001Y-141530148D01*
X135496112Y-141605000D01*
X135555097Y-141901537D01*
X135648952Y-142042000D01*
X135723072Y-142152929D01*
X135786528Y-142195329D01*
X138360560Y-144769362D01*
X138360560Y-146615000D01*
X138384827Y-146737000D01*
X134939404Y-146737000D01*
X135015006Y-146661398D01*
X134901177Y-146547569D01*
X135188788Y-146424435D01*
X135448707Y-145742266D01*
X135427786Y-145012557D01*
X135188788Y-144435565D01*
X134901175Y-144312430D01*
X133783605Y-145430000D01*
X133797748Y-145444143D01*
X133618143Y-145623748D01*
X133604000Y-145609605D01*
X133589858Y-145623748D01*
X133410253Y-145444143D01*
X133424395Y-145430000D01*
X132306825Y-144312430D01*
X132019212Y-144435565D01*
X131759293Y-145117734D01*
X131780214Y-145847443D01*
X132019212Y-146424435D01*
X132306823Y-146547569D01*
X132192994Y-146661398D01*
X132268596Y-146737000D01*
X127793668Y-146737000D01*
X128251605Y-146279063D01*
X128805001Y-144943047D01*
X128805001Y-143496955D01*
X128693255Y-143227175D01*
X132486430Y-143227175D01*
X132609565Y-143514788D01*
X133025071Y-143673104D01*
X132609565Y-143845212D01*
X132486430Y-144132825D01*
X133604000Y-145250395D01*
X134721570Y-144132825D01*
X134598435Y-143845212D01*
X134182929Y-143686896D01*
X134598435Y-143514788D01*
X134721570Y-143227175D01*
X133604000Y-142109605D01*
X132486430Y-143227175D01*
X128693255Y-143227175D01*
X128251605Y-142160939D01*
X127708400Y-141617734D01*
X131759293Y-141617734D01*
X131780214Y-142347443D01*
X132019212Y-142924435D01*
X132306825Y-143047570D01*
X133424395Y-141930000D01*
X133783605Y-141930000D01*
X134901175Y-143047570D01*
X135188788Y-142924435D01*
X135448707Y-142242266D01*
X135427786Y-141512557D01*
X135188788Y-140935565D01*
X134901175Y-140812430D01*
X133783605Y-141930000D01*
X133424395Y-141930000D01*
X132306825Y-140812430D01*
X132019212Y-140935565D01*
X131759293Y-141617734D01*
X127708400Y-141617734D01*
X127305034Y-141214368D01*
X127420929Y-141136929D01*
X127463331Y-141073470D01*
X128500473Y-140036329D01*
X128563929Y-139993929D01*
X128731904Y-139742537D01*
X128776000Y-139520852D01*
X128776000Y-139520848D01*
X128790888Y-139446001D01*
X128776000Y-139371154D01*
X128776000Y-138715750D01*
X131769000Y-138715750D01*
X131769000Y-139756309D01*
X131865673Y-139989698D01*
X132044301Y-140168327D01*
X132277690Y-140265000D01*
X132803214Y-140265000D01*
X132609565Y-140345212D01*
X132486430Y-140632825D01*
X133604000Y-141750395D01*
X134721570Y-140632825D01*
X134598435Y-140345212D01*
X134387915Y-140265000D01*
X134930310Y-140265000D01*
X135163699Y-140168327D01*
X135342327Y-139989698D01*
X135439000Y-139756309D01*
X135439000Y-138715750D01*
X135280250Y-138557000D01*
X133731000Y-138557000D01*
X133731000Y-138577000D01*
X133477000Y-138577000D01*
X133477000Y-138557000D01*
X131927750Y-138557000D01*
X131769000Y-138715750D01*
X128776000Y-138715750D01*
X128776000Y-137103691D01*
X131769000Y-137103691D01*
X131769000Y-138144250D01*
X131927750Y-138303000D01*
X133477000Y-138303000D01*
X133477000Y-136753750D01*
X133318250Y-136595000D01*
X132277690Y-136595000D01*
X132044301Y-136691673D01*
X131865673Y-136870302D01*
X131769000Y-137103691D01*
X128776000Y-137103691D01*
X128776000Y-129006801D01*
X130856362Y-126926440D01*
X131608001Y-126926440D01*
X131951436Y-126858127D01*
X132189001Y-126699391D01*
X132189001Y-134525148D01*
G36*
X124093749Y-134045859D02*
X124079606Y-134060001D01*
X124093749Y-134074144D01*
X123914144Y-134253749D01*
X123900001Y-134239606D01*
X123885859Y-134253749D01*
X123706254Y-134074144D01*
X123720396Y-134060001D01*
X123706254Y-134045859D01*
X123885859Y-133866254D01*
X123900001Y-133880396D01*
X123914144Y-133866254D01*
X124093749Y-134045859D01*
X124093749Y-134045859D01*
G37*
X124093749Y-134045859D02*
X124079606Y-134060001D01*
X124093749Y-134074144D01*
X123914144Y-134253749D01*
X123900001Y-134239606D01*
X123885859Y-134253749D01*
X123706254Y-134074144D01*
X123720396Y-134060001D01*
X123706254Y-134045859D01*
X123885859Y-133866254D01*
X123900001Y-133880396D01*
X123914144Y-133866254D01*
X124093749Y-134045859D01*
G36*
X128189000Y-116858691D02*
X128189000Y-117049250D01*
X128347750Y-117208000D01*
X129074000Y-117208000D01*
X129074000Y-117462000D01*
X128347750Y-117462000D01*
X128189000Y-117620750D01*
X128189000Y-117811309D01*
X128285673Y-118044698D01*
X128379000Y-118138026D01*
X128379000Y-118205250D01*
X128537750Y-118364000D01*
X129182000Y-118364000D01*
X129182000Y-118344000D01*
X129336560Y-118344000D01*
X129336560Y-118663500D01*
X129397071Y-118967710D01*
X129436000Y-119025971D01*
X129436000Y-119287250D01*
X129594750Y-119446000D01*
X129730309Y-119446000D01*
X129840175Y-119400492D01*
X130131500Y-119458440D01*
X130171639Y-119458440D01*
X131574001Y-120860803D01*
X131574001Y-121244000D01*
X130968750Y-121244000D01*
X130810000Y-121402750D01*
X130810000Y-122414500D01*
X130830000Y-122414500D01*
X130830000Y-122668500D01*
X130810000Y-122668500D01*
X130810000Y-123680250D01*
X130968750Y-123839000D01*
X131118198Y-123839000D01*
X130650639Y-124306560D01*
X129757999Y-124306560D01*
X129414564Y-124374873D01*
X129123414Y-124569414D01*
X128928873Y-124860564D01*
X128860560Y-125203999D01*
X128860560Y-126029001D01*
X128928873Y-126372436D01*
X129061810Y-126571389D01*
X127531528Y-128101671D01*
X127468072Y-128144071D01*
X127440569Y-128185231D01*
X127420214Y-128179393D01*
X126619606Y-128980001D01*
X126633749Y-128994144D01*
X126454144Y-129173749D01*
X126440001Y-129159606D01*
X126425859Y-129173749D01*
X126246254Y-128994144D01*
X126260396Y-128980001D01*
X126246254Y-128965859D01*
X126425859Y-128786254D01*
X126440001Y-128800396D01*
X127240609Y-127999788D01*
X127171144Y-127757604D01*
X127030608Y-127707466D01*
X127231338Y-127624321D01*
X127624321Y-127231338D01*
X127837001Y-126717882D01*
X127837001Y-126162120D01*
X127624321Y-125648664D01*
X127231338Y-125255681D01*
X127024488Y-125170001D01*
X127231338Y-125084321D01*
X127624321Y-124691338D01*
X127837001Y-124177882D01*
X127837001Y-123622120D01*
X127624321Y-123108664D01*
X127342907Y-122827250D01*
X128873000Y-122827250D01*
X128873000Y-123330309D01*
X128969673Y-123563698D01*
X129148301Y-123742327D01*
X129381690Y-123839000D01*
X130397250Y-123839000D01*
X130556000Y-123680250D01*
X130556000Y-122668500D01*
X129031750Y-122668500D01*
X128873000Y-122827250D01*
X127342907Y-122827250D01*
X127231338Y-122715681D01*
X127024488Y-122630001D01*
X127231338Y-122544321D01*
X127624321Y-122151338D01*
X127789445Y-121752691D01*
X128873000Y-121752691D01*
X128873000Y-122255750D01*
X129031750Y-122414500D01*
X130556000Y-122414500D01*
X130556000Y-121402750D01*
X130397250Y-121244000D01*
X129381690Y-121244000D01*
X129148301Y-121340673D01*
X128969673Y-121519302D01*
X128873000Y-121752691D01*
X127789445Y-121752691D01*
X127837001Y-121637882D01*
X127837001Y-121082120D01*
X127624321Y-120568664D01*
X127231338Y-120175681D01*
X127024488Y-120090001D01*
X127231338Y-120004321D01*
X127624321Y-119611338D01*
X127837001Y-119097882D01*
X127837001Y-118776750D01*
X128379000Y-118776750D01*
X128379000Y-118937310D01*
X128475673Y-119170699D01*
X128654302Y-119349327D01*
X128887691Y-119446000D01*
X129023250Y-119446000D01*
X129182000Y-119287250D01*
X129182000Y-118618000D01*
X128537750Y-118618000D01*
X128379000Y-118776750D01*
X127837001Y-118776750D01*
X127837001Y-118542120D01*
X127624321Y-118028664D01*
X127231338Y-117635681D01*
X127024488Y-117550001D01*
X127231338Y-117464321D01*
X127594980Y-117100679D01*
X127822691Y-117195000D01*
X128013250Y-117195000D01*
X128172000Y-117036250D01*
X128172000Y-116695000D01*
X128256803Y-116695000D01*
X128189000Y-116858691D01*
X128189000Y-116858691D01*
G37*
X128189000Y-116858691D02*
X128189000Y-117049250D01*
X128347750Y-117208000D01*
X129074000Y-117208000D01*
X129074000Y-117462000D01*
X128347750Y-117462000D01*
X128189000Y-117620750D01*
X128189000Y-117811309D01*
X128285673Y-118044698D01*
X128379000Y-118138026D01*
X128379000Y-118205250D01*
X128537750Y-118364000D01*
X129182000Y-118364000D01*
X129182000Y-118344000D01*
X129336560Y-118344000D01*
X129336560Y-118663500D01*
X129397071Y-118967710D01*
X129436000Y-119025971D01*
X129436000Y-119287250D01*
X129594750Y-119446000D01*
X129730309Y-119446000D01*
X129840175Y-119400492D01*
X130131500Y-119458440D01*
X130171639Y-119458440D01*
X131574001Y-120860803D01*
X131574001Y-121244000D01*
X130968750Y-121244000D01*
X130810000Y-121402750D01*
X130810000Y-122414500D01*
X130830000Y-122414500D01*
X130830000Y-122668500D01*
X130810000Y-122668500D01*
X130810000Y-123680250D01*
X130968750Y-123839000D01*
X131118198Y-123839000D01*
X130650639Y-124306560D01*
X129757999Y-124306560D01*
X129414564Y-124374873D01*
X129123414Y-124569414D01*
X128928873Y-124860564D01*
X128860560Y-125203999D01*
X128860560Y-126029001D01*
X128928873Y-126372436D01*
X129061810Y-126571389D01*
X127531528Y-128101671D01*
X127468072Y-128144071D01*
X127440569Y-128185231D01*
X127420214Y-128179393D01*
X126619606Y-128980001D01*
X126633749Y-128994144D01*
X126454144Y-129173749D01*
X126440001Y-129159606D01*
X126425859Y-129173749D01*
X126246254Y-128994144D01*
X126260396Y-128980001D01*
X126246254Y-128965859D01*
X126425859Y-128786254D01*
X126440001Y-128800396D01*
X127240609Y-127999788D01*
X127171144Y-127757604D01*
X127030608Y-127707466D01*
X127231338Y-127624321D01*
X127624321Y-127231338D01*
X127837001Y-126717882D01*
X127837001Y-126162120D01*
X127624321Y-125648664D01*
X127231338Y-125255681D01*
X127024488Y-125170001D01*
X127231338Y-125084321D01*
X127624321Y-124691338D01*
X127837001Y-124177882D01*
X127837001Y-123622120D01*
X127624321Y-123108664D01*
X127342907Y-122827250D01*
X128873000Y-122827250D01*
X128873000Y-123330309D01*
X128969673Y-123563698D01*
X129148301Y-123742327D01*
X129381690Y-123839000D01*
X130397250Y-123839000D01*
X130556000Y-123680250D01*
X130556000Y-122668500D01*
X129031750Y-122668500D01*
X128873000Y-122827250D01*
X127342907Y-122827250D01*
X127231338Y-122715681D01*
X127024488Y-122630001D01*
X127231338Y-122544321D01*
X127624321Y-122151338D01*
X127789445Y-121752691D01*
X128873000Y-121752691D01*
X128873000Y-122255750D01*
X129031750Y-122414500D01*
X130556000Y-122414500D01*
X130556000Y-121402750D01*
X130397250Y-121244000D01*
X129381690Y-121244000D01*
X129148301Y-121340673D01*
X128969673Y-121519302D01*
X128873000Y-121752691D01*
X127789445Y-121752691D01*
X127837001Y-121637882D01*
X127837001Y-121082120D01*
X127624321Y-120568664D01*
X127231338Y-120175681D01*
X127024488Y-120090001D01*
X127231338Y-120004321D01*
X127624321Y-119611338D01*
X127837001Y-119097882D01*
X127837001Y-118776750D01*
X128379000Y-118776750D01*
X128379000Y-118937310D01*
X128475673Y-119170699D01*
X128654302Y-119349327D01*
X128887691Y-119446000D01*
X129023250Y-119446000D01*
X129182000Y-119287250D01*
X129182000Y-118618000D01*
X128537750Y-118618000D01*
X128379000Y-118776750D01*
X127837001Y-118776750D01*
X127837001Y-118542120D01*
X127624321Y-118028664D01*
X127231338Y-117635681D01*
X127024488Y-117550001D01*
X127231338Y-117464321D01*
X127594980Y-117100679D01*
X127822691Y-117195000D01*
X128013250Y-117195000D01*
X128172000Y-117036250D01*
X128172000Y-116695000D01*
X128256803Y-116695000D01*
X128189000Y-116858691D01*
G36*
X138115748Y-127299858D02*
X138101605Y-127314000D01*
X138115748Y-127328143D01*
X137936143Y-127507748D01*
X137922000Y-127493605D01*
X137907858Y-127507748D01*
X137728253Y-127328143D01*
X137742395Y-127314000D01*
X137728253Y-127299858D01*
X137907858Y-127120253D01*
X137922000Y-127134395D01*
X137936143Y-127120253D01*
X138115748Y-127299858D01*
X138115748Y-127299858D01*
G37*
X138115748Y-127299858D02*
X138101605Y-127314000D01*
X138115748Y-127328143D01*
X137936143Y-127507748D01*
X137922000Y-127493605D01*
X137907858Y-127507748D01*
X137728253Y-127328143D01*
X137742395Y-127314000D01*
X137728253Y-127299858D01*
X137907858Y-127120253D01*
X137922000Y-127134395D01*
X137936143Y-127120253D01*
X138115748Y-127299858D01*
G36*
X124093749Y-123885859D02*
X124079606Y-123900001D01*
X124093749Y-123914144D01*
X123914144Y-124093749D01*
X123900001Y-124079606D01*
X123885859Y-124093749D01*
X123706254Y-123914144D01*
X123720396Y-123900001D01*
X123706254Y-123885859D01*
X123885859Y-123706254D01*
X123900001Y-123720396D01*
X123914144Y-123706254D01*
X124093749Y-123885859D01*
X124093749Y-123885859D01*
G37*
X124093749Y-123885859D02*
X124079606Y-123900001D01*
X124093749Y-123914144D01*
X123914144Y-124093749D01*
X123900001Y-124079606D01*
X123885859Y-124093749D01*
X123706254Y-123914144D01*
X123720396Y-123900001D01*
X123706254Y-123885859D01*
X123885859Y-123706254D01*
X123900001Y-123720396D01*
X123914144Y-123706254D01*
X124093749Y-123885859D01*
G36*
X138115748Y-123799858D02*
X138101605Y-123814000D01*
X138115748Y-123828143D01*
X137936143Y-124007748D01*
X137922000Y-123993605D01*
X137907858Y-124007748D01*
X137728253Y-123828143D01*
X137742395Y-123814000D01*
X137728253Y-123799858D01*
X137907858Y-123620253D01*
X137922000Y-123634395D01*
X137936143Y-123620253D01*
X138115748Y-123799858D01*
X138115748Y-123799858D01*
G37*
X138115748Y-123799858D02*
X138101605Y-123814000D01*
X138115748Y-123828143D01*
X137936143Y-124007748D01*
X137922000Y-123993605D01*
X137907858Y-124007748D01*
X137728253Y-123828143D01*
X137742395Y-123814000D01*
X137728253Y-123799858D01*
X137907858Y-123620253D01*
X137922000Y-123634395D01*
X137936143Y-123620253D01*
X138115748Y-123799858D01*
G36*
X138115748Y-120299858D02*
X138101605Y-120314000D01*
X138115748Y-120328143D01*
X137936143Y-120507748D01*
X137922000Y-120493605D01*
X137907858Y-120507748D01*
X137728253Y-120328143D01*
X137742395Y-120314000D01*
X137728253Y-120299858D01*
X137907858Y-120120253D01*
X137922000Y-120134395D01*
X137936143Y-120120253D01*
X138115748Y-120299858D01*
X138115748Y-120299858D01*
G37*
X138115748Y-120299858D02*
X138101605Y-120314000D01*
X138115748Y-120328143D01*
X137936143Y-120507748D01*
X137922000Y-120493605D01*
X137907858Y-120507748D01*
X137728253Y-120328143D01*
X137742395Y-120314000D01*
X137728253Y-120299858D01*
X137907858Y-120120253D01*
X137922000Y-120134395D01*
X137936143Y-120120253D01*
X138115748Y-120299858D01*
G36*
X138115748Y-116799858D02*
X138101605Y-116814000D01*
X138115748Y-116828143D01*
X137936143Y-117007748D01*
X137922000Y-116993605D01*
X137907858Y-117007748D01*
X137728253Y-116828143D01*
X137742395Y-116814000D01*
X137728253Y-116799858D01*
X137907858Y-116620253D01*
X137922000Y-116634395D01*
X137936143Y-116620253D01*
X138115748Y-116799858D01*
X138115748Y-116799858D01*
G37*
X138115748Y-116799858D02*
X138101605Y-116814000D01*
X138115748Y-116828143D01*
X137936143Y-117007748D01*
X137922000Y-116993605D01*
X137907858Y-117007748D01*
X137728253Y-116828143D01*
X137742395Y-116814000D01*
X137728253Y-116799858D01*
X137907858Y-116620253D01*
X137922000Y-116634395D01*
X137936143Y-116620253D01*
X138115748Y-116799858D01*
G36*
X124093749Y-116265859D02*
X124079606Y-116280001D01*
X124093749Y-116294144D01*
X123914144Y-116473749D01*
X123900001Y-116459606D01*
X123885859Y-116473749D01*
X123706254Y-116294144D01*
X123720396Y-116280001D01*
X123706254Y-116265859D01*
X123885859Y-116086254D01*
X123900001Y-116100396D01*
X123914144Y-116086254D01*
X124093749Y-116265859D01*
X124093749Y-116265859D01*
G37*
X124093749Y-116265859D02*
X124079606Y-116280001D01*
X124093749Y-116294144D01*
X123914144Y-116473749D01*
X123900001Y-116459606D01*
X123885859Y-116473749D01*
X123706254Y-116294144D01*
X123720396Y-116280001D01*
X123706254Y-116265859D01*
X123885859Y-116086254D01*
X123900001Y-116100396D01*
X123914144Y-116086254D01*
X124093749Y-116265859D01*
G36*
X128426000Y-116060000D02*
X128172000Y-116060000D01*
X128172000Y-115810000D01*
X128426000Y-115810000D01*
X128426000Y-116060000D01*
X128426000Y-116060000D01*
G37*
X128426000Y-116060000D02*
X128172000Y-116060000D01*
X128172000Y-115810000D01*
X128426000Y-115810000D01*
X128426000Y-116060000D01*
G36*
X131826000Y-114808000D02*
X131846000Y-114808000D01*
X131846000Y-115062000D01*
X131826000Y-115062000D01*
X131826000Y-115082000D01*
X131572000Y-115082000D01*
X131572000Y-115062000D01*
X131552000Y-115062000D01*
X131552000Y-114808000D01*
X131572000Y-114808000D01*
X131572000Y-114788000D01*
X131826000Y-114788000D01*
X131826000Y-114808000D01*
X131826000Y-114808000D01*
G37*
X131826000Y-114808000D02*
X131846000Y-114808000D01*
X131846000Y-115062000D01*
X131826000Y-115062000D01*
X131826000Y-115082000D01*
X131572000Y-115082000D01*
X131572000Y-115062000D01*
X131552000Y-115062000D01*
X131552000Y-114808000D01*
X131572000Y-114808000D01*
X131572000Y-114788000D01*
X131826000Y-114788000D01*
X131826000Y-114808000D01*
G36*
X138115748Y-113299858D02*
X138101605Y-113314000D01*
X138115748Y-113328143D01*
X137936143Y-113507748D01*
X137922000Y-113493605D01*
X137907858Y-113507748D01*
X137728253Y-113328143D01*
X137742395Y-113314000D01*
X137728253Y-113299858D01*
X137907858Y-113120253D01*
X137922000Y-113134395D01*
X137936143Y-113120253D01*
X138115748Y-113299858D01*
X138115748Y-113299858D01*
G37*
X138115748Y-113299858D02*
X138101605Y-113314000D01*
X138115748Y-113328143D01*
X137936143Y-113507748D01*
X137922000Y-113493605D01*
X137907858Y-113507748D01*
X137728253Y-113328143D01*
X137742395Y-113314000D01*
X137728253Y-113299858D01*
X137907858Y-113120253D01*
X137922000Y-113134395D01*
X137936143Y-113120253D01*
X138115748Y-113299858D01*
G36*
X138115748Y-109799858D02*
X138101605Y-109814000D01*
X138115748Y-109828143D01*
X137936143Y-110007748D01*
X137922000Y-109993605D01*
X137907858Y-110007748D01*
X137728253Y-109828143D01*
X137742395Y-109814000D01*
X137728253Y-109799858D01*
X137907858Y-109620253D01*
X137922000Y-109634395D01*
X137936143Y-109620253D01*
X138115748Y-109799858D01*
X138115748Y-109799858D01*
G37*
X138115748Y-109799858D02*
X138101605Y-109814000D01*
X138115748Y-109828143D01*
X137936143Y-110007748D01*
X137922000Y-109993605D01*
X137907858Y-110007748D01*
X137728253Y-109828143D01*
X137742395Y-109814000D01*
X137728253Y-109799858D01*
X137907858Y-109620253D01*
X137922000Y-109634395D01*
X137936143Y-109620253D01*
X138115748Y-109799858D01*
G36*
X126633749Y-108645859D02*
X126619606Y-108660001D01*
X126633749Y-108674144D01*
X126454144Y-108853749D01*
X126440001Y-108839606D01*
X126425859Y-108853749D01*
X126246254Y-108674144D01*
X126260396Y-108660001D01*
X126246254Y-108645859D01*
X126425859Y-108466254D01*
X126440001Y-108480396D01*
X126454144Y-108466254D01*
X126633749Y-108645859D01*
X126633749Y-108645859D01*
G37*
X126633749Y-108645859D02*
X126619606Y-108660001D01*
X126633749Y-108674144D01*
X126454144Y-108853749D01*
X126440001Y-108839606D01*
X126425859Y-108853749D01*
X126246254Y-108674144D01*
X126260396Y-108660001D01*
X126246254Y-108645859D01*
X126425859Y-108466254D01*
X126440001Y-108480396D01*
X126454144Y-108466254D01*
X126633749Y-108645859D01*
G36*
X138115748Y-106299858D02*
X138101605Y-106314000D01*
X138115748Y-106328143D01*
X137936143Y-106507748D01*
X137922000Y-106493605D01*
X137907858Y-106507748D01*
X137728253Y-106328143D01*
X137742395Y-106314000D01*
X137728253Y-106299858D01*
X137907858Y-106120253D01*
X137922000Y-106134395D01*
X137936143Y-106120253D01*
X138115748Y-106299858D01*
X138115748Y-106299858D01*
G37*
X138115748Y-106299858D02*
X138101605Y-106314000D01*
X138115748Y-106328143D01*
X137936143Y-106507748D01*
X137922000Y-106493605D01*
X137907858Y-106507748D01*
X137728253Y-106328143D01*
X137742395Y-106314000D01*
X137728253Y-106299858D01*
X137907858Y-106120253D01*
X137922000Y-106134395D01*
X137936143Y-106120253D01*
X138115748Y-106299858D01*
G36*
X129413000Y-105791000D02*
X129433000Y-105791000D01*
X129433000Y-106045000D01*
X129413000Y-106045000D01*
X129413000Y-106065000D01*
X129159000Y-106065000D01*
X129159000Y-106045000D01*
X129139000Y-106045000D01*
X129139000Y-105791000D01*
X129159000Y-105791000D01*
X129159000Y-105771000D01*
X129413000Y-105771000D01*
X129413000Y-105791000D01*
X129413000Y-105791000D01*
G37*
X129413000Y-105791000D02*
X129433000Y-105791000D01*
X129433000Y-106045000D01*
X129413000Y-106045000D01*
X129413000Y-106065000D01*
X129159000Y-106065000D01*
X129159000Y-106045000D01*
X129139000Y-106045000D01*
X129139000Y-105791000D01*
X129159000Y-105791000D01*
X129159000Y-105771000D01*
X129413000Y-105771000D01*
X129413000Y-105791000D01*
G36*
X130558000Y-105041975D02*
X130413498Y-104897472D01*
X130493809Y-104843809D01*
X130558000Y-104747740D01*
X130558000Y-105041975D01*
X130558000Y-105041975D01*
G37*
X130558000Y-105041975D02*
X130413498Y-104897472D01*
X130493809Y-104843809D01*
X130558000Y-104747740D01*
X130558000Y-105041975D01*
G36*
X127901000Y-99940309D02*
X127915936Y-99976368D01*
X127888560Y-100114000D01*
X127888560Y-101114000D01*
X127937843Y-101361765D01*
X128078191Y-101571809D01*
X128122535Y-101601439D01*
X127997673Y-101726302D01*
X127901000Y-101959691D01*
X127901000Y-102300250D01*
X128059750Y-102459000D01*
X129159000Y-102459000D01*
X129159000Y-102439000D01*
X129413000Y-102439000D01*
X129413000Y-102459000D01*
X129433000Y-102459000D01*
X129433000Y-102713000D01*
X129413000Y-102713000D01*
X129413000Y-102733000D01*
X129159000Y-102733000D01*
X129159000Y-102713000D01*
X128059750Y-102713000D01*
X127901000Y-102871750D01*
X127901000Y-103212309D01*
X127915936Y-103248368D01*
X127888560Y-103386000D01*
X127888560Y-104208638D01*
X127404528Y-104692671D01*
X127341072Y-104735071D01*
X127298672Y-104798527D01*
X127298671Y-104798528D01*
X127212298Y-104927794D01*
X127024488Y-104850001D01*
X127231338Y-104764321D01*
X127624321Y-104371338D01*
X127837001Y-103857882D01*
X127837001Y-103302120D01*
X127624321Y-102788664D01*
X127231338Y-102395681D01*
X127024488Y-102310001D01*
X127231338Y-102224321D01*
X127624321Y-101831338D01*
X127837001Y-101317882D01*
X127837001Y-100762120D01*
X127624321Y-100248664D01*
X127572729Y-100197072D01*
X127901000Y-99868801D01*
X127901000Y-99940309D01*
X127901000Y-99940309D01*
G37*
X127901000Y-99940309D02*
X127915936Y-99976368D01*
X127888560Y-100114000D01*
X127888560Y-101114000D01*
X127937843Y-101361765D01*
X128078191Y-101571809D01*
X128122535Y-101601439D01*
X127997673Y-101726302D01*
X127901000Y-101959691D01*
X127901000Y-102300250D01*
X128059750Y-102459000D01*
X129159000Y-102459000D01*
X129159000Y-102439000D01*
X129413000Y-102439000D01*
X129413000Y-102459000D01*
X129433000Y-102459000D01*
X129433000Y-102713000D01*
X129413000Y-102713000D01*
X129413000Y-102733000D01*
X129159000Y-102733000D01*
X129159000Y-102713000D01*
X128059750Y-102713000D01*
X127901000Y-102871750D01*
X127901000Y-103212309D01*
X127915936Y-103248368D01*
X127888560Y-103386000D01*
X127888560Y-104208638D01*
X127404528Y-104692671D01*
X127341072Y-104735071D01*
X127298672Y-104798527D01*
X127298671Y-104798528D01*
X127212298Y-104927794D01*
X127024488Y-104850001D01*
X127231338Y-104764321D01*
X127624321Y-104371338D01*
X127837001Y-103857882D01*
X127837001Y-103302120D01*
X127624321Y-102788664D01*
X127231338Y-102395681D01*
X127024488Y-102310001D01*
X127231338Y-102224321D01*
X127624321Y-101831338D01*
X127837001Y-101317882D01*
X127837001Y-100762120D01*
X127624321Y-100248664D01*
X127572729Y-100197072D01*
X127901000Y-99868801D01*
X127901000Y-99940309D01*
G36*
X124093749Y-103565859D02*
X124079606Y-103580001D01*
X124093749Y-103594144D01*
X123914144Y-103773749D01*
X123900001Y-103759606D01*
X123885859Y-103773749D01*
X123706254Y-103594144D01*
X123720396Y-103580001D01*
X123706254Y-103565859D01*
X123885859Y-103386254D01*
X123900001Y-103400396D01*
X123914144Y-103386254D01*
X124093749Y-103565859D01*
X124093749Y-103565859D01*
G37*
X124093749Y-103565859D02*
X124079606Y-103580001D01*
X124093749Y-103594144D01*
X123914144Y-103773749D01*
X123900001Y-103759606D01*
X123885859Y-103773749D01*
X123706254Y-103594144D01*
X123720396Y-103580001D01*
X123706254Y-103565859D01*
X123885859Y-103386254D01*
X123900001Y-103400396D01*
X123914144Y-103386254D01*
X124093749Y-103565859D01*
G36*
X138115748Y-102799858D02*
X138101605Y-102814000D01*
X138115748Y-102828143D01*
X137936143Y-103007748D01*
X137922000Y-102993605D01*
X137907858Y-103007748D01*
X137728253Y-102828143D01*
X137742395Y-102814000D01*
X137728253Y-102799858D01*
X137907858Y-102620253D01*
X137922000Y-102634395D01*
X137936143Y-102620253D01*
X138115748Y-102799858D01*
X138115748Y-102799858D01*
G37*
X138115748Y-102799858D02*
X138101605Y-102814000D01*
X138115748Y-102828143D01*
X137936143Y-103007748D01*
X137922000Y-102993605D01*
X137907858Y-103007748D01*
X137728253Y-102828143D01*
X137742395Y-102814000D01*
X137728253Y-102799858D01*
X137907858Y-102620253D01*
X137922000Y-102634395D01*
X137936143Y-102620253D01*
X138115748Y-102799858D01*
G36*
X130558001Y-102758751D02*
X130512252Y-102713002D01*
X130558001Y-102713002D01*
X130558001Y-102758751D01*
X130558001Y-102758751D01*
G37*
X130558001Y-102758751D02*
X130512252Y-102713002D01*
X130558001Y-102713002D01*
X130558001Y-102758751D01*
G36*
X136087000Y-99028250D02*
X136245750Y-99187000D01*
X137795000Y-99187000D01*
X137795000Y-99167000D01*
X138049000Y-99167000D01*
X138049000Y-99187000D01*
X139598250Y-99187000D01*
X139757000Y-99028250D01*
X139757000Y-98423000D01*
X142818199Y-98423000D01*
X143060750Y-98665551D01*
X142945000Y-98944996D01*
X142945000Y-99675004D01*
X143224345Y-100349404D01*
X143136852Y-100332000D01*
X143136847Y-100332000D01*
X143062000Y-100317112D01*
X142987153Y-100332000D01*
X139757000Y-100332000D01*
X139757000Y-99599750D01*
X139598250Y-99441000D01*
X138049000Y-99441000D01*
X138049000Y-99461000D01*
X137795000Y-99461000D01*
X137795000Y-99441000D01*
X136245750Y-99441000D01*
X136087000Y-99599750D01*
X136087000Y-100332000D01*
X135837846Y-100332000D01*
X135762999Y-100317112D01*
X135688152Y-100332000D01*
X135688148Y-100332000D01*
X135466463Y-100376096D01*
X135215071Y-100544071D01*
X135172671Y-100607527D01*
X134709000Y-101071198D01*
X134709000Y-99029801D01*
X135315802Y-98423000D01*
X136087000Y-98423000D01*
X136087000Y-99028250D01*
X136087000Y-99028250D01*
G37*
X136087000Y-99028250D02*
X136245750Y-99187000D01*
X137795000Y-99187000D01*
X137795000Y-99167000D01*
X138049000Y-99167000D01*
X138049000Y-99187000D01*
X139598250Y-99187000D01*
X139757000Y-99028250D01*
X139757000Y-98423000D01*
X142818199Y-98423000D01*
X143060750Y-98665551D01*
X142945000Y-98944996D01*
X142945000Y-99675004D01*
X143224345Y-100349404D01*
X143136852Y-100332000D01*
X143136847Y-100332000D01*
X143062000Y-100317112D01*
X142987153Y-100332000D01*
X139757000Y-100332000D01*
X139757000Y-99599750D01*
X139598250Y-99441000D01*
X138049000Y-99441000D01*
X138049000Y-99461000D01*
X137795000Y-99461000D01*
X137795000Y-99441000D01*
X136245750Y-99441000D01*
X136087000Y-99599750D01*
X136087000Y-100332000D01*
X135837846Y-100332000D01*
X135762999Y-100317112D01*
X135688152Y-100332000D01*
X135688148Y-100332000D01*
X135466463Y-100376096D01*
X135215071Y-100544071D01*
X135172671Y-100607527D01*
X134709000Y-101071198D01*
X134709000Y-99029801D01*
X135315802Y-98423000D01*
X136087000Y-98423000D01*
X136087000Y-99028250D01*
G36*
X129413000Y-99187000D02*
X129433000Y-99187000D01*
X129433000Y-99441000D01*
X129413000Y-99441000D01*
X129413000Y-99461000D01*
X129159000Y-99461000D01*
X129159000Y-99441000D01*
X129139000Y-99441000D01*
X129139000Y-99187000D01*
X129159000Y-99187000D01*
X129159000Y-99167000D01*
X129413000Y-99167000D01*
X129413000Y-99187000D01*
X129413000Y-99187000D01*
G37*
X129413000Y-99187000D02*
X129433000Y-99187000D01*
X129433000Y-99441000D01*
X129413000Y-99441000D01*
X129413000Y-99461000D01*
X129159000Y-99461000D01*
X129159000Y-99441000D01*
X129139000Y-99441000D01*
X129139000Y-99187000D01*
X129159000Y-99187000D01*
X129159000Y-99167000D01*
X129413000Y-99167000D01*
X129413000Y-99187000D01*
G36*
X130558001Y-99186998D02*
X130512252Y-99186998D01*
X130558001Y-99141249D01*
X130558001Y-99186998D01*
X130558001Y-99186998D01*
G37*
X130558001Y-99186998D02*
X130512252Y-99186998D01*
X130558001Y-99141249D01*
X130558001Y-99186998D01*
G36*
X124093749Y-98485859D02*
X124079606Y-98500001D01*
X124093749Y-98514144D01*
X123914144Y-98693749D01*
X123900001Y-98679606D01*
X123885859Y-98693749D01*
X123706254Y-98514144D01*
X123720396Y-98500001D01*
X123706254Y-98485859D01*
X123885859Y-98306254D01*
X123900001Y-98320396D01*
X123914144Y-98306254D01*
X124093749Y-98485859D01*
X124093749Y-98485859D01*
G37*
X124093749Y-98485859D02*
X124079606Y-98500001D01*
X124093749Y-98514144D01*
X123914144Y-98693749D01*
X123900001Y-98679606D01*
X123885859Y-98693749D01*
X123706254Y-98514144D01*
X123720396Y-98500001D01*
X123706254Y-98485859D01*
X123885859Y-98306254D01*
X123900001Y-98320396D01*
X123914144Y-98306254D01*
X124093749Y-98485859D01*
G36*
X131769000Y-84169250D02*
X131927750Y-84328000D01*
X133477000Y-84328000D01*
X133477000Y-84308000D01*
X133731000Y-84308000D01*
X133731000Y-84328000D01*
X135280250Y-84328000D01*
X135439000Y-84169250D01*
X135439000Y-83260000D01*
X138792918Y-83260000D01*
X138652362Y-83400556D01*
X138373000Y-84074996D01*
X138373000Y-84805004D01*
X138488750Y-85084449D01*
X135444728Y-88128471D01*
X135427786Y-87537557D01*
X135188788Y-86960565D01*
X134901175Y-86837430D01*
X133783605Y-87955000D01*
X134901175Y-89072570D01*
X135003001Y-89028976D01*
X135003001Y-90381024D01*
X134901175Y-90337430D01*
X133783605Y-91455000D01*
X133797748Y-91469143D01*
X133618143Y-91648748D01*
X133604000Y-91634605D01*
X132486430Y-92752175D01*
X132609565Y-93039788D01*
X133291734Y-93299707D01*
X133599310Y-93290889D01*
X131964528Y-94925671D01*
X131901072Y-94968071D01*
X131858672Y-95031527D01*
X131858671Y-95031528D01*
X131733097Y-95219463D01*
X131674112Y-95516000D01*
X131689001Y-95590852D01*
X131689001Y-96615851D01*
X131614537Y-96566096D01*
X131392852Y-96522000D01*
X131392847Y-96522000D01*
X131318000Y-96507112D01*
X131243153Y-96522000D01*
X127719316Y-96522000D01*
X127837001Y-96237882D01*
X127837001Y-95682120D01*
X127624321Y-95168664D01*
X127231338Y-94775681D01*
X127024488Y-94690001D01*
X127231338Y-94604321D01*
X127624321Y-94211338D01*
X127837001Y-93697882D01*
X127837001Y-93142120D01*
X127624321Y-92628664D01*
X127231338Y-92235681D01*
X127040354Y-92156573D01*
X127171144Y-92102398D01*
X127240609Y-91860214D01*
X126440001Y-91059606D01*
X125639393Y-91860214D01*
X125708858Y-92102398D01*
X125849394Y-92152536D01*
X125648664Y-92235681D01*
X125255681Y-92628664D01*
X125170001Y-92835514D01*
X125084321Y-92628664D01*
X124691338Y-92235681D01*
X124484488Y-92150001D01*
X124691338Y-92064321D01*
X125084321Y-91671338D01*
X125163429Y-91480354D01*
X125217604Y-91611144D01*
X125459788Y-91680609D01*
X126260396Y-90880001D01*
X126619606Y-90880001D01*
X127420214Y-91680609D01*
X127662398Y-91611144D01*
X127829510Y-91142734D01*
X131759293Y-91142734D01*
X131780214Y-91872443D01*
X132019212Y-92449435D01*
X132306825Y-92572570D01*
X133424395Y-91455000D01*
X132306825Y-90337430D01*
X132019212Y-90460565D01*
X131759293Y-91142734D01*
X127829510Y-91142734D01*
X127849145Y-91087699D01*
X127821363Y-90532633D01*
X127662398Y-90148858D01*
X127420214Y-90079393D01*
X126619606Y-90880001D01*
X126260396Y-90880001D01*
X125459788Y-90079393D01*
X125217604Y-90148858D01*
X125167466Y-90289394D01*
X125084321Y-90088664D01*
X124895445Y-89899788D01*
X125639393Y-89899788D01*
X126440001Y-90700396D01*
X127240609Y-89899788D01*
X127171144Y-89657604D01*
X126647699Y-89470857D01*
X126092633Y-89498639D01*
X125708858Y-89657604D01*
X125639393Y-89899788D01*
X124895445Y-89899788D01*
X124691338Y-89695681D01*
X124177882Y-89483001D01*
X123622120Y-89483001D01*
X123108664Y-89695681D01*
X122715681Y-90088664D01*
X122630000Y-90295517D01*
X122630000Y-88400666D01*
X123110939Y-88881605D01*
X124446955Y-89435001D01*
X125893047Y-89435001D01*
X126334427Y-89252175D01*
X132486430Y-89252175D01*
X132609565Y-89539788D01*
X133025071Y-89698104D01*
X132609565Y-89870212D01*
X132486430Y-90157825D01*
X133604000Y-91275395D01*
X134721570Y-90157825D01*
X134598435Y-89870212D01*
X134182929Y-89711896D01*
X134598435Y-89539788D01*
X134721570Y-89252175D01*
X133604000Y-88134605D01*
X132486430Y-89252175D01*
X126334427Y-89252175D01*
X127229063Y-88881605D01*
X128251605Y-87859063D01*
X128341211Y-87642734D01*
X131759293Y-87642734D01*
X131780214Y-88372443D01*
X132019212Y-88949435D01*
X132306825Y-89072570D01*
X133424395Y-87955000D01*
X132306825Y-86837430D01*
X132019212Y-86960565D01*
X131759293Y-87642734D01*
X128341211Y-87642734D01*
X128805001Y-86523047D01*
X128805001Y-85076955D01*
X128665741Y-84740750D01*
X131769000Y-84740750D01*
X131769000Y-85781309D01*
X131865673Y-86014698D01*
X132044301Y-86193327D01*
X132277690Y-86290000D01*
X132803214Y-86290000D01*
X132609565Y-86370212D01*
X132486430Y-86657825D01*
X133604000Y-87775395D01*
X134721570Y-86657825D01*
X134598435Y-86370212D01*
X134387915Y-86290000D01*
X134930310Y-86290000D01*
X135163699Y-86193327D01*
X135342327Y-86014698D01*
X135439000Y-85781309D01*
X135439000Y-84740750D01*
X135280250Y-84582000D01*
X133731000Y-84582000D01*
X133731000Y-84602000D01*
X133477000Y-84602000D01*
X133477000Y-84582000D01*
X131927750Y-84582000D01*
X131769000Y-84740750D01*
X128665741Y-84740750D01*
X128251605Y-83740939D01*
X127770666Y-83260000D01*
X131769000Y-83260000D01*
X131769000Y-84169250D01*
X131769000Y-84169250D01*
G37*
X131769000Y-84169250D02*
X131927750Y-84328000D01*
X133477000Y-84328000D01*
X133477000Y-84308000D01*
X133731000Y-84308000D01*
X133731000Y-84328000D01*
X135280250Y-84328000D01*
X135439000Y-84169250D01*
X135439000Y-83260000D01*
X138792918Y-83260000D01*
X138652362Y-83400556D01*
X138373000Y-84074996D01*
X138373000Y-84805004D01*
X138488750Y-85084449D01*
X135444728Y-88128471D01*
X135427786Y-87537557D01*
X135188788Y-86960565D01*
X134901175Y-86837430D01*
X133783605Y-87955000D01*
X134901175Y-89072570D01*
X135003001Y-89028976D01*
X135003001Y-90381024D01*
X134901175Y-90337430D01*
X133783605Y-91455000D01*
X133797748Y-91469143D01*
X133618143Y-91648748D01*
X133604000Y-91634605D01*
X132486430Y-92752175D01*
X132609565Y-93039788D01*
X133291734Y-93299707D01*
X133599310Y-93290889D01*
X131964528Y-94925671D01*
X131901072Y-94968071D01*
X131858672Y-95031527D01*
X131858671Y-95031528D01*
X131733097Y-95219463D01*
X131674112Y-95516000D01*
X131689001Y-95590852D01*
X131689001Y-96615851D01*
X131614537Y-96566096D01*
X131392852Y-96522000D01*
X131392847Y-96522000D01*
X131318000Y-96507112D01*
X131243153Y-96522000D01*
X127719316Y-96522000D01*
X127837001Y-96237882D01*
X127837001Y-95682120D01*
X127624321Y-95168664D01*
X127231338Y-94775681D01*
X127024488Y-94690001D01*
X127231338Y-94604321D01*
X127624321Y-94211338D01*
X127837001Y-93697882D01*
X127837001Y-93142120D01*
X127624321Y-92628664D01*
X127231338Y-92235681D01*
X127040354Y-92156573D01*
X127171144Y-92102398D01*
X127240609Y-91860214D01*
X126440001Y-91059606D01*
X125639393Y-91860214D01*
X125708858Y-92102398D01*
X125849394Y-92152536D01*
X125648664Y-92235681D01*
X125255681Y-92628664D01*
X125170001Y-92835514D01*
X125084321Y-92628664D01*
X124691338Y-92235681D01*
X124484488Y-92150001D01*
X124691338Y-92064321D01*
X125084321Y-91671338D01*
X125163429Y-91480354D01*
X125217604Y-91611144D01*
X125459788Y-91680609D01*
X126260396Y-90880001D01*
X126619606Y-90880001D01*
X127420214Y-91680609D01*
X127662398Y-91611144D01*
X127829510Y-91142734D01*
X131759293Y-91142734D01*
X131780214Y-91872443D01*
X132019212Y-92449435D01*
X132306825Y-92572570D01*
X133424395Y-91455000D01*
X132306825Y-90337430D01*
X132019212Y-90460565D01*
X131759293Y-91142734D01*
X127829510Y-91142734D01*
X127849145Y-91087699D01*
X127821363Y-90532633D01*
X127662398Y-90148858D01*
X127420214Y-90079393D01*
X126619606Y-90880001D01*
X126260396Y-90880001D01*
X125459788Y-90079393D01*
X125217604Y-90148858D01*
X125167466Y-90289394D01*
X125084321Y-90088664D01*
X124895445Y-89899788D01*
X125639393Y-89899788D01*
X126440001Y-90700396D01*
X127240609Y-89899788D01*
X127171144Y-89657604D01*
X126647699Y-89470857D01*
X126092633Y-89498639D01*
X125708858Y-89657604D01*
X125639393Y-89899788D01*
X124895445Y-89899788D01*
X124691338Y-89695681D01*
X124177882Y-89483001D01*
X123622120Y-89483001D01*
X123108664Y-89695681D01*
X122715681Y-90088664D01*
X122630000Y-90295517D01*
X122630000Y-88400666D01*
X123110939Y-88881605D01*
X124446955Y-89435001D01*
X125893047Y-89435001D01*
X126334427Y-89252175D01*
X132486430Y-89252175D01*
X132609565Y-89539788D01*
X133025071Y-89698104D01*
X132609565Y-89870212D01*
X132486430Y-90157825D01*
X133604000Y-91275395D01*
X134721570Y-90157825D01*
X134598435Y-89870212D01*
X134182929Y-89711896D01*
X134598435Y-89539788D01*
X134721570Y-89252175D01*
X133604000Y-88134605D01*
X132486430Y-89252175D01*
X126334427Y-89252175D01*
X127229063Y-88881605D01*
X128251605Y-87859063D01*
X128341211Y-87642734D01*
X131759293Y-87642734D01*
X131780214Y-88372443D01*
X132019212Y-88949435D01*
X132306825Y-89072570D01*
X133424395Y-87955000D01*
X132306825Y-86837430D01*
X132019212Y-86960565D01*
X131759293Y-87642734D01*
X128341211Y-87642734D01*
X128805001Y-86523047D01*
X128805001Y-85076955D01*
X128665741Y-84740750D01*
X131769000Y-84740750D01*
X131769000Y-85781309D01*
X131865673Y-86014698D01*
X132044301Y-86193327D01*
X132277690Y-86290000D01*
X132803214Y-86290000D01*
X132609565Y-86370212D01*
X132486430Y-86657825D01*
X133604000Y-87775395D01*
X134721570Y-86657825D01*
X134598435Y-86370212D01*
X134387915Y-86290000D01*
X134930310Y-86290000D01*
X135163699Y-86193327D01*
X135342327Y-86014698D01*
X135439000Y-85781309D01*
X135439000Y-84740750D01*
X135280250Y-84582000D01*
X133731000Y-84582000D01*
X133731000Y-84602000D01*
X133477000Y-84602000D01*
X133477000Y-84582000D01*
X131927750Y-84582000D01*
X131769000Y-84740750D01*
X128665741Y-84740750D01*
X128251605Y-83740939D01*
X127770666Y-83260000D01*
X131769000Y-83260000D01*
X131769000Y-84169250D01*
G04 #@! TD*
M02*
