G04 #@! TF.GenerationSoftware,KiCad,Pcbnew,(5.0.0)*
G04 #@! TF.CreationDate,2018-10-31T11:27:42+00:00*
G04 #@! TF.ProjectId,rpi0_HAT,727069305F4841542E6B696361645F70,rev?*
G04 #@! TF.SameCoordinates,Original*
G04 #@! TF.FileFunction,Legend,Top*
G04 #@! TF.FilePolarity,Positive*
%FSLAX46Y46*%
G04 Gerber Fmt 4.6, Leading zero omitted, Abs format (unit mm)*
G04 Created by KiCad (PCBNEW (5.0.0)) date 10/31/18 11:27:42*
%MOMM*%
%LPD*%
G01*
G04 APERTURE LIST*
%ADD10C,0.300000*%
%ADD11C,0.150000*%
%ADD12C,0.250000*%
%ADD13C,0.120000*%
G04 APERTURE END LIST*
D10*
X132334142Y-135013000D02*
X132191285Y-134941571D01*
X131977000Y-134941571D01*
X131762714Y-135013000D01*
X131619857Y-135155857D01*
X131548428Y-135298714D01*
X131477000Y-135584428D01*
X131477000Y-135798714D01*
X131548428Y-136084428D01*
X131619857Y-136227285D01*
X131762714Y-136370142D01*
X131977000Y-136441571D01*
X132119857Y-136441571D01*
X132334142Y-136370142D01*
X132405571Y-136298714D01*
X132405571Y-135798714D01*
X132119857Y-135798714D01*
X133048428Y-136441571D02*
X133048428Y-134941571D01*
X133905571Y-136441571D01*
X133905571Y-134941571D01*
X134619857Y-136441571D02*
X134619857Y-134941571D01*
X134977000Y-134941571D01*
X135191285Y-135013000D01*
X135334142Y-135155857D01*
X135405571Y-135298714D01*
X135477000Y-135584428D01*
X135477000Y-135798714D01*
X135405571Y-136084428D01*
X135334142Y-136227285D01*
X135191285Y-136370142D01*
X134977000Y-136441571D01*
X134619857Y-136441571D01*
D11*
X145708666Y-139493476D02*
X145708666Y-139017285D01*
X145994380Y-139588714D02*
X144994380Y-139255380D01*
X145994380Y-138922047D01*
X145994380Y-138064904D02*
X145994380Y-138636333D01*
X145994380Y-138350619D02*
X144994380Y-138350619D01*
X145137238Y-138445857D01*
X145232476Y-138541095D01*
X145280095Y-138636333D01*
X144994380Y-137731571D02*
X144994380Y-137112523D01*
X145375333Y-137445857D01*
X145375333Y-137303000D01*
X145422952Y-137207761D01*
X145470571Y-137160142D01*
X145565809Y-137112523D01*
X145803904Y-137112523D01*
X145899142Y-137160142D01*
X145946761Y-137207761D01*
X145994380Y-137303000D01*
X145994380Y-137588714D01*
X145946761Y-137683952D01*
X145899142Y-137731571D01*
X145708666Y-143176476D02*
X145708666Y-142700285D01*
X145994380Y-143271714D02*
X144994380Y-142938380D01*
X145994380Y-142605047D01*
X145994380Y-141747904D02*
X145994380Y-142319333D01*
X145994380Y-142033619D02*
X144994380Y-142033619D01*
X145137238Y-142128857D01*
X145232476Y-142224095D01*
X145280095Y-142319333D01*
X145327714Y-140890761D02*
X145994380Y-140890761D01*
X144946761Y-141128857D02*
X145661047Y-141366952D01*
X145661047Y-140747904D01*
X145708666Y-146605476D02*
X145708666Y-146129285D01*
X145994380Y-146700714D02*
X144994380Y-146367380D01*
X145994380Y-146034047D01*
X145994380Y-145176904D02*
X145994380Y-145748333D01*
X145994380Y-145462619D02*
X144994380Y-145462619D01*
X145137238Y-145557857D01*
X145232476Y-145653095D01*
X145280095Y-145748333D01*
X144994380Y-144272142D02*
X144994380Y-144748333D01*
X145470571Y-144795952D01*
X145422952Y-144748333D01*
X145375333Y-144653095D01*
X145375333Y-144415000D01*
X145422952Y-144319761D01*
X145470571Y-144272142D01*
X145565809Y-144224523D01*
X145803904Y-144224523D01*
X145899142Y-144272142D01*
X145946761Y-144319761D01*
X145994380Y-144415000D01*
X145994380Y-144653095D01*
X145946761Y-144748333D01*
X145899142Y-144795952D01*
X145708666Y-85042285D02*
X145708666Y-84566095D01*
X145994380Y-85137523D02*
X144994380Y-84804190D01*
X145994380Y-84470857D01*
X144994380Y-83947047D02*
X144994380Y-83851809D01*
X145042000Y-83756571D01*
X145089619Y-83708952D01*
X145184857Y-83661333D01*
X145375333Y-83613714D01*
X145613428Y-83613714D01*
X145803904Y-83661333D01*
X145899142Y-83708952D01*
X145946761Y-83756571D01*
X145994380Y-83851809D01*
X145994380Y-83947047D01*
X145946761Y-84042285D01*
X145899142Y-84089904D01*
X145803904Y-84137523D01*
X145613428Y-84185142D01*
X145375333Y-84185142D01*
X145184857Y-84137523D01*
X145089619Y-84089904D01*
X145042000Y-84042285D01*
X144994380Y-83947047D01*
X145708666Y-88725285D02*
X145708666Y-88249095D01*
X145994380Y-88820523D02*
X144994380Y-88487190D01*
X145994380Y-88153857D01*
X145994380Y-87296714D02*
X145994380Y-87868142D01*
X145994380Y-87582428D02*
X144994380Y-87582428D01*
X145137238Y-87677666D01*
X145232476Y-87772904D01*
X145280095Y-87868142D01*
D10*
X131584000Y-116331857D02*
X131512571Y-116474714D01*
X131512571Y-116689000D01*
X131584000Y-116903285D01*
X131726857Y-117046142D01*
X131869714Y-117117571D01*
X132155428Y-117189000D01*
X132369714Y-117189000D01*
X132655428Y-117117571D01*
X132798285Y-117046142D01*
X132941142Y-116903285D01*
X133012571Y-116689000D01*
X133012571Y-116546142D01*
X132941142Y-116331857D01*
X132869714Y-116260428D01*
X132369714Y-116260428D01*
X132369714Y-116546142D01*
X133012571Y-115617571D02*
X131512571Y-115617571D01*
X133012571Y-114760428D01*
X131512571Y-114760428D01*
X133012571Y-114046142D02*
X131512571Y-114046142D01*
X131512571Y-113689000D01*
X131584000Y-113474714D01*
X131726857Y-113331857D01*
X131869714Y-113260428D01*
X132155428Y-113189000D01*
X132369714Y-113189000D01*
X132655428Y-113260428D01*
X132798285Y-113331857D01*
X132941142Y-113474714D01*
X133012571Y-113689000D01*
X133012571Y-114046142D01*
X139850857Y-135886000D02*
X140565142Y-135886000D01*
X139708000Y-136314571D02*
X140208000Y-134814571D01*
X140708000Y-136314571D01*
X132461142Y-93611000D02*
X132318285Y-93539571D01*
X132104000Y-93539571D01*
X131889714Y-93611000D01*
X131746857Y-93753857D01*
X131675428Y-93896714D01*
X131604000Y-94182428D01*
X131604000Y-94396714D01*
X131675428Y-94682428D01*
X131746857Y-94825285D01*
X131889714Y-94968142D01*
X132104000Y-95039571D01*
X132246857Y-95039571D01*
X132461142Y-94968142D01*
X132532571Y-94896714D01*
X132532571Y-94396714D01*
X132246857Y-94396714D01*
X133175428Y-95039571D02*
X133175428Y-93539571D01*
X134032571Y-95039571D01*
X134032571Y-93539571D01*
X134746857Y-95039571D02*
X134746857Y-93539571D01*
X135104000Y-93539571D01*
X135318285Y-93611000D01*
X135461142Y-93753857D01*
X135532571Y-93896714D01*
X135604000Y-94182428D01*
X135604000Y-94396714D01*
X135532571Y-94682428D01*
X135461142Y-94825285D01*
X135318285Y-94968142D01*
X135104000Y-95039571D01*
X134746857Y-95039571D01*
D11*
X145708666Y-92408285D02*
X145708666Y-91932095D01*
X145994380Y-92503523D02*
X144994380Y-92170190D01*
X145994380Y-91836857D01*
X145089619Y-91551142D02*
X145042000Y-91503523D01*
X144994380Y-91408285D01*
X144994380Y-91170190D01*
X145042000Y-91074952D01*
X145089619Y-91027333D01*
X145184857Y-90979714D01*
X145280095Y-90979714D01*
X145422952Y-91027333D01*
X145994380Y-91598761D01*
X145994380Y-90979714D01*
D12*
X146724666Y-97107285D02*
X146724666Y-96631095D01*
X147010380Y-97202523D02*
X146010380Y-96869190D01*
X147010380Y-96535857D01*
X146010380Y-96297761D02*
X146010380Y-95678714D01*
X146391333Y-96012047D01*
X146391333Y-95869190D01*
X146438952Y-95773952D01*
X146486571Y-95726333D01*
X146581809Y-95678714D01*
X146819904Y-95678714D01*
X146915142Y-95726333D01*
X146962761Y-95773952D01*
X147010380Y-95869190D01*
X147010380Y-96154904D01*
X146962761Y-96250142D01*
X146915142Y-96297761D01*
X147232666Y-135429476D02*
X147232666Y-134953285D01*
X147518380Y-135524714D02*
X146518380Y-135191380D01*
X147518380Y-134858047D01*
X147518380Y-134000904D02*
X147518380Y-134572333D01*
X147518380Y-134286619D02*
X146518380Y-134286619D01*
X146661238Y-134381857D01*
X146756476Y-134477095D01*
X146804095Y-134572333D01*
X146613619Y-133619952D02*
X146566000Y-133572333D01*
X146518380Y-133477095D01*
X146518380Y-133239000D01*
X146566000Y-133143761D01*
X146613619Y-133096142D01*
X146708857Y-133048523D01*
X146804095Y-133048523D01*
X146946952Y-133096142D01*
X147518380Y-133667571D01*
X147518380Y-133048523D01*
D13*
G04 #@! TO.C,J3*
X145008000Y-147465000D02*
X145008000Y-147065000D01*
X144368000Y-147465000D02*
X145008000Y-147465000D01*
X141149000Y-139560000D02*
X141277000Y-139689000D01*
X138933000Y-137345000D02*
X139027000Y-137439000D01*
X141389000Y-139390000D02*
X141482000Y-139484000D01*
X139139000Y-137140000D02*
X139267000Y-137269000D01*
X141149000Y-143060000D02*
X141277000Y-143189000D01*
X138933000Y-140845000D02*
X139027000Y-140939000D01*
X141389000Y-142890000D02*
X141482000Y-142984000D01*
X139139000Y-140640000D02*
X139267000Y-140769000D01*
X137048000Y-136605000D02*
X144768000Y-136605000D01*
X137048000Y-147225000D02*
X144768000Y-147225000D01*
X144768000Y-147225000D02*
X144768000Y-136605000D01*
X137048000Y-147225000D02*
X137048000Y-136605000D01*
X143208000Y-147225000D02*
X143208000Y-136605000D01*
X144308000Y-147225000D02*
X144308000Y-136605000D01*
X141888000Y-138415000D02*
G75*
G03X141888000Y-138415000I-1680000J0D01*
G01*
X141888000Y-141915000D02*
G75*
G03X141888000Y-141915000I-1680000J0D01*
G01*
X141888099Y-145386326D02*
G75*
G02X141648000Y-146281000I-1680099J-28674D01*
G01*
X141097894Y-146840358D02*
G75*
G02X139342000Y-146855000I-889894J1425358D01*
G01*
X138782642Y-146304894D02*
G75*
G02X138768000Y-144549000I1425358J889894D01*
G01*
X139317807Y-143989495D02*
G75*
G02X141099000Y-143990000I890193J-1425505D01*
G01*
X141632721Y-144524736D02*
G75*
G02X141888000Y-145415000I-1424721J-890264D01*
G01*
G04 #@! TO.C,J4*
X132179279Y-139320264D02*
G75*
G02X131924000Y-138430000I1424721J890264D01*
G01*
X134494193Y-139855505D02*
G75*
G02X132713000Y-139855000I-890193J1425505D01*
G01*
X135029358Y-137540106D02*
G75*
G02X135044000Y-139296000I-1425358J-889894D01*
G01*
X132714106Y-137004642D02*
G75*
G02X134470000Y-136990000I889894J-1425358D01*
G01*
X131923901Y-138458674D02*
G75*
G02X132164000Y-137564000I1680099J28674D01*
G01*
X135284000Y-141930000D02*
G75*
G03X135284000Y-141930000I-1680000J0D01*
G01*
X135284000Y-145430000D02*
G75*
G03X135284000Y-145430000I-1680000J0D01*
G01*
X129504000Y-136620000D02*
X129504000Y-147240000D01*
X130604000Y-136620000D02*
X130604000Y-147240000D01*
X136764000Y-136620000D02*
X136764000Y-147240000D01*
X129044000Y-136620000D02*
X129044000Y-147240000D01*
X136764000Y-136620000D02*
X129044000Y-136620000D01*
X136764000Y-147240000D02*
X129044000Y-147240000D01*
X134673000Y-143205000D02*
X134545000Y-143076000D01*
X132423000Y-140955000D02*
X132330000Y-140861000D01*
X134879000Y-143000000D02*
X134785000Y-142906000D01*
X132663000Y-140785000D02*
X132535000Y-140656000D01*
X134673000Y-146705000D02*
X134545000Y-146576000D01*
X132423000Y-144455000D02*
X132330000Y-144361000D01*
X134879000Y-146500000D02*
X134785000Y-146406000D01*
X132663000Y-144285000D02*
X132535000Y-144156000D01*
X129444000Y-136380000D02*
X128804000Y-136380000D01*
X128804000Y-136380000D02*
X128804000Y-136780000D01*
G04 #@! TO.C,J1*
X141632721Y-90549736D02*
G75*
G02X141888000Y-91440000I-1424721J-890264D01*
G01*
X139317807Y-90014495D02*
G75*
G02X141099000Y-90015000I890193J-1425505D01*
G01*
X138782642Y-92329894D02*
G75*
G02X138768000Y-90574000I1425358J889894D01*
G01*
X141097894Y-92865358D02*
G75*
G02X139342000Y-92880000I-889894J1425358D01*
G01*
X141888099Y-91411326D02*
G75*
G02X141648000Y-92306000I-1680099J-28674D01*
G01*
X141888000Y-87940000D02*
G75*
G03X141888000Y-87940000I-1680000J0D01*
G01*
X141888000Y-84440000D02*
G75*
G03X141888000Y-84440000I-1680000J0D01*
G01*
X144308000Y-93250000D02*
X144308000Y-82630000D01*
X143208000Y-93250000D02*
X143208000Y-82630000D01*
X137048000Y-93250000D02*
X137048000Y-82630000D01*
X144768000Y-93250000D02*
X144768000Y-82630000D01*
X137048000Y-93250000D02*
X144768000Y-93250000D01*
X137048000Y-82630000D02*
X144768000Y-82630000D01*
X139139000Y-86665000D02*
X139267000Y-86794000D01*
X141389000Y-88915000D02*
X141482000Y-89009000D01*
X138933000Y-86870000D02*
X139027000Y-86964000D01*
X141149000Y-89085000D02*
X141277000Y-89214000D01*
X139139000Y-83165000D02*
X139267000Y-83294000D01*
X141389000Y-85415000D02*
X141482000Y-85509000D01*
X138933000Y-83370000D02*
X139027000Y-83464000D01*
X141149000Y-85585000D02*
X141277000Y-85714000D01*
X144368000Y-93490000D02*
X145008000Y-93490000D01*
X145008000Y-93490000D02*
X145008000Y-93090000D01*
G04 #@! TO.C,J2*
X146204721Y-129919736D02*
G75*
G02X146460000Y-130810000I-1424721J-890264D01*
G01*
X143889807Y-129384495D02*
G75*
G02X145671000Y-129385000I890193J-1425505D01*
G01*
X143354642Y-131699894D02*
G75*
G02X143340000Y-129944000I1425358J889894D01*
G01*
X145669894Y-132235358D02*
G75*
G02X143914000Y-132250000I-889894J1425358D01*
G01*
X146460099Y-130781326D02*
G75*
G02X146220000Y-131676000I-1680099J-28674D01*
G01*
X146460000Y-127310000D02*
G75*
G03X146460000Y-127310000I-1680000J0D01*
G01*
X146460000Y-123810000D02*
G75*
G03X146460000Y-123810000I-1680000J0D01*
G01*
X146460000Y-120310000D02*
G75*
G03X146460000Y-120310000I-1680000J0D01*
G01*
X146460000Y-116810000D02*
G75*
G03X146460000Y-116810000I-1680000J0D01*
G01*
X146460000Y-113310000D02*
G75*
G03X146460000Y-113310000I-1680000J0D01*
G01*
X146460000Y-109810000D02*
G75*
G03X146460000Y-109810000I-1680000J0D01*
G01*
X146460000Y-106310000D02*
G75*
G03X146460000Y-106310000I-1680000J0D01*
G01*
X146460000Y-102810000D02*
G75*
G03X146460000Y-102810000I-1680000J0D01*
G01*
X146460000Y-99310000D02*
G75*
G03X146460000Y-99310000I-1680000J0D01*
G01*
X148880000Y-132620000D02*
X148880000Y-97500000D01*
X147780000Y-132620000D02*
X147780000Y-97500000D01*
X141620000Y-132620000D02*
X141620000Y-97500000D01*
X149340000Y-132620000D02*
X149340000Y-97500000D01*
X141620000Y-132620000D02*
X149340000Y-132620000D01*
X141620000Y-97500000D02*
X149340000Y-97500000D01*
X143711000Y-126035000D02*
X143839000Y-126164000D01*
X145961000Y-128285000D02*
X146054000Y-128379000D01*
X143505000Y-126240000D02*
X143599000Y-126334000D01*
X145721000Y-128455000D02*
X145849000Y-128584000D01*
X143711000Y-122535000D02*
X143839000Y-122664000D01*
X145961000Y-124785000D02*
X146054000Y-124879000D01*
X143505000Y-122740000D02*
X143599000Y-122834000D01*
X145721000Y-124955000D02*
X145849000Y-125084000D01*
X143711000Y-119035000D02*
X143839000Y-119164000D01*
X145961000Y-121285000D02*
X146054000Y-121379000D01*
X143505000Y-119240000D02*
X143599000Y-119334000D01*
X145721000Y-121455000D02*
X145849000Y-121584000D01*
X143711000Y-115535000D02*
X143839000Y-115664000D01*
X145961000Y-117785000D02*
X146054000Y-117879000D01*
X143505000Y-115740000D02*
X143599000Y-115834000D01*
X145721000Y-117955000D02*
X145849000Y-118084000D01*
X143711000Y-112035000D02*
X143839000Y-112164000D01*
X145961000Y-114285000D02*
X146054000Y-114379000D01*
X143505000Y-112240000D02*
X143599000Y-112334000D01*
X145721000Y-114455000D02*
X145849000Y-114584000D01*
X143711000Y-108535000D02*
X143839000Y-108664000D01*
X145961000Y-110785000D02*
X146054000Y-110879000D01*
X143505000Y-108740000D02*
X143599000Y-108834000D01*
X145721000Y-110955000D02*
X145849000Y-111084000D01*
X143711000Y-105035000D02*
X143839000Y-105164000D01*
X145961000Y-107285000D02*
X146054000Y-107379000D01*
X143505000Y-105240000D02*
X143599000Y-105334000D01*
X145721000Y-107455000D02*
X145849000Y-107584000D01*
X143711000Y-101535000D02*
X143839000Y-101664000D01*
X145961000Y-103785000D02*
X146054000Y-103879000D01*
X143505000Y-101740000D02*
X143599000Y-101834000D01*
X145721000Y-103955000D02*
X145849000Y-104084000D01*
X143711000Y-98035000D02*
X143839000Y-98164000D01*
X145961000Y-100285000D02*
X146054000Y-100379000D01*
X143505000Y-98240000D02*
X143599000Y-98334000D01*
X145721000Y-100455000D02*
X145849000Y-100584000D01*
X148940000Y-132860000D02*
X149580000Y-132860000D01*
X149580000Y-132860000D02*
X149580000Y-132460000D01*
D11*
G04 #@! TO.C,U1*
X127710001Y-140410001D02*
X122630001Y-140410001D01*
X127710001Y-89610001D02*
X127710001Y-140410001D01*
X122630001Y-89610001D02*
X127710001Y-89610001D01*
X122630001Y-140410001D02*
X122630001Y-89610001D01*
X151840001Y-147395001D02*
X121995001Y-147395001D01*
X151840001Y-82625001D02*
X151840001Y-147395001D01*
X121995001Y-82625001D02*
X151840001Y-82625001D01*
X121995001Y-147395001D02*
X121995001Y-82625001D01*
D13*
G04 #@! TO.C,J5*
X136497279Y-100204264D02*
G75*
G02X136242000Y-99314000I1424721J890264D01*
G01*
X138812193Y-100739505D02*
G75*
G02X137031000Y-100739000I-890193J1425505D01*
G01*
X139347358Y-98424106D02*
G75*
G02X139362000Y-100180000I-1425358J-889894D01*
G01*
X137032106Y-97888642D02*
G75*
G02X138788000Y-97874000I889894J-1425358D01*
G01*
X136241901Y-99342674D02*
G75*
G02X136482000Y-98448000I1680099J28674D01*
G01*
X139602000Y-102814000D02*
G75*
G03X139602000Y-102814000I-1680000J0D01*
G01*
X139602000Y-106314000D02*
G75*
G03X139602000Y-106314000I-1680000J0D01*
G01*
X139602000Y-109814000D02*
G75*
G03X139602000Y-109814000I-1680000J0D01*
G01*
X139602000Y-113314000D02*
G75*
G03X139602000Y-113314000I-1680000J0D01*
G01*
X139602000Y-116814000D02*
G75*
G03X139602000Y-116814000I-1680000J0D01*
G01*
X139602000Y-120314000D02*
G75*
G03X139602000Y-120314000I-1680000J0D01*
G01*
X139602000Y-123814000D02*
G75*
G03X139602000Y-123814000I-1680000J0D01*
G01*
X139602000Y-127314000D02*
G75*
G03X139602000Y-127314000I-1680000J0D01*
G01*
X139602000Y-130814000D02*
G75*
G03X139602000Y-130814000I-1680000J0D01*
G01*
X133822000Y-97504000D02*
X133822000Y-132624000D01*
X134922000Y-97504000D02*
X134922000Y-132624000D01*
X141082000Y-97504000D02*
X141082000Y-132624000D01*
X133362000Y-97504000D02*
X133362000Y-132624000D01*
X141082000Y-97504000D02*
X133362000Y-97504000D01*
X141082000Y-132624000D02*
X133362000Y-132624000D01*
X138991000Y-104089000D02*
X138863000Y-103960000D01*
X136741000Y-101839000D02*
X136648000Y-101745000D01*
X139197000Y-103884000D02*
X139103000Y-103790000D01*
X136981000Y-101669000D02*
X136853000Y-101540000D01*
X138991000Y-107589000D02*
X138863000Y-107460000D01*
X136741000Y-105339000D02*
X136648000Y-105245000D01*
X139197000Y-107384000D02*
X139103000Y-107290000D01*
X136981000Y-105169000D02*
X136853000Y-105040000D01*
X138991000Y-111089000D02*
X138863000Y-110960000D01*
X136741000Y-108839000D02*
X136648000Y-108745000D01*
X139197000Y-110884000D02*
X139103000Y-110790000D01*
X136981000Y-108669000D02*
X136853000Y-108540000D01*
X138991000Y-114589000D02*
X138863000Y-114460000D01*
X136741000Y-112339000D02*
X136648000Y-112245000D01*
X139197000Y-114384000D02*
X139103000Y-114290000D01*
X136981000Y-112169000D02*
X136853000Y-112040000D01*
X138991000Y-118089000D02*
X138863000Y-117960000D01*
X136741000Y-115839000D02*
X136648000Y-115745000D01*
X139197000Y-117884000D02*
X139103000Y-117790000D01*
X136981000Y-115669000D02*
X136853000Y-115540000D01*
X138991000Y-121589000D02*
X138863000Y-121460000D01*
X136741000Y-119339000D02*
X136648000Y-119245000D01*
X139197000Y-121384000D02*
X139103000Y-121290000D01*
X136981000Y-119169000D02*
X136853000Y-119040000D01*
X138991000Y-125089000D02*
X138863000Y-124960000D01*
X136741000Y-122839000D02*
X136648000Y-122745000D01*
X139197000Y-124884000D02*
X139103000Y-124790000D01*
X136981000Y-122669000D02*
X136853000Y-122540000D01*
X138991000Y-128589000D02*
X138863000Y-128460000D01*
X136741000Y-126339000D02*
X136648000Y-126245000D01*
X139197000Y-128384000D02*
X139103000Y-128290000D01*
X136981000Y-126169000D02*
X136853000Y-126040000D01*
X138991000Y-132089000D02*
X138863000Y-131960000D01*
X136741000Y-129839000D02*
X136648000Y-129745000D01*
X139197000Y-131884000D02*
X139103000Y-131790000D01*
X136981000Y-129669000D02*
X136853000Y-129540000D01*
X133762000Y-97264000D02*
X133122000Y-97264000D01*
X133122000Y-97264000D02*
X133122000Y-97664000D01*
G04 #@! TO.C,J6*
X128804000Y-82405000D02*
X128804000Y-82805000D01*
X129444000Y-82405000D02*
X128804000Y-82405000D01*
X132663000Y-90310000D02*
X132535000Y-90181000D01*
X134879000Y-92525000D02*
X134785000Y-92431000D01*
X132423000Y-90480000D02*
X132330000Y-90386000D01*
X134673000Y-92730000D02*
X134545000Y-92601000D01*
X132663000Y-86810000D02*
X132535000Y-86681000D01*
X134879000Y-89025000D02*
X134785000Y-88931000D01*
X132423000Y-86980000D02*
X132330000Y-86886000D01*
X134673000Y-89230000D02*
X134545000Y-89101000D01*
X136764000Y-93265000D02*
X129044000Y-93265000D01*
X136764000Y-82645000D02*
X129044000Y-82645000D01*
X129044000Y-82645000D02*
X129044000Y-93265000D01*
X136764000Y-82645000D02*
X136764000Y-93265000D01*
X130604000Y-82645000D02*
X130604000Y-93265000D01*
X129504000Y-82645000D02*
X129504000Y-93265000D01*
X135284000Y-91455000D02*
G75*
G03X135284000Y-91455000I-1680000J0D01*
G01*
X135284000Y-87955000D02*
G75*
G03X135284000Y-87955000I-1680000J0D01*
G01*
X131923901Y-84483674D02*
G75*
G02X132164000Y-83589000I1680099J28674D01*
G01*
X132714106Y-83029642D02*
G75*
G02X134470000Y-83015000I889894J-1425358D01*
G01*
X135029358Y-83565106D02*
G75*
G02X135044000Y-85321000I-1425358J-889894D01*
G01*
X134494193Y-85880505D02*
G75*
G02X132713000Y-85880000I-890193J1425505D01*
G01*
X132179279Y-85345264D02*
G75*
G02X131924000Y-84455000I1424721J890264D01*
G01*
G04 #@! TO.C,J3*
D11*
X135500380Y-142248333D02*
X136214666Y-142248333D01*
X136357523Y-142295952D01*
X136452761Y-142391190D01*
X136500380Y-142534047D01*
X136500380Y-142629285D01*
X135500380Y-141867380D02*
X135500380Y-141248333D01*
X135881333Y-141581666D01*
X135881333Y-141438809D01*
X135928952Y-141343571D01*
X135976571Y-141295952D01*
X136071809Y-141248333D01*
X136309904Y-141248333D01*
X136405142Y-141295952D01*
X136452761Y-141343571D01*
X136500380Y-141438809D01*
X136500380Y-141724523D01*
X136452761Y-141819761D01*
X136405142Y-141867380D01*
G04 #@! TO.C,J4*
X137216380Y-142263333D02*
X137930666Y-142263333D01*
X138073523Y-142310952D01*
X138168761Y-142406190D01*
X138216380Y-142549047D01*
X138216380Y-142644285D01*
X137549714Y-141358571D02*
X138216380Y-141358571D01*
X137168761Y-141596666D02*
X137883047Y-141834761D01*
X137883047Y-141215714D01*
G04 #@! TO.C,J1*
X135500380Y-88273333D02*
X136214666Y-88273333D01*
X136357523Y-88320952D01*
X136452761Y-88416190D01*
X136500380Y-88559047D01*
X136500380Y-88654285D01*
X136500380Y-87273333D02*
X136500380Y-87844761D01*
X136500380Y-87559047D02*
X135500380Y-87559047D01*
X135643238Y-87654285D01*
X135738476Y-87749523D01*
X135786095Y-87844761D01*
G04 #@! TO.C,J2*
X140072380Y-115393333D02*
X140786666Y-115393333D01*
X140929523Y-115440952D01*
X141024761Y-115536190D01*
X141072380Y-115679047D01*
X141072380Y-115774285D01*
X140167619Y-114964761D02*
X140120000Y-114917142D01*
X140072380Y-114821904D01*
X140072380Y-114583809D01*
X140120000Y-114488571D01*
X140167619Y-114440952D01*
X140262857Y-114393333D01*
X140358095Y-114393333D01*
X140500952Y-114440952D01*
X141072380Y-115012380D01*
X141072380Y-114393333D01*
G04 #@! TO.C,U1*
X137108096Y-81442381D02*
X137108096Y-82251905D01*
X137155715Y-82347143D01*
X137203334Y-82394762D01*
X137298572Y-82442381D01*
X137489048Y-82442381D01*
X137584286Y-82394762D01*
X137631905Y-82347143D01*
X137679524Y-82251905D01*
X137679524Y-81442381D01*
X138679524Y-82442381D02*
X138108096Y-82442381D01*
X138393810Y-82442381D02*
X138393810Y-81442381D01*
X138298572Y-81585239D01*
X138203334Y-81680477D01*
X138108096Y-81728096D01*
G04 #@! TO.C,J5*
X141534380Y-115397333D02*
X142248666Y-115397333D01*
X142391523Y-115444952D01*
X142486761Y-115540190D01*
X142534380Y-115683047D01*
X142534380Y-115778285D01*
X141534380Y-114444952D02*
X141534380Y-114921142D01*
X142010571Y-114968761D01*
X141962952Y-114921142D01*
X141915333Y-114825904D01*
X141915333Y-114587809D01*
X141962952Y-114492571D01*
X142010571Y-114444952D01*
X142105809Y-114397333D01*
X142343904Y-114397333D01*
X142439142Y-114444952D01*
X142486761Y-114492571D01*
X142534380Y-114587809D01*
X142534380Y-114825904D01*
X142486761Y-114921142D01*
X142439142Y-114968761D01*
G04 #@! TO.C,J6*
X137216380Y-88288333D02*
X137930666Y-88288333D01*
X138073523Y-88335952D01*
X138168761Y-88431190D01*
X138216380Y-88574047D01*
X138216380Y-88669285D01*
X137216380Y-87383571D02*
X137216380Y-87574047D01*
X137264000Y-87669285D01*
X137311619Y-87716904D01*
X137454476Y-87812142D01*
X137644952Y-87859761D01*
X138025904Y-87859761D01*
X138121142Y-87812142D01*
X138168761Y-87764523D01*
X138216380Y-87669285D01*
X138216380Y-87478809D01*
X138168761Y-87383571D01*
X138121142Y-87335952D01*
X138025904Y-87288333D01*
X137787809Y-87288333D01*
X137692571Y-87335952D01*
X137644952Y-87383571D01*
X137597333Y-87478809D01*
X137597333Y-87669285D01*
X137644952Y-87764523D01*
X137692571Y-87812142D01*
X137787809Y-87859761D01*
G04 #@! TD*
M02*
