G04 #@! TF.GenerationSoftware,KiCad,Pcbnew,(5.0.0)*
G04 #@! TF.CreationDate,2018-10-31T11:27:42+00:00*
G04 #@! TF.ProjectId,rpi0_HAT,727069305F4841542E6B696361645F70,rev?*
G04 #@! TF.SameCoordinates,Original*
G04 #@! TF.FileFunction,Soldermask,Top*
G04 #@! TF.FilePolarity,Negative*
%FSLAX46Y46*%
G04 Gerber Fmt 4.6, Leading zero omitted, Abs format (unit mm)*
G04 Created by KiCad (PCBNEW (5.0.0)) date 10/31/18 11:27:42*
%MOMM*%
%LPD*%
G01*
G04 APERTURE LIST*
%ADD10C,2.600000*%
%ADD11R,2.600000X2.600000*%
%ADD12C,6.200000*%
%ADD13C,1.724000*%
%ADD14R,1.900000X1.900000*%
%ADD15O,1.900000X1.900000*%
G04 APERTURE END LIST*
D10*
G04 #@! TO.C,J3*
X140208000Y-138415000D03*
X140208000Y-141915000D03*
D11*
X140208000Y-145415000D03*
G04 #@! TD*
G04 #@! TO.C,J4*
X133604000Y-138430000D03*
D10*
X133604000Y-141930000D03*
X133604000Y-145430000D03*
G04 #@! TD*
D11*
G04 #@! TO.C,J1*
X140208000Y-91440000D03*
D10*
X140208000Y-87940000D03*
X140208000Y-84440000D03*
G04 #@! TD*
D11*
G04 #@! TO.C,J2*
X144780000Y-130810000D03*
D10*
X144780000Y-127310000D03*
X144780000Y-123810000D03*
X144780000Y-120310000D03*
X144780000Y-116810000D03*
X144780000Y-113310000D03*
X144780000Y-109810000D03*
X144780000Y-106310000D03*
X144780000Y-102810000D03*
X144780000Y-99310000D03*
G04 #@! TD*
D12*
G04 #@! TO.C,U1*
X148665001Y-85800001D03*
X148665001Y-144220001D03*
X125170001Y-85800001D03*
X125170001Y-144220001D03*
D13*
X123900001Y-90880001D03*
X126440001Y-90880001D03*
X123900001Y-93420001D03*
X126440001Y-93420001D03*
X123900001Y-95960001D03*
X126440001Y-95960001D03*
X123900001Y-98500001D03*
X126440001Y-98500001D03*
X123900001Y-101040001D03*
X126440001Y-101040001D03*
X123900001Y-103580001D03*
X126440001Y-103580001D03*
X123900001Y-106120001D03*
X126440001Y-106120001D03*
X123900001Y-108660001D03*
X126440001Y-108660001D03*
X123900001Y-111200001D03*
X126440001Y-111200001D03*
X123900001Y-113740001D03*
X126440001Y-113740001D03*
X123900001Y-116280001D03*
X126440001Y-116280001D03*
X123900001Y-118820001D03*
X126440001Y-118820001D03*
X123900001Y-121360001D03*
X126440001Y-121360001D03*
X123900001Y-123900001D03*
X126440001Y-123900001D03*
X123900001Y-126440001D03*
X126440001Y-126440001D03*
X123900001Y-128980001D03*
X126440001Y-128980001D03*
X123900001Y-131520001D03*
X126440001Y-131520001D03*
X123900001Y-134060001D03*
X126440001Y-134060001D03*
X123900001Y-136600001D03*
X126440001Y-136600001D03*
X123900001Y-139140001D03*
X126440001Y-139140001D03*
G04 #@! TD*
D11*
G04 #@! TO.C,J5*
X137922000Y-99314000D03*
D10*
X137922000Y-102814000D03*
X137922000Y-106314000D03*
X137922000Y-109814000D03*
X137922000Y-113314000D03*
X137922000Y-116814000D03*
X137922000Y-120314000D03*
X137922000Y-123814000D03*
X137922000Y-127314000D03*
X137922000Y-130814000D03*
G04 #@! TD*
G04 #@! TO.C,J6*
X133604000Y-91455000D03*
X133604000Y-87955000D03*
D11*
X133604000Y-84455000D03*
G04 #@! TD*
D14*
G04 #@! TO.C,J7*
X150622000Y-137668000D03*
D15*
X150622000Y-135128000D03*
X150622000Y-132588000D03*
X150622000Y-130048000D03*
X150622000Y-127508000D03*
X150622000Y-124968000D03*
X150622000Y-122428000D03*
X150622000Y-119888000D03*
X150622000Y-117348000D03*
X150622000Y-114808000D03*
X150622000Y-112268000D03*
X150622000Y-109728000D03*
X150622000Y-107188000D03*
X150622000Y-104648000D03*
X150622000Y-102108000D03*
X150622000Y-99568000D03*
X150622000Y-97028000D03*
X150622000Y-94488000D03*
G04 #@! TD*
M02*
