G04 #@! TF.GenerationSoftware,KiCad,Pcbnew,(5.0.0)*
G04 #@! TF.CreationDate,2018-10-31T11:27:42+00:00*
G04 #@! TF.ProjectId,rpi0_HAT,727069305F4841542E6B696361645F70,rev?*
G04 #@! TF.SameCoordinates,Original*
G04 #@! TF.FileFunction,Soldermask,Bot*
G04 #@! TF.FilePolarity,Negative*
%FSLAX46Y46*%
G04 Gerber Fmt 4.6, Leading zero omitted, Abs format (unit mm)*
G04 Created by KiCad (PCBNEW (5.0.0)) date 10/31/18 11:27:42*
%MOMM*%
%LPD*%
G01*
G04 APERTURE LIST*
%ADD10R,0.450000X0.900000*%
%ADD11R,0.900000X0.450000*%
%ADD12R,5.350000X3.350000*%
%ADD13R,1.700000X1.200000*%
%ADD14C,0.100000*%
%ADD15C,1.525000*%
%ADD16C,2.600000*%
%ADD17R,2.600000X2.600000*%
%ADD18C,6.200000*%
%ADD19C,1.724000*%
%ADD20C,0.790000*%
%ADD21R,1.900000X1.900000*%
%ADD22O,1.900000X1.900000*%
G04 APERTURE END LIST*
D10*
G04 #@! TO.C,U2*
X128949000Y-112535000D03*
X129449000Y-112535000D03*
X129949000Y-112535000D03*
X130449000Y-112535000D03*
X130949000Y-112535000D03*
X131449000Y-112535000D03*
X131949000Y-112535000D03*
X132449000Y-112535000D03*
X132949000Y-112535000D03*
X133449000Y-112535000D03*
X133949000Y-112535000D03*
X134449000Y-112535000D03*
D11*
X135099000Y-113435000D03*
X135099000Y-113935000D03*
X135099000Y-114435000D03*
X135099000Y-114935000D03*
X135099000Y-115435000D03*
X135099000Y-115935000D03*
X135099000Y-116435000D03*
D10*
X134449000Y-117335000D03*
X133949000Y-117335000D03*
X133449000Y-117335000D03*
X132949000Y-117335000D03*
X132449000Y-117335000D03*
X131949000Y-117335000D03*
X131449000Y-117335000D03*
X130949000Y-117335000D03*
X130449000Y-117335000D03*
X129949000Y-117335000D03*
X129449000Y-117335000D03*
X128949000Y-117335000D03*
D11*
X128299000Y-116435000D03*
X128299000Y-115935000D03*
X128299000Y-115435000D03*
X128299000Y-114935000D03*
X128299000Y-114435000D03*
X128299000Y-113935000D03*
X128299000Y-113435000D03*
D12*
X131699000Y-114935000D03*
G04 #@! TD*
D13*
G04 #@! TO.C,JP3*
X129286000Y-100614000D03*
X129286000Y-99314000D03*
G04 #@! TD*
D14*
G04 #@! TO.C,C2*
G36*
X131698468Y-124855386D02*
X131726399Y-124859529D01*
X131753790Y-124866390D01*
X131780376Y-124875903D01*
X131805902Y-124887975D01*
X131830122Y-124902492D01*
X131852802Y-124919313D01*
X131873724Y-124938276D01*
X131892687Y-124959198D01*
X131909508Y-124981878D01*
X131924025Y-125006098D01*
X131936097Y-125031624D01*
X131945610Y-125058210D01*
X131952471Y-125085601D01*
X131956614Y-125113532D01*
X131958000Y-125141735D01*
X131958000Y-126091265D01*
X131956614Y-126119468D01*
X131952471Y-126147399D01*
X131945610Y-126174790D01*
X131936097Y-126201376D01*
X131924025Y-126226902D01*
X131909508Y-126251122D01*
X131892687Y-126273802D01*
X131873724Y-126294724D01*
X131852802Y-126313687D01*
X131830122Y-126330508D01*
X131805902Y-126345025D01*
X131780376Y-126357097D01*
X131753790Y-126366610D01*
X131726399Y-126373471D01*
X131698468Y-126377614D01*
X131670265Y-126379000D01*
X129695735Y-126379000D01*
X129667532Y-126377614D01*
X129639601Y-126373471D01*
X129612210Y-126366610D01*
X129585624Y-126357097D01*
X129560098Y-126345025D01*
X129535878Y-126330508D01*
X129513198Y-126313687D01*
X129492276Y-126294724D01*
X129473313Y-126273802D01*
X129456492Y-126251122D01*
X129441975Y-126226902D01*
X129429903Y-126201376D01*
X129420390Y-126174790D01*
X129413529Y-126147399D01*
X129409386Y-126119468D01*
X129408000Y-126091265D01*
X129408000Y-125141735D01*
X129409386Y-125113532D01*
X129413529Y-125085601D01*
X129420390Y-125058210D01*
X129429903Y-125031624D01*
X129441975Y-125006098D01*
X129456492Y-124981878D01*
X129473313Y-124959198D01*
X129492276Y-124938276D01*
X129513198Y-124919313D01*
X129535878Y-124902492D01*
X129560098Y-124887975D01*
X129585624Y-124875903D01*
X129612210Y-124866390D01*
X129639601Y-124859529D01*
X129667532Y-124855386D01*
X129695735Y-124854000D01*
X131670265Y-124854000D01*
X131698468Y-124855386D01*
X131698468Y-124855386D01*
G37*
D15*
X130683000Y-125616500D03*
D14*
G36*
X131698468Y-121780386D02*
X131726399Y-121784529D01*
X131753790Y-121791390D01*
X131780376Y-121800903D01*
X131805902Y-121812975D01*
X131830122Y-121827492D01*
X131852802Y-121844313D01*
X131873724Y-121863276D01*
X131892687Y-121884198D01*
X131909508Y-121906878D01*
X131924025Y-121931098D01*
X131936097Y-121956624D01*
X131945610Y-121983210D01*
X131952471Y-122010601D01*
X131956614Y-122038532D01*
X131958000Y-122066735D01*
X131958000Y-123016265D01*
X131956614Y-123044468D01*
X131952471Y-123072399D01*
X131945610Y-123099790D01*
X131936097Y-123126376D01*
X131924025Y-123151902D01*
X131909508Y-123176122D01*
X131892687Y-123198802D01*
X131873724Y-123219724D01*
X131852802Y-123238687D01*
X131830122Y-123255508D01*
X131805902Y-123270025D01*
X131780376Y-123282097D01*
X131753790Y-123291610D01*
X131726399Y-123298471D01*
X131698468Y-123302614D01*
X131670265Y-123304000D01*
X129695735Y-123304000D01*
X129667532Y-123302614D01*
X129639601Y-123298471D01*
X129612210Y-123291610D01*
X129585624Y-123282097D01*
X129560098Y-123270025D01*
X129535878Y-123255508D01*
X129513198Y-123238687D01*
X129492276Y-123219724D01*
X129473313Y-123198802D01*
X129456492Y-123176122D01*
X129441975Y-123151902D01*
X129429903Y-123126376D01*
X129420390Y-123099790D01*
X129413529Y-123072399D01*
X129409386Y-123044468D01*
X129408000Y-123016265D01*
X129408000Y-122066735D01*
X129409386Y-122038532D01*
X129413529Y-122010601D01*
X129420390Y-121983210D01*
X129429903Y-121956624D01*
X129441975Y-121931098D01*
X129456492Y-121906878D01*
X129473313Y-121884198D01*
X129492276Y-121863276D01*
X129513198Y-121844313D01*
X129535878Y-121827492D01*
X129560098Y-121812975D01*
X129585624Y-121800903D01*
X129612210Y-121791390D01*
X129639601Y-121784529D01*
X129667532Y-121780386D01*
X129695735Y-121779000D01*
X131670265Y-121779000D01*
X131698468Y-121780386D01*
X131698468Y-121780386D01*
G37*
D15*
X130683000Y-122541500D03*
G04 #@! TD*
D16*
G04 #@! TO.C,J3*
X140208000Y-138415000D03*
X140208000Y-141915000D03*
D17*
X140208000Y-145415000D03*
G04 #@! TD*
G04 #@! TO.C,J4*
X133604000Y-138430000D03*
D16*
X133604000Y-141930000D03*
X133604000Y-145430000D03*
G04 #@! TD*
D17*
G04 #@! TO.C,J1*
X140208000Y-91440000D03*
D16*
X140208000Y-87940000D03*
X140208000Y-84440000D03*
G04 #@! TD*
D17*
G04 #@! TO.C,J2*
X144780000Y-130810000D03*
D16*
X144780000Y-127310000D03*
X144780000Y-123810000D03*
X144780000Y-120310000D03*
X144780000Y-116810000D03*
X144780000Y-113310000D03*
X144780000Y-109810000D03*
X144780000Y-106310000D03*
X144780000Y-102810000D03*
X144780000Y-99310000D03*
G04 #@! TD*
D18*
G04 #@! TO.C,U1*
X148665001Y-85800001D03*
X148665001Y-144220001D03*
X125170001Y-85800001D03*
X125170001Y-144220001D03*
D19*
X123900001Y-90880001D03*
X126440001Y-90880001D03*
X123900001Y-93420001D03*
X126440001Y-93420001D03*
X123900001Y-95960001D03*
X126440001Y-95960001D03*
X123900001Y-98500001D03*
X126440001Y-98500001D03*
X123900001Y-101040001D03*
X126440001Y-101040001D03*
X123900001Y-103580001D03*
X126440001Y-103580001D03*
X123900001Y-106120001D03*
X126440001Y-106120001D03*
X123900001Y-108660001D03*
X126440001Y-108660001D03*
X123900001Y-111200001D03*
X126440001Y-111200001D03*
X123900001Y-113740001D03*
X126440001Y-113740001D03*
X123900001Y-116280001D03*
X126440001Y-116280001D03*
X123900001Y-118820001D03*
X126440001Y-118820001D03*
X123900001Y-121360001D03*
X126440001Y-121360001D03*
X123900001Y-123900001D03*
X126440001Y-123900001D03*
X123900001Y-126440001D03*
X126440001Y-126440001D03*
X123900001Y-128980001D03*
X126440001Y-128980001D03*
X123900001Y-131520001D03*
X126440001Y-131520001D03*
X123900001Y-134060001D03*
X126440001Y-134060001D03*
X123900001Y-136600001D03*
X126440001Y-136600001D03*
X123900001Y-139140001D03*
X126440001Y-139140001D03*
G04 #@! TD*
D14*
G04 #@! TO.C,C1*
G36*
X130495858Y-118071951D02*
X130515030Y-118074795D01*
X130533831Y-118079504D01*
X130552080Y-118086034D01*
X130569601Y-118094321D01*
X130586225Y-118104285D01*
X130601793Y-118115830D01*
X130616154Y-118128846D01*
X130629170Y-118143207D01*
X130640715Y-118158775D01*
X130650679Y-118175399D01*
X130658966Y-118192920D01*
X130665496Y-118211169D01*
X130670205Y-118229970D01*
X130673049Y-118249142D01*
X130674000Y-118268500D01*
X130674000Y-118713500D01*
X130673049Y-118732858D01*
X130670205Y-118752030D01*
X130665496Y-118770831D01*
X130658966Y-118789080D01*
X130650679Y-118806601D01*
X130640715Y-118823225D01*
X130629170Y-118838793D01*
X130616154Y-118853154D01*
X130601793Y-118866170D01*
X130586225Y-118877715D01*
X130569601Y-118887679D01*
X130552080Y-118895966D01*
X130533831Y-118902496D01*
X130515030Y-118907205D01*
X130495858Y-118910049D01*
X130476500Y-118911000D01*
X130081500Y-118911000D01*
X130062142Y-118910049D01*
X130042970Y-118907205D01*
X130024169Y-118902496D01*
X130005920Y-118895966D01*
X129988399Y-118887679D01*
X129971775Y-118877715D01*
X129956207Y-118866170D01*
X129941846Y-118853154D01*
X129928830Y-118838793D01*
X129917285Y-118823225D01*
X129907321Y-118806601D01*
X129899034Y-118789080D01*
X129892504Y-118770831D01*
X129887795Y-118752030D01*
X129884951Y-118732858D01*
X129884000Y-118713500D01*
X129884000Y-118268500D01*
X129884951Y-118249142D01*
X129887795Y-118229970D01*
X129892504Y-118211169D01*
X129899034Y-118192920D01*
X129907321Y-118175399D01*
X129917285Y-118158775D01*
X129928830Y-118143207D01*
X129941846Y-118128846D01*
X129956207Y-118115830D01*
X129971775Y-118104285D01*
X129988399Y-118094321D01*
X130005920Y-118086034D01*
X130024169Y-118079504D01*
X130042970Y-118074795D01*
X130062142Y-118071951D01*
X130081500Y-118071000D01*
X130476500Y-118071000D01*
X130495858Y-118071951D01*
X130495858Y-118071951D01*
G37*
D20*
X130279000Y-118491000D03*
D14*
G36*
X129525858Y-118071951D02*
X129545030Y-118074795D01*
X129563831Y-118079504D01*
X129582080Y-118086034D01*
X129599601Y-118094321D01*
X129616225Y-118104285D01*
X129631793Y-118115830D01*
X129646154Y-118128846D01*
X129659170Y-118143207D01*
X129670715Y-118158775D01*
X129680679Y-118175399D01*
X129688966Y-118192920D01*
X129695496Y-118211169D01*
X129700205Y-118229970D01*
X129703049Y-118249142D01*
X129704000Y-118268500D01*
X129704000Y-118713500D01*
X129703049Y-118732858D01*
X129700205Y-118752030D01*
X129695496Y-118770831D01*
X129688966Y-118789080D01*
X129680679Y-118806601D01*
X129670715Y-118823225D01*
X129659170Y-118838793D01*
X129646154Y-118853154D01*
X129631793Y-118866170D01*
X129616225Y-118877715D01*
X129599601Y-118887679D01*
X129582080Y-118895966D01*
X129563831Y-118902496D01*
X129545030Y-118907205D01*
X129525858Y-118910049D01*
X129506500Y-118911000D01*
X129111500Y-118911000D01*
X129092142Y-118910049D01*
X129072970Y-118907205D01*
X129054169Y-118902496D01*
X129035920Y-118895966D01*
X129018399Y-118887679D01*
X129001775Y-118877715D01*
X128986207Y-118866170D01*
X128971846Y-118853154D01*
X128958830Y-118838793D01*
X128947285Y-118823225D01*
X128937321Y-118806601D01*
X128929034Y-118789080D01*
X128922504Y-118770831D01*
X128917795Y-118752030D01*
X128914951Y-118732858D01*
X128914000Y-118713500D01*
X128914000Y-118268500D01*
X128914951Y-118249142D01*
X128917795Y-118229970D01*
X128922504Y-118211169D01*
X128929034Y-118192920D01*
X128937321Y-118175399D01*
X128947285Y-118158775D01*
X128958830Y-118143207D01*
X128971846Y-118128846D01*
X128986207Y-118115830D01*
X129001775Y-118104285D01*
X129018399Y-118094321D01*
X129035920Y-118086034D01*
X129054169Y-118079504D01*
X129072970Y-118074795D01*
X129092142Y-118071951D01*
X129111500Y-118071000D01*
X129506500Y-118071000D01*
X129525858Y-118071951D01*
X129525858Y-118071951D01*
G37*
D20*
X129309000Y-118491000D03*
G04 #@! TD*
D17*
G04 #@! TO.C,J5*
X137922000Y-99314000D03*
D16*
X137922000Y-102814000D03*
X137922000Y-106314000D03*
X137922000Y-109814000D03*
X137922000Y-113314000D03*
X137922000Y-116814000D03*
X137922000Y-120314000D03*
X137922000Y-123814000D03*
X137922000Y-127314000D03*
X137922000Y-130814000D03*
G04 #@! TD*
G04 #@! TO.C,J6*
X133604000Y-91455000D03*
X133604000Y-87955000D03*
D17*
X133604000Y-84455000D03*
G04 #@! TD*
D21*
G04 #@! TO.C,J7*
X150622000Y-137668000D03*
D22*
X150622000Y-135128000D03*
X150622000Y-132588000D03*
X150622000Y-130048000D03*
X150622000Y-127508000D03*
X150622000Y-124968000D03*
X150622000Y-122428000D03*
X150622000Y-119888000D03*
X150622000Y-117348000D03*
X150622000Y-114808000D03*
X150622000Y-112268000D03*
X150622000Y-109728000D03*
X150622000Y-107188000D03*
X150622000Y-104648000D03*
X150622000Y-102108000D03*
X150622000Y-99568000D03*
X150622000Y-97028000D03*
X150622000Y-94488000D03*
G04 #@! TD*
D13*
G04 #@! TO.C,JP1*
X129286000Y-107218000D03*
X129286000Y-105918000D03*
G04 #@! TD*
G04 #@! TO.C,JP2*
X129286000Y-102586000D03*
X129286000Y-103886000D03*
G04 #@! TD*
M02*
