M48
;DRILL file {KiCad (5.0.0)} date 10/31/18 11:27:45
;FORMAT={-:-/ absolute / metric / decimal}
FMAT,2
METRIC,TZ
T1C0.400
T2C0.762
T3C1.000
T4C1.200
T5C2.740
%
G90
G05
M71
T1
X127.254Y-115.062
X130.556Y-99.06
X130.556Y-101.6
T2
X123.9Y-90.88
X123.9Y-93.42
X123.9Y-95.96
X123.9Y-98.5
X123.9Y-101.04
X123.9Y-103.58
X123.9Y-106.12
X123.9Y-108.66
X123.9Y-111.2
X123.9Y-113.74
X123.9Y-116.28
X123.9Y-118.82
X123.9Y-121.36
X123.9Y-123.9
X123.9Y-126.44
X123.9Y-128.98
X123.9Y-131.52
X123.9Y-134.06
X123.9Y-136.6
X123.9Y-139.14
X126.44Y-90.88
X126.44Y-93.42
X126.44Y-95.96
X126.44Y-98.5
X126.44Y-101.04
X126.44Y-103.58
X126.44Y-106.12
X126.44Y-108.66
X126.44Y-111.2
X126.44Y-113.74
X126.44Y-116.28
X126.44Y-118.82
X126.44Y-121.36
X126.44Y-123.9
X126.44Y-126.44
X126.44Y-128.98
X126.44Y-131.52
X126.44Y-134.06
X126.44Y-136.6
X126.44Y-139.14
T3
X150.622Y-94.488
X150.622Y-97.028
X150.622Y-99.568
X150.622Y-102.108
X150.622Y-104.648
X150.622Y-107.188
X150.622Y-109.728
X150.622Y-112.268
X150.622Y-114.808
X150.622Y-117.348
X150.622Y-119.888
X150.622Y-122.428
X150.622Y-124.968
X150.622Y-127.508
X150.622Y-130.048
X150.622Y-132.588
X150.622Y-135.128
X150.622Y-137.668
T4
X140.208Y-138.415
X140.208Y-141.915
X140.208Y-145.415
X137.922Y-99.314
X137.922Y-102.814
X137.922Y-106.314
X137.922Y-109.814
X137.922Y-113.314
X137.922Y-116.814
X137.922Y-120.314
X137.922Y-123.814
X137.922Y-127.314
X137.922Y-130.814
X144.78Y-99.31
X144.78Y-102.81
X144.78Y-106.31
X144.78Y-109.81
X144.78Y-113.31
X144.78Y-116.81
X144.78Y-120.31
X144.78Y-123.81
X144.78Y-127.31
X144.78Y-130.81
X133.604Y-138.43
X133.604Y-141.93
X133.604Y-145.43
X133.604Y-84.455
X133.604Y-87.955
X133.604Y-91.455
X140.208Y-84.44
X140.208Y-87.94
X140.208Y-91.44
T5
X125.17Y-85.8
X125.17Y-144.22
X148.665Y-85.8
X148.665Y-144.22
T0
M30
