G04 #@! TF.GenerationSoftware,KiCad,Pcbnew,(5.0.0)*
G04 #@! TF.CreationDate,2018-10-25T16:10:50+01:00*
G04 #@! TF.ProjectId,Port_Expander,506F72745F457870616E6465722E6B69,rev?*
G04 #@! TF.SameCoordinates,Original*
G04 #@! TF.FileFunction,Legend,Bot*
G04 #@! TF.FilePolarity,Positive*
%FSLAX46Y46*%
G04 Gerber Fmt 4.6, Leading zero omitted, Abs format (unit mm)*
G04 Created by KiCad (PCBNEW (5.0.0)) date 10/25/18 16:10:50*
%MOMM*%
%LPD*%
G01*
G04 APERTURE LIST*
%ADD10C,0.150000*%
G04 APERTURE END LIST*
D10*
G04 #@! TO.C,U3*
X141082000Y-112314000D02*
X141432000Y-112314000D01*
X141082000Y-118064000D02*
X141532000Y-118064000D01*
X148732000Y-118064000D02*
X148282000Y-118064000D01*
X148732000Y-112314000D02*
X148282000Y-112314000D01*
X141082000Y-112314000D02*
X141082000Y-118064000D01*
X148732000Y-112314000D02*
X148732000Y-118064000D01*
X141432000Y-112314000D02*
X141432000Y-110714000D01*
G04 #@! TO.C,C11*
X144002857Y-109223142D02*
X144050476Y-109270761D01*
X144193333Y-109318380D01*
X144288571Y-109318380D01*
X144431428Y-109270761D01*
X144526666Y-109175523D01*
X144574285Y-109080285D01*
X144621904Y-108889809D01*
X144621904Y-108746952D01*
X144574285Y-108556476D01*
X144526666Y-108461238D01*
X144431428Y-108366000D01*
X144288571Y-108318380D01*
X144193333Y-108318380D01*
X144050476Y-108366000D01*
X144002857Y-108413619D01*
X143050476Y-109318380D02*
X143621904Y-109318380D01*
X143336190Y-109318380D02*
X143336190Y-108318380D01*
X143431428Y-108461238D01*
X143526666Y-108556476D01*
X143621904Y-108604095D01*
X142098095Y-109318380D02*
X142669523Y-109318380D01*
X142383809Y-109318380D02*
X142383809Y-108318380D01*
X142479047Y-108461238D01*
X142574285Y-108556476D01*
X142669523Y-108604095D01*
G04 #@! TO.C,R3*
X143549666Y-108375380D02*
X143883000Y-107899190D01*
X144121095Y-108375380D02*
X144121095Y-107375380D01*
X143740142Y-107375380D01*
X143644904Y-107423000D01*
X143597285Y-107470619D01*
X143549666Y-107565857D01*
X143549666Y-107708714D01*
X143597285Y-107803952D01*
X143644904Y-107851571D01*
X143740142Y-107899190D01*
X144121095Y-107899190D01*
X143216333Y-107375380D02*
X142597285Y-107375380D01*
X142930619Y-107756333D01*
X142787761Y-107756333D01*
X142692523Y-107803952D01*
X142644904Y-107851571D01*
X142597285Y-107946809D01*
X142597285Y-108184904D01*
X142644904Y-108280142D01*
X142692523Y-108327761D01*
X142787761Y-108375380D01*
X143073476Y-108375380D01*
X143168714Y-108327761D01*
X143216333Y-108280142D01*
G04 #@! TO.C,U3*
X139609380Y-114427095D02*
X140418904Y-114427095D01*
X140514142Y-114474714D01*
X140561761Y-114522333D01*
X140609380Y-114617571D01*
X140609380Y-114808047D01*
X140561761Y-114903285D01*
X140514142Y-114950904D01*
X140418904Y-114998523D01*
X139609380Y-114998523D01*
X139609380Y-115379476D02*
X139609380Y-115998523D01*
X139990333Y-115665190D01*
X139990333Y-115808047D01*
X140037952Y-115903285D01*
X140085571Y-115950904D01*
X140180809Y-115998523D01*
X140418904Y-115998523D01*
X140514142Y-115950904D01*
X140561761Y-115903285D01*
X140609380Y-115808047D01*
X140609380Y-115522333D01*
X140561761Y-115427095D01*
X140514142Y-115379476D01*
G04 #@! TO.C,R2*
X142533666Y-106143380D02*
X142867000Y-105667190D01*
X143105095Y-106143380D02*
X143105095Y-105143380D01*
X142724142Y-105143380D01*
X142628904Y-105191000D01*
X142581285Y-105238619D01*
X142533666Y-105333857D01*
X142533666Y-105476714D01*
X142581285Y-105571952D01*
X142628904Y-105619571D01*
X142724142Y-105667190D01*
X143105095Y-105667190D01*
X142152714Y-105238619D02*
X142105095Y-105191000D01*
X142009857Y-105143380D01*
X141771761Y-105143380D01*
X141676523Y-105191000D01*
X141628904Y-105238619D01*
X141581285Y-105333857D01*
X141581285Y-105429095D01*
X141628904Y-105571952D01*
X142200333Y-106143380D01*
X141581285Y-106143380D01*
G04 #@! TD*
M02*
