G04 #@! TF.GenerationSoftware,KiCad,Pcbnew,(5.0.0)*
G04 #@! TF.CreationDate,2018-10-25T16:10:50+01:00*
G04 #@! TF.ProjectId,Port_Expander,506F72745F457870616E6465722E6B69,rev?*
G04 #@! TF.SameCoordinates,Original*
G04 #@! TF.FileFunction,Paste,Bot*
G04 #@! TF.FilePolarity,Positive*
%FSLAX46Y46*%
G04 Gerber Fmt 4.6, Leading zero omitted, Abs format (unit mm)*
G04 Created by KiCad (PCBNEW (5.0.0)) date 10/25/18 16:10:50*
%MOMM*%
%LPD*%
G01*
G04 APERTURE LIST*
%ADD10C,0.100000*%
%ADD11C,0.590000*%
%ADD12R,0.450000X1.750000*%
G04 APERTURE END LIST*
D10*
G04 #@! TO.C,C11*
G36*
X143036958Y-107376710D02*
X143051276Y-107378834D01*
X143065317Y-107382351D01*
X143078946Y-107387228D01*
X143092031Y-107393417D01*
X143104447Y-107400858D01*
X143116073Y-107409481D01*
X143126798Y-107419202D01*
X143136519Y-107429927D01*
X143145142Y-107441553D01*
X143152583Y-107453969D01*
X143158772Y-107467054D01*
X143163649Y-107480683D01*
X143167166Y-107494724D01*
X143169290Y-107509042D01*
X143170000Y-107523500D01*
X143170000Y-107868500D01*
X143169290Y-107882958D01*
X143167166Y-107897276D01*
X143163649Y-107911317D01*
X143158772Y-107924946D01*
X143152583Y-107938031D01*
X143145142Y-107950447D01*
X143136519Y-107962073D01*
X143126798Y-107972798D01*
X143116073Y-107982519D01*
X143104447Y-107991142D01*
X143092031Y-107998583D01*
X143078946Y-108004772D01*
X143065317Y-108009649D01*
X143051276Y-108013166D01*
X143036958Y-108015290D01*
X143022500Y-108016000D01*
X142727500Y-108016000D01*
X142713042Y-108015290D01*
X142698724Y-108013166D01*
X142684683Y-108009649D01*
X142671054Y-108004772D01*
X142657969Y-107998583D01*
X142645553Y-107991142D01*
X142633927Y-107982519D01*
X142623202Y-107972798D01*
X142613481Y-107962073D01*
X142604858Y-107950447D01*
X142597417Y-107938031D01*
X142591228Y-107924946D01*
X142586351Y-107911317D01*
X142582834Y-107897276D01*
X142580710Y-107882958D01*
X142580000Y-107868500D01*
X142580000Y-107523500D01*
X142580710Y-107509042D01*
X142582834Y-107494724D01*
X142586351Y-107480683D01*
X142591228Y-107467054D01*
X142597417Y-107453969D01*
X142604858Y-107441553D01*
X142613481Y-107429927D01*
X142623202Y-107419202D01*
X142633927Y-107409481D01*
X142645553Y-107400858D01*
X142657969Y-107393417D01*
X142671054Y-107387228D01*
X142684683Y-107382351D01*
X142698724Y-107378834D01*
X142713042Y-107376710D01*
X142727500Y-107376000D01*
X143022500Y-107376000D01*
X143036958Y-107376710D01*
X143036958Y-107376710D01*
G37*
D11*
X142875000Y-107696000D03*
D10*
G36*
X144006958Y-107376710D02*
X144021276Y-107378834D01*
X144035317Y-107382351D01*
X144048946Y-107387228D01*
X144062031Y-107393417D01*
X144074447Y-107400858D01*
X144086073Y-107409481D01*
X144096798Y-107419202D01*
X144106519Y-107429927D01*
X144115142Y-107441553D01*
X144122583Y-107453969D01*
X144128772Y-107467054D01*
X144133649Y-107480683D01*
X144137166Y-107494724D01*
X144139290Y-107509042D01*
X144140000Y-107523500D01*
X144140000Y-107868500D01*
X144139290Y-107882958D01*
X144137166Y-107897276D01*
X144133649Y-107911317D01*
X144128772Y-107924946D01*
X144122583Y-107938031D01*
X144115142Y-107950447D01*
X144106519Y-107962073D01*
X144096798Y-107972798D01*
X144086073Y-107982519D01*
X144074447Y-107991142D01*
X144062031Y-107998583D01*
X144048946Y-108004772D01*
X144035317Y-108009649D01*
X144021276Y-108013166D01*
X144006958Y-108015290D01*
X143992500Y-108016000D01*
X143697500Y-108016000D01*
X143683042Y-108015290D01*
X143668724Y-108013166D01*
X143654683Y-108009649D01*
X143641054Y-108004772D01*
X143627969Y-107998583D01*
X143615553Y-107991142D01*
X143603927Y-107982519D01*
X143593202Y-107972798D01*
X143583481Y-107962073D01*
X143574858Y-107950447D01*
X143567417Y-107938031D01*
X143561228Y-107924946D01*
X143556351Y-107911317D01*
X143552834Y-107897276D01*
X143550710Y-107882958D01*
X143550000Y-107868500D01*
X143550000Y-107523500D01*
X143550710Y-107509042D01*
X143552834Y-107494724D01*
X143556351Y-107480683D01*
X143561228Y-107467054D01*
X143567417Y-107453969D01*
X143574858Y-107441553D01*
X143583481Y-107429927D01*
X143593202Y-107419202D01*
X143603927Y-107409481D01*
X143615553Y-107400858D01*
X143627969Y-107393417D01*
X143641054Y-107387228D01*
X143654683Y-107382351D01*
X143668724Y-107378834D01*
X143683042Y-107376710D01*
X143697500Y-107376000D01*
X143992500Y-107376000D01*
X144006958Y-107376710D01*
X144006958Y-107376710D01*
G37*
D11*
X143845000Y-107696000D03*
G04 #@! TD*
D10*
G04 #@! TO.C,R3*
G36*
X143059958Y-108773710D02*
X143074276Y-108775834D01*
X143088317Y-108779351D01*
X143101946Y-108784228D01*
X143115031Y-108790417D01*
X143127447Y-108797858D01*
X143139073Y-108806481D01*
X143149798Y-108816202D01*
X143159519Y-108826927D01*
X143168142Y-108838553D01*
X143175583Y-108850969D01*
X143181772Y-108864054D01*
X143186649Y-108877683D01*
X143190166Y-108891724D01*
X143192290Y-108906042D01*
X143193000Y-108920500D01*
X143193000Y-109265500D01*
X143192290Y-109279958D01*
X143190166Y-109294276D01*
X143186649Y-109308317D01*
X143181772Y-109321946D01*
X143175583Y-109335031D01*
X143168142Y-109347447D01*
X143159519Y-109359073D01*
X143149798Y-109369798D01*
X143139073Y-109379519D01*
X143127447Y-109388142D01*
X143115031Y-109395583D01*
X143101946Y-109401772D01*
X143088317Y-109406649D01*
X143074276Y-109410166D01*
X143059958Y-109412290D01*
X143045500Y-109413000D01*
X142750500Y-109413000D01*
X142736042Y-109412290D01*
X142721724Y-109410166D01*
X142707683Y-109406649D01*
X142694054Y-109401772D01*
X142680969Y-109395583D01*
X142668553Y-109388142D01*
X142656927Y-109379519D01*
X142646202Y-109369798D01*
X142636481Y-109359073D01*
X142627858Y-109347447D01*
X142620417Y-109335031D01*
X142614228Y-109321946D01*
X142609351Y-109308317D01*
X142605834Y-109294276D01*
X142603710Y-109279958D01*
X142603000Y-109265500D01*
X142603000Y-108920500D01*
X142603710Y-108906042D01*
X142605834Y-108891724D01*
X142609351Y-108877683D01*
X142614228Y-108864054D01*
X142620417Y-108850969D01*
X142627858Y-108838553D01*
X142636481Y-108826927D01*
X142646202Y-108816202D01*
X142656927Y-108806481D01*
X142668553Y-108797858D01*
X142680969Y-108790417D01*
X142694054Y-108784228D01*
X142707683Y-108779351D01*
X142721724Y-108775834D01*
X142736042Y-108773710D01*
X142750500Y-108773000D01*
X143045500Y-108773000D01*
X143059958Y-108773710D01*
X143059958Y-108773710D01*
G37*
D11*
X142898000Y-109093000D03*
D10*
G36*
X144029958Y-108773710D02*
X144044276Y-108775834D01*
X144058317Y-108779351D01*
X144071946Y-108784228D01*
X144085031Y-108790417D01*
X144097447Y-108797858D01*
X144109073Y-108806481D01*
X144119798Y-108816202D01*
X144129519Y-108826927D01*
X144138142Y-108838553D01*
X144145583Y-108850969D01*
X144151772Y-108864054D01*
X144156649Y-108877683D01*
X144160166Y-108891724D01*
X144162290Y-108906042D01*
X144163000Y-108920500D01*
X144163000Y-109265500D01*
X144162290Y-109279958D01*
X144160166Y-109294276D01*
X144156649Y-109308317D01*
X144151772Y-109321946D01*
X144145583Y-109335031D01*
X144138142Y-109347447D01*
X144129519Y-109359073D01*
X144119798Y-109369798D01*
X144109073Y-109379519D01*
X144097447Y-109388142D01*
X144085031Y-109395583D01*
X144071946Y-109401772D01*
X144058317Y-109406649D01*
X144044276Y-109410166D01*
X144029958Y-109412290D01*
X144015500Y-109413000D01*
X143720500Y-109413000D01*
X143706042Y-109412290D01*
X143691724Y-109410166D01*
X143677683Y-109406649D01*
X143664054Y-109401772D01*
X143650969Y-109395583D01*
X143638553Y-109388142D01*
X143626927Y-109379519D01*
X143616202Y-109369798D01*
X143606481Y-109359073D01*
X143597858Y-109347447D01*
X143590417Y-109335031D01*
X143584228Y-109321946D01*
X143579351Y-109308317D01*
X143575834Y-109294276D01*
X143573710Y-109279958D01*
X143573000Y-109265500D01*
X143573000Y-108920500D01*
X143573710Y-108906042D01*
X143575834Y-108891724D01*
X143579351Y-108877683D01*
X143584228Y-108864054D01*
X143590417Y-108850969D01*
X143597858Y-108838553D01*
X143606481Y-108826927D01*
X143616202Y-108816202D01*
X143626927Y-108806481D01*
X143638553Y-108797858D01*
X143650969Y-108790417D01*
X143664054Y-108784228D01*
X143677683Y-108779351D01*
X143691724Y-108775834D01*
X143706042Y-108773710D01*
X143720500Y-108773000D01*
X144015500Y-108773000D01*
X144029958Y-108773710D01*
X144029958Y-108773710D01*
G37*
D11*
X143868000Y-109093000D03*
G04 #@! TD*
D12*
G04 #@! TO.C,U3*
X141982000Y-111589000D03*
X142632000Y-111589000D03*
X143282000Y-111589000D03*
X143932000Y-111589000D03*
X144582000Y-111589000D03*
X145232000Y-111589000D03*
X145882000Y-111589000D03*
X146532000Y-111589000D03*
X147182000Y-111589000D03*
X147832000Y-111589000D03*
X147832000Y-118789000D03*
X147182000Y-118789000D03*
X146532000Y-118789000D03*
X145882000Y-118789000D03*
X145232000Y-118789000D03*
X144582000Y-118789000D03*
X143932000Y-118789000D03*
X143282000Y-118789000D03*
X142632000Y-118789000D03*
X141982000Y-118789000D03*
G04 #@! TD*
D10*
G04 #@! TO.C,R2*
G36*
X142043958Y-104201710D02*
X142058276Y-104203834D01*
X142072317Y-104207351D01*
X142085946Y-104212228D01*
X142099031Y-104218417D01*
X142111447Y-104225858D01*
X142123073Y-104234481D01*
X142133798Y-104244202D01*
X142143519Y-104254927D01*
X142152142Y-104266553D01*
X142159583Y-104278969D01*
X142165772Y-104292054D01*
X142170649Y-104305683D01*
X142174166Y-104319724D01*
X142176290Y-104334042D01*
X142177000Y-104348500D01*
X142177000Y-104693500D01*
X142176290Y-104707958D01*
X142174166Y-104722276D01*
X142170649Y-104736317D01*
X142165772Y-104749946D01*
X142159583Y-104763031D01*
X142152142Y-104775447D01*
X142143519Y-104787073D01*
X142133798Y-104797798D01*
X142123073Y-104807519D01*
X142111447Y-104816142D01*
X142099031Y-104823583D01*
X142085946Y-104829772D01*
X142072317Y-104834649D01*
X142058276Y-104838166D01*
X142043958Y-104840290D01*
X142029500Y-104841000D01*
X141734500Y-104841000D01*
X141720042Y-104840290D01*
X141705724Y-104838166D01*
X141691683Y-104834649D01*
X141678054Y-104829772D01*
X141664969Y-104823583D01*
X141652553Y-104816142D01*
X141640927Y-104807519D01*
X141630202Y-104797798D01*
X141620481Y-104787073D01*
X141611858Y-104775447D01*
X141604417Y-104763031D01*
X141598228Y-104749946D01*
X141593351Y-104736317D01*
X141589834Y-104722276D01*
X141587710Y-104707958D01*
X141587000Y-104693500D01*
X141587000Y-104348500D01*
X141587710Y-104334042D01*
X141589834Y-104319724D01*
X141593351Y-104305683D01*
X141598228Y-104292054D01*
X141604417Y-104278969D01*
X141611858Y-104266553D01*
X141620481Y-104254927D01*
X141630202Y-104244202D01*
X141640927Y-104234481D01*
X141652553Y-104225858D01*
X141664969Y-104218417D01*
X141678054Y-104212228D01*
X141691683Y-104207351D01*
X141705724Y-104203834D01*
X141720042Y-104201710D01*
X141734500Y-104201000D01*
X142029500Y-104201000D01*
X142043958Y-104201710D01*
X142043958Y-104201710D01*
G37*
D11*
X141882000Y-104521000D03*
D10*
G36*
X143013958Y-104201710D02*
X143028276Y-104203834D01*
X143042317Y-104207351D01*
X143055946Y-104212228D01*
X143069031Y-104218417D01*
X143081447Y-104225858D01*
X143093073Y-104234481D01*
X143103798Y-104244202D01*
X143113519Y-104254927D01*
X143122142Y-104266553D01*
X143129583Y-104278969D01*
X143135772Y-104292054D01*
X143140649Y-104305683D01*
X143144166Y-104319724D01*
X143146290Y-104334042D01*
X143147000Y-104348500D01*
X143147000Y-104693500D01*
X143146290Y-104707958D01*
X143144166Y-104722276D01*
X143140649Y-104736317D01*
X143135772Y-104749946D01*
X143129583Y-104763031D01*
X143122142Y-104775447D01*
X143113519Y-104787073D01*
X143103798Y-104797798D01*
X143093073Y-104807519D01*
X143081447Y-104816142D01*
X143069031Y-104823583D01*
X143055946Y-104829772D01*
X143042317Y-104834649D01*
X143028276Y-104838166D01*
X143013958Y-104840290D01*
X142999500Y-104841000D01*
X142704500Y-104841000D01*
X142690042Y-104840290D01*
X142675724Y-104838166D01*
X142661683Y-104834649D01*
X142648054Y-104829772D01*
X142634969Y-104823583D01*
X142622553Y-104816142D01*
X142610927Y-104807519D01*
X142600202Y-104797798D01*
X142590481Y-104787073D01*
X142581858Y-104775447D01*
X142574417Y-104763031D01*
X142568228Y-104749946D01*
X142563351Y-104736317D01*
X142559834Y-104722276D01*
X142557710Y-104707958D01*
X142557000Y-104693500D01*
X142557000Y-104348500D01*
X142557710Y-104334042D01*
X142559834Y-104319724D01*
X142563351Y-104305683D01*
X142568228Y-104292054D01*
X142574417Y-104278969D01*
X142581858Y-104266553D01*
X142590481Y-104254927D01*
X142600202Y-104244202D01*
X142610927Y-104234481D01*
X142622553Y-104225858D01*
X142634969Y-104218417D01*
X142648054Y-104212228D01*
X142661683Y-104207351D01*
X142675724Y-104203834D01*
X142690042Y-104201710D01*
X142704500Y-104201000D01*
X142999500Y-104201000D01*
X143013958Y-104201710D01*
X143013958Y-104201710D01*
G37*
D11*
X142852000Y-104521000D03*
G04 #@! TD*
M02*
