G04 #@! TF.GenerationSoftware,KiCad,Pcbnew,(5.0.0)*
G04 #@! TF.CreationDate,2018-10-25T16:10:50+01:00*
G04 #@! TF.ProjectId,Port_Expander,506F72745F457870616E6465722E6B69,rev?*
G04 #@! TF.SameCoordinates,Original*
G04 #@! TF.FileFunction,Soldermask,Bot*
G04 #@! TF.FilePolarity,Negative*
%FSLAX46Y46*%
G04 Gerber Fmt 4.6, Leading zero omitted, Abs format (unit mm)*
G04 Created by KiCad (PCBNEW (5.0.0)) date 10/25/18 16:10:50*
%MOMM*%
%LPD*%
G01*
G04 APERTURE LIST*
%ADD10C,0.100000*%
%ADD11C,0.790000*%
%ADD12R,1.900000X1.900000*%
%ADD13O,1.900000X1.900000*%
%ADD14C,6.200000*%
%ADD15C,1.724000*%
%ADD16R,0.650000X1.950000*%
%ADD17C,2.600000*%
%ADD18R,2.600000X2.600000*%
G04 APERTURE END LIST*
D10*
G04 #@! TO.C,C11*
G36*
X143091858Y-107276951D02*
X143111030Y-107279795D01*
X143129831Y-107284504D01*
X143148080Y-107291034D01*
X143165601Y-107299321D01*
X143182225Y-107309285D01*
X143197793Y-107320830D01*
X143212154Y-107333846D01*
X143225170Y-107348207D01*
X143236715Y-107363775D01*
X143246679Y-107380399D01*
X143254966Y-107397920D01*
X143261496Y-107416169D01*
X143266205Y-107434970D01*
X143269049Y-107454142D01*
X143270000Y-107473500D01*
X143270000Y-107918500D01*
X143269049Y-107937858D01*
X143266205Y-107957030D01*
X143261496Y-107975831D01*
X143254966Y-107994080D01*
X143246679Y-108011601D01*
X143236715Y-108028225D01*
X143225170Y-108043793D01*
X143212154Y-108058154D01*
X143197793Y-108071170D01*
X143182225Y-108082715D01*
X143165601Y-108092679D01*
X143148080Y-108100966D01*
X143129831Y-108107496D01*
X143111030Y-108112205D01*
X143091858Y-108115049D01*
X143072500Y-108116000D01*
X142677500Y-108116000D01*
X142658142Y-108115049D01*
X142638970Y-108112205D01*
X142620169Y-108107496D01*
X142601920Y-108100966D01*
X142584399Y-108092679D01*
X142567775Y-108082715D01*
X142552207Y-108071170D01*
X142537846Y-108058154D01*
X142524830Y-108043793D01*
X142513285Y-108028225D01*
X142503321Y-108011601D01*
X142495034Y-107994080D01*
X142488504Y-107975831D01*
X142483795Y-107957030D01*
X142480951Y-107937858D01*
X142480000Y-107918500D01*
X142480000Y-107473500D01*
X142480951Y-107454142D01*
X142483795Y-107434970D01*
X142488504Y-107416169D01*
X142495034Y-107397920D01*
X142503321Y-107380399D01*
X142513285Y-107363775D01*
X142524830Y-107348207D01*
X142537846Y-107333846D01*
X142552207Y-107320830D01*
X142567775Y-107309285D01*
X142584399Y-107299321D01*
X142601920Y-107291034D01*
X142620169Y-107284504D01*
X142638970Y-107279795D01*
X142658142Y-107276951D01*
X142677500Y-107276000D01*
X143072500Y-107276000D01*
X143091858Y-107276951D01*
X143091858Y-107276951D01*
G37*
D11*
X142875000Y-107696000D03*
D10*
G36*
X144061858Y-107276951D02*
X144081030Y-107279795D01*
X144099831Y-107284504D01*
X144118080Y-107291034D01*
X144135601Y-107299321D01*
X144152225Y-107309285D01*
X144167793Y-107320830D01*
X144182154Y-107333846D01*
X144195170Y-107348207D01*
X144206715Y-107363775D01*
X144216679Y-107380399D01*
X144224966Y-107397920D01*
X144231496Y-107416169D01*
X144236205Y-107434970D01*
X144239049Y-107454142D01*
X144240000Y-107473500D01*
X144240000Y-107918500D01*
X144239049Y-107937858D01*
X144236205Y-107957030D01*
X144231496Y-107975831D01*
X144224966Y-107994080D01*
X144216679Y-108011601D01*
X144206715Y-108028225D01*
X144195170Y-108043793D01*
X144182154Y-108058154D01*
X144167793Y-108071170D01*
X144152225Y-108082715D01*
X144135601Y-108092679D01*
X144118080Y-108100966D01*
X144099831Y-108107496D01*
X144081030Y-108112205D01*
X144061858Y-108115049D01*
X144042500Y-108116000D01*
X143647500Y-108116000D01*
X143628142Y-108115049D01*
X143608970Y-108112205D01*
X143590169Y-108107496D01*
X143571920Y-108100966D01*
X143554399Y-108092679D01*
X143537775Y-108082715D01*
X143522207Y-108071170D01*
X143507846Y-108058154D01*
X143494830Y-108043793D01*
X143483285Y-108028225D01*
X143473321Y-108011601D01*
X143465034Y-107994080D01*
X143458504Y-107975831D01*
X143453795Y-107957030D01*
X143450951Y-107937858D01*
X143450000Y-107918500D01*
X143450000Y-107473500D01*
X143450951Y-107454142D01*
X143453795Y-107434970D01*
X143458504Y-107416169D01*
X143465034Y-107397920D01*
X143473321Y-107380399D01*
X143483285Y-107363775D01*
X143494830Y-107348207D01*
X143507846Y-107333846D01*
X143522207Y-107320830D01*
X143537775Y-107309285D01*
X143554399Y-107299321D01*
X143571920Y-107291034D01*
X143590169Y-107284504D01*
X143608970Y-107279795D01*
X143628142Y-107276951D01*
X143647500Y-107276000D01*
X144042500Y-107276000D01*
X144061858Y-107276951D01*
X144061858Y-107276951D01*
G37*
D11*
X143845000Y-107696000D03*
G04 #@! TD*
D12*
G04 #@! TO.C,J2*
X145161000Y-133985000D03*
D13*
X145161000Y-131445000D03*
G04 #@! TD*
D10*
G04 #@! TO.C,R3*
G36*
X143114858Y-108673951D02*
X143134030Y-108676795D01*
X143152831Y-108681504D01*
X143171080Y-108688034D01*
X143188601Y-108696321D01*
X143205225Y-108706285D01*
X143220793Y-108717830D01*
X143235154Y-108730846D01*
X143248170Y-108745207D01*
X143259715Y-108760775D01*
X143269679Y-108777399D01*
X143277966Y-108794920D01*
X143284496Y-108813169D01*
X143289205Y-108831970D01*
X143292049Y-108851142D01*
X143293000Y-108870500D01*
X143293000Y-109315500D01*
X143292049Y-109334858D01*
X143289205Y-109354030D01*
X143284496Y-109372831D01*
X143277966Y-109391080D01*
X143269679Y-109408601D01*
X143259715Y-109425225D01*
X143248170Y-109440793D01*
X143235154Y-109455154D01*
X143220793Y-109468170D01*
X143205225Y-109479715D01*
X143188601Y-109489679D01*
X143171080Y-109497966D01*
X143152831Y-109504496D01*
X143134030Y-109509205D01*
X143114858Y-109512049D01*
X143095500Y-109513000D01*
X142700500Y-109513000D01*
X142681142Y-109512049D01*
X142661970Y-109509205D01*
X142643169Y-109504496D01*
X142624920Y-109497966D01*
X142607399Y-109489679D01*
X142590775Y-109479715D01*
X142575207Y-109468170D01*
X142560846Y-109455154D01*
X142547830Y-109440793D01*
X142536285Y-109425225D01*
X142526321Y-109408601D01*
X142518034Y-109391080D01*
X142511504Y-109372831D01*
X142506795Y-109354030D01*
X142503951Y-109334858D01*
X142503000Y-109315500D01*
X142503000Y-108870500D01*
X142503951Y-108851142D01*
X142506795Y-108831970D01*
X142511504Y-108813169D01*
X142518034Y-108794920D01*
X142526321Y-108777399D01*
X142536285Y-108760775D01*
X142547830Y-108745207D01*
X142560846Y-108730846D01*
X142575207Y-108717830D01*
X142590775Y-108706285D01*
X142607399Y-108696321D01*
X142624920Y-108688034D01*
X142643169Y-108681504D01*
X142661970Y-108676795D01*
X142681142Y-108673951D01*
X142700500Y-108673000D01*
X143095500Y-108673000D01*
X143114858Y-108673951D01*
X143114858Y-108673951D01*
G37*
D11*
X142898000Y-109093000D03*
D10*
G36*
X144084858Y-108673951D02*
X144104030Y-108676795D01*
X144122831Y-108681504D01*
X144141080Y-108688034D01*
X144158601Y-108696321D01*
X144175225Y-108706285D01*
X144190793Y-108717830D01*
X144205154Y-108730846D01*
X144218170Y-108745207D01*
X144229715Y-108760775D01*
X144239679Y-108777399D01*
X144247966Y-108794920D01*
X144254496Y-108813169D01*
X144259205Y-108831970D01*
X144262049Y-108851142D01*
X144263000Y-108870500D01*
X144263000Y-109315500D01*
X144262049Y-109334858D01*
X144259205Y-109354030D01*
X144254496Y-109372831D01*
X144247966Y-109391080D01*
X144239679Y-109408601D01*
X144229715Y-109425225D01*
X144218170Y-109440793D01*
X144205154Y-109455154D01*
X144190793Y-109468170D01*
X144175225Y-109479715D01*
X144158601Y-109489679D01*
X144141080Y-109497966D01*
X144122831Y-109504496D01*
X144104030Y-109509205D01*
X144084858Y-109512049D01*
X144065500Y-109513000D01*
X143670500Y-109513000D01*
X143651142Y-109512049D01*
X143631970Y-109509205D01*
X143613169Y-109504496D01*
X143594920Y-109497966D01*
X143577399Y-109489679D01*
X143560775Y-109479715D01*
X143545207Y-109468170D01*
X143530846Y-109455154D01*
X143517830Y-109440793D01*
X143506285Y-109425225D01*
X143496321Y-109408601D01*
X143488034Y-109391080D01*
X143481504Y-109372831D01*
X143476795Y-109354030D01*
X143473951Y-109334858D01*
X143473000Y-109315500D01*
X143473000Y-108870500D01*
X143473951Y-108851142D01*
X143476795Y-108831970D01*
X143481504Y-108813169D01*
X143488034Y-108794920D01*
X143496321Y-108777399D01*
X143506285Y-108760775D01*
X143517830Y-108745207D01*
X143530846Y-108730846D01*
X143545207Y-108717830D01*
X143560775Y-108706285D01*
X143577399Y-108696321D01*
X143594920Y-108688034D01*
X143613169Y-108681504D01*
X143631970Y-108676795D01*
X143651142Y-108673951D01*
X143670500Y-108673000D01*
X144065500Y-108673000D01*
X144084858Y-108673951D01*
X144084858Y-108673951D01*
G37*
D11*
X143868000Y-109093000D03*
G04 #@! TD*
D14*
G04 #@! TO.C,U1*
X144018000Y-85979000D03*
X144018000Y-144399000D03*
X120523000Y-85979000D03*
X120523000Y-144399000D03*
D15*
X119253000Y-91059000D03*
X121793000Y-91059000D03*
X119253000Y-93599000D03*
X121793000Y-93599000D03*
X119253000Y-96139000D03*
X121793000Y-96139000D03*
X119253000Y-98679000D03*
X121793000Y-98679000D03*
X119253000Y-101219000D03*
X121793000Y-101219000D03*
X119253000Y-103759000D03*
X121793000Y-103759000D03*
X119253000Y-106299000D03*
X121793000Y-106299000D03*
X119253000Y-108839000D03*
X121793000Y-108839000D03*
X119253000Y-111379000D03*
X121793000Y-111379000D03*
X119253000Y-113919000D03*
X121793000Y-113919000D03*
X119253000Y-116459000D03*
X121793000Y-116459000D03*
X119253000Y-118999000D03*
X121793000Y-118999000D03*
X119253000Y-121539000D03*
X121793000Y-121539000D03*
X119253000Y-124079000D03*
X121793000Y-124079000D03*
X119253000Y-126619000D03*
X121793000Y-126619000D03*
X119253000Y-129159000D03*
X121793000Y-129159000D03*
X119253000Y-131699000D03*
X121793000Y-131699000D03*
X119253000Y-134239000D03*
X121793000Y-134239000D03*
X119253000Y-136779000D03*
X121793000Y-136779000D03*
X119253000Y-139319000D03*
X121793000Y-139319000D03*
G04 #@! TD*
D16*
G04 #@! TO.C,U3*
X141982000Y-111589000D03*
X142632000Y-111589000D03*
X143282000Y-111589000D03*
X143932000Y-111589000D03*
X144582000Y-111589000D03*
X145232000Y-111589000D03*
X145882000Y-111589000D03*
X146532000Y-111589000D03*
X147182000Y-111589000D03*
X147832000Y-111589000D03*
X147832000Y-118789000D03*
X147182000Y-118789000D03*
X146532000Y-118789000D03*
X145882000Y-118789000D03*
X145232000Y-118789000D03*
X144582000Y-118789000D03*
X143932000Y-118789000D03*
X143282000Y-118789000D03*
X142632000Y-118789000D03*
X141982000Y-118789000D03*
G04 #@! TD*
D17*
G04 #@! TO.C,J5*
X127762000Y-81911000D03*
X127762000Y-85411000D03*
X127762000Y-88911000D03*
X127762000Y-92411000D03*
X127762000Y-95911000D03*
X127762000Y-99411000D03*
X127762000Y-102911000D03*
X127762000Y-106411000D03*
X127762000Y-109911000D03*
D18*
X127762000Y-113411000D03*
G04 #@! TD*
D17*
G04 #@! TO.C,J4*
X127762000Y-116967000D03*
X127762000Y-120467000D03*
X127762000Y-123967000D03*
X127762000Y-127467000D03*
X127762000Y-130967000D03*
X127762000Y-134467000D03*
X127762000Y-137967000D03*
X127762000Y-141467000D03*
X127762000Y-144967000D03*
D18*
X127762000Y-148467000D03*
G04 #@! TD*
D17*
G04 #@! TO.C,J3*
X138049000Y-81915000D03*
X138049000Y-85415000D03*
X138049000Y-88915000D03*
X138049000Y-92415000D03*
X138049000Y-95915000D03*
X138049000Y-99415000D03*
X138049000Y-102915000D03*
X138049000Y-106415000D03*
X138049000Y-109915000D03*
D18*
X138049000Y-113415000D03*
G04 #@! TD*
D17*
G04 #@! TO.C,J1*
X138049000Y-116967000D03*
X138049000Y-120467000D03*
X138049000Y-123967000D03*
X138049000Y-127467000D03*
X138049000Y-130967000D03*
X138049000Y-134467000D03*
X138049000Y-137967000D03*
X138049000Y-141467000D03*
X138049000Y-144967000D03*
D18*
X138049000Y-148467000D03*
G04 #@! TD*
D17*
G04 #@! TO.C,J6*
X153035000Y-90689000D03*
X153035000Y-94189000D03*
X153035000Y-97689000D03*
X153035000Y-101189000D03*
X153035000Y-104689000D03*
X153035000Y-108189000D03*
X153035000Y-111689000D03*
X153035000Y-115189000D03*
X153035000Y-118689000D03*
X153035000Y-122189000D03*
X153035000Y-125689000D03*
X153035000Y-129189000D03*
X153035000Y-132689000D03*
X153035000Y-136189000D03*
D18*
X153035000Y-139689000D03*
G04 #@! TD*
D10*
G04 #@! TO.C,R2*
G36*
X142098858Y-104101951D02*
X142118030Y-104104795D01*
X142136831Y-104109504D01*
X142155080Y-104116034D01*
X142172601Y-104124321D01*
X142189225Y-104134285D01*
X142204793Y-104145830D01*
X142219154Y-104158846D01*
X142232170Y-104173207D01*
X142243715Y-104188775D01*
X142253679Y-104205399D01*
X142261966Y-104222920D01*
X142268496Y-104241169D01*
X142273205Y-104259970D01*
X142276049Y-104279142D01*
X142277000Y-104298500D01*
X142277000Y-104743500D01*
X142276049Y-104762858D01*
X142273205Y-104782030D01*
X142268496Y-104800831D01*
X142261966Y-104819080D01*
X142253679Y-104836601D01*
X142243715Y-104853225D01*
X142232170Y-104868793D01*
X142219154Y-104883154D01*
X142204793Y-104896170D01*
X142189225Y-104907715D01*
X142172601Y-104917679D01*
X142155080Y-104925966D01*
X142136831Y-104932496D01*
X142118030Y-104937205D01*
X142098858Y-104940049D01*
X142079500Y-104941000D01*
X141684500Y-104941000D01*
X141665142Y-104940049D01*
X141645970Y-104937205D01*
X141627169Y-104932496D01*
X141608920Y-104925966D01*
X141591399Y-104917679D01*
X141574775Y-104907715D01*
X141559207Y-104896170D01*
X141544846Y-104883154D01*
X141531830Y-104868793D01*
X141520285Y-104853225D01*
X141510321Y-104836601D01*
X141502034Y-104819080D01*
X141495504Y-104800831D01*
X141490795Y-104782030D01*
X141487951Y-104762858D01*
X141487000Y-104743500D01*
X141487000Y-104298500D01*
X141487951Y-104279142D01*
X141490795Y-104259970D01*
X141495504Y-104241169D01*
X141502034Y-104222920D01*
X141510321Y-104205399D01*
X141520285Y-104188775D01*
X141531830Y-104173207D01*
X141544846Y-104158846D01*
X141559207Y-104145830D01*
X141574775Y-104134285D01*
X141591399Y-104124321D01*
X141608920Y-104116034D01*
X141627169Y-104109504D01*
X141645970Y-104104795D01*
X141665142Y-104101951D01*
X141684500Y-104101000D01*
X142079500Y-104101000D01*
X142098858Y-104101951D01*
X142098858Y-104101951D01*
G37*
D11*
X141882000Y-104521000D03*
D10*
G36*
X143068858Y-104101951D02*
X143088030Y-104104795D01*
X143106831Y-104109504D01*
X143125080Y-104116034D01*
X143142601Y-104124321D01*
X143159225Y-104134285D01*
X143174793Y-104145830D01*
X143189154Y-104158846D01*
X143202170Y-104173207D01*
X143213715Y-104188775D01*
X143223679Y-104205399D01*
X143231966Y-104222920D01*
X143238496Y-104241169D01*
X143243205Y-104259970D01*
X143246049Y-104279142D01*
X143247000Y-104298500D01*
X143247000Y-104743500D01*
X143246049Y-104762858D01*
X143243205Y-104782030D01*
X143238496Y-104800831D01*
X143231966Y-104819080D01*
X143223679Y-104836601D01*
X143213715Y-104853225D01*
X143202170Y-104868793D01*
X143189154Y-104883154D01*
X143174793Y-104896170D01*
X143159225Y-104907715D01*
X143142601Y-104917679D01*
X143125080Y-104925966D01*
X143106831Y-104932496D01*
X143088030Y-104937205D01*
X143068858Y-104940049D01*
X143049500Y-104941000D01*
X142654500Y-104941000D01*
X142635142Y-104940049D01*
X142615970Y-104937205D01*
X142597169Y-104932496D01*
X142578920Y-104925966D01*
X142561399Y-104917679D01*
X142544775Y-104907715D01*
X142529207Y-104896170D01*
X142514846Y-104883154D01*
X142501830Y-104868793D01*
X142490285Y-104853225D01*
X142480321Y-104836601D01*
X142472034Y-104819080D01*
X142465504Y-104800831D01*
X142460795Y-104782030D01*
X142457951Y-104762858D01*
X142457000Y-104743500D01*
X142457000Y-104298500D01*
X142457951Y-104279142D01*
X142460795Y-104259970D01*
X142465504Y-104241169D01*
X142472034Y-104222920D01*
X142480321Y-104205399D01*
X142490285Y-104188775D01*
X142501830Y-104173207D01*
X142514846Y-104158846D01*
X142529207Y-104145830D01*
X142544775Y-104134285D01*
X142561399Y-104124321D01*
X142578920Y-104116034D01*
X142597169Y-104109504D01*
X142615970Y-104104795D01*
X142635142Y-104101951D01*
X142654500Y-104101000D01*
X143049500Y-104101000D01*
X143068858Y-104101951D01*
X143068858Y-104101951D01*
G37*
D11*
X142852000Y-104521000D03*
G04 #@! TD*
M02*
