G04 #@! TF.GenerationSoftware,KiCad,Pcbnew,(5.0.0)*
G04 #@! TF.CreationDate,2018-10-25T16:10:50+01:00*
G04 #@! TF.ProjectId,Port_Expander,506F72745F457870616E6465722E6B69,rev?*
G04 #@! TF.SameCoordinates,Original*
G04 #@! TF.FileFunction,Soldermask,Top*
G04 #@! TF.FilePolarity,Negative*
%FSLAX46Y46*%
G04 Gerber Fmt 4.6, Leading zero omitted, Abs format (unit mm)*
G04 Created by KiCad (PCBNEW (5.0.0)) date 10/25/18 16:10:50*
%MOMM*%
%LPD*%
G01*
G04 APERTURE LIST*
%ADD10R,1.900000X1.900000*%
%ADD11O,1.900000X1.900000*%
%ADD12C,6.200000*%
%ADD13C,1.724000*%
%ADD14C,2.600000*%
%ADD15R,2.600000X2.600000*%
G04 APERTURE END LIST*
D10*
G04 #@! TO.C,J2*
X145161000Y-133985000D03*
D11*
X145161000Y-131445000D03*
G04 #@! TD*
D12*
G04 #@! TO.C,U1*
X144018000Y-85979000D03*
X144018000Y-144399000D03*
X120523000Y-85979000D03*
X120523000Y-144399000D03*
D13*
X119253000Y-91059000D03*
X121793000Y-91059000D03*
X119253000Y-93599000D03*
X121793000Y-93599000D03*
X119253000Y-96139000D03*
X121793000Y-96139000D03*
X119253000Y-98679000D03*
X121793000Y-98679000D03*
X119253000Y-101219000D03*
X121793000Y-101219000D03*
X119253000Y-103759000D03*
X121793000Y-103759000D03*
X119253000Y-106299000D03*
X121793000Y-106299000D03*
X119253000Y-108839000D03*
X121793000Y-108839000D03*
X119253000Y-111379000D03*
X121793000Y-111379000D03*
X119253000Y-113919000D03*
X121793000Y-113919000D03*
X119253000Y-116459000D03*
X121793000Y-116459000D03*
X119253000Y-118999000D03*
X121793000Y-118999000D03*
X119253000Y-121539000D03*
X121793000Y-121539000D03*
X119253000Y-124079000D03*
X121793000Y-124079000D03*
X119253000Y-126619000D03*
X121793000Y-126619000D03*
X119253000Y-129159000D03*
X121793000Y-129159000D03*
X119253000Y-131699000D03*
X121793000Y-131699000D03*
X119253000Y-134239000D03*
X121793000Y-134239000D03*
X119253000Y-136779000D03*
X121793000Y-136779000D03*
X119253000Y-139319000D03*
X121793000Y-139319000D03*
G04 #@! TD*
D14*
G04 #@! TO.C,J5*
X127762000Y-81911000D03*
X127762000Y-85411000D03*
X127762000Y-88911000D03*
X127762000Y-92411000D03*
X127762000Y-95911000D03*
X127762000Y-99411000D03*
X127762000Y-102911000D03*
X127762000Y-106411000D03*
X127762000Y-109911000D03*
D15*
X127762000Y-113411000D03*
G04 #@! TD*
D14*
G04 #@! TO.C,J4*
X127762000Y-116967000D03*
X127762000Y-120467000D03*
X127762000Y-123967000D03*
X127762000Y-127467000D03*
X127762000Y-130967000D03*
X127762000Y-134467000D03*
X127762000Y-137967000D03*
X127762000Y-141467000D03*
X127762000Y-144967000D03*
D15*
X127762000Y-148467000D03*
G04 #@! TD*
D14*
G04 #@! TO.C,J3*
X138049000Y-81915000D03*
X138049000Y-85415000D03*
X138049000Y-88915000D03*
X138049000Y-92415000D03*
X138049000Y-95915000D03*
X138049000Y-99415000D03*
X138049000Y-102915000D03*
X138049000Y-106415000D03*
X138049000Y-109915000D03*
D15*
X138049000Y-113415000D03*
G04 #@! TD*
D14*
G04 #@! TO.C,J1*
X138049000Y-116967000D03*
X138049000Y-120467000D03*
X138049000Y-123967000D03*
X138049000Y-127467000D03*
X138049000Y-130967000D03*
X138049000Y-134467000D03*
X138049000Y-137967000D03*
X138049000Y-141467000D03*
X138049000Y-144967000D03*
D15*
X138049000Y-148467000D03*
G04 #@! TD*
D14*
G04 #@! TO.C,J6*
X153035000Y-90689000D03*
X153035000Y-94189000D03*
X153035000Y-97689000D03*
X153035000Y-101189000D03*
X153035000Y-104689000D03*
X153035000Y-108189000D03*
X153035000Y-111689000D03*
X153035000Y-115189000D03*
X153035000Y-118689000D03*
X153035000Y-122189000D03*
X153035000Y-125689000D03*
X153035000Y-129189000D03*
X153035000Y-132689000D03*
X153035000Y-136189000D03*
D15*
X153035000Y-139689000D03*
G04 #@! TD*
M02*
