G04 #@! TF.GenerationSoftware,KiCad,Pcbnew,(5.0.0)*
G04 #@! TF.CreationDate,2018-10-25T16:10:50+01:00*
G04 #@! TF.ProjectId,Port_Expander,506F72745F457870616E6465722E6B69,rev?*
G04 #@! TF.SameCoordinates,Original*
G04 #@! TF.FileFunction,Copper,L2,Bot,Signal*
G04 #@! TF.FilePolarity,Positive*
%FSLAX46Y46*%
G04 Gerber Fmt 4.6, Leading zero omitted, Abs format (unit mm)*
G04 Created by KiCad (PCBNEW (5.0.0)) date 10/25/18 16:10:50*
%MOMM*%
%LPD*%
G01*
G04 APERTURE LIST*
G04 #@! TA.AperFunction,Conductor*
%ADD10C,0.100000*%
G04 #@! TD*
G04 #@! TA.AperFunction,SMDPad,CuDef*
%ADD11C,0.590000*%
G04 #@! TD*
G04 #@! TA.AperFunction,ComponentPad*
%ADD12R,1.700000X1.700000*%
G04 #@! TD*
G04 #@! TA.AperFunction,ComponentPad*
%ADD13O,1.700000X1.700000*%
G04 #@! TD*
G04 #@! TA.AperFunction,ComponentPad*
%ADD14C,6.000000*%
G04 #@! TD*
G04 #@! TA.AperFunction,ComponentPad*
%ADD15C,1.524000*%
G04 #@! TD*
G04 #@! TA.AperFunction,SMDPad,CuDef*
%ADD16R,0.450000X1.750000*%
G04 #@! TD*
G04 #@! TA.AperFunction,ComponentPad*
%ADD17C,2.400000*%
G04 #@! TD*
G04 #@! TA.AperFunction,ComponentPad*
%ADD18R,2.400000X2.400000*%
G04 #@! TD*
G04 #@! TA.AperFunction,ViaPad*
%ADD19C,0.800000*%
G04 #@! TD*
G04 #@! TA.AperFunction,Conductor*
%ADD20C,0.250000*%
G04 #@! TD*
G04 #@! TA.AperFunction,Conductor*
%ADD21C,0.254000*%
G04 #@! TD*
G04 APERTURE END LIST*
D10*
G04 #@! TO.N,Net-(C11-Pad1)*
G04 #@! TO.C,C11*
G36*
X143036958Y-107376710D02*
X143051276Y-107378834D01*
X143065317Y-107382351D01*
X143078946Y-107387228D01*
X143092031Y-107393417D01*
X143104447Y-107400858D01*
X143116073Y-107409481D01*
X143126798Y-107419202D01*
X143136519Y-107429927D01*
X143145142Y-107441553D01*
X143152583Y-107453969D01*
X143158772Y-107467054D01*
X143163649Y-107480683D01*
X143167166Y-107494724D01*
X143169290Y-107509042D01*
X143170000Y-107523500D01*
X143170000Y-107868500D01*
X143169290Y-107882958D01*
X143167166Y-107897276D01*
X143163649Y-107911317D01*
X143158772Y-107924946D01*
X143152583Y-107938031D01*
X143145142Y-107950447D01*
X143136519Y-107962073D01*
X143126798Y-107972798D01*
X143116073Y-107982519D01*
X143104447Y-107991142D01*
X143092031Y-107998583D01*
X143078946Y-108004772D01*
X143065317Y-108009649D01*
X143051276Y-108013166D01*
X143036958Y-108015290D01*
X143022500Y-108016000D01*
X142727500Y-108016000D01*
X142713042Y-108015290D01*
X142698724Y-108013166D01*
X142684683Y-108009649D01*
X142671054Y-108004772D01*
X142657969Y-107998583D01*
X142645553Y-107991142D01*
X142633927Y-107982519D01*
X142623202Y-107972798D01*
X142613481Y-107962073D01*
X142604858Y-107950447D01*
X142597417Y-107938031D01*
X142591228Y-107924946D01*
X142586351Y-107911317D01*
X142582834Y-107897276D01*
X142580710Y-107882958D01*
X142580000Y-107868500D01*
X142580000Y-107523500D01*
X142580710Y-107509042D01*
X142582834Y-107494724D01*
X142586351Y-107480683D01*
X142591228Y-107467054D01*
X142597417Y-107453969D01*
X142604858Y-107441553D01*
X142613481Y-107429927D01*
X142623202Y-107419202D01*
X142633927Y-107409481D01*
X142645553Y-107400858D01*
X142657969Y-107393417D01*
X142671054Y-107387228D01*
X142684683Y-107382351D01*
X142698724Y-107378834D01*
X142713042Y-107376710D01*
X142727500Y-107376000D01*
X143022500Y-107376000D01*
X143036958Y-107376710D01*
X143036958Y-107376710D01*
G37*
D11*
G04 #@! TD*
G04 #@! TO.P,C11,1*
G04 #@! TO.N,Net-(C11-Pad1)*
X142875000Y-107696000D03*
D10*
G04 #@! TO.N,GND*
G04 #@! TO.C,C11*
G36*
X144006958Y-107376710D02*
X144021276Y-107378834D01*
X144035317Y-107382351D01*
X144048946Y-107387228D01*
X144062031Y-107393417D01*
X144074447Y-107400858D01*
X144086073Y-107409481D01*
X144096798Y-107419202D01*
X144106519Y-107429927D01*
X144115142Y-107441553D01*
X144122583Y-107453969D01*
X144128772Y-107467054D01*
X144133649Y-107480683D01*
X144137166Y-107494724D01*
X144139290Y-107509042D01*
X144140000Y-107523500D01*
X144140000Y-107868500D01*
X144139290Y-107882958D01*
X144137166Y-107897276D01*
X144133649Y-107911317D01*
X144128772Y-107924946D01*
X144122583Y-107938031D01*
X144115142Y-107950447D01*
X144106519Y-107962073D01*
X144096798Y-107972798D01*
X144086073Y-107982519D01*
X144074447Y-107991142D01*
X144062031Y-107998583D01*
X144048946Y-108004772D01*
X144035317Y-108009649D01*
X144021276Y-108013166D01*
X144006958Y-108015290D01*
X143992500Y-108016000D01*
X143697500Y-108016000D01*
X143683042Y-108015290D01*
X143668724Y-108013166D01*
X143654683Y-108009649D01*
X143641054Y-108004772D01*
X143627969Y-107998583D01*
X143615553Y-107991142D01*
X143603927Y-107982519D01*
X143593202Y-107972798D01*
X143583481Y-107962073D01*
X143574858Y-107950447D01*
X143567417Y-107938031D01*
X143561228Y-107924946D01*
X143556351Y-107911317D01*
X143552834Y-107897276D01*
X143550710Y-107882958D01*
X143550000Y-107868500D01*
X143550000Y-107523500D01*
X143550710Y-107509042D01*
X143552834Y-107494724D01*
X143556351Y-107480683D01*
X143561228Y-107467054D01*
X143567417Y-107453969D01*
X143574858Y-107441553D01*
X143583481Y-107429927D01*
X143593202Y-107419202D01*
X143603927Y-107409481D01*
X143615553Y-107400858D01*
X143627969Y-107393417D01*
X143641054Y-107387228D01*
X143654683Y-107382351D01*
X143668724Y-107378834D01*
X143683042Y-107376710D01*
X143697500Y-107376000D01*
X143992500Y-107376000D01*
X144006958Y-107376710D01*
X144006958Y-107376710D01*
G37*
D11*
G04 #@! TD*
G04 #@! TO.P,C11,2*
G04 #@! TO.N,GND*
X143845000Y-107696000D03*
D12*
G04 #@! TO.P,J2,1*
G04 #@! TO.N,ISCP_DAT*
X145161000Y-133985000D03*
D13*
G04 #@! TO.P,J2,2*
G04 #@! TO.N,Net-(J2-Pad2)*
X145161000Y-131445000D03*
G04 #@! TD*
D10*
G04 #@! TO.N,Net-(C11-Pad1)*
G04 #@! TO.C,R3*
G36*
X143059958Y-108773710D02*
X143074276Y-108775834D01*
X143088317Y-108779351D01*
X143101946Y-108784228D01*
X143115031Y-108790417D01*
X143127447Y-108797858D01*
X143139073Y-108806481D01*
X143149798Y-108816202D01*
X143159519Y-108826927D01*
X143168142Y-108838553D01*
X143175583Y-108850969D01*
X143181772Y-108864054D01*
X143186649Y-108877683D01*
X143190166Y-108891724D01*
X143192290Y-108906042D01*
X143193000Y-108920500D01*
X143193000Y-109265500D01*
X143192290Y-109279958D01*
X143190166Y-109294276D01*
X143186649Y-109308317D01*
X143181772Y-109321946D01*
X143175583Y-109335031D01*
X143168142Y-109347447D01*
X143159519Y-109359073D01*
X143149798Y-109369798D01*
X143139073Y-109379519D01*
X143127447Y-109388142D01*
X143115031Y-109395583D01*
X143101946Y-109401772D01*
X143088317Y-109406649D01*
X143074276Y-109410166D01*
X143059958Y-109412290D01*
X143045500Y-109413000D01*
X142750500Y-109413000D01*
X142736042Y-109412290D01*
X142721724Y-109410166D01*
X142707683Y-109406649D01*
X142694054Y-109401772D01*
X142680969Y-109395583D01*
X142668553Y-109388142D01*
X142656927Y-109379519D01*
X142646202Y-109369798D01*
X142636481Y-109359073D01*
X142627858Y-109347447D01*
X142620417Y-109335031D01*
X142614228Y-109321946D01*
X142609351Y-109308317D01*
X142605834Y-109294276D01*
X142603710Y-109279958D01*
X142603000Y-109265500D01*
X142603000Y-108920500D01*
X142603710Y-108906042D01*
X142605834Y-108891724D01*
X142609351Y-108877683D01*
X142614228Y-108864054D01*
X142620417Y-108850969D01*
X142627858Y-108838553D01*
X142636481Y-108826927D01*
X142646202Y-108816202D01*
X142656927Y-108806481D01*
X142668553Y-108797858D01*
X142680969Y-108790417D01*
X142694054Y-108784228D01*
X142707683Y-108779351D01*
X142721724Y-108775834D01*
X142736042Y-108773710D01*
X142750500Y-108773000D01*
X143045500Y-108773000D01*
X143059958Y-108773710D01*
X143059958Y-108773710D01*
G37*
D11*
G04 #@! TD*
G04 #@! TO.P,R3,2*
G04 #@! TO.N,Net-(C11-Pad1)*
X142898000Y-109093000D03*
D10*
G04 #@! TO.N,MCLR*
G04 #@! TO.C,R3*
G36*
X144029958Y-108773710D02*
X144044276Y-108775834D01*
X144058317Y-108779351D01*
X144071946Y-108784228D01*
X144085031Y-108790417D01*
X144097447Y-108797858D01*
X144109073Y-108806481D01*
X144119798Y-108816202D01*
X144129519Y-108826927D01*
X144138142Y-108838553D01*
X144145583Y-108850969D01*
X144151772Y-108864054D01*
X144156649Y-108877683D01*
X144160166Y-108891724D01*
X144162290Y-108906042D01*
X144163000Y-108920500D01*
X144163000Y-109265500D01*
X144162290Y-109279958D01*
X144160166Y-109294276D01*
X144156649Y-109308317D01*
X144151772Y-109321946D01*
X144145583Y-109335031D01*
X144138142Y-109347447D01*
X144129519Y-109359073D01*
X144119798Y-109369798D01*
X144109073Y-109379519D01*
X144097447Y-109388142D01*
X144085031Y-109395583D01*
X144071946Y-109401772D01*
X144058317Y-109406649D01*
X144044276Y-109410166D01*
X144029958Y-109412290D01*
X144015500Y-109413000D01*
X143720500Y-109413000D01*
X143706042Y-109412290D01*
X143691724Y-109410166D01*
X143677683Y-109406649D01*
X143664054Y-109401772D01*
X143650969Y-109395583D01*
X143638553Y-109388142D01*
X143626927Y-109379519D01*
X143616202Y-109369798D01*
X143606481Y-109359073D01*
X143597858Y-109347447D01*
X143590417Y-109335031D01*
X143584228Y-109321946D01*
X143579351Y-109308317D01*
X143575834Y-109294276D01*
X143573710Y-109279958D01*
X143573000Y-109265500D01*
X143573000Y-108920500D01*
X143573710Y-108906042D01*
X143575834Y-108891724D01*
X143579351Y-108877683D01*
X143584228Y-108864054D01*
X143590417Y-108850969D01*
X143597858Y-108838553D01*
X143606481Y-108826927D01*
X143616202Y-108816202D01*
X143626927Y-108806481D01*
X143638553Y-108797858D01*
X143650969Y-108790417D01*
X143664054Y-108784228D01*
X143677683Y-108779351D01*
X143691724Y-108775834D01*
X143706042Y-108773710D01*
X143720500Y-108773000D01*
X144015500Y-108773000D01*
X144029958Y-108773710D01*
X144029958Y-108773710D01*
G37*
D11*
G04 #@! TD*
G04 #@! TO.P,R3,1*
G04 #@! TO.N,MCLR*
X143868000Y-109093000D03*
D14*
G04 #@! TO.P,U1,*
G04 #@! TO.N,*
X144018000Y-85979000D03*
X144018000Y-144399000D03*
X120523000Y-85979000D03*
X120523000Y-144399000D03*
D15*
G04 #@! TO.P,U1,40*
G04 #@! TO.N,ISCP_CLK*
X119253000Y-91059000D03*
G04 #@! TO.P,U1,39*
G04 #@! TO.N,GND*
X121793000Y-91059000D03*
G04 #@! TO.P,U1,38*
G04 #@! TO.N,ISCP_DAT*
X119253000Y-93599000D03*
G04 #@! TO.P,U1,37*
G04 #@! TO.N,Net-(J3-Pad9)*
X121793000Y-93599000D03*
G04 #@! TO.P,U1,36*
G04 #@! TO.N,Net-(J5-Pad8)*
X119253000Y-96139000D03*
G04 #@! TO.P,U1,35*
G04 #@! TO.N,MCLR*
X121793000Y-96139000D03*
G04 #@! TO.P,U1,34*
G04 #@! TO.N,GND*
X119253000Y-98679000D03*
G04 #@! TO.P,U1,33*
G04 #@! TO.N,Net-(J3-Pad7)*
X121793000Y-98679000D03*
G04 #@! TO.P,U1,32*
G04 #@! TO.N,Net-(J5-Pad6)*
X119253000Y-101219000D03*
G04 #@! TO.P,U1,31*
G04 #@! TO.N,Net-(J3-Pad6)*
X121793000Y-101219000D03*
G04 #@! TO.P,U1,30*
G04 #@! TO.N,GND*
X119253000Y-103759000D03*
G04 #@! TO.P,U1,29*
G04 #@! TO.N,Net-(J3-Pad5)*
X121793000Y-103759000D03*
G04 #@! TO.P,U1,28*
G04 #@! TO.N,Net-(J5-Pad4)*
X119253000Y-106299000D03*
G04 #@! TO.P,U1,27*
G04 #@! TO.N,Net-(J3-Pad4)*
X121793000Y-106299000D03*
G04 #@! TO.P,U1,26*
G04 #@! TO.N,Net-(J5-Pad3)*
X119253000Y-108839000D03*
G04 #@! TO.P,U1,25*
G04 #@! TO.N,GND*
X121793000Y-108839000D03*
G04 #@! TO.P,U1,24*
G04 #@! TO.N,Net-(J5-Pad2)*
X119253000Y-111379000D03*
G04 #@! TO.P,U1,23*
G04 #@! TO.N,Net-(J3-Pad2)*
X121793000Y-111379000D03*
G04 #@! TO.P,U1,22*
G04 #@! TO.N,Net-(J5-Pad1)*
X119253000Y-113919000D03*
G04 #@! TO.P,U1,21*
G04 #@! TO.N,Net-(J3-Pad1)*
X121793000Y-113919000D03*
G04 #@! TO.P,U1,20*
G04 #@! TO.N,GND*
X119253000Y-116459000D03*
G04 #@! TO.P,U1,19*
G04 #@! TO.N,Net-(J1-Pad10)*
X121793000Y-116459000D03*
G04 #@! TO.P,U1,18*
G04 #@! TO.N,Net-(J4-Pad9)*
X119253000Y-118999000D03*
G04 #@! TO.P,U1,17*
G04 #@! TO.N,Net-(J1-Pad9)*
X121793000Y-118999000D03*
G04 #@! TO.P,U1,16*
G04 #@! TO.N,Net-(J4-Pad8)*
X119253000Y-121539000D03*
G04 #@! TO.P,U1,15*
G04 #@! TO.N,Net-(J1-Pad8)*
X121793000Y-121539000D03*
G04 #@! TO.P,U1,14*
G04 #@! TO.N,GND*
X119253000Y-124079000D03*
G04 #@! TO.P,U1,13*
G04 #@! TO.N,Net-(J1-Pad7)*
X121793000Y-124079000D03*
G04 #@! TO.P,U1,12*
G04 #@! TO.N,Net-(J4-Pad6)*
X119253000Y-126619000D03*
G04 #@! TO.P,U1,11*
G04 #@! TO.N,Net-(J1-Pad6)*
X121793000Y-126619000D03*
G04 #@! TO.P,U1,10*
G04 #@! TO.N,Net-(J4-Pad5)*
X119253000Y-129159000D03*
G04 #@! TO.P,U1,9*
G04 #@! TO.N,GND*
X121793000Y-129159000D03*
G04 #@! TO.P,U1,8*
G04 #@! TO.N,Net-(J4-Pad4)*
X119253000Y-131699000D03*
G04 #@! TO.P,U1,7*
G04 #@! TO.N,Net-(J1-Pad4)*
X121793000Y-131699000D03*
G04 #@! TO.P,U1,6*
G04 #@! TO.N,GND*
X119253000Y-134239000D03*
G04 #@! TO.P,U1,5*
G04 #@! TO.N,SCL*
X121793000Y-134239000D03*
G04 #@! TO.P,U1,4*
G04 #@! TO.N,Net-(J4-Pad2)*
X119253000Y-136779000D03*
G04 #@! TO.P,U1,3*
G04 #@! TO.N,SDA*
X121793000Y-136779000D03*
G04 #@! TO.P,U1,2*
G04 #@! TO.N,Net-(J4-Pad1)*
X119253000Y-139319000D03*
G04 #@! TO.P,U1,1*
G04 #@! TO.N,Net-(J1-Pad1)*
X121793000Y-139319000D03*
G04 #@! TD*
D16*
G04 #@! TO.P,U3,1*
G04 #@! TO.N,+3V3*
X141982000Y-111589000D03*
G04 #@! TO.P,U3,2*
G04 #@! TO.N,/PIC16LF1509/RA5*
X142632000Y-111589000D03*
G04 #@! TO.P,U3,3*
G04 #@! TO.N,/PIC16LF1509/RA4*
X143282000Y-111589000D03*
G04 #@! TO.P,U3,4*
G04 #@! TO.N,MCLR*
X143932000Y-111589000D03*
G04 #@! TO.P,U3,5*
G04 #@! TO.N,/PIC16LF1509/RC5*
X144582000Y-111589000D03*
G04 #@! TO.P,U3,6*
G04 #@! TO.N,/PIC16LF1509/RC4*
X145232000Y-111589000D03*
G04 #@! TO.P,U3,7*
G04 #@! TO.N,/PIC16LF1509/RC3*
X145882000Y-111589000D03*
G04 #@! TO.P,U3,8*
G04 #@! TO.N,/PIC16LF1509/RC6*
X146532000Y-111589000D03*
G04 #@! TO.P,U3,9*
G04 #@! TO.N,/PIC16LF1509/RC7*
X147182000Y-111589000D03*
G04 #@! TO.P,U3,10*
G04 #@! TO.N,/PIC16LF1509/RB7*
X147832000Y-111589000D03*
G04 #@! TO.P,U3,11*
G04 #@! TO.N,SCL*
X147832000Y-118789000D03*
G04 #@! TO.P,U3,12*
G04 #@! TO.N,/PIC16LF1509/RB5*
X147182000Y-118789000D03*
G04 #@! TO.P,U3,13*
G04 #@! TO.N,SDA*
X146532000Y-118789000D03*
G04 #@! TO.P,U3,14*
G04 #@! TO.N,/PIC16LF1509/RC2*
X145882000Y-118789000D03*
G04 #@! TO.P,U3,15*
G04 #@! TO.N,/PIC16LF1509/RC1*
X145232000Y-118789000D03*
G04 #@! TO.P,U3,16*
G04 #@! TO.N,/PIC16LF1509/RC0*
X144582000Y-118789000D03*
G04 #@! TO.P,U3,17*
G04 #@! TO.N,/PIC16LF1509/RA2*
X143932000Y-118789000D03*
G04 #@! TO.P,U3,18*
G04 #@! TO.N,ISCP_CLK*
X143282000Y-118789000D03*
G04 #@! TO.P,U3,19*
G04 #@! TO.N,Net-(J2-Pad2)*
X142632000Y-118789000D03*
G04 #@! TO.P,U3,20*
G04 #@! TO.N,GND*
X141982000Y-118789000D03*
G04 #@! TD*
D17*
G04 #@! TO.P,J5,10*
G04 #@! TO.N,ISCP_CLK*
X127762000Y-81911000D03*
G04 #@! TO.P,J5,9*
G04 #@! TO.N,ISCP_DAT*
X127762000Y-85411000D03*
G04 #@! TO.P,J5,8*
G04 #@! TO.N,Net-(J5-Pad8)*
X127762000Y-88911000D03*
G04 #@! TO.P,J5,7*
G04 #@! TO.N,GND*
X127762000Y-92411000D03*
G04 #@! TO.P,J5,6*
G04 #@! TO.N,Net-(J5-Pad6)*
X127762000Y-95911000D03*
G04 #@! TO.P,J5,5*
G04 #@! TO.N,GND*
X127762000Y-99411000D03*
G04 #@! TO.P,J5,4*
G04 #@! TO.N,Net-(J5-Pad4)*
X127762000Y-102911000D03*
G04 #@! TO.P,J5,3*
G04 #@! TO.N,Net-(J5-Pad3)*
X127762000Y-106411000D03*
G04 #@! TO.P,J5,2*
G04 #@! TO.N,Net-(J5-Pad2)*
X127762000Y-109911000D03*
D18*
G04 #@! TO.P,J5,1*
G04 #@! TO.N,Net-(J5-Pad1)*
X127762000Y-113411000D03*
G04 #@! TD*
D17*
G04 #@! TO.P,J4,10*
G04 #@! TO.N,GND*
X127762000Y-116967000D03*
G04 #@! TO.P,J4,9*
G04 #@! TO.N,Net-(J4-Pad9)*
X127762000Y-120467000D03*
G04 #@! TO.P,J4,8*
G04 #@! TO.N,Net-(J4-Pad8)*
X127762000Y-123967000D03*
G04 #@! TO.P,J4,7*
G04 #@! TO.N,GND*
X127762000Y-127467000D03*
G04 #@! TO.P,J4,6*
G04 #@! TO.N,Net-(J4-Pad6)*
X127762000Y-130967000D03*
G04 #@! TO.P,J4,5*
G04 #@! TO.N,Net-(J4-Pad5)*
X127762000Y-134467000D03*
G04 #@! TO.P,J4,4*
G04 #@! TO.N,Net-(J4-Pad4)*
X127762000Y-137967000D03*
G04 #@! TO.P,J4,3*
G04 #@! TO.N,GND*
X127762000Y-141467000D03*
G04 #@! TO.P,J4,2*
G04 #@! TO.N,Net-(J4-Pad2)*
X127762000Y-144967000D03*
D18*
G04 #@! TO.P,J4,1*
G04 #@! TO.N,Net-(J4-Pad1)*
X127762000Y-148467000D03*
G04 #@! TD*
D17*
G04 #@! TO.P,J3,10*
G04 #@! TO.N,GND*
X138049000Y-81915000D03*
G04 #@! TO.P,J3,9*
G04 #@! TO.N,Net-(J3-Pad9)*
X138049000Y-85415000D03*
G04 #@! TO.P,J3,8*
G04 #@! TO.N,MCLR*
X138049000Y-88915000D03*
G04 #@! TO.P,J3,7*
G04 #@! TO.N,Net-(J3-Pad7)*
X138049000Y-92415000D03*
G04 #@! TO.P,J3,6*
G04 #@! TO.N,Net-(J3-Pad6)*
X138049000Y-95915000D03*
G04 #@! TO.P,J3,5*
G04 #@! TO.N,Net-(J3-Pad5)*
X138049000Y-99415000D03*
G04 #@! TO.P,J3,4*
G04 #@! TO.N,Net-(J3-Pad4)*
X138049000Y-102915000D03*
G04 #@! TO.P,J3,3*
G04 #@! TO.N,GND*
X138049000Y-106415000D03*
G04 #@! TO.P,J3,2*
G04 #@! TO.N,Net-(J3-Pad2)*
X138049000Y-109915000D03*
D18*
G04 #@! TO.P,J3,1*
G04 #@! TO.N,Net-(J3-Pad1)*
X138049000Y-113415000D03*
G04 #@! TD*
D17*
G04 #@! TO.P,J1,10*
G04 #@! TO.N,Net-(J1-Pad10)*
X138049000Y-116967000D03*
G04 #@! TO.P,J1,9*
G04 #@! TO.N,Net-(J1-Pad9)*
X138049000Y-120467000D03*
G04 #@! TO.P,J1,8*
G04 #@! TO.N,Net-(J1-Pad8)*
X138049000Y-123967000D03*
G04 #@! TO.P,J1,7*
G04 #@! TO.N,Net-(J1-Pad7)*
X138049000Y-127467000D03*
G04 #@! TO.P,J1,6*
G04 #@! TO.N,Net-(J1-Pad6)*
X138049000Y-130967000D03*
G04 #@! TO.P,J1,5*
G04 #@! TO.N,GND*
X138049000Y-134467000D03*
G04 #@! TO.P,J1,4*
G04 #@! TO.N,Net-(J1-Pad4)*
X138049000Y-137967000D03*
G04 #@! TO.P,J1,3*
G04 #@! TO.N,SCL*
X138049000Y-141467000D03*
G04 #@! TO.P,J1,2*
G04 #@! TO.N,SDA*
X138049000Y-144967000D03*
D18*
G04 #@! TO.P,J1,1*
G04 #@! TO.N,Net-(J1-Pad1)*
X138049000Y-148467000D03*
G04 #@! TD*
D17*
G04 #@! TO.P,J6,15*
G04 #@! TO.N,GND*
X153035000Y-90689000D03*
G04 #@! TO.P,J6,14*
G04 #@! TO.N,/PIC16LF1509/RC7*
X153035000Y-94189000D03*
G04 #@! TO.P,J6,13*
G04 #@! TO.N,/PIC16LF1509/RC6*
X153035000Y-97689000D03*
G04 #@! TO.P,J6,12*
G04 #@! TO.N,/PIC16LF1509/RC5*
X153035000Y-101189000D03*
G04 #@! TO.P,J6,11*
G04 #@! TO.N,/PIC16LF1509/RC4*
X153035000Y-104689000D03*
G04 #@! TO.P,J6,10*
G04 #@! TO.N,/PIC16LF1509/RC3*
X153035000Y-108189000D03*
G04 #@! TO.P,J6,9*
G04 #@! TO.N,/PIC16LF1509/RC2*
X153035000Y-111689000D03*
G04 #@! TO.P,J6,8*
G04 #@! TO.N,/PIC16LF1509/RC1*
X153035000Y-115189000D03*
G04 #@! TO.P,J6,7*
G04 #@! TO.N,/PIC16LF1509/RC0*
X153035000Y-118689000D03*
G04 #@! TO.P,J6,6*
G04 #@! TO.N,/PIC16LF1509/RB7*
X153035000Y-122189000D03*
G04 #@! TO.P,J6,5*
G04 #@! TO.N,/PIC16LF1509/RB5*
X153035000Y-125689000D03*
G04 #@! TO.P,J6,4*
G04 #@! TO.N,/PIC16LF1509/RA5*
X153035000Y-129189000D03*
G04 #@! TO.P,J6,3*
G04 #@! TO.N,/PIC16LF1509/RA4*
X153035000Y-132689000D03*
G04 #@! TO.P,J6,2*
G04 #@! TO.N,/PIC16LF1509/RA2*
X153035000Y-136189000D03*
D18*
G04 #@! TO.P,J6,1*
G04 #@! TO.N,GND*
X153035000Y-139689000D03*
G04 #@! TD*
D10*
G04 #@! TO.N,+3V3*
G04 #@! TO.C,R2*
G36*
X142043958Y-104201710D02*
X142058276Y-104203834D01*
X142072317Y-104207351D01*
X142085946Y-104212228D01*
X142099031Y-104218417D01*
X142111447Y-104225858D01*
X142123073Y-104234481D01*
X142133798Y-104244202D01*
X142143519Y-104254927D01*
X142152142Y-104266553D01*
X142159583Y-104278969D01*
X142165772Y-104292054D01*
X142170649Y-104305683D01*
X142174166Y-104319724D01*
X142176290Y-104334042D01*
X142177000Y-104348500D01*
X142177000Y-104693500D01*
X142176290Y-104707958D01*
X142174166Y-104722276D01*
X142170649Y-104736317D01*
X142165772Y-104749946D01*
X142159583Y-104763031D01*
X142152142Y-104775447D01*
X142143519Y-104787073D01*
X142133798Y-104797798D01*
X142123073Y-104807519D01*
X142111447Y-104816142D01*
X142099031Y-104823583D01*
X142085946Y-104829772D01*
X142072317Y-104834649D01*
X142058276Y-104838166D01*
X142043958Y-104840290D01*
X142029500Y-104841000D01*
X141734500Y-104841000D01*
X141720042Y-104840290D01*
X141705724Y-104838166D01*
X141691683Y-104834649D01*
X141678054Y-104829772D01*
X141664969Y-104823583D01*
X141652553Y-104816142D01*
X141640927Y-104807519D01*
X141630202Y-104797798D01*
X141620481Y-104787073D01*
X141611858Y-104775447D01*
X141604417Y-104763031D01*
X141598228Y-104749946D01*
X141593351Y-104736317D01*
X141589834Y-104722276D01*
X141587710Y-104707958D01*
X141587000Y-104693500D01*
X141587000Y-104348500D01*
X141587710Y-104334042D01*
X141589834Y-104319724D01*
X141593351Y-104305683D01*
X141598228Y-104292054D01*
X141604417Y-104278969D01*
X141611858Y-104266553D01*
X141620481Y-104254927D01*
X141630202Y-104244202D01*
X141640927Y-104234481D01*
X141652553Y-104225858D01*
X141664969Y-104218417D01*
X141678054Y-104212228D01*
X141691683Y-104207351D01*
X141705724Y-104203834D01*
X141720042Y-104201710D01*
X141734500Y-104201000D01*
X142029500Y-104201000D01*
X142043958Y-104201710D01*
X142043958Y-104201710D01*
G37*
D11*
G04 #@! TD*
G04 #@! TO.P,R2,1*
G04 #@! TO.N,+3V3*
X141882000Y-104521000D03*
D10*
G04 #@! TO.N,Net-(C11-Pad1)*
G04 #@! TO.C,R2*
G36*
X143013958Y-104201710D02*
X143028276Y-104203834D01*
X143042317Y-104207351D01*
X143055946Y-104212228D01*
X143069031Y-104218417D01*
X143081447Y-104225858D01*
X143093073Y-104234481D01*
X143103798Y-104244202D01*
X143113519Y-104254927D01*
X143122142Y-104266553D01*
X143129583Y-104278969D01*
X143135772Y-104292054D01*
X143140649Y-104305683D01*
X143144166Y-104319724D01*
X143146290Y-104334042D01*
X143147000Y-104348500D01*
X143147000Y-104693500D01*
X143146290Y-104707958D01*
X143144166Y-104722276D01*
X143140649Y-104736317D01*
X143135772Y-104749946D01*
X143129583Y-104763031D01*
X143122142Y-104775447D01*
X143113519Y-104787073D01*
X143103798Y-104797798D01*
X143093073Y-104807519D01*
X143081447Y-104816142D01*
X143069031Y-104823583D01*
X143055946Y-104829772D01*
X143042317Y-104834649D01*
X143028276Y-104838166D01*
X143013958Y-104840290D01*
X142999500Y-104841000D01*
X142704500Y-104841000D01*
X142690042Y-104840290D01*
X142675724Y-104838166D01*
X142661683Y-104834649D01*
X142648054Y-104829772D01*
X142634969Y-104823583D01*
X142622553Y-104816142D01*
X142610927Y-104807519D01*
X142600202Y-104797798D01*
X142590481Y-104787073D01*
X142581858Y-104775447D01*
X142574417Y-104763031D01*
X142568228Y-104749946D01*
X142563351Y-104736317D01*
X142559834Y-104722276D01*
X142557710Y-104707958D01*
X142557000Y-104693500D01*
X142557000Y-104348500D01*
X142557710Y-104334042D01*
X142559834Y-104319724D01*
X142563351Y-104305683D01*
X142568228Y-104292054D01*
X142574417Y-104278969D01*
X142581858Y-104266553D01*
X142590481Y-104254927D01*
X142600202Y-104244202D01*
X142610927Y-104234481D01*
X142622553Y-104225858D01*
X142634969Y-104218417D01*
X142648054Y-104212228D01*
X142661683Y-104207351D01*
X142675724Y-104203834D01*
X142690042Y-104201710D01*
X142704500Y-104201000D01*
X142999500Y-104201000D01*
X143013958Y-104201710D01*
X143013958Y-104201710D01*
G37*
D11*
G04 #@! TD*
G04 #@! TO.P,R2,2*
G04 #@! TO.N,Net-(C11-Pad1)*
X142852000Y-104521000D03*
D19*
G04 #@! TO.N,GND*
X143129000Y-106299000D03*
X141732000Y-121285000D03*
G04 #@! TO.N,SDA*
X142494000Y-138049000D03*
G04 #@! TO.N,MCLR*
X145161000Y-89916000D03*
G04 #@! TO.N,/PIC16LF1509/RA4*
X143256000Y-114935000D03*
G04 #@! TO.N,/PIC16LF1509/RA5*
X144018000Y-116078000D03*
G04 #@! TO.N,/PIC16LF1509/RB7*
X149098000Y-111252000D03*
G04 #@! TO.N,/PIC16LF1509/RC1*
X147320000Y-116205000D03*
G04 #@! TO.N,/PIC16LF1509/RC2*
X147955000Y-117094000D03*
G04 #@! TD*
D20*
G04 #@! TO.N,Net-(C11-Pad1)*
X142875000Y-109070000D02*
X142898000Y-109093000D01*
X142875000Y-107696000D02*
X142875000Y-109070000D01*
X142852000Y-105052000D02*
X142852000Y-104521000D01*
X142367000Y-105537000D02*
X142852000Y-105052000D01*
X142367000Y-107061000D02*
X142367000Y-105537000D01*
X142875000Y-107696000D02*
X142875000Y-107569000D01*
X142875000Y-107569000D02*
X142367000Y-107061000D01*
G04 #@! TO.N,GND*
X121793000Y-108839000D02*
X125603000Y-108839000D01*
X125603000Y-108839000D02*
X126238000Y-108204000D01*
X136260000Y-108204000D02*
X138049000Y-106415000D01*
X126238000Y-108204000D02*
X136260000Y-108204000D01*
X143845000Y-107696000D02*
X143845000Y-107015000D01*
X143845000Y-107015000D02*
X143129000Y-106299000D01*
X141982000Y-121035000D02*
X141982000Y-118789000D01*
X141732000Y-121285000D02*
X141982000Y-121035000D01*
X121793000Y-108839000D02*
X121793000Y-108585000D01*
X121793000Y-108585000D02*
X120523000Y-107315000D01*
X120523000Y-105029000D02*
X119253000Y-103759000D01*
X120523000Y-107315000D02*
X120523000Y-105029000D01*
X119253000Y-116459000D02*
X119507000Y-116459000D01*
X119507000Y-116459000D02*
X120396000Y-115570000D01*
X120396000Y-110236000D02*
X121793000Y-108839000D01*
X120396000Y-115570000D02*
X120396000Y-110236000D01*
X119253000Y-124079000D02*
X119380000Y-124079000D01*
X119380000Y-124079000D02*
X120396000Y-125095000D01*
X120396000Y-127762000D02*
X121793000Y-129159000D01*
X120396000Y-125095000D02*
X120396000Y-127762000D01*
X119253000Y-134239000D02*
X119253000Y-133985000D01*
X119253000Y-133985000D02*
X120523000Y-132715000D01*
X120523000Y-130429000D02*
X121793000Y-129159000D01*
X120523000Y-132715000D02*
X120523000Y-130429000D01*
G04 #@! TO.N,Net-(J1-Pad10)*
X121793000Y-116459000D02*
X124079000Y-116459000D01*
X124079000Y-116459000D02*
X126365000Y-118745000D01*
X136271000Y-118745000D02*
X138049000Y-116967000D01*
X126365000Y-118745000D02*
X136271000Y-118745000D01*
G04 #@! TO.N,Net-(J1-Pad7)*
X121793000Y-124079000D02*
X121793000Y-124587000D01*
X121793000Y-124587000D02*
X126365000Y-129159000D01*
X136357000Y-129159000D02*
X138049000Y-127467000D01*
X126365000Y-129159000D02*
X136357000Y-129159000D01*
G04 #@! TO.N,Net-(J1-Pad6)*
X136428000Y-132588000D02*
X138049000Y-130967000D01*
X126619000Y-132588000D02*
X136428000Y-132588000D01*
X125095000Y-131064000D02*
X126619000Y-132588000D01*
X121793000Y-126619000D02*
X125095000Y-129921000D01*
X125095000Y-129921000D02*
X125095000Y-131064000D01*
G04 #@! TO.N,Net-(J1-Pad4)*
X121793000Y-131699000D02*
X123063000Y-131699000D01*
X123063000Y-131699000D02*
X125222000Y-133858000D01*
X125222000Y-133858000D02*
X125222000Y-134874000D01*
X125222000Y-134874000D02*
X126746000Y-136398000D01*
X136480000Y-136398000D02*
X138049000Y-137967000D01*
X126746000Y-136398000D02*
X136480000Y-136398000D01*
G04 #@! TO.N,Net-(J1-Pad1)*
X121793000Y-139319000D02*
X121920000Y-139319000D01*
X121920000Y-139319000D02*
X124460000Y-141859000D01*
X124460000Y-141859000D02*
X124460000Y-144653000D01*
X124460000Y-144653000D02*
X126492000Y-146685000D01*
X136267000Y-146685000D02*
X138049000Y-148467000D01*
X126492000Y-146685000D02*
X136267000Y-146685000D01*
G04 #@! TO.N,Net-(J2-Pad2)*
X142632000Y-128916000D02*
X145161000Y-131445000D01*
X142632000Y-118789000D02*
X142632000Y-128916000D01*
G04 #@! TO.N,Net-(J3-Pad1)*
X121793000Y-113919000D02*
X124206000Y-113919000D01*
X124206000Y-113919000D02*
X125476000Y-115189000D01*
X136275000Y-115189000D02*
X138049000Y-113415000D01*
X125476000Y-115189000D02*
X136275000Y-115189000D01*
G04 #@! TO.N,Net-(J3-Pad2)*
X121793000Y-111379000D02*
X126365000Y-111379000D01*
X126365000Y-111379000D02*
X126619000Y-111633000D01*
X136331000Y-111633000D02*
X138049000Y-109915000D01*
X126619000Y-111633000D02*
X136331000Y-111633000D01*
G04 #@! TO.N,Net-(J3-Pad4)*
X121793000Y-106299000D02*
X124587000Y-106299000D01*
X124587000Y-106299000D02*
X126238000Y-104648000D01*
X136316000Y-104648000D02*
X138049000Y-102915000D01*
X126238000Y-104648000D02*
X136316000Y-104648000D01*
G04 #@! TO.N,Net-(J3-Pad5)*
X121793000Y-103759000D02*
X123444000Y-103759000D01*
X123444000Y-103759000D02*
X126111000Y-101092000D01*
X136372000Y-101092000D02*
X138049000Y-99415000D01*
X126111000Y-101092000D02*
X136372000Y-101092000D01*
G04 #@! TO.N,Net-(J3-Pad6)*
X121793000Y-101219000D02*
X122555000Y-101219000D01*
X122555000Y-101219000D02*
X126111000Y-97663000D01*
X136301000Y-97663000D02*
X138049000Y-95915000D01*
X126111000Y-97663000D02*
X136301000Y-97663000D01*
G04 #@! TO.N,Net-(J3-Pad7)*
X136357000Y-94107000D02*
X138049000Y-92415000D01*
X121793000Y-98679000D02*
X126365000Y-94107000D01*
X126365000Y-94107000D02*
X136357000Y-94107000D01*
G04 #@! TO.N,Net-(J3-Pad9)*
X121793000Y-93599000D02*
X122301000Y-93599000D01*
X122301000Y-93599000D02*
X124841000Y-91059000D01*
X124841000Y-91059000D02*
X124841000Y-88900000D01*
X124841000Y-88900000D02*
X126492000Y-87249000D01*
X136215000Y-87249000D02*
X138049000Y-85415000D01*
X126492000Y-87249000D02*
X136215000Y-87249000D01*
G04 #@! TO.N,+3V3*
X141882000Y-111489000D02*
X141982000Y-111589000D01*
X141882000Y-104521000D02*
X141882000Y-111489000D01*
G04 #@! TO.N,SDA*
X121793000Y-136779000D02*
X122174000Y-136779000D01*
X122174000Y-136779000D02*
X125222000Y-139827000D01*
X125222000Y-139827000D02*
X125222000Y-141986000D01*
X125222000Y-141986000D02*
X126492000Y-143256000D01*
X136338000Y-143256000D02*
X138049000Y-144967000D01*
X126492000Y-143256000D02*
X136338000Y-143256000D01*
X146532000Y-118789000D02*
X146532000Y-122021000D01*
X146532000Y-122021000D02*
X152019000Y-127508000D01*
X152019000Y-127508000D02*
X154051000Y-127508000D01*
X154051000Y-127508000D02*
X154940000Y-128397000D01*
X142494000Y-138049000D02*
X154305000Y-138049000D01*
X154940000Y-137414000D02*
X154940000Y-128397000D01*
X154305000Y-138049000D02*
X154940000Y-137414000D01*
G04 #@! TO.N,SCL*
X121793000Y-134239000D02*
X122809000Y-134239000D01*
X122809000Y-134239000D02*
X125222000Y-136652000D01*
X125222000Y-136652000D02*
X125222000Y-138430000D01*
X125222000Y-138430000D02*
X126619000Y-139827000D01*
X136409000Y-139827000D02*
X138049000Y-141467000D01*
X126619000Y-139827000D02*
X136409000Y-139827000D01*
X152019000Y-123825000D02*
X147832000Y-119638000D01*
X155448000Y-125095000D02*
X154178000Y-123825000D01*
X147832000Y-119638000D02*
X147832000Y-118789000D01*
X155448000Y-140843000D02*
X155448000Y-125095000D01*
X138949000Y-141467000D02*
X139573000Y-140843000D01*
X138049000Y-141467000D02*
X138949000Y-141467000D01*
X139573000Y-140843000D02*
X150622000Y-140843000D01*
X150622000Y-140843000D02*
X151130000Y-141351000D01*
X151130000Y-141351000D02*
X154940000Y-141351000D01*
X154178000Y-123825000D02*
X152019000Y-123825000D01*
X154940000Y-141351000D02*
X155448000Y-140843000D01*
G04 #@! TO.N,ISCP_DAT*
X127762000Y-85411000D02*
X134807000Y-85411000D01*
X134807000Y-85411000D02*
X136525000Y-83693000D01*
X136525000Y-83693000D02*
X139192000Y-83693000D01*
X139192000Y-83693000D02*
X140081000Y-84582000D01*
X140081000Y-128905000D02*
X145161000Y-133985000D01*
X140081000Y-84582000D02*
X140081000Y-128905000D01*
G04 #@! TO.N,MCLR*
X121793000Y-96139000D02*
X121793000Y-95631000D01*
X121793000Y-95631000D02*
X126746000Y-90678000D01*
X136286000Y-90678000D02*
X138049000Y-88915000D01*
X126746000Y-90678000D02*
X136286000Y-90678000D01*
X143932000Y-109157000D02*
X143868000Y-109093000D01*
X143932000Y-111589000D02*
X143932000Y-109157000D01*
X143868000Y-109093000D02*
X143891000Y-109093000D01*
X143891000Y-109093000D02*
X145161000Y-107823000D01*
X145161000Y-107823000D02*
X145161000Y-89916000D01*
G04 #@! TO.N,ISCP_CLK*
X127762000Y-81911000D02*
X133989000Y-81911000D01*
X133989000Y-81911000D02*
X135636000Y-80264000D01*
X135636000Y-80264000D02*
X139700000Y-80264000D01*
X139700000Y-80264000D02*
X140589000Y-81153000D01*
X140589000Y-81153000D02*
X140589000Y-114300000D01*
X143282000Y-116993000D02*
X143282000Y-118789000D01*
X140589000Y-114300000D02*
X143282000Y-116993000D01*
G04 #@! TO.N,/PIC16LF1509/RA2*
X143932000Y-127086000D02*
X153035000Y-136189000D01*
X143932000Y-118789000D02*
X143932000Y-127086000D01*
G04 #@! TO.N,/PIC16LF1509/RA4*
X143282000Y-111589000D02*
X143282000Y-114909000D01*
X143282000Y-114909000D02*
X143256000Y-114935000D01*
G04 #@! TO.N,/PIC16LF1509/RA5*
X142632000Y-111589000D02*
X142632000Y-114289000D01*
X142632000Y-114289000D02*
X142367000Y-114554000D01*
X142367000Y-114554000D02*
X142367000Y-115316000D01*
X142367000Y-115316000D02*
X143129000Y-116078000D01*
X143129000Y-116078000D02*
X144018000Y-116078000D01*
G04 #@! TO.N,/PIC16LF1509/RB5*
X147182000Y-119836000D02*
X153035000Y-125689000D01*
X147182000Y-118789000D02*
X147182000Y-119836000D01*
G04 #@! TO.N,/PIC16LF1509/RB7*
X147832000Y-111589000D02*
X148761000Y-111589000D01*
X148761000Y-111589000D02*
X149098000Y-111252000D01*
G04 #@! TO.N,/PIC16LF1509/RC0*
X149662000Y-115316000D02*
X153035000Y-118689000D01*
X146812000Y-115316000D02*
X149662000Y-115316000D01*
X144582000Y-118789000D02*
X144582000Y-117546000D01*
X144582000Y-117546000D02*
X146812000Y-115316000D01*
G04 #@! TO.N,/PIC16LF1509/RC1*
X145232000Y-118789000D02*
X145232000Y-117785000D01*
X145232000Y-117785000D02*
X146812000Y-116205000D01*
X146812000Y-116205000D02*
X147320000Y-116205000D01*
G04 #@! TO.N,/PIC16LF1509/RC2*
X145882000Y-118789000D02*
X145882000Y-117771410D01*
X145882000Y-117771410D02*
X146559410Y-117094000D01*
X146559410Y-117094000D02*
X147955000Y-117094000D01*
G04 #@! TO.N,/PIC16LF1509/RC3*
X145882000Y-111589000D02*
X145882000Y-109515000D01*
X147208000Y-108189000D02*
X153035000Y-108189000D01*
X145882000Y-109515000D02*
X147208000Y-108189000D01*
G04 #@! TO.N,/PIC16LF1509/RC4*
X149946000Y-104689000D02*
X153035000Y-104689000D01*
X145232000Y-111589000D02*
X145232000Y-109403000D01*
X145232000Y-109403000D02*
X149946000Y-104689000D01*
G04 #@! TO.N,/PIC16LF1509/RC5*
X152557000Y-101189000D02*
X153035000Y-101189000D01*
X144582000Y-111589000D02*
X144582000Y-109164000D01*
X144582000Y-109164000D02*
X152557000Y-101189000D01*
G04 #@! TO.N,/PIC16LF1509/RC6*
X153035000Y-97689000D02*
X153950000Y-97689000D01*
X153950000Y-97689000D02*
X155575000Y-99314000D01*
X155575000Y-99314000D02*
X155575000Y-109093000D01*
X155575000Y-109093000D02*
X154686000Y-109982000D01*
X154686000Y-109982000D02*
X147066000Y-109982000D01*
X146532000Y-110516000D02*
X146532000Y-111589000D01*
X147066000Y-109982000D02*
X146532000Y-110516000D01*
G04 #@! TO.N,/PIC16LF1509/RC7*
X147182000Y-111589000D02*
X147182000Y-112765000D01*
X147182000Y-112765000D02*
X147955000Y-113538000D01*
X147955000Y-113538000D02*
X154559000Y-113538000D01*
X154559000Y-113538000D02*
X156210000Y-111887000D01*
X156210000Y-97364000D02*
X153035000Y-94189000D01*
X156210000Y-111887000D02*
X156210000Y-97364000D01*
G04 #@! TO.N,Net-(J1-Pad9)*
X121793000Y-118999000D02*
X123063000Y-118999000D01*
X123063000Y-118999000D02*
X126365000Y-122301000D01*
X136215000Y-122301000D02*
X138049000Y-120467000D01*
X126365000Y-122301000D02*
X136215000Y-122301000D01*
G04 #@! TO.N,Net-(J1-Pad8)*
X121793000Y-121539000D02*
X122174000Y-121539000D01*
X122174000Y-121539000D02*
X126365000Y-125730000D01*
X136286000Y-125730000D02*
X138049000Y-123967000D01*
X126365000Y-125730000D02*
X136286000Y-125730000D01*
G04 #@! TD*
D21*
G04 #@! TO.N,GND*
G36*
X127955748Y-141452858D02*
X127941605Y-141467000D01*
X127955748Y-141481143D01*
X127776143Y-141660748D01*
X127762000Y-141646605D01*
X127747858Y-141660748D01*
X127568253Y-141481143D01*
X127582395Y-141467000D01*
X127568253Y-141452858D01*
X127747858Y-141273253D01*
X127762000Y-141287395D01*
X127776143Y-141273253D01*
X127955748Y-141452858D01*
X127955748Y-141452858D01*
G37*
X127955748Y-141452858D02*
X127941605Y-141467000D01*
X127955748Y-141481143D01*
X127776143Y-141660748D01*
X127762000Y-141646605D01*
X127747858Y-141660748D01*
X127568253Y-141481143D01*
X127582395Y-141467000D01*
X127568253Y-141452858D01*
X127747858Y-141273253D01*
X127762000Y-141287395D01*
X127776143Y-141273253D01*
X127955748Y-141452858D01*
G36*
X146524195Y-88669028D02*
X146681119Y-88903881D01*
X146882694Y-89038569D01*
X146915972Y-89060805D01*
X147193000Y-89115909D01*
X147262925Y-89102000D01*
X152045905Y-89102000D01*
X152040565Y-89104212D01*
X151917430Y-89391825D01*
X153035000Y-90509395D01*
X154152570Y-89391825D01*
X154029435Y-89104212D01*
X154023630Y-89102000D01*
X158421001Y-89102000D01*
X158421000Y-141276000D01*
X156072723Y-141276000D01*
X156143240Y-141170463D01*
X156163904Y-141139537D01*
X156208000Y-140917852D01*
X156208000Y-140917848D01*
X156222888Y-140843001D01*
X156208000Y-140768154D01*
X156208000Y-125169846D01*
X156222888Y-125094999D01*
X156208000Y-125020152D01*
X156208000Y-125020148D01*
X156163904Y-124798463D01*
X155995929Y-124547071D01*
X155932473Y-124504671D01*
X154768331Y-123340530D01*
X154725929Y-123277071D01*
X154604190Y-123195727D01*
X154870000Y-122554004D01*
X154870000Y-121823996D01*
X154590638Y-121149556D01*
X154074444Y-120633362D01*
X153605212Y-120439000D01*
X154074444Y-120244638D01*
X154590638Y-119728444D01*
X154870000Y-119054004D01*
X154870000Y-118323996D01*
X154590638Y-117649556D01*
X154074444Y-117133362D01*
X153605212Y-116939000D01*
X154074444Y-116744638D01*
X154590638Y-116228444D01*
X154870000Y-115554004D01*
X154870000Y-114823996D01*
X154650734Y-114294642D01*
X154855537Y-114253904D01*
X155106929Y-114085929D01*
X155149331Y-114022470D01*
X156694473Y-112477329D01*
X156757929Y-112434929D01*
X156925904Y-112183537D01*
X156970000Y-111961852D01*
X156970000Y-111961848D01*
X156984888Y-111887000D01*
X156970000Y-111812152D01*
X156970000Y-97438846D01*
X156984888Y-97363999D01*
X156970000Y-97289152D01*
X156970000Y-97289148D01*
X156925904Y-97067463D01*
X156757929Y-96816071D01*
X156694473Y-96773671D01*
X154754250Y-94833449D01*
X154870000Y-94554004D01*
X154870000Y-93823996D01*
X154590638Y-93149556D01*
X154074444Y-92633362D01*
X153617895Y-92444253D01*
X154029435Y-92273788D01*
X154152570Y-91986175D01*
X153035000Y-90868605D01*
X151917430Y-91986175D01*
X152040565Y-92273788D01*
X152469284Y-92437138D01*
X151995556Y-92633362D01*
X151479362Y-93149556D01*
X151200000Y-93823996D01*
X151200000Y-94554004D01*
X151479362Y-95228444D01*
X151995556Y-95744638D01*
X152464788Y-95939000D01*
X151995556Y-96133362D01*
X151479362Y-96649556D01*
X151200000Y-97323996D01*
X151200000Y-98054004D01*
X151479362Y-98728444D01*
X151995556Y-99244638D01*
X152464788Y-99439000D01*
X151995556Y-99633362D01*
X151479362Y-100149556D01*
X151200000Y-100823996D01*
X151200000Y-101471198D01*
X145921000Y-106750199D01*
X145921000Y-90619711D01*
X146038431Y-90502280D01*
X146090433Y-90376734D01*
X151190293Y-90376734D01*
X151211214Y-91106443D01*
X151450212Y-91683435D01*
X151737825Y-91806570D01*
X152855395Y-90689000D01*
X153214605Y-90689000D01*
X154332175Y-91806570D01*
X154619788Y-91683435D01*
X154879707Y-91001266D01*
X154858786Y-90271557D01*
X154619788Y-89694565D01*
X154332175Y-89571430D01*
X153214605Y-90689000D01*
X152855395Y-90689000D01*
X151737825Y-89571430D01*
X151450212Y-89694565D01*
X151190293Y-90376734D01*
X146090433Y-90376734D01*
X146196000Y-90121874D01*
X146196000Y-89710126D01*
X146038431Y-89329720D01*
X145859452Y-89150741D01*
X146077062Y-89060604D01*
X146514978Y-88622688D01*
X146524195Y-88669028D01*
X146524195Y-88669028D01*
G37*
X146524195Y-88669028D02*
X146681119Y-88903881D01*
X146882694Y-89038569D01*
X146915972Y-89060805D01*
X147193000Y-89115909D01*
X147262925Y-89102000D01*
X152045905Y-89102000D01*
X152040565Y-89104212D01*
X151917430Y-89391825D01*
X153035000Y-90509395D01*
X154152570Y-89391825D01*
X154029435Y-89104212D01*
X154023630Y-89102000D01*
X158421001Y-89102000D01*
X158421000Y-141276000D01*
X156072723Y-141276000D01*
X156143240Y-141170463D01*
X156163904Y-141139537D01*
X156208000Y-140917852D01*
X156208000Y-140917848D01*
X156222888Y-140843001D01*
X156208000Y-140768154D01*
X156208000Y-125169846D01*
X156222888Y-125094999D01*
X156208000Y-125020152D01*
X156208000Y-125020148D01*
X156163904Y-124798463D01*
X155995929Y-124547071D01*
X155932473Y-124504671D01*
X154768331Y-123340530D01*
X154725929Y-123277071D01*
X154604190Y-123195727D01*
X154870000Y-122554004D01*
X154870000Y-121823996D01*
X154590638Y-121149556D01*
X154074444Y-120633362D01*
X153605212Y-120439000D01*
X154074444Y-120244638D01*
X154590638Y-119728444D01*
X154870000Y-119054004D01*
X154870000Y-118323996D01*
X154590638Y-117649556D01*
X154074444Y-117133362D01*
X153605212Y-116939000D01*
X154074444Y-116744638D01*
X154590638Y-116228444D01*
X154870000Y-115554004D01*
X154870000Y-114823996D01*
X154650734Y-114294642D01*
X154855537Y-114253904D01*
X155106929Y-114085929D01*
X155149331Y-114022470D01*
X156694473Y-112477329D01*
X156757929Y-112434929D01*
X156925904Y-112183537D01*
X156970000Y-111961852D01*
X156970000Y-111961848D01*
X156984888Y-111887000D01*
X156970000Y-111812152D01*
X156970000Y-97438846D01*
X156984888Y-97363999D01*
X156970000Y-97289152D01*
X156970000Y-97289148D01*
X156925904Y-97067463D01*
X156757929Y-96816071D01*
X156694473Y-96773671D01*
X154754250Y-94833449D01*
X154870000Y-94554004D01*
X154870000Y-93823996D01*
X154590638Y-93149556D01*
X154074444Y-92633362D01*
X153617895Y-92444253D01*
X154029435Y-92273788D01*
X154152570Y-91986175D01*
X153035000Y-90868605D01*
X151917430Y-91986175D01*
X152040565Y-92273788D01*
X152469284Y-92437138D01*
X151995556Y-92633362D01*
X151479362Y-93149556D01*
X151200000Y-93823996D01*
X151200000Y-94554004D01*
X151479362Y-95228444D01*
X151995556Y-95744638D01*
X152464788Y-95939000D01*
X151995556Y-96133362D01*
X151479362Y-96649556D01*
X151200000Y-97323996D01*
X151200000Y-98054004D01*
X151479362Y-98728444D01*
X151995556Y-99244638D01*
X152464788Y-99439000D01*
X151995556Y-99633362D01*
X151479362Y-100149556D01*
X151200000Y-100823996D01*
X151200000Y-101471198D01*
X145921000Y-106750199D01*
X145921000Y-90619711D01*
X146038431Y-90502280D01*
X146090433Y-90376734D01*
X151190293Y-90376734D01*
X151211214Y-91106443D01*
X151450212Y-91683435D01*
X151737825Y-91806570D01*
X152855395Y-90689000D01*
X153214605Y-90689000D01*
X154332175Y-91806570D01*
X154619788Y-91683435D01*
X154879707Y-91001266D01*
X154858786Y-90271557D01*
X154619788Y-89694565D01*
X154332175Y-89571430D01*
X153214605Y-90689000D01*
X152855395Y-90689000D01*
X151737825Y-89571430D01*
X151450212Y-89694565D01*
X151190293Y-90376734D01*
X146090433Y-90376734D01*
X146196000Y-90121874D01*
X146196000Y-89710126D01*
X146038431Y-89329720D01*
X145859452Y-89150741D01*
X146077062Y-89060604D01*
X146514978Y-88622688D01*
X146524195Y-88669028D01*
G36*
X139321001Y-128830148D02*
X139306112Y-128905000D01*
X139365097Y-129201537D01*
X139479713Y-129373071D01*
X139533072Y-129452929D01*
X139596528Y-129495329D01*
X143663560Y-133562362D01*
X143663560Y-134835000D01*
X143712843Y-135082765D01*
X143853191Y-135292809D01*
X144063235Y-135433157D01*
X144311000Y-135482440D01*
X146011000Y-135482440D01*
X146258765Y-135433157D01*
X146468809Y-135292809D01*
X146609157Y-135082765D01*
X146658440Y-134835000D01*
X146658440Y-133135000D01*
X146609157Y-132887235D01*
X146468809Y-132677191D01*
X146258765Y-132536843D01*
X146213381Y-132527816D01*
X146231625Y-132515625D01*
X146559839Y-132024418D01*
X146675092Y-131445000D01*
X146559839Y-130865582D01*
X146404904Y-130633705D01*
X151315750Y-135544551D01*
X151200000Y-135823996D01*
X151200000Y-136554004D01*
X151479362Y-137228444D01*
X151539918Y-137289000D01*
X143197711Y-137289000D01*
X143080280Y-137171569D01*
X142699874Y-137014000D01*
X142288126Y-137014000D01*
X141907720Y-137171569D01*
X141616569Y-137462720D01*
X141459000Y-137843126D01*
X141459000Y-138254874D01*
X141616569Y-138635280D01*
X141907720Y-138926431D01*
X142288126Y-139084000D01*
X142699874Y-139084000D01*
X143080280Y-138926431D01*
X143197711Y-138809000D01*
X151200000Y-138809000D01*
X151200000Y-139403250D01*
X151358750Y-139562000D01*
X152908000Y-139562000D01*
X152908000Y-139542000D01*
X153162000Y-139542000D01*
X153162000Y-139562000D01*
X153182000Y-139562000D01*
X153182000Y-139816000D01*
X153162000Y-139816000D01*
X153162000Y-139836000D01*
X152908000Y-139836000D01*
X152908000Y-139816000D01*
X151358750Y-139816000D01*
X151200000Y-139974750D01*
X151200000Y-140340075D01*
X151169929Y-140295071D01*
X150918537Y-140127096D01*
X150696852Y-140083000D01*
X150696847Y-140083000D01*
X150622000Y-140068112D01*
X150547153Y-140083000D01*
X139647846Y-140083000D01*
X139572999Y-140068112D01*
X139498152Y-140083000D01*
X139498148Y-140083000D01*
X139299580Y-140122498D01*
X139088444Y-139911362D01*
X138619212Y-139717000D01*
X139088444Y-139522638D01*
X139604638Y-139006444D01*
X139884000Y-138332004D01*
X139884000Y-137601996D01*
X139604638Y-136927556D01*
X139088444Y-136411362D01*
X138631895Y-136222253D01*
X139043435Y-136051788D01*
X139166570Y-135764175D01*
X138049000Y-134646605D01*
X138034858Y-134660748D01*
X137855253Y-134481143D01*
X137869395Y-134467000D01*
X138228605Y-134467000D01*
X139346175Y-135584570D01*
X139633788Y-135461435D01*
X139893707Y-134779266D01*
X139872786Y-134049557D01*
X139633788Y-133472565D01*
X139346175Y-133349430D01*
X138228605Y-134467000D01*
X137869395Y-134467000D01*
X137855253Y-134452858D01*
X138034858Y-134273253D01*
X138049000Y-134287395D01*
X139166570Y-133169825D01*
X139043435Y-132882212D01*
X138614716Y-132718862D01*
X139088444Y-132522638D01*
X139604638Y-132006444D01*
X139884000Y-131332004D01*
X139884000Y-130601996D01*
X139604638Y-129927556D01*
X139088444Y-129411362D01*
X138619212Y-129217000D01*
X139088444Y-129022638D01*
X139321001Y-128790081D01*
X139321001Y-128830148D01*
X139321001Y-128830148D01*
G37*
X139321001Y-128830148D02*
X139306112Y-128905000D01*
X139365097Y-129201537D01*
X139479713Y-129373071D01*
X139533072Y-129452929D01*
X139596528Y-129495329D01*
X143663560Y-133562362D01*
X143663560Y-134835000D01*
X143712843Y-135082765D01*
X143853191Y-135292809D01*
X144063235Y-135433157D01*
X144311000Y-135482440D01*
X146011000Y-135482440D01*
X146258765Y-135433157D01*
X146468809Y-135292809D01*
X146609157Y-135082765D01*
X146658440Y-134835000D01*
X146658440Y-133135000D01*
X146609157Y-132887235D01*
X146468809Y-132677191D01*
X146258765Y-132536843D01*
X146213381Y-132527816D01*
X146231625Y-132515625D01*
X146559839Y-132024418D01*
X146675092Y-131445000D01*
X146559839Y-130865582D01*
X146404904Y-130633705D01*
X151315750Y-135544551D01*
X151200000Y-135823996D01*
X151200000Y-136554004D01*
X151479362Y-137228444D01*
X151539918Y-137289000D01*
X143197711Y-137289000D01*
X143080280Y-137171569D01*
X142699874Y-137014000D01*
X142288126Y-137014000D01*
X141907720Y-137171569D01*
X141616569Y-137462720D01*
X141459000Y-137843126D01*
X141459000Y-138254874D01*
X141616569Y-138635280D01*
X141907720Y-138926431D01*
X142288126Y-139084000D01*
X142699874Y-139084000D01*
X143080280Y-138926431D01*
X143197711Y-138809000D01*
X151200000Y-138809000D01*
X151200000Y-139403250D01*
X151358750Y-139562000D01*
X152908000Y-139562000D01*
X152908000Y-139542000D01*
X153162000Y-139542000D01*
X153162000Y-139562000D01*
X153182000Y-139562000D01*
X153182000Y-139816000D01*
X153162000Y-139816000D01*
X153162000Y-139836000D01*
X152908000Y-139836000D01*
X152908000Y-139816000D01*
X151358750Y-139816000D01*
X151200000Y-139974750D01*
X151200000Y-140340075D01*
X151169929Y-140295071D01*
X150918537Y-140127096D01*
X150696852Y-140083000D01*
X150696847Y-140083000D01*
X150622000Y-140068112D01*
X150547153Y-140083000D01*
X139647846Y-140083000D01*
X139572999Y-140068112D01*
X139498152Y-140083000D01*
X139498148Y-140083000D01*
X139299580Y-140122498D01*
X139088444Y-139911362D01*
X138619212Y-139717000D01*
X139088444Y-139522638D01*
X139604638Y-139006444D01*
X139884000Y-138332004D01*
X139884000Y-137601996D01*
X139604638Y-136927556D01*
X139088444Y-136411362D01*
X138631895Y-136222253D01*
X139043435Y-136051788D01*
X139166570Y-135764175D01*
X138049000Y-134646605D01*
X138034858Y-134660748D01*
X137855253Y-134481143D01*
X137869395Y-134467000D01*
X138228605Y-134467000D01*
X139346175Y-135584570D01*
X139633788Y-135461435D01*
X139893707Y-134779266D01*
X139872786Y-134049557D01*
X139633788Y-133472565D01*
X139346175Y-133349430D01*
X138228605Y-134467000D01*
X137869395Y-134467000D01*
X137855253Y-134452858D01*
X138034858Y-134273253D01*
X138049000Y-134287395D01*
X139166570Y-133169825D01*
X139043435Y-132882212D01*
X138614716Y-132718862D01*
X139088444Y-132522638D01*
X139604638Y-132006444D01*
X139884000Y-131332004D01*
X139884000Y-130601996D01*
X139604638Y-129927556D01*
X139088444Y-129411362D01*
X138619212Y-129217000D01*
X139088444Y-129022638D01*
X139321001Y-128790081D01*
X139321001Y-128830148D01*
G36*
X120608680Y-132490337D02*
X121001663Y-132883320D01*
X121208513Y-132969000D01*
X121001663Y-133054680D01*
X120608680Y-133447663D01*
X120529572Y-133638647D01*
X120475397Y-133507857D01*
X120233213Y-133438392D01*
X119432605Y-134239000D01*
X120233213Y-135039608D01*
X120475397Y-134970143D01*
X120525535Y-134829607D01*
X120608680Y-135030337D01*
X121001663Y-135423320D01*
X121208513Y-135509000D01*
X121001663Y-135594680D01*
X120608680Y-135987663D01*
X120523000Y-136194513D01*
X120437320Y-135987663D01*
X120044337Y-135594680D01*
X119853353Y-135515572D01*
X119984143Y-135461397D01*
X120053608Y-135219213D01*
X119253000Y-134418605D01*
X118452392Y-135219213D01*
X118521857Y-135461397D01*
X118662393Y-135511535D01*
X118461663Y-135594680D01*
X118083000Y-135973343D01*
X118083000Y-134985172D01*
X118272787Y-135039608D01*
X119073395Y-134239000D01*
X118272787Y-133438392D01*
X118083000Y-133492828D01*
X118083000Y-132504657D01*
X118461663Y-132883320D01*
X118652647Y-132962428D01*
X118521857Y-133016603D01*
X118452392Y-133258787D01*
X119253000Y-134059395D01*
X120053608Y-133258787D01*
X119984143Y-133016603D01*
X119843607Y-132966465D01*
X120044337Y-132883320D01*
X120437320Y-132490337D01*
X120523000Y-132283487D01*
X120608680Y-132490337D01*
X120608680Y-132490337D01*
G37*
X120608680Y-132490337D02*
X121001663Y-132883320D01*
X121208513Y-132969000D01*
X121001663Y-133054680D01*
X120608680Y-133447663D01*
X120529572Y-133638647D01*
X120475397Y-133507857D01*
X120233213Y-133438392D01*
X119432605Y-134239000D01*
X120233213Y-135039608D01*
X120475397Y-134970143D01*
X120525535Y-134829607D01*
X120608680Y-135030337D01*
X121001663Y-135423320D01*
X121208513Y-135509000D01*
X121001663Y-135594680D01*
X120608680Y-135987663D01*
X120523000Y-136194513D01*
X120437320Y-135987663D01*
X120044337Y-135594680D01*
X119853353Y-135515572D01*
X119984143Y-135461397D01*
X120053608Y-135219213D01*
X119253000Y-134418605D01*
X118452392Y-135219213D01*
X118521857Y-135461397D01*
X118662393Y-135511535D01*
X118461663Y-135594680D01*
X118083000Y-135973343D01*
X118083000Y-134985172D01*
X118272787Y-135039608D01*
X119073395Y-134239000D01*
X118272787Y-133438392D01*
X118083000Y-133492828D01*
X118083000Y-132504657D01*
X118461663Y-132883320D01*
X118652647Y-132962428D01*
X118521857Y-133016603D01*
X118452392Y-133258787D01*
X119253000Y-134059395D01*
X120053608Y-133258787D01*
X119984143Y-133016603D01*
X119843607Y-132966465D01*
X120044337Y-132883320D01*
X120437320Y-132490337D01*
X120523000Y-132283487D01*
X120608680Y-132490337D01*
G36*
X120608680Y-127410337D02*
X121001663Y-127803320D01*
X121192647Y-127882428D01*
X121061857Y-127936603D01*
X120992392Y-128178787D01*
X121793000Y-128979395D01*
X121807143Y-128965253D01*
X121986748Y-129144858D01*
X121972605Y-129159000D01*
X122773213Y-129959608D01*
X123015397Y-129890143D01*
X123202144Y-129366698D01*
X123188247Y-129089049D01*
X124335000Y-130235802D01*
X124335001Y-130989149D01*
X124320112Y-131064000D01*
X124379097Y-131360537D01*
X124439859Y-131451473D01*
X124547072Y-131611929D01*
X124610528Y-131654329D01*
X126028673Y-133072476D01*
X126071071Y-133135929D01*
X126134524Y-133178327D01*
X126134526Y-133178329D01*
X126254941Y-133258787D01*
X126322463Y-133303904D01*
X126328761Y-133305157D01*
X126206362Y-133427556D01*
X125982000Y-133969214D01*
X125982000Y-133932846D01*
X125996888Y-133857999D01*
X125982000Y-133783152D01*
X125982000Y-133783148D01*
X125937904Y-133561463D01*
X125769929Y-133310071D01*
X125706473Y-133267671D01*
X123653331Y-131214530D01*
X123610929Y-131151071D01*
X123359537Y-130983096D01*
X123137852Y-130939000D01*
X123137847Y-130939000D01*
X123063000Y-130924112D01*
X122990137Y-130938605D01*
X122977320Y-130907663D01*
X122584337Y-130514680D01*
X122393353Y-130435572D01*
X122524143Y-130381397D01*
X122593608Y-130139213D01*
X121793000Y-129338605D01*
X120992392Y-130139213D01*
X121061857Y-130381397D01*
X121202393Y-130431535D01*
X121001663Y-130514680D01*
X120608680Y-130907663D01*
X120523000Y-131114513D01*
X120437320Y-130907663D01*
X120044337Y-130514680D01*
X119837487Y-130429000D01*
X120044337Y-130343320D01*
X120437320Y-129950337D01*
X120516428Y-129759353D01*
X120570603Y-129890143D01*
X120812787Y-129959608D01*
X121613395Y-129159000D01*
X120812787Y-128358392D01*
X120570603Y-128427857D01*
X120520465Y-128568393D01*
X120437320Y-128367663D01*
X120044337Y-127974680D01*
X119837487Y-127889000D01*
X120044337Y-127803320D01*
X120437320Y-127410337D01*
X120523000Y-127203487D01*
X120608680Y-127410337D01*
X120608680Y-127410337D01*
G37*
X120608680Y-127410337D02*
X121001663Y-127803320D01*
X121192647Y-127882428D01*
X121061857Y-127936603D01*
X120992392Y-128178787D01*
X121793000Y-128979395D01*
X121807143Y-128965253D01*
X121986748Y-129144858D01*
X121972605Y-129159000D01*
X122773213Y-129959608D01*
X123015397Y-129890143D01*
X123202144Y-129366698D01*
X123188247Y-129089049D01*
X124335000Y-130235802D01*
X124335001Y-130989149D01*
X124320112Y-131064000D01*
X124379097Y-131360537D01*
X124439859Y-131451473D01*
X124547072Y-131611929D01*
X124610528Y-131654329D01*
X126028673Y-133072476D01*
X126071071Y-133135929D01*
X126134524Y-133178327D01*
X126134526Y-133178329D01*
X126254941Y-133258787D01*
X126322463Y-133303904D01*
X126328761Y-133305157D01*
X126206362Y-133427556D01*
X125982000Y-133969214D01*
X125982000Y-133932846D01*
X125996888Y-133857999D01*
X125982000Y-133783152D01*
X125982000Y-133783148D01*
X125937904Y-133561463D01*
X125769929Y-133310071D01*
X125706473Y-133267671D01*
X123653331Y-131214530D01*
X123610929Y-131151071D01*
X123359537Y-130983096D01*
X123137852Y-130939000D01*
X123137847Y-130939000D01*
X123063000Y-130924112D01*
X122990137Y-130938605D01*
X122977320Y-130907663D01*
X122584337Y-130514680D01*
X122393353Y-130435572D01*
X122524143Y-130381397D01*
X122593608Y-130139213D01*
X121793000Y-129338605D01*
X120992392Y-130139213D01*
X121061857Y-130381397D01*
X121202393Y-130431535D01*
X121001663Y-130514680D01*
X120608680Y-130907663D01*
X120523000Y-131114513D01*
X120437320Y-130907663D01*
X120044337Y-130514680D01*
X119837487Y-130429000D01*
X120044337Y-130343320D01*
X120437320Y-129950337D01*
X120516428Y-129759353D01*
X120570603Y-129890143D01*
X120812787Y-129959608D01*
X121613395Y-129159000D01*
X120812787Y-128358392D01*
X120570603Y-128427857D01*
X120520465Y-128568393D01*
X120437320Y-128367663D01*
X120044337Y-127974680D01*
X119837487Y-127889000D01*
X120044337Y-127803320D01*
X120437320Y-127410337D01*
X120523000Y-127203487D01*
X120608680Y-127410337D01*
G36*
X142480758Y-117266560D02*
X142407000Y-117266560D01*
X142336927Y-117280498D01*
X142333310Y-117279000D01*
X142253250Y-117279000D01*
X142230603Y-117301647D01*
X142159235Y-117315843D01*
X141949191Y-117456191D01*
X141869500Y-117575456D01*
X141869500Y-117437750D01*
X141710750Y-117279000D01*
X141630690Y-117279000D01*
X141397301Y-117375673D01*
X141218673Y-117554302D01*
X141122000Y-117787691D01*
X141122000Y-118503250D01*
X141280750Y-118662000D01*
X141759560Y-118662000D01*
X141759560Y-118916000D01*
X141280750Y-118916000D01*
X141122000Y-119074750D01*
X141122000Y-119790309D01*
X141218673Y-120023698D01*
X141397301Y-120202327D01*
X141630690Y-120299000D01*
X141710750Y-120299000D01*
X141854998Y-120154752D01*
X141854998Y-120299000D01*
X141872000Y-120299000D01*
X141872001Y-128841148D01*
X141857112Y-128916000D01*
X141916097Y-129212537D01*
X142023363Y-129373071D01*
X142084072Y-129463929D01*
X142147528Y-129506329D01*
X143719791Y-131078592D01*
X143655020Y-131404218D01*
X140841000Y-128590199D01*
X140841000Y-115626801D01*
X142480758Y-117266560D01*
X142480758Y-117266560D01*
G37*
X142480758Y-117266560D02*
X142407000Y-117266560D01*
X142336927Y-117280498D01*
X142333310Y-117279000D01*
X142253250Y-117279000D01*
X142230603Y-117301647D01*
X142159235Y-117315843D01*
X141949191Y-117456191D01*
X141869500Y-117575456D01*
X141869500Y-117437750D01*
X141710750Y-117279000D01*
X141630690Y-117279000D01*
X141397301Y-117375673D01*
X141218673Y-117554302D01*
X141122000Y-117787691D01*
X141122000Y-118503250D01*
X141280750Y-118662000D01*
X141759560Y-118662000D01*
X141759560Y-118916000D01*
X141280750Y-118916000D01*
X141122000Y-119074750D01*
X141122000Y-119790309D01*
X141218673Y-120023698D01*
X141397301Y-120202327D01*
X141630690Y-120299000D01*
X141710750Y-120299000D01*
X141854998Y-120154752D01*
X141854998Y-120299000D01*
X141872000Y-120299000D01*
X141872001Y-128841148D01*
X141857112Y-128916000D01*
X141916097Y-129212537D01*
X142023363Y-129373071D01*
X142084072Y-129463929D01*
X142147528Y-129506329D01*
X143719791Y-131078592D01*
X143655020Y-131404218D01*
X140841000Y-128590199D01*
X140841000Y-115626801D01*
X142480758Y-117266560D01*
G36*
X127955748Y-127452858D02*
X127941605Y-127467000D01*
X127955748Y-127481143D01*
X127776143Y-127660748D01*
X127762000Y-127646605D01*
X127747858Y-127660748D01*
X127568253Y-127481143D01*
X127582395Y-127467000D01*
X127568253Y-127452858D01*
X127747858Y-127273253D01*
X127762000Y-127287395D01*
X127776143Y-127273253D01*
X127955748Y-127452858D01*
X127955748Y-127452858D01*
G37*
X127955748Y-127452858D02*
X127941605Y-127467000D01*
X127955748Y-127481143D01*
X127776143Y-127660748D01*
X127762000Y-127646605D01*
X127747858Y-127660748D01*
X127568253Y-127481143D01*
X127582395Y-127467000D01*
X127568253Y-127452858D01*
X127747858Y-127273253D01*
X127762000Y-127287395D01*
X127776143Y-127273253D01*
X127955748Y-127452858D01*
G36*
X120608680Y-122330337D02*
X121001663Y-122723320D01*
X121208513Y-122809000D01*
X121001663Y-122894680D01*
X120608680Y-123287663D01*
X120529572Y-123478647D01*
X120475397Y-123347857D01*
X120233213Y-123278392D01*
X119432605Y-124079000D01*
X120233213Y-124879608D01*
X120475397Y-124810143D01*
X120525535Y-124669607D01*
X120608680Y-124870337D01*
X121001663Y-125263320D01*
X121208513Y-125349000D01*
X121001663Y-125434680D01*
X120608680Y-125827663D01*
X120523000Y-126034513D01*
X120437320Y-125827663D01*
X120044337Y-125434680D01*
X119853353Y-125355572D01*
X119984143Y-125301397D01*
X120053608Y-125059213D01*
X119253000Y-124258605D01*
X118452392Y-125059213D01*
X118521857Y-125301397D01*
X118662393Y-125351535D01*
X118461663Y-125434680D01*
X118083000Y-125813343D01*
X118083000Y-124825172D01*
X118272787Y-124879608D01*
X119073395Y-124079000D01*
X118272787Y-123278392D01*
X118083000Y-123332828D01*
X118083000Y-122344657D01*
X118461663Y-122723320D01*
X118652647Y-122802428D01*
X118521857Y-122856603D01*
X118452392Y-123098787D01*
X119253000Y-123899395D01*
X120053608Y-123098787D01*
X119984143Y-122856603D01*
X119843607Y-122806465D01*
X120044337Y-122723320D01*
X120437320Y-122330337D01*
X120523000Y-122123487D01*
X120608680Y-122330337D01*
X120608680Y-122330337D01*
G37*
X120608680Y-122330337D02*
X121001663Y-122723320D01*
X121208513Y-122809000D01*
X121001663Y-122894680D01*
X120608680Y-123287663D01*
X120529572Y-123478647D01*
X120475397Y-123347857D01*
X120233213Y-123278392D01*
X119432605Y-124079000D01*
X120233213Y-124879608D01*
X120475397Y-124810143D01*
X120525535Y-124669607D01*
X120608680Y-124870337D01*
X121001663Y-125263320D01*
X121208513Y-125349000D01*
X121001663Y-125434680D01*
X120608680Y-125827663D01*
X120523000Y-126034513D01*
X120437320Y-125827663D01*
X120044337Y-125434680D01*
X119853353Y-125355572D01*
X119984143Y-125301397D01*
X120053608Y-125059213D01*
X119253000Y-124258605D01*
X118452392Y-125059213D01*
X118521857Y-125301397D01*
X118662393Y-125351535D01*
X118461663Y-125434680D01*
X118083000Y-125813343D01*
X118083000Y-124825172D01*
X118272787Y-124879608D01*
X119073395Y-124079000D01*
X118272787Y-123278392D01*
X118083000Y-123332828D01*
X118083000Y-122344657D01*
X118461663Y-122723320D01*
X118652647Y-122802428D01*
X118521857Y-122856603D01*
X118452392Y-123098787D01*
X119253000Y-123899395D01*
X120053608Y-123098787D01*
X119984143Y-122856603D01*
X119843607Y-122806465D01*
X120044337Y-122723320D01*
X120437320Y-122330337D01*
X120523000Y-122123487D01*
X120608680Y-122330337D01*
G36*
X120608680Y-114710337D02*
X121001663Y-115103320D01*
X121208513Y-115189000D01*
X121001663Y-115274680D01*
X120608680Y-115667663D01*
X120529572Y-115858647D01*
X120475397Y-115727857D01*
X120233213Y-115658392D01*
X119432605Y-116459000D01*
X120233213Y-117259608D01*
X120475397Y-117190143D01*
X120525535Y-117049607D01*
X120608680Y-117250337D01*
X121001663Y-117643320D01*
X121208513Y-117729000D01*
X121001663Y-117814680D01*
X120608680Y-118207663D01*
X120523000Y-118414513D01*
X120437320Y-118207663D01*
X120044337Y-117814680D01*
X119853353Y-117735572D01*
X119984143Y-117681397D01*
X120053608Y-117439213D01*
X119253000Y-116638605D01*
X118452392Y-117439213D01*
X118521857Y-117681397D01*
X118662393Y-117731535D01*
X118461663Y-117814680D01*
X118083000Y-118193343D01*
X118083000Y-117205172D01*
X118272787Y-117259608D01*
X119073395Y-116459000D01*
X118272787Y-115658392D01*
X118083000Y-115712828D01*
X118083000Y-114724657D01*
X118461663Y-115103320D01*
X118652647Y-115182428D01*
X118521857Y-115236603D01*
X118452392Y-115478787D01*
X119253000Y-116279395D01*
X120053608Y-115478787D01*
X119984143Y-115236603D01*
X119843607Y-115186465D01*
X120044337Y-115103320D01*
X120437320Y-114710337D01*
X120523000Y-114503487D01*
X120608680Y-114710337D01*
X120608680Y-114710337D01*
G37*
X120608680Y-114710337D02*
X121001663Y-115103320D01*
X121208513Y-115189000D01*
X121001663Y-115274680D01*
X120608680Y-115667663D01*
X120529572Y-115858647D01*
X120475397Y-115727857D01*
X120233213Y-115658392D01*
X119432605Y-116459000D01*
X120233213Y-117259608D01*
X120475397Y-117190143D01*
X120525535Y-117049607D01*
X120608680Y-117250337D01*
X121001663Y-117643320D01*
X121208513Y-117729000D01*
X121001663Y-117814680D01*
X120608680Y-118207663D01*
X120523000Y-118414513D01*
X120437320Y-118207663D01*
X120044337Y-117814680D01*
X119853353Y-117735572D01*
X119984143Y-117681397D01*
X120053608Y-117439213D01*
X119253000Y-116638605D01*
X118452392Y-117439213D01*
X118521857Y-117681397D01*
X118662393Y-117731535D01*
X118461663Y-117814680D01*
X118083000Y-118193343D01*
X118083000Y-117205172D01*
X118272787Y-117259608D01*
X119073395Y-116459000D01*
X118272787Y-115658392D01*
X118083000Y-115712828D01*
X118083000Y-114724657D01*
X118461663Y-115103320D01*
X118652647Y-115182428D01*
X118521857Y-115236603D01*
X118452392Y-115478787D01*
X119253000Y-116279395D01*
X120053608Y-115478787D01*
X119984143Y-115236603D01*
X119843607Y-115186465D01*
X120044337Y-115103320D01*
X120437320Y-114710337D01*
X120523000Y-114503487D01*
X120608680Y-114710337D01*
G36*
X127955748Y-116952858D02*
X127941605Y-116967000D01*
X127955748Y-116981143D01*
X127776143Y-117160748D01*
X127762000Y-117146605D01*
X127747858Y-117160748D01*
X127568253Y-116981143D01*
X127582395Y-116967000D01*
X127568253Y-116952858D01*
X127747858Y-116773253D01*
X127762000Y-116787395D01*
X127776143Y-116773253D01*
X127955748Y-116952858D01*
X127955748Y-116952858D01*
G37*
X127955748Y-116952858D02*
X127941605Y-116967000D01*
X127955748Y-116981143D01*
X127776143Y-117160748D01*
X127762000Y-117146605D01*
X127747858Y-117160748D01*
X127568253Y-116981143D01*
X127582395Y-116967000D01*
X127568253Y-116952858D01*
X127747858Y-116773253D01*
X127762000Y-116787395D01*
X127776143Y-116773253D01*
X127955748Y-116952858D01*
G36*
X136464212Y-105420565D02*
X136204293Y-106102734D01*
X136225214Y-106832443D01*
X136464212Y-107409435D01*
X136751825Y-107532570D01*
X137869395Y-106415000D01*
X137855253Y-106400858D01*
X138034858Y-106221253D01*
X138049000Y-106235395D01*
X138063143Y-106221253D01*
X138242748Y-106400858D01*
X138228605Y-106415000D01*
X138242748Y-106429143D01*
X138063143Y-106608748D01*
X138049000Y-106594605D01*
X136931430Y-107712175D01*
X137054565Y-107999788D01*
X137483284Y-108163138D01*
X137009556Y-108359362D01*
X136493362Y-108875556D01*
X136214000Y-109549996D01*
X136214000Y-110280004D01*
X136329750Y-110559449D01*
X136016199Y-110873000D01*
X129349716Y-110873000D01*
X129597000Y-110276004D01*
X129597000Y-109545996D01*
X129317638Y-108871556D01*
X128801444Y-108355362D01*
X128332212Y-108161000D01*
X128801444Y-107966638D01*
X129317638Y-107450444D01*
X129597000Y-106776004D01*
X129597000Y-106045996D01*
X129332734Y-105408000D01*
X136241153Y-105408000D01*
X136316000Y-105422888D01*
X136390847Y-105408000D01*
X136390852Y-105408000D01*
X136582692Y-105369841D01*
X136464212Y-105420565D01*
X136464212Y-105420565D01*
G37*
X136464212Y-105420565D02*
X136204293Y-106102734D01*
X136225214Y-106832443D01*
X136464212Y-107409435D01*
X136751825Y-107532570D01*
X137869395Y-106415000D01*
X137855253Y-106400858D01*
X138034858Y-106221253D01*
X138049000Y-106235395D01*
X138063143Y-106221253D01*
X138242748Y-106400858D01*
X138228605Y-106415000D01*
X138242748Y-106429143D01*
X138063143Y-106608748D01*
X138049000Y-106594605D01*
X136931430Y-107712175D01*
X137054565Y-107999788D01*
X137483284Y-108163138D01*
X137009556Y-108359362D01*
X136493362Y-108875556D01*
X136214000Y-109549996D01*
X136214000Y-110280004D01*
X136329750Y-110559449D01*
X136016199Y-110873000D01*
X129349716Y-110873000D01*
X129597000Y-110276004D01*
X129597000Y-109545996D01*
X129317638Y-108871556D01*
X128801444Y-108355362D01*
X128332212Y-108161000D01*
X128801444Y-107966638D01*
X129317638Y-107450444D01*
X129597000Y-106776004D01*
X129597000Y-106045996D01*
X129332734Y-105408000D01*
X136241153Y-105408000D01*
X136316000Y-105422888D01*
X136390847Y-105408000D01*
X136390852Y-105408000D01*
X136582692Y-105369841D01*
X136464212Y-105420565D01*
G36*
X125927000Y-106045996D02*
X125927000Y-106776004D01*
X126206362Y-107450444D01*
X126722556Y-107966638D01*
X127191788Y-108161000D01*
X126722556Y-108355362D01*
X126206362Y-108871556D01*
X125927000Y-109545996D01*
X125927000Y-110276004D01*
X126069073Y-110619000D01*
X122990300Y-110619000D01*
X122977320Y-110587663D01*
X122584337Y-110194680D01*
X122393353Y-110115572D01*
X122524143Y-110061397D01*
X122593608Y-109819213D01*
X121793000Y-109018605D01*
X120992392Y-109819213D01*
X121061857Y-110061397D01*
X121202393Y-110111535D01*
X121001663Y-110194680D01*
X120608680Y-110587663D01*
X120523000Y-110794513D01*
X120437320Y-110587663D01*
X120044337Y-110194680D01*
X119837487Y-110109000D01*
X120044337Y-110023320D01*
X120437320Y-109630337D01*
X120516428Y-109439353D01*
X120570603Y-109570143D01*
X120812787Y-109639608D01*
X121613395Y-108839000D01*
X121972605Y-108839000D01*
X122773213Y-109639608D01*
X123015397Y-109570143D01*
X123202144Y-109046698D01*
X123174362Y-108491632D01*
X123015397Y-108107857D01*
X122773213Y-108038392D01*
X121972605Y-108839000D01*
X121613395Y-108839000D01*
X120812787Y-108038392D01*
X120570603Y-108107857D01*
X120520465Y-108248393D01*
X120437320Y-108047663D01*
X120044337Y-107654680D01*
X119837487Y-107569000D01*
X120044337Y-107483320D01*
X120437320Y-107090337D01*
X120523000Y-106883487D01*
X120608680Y-107090337D01*
X121001663Y-107483320D01*
X121192647Y-107562428D01*
X121061857Y-107616603D01*
X120992392Y-107858787D01*
X121793000Y-108659395D01*
X122593608Y-107858787D01*
X122524143Y-107616603D01*
X122383607Y-107566465D01*
X122584337Y-107483320D01*
X122977320Y-107090337D01*
X122990300Y-107059000D01*
X124512153Y-107059000D01*
X124587000Y-107073888D01*
X124661847Y-107059000D01*
X124661852Y-107059000D01*
X124883537Y-107014904D01*
X125134929Y-106846929D01*
X125177331Y-106783470D01*
X125935623Y-106025179D01*
X125927000Y-106045996D01*
X125927000Y-106045996D01*
G37*
X125927000Y-106045996D02*
X125927000Y-106776004D01*
X126206362Y-107450444D01*
X126722556Y-107966638D01*
X127191788Y-108161000D01*
X126722556Y-108355362D01*
X126206362Y-108871556D01*
X125927000Y-109545996D01*
X125927000Y-110276004D01*
X126069073Y-110619000D01*
X122990300Y-110619000D01*
X122977320Y-110587663D01*
X122584337Y-110194680D01*
X122393353Y-110115572D01*
X122524143Y-110061397D01*
X122593608Y-109819213D01*
X121793000Y-109018605D01*
X120992392Y-109819213D01*
X121061857Y-110061397D01*
X121202393Y-110111535D01*
X121001663Y-110194680D01*
X120608680Y-110587663D01*
X120523000Y-110794513D01*
X120437320Y-110587663D01*
X120044337Y-110194680D01*
X119837487Y-110109000D01*
X120044337Y-110023320D01*
X120437320Y-109630337D01*
X120516428Y-109439353D01*
X120570603Y-109570143D01*
X120812787Y-109639608D01*
X121613395Y-108839000D01*
X121972605Y-108839000D01*
X122773213Y-109639608D01*
X123015397Y-109570143D01*
X123202144Y-109046698D01*
X123174362Y-108491632D01*
X123015397Y-108107857D01*
X122773213Y-108038392D01*
X121972605Y-108839000D01*
X121613395Y-108839000D01*
X120812787Y-108038392D01*
X120570603Y-108107857D01*
X120520465Y-108248393D01*
X120437320Y-108047663D01*
X120044337Y-107654680D01*
X119837487Y-107569000D01*
X120044337Y-107483320D01*
X120437320Y-107090337D01*
X120523000Y-106883487D01*
X120608680Y-107090337D01*
X121001663Y-107483320D01*
X121192647Y-107562428D01*
X121061857Y-107616603D01*
X120992392Y-107858787D01*
X121793000Y-108659395D01*
X122593608Y-107858787D01*
X122524143Y-107616603D01*
X122383607Y-107566465D01*
X122584337Y-107483320D01*
X122977320Y-107090337D01*
X122990300Y-107059000D01*
X124512153Y-107059000D01*
X124587000Y-107073888D01*
X124661847Y-107059000D01*
X124661852Y-107059000D01*
X124883537Y-107014904D01*
X125134929Y-106846929D01*
X125177331Y-106783470D01*
X125935623Y-106025179D01*
X125927000Y-106045996D01*
G36*
X141958938Y-89060604D02*
X143294954Y-89614000D01*
X144165817Y-89614000D01*
X144126000Y-89710126D01*
X144126000Y-90121874D01*
X144283569Y-90502280D01*
X144401001Y-90619712D01*
X144401000Y-106796791D01*
X144266309Y-106741000D01*
X144130750Y-106741000D01*
X143972000Y-106899750D01*
X143972000Y-107569000D01*
X143992000Y-107569000D01*
X143992000Y-107823000D01*
X143972000Y-107823000D01*
X143972000Y-107843000D01*
X143817440Y-107843000D01*
X143817440Y-107523500D01*
X143756929Y-107219290D01*
X143718000Y-107161029D01*
X143718000Y-106899750D01*
X143559250Y-106741000D01*
X143423691Y-106741000D01*
X143313825Y-106786508D01*
X143130930Y-106750128D01*
X143127000Y-106746198D01*
X143127000Y-105851801D01*
X143336473Y-105642329D01*
X143399929Y-105599929D01*
X143567904Y-105348537D01*
X143596894Y-105202797D01*
X143733929Y-104997710D01*
X143794440Y-104693500D01*
X143794440Y-104348500D01*
X143733929Y-104044290D01*
X143561607Y-103786393D01*
X143303710Y-103614071D01*
X142999500Y-103553560D01*
X142704500Y-103553560D01*
X142400290Y-103614071D01*
X142367000Y-103636315D01*
X142333710Y-103614071D01*
X142029500Y-103553560D01*
X141734500Y-103553560D01*
X141430290Y-103614071D01*
X141349000Y-103668387D01*
X141349000Y-88450666D01*
X141958938Y-89060604D01*
X141958938Y-89060604D01*
G37*
X141958938Y-89060604D02*
X143294954Y-89614000D01*
X144165817Y-89614000D01*
X144126000Y-89710126D01*
X144126000Y-90121874D01*
X144283569Y-90502280D01*
X144401001Y-90619712D01*
X144401000Y-106796791D01*
X144266309Y-106741000D01*
X144130750Y-106741000D01*
X143972000Y-106899750D01*
X143972000Y-107569000D01*
X143992000Y-107569000D01*
X143992000Y-107823000D01*
X143972000Y-107823000D01*
X143972000Y-107843000D01*
X143817440Y-107843000D01*
X143817440Y-107523500D01*
X143756929Y-107219290D01*
X143718000Y-107161029D01*
X143718000Y-106899750D01*
X143559250Y-106741000D01*
X143423691Y-106741000D01*
X143313825Y-106786508D01*
X143130930Y-106750128D01*
X143127000Y-106746198D01*
X143127000Y-105851801D01*
X143336473Y-105642329D01*
X143399929Y-105599929D01*
X143567904Y-105348537D01*
X143596894Y-105202797D01*
X143733929Y-104997710D01*
X143794440Y-104693500D01*
X143794440Y-104348500D01*
X143733929Y-104044290D01*
X143561607Y-103786393D01*
X143303710Y-103614071D01*
X142999500Y-103553560D01*
X142704500Y-103553560D01*
X142400290Y-103614071D01*
X142367000Y-103636315D01*
X142333710Y-103614071D01*
X142029500Y-103553560D01*
X141734500Y-103553560D01*
X141430290Y-103614071D01*
X141349000Y-103668387D01*
X141349000Y-88450666D01*
X141958938Y-89060604D01*
G36*
X120608680Y-102010337D02*
X121001663Y-102403320D01*
X121208513Y-102489000D01*
X121001663Y-102574680D01*
X120608680Y-102967663D01*
X120529572Y-103158647D01*
X120475397Y-103027857D01*
X120233213Y-102958392D01*
X119432605Y-103759000D01*
X120233213Y-104559608D01*
X120475397Y-104490143D01*
X120525535Y-104349607D01*
X120608680Y-104550337D01*
X121001663Y-104943320D01*
X121208513Y-105029000D01*
X121001663Y-105114680D01*
X120608680Y-105507663D01*
X120523000Y-105714513D01*
X120437320Y-105507663D01*
X120044337Y-105114680D01*
X119853353Y-105035572D01*
X119984143Y-104981397D01*
X120053608Y-104739213D01*
X119253000Y-103938605D01*
X118452392Y-104739213D01*
X118521857Y-104981397D01*
X118662393Y-105031535D01*
X118461663Y-105114680D01*
X118083000Y-105493343D01*
X118083000Y-104505172D01*
X118272787Y-104559608D01*
X119073395Y-103759000D01*
X118272787Y-102958392D01*
X118083000Y-103012828D01*
X118083000Y-102024657D01*
X118461663Y-102403320D01*
X118652647Y-102482428D01*
X118521857Y-102536603D01*
X118452392Y-102778787D01*
X119253000Y-103579395D01*
X120053608Y-102778787D01*
X119984143Y-102536603D01*
X119843607Y-102486465D01*
X120044337Y-102403320D01*
X120437320Y-102010337D01*
X120523000Y-101803487D01*
X120608680Y-102010337D01*
X120608680Y-102010337D01*
G37*
X120608680Y-102010337D02*
X121001663Y-102403320D01*
X121208513Y-102489000D01*
X121001663Y-102574680D01*
X120608680Y-102967663D01*
X120529572Y-103158647D01*
X120475397Y-103027857D01*
X120233213Y-102958392D01*
X119432605Y-103759000D01*
X120233213Y-104559608D01*
X120475397Y-104490143D01*
X120525535Y-104349607D01*
X120608680Y-104550337D01*
X121001663Y-104943320D01*
X121208513Y-105029000D01*
X121001663Y-105114680D01*
X120608680Y-105507663D01*
X120523000Y-105714513D01*
X120437320Y-105507663D01*
X120044337Y-105114680D01*
X119853353Y-105035572D01*
X119984143Y-104981397D01*
X120053608Y-104739213D01*
X119253000Y-103938605D01*
X118452392Y-104739213D01*
X118521857Y-104981397D01*
X118662393Y-105031535D01*
X118461663Y-105114680D01*
X118083000Y-105493343D01*
X118083000Y-104505172D01*
X118272787Y-104559608D01*
X119073395Y-103759000D01*
X118272787Y-102958392D01*
X118083000Y-103012828D01*
X118083000Y-102024657D01*
X118461663Y-102403320D01*
X118652647Y-102482428D01*
X118521857Y-102536603D01*
X118452392Y-102778787D01*
X119253000Y-103579395D01*
X120053608Y-102778787D01*
X119984143Y-102536603D01*
X119843607Y-102486465D01*
X120044337Y-102403320D01*
X120437320Y-102010337D01*
X120523000Y-101803487D01*
X120608680Y-102010337D01*
G36*
X120608680Y-96930337D02*
X121001663Y-97323320D01*
X121208513Y-97409000D01*
X121001663Y-97494680D01*
X120608680Y-97887663D01*
X120529572Y-98078647D01*
X120475397Y-97947857D01*
X120233213Y-97878392D01*
X119432605Y-98679000D01*
X120233213Y-99479608D01*
X120475397Y-99410143D01*
X120525535Y-99269607D01*
X120608680Y-99470337D01*
X121001663Y-99863320D01*
X121208513Y-99949000D01*
X121001663Y-100034680D01*
X120608680Y-100427663D01*
X120523000Y-100634513D01*
X120437320Y-100427663D01*
X120044337Y-100034680D01*
X119853353Y-99955572D01*
X119984143Y-99901397D01*
X120053608Y-99659213D01*
X119253000Y-98858605D01*
X118452392Y-99659213D01*
X118521857Y-99901397D01*
X118662393Y-99951535D01*
X118461663Y-100034680D01*
X118083000Y-100413343D01*
X118083000Y-99425172D01*
X118272787Y-99479608D01*
X119073395Y-98679000D01*
X118272787Y-97878392D01*
X118083000Y-97932828D01*
X118083000Y-96944657D01*
X118461663Y-97323320D01*
X118652647Y-97402428D01*
X118521857Y-97456603D01*
X118452392Y-97698787D01*
X119253000Y-98499395D01*
X120053608Y-97698787D01*
X119984143Y-97456603D01*
X119843607Y-97406465D01*
X120044337Y-97323320D01*
X120437320Y-96930337D01*
X120523000Y-96723487D01*
X120608680Y-96930337D01*
X120608680Y-96930337D01*
G37*
X120608680Y-96930337D02*
X121001663Y-97323320D01*
X121208513Y-97409000D01*
X121001663Y-97494680D01*
X120608680Y-97887663D01*
X120529572Y-98078647D01*
X120475397Y-97947857D01*
X120233213Y-97878392D01*
X119432605Y-98679000D01*
X120233213Y-99479608D01*
X120475397Y-99410143D01*
X120525535Y-99269607D01*
X120608680Y-99470337D01*
X121001663Y-99863320D01*
X121208513Y-99949000D01*
X121001663Y-100034680D01*
X120608680Y-100427663D01*
X120523000Y-100634513D01*
X120437320Y-100427663D01*
X120044337Y-100034680D01*
X119853353Y-99955572D01*
X119984143Y-99901397D01*
X120053608Y-99659213D01*
X119253000Y-98858605D01*
X118452392Y-99659213D01*
X118521857Y-99901397D01*
X118662393Y-99951535D01*
X118461663Y-100034680D01*
X118083000Y-100413343D01*
X118083000Y-99425172D01*
X118272787Y-99479608D01*
X119073395Y-98679000D01*
X118272787Y-97878392D01*
X118083000Y-97932828D01*
X118083000Y-96944657D01*
X118461663Y-97323320D01*
X118652647Y-97402428D01*
X118521857Y-97456603D01*
X118452392Y-97698787D01*
X119253000Y-98499395D01*
X120053608Y-97698787D01*
X119984143Y-97456603D01*
X119843607Y-97406465D01*
X120044337Y-97323320D01*
X120437320Y-96930337D01*
X120523000Y-96723487D01*
X120608680Y-96930337D01*
G36*
X127955748Y-99396858D02*
X127941605Y-99411000D01*
X127955748Y-99425143D01*
X127776143Y-99604748D01*
X127762000Y-99590605D01*
X127747858Y-99604748D01*
X127568253Y-99425143D01*
X127582395Y-99411000D01*
X127568253Y-99396858D01*
X127747858Y-99217253D01*
X127762000Y-99231395D01*
X127776143Y-99217253D01*
X127955748Y-99396858D01*
X127955748Y-99396858D01*
G37*
X127955748Y-99396858D02*
X127941605Y-99411000D01*
X127955748Y-99425143D01*
X127776143Y-99604748D01*
X127762000Y-99590605D01*
X127747858Y-99604748D01*
X127568253Y-99425143D01*
X127582395Y-99411000D01*
X127568253Y-99396858D01*
X127747858Y-99217253D01*
X127762000Y-99231395D01*
X127776143Y-99217253D01*
X127955748Y-99396858D01*
G36*
X126206362Y-80871556D02*
X125927000Y-81545996D01*
X125927000Y-82276004D01*
X126206362Y-82950444D01*
X126722556Y-83466638D01*
X127191788Y-83661000D01*
X126722556Y-83855362D01*
X126206362Y-84371556D01*
X125927000Y-85045996D01*
X125927000Y-85776004D01*
X126206362Y-86450444D01*
X126273493Y-86517575D01*
X126195463Y-86533096D01*
X125944071Y-86701071D01*
X125901671Y-86764527D01*
X124356528Y-88309671D01*
X124293072Y-88352071D01*
X124250672Y-88415527D01*
X124250671Y-88415528D01*
X124125097Y-88603463D01*
X124066112Y-88900000D01*
X124081001Y-88974852D01*
X124081000Y-90744197D01*
X122869403Y-91955795D01*
X122773215Y-91859607D01*
X123015397Y-91790143D01*
X123202144Y-91266698D01*
X123174362Y-90711632D01*
X123015397Y-90327857D01*
X122773213Y-90258392D01*
X121972605Y-91059000D01*
X121986748Y-91073143D01*
X121807143Y-91252748D01*
X121793000Y-91238605D01*
X120992392Y-92039213D01*
X121061857Y-92281397D01*
X121202393Y-92331535D01*
X121001663Y-92414680D01*
X120608680Y-92807663D01*
X120523000Y-93014513D01*
X120437320Y-92807663D01*
X120044337Y-92414680D01*
X119837487Y-92329000D01*
X120044337Y-92243320D01*
X120437320Y-91850337D01*
X120516428Y-91659353D01*
X120570603Y-91790143D01*
X120812787Y-91859608D01*
X121613395Y-91059000D01*
X120812787Y-90258392D01*
X120570603Y-90327857D01*
X120520465Y-90468393D01*
X120437320Y-90267663D01*
X120248444Y-90078787D01*
X120992392Y-90078787D01*
X121793000Y-90879395D01*
X122593608Y-90078787D01*
X122524143Y-89836603D01*
X122000698Y-89649856D01*
X121445632Y-89677638D01*
X121061857Y-89836603D01*
X120992392Y-90078787D01*
X120248444Y-90078787D01*
X120044337Y-89874680D01*
X119530881Y-89662000D01*
X118975119Y-89662000D01*
X118461663Y-89874680D01*
X118083000Y-90253343D01*
X118083000Y-88679666D01*
X118463938Y-89060604D01*
X119799954Y-89614000D01*
X121246046Y-89614000D01*
X122582062Y-89060604D01*
X123604604Y-88038062D01*
X124158000Y-86702046D01*
X124158000Y-85255954D01*
X123604604Y-83919938D01*
X122582062Y-82897396D01*
X121246046Y-82344000D01*
X119799954Y-82344000D01*
X118463938Y-82897396D01*
X118083000Y-83278334D01*
X118083000Y-82731612D01*
X118058000Y-82605929D01*
X118058000Y-80466000D01*
X126611918Y-80466000D01*
X126206362Y-80871556D01*
X126206362Y-80871556D01*
G37*
X126206362Y-80871556D02*
X125927000Y-81545996D01*
X125927000Y-82276004D01*
X126206362Y-82950444D01*
X126722556Y-83466638D01*
X127191788Y-83661000D01*
X126722556Y-83855362D01*
X126206362Y-84371556D01*
X125927000Y-85045996D01*
X125927000Y-85776004D01*
X126206362Y-86450444D01*
X126273493Y-86517575D01*
X126195463Y-86533096D01*
X125944071Y-86701071D01*
X125901671Y-86764527D01*
X124356528Y-88309671D01*
X124293072Y-88352071D01*
X124250672Y-88415527D01*
X124250671Y-88415528D01*
X124125097Y-88603463D01*
X124066112Y-88900000D01*
X124081001Y-88974852D01*
X124081000Y-90744197D01*
X122869403Y-91955795D01*
X122773215Y-91859607D01*
X123015397Y-91790143D01*
X123202144Y-91266698D01*
X123174362Y-90711632D01*
X123015397Y-90327857D01*
X122773213Y-90258392D01*
X121972605Y-91059000D01*
X121986748Y-91073143D01*
X121807143Y-91252748D01*
X121793000Y-91238605D01*
X120992392Y-92039213D01*
X121061857Y-92281397D01*
X121202393Y-92331535D01*
X121001663Y-92414680D01*
X120608680Y-92807663D01*
X120523000Y-93014513D01*
X120437320Y-92807663D01*
X120044337Y-92414680D01*
X119837487Y-92329000D01*
X120044337Y-92243320D01*
X120437320Y-91850337D01*
X120516428Y-91659353D01*
X120570603Y-91790143D01*
X120812787Y-91859608D01*
X121613395Y-91059000D01*
X120812787Y-90258392D01*
X120570603Y-90327857D01*
X120520465Y-90468393D01*
X120437320Y-90267663D01*
X120248444Y-90078787D01*
X120992392Y-90078787D01*
X121793000Y-90879395D01*
X122593608Y-90078787D01*
X122524143Y-89836603D01*
X122000698Y-89649856D01*
X121445632Y-89677638D01*
X121061857Y-89836603D01*
X120992392Y-90078787D01*
X120248444Y-90078787D01*
X120044337Y-89874680D01*
X119530881Y-89662000D01*
X118975119Y-89662000D01*
X118461663Y-89874680D01*
X118083000Y-90253343D01*
X118083000Y-88679666D01*
X118463938Y-89060604D01*
X119799954Y-89614000D01*
X121246046Y-89614000D01*
X122582062Y-89060604D01*
X123604604Y-88038062D01*
X124158000Y-86702046D01*
X124158000Y-85255954D01*
X123604604Y-83919938D01*
X122582062Y-82897396D01*
X121246046Y-82344000D01*
X119799954Y-82344000D01*
X118463938Y-82897396D01*
X118083000Y-83278334D01*
X118083000Y-82731612D01*
X118058000Y-82605929D01*
X118058000Y-80466000D01*
X126611918Y-80466000D01*
X126206362Y-80871556D01*
G36*
X127955748Y-92396858D02*
X127941605Y-92411000D01*
X127955748Y-92425143D01*
X127776143Y-92604748D01*
X127762000Y-92590605D01*
X127747858Y-92604748D01*
X127568253Y-92425143D01*
X127582395Y-92411000D01*
X127568253Y-92396858D01*
X127747858Y-92217253D01*
X127762000Y-92231395D01*
X127776143Y-92217253D01*
X127955748Y-92396858D01*
X127955748Y-92396858D01*
G37*
X127955748Y-92396858D02*
X127941605Y-92411000D01*
X127955748Y-92425143D01*
X127776143Y-92604748D01*
X127762000Y-92590605D01*
X127747858Y-92604748D01*
X127568253Y-92425143D01*
X127582395Y-92411000D01*
X127568253Y-92396858D01*
X127747858Y-92217253D01*
X127762000Y-92231395D01*
X127776143Y-92217253D01*
X127955748Y-92396858D01*
G36*
X138242748Y-81900858D02*
X138228605Y-81915000D01*
X138242748Y-81929143D01*
X138063143Y-82108748D01*
X138049000Y-82094605D01*
X138034858Y-82108748D01*
X137855253Y-81929143D01*
X137869395Y-81915000D01*
X137855253Y-81900858D01*
X138034858Y-81721253D01*
X138049000Y-81735395D01*
X138063143Y-81721253D01*
X138242748Y-81900858D01*
X138242748Y-81900858D01*
G37*
X138242748Y-81900858D02*
X138228605Y-81915000D01*
X138242748Y-81929143D01*
X138063143Y-82108748D01*
X138049000Y-82094605D01*
X138034858Y-82108748D01*
X137855253Y-81929143D01*
X137869395Y-81915000D01*
X137855253Y-81900858D01*
X138034858Y-81721253D01*
X138049000Y-81735395D01*
X138063143Y-81721253D01*
X138242748Y-81900858D01*
G04 #@! TD*
M02*
