G04 #@! TF.GenerationSoftware,KiCad,Pcbnew,(5.0.0)*
G04 #@! TF.CreationDate,2018-10-25T16:10:50+01:00*
G04 #@! TF.ProjectId,Port_Expander,506F72745F457870616E6465722E6B69,rev?*
G04 #@! TF.SameCoordinates,Original*
G04 #@! TF.FileFunction,Legend,Top*
G04 #@! TF.FilePolarity,Positive*
%FSLAX46Y46*%
G04 Gerber Fmt 4.6, Leading zero omitted, Abs format (unit mm)*
G04 Created by KiCad (PCBNEW (5.0.0)) date 10/25/18 16:10:50*
%MOMM*%
%LPD*%
G01*
G04 APERTURE LIST*
%ADD10C,0.120000*%
%ADD11C,0.150000*%
G04 APERTURE END LIST*
D10*
G04 #@! TO.C,J2*
X146491000Y-135315000D02*
X146491000Y-130115000D01*
X146431000Y-135315000D02*
X146491000Y-135315000D01*
X143831000Y-130115000D02*
X146491000Y-130115000D01*
X146431000Y-135315000D02*
X146431000Y-132715000D01*
X146431000Y-132715000D02*
X143831000Y-132715000D01*
X143831000Y-132715000D02*
X143831000Y-130115000D01*
X145161000Y-135315000D02*
X143831000Y-135315000D01*
X143831000Y-135315000D02*
X143831000Y-133985000D01*
D11*
G04 #@! TO.C,U1*
X123063000Y-140589000D02*
X117983000Y-140589000D01*
X123063000Y-89789000D02*
X123063000Y-140589000D01*
X117983000Y-89789000D02*
X123063000Y-89789000D01*
X117983000Y-140589000D02*
X117983000Y-89789000D01*
X147193000Y-147574000D02*
X117348000Y-147574000D01*
X147193000Y-82804000D02*
X147193000Y-147574000D01*
X117348000Y-82804000D02*
X147193000Y-82804000D01*
X117348000Y-147574000D02*
X117348000Y-82804000D01*
D10*
G04 #@! TO.C,J5*
X132562000Y-115461000D02*
X132562000Y-115061000D01*
X131922000Y-115461000D02*
X132562000Y-115461000D01*
X128703000Y-83056000D02*
X128831000Y-83185000D01*
X126487000Y-80841000D02*
X126581000Y-80935000D01*
X128943000Y-82886000D02*
X129036000Y-82980000D01*
X126693000Y-80636000D02*
X126821000Y-80765000D01*
X128703000Y-86556000D02*
X128831000Y-86685000D01*
X126487000Y-84341000D02*
X126581000Y-84435000D01*
X128943000Y-86386000D02*
X129036000Y-86480000D01*
X126693000Y-84136000D02*
X126821000Y-84265000D01*
X128703000Y-90056000D02*
X128831000Y-90185000D01*
X126487000Y-87841000D02*
X126581000Y-87935000D01*
X128943000Y-89886000D02*
X129036000Y-89980000D01*
X126693000Y-87636000D02*
X126821000Y-87765000D01*
X128703000Y-93556000D02*
X128831000Y-93685000D01*
X126487000Y-91341000D02*
X126581000Y-91435000D01*
X128943000Y-93386000D02*
X129036000Y-93480000D01*
X126693000Y-91136000D02*
X126821000Y-91265000D01*
X128703000Y-97056000D02*
X128831000Y-97185000D01*
X126487000Y-94841000D02*
X126581000Y-94935000D01*
X128943000Y-96886000D02*
X129036000Y-96980000D01*
X126693000Y-94636000D02*
X126821000Y-94765000D01*
X128703000Y-100556000D02*
X128831000Y-100685000D01*
X126487000Y-98341000D02*
X126581000Y-98435000D01*
X128943000Y-100386000D02*
X129036000Y-100480000D01*
X126693000Y-98136000D02*
X126821000Y-98265000D01*
X128703000Y-104056000D02*
X128831000Y-104185000D01*
X126487000Y-101841000D02*
X126581000Y-101935000D01*
X128943000Y-103886000D02*
X129036000Y-103980000D01*
X126693000Y-101636000D02*
X126821000Y-101765000D01*
X128703000Y-107556000D02*
X128831000Y-107685000D01*
X126487000Y-105341000D02*
X126581000Y-105435000D01*
X128943000Y-107386000D02*
X129036000Y-107480000D01*
X126693000Y-105136000D02*
X126821000Y-105265000D01*
X128703000Y-111056000D02*
X128831000Y-111185000D01*
X126487000Y-108841000D02*
X126581000Y-108935000D01*
X128943000Y-110886000D02*
X129036000Y-110980000D01*
X126693000Y-108636000D02*
X126821000Y-108765000D01*
X123444000Y-80035400D02*
X133502400Y-80035400D01*
X123444000Y-115189000D02*
X133502400Y-115189000D01*
X133502400Y-115189000D02*
X133502400Y-80069000D01*
X123444000Y-115189000D02*
X123444000Y-80069000D01*
X130762000Y-115221000D02*
X130762000Y-80101000D01*
X131862000Y-115221000D02*
X131862000Y-80101000D01*
X129442000Y-81911000D02*
G75*
G03X129442000Y-81911000I-1680000J0D01*
G01*
X129442000Y-85411000D02*
G75*
G03X129442000Y-85411000I-1680000J0D01*
G01*
X129442000Y-88911000D02*
G75*
G03X129442000Y-88911000I-1680000J0D01*
G01*
X129442000Y-92411000D02*
G75*
G03X129442000Y-92411000I-1680000J0D01*
G01*
X129442000Y-95911000D02*
G75*
G03X129442000Y-95911000I-1680000J0D01*
G01*
X129442000Y-99411000D02*
G75*
G03X129442000Y-99411000I-1680000J0D01*
G01*
X129442000Y-102911000D02*
G75*
G03X129442000Y-102911000I-1680000J0D01*
G01*
X129442000Y-106411000D02*
G75*
G03X129442000Y-106411000I-1680000J0D01*
G01*
X129442000Y-109911000D02*
G75*
G03X129442000Y-109911000I-1680000J0D01*
G01*
X129442099Y-113382326D02*
G75*
G02X129202000Y-114277000I-1680099J-28674D01*
G01*
X128651894Y-114836358D02*
G75*
G02X126896000Y-114851000I-889894J1425358D01*
G01*
X126336642Y-114300894D02*
G75*
G02X126322000Y-112545000I1425358J889894D01*
G01*
X126871807Y-111985495D02*
G75*
G02X128653000Y-111986000I890193J-1425505D01*
G01*
X129186721Y-112520736D02*
G75*
G02X129442000Y-113411000I-1424721J-890264D01*
G01*
G04 #@! TO.C,J4*
X132562000Y-150517000D02*
X132562000Y-150117000D01*
X131922000Y-150517000D02*
X132562000Y-150517000D01*
X128703000Y-118112000D02*
X128831000Y-118241000D01*
X126487000Y-115897000D02*
X126581000Y-115991000D01*
X128943000Y-117942000D02*
X129036000Y-118036000D01*
X126693000Y-115692000D02*
X126821000Y-115821000D01*
X128703000Y-121612000D02*
X128831000Y-121741000D01*
X126487000Y-119397000D02*
X126581000Y-119491000D01*
X128943000Y-121442000D02*
X129036000Y-121536000D01*
X126693000Y-119192000D02*
X126821000Y-119321000D01*
X128703000Y-125112000D02*
X128831000Y-125241000D01*
X126487000Y-122897000D02*
X126581000Y-122991000D01*
X128943000Y-124942000D02*
X129036000Y-125036000D01*
X126693000Y-122692000D02*
X126821000Y-122821000D01*
X128703000Y-128612000D02*
X128831000Y-128741000D01*
X126487000Y-126397000D02*
X126581000Y-126491000D01*
X128943000Y-128442000D02*
X129036000Y-128536000D01*
X126693000Y-126192000D02*
X126821000Y-126321000D01*
X128703000Y-132112000D02*
X128831000Y-132241000D01*
X126487000Y-129897000D02*
X126581000Y-129991000D01*
X128943000Y-131942000D02*
X129036000Y-132036000D01*
X126693000Y-129692000D02*
X126821000Y-129821000D01*
X128703000Y-135612000D02*
X128831000Y-135741000D01*
X126487000Y-133397000D02*
X126581000Y-133491000D01*
X128943000Y-135442000D02*
X129036000Y-135536000D01*
X126693000Y-133192000D02*
X126821000Y-133321000D01*
X128703000Y-139112000D02*
X128831000Y-139241000D01*
X126487000Y-136897000D02*
X126581000Y-136991000D01*
X128943000Y-138942000D02*
X129036000Y-139036000D01*
X126693000Y-136692000D02*
X126821000Y-136821000D01*
X128703000Y-142612000D02*
X128831000Y-142741000D01*
X126487000Y-140397000D02*
X126581000Y-140491000D01*
X128943000Y-142442000D02*
X129036000Y-142536000D01*
X126693000Y-140192000D02*
X126821000Y-140321000D01*
X128703000Y-146112000D02*
X128831000Y-146241000D01*
X126487000Y-143897000D02*
X126581000Y-143991000D01*
X128943000Y-145942000D02*
X129036000Y-146036000D01*
X126693000Y-143692000D02*
X126821000Y-143821000D01*
X123444000Y-115091400D02*
X133502400Y-115091400D01*
X123444000Y-150245000D02*
X133502400Y-150245000D01*
X133502400Y-150245000D02*
X133502400Y-115125000D01*
X123444000Y-150245000D02*
X123444000Y-115125000D01*
X130762000Y-150277000D02*
X130762000Y-115157000D01*
X131862000Y-150277000D02*
X131862000Y-115157000D01*
X129442000Y-116967000D02*
G75*
G03X129442000Y-116967000I-1680000J0D01*
G01*
X129442000Y-120467000D02*
G75*
G03X129442000Y-120467000I-1680000J0D01*
G01*
X129442000Y-123967000D02*
G75*
G03X129442000Y-123967000I-1680000J0D01*
G01*
X129442000Y-127467000D02*
G75*
G03X129442000Y-127467000I-1680000J0D01*
G01*
X129442000Y-130967000D02*
G75*
G03X129442000Y-130967000I-1680000J0D01*
G01*
X129442000Y-134467000D02*
G75*
G03X129442000Y-134467000I-1680000J0D01*
G01*
X129442000Y-137967000D02*
G75*
G03X129442000Y-137967000I-1680000J0D01*
G01*
X129442000Y-141467000D02*
G75*
G03X129442000Y-141467000I-1680000J0D01*
G01*
X129442000Y-144967000D02*
G75*
G03X129442000Y-144967000I-1680000J0D01*
G01*
X129442099Y-148438326D02*
G75*
G02X129202000Y-149333000I-1680099J-28674D01*
G01*
X128651894Y-149892358D02*
G75*
G02X126896000Y-149907000I-889894J1425358D01*
G01*
X126336642Y-149356894D02*
G75*
G02X126322000Y-147601000I1425358J889894D01*
G01*
X126871807Y-147041495D02*
G75*
G02X128653000Y-147042000I890193J-1425505D01*
G01*
X129186721Y-147576736D02*
G75*
G02X129442000Y-148467000I-1424721J-890264D01*
G01*
G04 #@! TO.C,J3*
X142849000Y-115465000D02*
X142849000Y-115065000D01*
X142209000Y-115465000D02*
X142849000Y-115465000D01*
X138990000Y-83060000D02*
X139118000Y-83189000D01*
X136774000Y-80845000D02*
X136868000Y-80939000D01*
X139230000Y-82890000D02*
X139323000Y-82984000D01*
X136980000Y-80640000D02*
X137108000Y-80769000D01*
X138990000Y-86560000D02*
X139118000Y-86689000D01*
X136774000Y-84345000D02*
X136868000Y-84439000D01*
X139230000Y-86390000D02*
X139323000Y-86484000D01*
X136980000Y-84140000D02*
X137108000Y-84269000D01*
X138990000Y-90060000D02*
X139118000Y-90189000D01*
X136774000Y-87845000D02*
X136868000Y-87939000D01*
X139230000Y-89890000D02*
X139323000Y-89984000D01*
X136980000Y-87640000D02*
X137108000Y-87769000D01*
X138990000Y-93560000D02*
X139118000Y-93689000D01*
X136774000Y-91345000D02*
X136868000Y-91439000D01*
X139230000Y-93390000D02*
X139323000Y-93484000D01*
X136980000Y-91140000D02*
X137108000Y-91269000D01*
X138990000Y-97060000D02*
X139118000Y-97189000D01*
X136774000Y-94845000D02*
X136868000Y-94939000D01*
X139230000Y-96890000D02*
X139323000Y-96984000D01*
X136980000Y-94640000D02*
X137108000Y-94769000D01*
X138990000Y-100560000D02*
X139118000Y-100689000D01*
X136774000Y-98345000D02*
X136868000Y-98439000D01*
X139230000Y-100390000D02*
X139323000Y-100484000D01*
X136980000Y-98140000D02*
X137108000Y-98269000D01*
X138990000Y-104060000D02*
X139118000Y-104189000D01*
X136774000Y-101845000D02*
X136868000Y-101939000D01*
X139230000Y-103890000D02*
X139323000Y-103984000D01*
X136980000Y-101640000D02*
X137108000Y-101769000D01*
X138990000Y-107560000D02*
X139118000Y-107689000D01*
X136774000Y-105345000D02*
X136868000Y-105439000D01*
X139230000Y-107390000D02*
X139323000Y-107484000D01*
X136980000Y-105140000D02*
X137108000Y-105269000D01*
X138990000Y-111060000D02*
X139118000Y-111189000D01*
X136774000Y-108845000D02*
X136868000Y-108939000D01*
X139230000Y-110890000D02*
X139323000Y-110984000D01*
X136980000Y-108640000D02*
X137108000Y-108769000D01*
X133731000Y-80039400D02*
X143789400Y-80039400D01*
X133731000Y-115193000D02*
X143789400Y-115193000D01*
X143789400Y-115193000D02*
X143789400Y-80073000D01*
X133731000Y-115193000D02*
X133731000Y-80073000D01*
X141049000Y-115225000D02*
X141049000Y-80105000D01*
X142149000Y-115225000D02*
X142149000Y-80105000D01*
X139729000Y-81915000D02*
G75*
G03X139729000Y-81915000I-1680000J0D01*
G01*
X139729000Y-85415000D02*
G75*
G03X139729000Y-85415000I-1680000J0D01*
G01*
X139729000Y-88915000D02*
G75*
G03X139729000Y-88915000I-1680000J0D01*
G01*
X139729000Y-92415000D02*
G75*
G03X139729000Y-92415000I-1680000J0D01*
G01*
X139729000Y-95915000D02*
G75*
G03X139729000Y-95915000I-1680000J0D01*
G01*
X139729000Y-99415000D02*
G75*
G03X139729000Y-99415000I-1680000J0D01*
G01*
X139729000Y-102915000D02*
G75*
G03X139729000Y-102915000I-1680000J0D01*
G01*
X139729000Y-106415000D02*
G75*
G03X139729000Y-106415000I-1680000J0D01*
G01*
X139729000Y-109915000D02*
G75*
G03X139729000Y-109915000I-1680000J0D01*
G01*
X139729099Y-113386326D02*
G75*
G02X139489000Y-114281000I-1680099J-28674D01*
G01*
X138938894Y-114840358D02*
G75*
G02X137183000Y-114855000I-889894J1425358D01*
G01*
X136623642Y-114304894D02*
G75*
G02X136609000Y-112549000I1425358J889894D01*
G01*
X137158807Y-111989495D02*
G75*
G02X138940000Y-111990000I890193J-1425505D01*
G01*
X139473721Y-112524736D02*
G75*
G02X139729000Y-113415000I-1424721J-890264D01*
G01*
G04 #@! TO.C,J1*
X142849000Y-150517000D02*
X142849000Y-150117000D01*
X142209000Y-150517000D02*
X142849000Y-150517000D01*
X138990000Y-118112000D02*
X139118000Y-118241000D01*
X136774000Y-115897000D02*
X136868000Y-115991000D01*
X139230000Y-117942000D02*
X139323000Y-118036000D01*
X136980000Y-115692000D02*
X137108000Y-115821000D01*
X138990000Y-121612000D02*
X139118000Y-121741000D01*
X136774000Y-119397000D02*
X136868000Y-119491000D01*
X139230000Y-121442000D02*
X139323000Y-121536000D01*
X136980000Y-119192000D02*
X137108000Y-119321000D01*
X138990000Y-125112000D02*
X139118000Y-125241000D01*
X136774000Y-122897000D02*
X136868000Y-122991000D01*
X139230000Y-124942000D02*
X139323000Y-125036000D01*
X136980000Y-122692000D02*
X137108000Y-122821000D01*
X138990000Y-128612000D02*
X139118000Y-128741000D01*
X136774000Y-126397000D02*
X136868000Y-126491000D01*
X139230000Y-128442000D02*
X139323000Y-128536000D01*
X136980000Y-126192000D02*
X137108000Y-126321000D01*
X138990000Y-132112000D02*
X139118000Y-132241000D01*
X136774000Y-129897000D02*
X136868000Y-129991000D01*
X139230000Y-131942000D02*
X139323000Y-132036000D01*
X136980000Y-129692000D02*
X137108000Y-129821000D01*
X138990000Y-135612000D02*
X139118000Y-135741000D01*
X136774000Y-133397000D02*
X136868000Y-133491000D01*
X139230000Y-135442000D02*
X139323000Y-135536000D01*
X136980000Y-133192000D02*
X137108000Y-133321000D01*
X138990000Y-139112000D02*
X139118000Y-139241000D01*
X136774000Y-136897000D02*
X136868000Y-136991000D01*
X139230000Y-138942000D02*
X139323000Y-139036000D01*
X136980000Y-136692000D02*
X137108000Y-136821000D01*
X138990000Y-142612000D02*
X139118000Y-142741000D01*
X136774000Y-140397000D02*
X136868000Y-140491000D01*
X139230000Y-142442000D02*
X139323000Y-142536000D01*
X136980000Y-140192000D02*
X137108000Y-140321000D01*
X138990000Y-146112000D02*
X139118000Y-146241000D01*
X136774000Y-143897000D02*
X136868000Y-143991000D01*
X139230000Y-145942000D02*
X139323000Y-146036000D01*
X136980000Y-143692000D02*
X137108000Y-143821000D01*
X133731000Y-115091400D02*
X143789400Y-115091400D01*
X133731000Y-150245000D02*
X143789400Y-150245000D01*
X143789400Y-150245000D02*
X143789400Y-115125000D01*
X133731000Y-150245000D02*
X133731000Y-115125000D01*
X141049000Y-150277000D02*
X141049000Y-115157000D01*
X142149000Y-150277000D02*
X142149000Y-115157000D01*
X139729000Y-116967000D02*
G75*
G03X139729000Y-116967000I-1680000J0D01*
G01*
X139729000Y-120467000D02*
G75*
G03X139729000Y-120467000I-1680000J0D01*
G01*
X139729000Y-123967000D02*
G75*
G03X139729000Y-123967000I-1680000J0D01*
G01*
X139729000Y-127467000D02*
G75*
G03X139729000Y-127467000I-1680000J0D01*
G01*
X139729000Y-130967000D02*
G75*
G03X139729000Y-130967000I-1680000J0D01*
G01*
X139729000Y-134467000D02*
G75*
G03X139729000Y-134467000I-1680000J0D01*
G01*
X139729000Y-137967000D02*
G75*
G03X139729000Y-137967000I-1680000J0D01*
G01*
X139729000Y-141467000D02*
G75*
G03X139729000Y-141467000I-1680000J0D01*
G01*
X139729000Y-144967000D02*
G75*
G03X139729000Y-144967000I-1680000J0D01*
G01*
X139729099Y-148438326D02*
G75*
G02X139489000Y-149333000I-1680099J-28674D01*
G01*
X138938894Y-149892358D02*
G75*
G02X137183000Y-149907000I-889894J1425358D01*
G01*
X136623642Y-149356894D02*
G75*
G02X136609000Y-147601000I1425358J889894D01*
G01*
X137158807Y-147041495D02*
G75*
G02X138940000Y-147042000I890193J-1425505D01*
G01*
X139473721Y-147576736D02*
G75*
G02X139729000Y-148467000I-1424721J-890264D01*
G01*
G04 #@! TO.C,J6*
X157835000Y-141739000D02*
X157835000Y-141339000D01*
X157195000Y-141739000D02*
X157835000Y-141739000D01*
X153976000Y-91834000D02*
X154104000Y-91963000D01*
X151760000Y-89619000D02*
X151854000Y-89713000D01*
X154216000Y-91664000D02*
X154309000Y-91758000D01*
X151966000Y-89414000D02*
X152094000Y-89543000D01*
X153976000Y-95334000D02*
X154104000Y-95463000D01*
X151760000Y-93119000D02*
X151854000Y-93213000D01*
X154216000Y-95164000D02*
X154309000Y-95258000D01*
X151966000Y-92914000D02*
X152094000Y-93043000D01*
X153976000Y-98834000D02*
X154104000Y-98963000D01*
X151760000Y-96619000D02*
X151854000Y-96713000D01*
X154216000Y-98664000D02*
X154309000Y-98758000D01*
X151966000Y-96414000D02*
X152094000Y-96543000D01*
X153976000Y-102334000D02*
X154104000Y-102463000D01*
X151760000Y-100119000D02*
X151854000Y-100213000D01*
X154216000Y-102164000D02*
X154309000Y-102258000D01*
X151966000Y-99914000D02*
X152094000Y-100043000D01*
X153976000Y-105834000D02*
X154104000Y-105963000D01*
X151760000Y-103619000D02*
X151854000Y-103713000D01*
X154216000Y-105664000D02*
X154309000Y-105758000D01*
X151966000Y-103414000D02*
X152094000Y-103543000D01*
X153976000Y-109334000D02*
X154104000Y-109463000D01*
X151760000Y-107119000D02*
X151854000Y-107213000D01*
X154216000Y-109164000D02*
X154309000Y-109258000D01*
X151966000Y-106914000D02*
X152094000Y-107043000D01*
X153976000Y-112834000D02*
X154104000Y-112963000D01*
X151760000Y-110619000D02*
X151854000Y-110713000D01*
X154216000Y-112664000D02*
X154309000Y-112758000D01*
X151966000Y-110414000D02*
X152094000Y-110543000D01*
X153976000Y-116334000D02*
X154104000Y-116463000D01*
X151760000Y-114119000D02*
X151854000Y-114213000D01*
X154216000Y-116164000D02*
X154309000Y-116258000D01*
X151966000Y-113914000D02*
X152094000Y-114043000D01*
X153976000Y-119834000D02*
X154104000Y-119963000D01*
X151760000Y-117619000D02*
X151854000Y-117713000D01*
X154216000Y-119664000D02*
X154309000Y-119758000D01*
X151966000Y-117414000D02*
X152094000Y-117543000D01*
X153976000Y-123334000D02*
X154104000Y-123463000D01*
X151760000Y-121119000D02*
X151854000Y-121213000D01*
X154216000Y-123164000D02*
X154309000Y-123258000D01*
X151966000Y-120914000D02*
X152094000Y-121043000D01*
X153976000Y-126834000D02*
X154104000Y-126963000D01*
X151760000Y-124619000D02*
X151854000Y-124713000D01*
X154216000Y-126664000D02*
X154309000Y-126758000D01*
X151966000Y-124414000D02*
X152094000Y-124543000D01*
X153976000Y-130334000D02*
X154104000Y-130463000D01*
X151760000Y-128119000D02*
X151854000Y-128213000D01*
X154216000Y-130164000D02*
X154309000Y-130258000D01*
X151966000Y-127914000D02*
X152094000Y-128043000D01*
X153976000Y-133834000D02*
X154104000Y-133963000D01*
X151760000Y-131619000D02*
X151854000Y-131713000D01*
X154216000Y-133664000D02*
X154309000Y-133758000D01*
X151966000Y-131414000D02*
X152094000Y-131543000D01*
X153976000Y-137334000D02*
X154104000Y-137463000D01*
X151760000Y-135119000D02*
X151854000Y-135213000D01*
X154216000Y-137164000D02*
X154309000Y-137258000D01*
X151966000Y-134914000D02*
X152094000Y-135043000D01*
X148717000Y-88889000D02*
X158775400Y-88889000D01*
X148717000Y-141517800D02*
X158775400Y-141517800D01*
X158775400Y-141499000D02*
X158775400Y-88889000D01*
X148717000Y-141499000D02*
X148717000Y-88889000D01*
X156035000Y-141499000D02*
X156035000Y-88879000D01*
X157135000Y-141499000D02*
X157135000Y-88879000D01*
X154715000Y-90689000D02*
G75*
G03X154715000Y-90689000I-1680000J0D01*
G01*
X154715000Y-94189000D02*
G75*
G03X154715000Y-94189000I-1680000J0D01*
G01*
X154715000Y-97689000D02*
G75*
G03X154715000Y-97689000I-1680000J0D01*
G01*
X154715000Y-101189000D02*
G75*
G03X154715000Y-101189000I-1680000J0D01*
G01*
X154715000Y-104689000D02*
G75*
G03X154715000Y-104689000I-1680000J0D01*
G01*
X154715000Y-108189000D02*
G75*
G03X154715000Y-108189000I-1680000J0D01*
G01*
X154715000Y-111689000D02*
G75*
G03X154715000Y-111689000I-1680000J0D01*
G01*
X154715000Y-115189000D02*
G75*
G03X154715000Y-115189000I-1680000J0D01*
G01*
X154715000Y-118689000D02*
G75*
G03X154715000Y-118689000I-1680000J0D01*
G01*
X154715000Y-122189000D02*
G75*
G03X154715000Y-122189000I-1680000J0D01*
G01*
X154715000Y-125689000D02*
G75*
G03X154715000Y-125689000I-1680000J0D01*
G01*
X154715000Y-129189000D02*
G75*
G03X154715000Y-129189000I-1680000J0D01*
G01*
X154715000Y-132689000D02*
G75*
G03X154715000Y-132689000I-1680000J0D01*
G01*
X154715000Y-136189000D02*
G75*
G03X154715000Y-136189000I-1680000J0D01*
G01*
X154715099Y-139660326D02*
G75*
G02X154475000Y-140555000I-1680099J-28674D01*
G01*
X153924894Y-141114358D02*
G75*
G02X152169000Y-141129000I-889894J1425358D01*
G01*
X151609642Y-140578894D02*
G75*
G02X151595000Y-138823000I1425358J889894D01*
G01*
X152144807Y-138263495D02*
G75*
G02X153926000Y-138264000I890193J-1425505D01*
G01*
X154459721Y-138798736D02*
G75*
G02X154715000Y-139689000I-1424721J-890264D01*
G01*
G04 #@! TO.C,J2*
D11*
X142283380Y-133048333D02*
X142997666Y-133048333D01*
X143140523Y-133095952D01*
X143235761Y-133191190D01*
X143283380Y-133334047D01*
X143283380Y-133429285D01*
X142378619Y-132619761D02*
X142331000Y-132572142D01*
X142283380Y-132476904D01*
X142283380Y-132238809D01*
X142331000Y-132143571D01*
X142378619Y-132095952D01*
X142473857Y-132048333D01*
X142569095Y-132048333D01*
X142711952Y-132095952D01*
X143283380Y-132667380D01*
X143283380Y-132048333D01*
G04 #@! TO.C,U1*
X132461095Y-81621380D02*
X132461095Y-82430904D01*
X132508714Y-82526142D01*
X132556333Y-82573761D01*
X132651571Y-82621380D01*
X132842047Y-82621380D01*
X132937285Y-82573761D01*
X132984904Y-82526142D01*
X133032523Y-82430904D01*
X133032523Y-81621380D01*
X134032523Y-82621380D02*
X133461095Y-82621380D01*
X133746809Y-82621380D02*
X133746809Y-81621380D01*
X133651571Y-81764238D01*
X133556333Y-81859476D01*
X133461095Y-81907095D01*
G04 #@! TO.C,J5*
X123054380Y-97994333D02*
X123768666Y-97994333D01*
X123911523Y-98041952D01*
X124006761Y-98137190D01*
X124054380Y-98280047D01*
X124054380Y-98375285D01*
X123054380Y-97041952D02*
X123054380Y-97518142D01*
X123530571Y-97565761D01*
X123482952Y-97518142D01*
X123435333Y-97422904D01*
X123435333Y-97184809D01*
X123482952Y-97089571D01*
X123530571Y-97041952D01*
X123625809Y-96994333D01*
X123863904Y-96994333D01*
X123959142Y-97041952D01*
X124006761Y-97089571D01*
X124054380Y-97184809D01*
X124054380Y-97422904D01*
X124006761Y-97518142D01*
X123959142Y-97565761D01*
G04 #@! TO.C,J4*
X123054380Y-133050333D02*
X123768666Y-133050333D01*
X123911523Y-133097952D01*
X124006761Y-133193190D01*
X124054380Y-133336047D01*
X124054380Y-133431285D01*
X123387714Y-132145571D02*
X124054380Y-132145571D01*
X123006761Y-132383666D02*
X123721047Y-132621761D01*
X123721047Y-132002714D01*
G04 #@! TO.C,J3*
X133341380Y-97998333D02*
X134055666Y-97998333D01*
X134198523Y-98045952D01*
X134293761Y-98141190D01*
X134341380Y-98284047D01*
X134341380Y-98379285D01*
X133341380Y-97617380D02*
X133341380Y-96998333D01*
X133722333Y-97331666D01*
X133722333Y-97188809D01*
X133769952Y-97093571D01*
X133817571Y-97045952D01*
X133912809Y-96998333D01*
X134150904Y-96998333D01*
X134246142Y-97045952D01*
X134293761Y-97093571D01*
X134341380Y-97188809D01*
X134341380Y-97474523D01*
X134293761Y-97569761D01*
X134246142Y-97617380D01*
G04 #@! TO.C,J1*
X133341380Y-133050333D02*
X134055666Y-133050333D01*
X134198523Y-133097952D01*
X134293761Y-133193190D01*
X134341380Y-133336047D01*
X134341380Y-133431285D01*
X134341380Y-132050333D02*
X134341380Y-132621761D01*
X134341380Y-132336047D02*
X133341380Y-132336047D01*
X133484238Y-132431285D01*
X133579476Y-132526523D01*
X133627095Y-132621761D01*
G04 #@! TO.C,J6*
X148327380Y-115522333D02*
X149041666Y-115522333D01*
X149184523Y-115569952D01*
X149279761Y-115665190D01*
X149327380Y-115808047D01*
X149327380Y-115903285D01*
X148327380Y-114617571D02*
X148327380Y-114808047D01*
X148375000Y-114903285D01*
X148422619Y-114950904D01*
X148565476Y-115046142D01*
X148755952Y-115093761D01*
X149136904Y-115093761D01*
X149232142Y-115046142D01*
X149279761Y-114998523D01*
X149327380Y-114903285D01*
X149327380Y-114712809D01*
X149279761Y-114617571D01*
X149232142Y-114569952D01*
X149136904Y-114522333D01*
X148898809Y-114522333D01*
X148803571Y-114569952D01*
X148755952Y-114617571D01*
X148708333Y-114712809D01*
X148708333Y-114903285D01*
X148755952Y-114998523D01*
X148803571Y-115046142D01*
X148898809Y-115093761D01*
G04 #@! TD*
M02*
