M48
;DRILL file {KiCad (5.0.0)} date 10/25/18 16:10:59
;FORMAT={-:-/ absolute / metric / decimal}
FMAT,2
METRIC,TZ
T1C0.400
T2C0.762
T3C1.000
T4C1.200
T5C2.740
%
G90
G05
M71
T1
X141.732Y-121.285
X142.494Y-138.049
X143.129Y-106.299
X143.256Y-114.935
X144.018Y-116.078
X145.161Y-89.916
X147.32Y-116.205
X147.955Y-117.094
X149.098Y-111.252
T2
X119.253Y-91.059
X119.253Y-93.599
X119.253Y-96.139
X119.253Y-98.679
X119.253Y-101.219
X119.253Y-103.759
X119.253Y-106.299
X119.253Y-108.839
X119.253Y-111.379
X119.253Y-113.919
X119.253Y-116.459
X119.253Y-118.999
X119.253Y-121.539
X119.253Y-124.079
X119.253Y-126.619
X119.253Y-129.159
X119.253Y-131.699
X119.253Y-134.239
X119.253Y-136.779
X119.253Y-139.319
X121.793Y-91.059
X121.793Y-93.599
X121.793Y-96.139
X121.793Y-98.679
X121.793Y-101.219
X121.793Y-103.759
X121.793Y-106.299
X121.793Y-108.839
X121.793Y-111.379
X121.793Y-113.919
X121.793Y-116.459
X121.793Y-118.999
X121.793Y-121.539
X121.793Y-124.079
X121.793Y-126.619
X121.793Y-129.159
X121.793Y-131.699
X121.793Y-134.239
X121.793Y-136.779
X121.793Y-139.319
T3
X145.161Y-131.445
X145.161Y-133.985
T4
X138.049Y-116.967
X138.049Y-120.467
X138.049Y-123.967
X138.049Y-127.467
X138.049Y-130.967
X138.049Y-134.467
X138.049Y-137.967
X138.049Y-141.467
X138.049Y-144.967
X138.049Y-148.467
X127.762Y-116.967
X127.762Y-120.467
X127.762Y-123.967
X127.762Y-127.467
X127.762Y-130.967
X127.762Y-134.467
X127.762Y-137.967
X127.762Y-141.467
X127.762Y-144.967
X127.762Y-148.467
X138.049Y-81.915
X138.049Y-85.415
X138.049Y-88.915
X138.049Y-92.415
X138.049Y-95.915
X138.049Y-99.415
X138.049Y-102.915
X138.049Y-106.415
X138.049Y-109.915
X138.049Y-113.415
X153.035Y-90.689
X153.035Y-94.189
X153.035Y-97.689
X153.035Y-101.189
X153.035Y-104.689
X153.035Y-108.189
X153.035Y-111.689
X153.035Y-115.189
X153.035Y-118.689
X153.035Y-122.189
X153.035Y-125.689
X153.035Y-129.189
X153.035Y-132.689
X153.035Y-136.189
X153.035Y-139.689
X127.762Y-81.911
X127.762Y-85.411
X127.762Y-88.911
X127.762Y-92.411
X127.762Y-95.911
X127.762Y-99.411
X127.762Y-102.911
X127.762Y-106.411
X127.762Y-109.911
X127.762Y-113.411
T5
X120.523Y-85.979
X120.523Y-144.399
X144.018Y-85.979
X144.018Y-144.399
T0
M30
