G04 #@! TF.GenerationSoftware,KiCad,Pcbnew,(5.0.0)*
G04 #@! TF.CreationDate,2018-10-17T10:28:26+01:00*
G04 #@! TF.ProjectId,Motor_Toshiba_Shield,4D6F746F725F546F73686962615F5368,rev?*
G04 #@! TF.SameCoordinates,Original*
G04 #@! TF.FileFunction,Soldermask,Bot*
G04 #@! TF.FilePolarity,Negative*
%FSLAX46Y46*%
G04 Gerber Fmt 4.6, Leading zero omitted, Abs format (unit mm)*
G04 Created by KiCad (PCBNEW (5.0.0)) date 10/17/18 10:28:26*
%MOMM*%
%LPD*%
G01*
G04 APERTURE LIST*
%ADD10R,2.400000X2.400000*%
%ADD11C,1.300000*%
%ADD12C,2.400000*%
%ADD13O,1.900000X1.900000*%
%ADD14R,1.900000X1.900000*%
%ADD15C,6.200000*%
%ADD16C,1.724000*%
G04 APERTURE END LIST*
D10*
G04 #@! TO.C,J1*
X121539000Y-64262000D03*
D11*
X121539000Y-66802000D03*
D12*
X124079000Y-64262000D03*
D11*
X124079000Y-66802000D03*
G04 #@! TD*
D13*
G04 #@! TO.C,J2*
X115570000Y-64008000D03*
D14*
X115570000Y-66548000D03*
G04 #@! TD*
D11*
G04 #@! TO.C,J3*
X132080000Y-110490000D03*
D12*
X134620000Y-110490000D03*
D11*
X132080000Y-107950000D03*
D10*
X134620000Y-107950000D03*
G04 #@! TD*
G04 #@! TO.C,J4*
X134620000Y-102235000D03*
D11*
X132080000Y-102235000D03*
D12*
X134620000Y-104775000D03*
D11*
X132080000Y-104775000D03*
G04 #@! TD*
G04 #@! TO.C,J5*
X132080000Y-86995000D03*
D12*
X134620000Y-86995000D03*
D11*
X132080000Y-84455000D03*
D10*
X134620000Y-84455000D03*
G04 #@! TD*
G04 #@! TO.C,J6*
X134620000Y-78740000D03*
D11*
X132080000Y-78740000D03*
D12*
X134620000Y-81280000D03*
D11*
X132080000Y-81280000D03*
G04 #@! TD*
D14*
G04 #@! TO.C,J7*
X115316000Y-113030000D03*
D13*
X117856000Y-113030000D03*
G04 #@! TD*
D15*
G04 #@! TO.C,U2*
X133985000Y-65405000D03*
X133985000Y-123825000D03*
X110490000Y-65405000D03*
X110490000Y-123825000D03*
D16*
X109220000Y-70485000D03*
X111760000Y-70485000D03*
X109220000Y-73025000D03*
X111760000Y-73025000D03*
X109220000Y-75565000D03*
X111760000Y-75565000D03*
X109220000Y-78105000D03*
X111760000Y-78105000D03*
X109220000Y-80645000D03*
X111760000Y-80645000D03*
X109220000Y-83185000D03*
X111760000Y-83185000D03*
X109220000Y-85725000D03*
X111760000Y-85725000D03*
X109220000Y-88265000D03*
X111760000Y-88265000D03*
X109220000Y-90805000D03*
X111760000Y-90805000D03*
X109220000Y-93345000D03*
X111760000Y-93345000D03*
X109220000Y-95885000D03*
X111760000Y-95885000D03*
X109220000Y-98425000D03*
X111760000Y-98425000D03*
X109220000Y-100965000D03*
X111760000Y-100965000D03*
X109220000Y-103505000D03*
X111760000Y-103505000D03*
X109220000Y-106045000D03*
X111760000Y-106045000D03*
X109220000Y-108585000D03*
X111760000Y-108585000D03*
X109220000Y-111125000D03*
X111760000Y-111125000D03*
X109220000Y-113665000D03*
X111760000Y-113665000D03*
X109220000Y-116205000D03*
X111760000Y-116205000D03*
X109220000Y-118745000D03*
X111760000Y-118745000D03*
G04 #@! TD*
D14*
G04 #@! TO.C,J8*
X116840000Y-124714000D03*
D13*
X116840000Y-122174000D03*
X116840000Y-119634000D03*
X116840000Y-117094000D03*
G04 #@! TD*
G04 #@! TO.C,J9*
X119888000Y-117094000D03*
X119888000Y-119634000D03*
X119888000Y-122174000D03*
D14*
X119888000Y-124714000D03*
G04 #@! TD*
G04 #@! TO.C,J10*
X125984000Y-124714000D03*
D13*
X125984000Y-122174000D03*
X125984000Y-119634000D03*
X125984000Y-117094000D03*
G04 #@! TD*
G04 #@! TO.C,J11*
X122936000Y-117094000D03*
X122936000Y-119634000D03*
X122936000Y-122174000D03*
D14*
X122936000Y-124714000D03*
G04 #@! TD*
M02*
