G04 #@! TF.GenerationSoftware,KiCad,Pcbnew,(5.0.0)*
G04 #@! TF.CreationDate,2018-10-17T10:28:26+01:00*
G04 #@! TF.ProjectId,Motor_Toshiba_Shield,4D6F746F725F546F73686962615F5368,rev?*
G04 #@! TF.SameCoordinates,Original*
G04 #@! TF.FileFunction,Copper,L2,Bot,Signal*
G04 #@! TF.FilePolarity,Positive*
%FSLAX46Y46*%
G04 Gerber Fmt 4.6, Leading zero omitted, Abs format (unit mm)*
G04 Created by KiCad (PCBNEW (5.0.0)) date 10/17/18 10:28:26*
%MOMM*%
%LPD*%
G01*
G04 APERTURE LIST*
G04 #@! TA.AperFunction,ComponentPad*
%ADD10R,2.200000X2.200000*%
G04 #@! TD*
G04 #@! TA.AperFunction,ComponentPad*
%ADD11C,2.200000*%
G04 #@! TD*
G04 #@! TA.AperFunction,ComponentPad*
%ADD12O,1.700000X1.700000*%
G04 #@! TD*
G04 #@! TA.AperFunction,ComponentPad*
%ADD13R,1.700000X1.700000*%
G04 #@! TD*
G04 #@! TA.AperFunction,ComponentPad*
%ADD14C,6.000000*%
G04 #@! TD*
G04 #@! TA.AperFunction,ComponentPad*
%ADD15C,1.524000*%
G04 #@! TD*
G04 #@! TA.AperFunction,ViaPad*
%ADD16C,0.800000*%
G04 #@! TD*
G04 #@! TA.AperFunction,Conductor*
%ADD17C,0.500000*%
G04 #@! TD*
G04 #@! TA.AperFunction,Conductor*
%ADD18C,0.250000*%
G04 #@! TD*
G04 #@! TA.AperFunction,Conductor*
%ADD19C,0.254000*%
G04 #@! TD*
G04 APERTURE END LIST*
D10*
G04 #@! TO.P,J1,1*
G04 #@! TO.N,BAT+*
X121539000Y-64262000D03*
D11*
G04 #@! TO.P,J1,2*
G04 #@! TO.N,BAT-*
X124079000Y-64262000D03*
G04 #@! TD*
D12*
G04 #@! TO.P,J2,2*
G04 #@! TO.N,Net-(J2-Pad2)*
X115570000Y-64008000D03*
D13*
G04 #@! TO.P,J2,1*
G04 #@! TO.N,+5V*
X115570000Y-66548000D03*
G04 #@! TD*
D11*
G04 #@! TO.P,J3,2*
G04 #@! TO.N,Net-(J3-Pad2)*
X134620000Y-110490000D03*
D10*
G04 #@! TO.P,J3,1*
G04 #@! TO.N,Net-(J3-Pad1)*
X134620000Y-107950000D03*
G04 #@! TD*
G04 #@! TO.P,J4,1*
G04 #@! TO.N,Net-(J4-Pad1)*
X134620000Y-102235000D03*
D11*
G04 #@! TO.P,J4,2*
G04 #@! TO.N,Net-(J4-Pad2)*
X134620000Y-104775000D03*
G04 #@! TD*
G04 #@! TO.P,J5,2*
G04 #@! TO.N,Net-(J5-Pad2)*
X134620000Y-86995000D03*
D10*
G04 #@! TO.P,J5,1*
G04 #@! TO.N,Net-(J5-Pad1)*
X134620000Y-84455000D03*
G04 #@! TD*
G04 #@! TO.P,J6,1*
G04 #@! TO.N,Net-(J6-Pad1)*
X134620000Y-78740000D03*
D11*
G04 #@! TO.P,J6,2*
G04 #@! TO.N,Net-(J6-Pad2)*
X134620000Y-81280000D03*
G04 #@! TD*
D13*
G04 #@! TO.P,J7,1*
G04 #@! TO.N,ICSP_DAT*
X115316000Y-113030000D03*
D12*
G04 #@! TO.P,J7,2*
G04 #@! TO.N,Net-(J7-Pad2)*
X117856000Y-113030000D03*
G04 #@! TD*
D14*
G04 #@! TO.P,U2,*
G04 #@! TO.N,*
X133985000Y-65405000D03*
X133985000Y-123825000D03*
X110490000Y-65405000D03*
X110490000Y-123825000D03*
D15*
G04 #@! TO.P,U2,40*
G04 #@! TO.N,ICSP_CLK*
X109220000Y-70485000D03*
G04 #@! TO.P,U2,39*
G04 #@! TO.N,BAT-*
X111760000Y-70485000D03*
G04 #@! TO.P,U2,38*
G04 #@! TO.N,ICSP_DAT*
X109220000Y-73025000D03*
G04 #@! TO.P,U2,37*
G04 #@! TO.N,Net-(U2-Pad37)*
X111760000Y-73025000D03*
G04 #@! TO.P,U2,36*
G04 #@! TO.N,Net-(U2-Pad36)*
X109220000Y-75565000D03*
G04 #@! TO.P,U2,35*
G04 #@! TO.N,MCLR*
X111760000Y-75565000D03*
G04 #@! TO.P,U2,34*
G04 #@! TO.N,Net-(U2-Pad34)*
X109220000Y-78105000D03*
G04 #@! TO.P,U2,33*
G04 #@! TO.N,Net-(U2-Pad33)*
X111760000Y-78105000D03*
G04 #@! TO.P,U2,32*
G04 #@! TO.N,Net-(U2-Pad32)*
X109220000Y-80645000D03*
G04 #@! TO.P,U2,31*
G04 #@! TO.N,EN2*
X111760000Y-80645000D03*
G04 #@! TO.P,U2,30*
G04 #@! TO.N,Net-(U2-Pad30)*
X109220000Y-83185000D03*
G04 #@! TO.P,U2,29*
G04 #@! TO.N,EN1*
X111760000Y-83185000D03*
G04 #@! TO.P,U2,28*
G04 #@! TO.N,Net-(U2-Pad28)*
X109220000Y-85725000D03*
G04 #@! TO.P,U2,27*
G04 #@! TO.N,Net-(U2-Pad27)*
X111760000Y-85725000D03*
G04 #@! TO.P,U2,26*
G04 #@! TO.N,Net-(U2-Pad26)*
X109220000Y-88265000D03*
G04 #@! TO.P,U2,25*
G04 #@! TO.N,Net-(U2-Pad25)*
X111760000Y-88265000D03*
G04 #@! TO.P,U2,24*
G04 #@! TO.N,Net-(U2-Pad24)*
X109220000Y-90805000D03*
G04 #@! TO.P,U2,23*
G04 #@! TO.N,Net-(U2-Pad23)*
X111760000Y-90805000D03*
G04 #@! TO.P,U2,22*
G04 #@! TO.N,Net-(U2-Pad22)*
X109220000Y-93345000D03*
G04 #@! TO.P,U2,21*
G04 #@! TO.N,Net-(U2-Pad21)*
X111760000Y-93345000D03*
G04 #@! TO.P,U2,20*
G04 #@! TO.N,Net-(U2-Pad20)*
X109220000Y-95885000D03*
G04 #@! TO.P,U2,19*
G04 #@! TO.N,Net-(U2-Pad19)*
X111760000Y-95885000D03*
G04 #@! TO.P,U2,18*
G04 #@! TO.N,Net-(U2-Pad18)*
X109220000Y-98425000D03*
G04 #@! TO.P,U2,17*
G04 #@! TO.N,Net-(U2-Pad17)*
X111760000Y-98425000D03*
G04 #@! TO.P,U2,16*
G04 #@! TO.N,Net-(U2-Pad16)*
X109220000Y-100965000D03*
G04 #@! TO.P,U2,15*
G04 #@! TO.N,Net-(U2-Pad15)*
X111760000Y-100965000D03*
G04 #@! TO.P,U2,14*
G04 #@! TO.N,BAT-*
X109220000Y-103505000D03*
G04 #@! TO.P,U2,13*
G04 #@! TO.N,Net-(U2-Pad13)*
X111760000Y-103505000D03*
G04 #@! TO.P,U2,12*
G04 #@! TO.N,Net-(U2-Pad12)*
X109220000Y-106045000D03*
G04 #@! TO.P,U2,11*
G04 #@! TO.N,Net-(U2-Pad11)*
X111760000Y-106045000D03*
G04 #@! TO.P,U2,10*
G04 #@! TO.N,Net-(U2-Pad10)*
X109220000Y-108585000D03*
G04 #@! TO.P,U2,9*
G04 #@! TO.N,Net-(U2-Pad9)*
X111760000Y-108585000D03*
G04 #@! TO.P,U2,8*
G04 #@! TO.N,Net-(U2-Pad8)*
X109220000Y-111125000D03*
G04 #@! TO.P,U2,7*
G04 #@! TO.N,RES*
X111760000Y-111125000D03*
G04 #@! TO.P,U2,6*
G04 #@! TO.N,BAT-*
X109220000Y-113665000D03*
G04 #@! TO.P,U2,5*
G04 #@! TO.N,SCL*
X111760000Y-113665000D03*
G04 #@! TO.P,U2,4*
G04 #@! TO.N,Net-(U2-Pad4)*
X109220000Y-116205000D03*
G04 #@! TO.P,U2,3*
G04 #@! TO.N,SDA*
X111760000Y-116205000D03*
G04 #@! TO.P,U2,2*
G04 #@! TO.N,Net-(J2-Pad2)*
X109220000Y-118745000D03*
G04 #@! TO.P,U2,1*
G04 #@! TO.N,+3V3*
X111760000Y-118745000D03*
G04 #@! TD*
D13*
G04 #@! TO.P,J8,1*
G04 #@! TO.N,+5V*
X116840000Y-124714000D03*
D12*
G04 #@! TO.P,J8,2*
G04 #@! TO.N,A1*
X116840000Y-122174000D03*
G04 #@! TO.P,J8,3*
G04 #@! TO.N,B1*
X116840000Y-119634000D03*
G04 #@! TO.P,J8,4*
G04 #@! TO.N,BAT-*
X116840000Y-117094000D03*
G04 #@! TD*
G04 #@! TO.P,J9,4*
G04 #@! TO.N,BAT-*
X119888000Y-117094000D03*
G04 #@! TO.P,J9,3*
G04 #@! TO.N,B2*
X119888000Y-119634000D03*
G04 #@! TO.P,J9,2*
G04 #@! TO.N,A2*
X119888000Y-122174000D03*
D13*
G04 #@! TO.P,J9,1*
G04 #@! TO.N,+5V*
X119888000Y-124714000D03*
G04 #@! TD*
G04 #@! TO.P,J10,1*
G04 #@! TO.N,+5V*
X125984000Y-124714000D03*
D12*
G04 #@! TO.P,J10,2*
G04 #@! TO.N,A3*
X125984000Y-122174000D03*
G04 #@! TO.P,J10,3*
G04 #@! TO.N,B3*
X125984000Y-119634000D03*
G04 #@! TO.P,J10,4*
G04 #@! TO.N,BAT-*
X125984000Y-117094000D03*
G04 #@! TD*
G04 #@! TO.P,J11,4*
G04 #@! TO.N,BAT-*
X122936000Y-117094000D03*
G04 #@! TO.P,J11,3*
G04 #@! TO.N,B4*
X122936000Y-119634000D03*
G04 #@! TO.P,J11,2*
G04 #@! TO.N,A4*
X122936000Y-122174000D03*
D13*
G04 #@! TO.P,J11,1*
G04 #@! TO.N,+5V*
X122936000Y-124714000D03*
G04 #@! TD*
D16*
G04 #@! TO.N,BAT-PROT+*
X123952000Y-80010000D03*
X124714000Y-70104000D03*
X123952000Y-86106000D03*
X123952000Y-102870000D03*
X123952000Y-109728000D03*
G04 #@! TO.N,BAT-*
X125222000Y-82550000D03*
X127254000Y-80264000D03*
X122428000Y-93218000D03*
X122682000Y-90170000D03*
X119045000Y-83820000D03*
X130302000Y-92202000D03*
X124968000Y-102870000D03*
X127000000Y-109474000D03*
X124968000Y-98552000D03*
G04 #@! TO.N,+5V*
X128270000Y-71882000D03*
X134874000Y-72898000D03*
G04 #@! TO.N,+3V3*
X121666000Y-89154000D03*
X116078000Y-89154000D03*
X124968000Y-90424000D03*
X129032000Y-90170000D03*
X125984000Y-105664000D03*
X124968000Y-101092000D03*
X122936000Y-101092000D03*
X122936000Y-98044000D03*
G04 #@! TO.N,Net-(J7-Pad2)*
X124968000Y-99822000D03*
X128524000Y-112268000D03*
G04 #@! TO.N,ICSP_DAT*
X110490000Y-91948000D03*
G04 #@! TO.N,MCLR*
X120142000Y-87122000D03*
G04 #@! TO.N,ICSP_CLK*
X120396000Y-96012000D03*
G04 #@! TO.N,EN2*
X119888000Y-106934000D03*
X117856000Y-96266000D03*
X115824000Y-92964000D03*
X114554000Y-90678000D03*
X113538000Y-83820000D03*
G04 #@! TO.N,EN1*
X120142000Y-83058000D03*
X116078000Y-76962000D03*
G04 #@! TO.N,RES*
X133096000Y-119126000D03*
X133096000Y-115062000D03*
X129794000Y-94234000D03*
G04 #@! TO.N,SCL*
X131064000Y-99568000D03*
G04 #@! TO.N,SDA*
X130048000Y-96774000D03*
X122428000Y-87630000D03*
X125222000Y-87630000D03*
X113538000Y-88392000D03*
G04 #@! TO.N,INA2*
X126238000Y-84074000D03*
X124714000Y-85090000D03*
G04 #@! TO.N,INA3*
X127254000Y-107950000D03*
X124714000Y-107696000D03*
G04 #@! TO.N,PWM3*
X119380000Y-110236000D03*
X119380000Y-99822000D03*
G04 #@! TO.N,PWM4*
X118364000Y-100838000D03*
X118364000Y-104140000D03*
G04 #@! TO.N,PWM2*
X117856000Y-86106000D03*
X118110000Y-80772000D03*
G04 #@! TO.N,A1*
X114300000Y-110998000D03*
X119888000Y-92710000D03*
G04 #@! TO.N,B1*
X120904000Y-92964000D03*
X115316000Y-111252000D03*
G04 #@! TO.N,B2*
X116840000Y-95758000D03*
G04 #@! TO.N,A2*
X116078000Y-101092000D03*
G04 #@! TO.N,A3*
X121666000Y-96012000D03*
G04 #@! TO.N,B3*
X121920000Y-94488000D03*
G04 #@! TO.N,B4*
X118618000Y-94742000D03*
G04 #@! TO.N,A4*
X117602000Y-100076000D03*
G04 #@! TD*
D17*
G04 #@! TO.N,BAT-PROT+*
X123952000Y-80010000D02*
X123952000Y-70866000D01*
X123952000Y-70866000D02*
X124714000Y-70104000D01*
X123952000Y-80010000D02*
X123952000Y-84328000D01*
X123952000Y-84328000D02*
X123698000Y-84582000D01*
X123698000Y-84582000D02*
X123698000Y-85852000D01*
X123698000Y-85852000D02*
X123952000Y-86106000D01*
X123952000Y-86106000D02*
X123952000Y-102870000D01*
X123952000Y-102870000D02*
X123952000Y-106934000D01*
X123952000Y-106934000D02*
X123698000Y-107188000D01*
X123698000Y-107188000D02*
X123698000Y-109474000D01*
X123698000Y-109474000D02*
X123952000Y-109728000D01*
D18*
G04 #@! TO.N,BAT-*
X125222000Y-82550000D02*
X127254000Y-80518000D01*
X127254000Y-80518000D02*
X127254000Y-80264000D01*
X122428000Y-93218000D02*
X122682000Y-92964000D01*
X122682000Y-92964000D02*
X122682000Y-90170000D01*
X122682000Y-90170000D02*
X122682000Y-89154000D01*
X122682000Y-89154000D02*
X123190000Y-88646000D01*
X123190000Y-88646000D02*
X123190000Y-86614000D01*
X120396000Y-83820000D02*
X119045000Y-83820000D01*
X123190000Y-86614000D02*
X120396000Y-83820000D01*
X124968000Y-102870000D02*
X124968000Y-106172000D01*
X124968000Y-106172000D02*
X125476000Y-106680000D01*
X125476000Y-106680000D02*
X127762000Y-106680000D01*
X127762000Y-106680000D02*
X128016000Y-106934000D01*
X128016000Y-106934000D02*
X128016000Y-108458000D01*
X128016000Y-108458000D02*
X127000000Y-109474000D01*
X124968000Y-98552000D02*
X129794000Y-103378000D01*
X129794000Y-103378000D02*
X129794000Y-112776000D01*
X129794000Y-112776000D02*
X129032000Y-113538000D01*
X129032000Y-113538000D02*
X128016000Y-113538000D01*
X127000000Y-112522000D02*
X127000000Y-109474000D01*
X128016000Y-113538000D02*
X127000000Y-112522000D01*
X110490000Y-104648000D02*
X110490000Y-111760000D01*
X109220000Y-113030000D02*
X109220000Y-113665000D01*
X109347000Y-103505000D02*
X110490000Y-104648000D01*
X109220000Y-103505000D02*
X109347000Y-103505000D01*
X110490000Y-111760000D02*
X109220000Y-113030000D01*
G04 #@! TO.N,+5V*
X117602000Y-124666999D02*
X120668999Y-124666999D01*
X120668999Y-124666999D02*
X123698000Y-124666999D01*
X123698000Y-124666999D02*
X126746000Y-124666999D01*
X128270000Y-71882000D02*
X124714000Y-68326000D01*
X117348000Y-68326000D02*
X115570000Y-66548000D01*
X124714000Y-68326000D02*
X117348000Y-68326000D01*
X136398000Y-114300000D02*
X125984000Y-124714000D01*
X136398000Y-74422000D02*
X136398000Y-114300000D01*
X134874000Y-72898000D02*
X136398000Y-74422000D01*
G04 #@! TO.N,+3V3*
X121666000Y-89154000D02*
X116078000Y-89154000D01*
X124968000Y-90424000D02*
X125222000Y-90170000D01*
X125222000Y-90170000D02*
X129032000Y-90170000D01*
X125984000Y-102108000D02*
X124968000Y-101092000D01*
X125984000Y-105664000D02*
X125984000Y-102108000D01*
X122936000Y-98044000D02*
X122936000Y-101092000D01*
G04 #@! TO.N,Net-(J7-Pad2)*
X128524000Y-103124000D02*
X124968000Y-99568000D01*
X128524000Y-112268000D02*
X128524000Y-103124000D01*
G04 #@! TO.N,Net-(J2-Pad2)*
X107950000Y-117475000D02*
X109220000Y-118745000D01*
X114046000Y-65532000D02*
X114046000Y-67310000D01*
X115570000Y-64008000D02*
X114046000Y-65532000D01*
X114046000Y-67310000D02*
X112268000Y-69088000D01*
X112268000Y-69088000D02*
X108458000Y-69088000D01*
X108458000Y-69088000D02*
X107950000Y-69596000D01*
X107950000Y-69596000D02*
X107950000Y-117475000D01*
G04 #@! TO.N,ICSP_DAT*
X115316000Y-113030000D02*
X114300000Y-113030000D01*
X114300000Y-113030000D02*
X113284000Y-112014000D01*
X113284000Y-112014000D02*
X113284000Y-92710000D01*
X113284000Y-92710000D02*
X112522000Y-91948000D01*
X112522000Y-91948000D02*
X110490000Y-91948000D01*
G04 #@! TO.N,MCLR*
X114554000Y-78359000D02*
X111760000Y-75565000D01*
X114554000Y-85852000D02*
X114554000Y-78359000D01*
X120142000Y-87122000D02*
X115824000Y-87122000D01*
X115824000Y-87122000D02*
X114554000Y-85852000D01*
G04 #@! TO.N,ICSP_CLK*
X110490000Y-71755000D02*
X109220000Y-70485000D01*
X110490000Y-89154000D02*
X110490000Y-71755000D01*
X110744000Y-89408000D02*
X110490000Y-89154000D01*
X112522000Y-89408000D02*
X110744000Y-89408000D01*
X113030000Y-89916000D02*
X112522000Y-89408000D01*
X120904000Y-95504000D02*
X120904000Y-94234000D01*
X120396000Y-96012000D02*
X120904000Y-95504000D01*
X120904000Y-94234000D02*
X121666000Y-93472000D01*
X121666000Y-93472000D02*
X121666000Y-92202000D01*
X121666000Y-92202000D02*
X119380000Y-89916000D01*
X119380000Y-89916000D02*
X113030000Y-89916000D01*
G04 #@! TO.N,EN2*
X119888000Y-106934000D02*
X120142000Y-106680000D01*
X120142000Y-106680000D02*
X120142000Y-98552000D01*
X120142000Y-98552000D02*
X117856000Y-96266000D01*
X115824000Y-92964000D02*
X115824000Y-91948000D01*
X115824000Y-91948000D02*
X114554000Y-90678000D01*
X112903000Y-80645000D02*
X111760000Y-80645000D01*
X113538000Y-83820000D02*
X113538000Y-81280000D01*
X113538000Y-81280000D02*
X112903000Y-80645000D01*
G04 #@! TO.N,EN1*
X120142000Y-83058000D02*
X119380000Y-82296000D01*
X119380000Y-82296000D02*
X119380000Y-80264000D01*
X119380000Y-80264000D02*
X116078000Y-76962000D01*
G04 #@! TO.N,RES*
X111760000Y-111125000D02*
X111760000Y-111506000D01*
X111760000Y-111506000D02*
X110490000Y-112776000D01*
X110490000Y-112776000D02*
X110490000Y-119380000D01*
X110490000Y-119380000D02*
X111506000Y-120396000D01*
X111506000Y-120396000D02*
X112776000Y-120396000D01*
X112776000Y-120396000D02*
X114554000Y-122174000D01*
X114554000Y-122174000D02*
X114554000Y-125476000D01*
X114554000Y-125476000D02*
X115570000Y-126492000D01*
X115570000Y-126492000D02*
X126746000Y-126492000D01*
X126746000Y-126492000D02*
X130302000Y-122936000D01*
X130302000Y-122936000D02*
X130302000Y-121158000D01*
X130302000Y-121158000D02*
X132334000Y-119126000D01*
X132334000Y-119126000D02*
X133096000Y-119126000D01*
X133096000Y-115062000D02*
X133096000Y-97536000D01*
X133096000Y-97536000D02*
X129794000Y-94234000D01*
G04 #@! TO.N,SCL*
X111760000Y-113665000D02*
X111760000Y-113792000D01*
X111760000Y-113792000D02*
X115062000Y-117094000D01*
X115062000Y-117094000D02*
X115062000Y-122936000D01*
X115062000Y-122936000D02*
X115570000Y-123444000D01*
X115570000Y-123444000D02*
X126492000Y-123444000D01*
X126492000Y-123444000D02*
X131064000Y-118872000D01*
X131064000Y-118872000D02*
X131064000Y-99568000D01*
G04 #@! TO.N,SDA*
X125222000Y-87630000D02*
X128524000Y-87630000D01*
X128524000Y-87630000D02*
X130048000Y-89154000D01*
X130048000Y-89154000D02*
X130048000Y-90424000D01*
X130048000Y-90424000D02*
X128524000Y-91948000D01*
X128524000Y-95250000D02*
X130048000Y-96774000D01*
X128524000Y-91948000D02*
X128524000Y-95250000D01*
X121666000Y-88392000D02*
X122428000Y-87630000D01*
X113538000Y-88392000D02*
X121666000Y-88392000D01*
G04 #@! TO.N,INA2*
X126492000Y-84074000D02*
X125476000Y-85090000D01*
X125476000Y-85090000D02*
X124714000Y-85090000D01*
G04 #@! TO.N,INA3*
X127254000Y-107950000D02*
X127000000Y-107696000D01*
X127000000Y-107696000D02*
X124714000Y-107696000D01*
G04 #@! TO.N,PWM3*
X119380000Y-99822000D02*
X119126000Y-100076000D01*
X119126000Y-109982000D02*
X119380000Y-110236000D01*
X119126000Y-100076000D02*
X119126000Y-109982000D01*
G04 #@! TO.N,PWM4*
X118364000Y-100838000D02*
X118364000Y-104140000D01*
G04 #@! TO.N,PWM2*
X117856000Y-86106000D02*
X118110000Y-85852000D01*
X118110000Y-85852000D02*
X118110000Y-80772000D01*
G04 #@! TO.N,A1*
X114808000Y-110490000D02*
X114300000Y-110998000D01*
X114808000Y-95758000D02*
X114808000Y-110490000D01*
X117094000Y-93472000D02*
X114808000Y-95758000D01*
X119888000Y-92710000D02*
X119126000Y-93472000D01*
X119126000Y-93472000D02*
X117094000Y-93472000D01*
G04 #@! TO.N,B1*
X115316000Y-96012000D02*
X115316000Y-111252000D01*
X117348000Y-93980000D02*
X115316000Y-96012000D01*
X120904000Y-92964000D02*
X119888000Y-93980000D01*
X119888000Y-93980000D02*
X117348000Y-93980000D01*
G04 #@! TO.N,B2*
X118618000Y-118364000D02*
X119888000Y-119634000D01*
X118618000Y-115570000D02*
X118618000Y-118364000D01*
X116840000Y-110998000D02*
X117602000Y-111760000D01*
X117602000Y-111760000D02*
X118618000Y-111760000D01*
X116840000Y-95758000D02*
X116840000Y-110998000D01*
X118618000Y-111760000D02*
X119380000Y-112522000D01*
X119380000Y-112522000D02*
X119380000Y-114808000D01*
X119380000Y-114808000D02*
X118618000Y-115570000D01*
G04 #@! TO.N,A2*
X116078000Y-101092000D02*
X116078000Y-110998000D01*
X116078000Y-110998000D02*
X116586000Y-111506000D01*
X116586000Y-111506000D02*
X116586000Y-114300000D01*
X116586000Y-114300000D02*
X118110000Y-115824000D01*
X118110000Y-120396000D02*
X119888000Y-122174000D01*
X118110000Y-115824000D02*
X118110000Y-120396000D01*
G04 #@! TO.N,A3*
X121666000Y-96012000D02*
X121158000Y-96520000D01*
X121158000Y-96520000D02*
X121158000Y-111506000D01*
X121158000Y-111506000D02*
X124206000Y-114554000D01*
X124206000Y-120396000D02*
X125984000Y-122174000D01*
X124206000Y-114554000D02*
X124206000Y-120396000D01*
G04 #@! TO.N,B3*
X121920000Y-94488000D02*
X121920000Y-94996000D01*
X121920000Y-94996000D02*
X122682000Y-95758000D01*
X122682000Y-95758000D02*
X122682000Y-96774000D01*
X122682000Y-96774000D02*
X121920000Y-97536000D01*
X121920000Y-97536000D02*
X121920000Y-111506000D01*
X121920000Y-111506000D02*
X124714000Y-114300000D01*
X124714000Y-118364000D02*
X125984000Y-119634000D01*
X124714000Y-114300000D02*
X124714000Y-118364000D01*
G04 #@! TO.N,B4*
X120650000Y-97790000D02*
X120650000Y-111760000D01*
X120650000Y-111760000D02*
X121666000Y-112776000D01*
X121666000Y-118364000D02*
X122936000Y-119634000D01*
X121666000Y-112776000D02*
X121666000Y-118364000D01*
X118618000Y-94742000D02*
X119634000Y-95758000D01*
X119634000Y-96774000D02*
X120650000Y-97790000D01*
X119634000Y-95758000D02*
X119634000Y-96774000D01*
G04 #@! TO.N,A4*
X121158000Y-120396000D02*
X122936000Y-122174000D01*
X117602000Y-100076000D02*
X117348000Y-100330000D01*
X117348000Y-100330000D02*
X117348000Y-110490000D01*
X117348000Y-110490000D02*
X118110000Y-111252000D01*
X118110000Y-111252000D02*
X119380000Y-111252000D01*
X119380000Y-111252000D02*
X121158000Y-113030000D01*
X121158000Y-113030000D02*
X121158000Y-120396000D01*
G04 #@! TD*
D19*
G04 #@! TO.N,BAT-*
G36*
X128397744Y-90999455D02*
X128039530Y-91357669D01*
X127976071Y-91400071D01*
X127808096Y-91651464D01*
X127764000Y-91873149D01*
X127764000Y-91873153D01*
X127749112Y-91948000D01*
X127764000Y-92022847D01*
X127764001Y-95175148D01*
X127749112Y-95250000D01*
X127808097Y-95546537D01*
X127922713Y-95718071D01*
X127976072Y-95797929D01*
X128039528Y-95840329D01*
X129013000Y-96813802D01*
X129013000Y-96979874D01*
X129170569Y-97360280D01*
X129461720Y-97651431D01*
X129842126Y-97809000D01*
X130253874Y-97809000D01*
X130634280Y-97651431D01*
X130925431Y-97360280D01*
X131083000Y-96979874D01*
X131083000Y-96597802D01*
X132336001Y-97850803D01*
X132336001Y-101058404D01*
X132315711Y-101050000D01*
X131844289Y-101050000D01*
X131824000Y-101058404D01*
X131824000Y-100271711D01*
X131941431Y-100154280D01*
X132099000Y-99773874D01*
X132099000Y-99362126D01*
X131941431Y-98981720D01*
X131650280Y-98690569D01*
X131269874Y-98533000D01*
X130858126Y-98533000D01*
X130477720Y-98690569D01*
X130186569Y-98981720D01*
X130029000Y-99362126D01*
X130029000Y-99773874D01*
X130186569Y-100154280D01*
X130304001Y-100271712D01*
X130304000Y-118557197D01*
X127336287Y-121524912D01*
X127054625Y-121103375D01*
X126756239Y-120904000D01*
X127054625Y-120704625D01*
X127382839Y-120213418D01*
X127498092Y-119634000D01*
X127382839Y-119054582D01*
X127054625Y-118563375D01*
X126735522Y-118350157D01*
X126865358Y-118289183D01*
X127255645Y-117860924D01*
X127425476Y-117450890D01*
X127304155Y-117221000D01*
X126111000Y-117221000D01*
X126111000Y-117241000D01*
X125857000Y-117241000D01*
X125857000Y-117221000D01*
X125837000Y-117221000D01*
X125837000Y-116967000D01*
X125857000Y-116967000D01*
X125857000Y-115773181D01*
X126111000Y-115773181D01*
X126111000Y-116967000D01*
X127304155Y-116967000D01*
X127425476Y-116737110D01*
X127255645Y-116327076D01*
X126865358Y-115898817D01*
X126340892Y-115652514D01*
X126111000Y-115773181D01*
X125857000Y-115773181D01*
X125627108Y-115652514D01*
X125474000Y-115724418D01*
X125474000Y-114374848D01*
X125488888Y-114300000D01*
X125474000Y-114225152D01*
X125474000Y-114225148D01*
X125429904Y-114003463D01*
X125429904Y-114003462D01*
X125304329Y-113815527D01*
X125261929Y-113752071D01*
X125198473Y-113709671D01*
X122680000Y-111191199D01*
X122680000Y-102106237D01*
X122730126Y-102127000D01*
X123067001Y-102127000D01*
X123067001Y-102301991D01*
X122917000Y-102664126D01*
X122917000Y-103075874D01*
X123067000Y-103438007D01*
X123067001Y-106545240D01*
X123059951Y-106549951D01*
X122864348Y-106842691D01*
X122813000Y-107100836D01*
X122813000Y-107100839D01*
X122795663Y-107188000D01*
X122813000Y-107275161D01*
X122813001Y-109386835D01*
X122795663Y-109474000D01*
X122864348Y-109819309D01*
X122917000Y-109898108D01*
X122917000Y-109933874D01*
X123074569Y-110314280D01*
X123365720Y-110605431D01*
X123746126Y-110763000D01*
X124157874Y-110763000D01*
X124538280Y-110605431D01*
X124829431Y-110314280D01*
X124987000Y-109933874D01*
X124987000Y-109522126D01*
X124829431Y-109141720D01*
X124583000Y-108895289D01*
X124583000Y-108731000D01*
X124919874Y-108731000D01*
X125300280Y-108573431D01*
X125417711Y-108456000D01*
X126343316Y-108456000D01*
X126376569Y-108536280D01*
X126667720Y-108827431D01*
X127048126Y-108985000D01*
X127459874Y-108985000D01*
X127764000Y-108859027D01*
X127764000Y-111564289D01*
X127646569Y-111681720D01*
X127489000Y-112062126D01*
X127489000Y-112473874D01*
X127646569Y-112854280D01*
X127937720Y-113145431D01*
X128318126Y-113303000D01*
X128729874Y-113303000D01*
X129110280Y-113145431D01*
X129401431Y-112854280D01*
X129559000Y-112473874D01*
X129559000Y-112062126D01*
X129401431Y-111681720D01*
X129284000Y-111564289D01*
X129284000Y-103198846D01*
X129298888Y-103123999D01*
X129284000Y-103049152D01*
X129284000Y-103049148D01*
X129239904Y-102827463D01*
X129163865Y-102713663D01*
X129114329Y-102639526D01*
X129114327Y-102639524D01*
X129071929Y-102576071D01*
X129008476Y-102533673D01*
X125940826Y-99466025D01*
X125845431Y-99235720D01*
X125554280Y-98944569D01*
X125173874Y-98787000D01*
X124837000Y-98787000D01*
X124837000Y-91459000D01*
X125173874Y-91459000D01*
X125554280Y-91301431D01*
X125845431Y-91010280D01*
X125878684Y-90930000D01*
X128328289Y-90930000D01*
X128397744Y-90999455D01*
X128397744Y-90999455D01*
G37*
X128397744Y-90999455D02*
X128039530Y-91357669D01*
X127976071Y-91400071D01*
X127808096Y-91651464D01*
X127764000Y-91873149D01*
X127764000Y-91873153D01*
X127749112Y-91948000D01*
X127764000Y-92022847D01*
X127764001Y-95175148D01*
X127749112Y-95250000D01*
X127808097Y-95546537D01*
X127922713Y-95718071D01*
X127976072Y-95797929D01*
X128039528Y-95840329D01*
X129013000Y-96813802D01*
X129013000Y-96979874D01*
X129170569Y-97360280D01*
X129461720Y-97651431D01*
X129842126Y-97809000D01*
X130253874Y-97809000D01*
X130634280Y-97651431D01*
X130925431Y-97360280D01*
X131083000Y-96979874D01*
X131083000Y-96597802D01*
X132336001Y-97850803D01*
X132336001Y-101058404D01*
X132315711Y-101050000D01*
X131844289Y-101050000D01*
X131824000Y-101058404D01*
X131824000Y-100271711D01*
X131941431Y-100154280D01*
X132099000Y-99773874D01*
X132099000Y-99362126D01*
X131941431Y-98981720D01*
X131650280Y-98690569D01*
X131269874Y-98533000D01*
X130858126Y-98533000D01*
X130477720Y-98690569D01*
X130186569Y-98981720D01*
X130029000Y-99362126D01*
X130029000Y-99773874D01*
X130186569Y-100154280D01*
X130304001Y-100271712D01*
X130304000Y-118557197D01*
X127336287Y-121524912D01*
X127054625Y-121103375D01*
X126756239Y-120904000D01*
X127054625Y-120704625D01*
X127382839Y-120213418D01*
X127498092Y-119634000D01*
X127382839Y-119054582D01*
X127054625Y-118563375D01*
X126735522Y-118350157D01*
X126865358Y-118289183D01*
X127255645Y-117860924D01*
X127425476Y-117450890D01*
X127304155Y-117221000D01*
X126111000Y-117221000D01*
X126111000Y-117241000D01*
X125857000Y-117241000D01*
X125857000Y-117221000D01*
X125837000Y-117221000D01*
X125837000Y-116967000D01*
X125857000Y-116967000D01*
X125857000Y-115773181D01*
X126111000Y-115773181D01*
X126111000Y-116967000D01*
X127304155Y-116967000D01*
X127425476Y-116737110D01*
X127255645Y-116327076D01*
X126865358Y-115898817D01*
X126340892Y-115652514D01*
X126111000Y-115773181D01*
X125857000Y-115773181D01*
X125627108Y-115652514D01*
X125474000Y-115724418D01*
X125474000Y-114374848D01*
X125488888Y-114300000D01*
X125474000Y-114225152D01*
X125474000Y-114225148D01*
X125429904Y-114003463D01*
X125429904Y-114003462D01*
X125304329Y-113815527D01*
X125261929Y-113752071D01*
X125198473Y-113709671D01*
X122680000Y-111191199D01*
X122680000Y-102106237D01*
X122730126Y-102127000D01*
X123067001Y-102127000D01*
X123067001Y-102301991D01*
X122917000Y-102664126D01*
X122917000Y-103075874D01*
X123067000Y-103438007D01*
X123067001Y-106545240D01*
X123059951Y-106549951D01*
X122864348Y-106842691D01*
X122813000Y-107100836D01*
X122813000Y-107100839D01*
X122795663Y-107188000D01*
X122813000Y-107275161D01*
X122813001Y-109386835D01*
X122795663Y-109474000D01*
X122864348Y-109819309D01*
X122917000Y-109898108D01*
X122917000Y-109933874D01*
X123074569Y-110314280D01*
X123365720Y-110605431D01*
X123746126Y-110763000D01*
X124157874Y-110763000D01*
X124538280Y-110605431D01*
X124829431Y-110314280D01*
X124987000Y-109933874D01*
X124987000Y-109522126D01*
X124829431Y-109141720D01*
X124583000Y-108895289D01*
X124583000Y-108731000D01*
X124919874Y-108731000D01*
X125300280Y-108573431D01*
X125417711Y-108456000D01*
X126343316Y-108456000D01*
X126376569Y-108536280D01*
X126667720Y-108827431D01*
X127048126Y-108985000D01*
X127459874Y-108985000D01*
X127764000Y-108859027D01*
X127764000Y-111564289D01*
X127646569Y-111681720D01*
X127489000Y-112062126D01*
X127489000Y-112473874D01*
X127646569Y-112854280D01*
X127937720Y-113145431D01*
X128318126Y-113303000D01*
X128729874Y-113303000D01*
X129110280Y-113145431D01*
X129401431Y-112854280D01*
X129559000Y-112473874D01*
X129559000Y-112062126D01*
X129401431Y-111681720D01*
X129284000Y-111564289D01*
X129284000Y-103198846D01*
X129298888Y-103123999D01*
X129284000Y-103049152D01*
X129284000Y-103049148D01*
X129239904Y-102827463D01*
X129163865Y-102713663D01*
X129114329Y-102639526D01*
X129114327Y-102639524D01*
X129071929Y-102576071D01*
X129008476Y-102533673D01*
X125940826Y-99466025D01*
X125845431Y-99235720D01*
X125554280Y-98944569D01*
X125173874Y-98787000D01*
X124837000Y-98787000D01*
X124837000Y-91459000D01*
X125173874Y-91459000D01*
X125554280Y-91301431D01*
X125845431Y-91010280D01*
X125878684Y-90930000D01*
X128328289Y-90930000D01*
X128397744Y-90999455D01*
G36*
X116967000Y-116967000D02*
X116987000Y-116967000D01*
X116987000Y-117221000D01*
X116967000Y-117221000D01*
X116967000Y-117241000D01*
X116713000Y-117241000D01*
X116713000Y-117221000D01*
X116693000Y-117221000D01*
X116693000Y-116967000D01*
X116713000Y-116967000D01*
X116713000Y-116947000D01*
X116967000Y-116947000D01*
X116967000Y-116967000D01*
X116967000Y-116967000D01*
G37*
X116967000Y-116967000D02*
X116987000Y-116967000D01*
X116987000Y-117221000D01*
X116967000Y-117221000D01*
X116967000Y-117241000D01*
X116713000Y-117241000D01*
X116713000Y-117221000D01*
X116693000Y-117221000D01*
X116693000Y-116967000D01*
X116713000Y-116967000D01*
X116713000Y-116947000D01*
X116967000Y-116947000D01*
X116967000Y-116967000D01*
G36*
X120398000Y-113344802D02*
X120398000Y-115724418D01*
X120244892Y-115652514D01*
X120015000Y-115773181D01*
X120015000Y-116967000D01*
X120035000Y-116967000D01*
X120035000Y-117221000D01*
X120015000Y-117221000D01*
X120015000Y-117241000D01*
X119761000Y-117241000D01*
X119761000Y-117221000D01*
X119741000Y-117221000D01*
X119741000Y-116967000D01*
X119761000Y-116967000D01*
X119761000Y-115773181D01*
X119583033Y-115679769D01*
X119864473Y-115398329D01*
X119927929Y-115355929D01*
X119970924Y-115291582D01*
X120095904Y-115104538D01*
X120107476Y-115046362D01*
X120140000Y-114882852D01*
X120140000Y-114882848D01*
X120154888Y-114808000D01*
X120140000Y-114733152D01*
X120140000Y-113086802D01*
X120398000Y-113344802D01*
X120398000Y-113344802D01*
G37*
X120398000Y-113344802D02*
X120398000Y-115724418D01*
X120244892Y-115652514D01*
X120015000Y-115773181D01*
X120015000Y-116967000D01*
X120035000Y-116967000D01*
X120035000Y-117221000D01*
X120015000Y-117221000D01*
X120015000Y-117241000D01*
X119761000Y-117241000D01*
X119761000Y-117221000D01*
X119741000Y-117221000D01*
X119741000Y-116967000D01*
X119761000Y-116967000D01*
X119761000Y-115773181D01*
X119583033Y-115679769D01*
X119864473Y-115398329D01*
X119927929Y-115355929D01*
X119970924Y-115291582D01*
X120095904Y-115104538D01*
X120107476Y-115046362D01*
X120140000Y-114882852D01*
X120140000Y-114882848D01*
X120154888Y-114808000D01*
X120140000Y-114733152D01*
X120140000Y-113086802D01*
X120398000Y-113344802D01*
G36*
X123446000Y-114868802D02*
X123446000Y-115724418D01*
X123292892Y-115652514D01*
X123063000Y-115773181D01*
X123063000Y-116967000D01*
X123083000Y-116967000D01*
X123083000Y-117221000D01*
X123063000Y-117221000D01*
X123063000Y-117241000D01*
X122809000Y-117241000D01*
X122809000Y-117221000D01*
X122789000Y-117221000D01*
X122789000Y-116967000D01*
X122809000Y-116967000D01*
X122809000Y-115773181D01*
X122579108Y-115652514D01*
X122426000Y-115724418D01*
X122426000Y-113848802D01*
X123446000Y-114868802D01*
X123446000Y-114868802D01*
G37*
X123446000Y-114868802D02*
X123446000Y-115724418D01*
X123292892Y-115652514D01*
X123063000Y-115773181D01*
X123063000Y-116967000D01*
X123083000Y-116967000D01*
X123083000Y-117221000D01*
X123063000Y-117221000D01*
X123063000Y-117241000D01*
X122809000Y-117241000D01*
X122809000Y-117221000D01*
X122789000Y-117221000D01*
X122789000Y-116967000D01*
X122809000Y-116967000D01*
X122809000Y-115773181D01*
X122579108Y-115652514D01*
X122426000Y-115724418D01*
X122426000Y-113848802D01*
X123446000Y-114868802D01*
G36*
X109413748Y-113650858D02*
X109399605Y-113665000D01*
X109413748Y-113679143D01*
X109234143Y-113858748D01*
X109220000Y-113844605D01*
X109205858Y-113858748D01*
X109026253Y-113679143D01*
X109040395Y-113665000D01*
X109026253Y-113650858D01*
X109205858Y-113471253D01*
X109220000Y-113485395D01*
X109234143Y-113471253D01*
X109413748Y-113650858D01*
X109413748Y-113650858D01*
G37*
X109413748Y-113650858D02*
X109399605Y-113665000D01*
X109413748Y-113679143D01*
X109234143Y-113858748D01*
X109220000Y-113844605D01*
X109205858Y-113858748D01*
X109026253Y-113679143D01*
X109040395Y-113665000D01*
X109026253Y-113650858D01*
X109205858Y-113471253D01*
X109220000Y-113485395D01*
X109234143Y-113471253D01*
X109413748Y-113650858D01*
G36*
X125224001Y-102422803D02*
X125224000Y-104960289D01*
X125106569Y-105077720D01*
X124949000Y-105458126D01*
X124949000Y-105869874D01*
X125106569Y-106250280D01*
X125397720Y-106541431D01*
X125778126Y-106699000D01*
X126189874Y-106699000D01*
X126570280Y-106541431D01*
X126861431Y-106250280D01*
X127019000Y-105869874D01*
X127019000Y-105458126D01*
X126861431Y-105077720D01*
X126744000Y-104960289D01*
X126744000Y-102418802D01*
X127764001Y-103438804D01*
X127764001Y-107040973D01*
X127459874Y-106915000D01*
X127048126Y-106915000D01*
X127022544Y-106925596D01*
X127000000Y-106921112D01*
X126925153Y-106936000D01*
X125417711Y-106936000D01*
X125300280Y-106818569D01*
X124919874Y-106661000D01*
X124837000Y-106661000D01*
X124837000Y-103438007D01*
X124987000Y-103075874D01*
X124987000Y-102664126D01*
X124837000Y-102301993D01*
X124837000Y-102127000D01*
X124928199Y-102127000D01*
X125224001Y-102422803D01*
X125224001Y-102422803D01*
G37*
X125224001Y-102422803D02*
X125224000Y-104960289D01*
X125106569Y-105077720D01*
X124949000Y-105458126D01*
X124949000Y-105869874D01*
X125106569Y-106250280D01*
X125397720Y-106541431D01*
X125778126Y-106699000D01*
X126189874Y-106699000D01*
X126570280Y-106541431D01*
X126861431Y-106250280D01*
X127019000Y-105869874D01*
X127019000Y-105458126D01*
X126861431Y-105077720D01*
X126744000Y-104960289D01*
X126744000Y-102418802D01*
X127764001Y-103438804D01*
X127764001Y-107040973D01*
X127459874Y-106915000D01*
X127048126Y-106915000D01*
X127022544Y-106925596D01*
X127000000Y-106921112D01*
X126925153Y-106936000D01*
X125417711Y-106936000D01*
X125300280Y-106818569D01*
X124919874Y-106661000D01*
X124837000Y-106661000D01*
X124837000Y-103438007D01*
X124987000Y-103075874D01*
X124987000Y-102664126D01*
X124837000Y-102301993D01*
X124837000Y-102127000D01*
X124928199Y-102127000D01*
X125224001Y-102422803D01*
G36*
X110575680Y-101756337D02*
X110968663Y-102149320D01*
X111175513Y-102235000D01*
X110968663Y-102320680D01*
X110575680Y-102713663D01*
X110496572Y-102904647D01*
X110442397Y-102773857D01*
X110200213Y-102704392D01*
X109399605Y-103505000D01*
X110200213Y-104305608D01*
X110442397Y-104236143D01*
X110492535Y-104095607D01*
X110575680Y-104296337D01*
X110968663Y-104689320D01*
X111175513Y-104775000D01*
X110968663Y-104860680D01*
X110575680Y-105253663D01*
X110490000Y-105460513D01*
X110404320Y-105253663D01*
X110011337Y-104860680D01*
X109820353Y-104781572D01*
X109951143Y-104727397D01*
X110020608Y-104485213D01*
X109220000Y-103684605D01*
X109205858Y-103698748D01*
X109026253Y-103519143D01*
X109040395Y-103505000D01*
X109026253Y-103490858D01*
X109205858Y-103311253D01*
X109220000Y-103325395D01*
X110020608Y-102524787D01*
X109951143Y-102282603D01*
X109810607Y-102232465D01*
X110011337Y-102149320D01*
X110404320Y-101756337D01*
X110490000Y-101549487D01*
X110575680Y-101756337D01*
X110575680Y-101756337D01*
G37*
X110575680Y-101756337D02*
X110968663Y-102149320D01*
X111175513Y-102235000D01*
X110968663Y-102320680D01*
X110575680Y-102713663D01*
X110496572Y-102904647D01*
X110442397Y-102773857D01*
X110200213Y-102704392D01*
X109399605Y-103505000D01*
X110200213Y-104305608D01*
X110442397Y-104236143D01*
X110492535Y-104095607D01*
X110575680Y-104296337D01*
X110968663Y-104689320D01*
X111175513Y-104775000D01*
X110968663Y-104860680D01*
X110575680Y-105253663D01*
X110490000Y-105460513D01*
X110404320Y-105253663D01*
X110011337Y-104860680D01*
X109820353Y-104781572D01*
X109951143Y-104727397D01*
X110020608Y-104485213D01*
X109220000Y-103684605D01*
X109205858Y-103698748D01*
X109026253Y-103519143D01*
X109040395Y-103505000D01*
X109026253Y-103490858D01*
X109205858Y-103311253D01*
X109220000Y-103325395D01*
X110020608Y-102524787D01*
X109951143Y-102282603D01*
X109810607Y-102232465D01*
X110011337Y-102149320D01*
X110404320Y-101756337D01*
X110490000Y-101549487D01*
X110575680Y-101756337D01*
G36*
X130903396Y-63345938D02*
X130350000Y-64681954D01*
X130350000Y-66128046D01*
X130903396Y-67464062D01*
X131925938Y-68486604D01*
X133261954Y-69040000D01*
X134708046Y-69040000D01*
X136044062Y-68486604D01*
X136450000Y-68080666D01*
X136450000Y-73399198D01*
X135909000Y-72858198D01*
X135909000Y-72692126D01*
X135751431Y-72311720D01*
X135460280Y-72020569D01*
X135079874Y-71863000D01*
X134668126Y-71863000D01*
X134287720Y-72020569D01*
X133996569Y-72311720D01*
X133839000Y-72692126D01*
X133839000Y-73103874D01*
X133996569Y-73484280D01*
X134287720Y-73775431D01*
X134668126Y-73933000D01*
X134834198Y-73933000D01*
X135638000Y-74736803D01*
X135638000Y-76992560D01*
X133520000Y-76992560D01*
X133272235Y-77041843D01*
X133062191Y-77182191D01*
X132921843Y-77392235D01*
X132872560Y-77640000D01*
X132872560Y-77856716D01*
X132751249Y-77735405D01*
X132315711Y-77555000D01*
X131844289Y-77555000D01*
X131408751Y-77735405D01*
X131075405Y-78068751D01*
X130895000Y-78504289D01*
X130895000Y-78975711D01*
X131075405Y-79411249D01*
X131408751Y-79744595D01*
X131844289Y-79925000D01*
X132315711Y-79925000D01*
X132751249Y-79744595D01*
X132872560Y-79623284D01*
X132872560Y-79840000D01*
X132921843Y-80087765D01*
X133062191Y-80297809D01*
X133130093Y-80343180D01*
X133038983Y-80563139D01*
X132751249Y-80275405D01*
X132315711Y-80095000D01*
X131844289Y-80095000D01*
X131408751Y-80275405D01*
X131075405Y-80608751D01*
X130895000Y-81044289D01*
X130895000Y-81515711D01*
X131075405Y-81951249D01*
X131408751Y-82284595D01*
X131844289Y-82465000D01*
X132315711Y-82465000D01*
X132751249Y-82284595D01*
X133038983Y-81996861D01*
X133149138Y-82262799D01*
X133593899Y-82707560D01*
X133520000Y-82707560D01*
X133272235Y-82756843D01*
X133062191Y-82897191D01*
X132921843Y-83107235D01*
X132872560Y-83355000D01*
X132872560Y-83571716D01*
X132751249Y-83450405D01*
X132315711Y-83270000D01*
X131844289Y-83270000D01*
X131408751Y-83450405D01*
X131075405Y-83783751D01*
X130895000Y-84219289D01*
X130895000Y-84690711D01*
X131075405Y-85126249D01*
X131408751Y-85459595D01*
X131844289Y-85640000D01*
X132315711Y-85640000D01*
X132751249Y-85459595D01*
X132872560Y-85338284D01*
X132872560Y-85555000D01*
X132921843Y-85802765D01*
X133062191Y-86012809D01*
X133130093Y-86058180D01*
X133038983Y-86278139D01*
X132751249Y-85990405D01*
X132315711Y-85810000D01*
X131844289Y-85810000D01*
X131408751Y-85990405D01*
X131075405Y-86323751D01*
X130895000Y-86759289D01*
X130895000Y-87230711D01*
X131075405Y-87666249D01*
X131408751Y-87999595D01*
X131844289Y-88180000D01*
X132315711Y-88180000D01*
X132751249Y-87999595D01*
X133038983Y-87711861D01*
X133149138Y-87977799D01*
X133637201Y-88465862D01*
X134274887Y-88730000D01*
X134965113Y-88730000D01*
X135602799Y-88465862D01*
X135638000Y-88430661D01*
X135638001Y-100487560D01*
X133856000Y-100487560D01*
X133856000Y-97610846D01*
X133870888Y-97535999D01*
X133856000Y-97461152D01*
X133856000Y-97461148D01*
X133811904Y-97239463D01*
X133643929Y-96988071D01*
X133580473Y-96945671D01*
X130829000Y-94194199D01*
X130829000Y-94028126D01*
X130671431Y-93647720D01*
X130380280Y-93356569D01*
X129999874Y-93199000D01*
X129588126Y-93199000D01*
X129284000Y-93324973D01*
X129284000Y-92262801D01*
X130532476Y-91014327D01*
X130595929Y-90971929D01*
X130638327Y-90908476D01*
X130638329Y-90908474D01*
X130763903Y-90720538D01*
X130763904Y-90720537D01*
X130808000Y-90498852D01*
X130808000Y-90498848D01*
X130822888Y-90424001D01*
X130808000Y-90349154D01*
X130808000Y-89228846D01*
X130822888Y-89153999D01*
X130808000Y-89079152D01*
X130808000Y-89079148D01*
X130763904Y-88857463D01*
X130653410Y-88692097D01*
X130638329Y-88669526D01*
X130638327Y-88669524D01*
X130595929Y-88606071D01*
X130532476Y-88563673D01*
X129114331Y-87145530D01*
X129071929Y-87082071D01*
X128820537Y-86914096D01*
X128598852Y-86870000D01*
X128598847Y-86870000D01*
X128524000Y-86855112D01*
X128449153Y-86870000D01*
X125925711Y-86870000D01*
X125808280Y-86752569D01*
X125427874Y-86595000D01*
X125016126Y-86595000D01*
X124839405Y-86668200D01*
X124987000Y-86311874D01*
X124987000Y-86097196D01*
X125300280Y-85967431D01*
X125414964Y-85852747D01*
X125476000Y-85864888D01*
X125550847Y-85850000D01*
X125550852Y-85850000D01*
X125772537Y-85805904D01*
X126023929Y-85637929D01*
X126066331Y-85574470D01*
X126593976Y-85046826D01*
X126824280Y-84951431D01*
X127115431Y-84660280D01*
X127273000Y-84279874D01*
X127273000Y-83868126D01*
X127115431Y-83487720D01*
X126824280Y-83196569D01*
X126443874Y-83039000D01*
X126032126Y-83039000D01*
X125651720Y-83196569D01*
X125360569Y-83487720D01*
X125203000Y-83868126D01*
X125203000Y-84172274D01*
X124919874Y-84055000D01*
X124837000Y-84055000D01*
X124837000Y-80578007D01*
X124987000Y-80215874D01*
X124987000Y-79804126D01*
X124837000Y-79441993D01*
X124837000Y-71232578D01*
X124938148Y-71131431D01*
X125300280Y-70981431D01*
X125591431Y-70690280D01*
X125712117Y-70398919D01*
X127235000Y-71921803D01*
X127235000Y-72087874D01*
X127392569Y-72468280D01*
X127683720Y-72759431D01*
X128064126Y-72917000D01*
X128475874Y-72917000D01*
X128856280Y-72759431D01*
X129147431Y-72468280D01*
X129305000Y-72087874D01*
X129305000Y-71676126D01*
X129147431Y-71295720D01*
X128856280Y-71004569D01*
X128475874Y-70847000D01*
X128309803Y-70847000D01*
X125304331Y-67841530D01*
X125261929Y-67778071D01*
X125010537Y-67610096D01*
X124957331Y-67599513D01*
X125083595Y-67473249D01*
X125264000Y-67037711D01*
X125264000Y-66566289D01*
X125083595Y-66130751D01*
X124803761Y-65850917D01*
X125013359Y-65764099D01*
X125124263Y-65486868D01*
X124079000Y-64441605D01*
X124064858Y-64455748D01*
X123885253Y-64276143D01*
X123899395Y-64262000D01*
X124258605Y-64262000D01*
X125303868Y-65307263D01*
X125581099Y-65196359D01*
X125824323Y-64550407D01*
X125801836Y-63860547D01*
X125581099Y-63327641D01*
X125303868Y-63216737D01*
X124258605Y-64262000D01*
X123899395Y-64262000D01*
X123885253Y-64247858D01*
X124064858Y-64068253D01*
X124079000Y-64082395D01*
X125124263Y-63037132D01*
X125085406Y-62940000D01*
X131309334Y-62940000D01*
X130903396Y-63345938D01*
X130903396Y-63345938D01*
G37*
X130903396Y-63345938D02*
X130350000Y-64681954D01*
X130350000Y-66128046D01*
X130903396Y-67464062D01*
X131925938Y-68486604D01*
X133261954Y-69040000D01*
X134708046Y-69040000D01*
X136044062Y-68486604D01*
X136450000Y-68080666D01*
X136450000Y-73399198D01*
X135909000Y-72858198D01*
X135909000Y-72692126D01*
X135751431Y-72311720D01*
X135460280Y-72020569D01*
X135079874Y-71863000D01*
X134668126Y-71863000D01*
X134287720Y-72020569D01*
X133996569Y-72311720D01*
X133839000Y-72692126D01*
X133839000Y-73103874D01*
X133996569Y-73484280D01*
X134287720Y-73775431D01*
X134668126Y-73933000D01*
X134834198Y-73933000D01*
X135638000Y-74736803D01*
X135638000Y-76992560D01*
X133520000Y-76992560D01*
X133272235Y-77041843D01*
X133062191Y-77182191D01*
X132921843Y-77392235D01*
X132872560Y-77640000D01*
X132872560Y-77856716D01*
X132751249Y-77735405D01*
X132315711Y-77555000D01*
X131844289Y-77555000D01*
X131408751Y-77735405D01*
X131075405Y-78068751D01*
X130895000Y-78504289D01*
X130895000Y-78975711D01*
X131075405Y-79411249D01*
X131408751Y-79744595D01*
X131844289Y-79925000D01*
X132315711Y-79925000D01*
X132751249Y-79744595D01*
X132872560Y-79623284D01*
X132872560Y-79840000D01*
X132921843Y-80087765D01*
X133062191Y-80297809D01*
X133130093Y-80343180D01*
X133038983Y-80563139D01*
X132751249Y-80275405D01*
X132315711Y-80095000D01*
X131844289Y-80095000D01*
X131408751Y-80275405D01*
X131075405Y-80608751D01*
X130895000Y-81044289D01*
X130895000Y-81515711D01*
X131075405Y-81951249D01*
X131408751Y-82284595D01*
X131844289Y-82465000D01*
X132315711Y-82465000D01*
X132751249Y-82284595D01*
X133038983Y-81996861D01*
X133149138Y-82262799D01*
X133593899Y-82707560D01*
X133520000Y-82707560D01*
X133272235Y-82756843D01*
X133062191Y-82897191D01*
X132921843Y-83107235D01*
X132872560Y-83355000D01*
X132872560Y-83571716D01*
X132751249Y-83450405D01*
X132315711Y-83270000D01*
X131844289Y-83270000D01*
X131408751Y-83450405D01*
X131075405Y-83783751D01*
X130895000Y-84219289D01*
X130895000Y-84690711D01*
X131075405Y-85126249D01*
X131408751Y-85459595D01*
X131844289Y-85640000D01*
X132315711Y-85640000D01*
X132751249Y-85459595D01*
X132872560Y-85338284D01*
X132872560Y-85555000D01*
X132921843Y-85802765D01*
X133062191Y-86012809D01*
X133130093Y-86058180D01*
X133038983Y-86278139D01*
X132751249Y-85990405D01*
X132315711Y-85810000D01*
X131844289Y-85810000D01*
X131408751Y-85990405D01*
X131075405Y-86323751D01*
X130895000Y-86759289D01*
X130895000Y-87230711D01*
X131075405Y-87666249D01*
X131408751Y-87999595D01*
X131844289Y-88180000D01*
X132315711Y-88180000D01*
X132751249Y-87999595D01*
X133038983Y-87711861D01*
X133149138Y-87977799D01*
X133637201Y-88465862D01*
X134274887Y-88730000D01*
X134965113Y-88730000D01*
X135602799Y-88465862D01*
X135638000Y-88430661D01*
X135638001Y-100487560D01*
X133856000Y-100487560D01*
X133856000Y-97610846D01*
X133870888Y-97535999D01*
X133856000Y-97461152D01*
X133856000Y-97461148D01*
X133811904Y-97239463D01*
X133643929Y-96988071D01*
X133580473Y-96945671D01*
X130829000Y-94194199D01*
X130829000Y-94028126D01*
X130671431Y-93647720D01*
X130380280Y-93356569D01*
X129999874Y-93199000D01*
X129588126Y-93199000D01*
X129284000Y-93324973D01*
X129284000Y-92262801D01*
X130532476Y-91014327D01*
X130595929Y-90971929D01*
X130638327Y-90908476D01*
X130638329Y-90908474D01*
X130763903Y-90720538D01*
X130763904Y-90720537D01*
X130808000Y-90498852D01*
X130808000Y-90498848D01*
X130822888Y-90424001D01*
X130808000Y-90349154D01*
X130808000Y-89228846D01*
X130822888Y-89153999D01*
X130808000Y-89079152D01*
X130808000Y-89079148D01*
X130763904Y-88857463D01*
X130653410Y-88692097D01*
X130638329Y-88669526D01*
X130638327Y-88669524D01*
X130595929Y-88606071D01*
X130532476Y-88563673D01*
X129114331Y-87145530D01*
X129071929Y-87082071D01*
X128820537Y-86914096D01*
X128598852Y-86870000D01*
X128598847Y-86870000D01*
X128524000Y-86855112D01*
X128449153Y-86870000D01*
X125925711Y-86870000D01*
X125808280Y-86752569D01*
X125427874Y-86595000D01*
X125016126Y-86595000D01*
X124839405Y-86668200D01*
X124987000Y-86311874D01*
X124987000Y-86097196D01*
X125300280Y-85967431D01*
X125414964Y-85852747D01*
X125476000Y-85864888D01*
X125550847Y-85850000D01*
X125550852Y-85850000D01*
X125772537Y-85805904D01*
X126023929Y-85637929D01*
X126066331Y-85574470D01*
X126593976Y-85046826D01*
X126824280Y-84951431D01*
X127115431Y-84660280D01*
X127273000Y-84279874D01*
X127273000Y-83868126D01*
X127115431Y-83487720D01*
X126824280Y-83196569D01*
X126443874Y-83039000D01*
X126032126Y-83039000D01*
X125651720Y-83196569D01*
X125360569Y-83487720D01*
X125203000Y-83868126D01*
X125203000Y-84172274D01*
X124919874Y-84055000D01*
X124837000Y-84055000D01*
X124837000Y-80578007D01*
X124987000Y-80215874D01*
X124987000Y-79804126D01*
X124837000Y-79441993D01*
X124837000Y-71232578D01*
X124938148Y-71131431D01*
X125300280Y-70981431D01*
X125591431Y-70690280D01*
X125712117Y-70398919D01*
X127235000Y-71921803D01*
X127235000Y-72087874D01*
X127392569Y-72468280D01*
X127683720Y-72759431D01*
X128064126Y-72917000D01*
X128475874Y-72917000D01*
X128856280Y-72759431D01*
X129147431Y-72468280D01*
X129305000Y-72087874D01*
X129305000Y-71676126D01*
X129147431Y-71295720D01*
X128856280Y-71004569D01*
X128475874Y-70847000D01*
X128309803Y-70847000D01*
X125304331Y-67841530D01*
X125261929Y-67778071D01*
X125010537Y-67610096D01*
X124957331Y-67599513D01*
X125083595Y-67473249D01*
X125264000Y-67037711D01*
X125264000Y-66566289D01*
X125083595Y-66130751D01*
X124803761Y-65850917D01*
X125013359Y-65764099D01*
X125124263Y-65486868D01*
X124079000Y-64441605D01*
X124064858Y-64455748D01*
X123885253Y-64276143D01*
X123899395Y-64262000D01*
X124258605Y-64262000D01*
X125303868Y-65307263D01*
X125581099Y-65196359D01*
X125824323Y-64550407D01*
X125801836Y-63860547D01*
X125581099Y-63327641D01*
X125303868Y-63216737D01*
X124258605Y-64262000D01*
X123899395Y-64262000D01*
X123885253Y-64247858D01*
X124064858Y-64068253D01*
X124079000Y-64082395D01*
X125124263Y-63037132D01*
X125085406Y-62940000D01*
X131309334Y-62940000D01*
X130903396Y-63345938D01*
G36*
X123067001Y-95068199D02*
X122878167Y-94879366D01*
X122955000Y-94693874D01*
X122955000Y-94282126D01*
X122797431Y-93901720D01*
X122506280Y-93610569D01*
X122420402Y-93574997D01*
X122426000Y-93546852D01*
X122426000Y-93546848D01*
X122440888Y-93472000D01*
X122426000Y-93397152D01*
X122426000Y-92276846D01*
X122440888Y-92201999D01*
X122426000Y-92127152D01*
X122426000Y-92127148D01*
X122381904Y-91905463D01*
X122213929Y-91654071D01*
X122150473Y-91611671D01*
X120452801Y-89914000D01*
X120962289Y-89914000D01*
X121079720Y-90031431D01*
X121460126Y-90189000D01*
X121871874Y-90189000D01*
X122252280Y-90031431D01*
X122543431Y-89740280D01*
X122701000Y-89359874D01*
X122701000Y-88948126D01*
X122583726Y-88665000D01*
X122633874Y-88665000D01*
X123014280Y-88507431D01*
X123067000Y-88454711D01*
X123067001Y-95068199D01*
X123067001Y-95068199D01*
G37*
X123067001Y-95068199D02*
X122878167Y-94879366D01*
X122955000Y-94693874D01*
X122955000Y-94282126D01*
X122797431Y-93901720D01*
X122506280Y-93610569D01*
X122420402Y-93574997D01*
X122426000Y-93546852D01*
X122426000Y-93546848D01*
X122440888Y-93472000D01*
X122426000Y-93397152D01*
X122426000Y-92276846D01*
X122440888Y-92201999D01*
X122426000Y-92127152D01*
X122426000Y-92127148D01*
X122381904Y-91905463D01*
X122213929Y-91654071D01*
X122150473Y-91611671D01*
X120452801Y-89914000D01*
X120962289Y-89914000D01*
X121079720Y-90031431D01*
X121460126Y-90189000D01*
X121871874Y-90189000D01*
X122252280Y-90031431D01*
X122543431Y-89740280D01*
X122701000Y-89359874D01*
X122701000Y-88948126D01*
X122583726Y-88665000D01*
X122633874Y-88665000D01*
X123014280Y-88507431D01*
X123067000Y-88454711D01*
X123067001Y-95068199D01*
G36*
X114472235Y-67996157D02*
X114720000Y-68045440D01*
X115992638Y-68045440D01*
X116757670Y-68810472D01*
X116800071Y-68873929D01*
X116863527Y-68916329D01*
X117051462Y-69041904D01*
X117099605Y-69051480D01*
X117273148Y-69086000D01*
X117273152Y-69086000D01*
X117348000Y-69100888D01*
X117422848Y-69086000D01*
X124399199Y-69086000D01*
X124419082Y-69105883D01*
X124127720Y-69226569D01*
X123836569Y-69517720D01*
X123686569Y-69879852D01*
X123387845Y-70178577D01*
X123313952Y-70227951D01*
X123264578Y-70301844D01*
X123264576Y-70301846D01*
X123118348Y-70520691D01*
X123049663Y-70866000D01*
X123067001Y-70953165D01*
X123067000Y-79441993D01*
X122917000Y-79804126D01*
X122917000Y-80215874D01*
X123067000Y-80578007D01*
X123067001Y-83939240D01*
X123059951Y-83943951D01*
X122864348Y-84236691D01*
X122813000Y-84494836D01*
X122813000Y-84494839D01*
X122795663Y-84582000D01*
X122813000Y-84669161D01*
X122813001Y-85764835D01*
X122795663Y-85852000D01*
X122864348Y-86197309D01*
X122917000Y-86276108D01*
X122917000Y-86311874D01*
X123067000Y-86674007D01*
X123067000Y-86805289D01*
X123014280Y-86752569D01*
X122633874Y-86595000D01*
X122222126Y-86595000D01*
X121841720Y-86752569D01*
X121550569Y-87043720D01*
X121393000Y-87424126D01*
X121393000Y-87590199D01*
X121351199Y-87632000D01*
X121051027Y-87632000D01*
X121177000Y-87327874D01*
X121177000Y-86916126D01*
X121019431Y-86535720D01*
X120728280Y-86244569D01*
X120347874Y-86087000D01*
X119936126Y-86087000D01*
X119555720Y-86244569D01*
X119438289Y-86362000D01*
X118870237Y-86362000D01*
X118891000Y-86311874D01*
X118891000Y-85900126D01*
X118880404Y-85874544D01*
X118884888Y-85852001D01*
X118870000Y-85777154D01*
X118870000Y-82869272D01*
X118895530Y-82886331D01*
X119107000Y-83097801D01*
X119107000Y-83263874D01*
X119264569Y-83644280D01*
X119555720Y-83935431D01*
X119936126Y-84093000D01*
X120347874Y-84093000D01*
X120728280Y-83935431D01*
X121019431Y-83644280D01*
X121177000Y-83263874D01*
X121177000Y-82852126D01*
X121019431Y-82471720D01*
X120728280Y-82180569D01*
X120347874Y-82023000D01*
X120181801Y-82023000D01*
X120140000Y-81981199D01*
X120140000Y-80338846D01*
X120154888Y-80263999D01*
X120140000Y-80189152D01*
X120140000Y-80189148D01*
X120095904Y-79967463D01*
X119927929Y-79716071D01*
X119864473Y-79673671D01*
X117113000Y-76922199D01*
X117113000Y-76756126D01*
X116955431Y-76375720D01*
X116664280Y-76084569D01*
X116283874Y-75927000D01*
X115872126Y-75927000D01*
X115491720Y-76084569D01*
X115200569Y-76375720D01*
X115043000Y-76756126D01*
X115043000Y-77167874D01*
X115200569Y-77548280D01*
X115491720Y-77839431D01*
X115872126Y-77997000D01*
X116038199Y-77997000D01*
X117815082Y-79773883D01*
X117523720Y-79894569D01*
X117232569Y-80185720D01*
X117075000Y-80566126D01*
X117075000Y-80977874D01*
X117232569Y-81358280D01*
X117350001Y-81475712D01*
X117350000Y-85195316D01*
X117269720Y-85228569D01*
X116978569Y-85519720D01*
X116821000Y-85900126D01*
X116821000Y-86311874D01*
X116841763Y-86362000D01*
X116138802Y-86362000D01*
X115314000Y-85537199D01*
X115314000Y-78433848D01*
X115328888Y-78359000D01*
X115314000Y-78284152D01*
X115314000Y-78284148D01*
X115269904Y-78062463D01*
X115269904Y-78062462D01*
X115144329Y-77874527D01*
X115101929Y-77811071D01*
X115038473Y-77768671D01*
X113144020Y-75874218D01*
X113157000Y-75842881D01*
X113157000Y-75287119D01*
X112944320Y-74773663D01*
X112551337Y-74380680D01*
X112344487Y-74295000D01*
X112551337Y-74209320D01*
X112944320Y-73816337D01*
X113157000Y-73302881D01*
X113157000Y-72747119D01*
X112944320Y-72233663D01*
X112551337Y-71840680D01*
X112360353Y-71761572D01*
X112491143Y-71707397D01*
X112560608Y-71465213D01*
X111760000Y-70664605D01*
X111745858Y-70678748D01*
X111566253Y-70499143D01*
X111580395Y-70485000D01*
X111566253Y-70470858D01*
X111745858Y-70291253D01*
X111760000Y-70305395D01*
X111774143Y-70291253D01*
X111953748Y-70470858D01*
X111939605Y-70485000D01*
X112740213Y-71285608D01*
X112982397Y-71216143D01*
X113169144Y-70692698D01*
X113141362Y-70137632D01*
X112982397Y-69753857D01*
X112742442Y-69685031D01*
X112815929Y-69635929D01*
X112858331Y-69572470D01*
X114449701Y-67981100D01*
X114472235Y-67996157D01*
X114472235Y-67996157D01*
G37*
X114472235Y-67996157D02*
X114720000Y-68045440D01*
X115992638Y-68045440D01*
X116757670Y-68810472D01*
X116800071Y-68873929D01*
X116863527Y-68916329D01*
X117051462Y-69041904D01*
X117099605Y-69051480D01*
X117273148Y-69086000D01*
X117273152Y-69086000D01*
X117348000Y-69100888D01*
X117422848Y-69086000D01*
X124399199Y-69086000D01*
X124419082Y-69105883D01*
X124127720Y-69226569D01*
X123836569Y-69517720D01*
X123686569Y-69879852D01*
X123387845Y-70178577D01*
X123313952Y-70227951D01*
X123264578Y-70301844D01*
X123264576Y-70301846D01*
X123118348Y-70520691D01*
X123049663Y-70866000D01*
X123067001Y-70953165D01*
X123067000Y-79441993D01*
X122917000Y-79804126D01*
X122917000Y-80215874D01*
X123067000Y-80578007D01*
X123067001Y-83939240D01*
X123059951Y-83943951D01*
X122864348Y-84236691D01*
X122813000Y-84494836D01*
X122813000Y-84494839D01*
X122795663Y-84582000D01*
X122813000Y-84669161D01*
X122813001Y-85764835D01*
X122795663Y-85852000D01*
X122864348Y-86197309D01*
X122917000Y-86276108D01*
X122917000Y-86311874D01*
X123067000Y-86674007D01*
X123067000Y-86805289D01*
X123014280Y-86752569D01*
X122633874Y-86595000D01*
X122222126Y-86595000D01*
X121841720Y-86752569D01*
X121550569Y-87043720D01*
X121393000Y-87424126D01*
X121393000Y-87590199D01*
X121351199Y-87632000D01*
X121051027Y-87632000D01*
X121177000Y-87327874D01*
X121177000Y-86916126D01*
X121019431Y-86535720D01*
X120728280Y-86244569D01*
X120347874Y-86087000D01*
X119936126Y-86087000D01*
X119555720Y-86244569D01*
X119438289Y-86362000D01*
X118870237Y-86362000D01*
X118891000Y-86311874D01*
X118891000Y-85900126D01*
X118880404Y-85874544D01*
X118884888Y-85852001D01*
X118870000Y-85777154D01*
X118870000Y-82869272D01*
X118895530Y-82886331D01*
X119107000Y-83097801D01*
X119107000Y-83263874D01*
X119264569Y-83644280D01*
X119555720Y-83935431D01*
X119936126Y-84093000D01*
X120347874Y-84093000D01*
X120728280Y-83935431D01*
X121019431Y-83644280D01*
X121177000Y-83263874D01*
X121177000Y-82852126D01*
X121019431Y-82471720D01*
X120728280Y-82180569D01*
X120347874Y-82023000D01*
X120181801Y-82023000D01*
X120140000Y-81981199D01*
X120140000Y-80338846D01*
X120154888Y-80263999D01*
X120140000Y-80189152D01*
X120140000Y-80189148D01*
X120095904Y-79967463D01*
X119927929Y-79716071D01*
X119864473Y-79673671D01*
X117113000Y-76922199D01*
X117113000Y-76756126D01*
X116955431Y-76375720D01*
X116664280Y-76084569D01*
X116283874Y-75927000D01*
X115872126Y-75927000D01*
X115491720Y-76084569D01*
X115200569Y-76375720D01*
X115043000Y-76756126D01*
X115043000Y-77167874D01*
X115200569Y-77548280D01*
X115491720Y-77839431D01*
X115872126Y-77997000D01*
X116038199Y-77997000D01*
X117815082Y-79773883D01*
X117523720Y-79894569D01*
X117232569Y-80185720D01*
X117075000Y-80566126D01*
X117075000Y-80977874D01*
X117232569Y-81358280D01*
X117350001Y-81475712D01*
X117350000Y-85195316D01*
X117269720Y-85228569D01*
X116978569Y-85519720D01*
X116821000Y-85900126D01*
X116821000Y-86311874D01*
X116841763Y-86362000D01*
X116138802Y-86362000D01*
X115314000Y-85537199D01*
X115314000Y-78433848D01*
X115328888Y-78359000D01*
X115314000Y-78284152D01*
X115314000Y-78284148D01*
X115269904Y-78062463D01*
X115269904Y-78062462D01*
X115144329Y-77874527D01*
X115101929Y-77811071D01*
X115038473Y-77768671D01*
X113144020Y-75874218D01*
X113157000Y-75842881D01*
X113157000Y-75287119D01*
X112944320Y-74773663D01*
X112551337Y-74380680D01*
X112344487Y-74295000D01*
X112551337Y-74209320D01*
X112944320Y-73816337D01*
X113157000Y-73302881D01*
X113157000Y-72747119D01*
X112944320Y-72233663D01*
X112551337Y-71840680D01*
X112360353Y-71761572D01*
X112491143Y-71707397D01*
X112560608Y-71465213D01*
X111760000Y-70664605D01*
X111745858Y-70678748D01*
X111566253Y-70499143D01*
X111580395Y-70485000D01*
X111566253Y-70470858D01*
X111745858Y-70291253D01*
X111760000Y-70305395D01*
X111774143Y-70291253D01*
X111953748Y-70470858D01*
X111939605Y-70485000D01*
X112740213Y-71285608D01*
X112982397Y-71216143D01*
X113169144Y-70692698D01*
X113141362Y-70137632D01*
X112982397Y-69753857D01*
X112742442Y-69685031D01*
X112815929Y-69635929D01*
X112858331Y-69572470D01*
X114449701Y-67981100D01*
X114472235Y-67996157D01*
G04 #@! TD*
M02*
