M48
;DRILL file {KiCad (5.0.0)} date 10/17/18 10:28:31
;FORMAT={-:-/ absolute / metric / decimal}
FMAT,2
METRIC,TZ
T1C0.400
T2C0.762
T3C1.000
T4C1.100
T5C2.740
T6C1.100
%
G90
G05
M71
T1
X110.49Y-91.948
X113.538Y-83.82
X113.538Y-88.392
X114.3Y-110.998
X114.554Y-90.678
X115.316Y-111.252
X115.824Y-92.964
X116.078Y-76.962
X116.078Y-89.154
X116.078Y-101.092
X116.84Y-95.758
X117.602Y-100.076
X117.856Y-86.106
X117.856Y-96.266
X118.11Y-80.772
X118.364Y-100.838
X118.364Y-104.14
X118.618Y-94.742
X119.045Y-83.82
X119.38Y-99.822
X119.38Y-110.236
X119.888Y-92.71
X119.888Y-106.934
X120.142Y-83.058
X120.142Y-87.122
X120.396Y-96.012
X120.904Y-92.964
X121.666Y-89.154
X121.666Y-96.012
X121.92Y-94.488
X122.428Y-87.63
X122.428Y-93.218
X122.682Y-90.17
X122.936Y-98.044
X122.936Y-101.092
X123.952Y-80.01
X123.952Y-86.106
X123.952Y-102.87
X123.952Y-109.728
X124.714Y-70.104
X124.714Y-85.09
X124.714Y-107.696
X124.968Y-90.424
X124.968Y-98.552
X124.968Y-99.822
X124.968Y-101.092
X124.968Y-102.87
X125.222Y-82.55
X125.222Y-87.63
X125.984Y-105.664
X126.238Y-84.074
X127.Y-109.474
X127.254Y-80.264
X127.254Y-107.95
X128.27Y-71.882
X128.524Y-112.268
X129.032Y-90.17
X129.794Y-94.234
X130.048Y-96.774
X130.302Y-92.202
X131.064Y-99.568
X133.096Y-115.062
X133.096Y-119.126
X134.874Y-72.898
T2
X109.22Y-70.485
X109.22Y-73.025
X109.22Y-75.565
X109.22Y-78.105
X109.22Y-80.645
X109.22Y-83.185
X109.22Y-85.725
X109.22Y-88.265
X109.22Y-90.805
X109.22Y-93.345
X109.22Y-95.885
X109.22Y-98.425
X109.22Y-100.965
X109.22Y-103.505
X109.22Y-106.045
X109.22Y-108.585
X109.22Y-111.125
X109.22Y-113.665
X109.22Y-116.205
X109.22Y-118.745
X111.76Y-70.485
X111.76Y-73.025
X111.76Y-75.565
X111.76Y-78.105
X111.76Y-80.645
X111.76Y-83.185
X111.76Y-85.725
X111.76Y-88.265
X111.76Y-90.805
X111.76Y-93.345
X111.76Y-95.885
X111.76Y-98.425
X111.76Y-100.965
X111.76Y-103.505
X111.76Y-106.045
X111.76Y-108.585
X111.76Y-111.125
X111.76Y-113.665
X111.76Y-116.205
X111.76Y-118.745
T3
X115.57Y-64.008
X115.57Y-66.548
X119.888Y-117.094
X119.888Y-119.634
X119.888Y-122.174
X119.888Y-124.714
X115.316Y-113.03
X117.856Y-113.03
X122.936Y-117.094
X122.936Y-119.634
X122.936Y-122.174
X122.936Y-124.714
X116.84Y-117.094
X116.84Y-119.634
X116.84Y-122.174
X116.84Y-124.714
X125.984Y-117.094
X125.984Y-119.634
X125.984Y-122.174
X125.984Y-124.714
T4
X134.62Y-102.235
X134.62Y-104.775
X134.62Y-78.74
X134.62Y-81.28
X121.539Y-64.262
X124.079Y-64.262
X134.62Y-107.95
X134.62Y-110.49
X134.62Y-84.455
X134.62Y-86.995
T5
X110.49Y-65.405
X110.49Y-123.825
X133.985Y-65.405
X133.985Y-123.825
T6
X132.08Y-78.74
X132.08Y-81.28
X124.079Y-66.802
X132.08Y-107.95
X132.08Y-110.49
X132.08Y-84.455
X132.08Y-86.995
X132.08Y-102.235
X132.08Y-104.775
X121.539Y-66.802
T0
M30
