G04 #@! TF.GenerationSoftware,KiCad,Pcbnew,(5.0.0)*
G04 #@! TF.CreationDate,2018-10-08T14:17:52+01:00*
G04 #@! TF.ProjectId,Motor Shield,4D6F746F7220536869656C642E6B6963,rev?*
G04 #@! TF.SameCoordinates,Original*
G04 #@! TF.FileFunction,Paste,Top*
G04 #@! TF.FilePolarity,Positive*
%FSLAX46Y46*%
G04 Gerber Fmt 4.6, Leading zero omitted, Abs format (unit mm)*
G04 Created by KiCad (PCBNEW (5.0.0)) date 10/08/18 14:17:52*
%MOMM*%
%LPD*%
G01*
G04 APERTURE LIST*
%ADD10C,0.100000*%
%ADD11C,1.250000*%
%ADD12R,0.650000X1.350000*%
%ADD13R,6.450000X4.400000*%
%ADD14R,5.000000X5.000000*%
%ADD15R,2.000000X3.800000*%
%ADD16R,2.000000X1.500000*%
%ADD17C,0.975000*%
%ADD18C,1.350000*%
%ADD19R,1.750000X0.450000*%
G04 APERTURE END LIST*
D10*
G04 #@! TO.C,D1*
G36*
X167781504Y-93486204D02*
X167805773Y-93489804D01*
X167829571Y-93495765D01*
X167852671Y-93504030D01*
X167874849Y-93514520D01*
X167895893Y-93527133D01*
X167915598Y-93541747D01*
X167933777Y-93558223D01*
X167950253Y-93576402D01*
X167964867Y-93596107D01*
X167977480Y-93617151D01*
X167987970Y-93639329D01*
X167996235Y-93662429D01*
X168002196Y-93686227D01*
X168005796Y-93710496D01*
X168007000Y-93735000D01*
X168007000Y-94485000D01*
X168005796Y-94509504D01*
X168002196Y-94533773D01*
X167996235Y-94557571D01*
X167987970Y-94580671D01*
X167977480Y-94602849D01*
X167964867Y-94623893D01*
X167950253Y-94643598D01*
X167933777Y-94661777D01*
X167915598Y-94678253D01*
X167895893Y-94692867D01*
X167874849Y-94705480D01*
X167852671Y-94715970D01*
X167829571Y-94724235D01*
X167805773Y-94730196D01*
X167781504Y-94733796D01*
X167757000Y-94735000D01*
X166507000Y-94735000D01*
X166482496Y-94733796D01*
X166458227Y-94730196D01*
X166434429Y-94724235D01*
X166411329Y-94715970D01*
X166389151Y-94705480D01*
X166368107Y-94692867D01*
X166348402Y-94678253D01*
X166330223Y-94661777D01*
X166313747Y-94643598D01*
X166299133Y-94623893D01*
X166286520Y-94602849D01*
X166276030Y-94580671D01*
X166267765Y-94557571D01*
X166261804Y-94533773D01*
X166258204Y-94509504D01*
X166257000Y-94485000D01*
X166257000Y-93735000D01*
X166258204Y-93710496D01*
X166261804Y-93686227D01*
X166267765Y-93662429D01*
X166276030Y-93639329D01*
X166286520Y-93617151D01*
X166299133Y-93596107D01*
X166313747Y-93576402D01*
X166330223Y-93558223D01*
X166348402Y-93541747D01*
X166368107Y-93527133D01*
X166389151Y-93514520D01*
X166411329Y-93504030D01*
X166434429Y-93495765D01*
X166458227Y-93489804D01*
X166482496Y-93486204D01*
X166507000Y-93485000D01*
X167757000Y-93485000D01*
X167781504Y-93486204D01*
X167781504Y-93486204D01*
G37*
D11*
X167132000Y-94110000D03*
D10*
G36*
X167781504Y-90686204D02*
X167805773Y-90689804D01*
X167829571Y-90695765D01*
X167852671Y-90704030D01*
X167874849Y-90714520D01*
X167895893Y-90727133D01*
X167915598Y-90741747D01*
X167933777Y-90758223D01*
X167950253Y-90776402D01*
X167964867Y-90796107D01*
X167977480Y-90817151D01*
X167987970Y-90839329D01*
X167996235Y-90862429D01*
X168002196Y-90886227D01*
X168005796Y-90910496D01*
X168007000Y-90935000D01*
X168007000Y-91685000D01*
X168005796Y-91709504D01*
X168002196Y-91733773D01*
X167996235Y-91757571D01*
X167987970Y-91780671D01*
X167977480Y-91802849D01*
X167964867Y-91823893D01*
X167950253Y-91843598D01*
X167933777Y-91861777D01*
X167915598Y-91878253D01*
X167895893Y-91892867D01*
X167874849Y-91905480D01*
X167852671Y-91915970D01*
X167829571Y-91924235D01*
X167805773Y-91930196D01*
X167781504Y-91933796D01*
X167757000Y-91935000D01*
X166507000Y-91935000D01*
X166482496Y-91933796D01*
X166458227Y-91930196D01*
X166434429Y-91924235D01*
X166411329Y-91915970D01*
X166389151Y-91905480D01*
X166368107Y-91892867D01*
X166348402Y-91878253D01*
X166330223Y-91861777D01*
X166313747Y-91843598D01*
X166299133Y-91823893D01*
X166286520Y-91802849D01*
X166276030Y-91780671D01*
X166267765Y-91757571D01*
X166261804Y-91733773D01*
X166258204Y-91709504D01*
X166257000Y-91685000D01*
X166257000Y-90935000D01*
X166258204Y-90910496D01*
X166261804Y-90886227D01*
X166267765Y-90862429D01*
X166276030Y-90839329D01*
X166286520Y-90817151D01*
X166299133Y-90796107D01*
X166313747Y-90776402D01*
X166330223Y-90758223D01*
X166348402Y-90741747D01*
X166368107Y-90727133D01*
X166389151Y-90714520D01*
X166411329Y-90704030D01*
X166434429Y-90695765D01*
X166458227Y-90689804D01*
X166482496Y-90686204D01*
X166507000Y-90685000D01*
X167757000Y-90685000D01*
X167781504Y-90686204D01*
X167781504Y-90686204D01*
G37*
D11*
X167132000Y-91310000D03*
G04 #@! TD*
D10*
G04 #@! TO.C,D3*
G36*
X150129504Y-81168204D02*
X150153773Y-81171804D01*
X150177571Y-81177765D01*
X150200671Y-81186030D01*
X150222849Y-81196520D01*
X150243893Y-81209133D01*
X150263598Y-81223747D01*
X150281777Y-81240223D01*
X150298253Y-81258402D01*
X150312867Y-81278107D01*
X150325480Y-81299151D01*
X150335970Y-81321329D01*
X150344235Y-81344429D01*
X150350196Y-81368227D01*
X150353796Y-81392496D01*
X150355000Y-81417000D01*
X150355000Y-82667000D01*
X150353796Y-82691504D01*
X150350196Y-82715773D01*
X150344235Y-82739571D01*
X150335970Y-82762671D01*
X150325480Y-82784849D01*
X150312867Y-82805893D01*
X150298253Y-82825598D01*
X150281777Y-82843777D01*
X150263598Y-82860253D01*
X150243893Y-82874867D01*
X150222849Y-82887480D01*
X150200671Y-82897970D01*
X150177571Y-82906235D01*
X150153773Y-82912196D01*
X150129504Y-82915796D01*
X150105000Y-82917000D01*
X149355000Y-82917000D01*
X149330496Y-82915796D01*
X149306227Y-82912196D01*
X149282429Y-82906235D01*
X149259329Y-82897970D01*
X149237151Y-82887480D01*
X149216107Y-82874867D01*
X149196402Y-82860253D01*
X149178223Y-82843777D01*
X149161747Y-82825598D01*
X149147133Y-82805893D01*
X149134520Y-82784849D01*
X149124030Y-82762671D01*
X149115765Y-82739571D01*
X149109804Y-82715773D01*
X149106204Y-82691504D01*
X149105000Y-82667000D01*
X149105000Y-81417000D01*
X149106204Y-81392496D01*
X149109804Y-81368227D01*
X149115765Y-81344429D01*
X149124030Y-81321329D01*
X149134520Y-81299151D01*
X149147133Y-81278107D01*
X149161747Y-81258402D01*
X149178223Y-81240223D01*
X149196402Y-81223747D01*
X149216107Y-81209133D01*
X149237151Y-81196520D01*
X149259329Y-81186030D01*
X149282429Y-81177765D01*
X149306227Y-81171804D01*
X149330496Y-81168204D01*
X149355000Y-81167000D01*
X150105000Y-81167000D01*
X150129504Y-81168204D01*
X150129504Y-81168204D01*
G37*
D11*
X149730000Y-82042000D03*
D10*
G36*
X152929504Y-81168204D02*
X152953773Y-81171804D01*
X152977571Y-81177765D01*
X153000671Y-81186030D01*
X153022849Y-81196520D01*
X153043893Y-81209133D01*
X153063598Y-81223747D01*
X153081777Y-81240223D01*
X153098253Y-81258402D01*
X153112867Y-81278107D01*
X153125480Y-81299151D01*
X153135970Y-81321329D01*
X153144235Y-81344429D01*
X153150196Y-81368227D01*
X153153796Y-81392496D01*
X153155000Y-81417000D01*
X153155000Y-82667000D01*
X153153796Y-82691504D01*
X153150196Y-82715773D01*
X153144235Y-82739571D01*
X153135970Y-82762671D01*
X153125480Y-82784849D01*
X153112867Y-82805893D01*
X153098253Y-82825598D01*
X153081777Y-82843777D01*
X153063598Y-82860253D01*
X153043893Y-82874867D01*
X153022849Y-82887480D01*
X153000671Y-82897970D01*
X152977571Y-82906235D01*
X152953773Y-82912196D01*
X152929504Y-82915796D01*
X152905000Y-82917000D01*
X152155000Y-82917000D01*
X152130496Y-82915796D01*
X152106227Y-82912196D01*
X152082429Y-82906235D01*
X152059329Y-82897970D01*
X152037151Y-82887480D01*
X152016107Y-82874867D01*
X151996402Y-82860253D01*
X151978223Y-82843777D01*
X151961747Y-82825598D01*
X151947133Y-82805893D01*
X151934520Y-82784849D01*
X151924030Y-82762671D01*
X151915765Y-82739571D01*
X151909804Y-82715773D01*
X151906204Y-82691504D01*
X151905000Y-82667000D01*
X151905000Y-81417000D01*
X151906204Y-81392496D01*
X151909804Y-81368227D01*
X151915765Y-81344429D01*
X151924030Y-81321329D01*
X151934520Y-81299151D01*
X151947133Y-81278107D01*
X151961747Y-81258402D01*
X151978223Y-81240223D01*
X151996402Y-81223747D01*
X152016107Y-81209133D01*
X152037151Y-81196520D01*
X152059329Y-81186030D01*
X152082429Y-81177765D01*
X152106227Y-81171804D01*
X152130496Y-81168204D01*
X152155000Y-81167000D01*
X152905000Y-81167000D01*
X152929504Y-81168204D01*
X152929504Y-81168204D01*
G37*
D11*
X152530000Y-82042000D03*
G04 #@! TD*
D12*
G04 #@! TO.C,U1*
X161290000Y-87122000D03*
X162280600Y-87147400D03*
X163322000Y-87122000D03*
X164338000Y-87122000D03*
X165354000Y-87122000D03*
X166370000Y-87122000D03*
X166370000Y-76962000D03*
X165354000Y-76962000D03*
X164338000Y-76962000D03*
X163322000Y-76962000D03*
X162306000Y-76962000D03*
X161290000Y-76962000D03*
D13*
X163830000Y-82042000D03*
D14*
X158242000Y-82042000D03*
X169418000Y-82042000D03*
G04 #@! TD*
D15*
G04 #@! TO.C,Q1*
X156058000Y-76962000D03*
D16*
X149758000Y-76962000D03*
X149758000Y-79262000D03*
X149758000Y-74662000D03*
G04 #@! TD*
D10*
G04 #@! TO.C,R1*
G36*
X150714142Y-70929174D02*
X150737803Y-70932684D01*
X150761007Y-70938496D01*
X150783529Y-70946554D01*
X150805153Y-70956782D01*
X150825670Y-70969079D01*
X150844883Y-70983329D01*
X150862607Y-70999393D01*
X150878671Y-71017117D01*
X150892921Y-71036330D01*
X150905218Y-71056847D01*
X150915446Y-71078471D01*
X150923504Y-71100993D01*
X150929316Y-71124197D01*
X150932826Y-71147858D01*
X150934000Y-71171750D01*
X150934000Y-72084250D01*
X150932826Y-72108142D01*
X150929316Y-72131803D01*
X150923504Y-72155007D01*
X150915446Y-72177529D01*
X150905218Y-72199153D01*
X150892921Y-72219670D01*
X150878671Y-72238883D01*
X150862607Y-72256607D01*
X150844883Y-72272671D01*
X150825670Y-72286921D01*
X150805153Y-72299218D01*
X150783529Y-72309446D01*
X150761007Y-72317504D01*
X150737803Y-72323316D01*
X150714142Y-72326826D01*
X150690250Y-72328000D01*
X150202750Y-72328000D01*
X150178858Y-72326826D01*
X150155197Y-72323316D01*
X150131993Y-72317504D01*
X150109471Y-72309446D01*
X150087847Y-72299218D01*
X150067330Y-72286921D01*
X150048117Y-72272671D01*
X150030393Y-72256607D01*
X150014329Y-72238883D01*
X150000079Y-72219670D01*
X149987782Y-72199153D01*
X149977554Y-72177529D01*
X149969496Y-72155007D01*
X149963684Y-72131803D01*
X149960174Y-72108142D01*
X149959000Y-72084250D01*
X149959000Y-71171750D01*
X149960174Y-71147858D01*
X149963684Y-71124197D01*
X149969496Y-71100993D01*
X149977554Y-71078471D01*
X149987782Y-71056847D01*
X150000079Y-71036330D01*
X150014329Y-71017117D01*
X150030393Y-70999393D01*
X150048117Y-70983329D01*
X150067330Y-70969079D01*
X150087847Y-70956782D01*
X150109471Y-70946554D01*
X150131993Y-70938496D01*
X150155197Y-70932684D01*
X150178858Y-70929174D01*
X150202750Y-70928000D01*
X150690250Y-70928000D01*
X150714142Y-70929174D01*
X150714142Y-70929174D01*
G37*
D17*
X150446500Y-71628000D03*
D10*
G36*
X152589142Y-70929174D02*
X152612803Y-70932684D01*
X152636007Y-70938496D01*
X152658529Y-70946554D01*
X152680153Y-70956782D01*
X152700670Y-70969079D01*
X152719883Y-70983329D01*
X152737607Y-70999393D01*
X152753671Y-71017117D01*
X152767921Y-71036330D01*
X152780218Y-71056847D01*
X152790446Y-71078471D01*
X152798504Y-71100993D01*
X152804316Y-71124197D01*
X152807826Y-71147858D01*
X152809000Y-71171750D01*
X152809000Y-72084250D01*
X152807826Y-72108142D01*
X152804316Y-72131803D01*
X152798504Y-72155007D01*
X152790446Y-72177529D01*
X152780218Y-72199153D01*
X152767921Y-72219670D01*
X152753671Y-72238883D01*
X152737607Y-72256607D01*
X152719883Y-72272671D01*
X152700670Y-72286921D01*
X152680153Y-72299218D01*
X152658529Y-72309446D01*
X152636007Y-72317504D01*
X152612803Y-72323316D01*
X152589142Y-72326826D01*
X152565250Y-72328000D01*
X152077750Y-72328000D01*
X152053858Y-72326826D01*
X152030197Y-72323316D01*
X152006993Y-72317504D01*
X151984471Y-72309446D01*
X151962847Y-72299218D01*
X151942330Y-72286921D01*
X151923117Y-72272671D01*
X151905393Y-72256607D01*
X151889329Y-72238883D01*
X151875079Y-72219670D01*
X151862782Y-72199153D01*
X151852554Y-72177529D01*
X151844496Y-72155007D01*
X151838684Y-72131803D01*
X151835174Y-72108142D01*
X151834000Y-72084250D01*
X151834000Y-71171750D01*
X151835174Y-71147858D01*
X151838684Y-71124197D01*
X151844496Y-71100993D01*
X151852554Y-71078471D01*
X151862782Y-71056847D01*
X151875079Y-71036330D01*
X151889329Y-71017117D01*
X151905393Y-70999393D01*
X151923117Y-70983329D01*
X151942330Y-70969079D01*
X151962847Y-70956782D01*
X151984471Y-70946554D01*
X152006993Y-70938496D01*
X152030197Y-70932684D01*
X152053858Y-70929174D01*
X152077750Y-70928000D01*
X152565250Y-70928000D01*
X152589142Y-70929174D01*
X152589142Y-70929174D01*
G37*
D17*
X152321500Y-71628000D03*
G04 #@! TD*
D10*
G04 #@! TO.C,C1*
G36*
X164279505Y-93187204D02*
X164303773Y-93190804D01*
X164327572Y-93196765D01*
X164350671Y-93205030D01*
X164372850Y-93215520D01*
X164393893Y-93228132D01*
X164413599Y-93242747D01*
X164431777Y-93259223D01*
X164448253Y-93277401D01*
X164462868Y-93297107D01*
X164475480Y-93318150D01*
X164485970Y-93340329D01*
X164494235Y-93363428D01*
X164500196Y-93387227D01*
X164503796Y-93411495D01*
X164505000Y-93435999D01*
X164505000Y-94336001D01*
X164503796Y-94360505D01*
X164500196Y-94384773D01*
X164494235Y-94408572D01*
X164485970Y-94431671D01*
X164475480Y-94453850D01*
X164462868Y-94474893D01*
X164448253Y-94494599D01*
X164431777Y-94512777D01*
X164413599Y-94529253D01*
X164393893Y-94543868D01*
X164372850Y-94556480D01*
X164350671Y-94566970D01*
X164327572Y-94575235D01*
X164303773Y-94581196D01*
X164279505Y-94584796D01*
X164255001Y-94586000D01*
X163404999Y-94586000D01*
X163380495Y-94584796D01*
X163356227Y-94581196D01*
X163332428Y-94575235D01*
X163309329Y-94566970D01*
X163287150Y-94556480D01*
X163266107Y-94543868D01*
X163246401Y-94529253D01*
X163228223Y-94512777D01*
X163211747Y-94494599D01*
X163197132Y-94474893D01*
X163184520Y-94453850D01*
X163174030Y-94431671D01*
X163165765Y-94408572D01*
X163159804Y-94384773D01*
X163156204Y-94360505D01*
X163155000Y-94336001D01*
X163155000Y-93435999D01*
X163156204Y-93411495D01*
X163159804Y-93387227D01*
X163165765Y-93363428D01*
X163174030Y-93340329D01*
X163184520Y-93318150D01*
X163197132Y-93297107D01*
X163211747Y-93277401D01*
X163228223Y-93259223D01*
X163246401Y-93242747D01*
X163266107Y-93228132D01*
X163287150Y-93215520D01*
X163309329Y-93205030D01*
X163332428Y-93196765D01*
X163356227Y-93190804D01*
X163380495Y-93187204D01*
X163404999Y-93186000D01*
X164255001Y-93186000D01*
X164279505Y-93187204D01*
X164279505Y-93187204D01*
G37*
D18*
X163830000Y-93886000D03*
D10*
G36*
X164279505Y-90487204D02*
X164303773Y-90490804D01*
X164327572Y-90496765D01*
X164350671Y-90505030D01*
X164372850Y-90515520D01*
X164393893Y-90528132D01*
X164413599Y-90542747D01*
X164431777Y-90559223D01*
X164448253Y-90577401D01*
X164462868Y-90597107D01*
X164475480Y-90618150D01*
X164485970Y-90640329D01*
X164494235Y-90663428D01*
X164500196Y-90687227D01*
X164503796Y-90711495D01*
X164505000Y-90735999D01*
X164505000Y-91636001D01*
X164503796Y-91660505D01*
X164500196Y-91684773D01*
X164494235Y-91708572D01*
X164485970Y-91731671D01*
X164475480Y-91753850D01*
X164462868Y-91774893D01*
X164448253Y-91794599D01*
X164431777Y-91812777D01*
X164413599Y-91829253D01*
X164393893Y-91843868D01*
X164372850Y-91856480D01*
X164350671Y-91866970D01*
X164327572Y-91875235D01*
X164303773Y-91881196D01*
X164279505Y-91884796D01*
X164255001Y-91886000D01*
X163404999Y-91886000D01*
X163380495Y-91884796D01*
X163356227Y-91881196D01*
X163332428Y-91875235D01*
X163309329Y-91866970D01*
X163287150Y-91856480D01*
X163266107Y-91843868D01*
X163246401Y-91829253D01*
X163228223Y-91812777D01*
X163211747Y-91794599D01*
X163197132Y-91774893D01*
X163184520Y-91753850D01*
X163174030Y-91731671D01*
X163165765Y-91708572D01*
X163159804Y-91684773D01*
X163156204Y-91660505D01*
X163155000Y-91636001D01*
X163155000Y-90735999D01*
X163156204Y-90711495D01*
X163159804Y-90687227D01*
X163165765Y-90663428D01*
X163174030Y-90640329D01*
X163184520Y-90618150D01*
X163197132Y-90597107D01*
X163211747Y-90577401D01*
X163228223Y-90559223D01*
X163246401Y-90542747D01*
X163266107Y-90528132D01*
X163287150Y-90515520D01*
X163309329Y-90505030D01*
X163332428Y-90496765D01*
X163356227Y-90490804D01*
X163380495Y-90487204D01*
X163404999Y-90486000D01*
X164255001Y-90486000D01*
X164279505Y-90487204D01*
X164279505Y-90487204D01*
G37*
D18*
X163830000Y-91186000D03*
G04 #@! TD*
D10*
G04 #@! TO.C,C4*
G36*
X161516142Y-93161174D02*
X161539803Y-93164684D01*
X161563007Y-93170496D01*
X161585529Y-93178554D01*
X161607153Y-93188782D01*
X161627670Y-93201079D01*
X161646883Y-93215329D01*
X161664607Y-93231393D01*
X161680671Y-93249117D01*
X161694921Y-93268330D01*
X161707218Y-93288847D01*
X161717446Y-93310471D01*
X161725504Y-93332993D01*
X161731316Y-93356197D01*
X161734826Y-93379858D01*
X161736000Y-93403750D01*
X161736000Y-93891250D01*
X161734826Y-93915142D01*
X161731316Y-93938803D01*
X161725504Y-93962007D01*
X161717446Y-93984529D01*
X161707218Y-94006153D01*
X161694921Y-94026670D01*
X161680671Y-94045883D01*
X161664607Y-94063607D01*
X161646883Y-94079671D01*
X161627670Y-94093921D01*
X161607153Y-94106218D01*
X161585529Y-94116446D01*
X161563007Y-94124504D01*
X161539803Y-94130316D01*
X161516142Y-94133826D01*
X161492250Y-94135000D01*
X160579750Y-94135000D01*
X160555858Y-94133826D01*
X160532197Y-94130316D01*
X160508993Y-94124504D01*
X160486471Y-94116446D01*
X160464847Y-94106218D01*
X160444330Y-94093921D01*
X160425117Y-94079671D01*
X160407393Y-94063607D01*
X160391329Y-94045883D01*
X160377079Y-94026670D01*
X160364782Y-94006153D01*
X160354554Y-93984529D01*
X160346496Y-93962007D01*
X160340684Y-93938803D01*
X160337174Y-93915142D01*
X160336000Y-93891250D01*
X160336000Y-93403750D01*
X160337174Y-93379858D01*
X160340684Y-93356197D01*
X160346496Y-93332993D01*
X160354554Y-93310471D01*
X160364782Y-93288847D01*
X160377079Y-93268330D01*
X160391329Y-93249117D01*
X160407393Y-93231393D01*
X160425117Y-93215329D01*
X160444330Y-93201079D01*
X160464847Y-93188782D01*
X160486471Y-93178554D01*
X160508993Y-93170496D01*
X160532197Y-93164684D01*
X160555858Y-93161174D01*
X160579750Y-93160000D01*
X161492250Y-93160000D01*
X161516142Y-93161174D01*
X161516142Y-93161174D01*
G37*
D17*
X161036000Y-93647500D03*
D10*
G36*
X161516142Y-91286174D02*
X161539803Y-91289684D01*
X161563007Y-91295496D01*
X161585529Y-91303554D01*
X161607153Y-91313782D01*
X161627670Y-91326079D01*
X161646883Y-91340329D01*
X161664607Y-91356393D01*
X161680671Y-91374117D01*
X161694921Y-91393330D01*
X161707218Y-91413847D01*
X161717446Y-91435471D01*
X161725504Y-91457993D01*
X161731316Y-91481197D01*
X161734826Y-91504858D01*
X161736000Y-91528750D01*
X161736000Y-92016250D01*
X161734826Y-92040142D01*
X161731316Y-92063803D01*
X161725504Y-92087007D01*
X161717446Y-92109529D01*
X161707218Y-92131153D01*
X161694921Y-92151670D01*
X161680671Y-92170883D01*
X161664607Y-92188607D01*
X161646883Y-92204671D01*
X161627670Y-92218921D01*
X161607153Y-92231218D01*
X161585529Y-92241446D01*
X161563007Y-92249504D01*
X161539803Y-92255316D01*
X161516142Y-92258826D01*
X161492250Y-92260000D01*
X160579750Y-92260000D01*
X160555858Y-92258826D01*
X160532197Y-92255316D01*
X160508993Y-92249504D01*
X160486471Y-92241446D01*
X160464847Y-92231218D01*
X160444330Y-92218921D01*
X160425117Y-92204671D01*
X160407393Y-92188607D01*
X160391329Y-92170883D01*
X160377079Y-92151670D01*
X160364782Y-92131153D01*
X160354554Y-92109529D01*
X160346496Y-92087007D01*
X160340684Y-92063803D01*
X160337174Y-92040142D01*
X160336000Y-92016250D01*
X160336000Y-91528750D01*
X160337174Y-91504858D01*
X160340684Y-91481197D01*
X160346496Y-91457993D01*
X160354554Y-91435471D01*
X160364782Y-91413847D01*
X160377079Y-91393330D01*
X160391329Y-91374117D01*
X160407393Y-91356393D01*
X160425117Y-91340329D01*
X160444330Y-91326079D01*
X160464847Y-91313782D01*
X160486471Y-91303554D01*
X160508993Y-91295496D01*
X160532197Y-91289684D01*
X160555858Y-91286174D01*
X160579750Y-91285000D01*
X161492250Y-91285000D01*
X161516142Y-91286174D01*
X161516142Y-91286174D01*
G37*
D17*
X161036000Y-91772500D03*
G04 #@! TD*
D10*
G04 #@! TO.C,C5*
G36*
X165097642Y-97091174D02*
X165121303Y-97094684D01*
X165144507Y-97100496D01*
X165167029Y-97108554D01*
X165188653Y-97118782D01*
X165209170Y-97131079D01*
X165228383Y-97145329D01*
X165246107Y-97161393D01*
X165262171Y-97179117D01*
X165276421Y-97198330D01*
X165288718Y-97218847D01*
X165298946Y-97240471D01*
X165307004Y-97262993D01*
X165312816Y-97286197D01*
X165316326Y-97309858D01*
X165317500Y-97333750D01*
X165317500Y-98246250D01*
X165316326Y-98270142D01*
X165312816Y-98293803D01*
X165307004Y-98317007D01*
X165298946Y-98339529D01*
X165288718Y-98361153D01*
X165276421Y-98381670D01*
X165262171Y-98400883D01*
X165246107Y-98418607D01*
X165228383Y-98434671D01*
X165209170Y-98448921D01*
X165188653Y-98461218D01*
X165167029Y-98471446D01*
X165144507Y-98479504D01*
X165121303Y-98485316D01*
X165097642Y-98488826D01*
X165073750Y-98490000D01*
X164586250Y-98490000D01*
X164562358Y-98488826D01*
X164538697Y-98485316D01*
X164515493Y-98479504D01*
X164492971Y-98471446D01*
X164471347Y-98461218D01*
X164450830Y-98448921D01*
X164431617Y-98434671D01*
X164413893Y-98418607D01*
X164397829Y-98400883D01*
X164383579Y-98381670D01*
X164371282Y-98361153D01*
X164361054Y-98339529D01*
X164352996Y-98317007D01*
X164347184Y-98293803D01*
X164343674Y-98270142D01*
X164342500Y-98246250D01*
X164342500Y-97333750D01*
X164343674Y-97309858D01*
X164347184Y-97286197D01*
X164352996Y-97262993D01*
X164361054Y-97240471D01*
X164371282Y-97218847D01*
X164383579Y-97198330D01*
X164397829Y-97179117D01*
X164413893Y-97161393D01*
X164431617Y-97145329D01*
X164450830Y-97131079D01*
X164471347Y-97118782D01*
X164492971Y-97108554D01*
X164515493Y-97100496D01*
X164538697Y-97094684D01*
X164562358Y-97091174D01*
X164586250Y-97090000D01*
X165073750Y-97090000D01*
X165097642Y-97091174D01*
X165097642Y-97091174D01*
G37*
D17*
X164830000Y-97790000D03*
D10*
G36*
X163222642Y-97091174D02*
X163246303Y-97094684D01*
X163269507Y-97100496D01*
X163292029Y-97108554D01*
X163313653Y-97118782D01*
X163334170Y-97131079D01*
X163353383Y-97145329D01*
X163371107Y-97161393D01*
X163387171Y-97179117D01*
X163401421Y-97198330D01*
X163413718Y-97218847D01*
X163423946Y-97240471D01*
X163432004Y-97262993D01*
X163437816Y-97286197D01*
X163441326Y-97309858D01*
X163442500Y-97333750D01*
X163442500Y-98246250D01*
X163441326Y-98270142D01*
X163437816Y-98293803D01*
X163432004Y-98317007D01*
X163423946Y-98339529D01*
X163413718Y-98361153D01*
X163401421Y-98381670D01*
X163387171Y-98400883D01*
X163371107Y-98418607D01*
X163353383Y-98434671D01*
X163334170Y-98448921D01*
X163313653Y-98461218D01*
X163292029Y-98471446D01*
X163269507Y-98479504D01*
X163246303Y-98485316D01*
X163222642Y-98488826D01*
X163198750Y-98490000D01*
X162711250Y-98490000D01*
X162687358Y-98488826D01*
X162663697Y-98485316D01*
X162640493Y-98479504D01*
X162617971Y-98471446D01*
X162596347Y-98461218D01*
X162575830Y-98448921D01*
X162556617Y-98434671D01*
X162538893Y-98418607D01*
X162522829Y-98400883D01*
X162508579Y-98381670D01*
X162496282Y-98361153D01*
X162486054Y-98339529D01*
X162477996Y-98317007D01*
X162472184Y-98293803D01*
X162468674Y-98270142D01*
X162467500Y-98246250D01*
X162467500Y-97333750D01*
X162468674Y-97309858D01*
X162472184Y-97286197D01*
X162477996Y-97262993D01*
X162486054Y-97240471D01*
X162496282Y-97218847D01*
X162508579Y-97198330D01*
X162522829Y-97179117D01*
X162538893Y-97161393D01*
X162556617Y-97145329D01*
X162575830Y-97131079D01*
X162596347Y-97118782D01*
X162617971Y-97108554D01*
X162640493Y-97100496D01*
X162663697Y-97094684D01*
X162687358Y-97091174D01*
X162711250Y-97090000D01*
X163198750Y-97090000D01*
X163222642Y-97091174D01*
X163222642Y-97091174D01*
G37*
D17*
X162955000Y-97790000D03*
G04 #@! TD*
D10*
G04 #@! TO.C,C7*
G36*
X163238642Y-99631174D02*
X163262303Y-99634684D01*
X163285507Y-99640496D01*
X163308029Y-99648554D01*
X163329653Y-99658782D01*
X163350170Y-99671079D01*
X163369383Y-99685329D01*
X163387107Y-99701393D01*
X163403171Y-99719117D01*
X163417421Y-99738330D01*
X163429718Y-99758847D01*
X163439946Y-99780471D01*
X163448004Y-99802993D01*
X163453816Y-99826197D01*
X163457326Y-99849858D01*
X163458500Y-99873750D01*
X163458500Y-100786250D01*
X163457326Y-100810142D01*
X163453816Y-100833803D01*
X163448004Y-100857007D01*
X163439946Y-100879529D01*
X163429718Y-100901153D01*
X163417421Y-100921670D01*
X163403171Y-100940883D01*
X163387107Y-100958607D01*
X163369383Y-100974671D01*
X163350170Y-100988921D01*
X163329653Y-101001218D01*
X163308029Y-101011446D01*
X163285507Y-101019504D01*
X163262303Y-101025316D01*
X163238642Y-101028826D01*
X163214750Y-101030000D01*
X162727250Y-101030000D01*
X162703358Y-101028826D01*
X162679697Y-101025316D01*
X162656493Y-101019504D01*
X162633971Y-101011446D01*
X162612347Y-101001218D01*
X162591830Y-100988921D01*
X162572617Y-100974671D01*
X162554893Y-100958607D01*
X162538829Y-100940883D01*
X162524579Y-100921670D01*
X162512282Y-100901153D01*
X162502054Y-100879529D01*
X162493996Y-100857007D01*
X162488184Y-100833803D01*
X162484674Y-100810142D01*
X162483500Y-100786250D01*
X162483500Y-99873750D01*
X162484674Y-99849858D01*
X162488184Y-99826197D01*
X162493996Y-99802993D01*
X162502054Y-99780471D01*
X162512282Y-99758847D01*
X162524579Y-99738330D01*
X162538829Y-99719117D01*
X162554893Y-99701393D01*
X162572617Y-99685329D01*
X162591830Y-99671079D01*
X162612347Y-99658782D01*
X162633971Y-99648554D01*
X162656493Y-99640496D01*
X162679697Y-99634684D01*
X162703358Y-99631174D01*
X162727250Y-99630000D01*
X163214750Y-99630000D01*
X163238642Y-99631174D01*
X163238642Y-99631174D01*
G37*
D17*
X162971000Y-100330000D03*
D10*
G36*
X165113642Y-99631174D02*
X165137303Y-99634684D01*
X165160507Y-99640496D01*
X165183029Y-99648554D01*
X165204653Y-99658782D01*
X165225170Y-99671079D01*
X165244383Y-99685329D01*
X165262107Y-99701393D01*
X165278171Y-99719117D01*
X165292421Y-99738330D01*
X165304718Y-99758847D01*
X165314946Y-99780471D01*
X165323004Y-99802993D01*
X165328816Y-99826197D01*
X165332326Y-99849858D01*
X165333500Y-99873750D01*
X165333500Y-100786250D01*
X165332326Y-100810142D01*
X165328816Y-100833803D01*
X165323004Y-100857007D01*
X165314946Y-100879529D01*
X165304718Y-100901153D01*
X165292421Y-100921670D01*
X165278171Y-100940883D01*
X165262107Y-100958607D01*
X165244383Y-100974671D01*
X165225170Y-100988921D01*
X165204653Y-101001218D01*
X165183029Y-101011446D01*
X165160507Y-101019504D01*
X165137303Y-101025316D01*
X165113642Y-101028826D01*
X165089750Y-101030000D01*
X164602250Y-101030000D01*
X164578358Y-101028826D01*
X164554697Y-101025316D01*
X164531493Y-101019504D01*
X164508971Y-101011446D01*
X164487347Y-101001218D01*
X164466830Y-100988921D01*
X164447617Y-100974671D01*
X164429893Y-100958607D01*
X164413829Y-100940883D01*
X164399579Y-100921670D01*
X164387282Y-100901153D01*
X164377054Y-100879529D01*
X164368996Y-100857007D01*
X164363184Y-100833803D01*
X164359674Y-100810142D01*
X164358500Y-100786250D01*
X164358500Y-99873750D01*
X164359674Y-99849858D01*
X164363184Y-99826197D01*
X164368996Y-99802993D01*
X164377054Y-99780471D01*
X164387282Y-99758847D01*
X164399579Y-99738330D01*
X164413829Y-99719117D01*
X164429893Y-99701393D01*
X164447617Y-99685329D01*
X164466830Y-99671079D01*
X164487347Y-99658782D01*
X164508971Y-99648554D01*
X164531493Y-99640496D01*
X164554697Y-99634684D01*
X164578358Y-99631174D01*
X164602250Y-99630000D01*
X165089750Y-99630000D01*
X165113642Y-99631174D01*
X165113642Y-99631174D01*
G37*
D17*
X164846000Y-100330000D03*
G04 #@! TD*
D10*
G04 #@! TO.C,C6*
G36*
X165113642Y-103441174D02*
X165137303Y-103444684D01*
X165160507Y-103450496D01*
X165183029Y-103458554D01*
X165204653Y-103468782D01*
X165225170Y-103481079D01*
X165244383Y-103495329D01*
X165262107Y-103511393D01*
X165278171Y-103529117D01*
X165292421Y-103548330D01*
X165304718Y-103568847D01*
X165314946Y-103590471D01*
X165323004Y-103612993D01*
X165328816Y-103636197D01*
X165332326Y-103659858D01*
X165333500Y-103683750D01*
X165333500Y-104596250D01*
X165332326Y-104620142D01*
X165328816Y-104643803D01*
X165323004Y-104667007D01*
X165314946Y-104689529D01*
X165304718Y-104711153D01*
X165292421Y-104731670D01*
X165278171Y-104750883D01*
X165262107Y-104768607D01*
X165244383Y-104784671D01*
X165225170Y-104798921D01*
X165204653Y-104811218D01*
X165183029Y-104821446D01*
X165160507Y-104829504D01*
X165137303Y-104835316D01*
X165113642Y-104838826D01*
X165089750Y-104840000D01*
X164602250Y-104840000D01*
X164578358Y-104838826D01*
X164554697Y-104835316D01*
X164531493Y-104829504D01*
X164508971Y-104821446D01*
X164487347Y-104811218D01*
X164466830Y-104798921D01*
X164447617Y-104784671D01*
X164429893Y-104768607D01*
X164413829Y-104750883D01*
X164399579Y-104731670D01*
X164387282Y-104711153D01*
X164377054Y-104689529D01*
X164368996Y-104667007D01*
X164363184Y-104643803D01*
X164359674Y-104620142D01*
X164358500Y-104596250D01*
X164358500Y-103683750D01*
X164359674Y-103659858D01*
X164363184Y-103636197D01*
X164368996Y-103612993D01*
X164377054Y-103590471D01*
X164387282Y-103568847D01*
X164399579Y-103548330D01*
X164413829Y-103529117D01*
X164429893Y-103511393D01*
X164447617Y-103495329D01*
X164466830Y-103481079D01*
X164487347Y-103468782D01*
X164508971Y-103458554D01*
X164531493Y-103450496D01*
X164554697Y-103444684D01*
X164578358Y-103441174D01*
X164602250Y-103440000D01*
X165089750Y-103440000D01*
X165113642Y-103441174D01*
X165113642Y-103441174D01*
G37*
D17*
X164846000Y-104140000D03*
D10*
G36*
X163238642Y-103441174D02*
X163262303Y-103444684D01*
X163285507Y-103450496D01*
X163308029Y-103458554D01*
X163329653Y-103468782D01*
X163350170Y-103481079D01*
X163369383Y-103495329D01*
X163387107Y-103511393D01*
X163403171Y-103529117D01*
X163417421Y-103548330D01*
X163429718Y-103568847D01*
X163439946Y-103590471D01*
X163448004Y-103612993D01*
X163453816Y-103636197D01*
X163457326Y-103659858D01*
X163458500Y-103683750D01*
X163458500Y-104596250D01*
X163457326Y-104620142D01*
X163453816Y-104643803D01*
X163448004Y-104667007D01*
X163439946Y-104689529D01*
X163429718Y-104711153D01*
X163417421Y-104731670D01*
X163403171Y-104750883D01*
X163387107Y-104768607D01*
X163369383Y-104784671D01*
X163350170Y-104798921D01*
X163329653Y-104811218D01*
X163308029Y-104821446D01*
X163285507Y-104829504D01*
X163262303Y-104835316D01*
X163238642Y-104838826D01*
X163214750Y-104840000D01*
X162727250Y-104840000D01*
X162703358Y-104838826D01*
X162679697Y-104835316D01*
X162656493Y-104829504D01*
X162633971Y-104821446D01*
X162612347Y-104811218D01*
X162591830Y-104798921D01*
X162572617Y-104784671D01*
X162554893Y-104768607D01*
X162538829Y-104750883D01*
X162524579Y-104731670D01*
X162512282Y-104711153D01*
X162502054Y-104689529D01*
X162493996Y-104667007D01*
X162488184Y-104643803D01*
X162484674Y-104620142D01*
X162483500Y-104596250D01*
X162483500Y-103683750D01*
X162484674Y-103659858D01*
X162488184Y-103636197D01*
X162493996Y-103612993D01*
X162502054Y-103590471D01*
X162512282Y-103568847D01*
X162524579Y-103548330D01*
X162538829Y-103529117D01*
X162554893Y-103511393D01*
X162572617Y-103495329D01*
X162591830Y-103481079D01*
X162612347Y-103468782D01*
X162633971Y-103458554D01*
X162656493Y-103450496D01*
X162679697Y-103444684D01*
X162703358Y-103441174D01*
X162727250Y-103440000D01*
X163214750Y-103440000D01*
X163238642Y-103441174D01*
X163238642Y-103441174D01*
G37*
D17*
X162971000Y-104140000D03*
G04 #@! TD*
D10*
G04 #@! TO.C,C8*
G36*
X163238642Y-105981174D02*
X163262303Y-105984684D01*
X163285507Y-105990496D01*
X163308029Y-105998554D01*
X163329653Y-106008782D01*
X163350170Y-106021079D01*
X163369383Y-106035329D01*
X163387107Y-106051393D01*
X163403171Y-106069117D01*
X163417421Y-106088330D01*
X163429718Y-106108847D01*
X163439946Y-106130471D01*
X163448004Y-106152993D01*
X163453816Y-106176197D01*
X163457326Y-106199858D01*
X163458500Y-106223750D01*
X163458500Y-107136250D01*
X163457326Y-107160142D01*
X163453816Y-107183803D01*
X163448004Y-107207007D01*
X163439946Y-107229529D01*
X163429718Y-107251153D01*
X163417421Y-107271670D01*
X163403171Y-107290883D01*
X163387107Y-107308607D01*
X163369383Y-107324671D01*
X163350170Y-107338921D01*
X163329653Y-107351218D01*
X163308029Y-107361446D01*
X163285507Y-107369504D01*
X163262303Y-107375316D01*
X163238642Y-107378826D01*
X163214750Y-107380000D01*
X162727250Y-107380000D01*
X162703358Y-107378826D01*
X162679697Y-107375316D01*
X162656493Y-107369504D01*
X162633971Y-107361446D01*
X162612347Y-107351218D01*
X162591830Y-107338921D01*
X162572617Y-107324671D01*
X162554893Y-107308607D01*
X162538829Y-107290883D01*
X162524579Y-107271670D01*
X162512282Y-107251153D01*
X162502054Y-107229529D01*
X162493996Y-107207007D01*
X162488184Y-107183803D01*
X162484674Y-107160142D01*
X162483500Y-107136250D01*
X162483500Y-106223750D01*
X162484674Y-106199858D01*
X162488184Y-106176197D01*
X162493996Y-106152993D01*
X162502054Y-106130471D01*
X162512282Y-106108847D01*
X162524579Y-106088330D01*
X162538829Y-106069117D01*
X162554893Y-106051393D01*
X162572617Y-106035329D01*
X162591830Y-106021079D01*
X162612347Y-106008782D01*
X162633971Y-105998554D01*
X162656493Y-105990496D01*
X162679697Y-105984684D01*
X162703358Y-105981174D01*
X162727250Y-105980000D01*
X163214750Y-105980000D01*
X163238642Y-105981174D01*
X163238642Y-105981174D01*
G37*
D17*
X162971000Y-106680000D03*
D10*
G36*
X165113642Y-105981174D02*
X165137303Y-105984684D01*
X165160507Y-105990496D01*
X165183029Y-105998554D01*
X165204653Y-106008782D01*
X165225170Y-106021079D01*
X165244383Y-106035329D01*
X165262107Y-106051393D01*
X165278171Y-106069117D01*
X165292421Y-106088330D01*
X165304718Y-106108847D01*
X165314946Y-106130471D01*
X165323004Y-106152993D01*
X165328816Y-106176197D01*
X165332326Y-106199858D01*
X165333500Y-106223750D01*
X165333500Y-107136250D01*
X165332326Y-107160142D01*
X165328816Y-107183803D01*
X165323004Y-107207007D01*
X165314946Y-107229529D01*
X165304718Y-107251153D01*
X165292421Y-107271670D01*
X165278171Y-107290883D01*
X165262107Y-107308607D01*
X165244383Y-107324671D01*
X165225170Y-107338921D01*
X165204653Y-107351218D01*
X165183029Y-107361446D01*
X165160507Y-107369504D01*
X165137303Y-107375316D01*
X165113642Y-107378826D01*
X165089750Y-107380000D01*
X164602250Y-107380000D01*
X164578358Y-107378826D01*
X164554697Y-107375316D01*
X164531493Y-107369504D01*
X164508971Y-107361446D01*
X164487347Y-107351218D01*
X164466830Y-107338921D01*
X164447617Y-107324671D01*
X164429893Y-107308607D01*
X164413829Y-107290883D01*
X164399579Y-107271670D01*
X164387282Y-107251153D01*
X164377054Y-107229529D01*
X164368996Y-107207007D01*
X164363184Y-107183803D01*
X164359674Y-107160142D01*
X164358500Y-107136250D01*
X164358500Y-106223750D01*
X164359674Y-106199858D01*
X164363184Y-106176197D01*
X164368996Y-106152993D01*
X164377054Y-106130471D01*
X164387282Y-106108847D01*
X164399579Y-106088330D01*
X164413829Y-106069117D01*
X164429893Y-106051393D01*
X164447617Y-106035329D01*
X164466830Y-106021079D01*
X164487347Y-106008782D01*
X164508971Y-105998554D01*
X164531493Y-105990496D01*
X164554697Y-105984684D01*
X164578358Y-105981174D01*
X164602250Y-105980000D01*
X165089750Y-105980000D01*
X165113642Y-105981174D01*
X165113642Y-105981174D01*
G37*
D17*
X164846000Y-106680000D03*
G04 #@! TD*
D10*
G04 #@! TO.C,C2*
G36*
X164279505Y-109457204D02*
X164303773Y-109460804D01*
X164327572Y-109466765D01*
X164350671Y-109475030D01*
X164372850Y-109485520D01*
X164393893Y-109498132D01*
X164413599Y-109512747D01*
X164431777Y-109529223D01*
X164448253Y-109547401D01*
X164462868Y-109567107D01*
X164475480Y-109588150D01*
X164485970Y-109610329D01*
X164494235Y-109633428D01*
X164500196Y-109657227D01*
X164503796Y-109681495D01*
X164505000Y-109705999D01*
X164505000Y-110606001D01*
X164503796Y-110630505D01*
X164500196Y-110654773D01*
X164494235Y-110678572D01*
X164485970Y-110701671D01*
X164475480Y-110723850D01*
X164462868Y-110744893D01*
X164448253Y-110764599D01*
X164431777Y-110782777D01*
X164413599Y-110799253D01*
X164393893Y-110813868D01*
X164372850Y-110826480D01*
X164350671Y-110836970D01*
X164327572Y-110845235D01*
X164303773Y-110851196D01*
X164279505Y-110854796D01*
X164255001Y-110856000D01*
X163404999Y-110856000D01*
X163380495Y-110854796D01*
X163356227Y-110851196D01*
X163332428Y-110845235D01*
X163309329Y-110836970D01*
X163287150Y-110826480D01*
X163266107Y-110813868D01*
X163246401Y-110799253D01*
X163228223Y-110782777D01*
X163211747Y-110764599D01*
X163197132Y-110744893D01*
X163184520Y-110723850D01*
X163174030Y-110701671D01*
X163165765Y-110678572D01*
X163159804Y-110654773D01*
X163156204Y-110630505D01*
X163155000Y-110606001D01*
X163155000Y-109705999D01*
X163156204Y-109681495D01*
X163159804Y-109657227D01*
X163165765Y-109633428D01*
X163174030Y-109610329D01*
X163184520Y-109588150D01*
X163197132Y-109567107D01*
X163211747Y-109547401D01*
X163228223Y-109529223D01*
X163246401Y-109512747D01*
X163266107Y-109498132D01*
X163287150Y-109485520D01*
X163309329Y-109475030D01*
X163332428Y-109466765D01*
X163356227Y-109460804D01*
X163380495Y-109457204D01*
X163404999Y-109456000D01*
X164255001Y-109456000D01*
X164279505Y-109457204D01*
X164279505Y-109457204D01*
G37*
D18*
X163830000Y-110156000D03*
D10*
G36*
X164279505Y-112157204D02*
X164303773Y-112160804D01*
X164327572Y-112166765D01*
X164350671Y-112175030D01*
X164372850Y-112185520D01*
X164393893Y-112198132D01*
X164413599Y-112212747D01*
X164431777Y-112229223D01*
X164448253Y-112247401D01*
X164462868Y-112267107D01*
X164475480Y-112288150D01*
X164485970Y-112310329D01*
X164494235Y-112333428D01*
X164500196Y-112357227D01*
X164503796Y-112381495D01*
X164505000Y-112405999D01*
X164505000Y-113306001D01*
X164503796Y-113330505D01*
X164500196Y-113354773D01*
X164494235Y-113378572D01*
X164485970Y-113401671D01*
X164475480Y-113423850D01*
X164462868Y-113444893D01*
X164448253Y-113464599D01*
X164431777Y-113482777D01*
X164413599Y-113499253D01*
X164393893Y-113513868D01*
X164372850Y-113526480D01*
X164350671Y-113536970D01*
X164327572Y-113545235D01*
X164303773Y-113551196D01*
X164279505Y-113554796D01*
X164255001Y-113556000D01*
X163404999Y-113556000D01*
X163380495Y-113554796D01*
X163356227Y-113551196D01*
X163332428Y-113545235D01*
X163309329Y-113536970D01*
X163287150Y-113526480D01*
X163266107Y-113513868D01*
X163246401Y-113499253D01*
X163228223Y-113482777D01*
X163211747Y-113464599D01*
X163197132Y-113444893D01*
X163184520Y-113423850D01*
X163174030Y-113401671D01*
X163165765Y-113378572D01*
X163159804Y-113354773D01*
X163156204Y-113330505D01*
X163155000Y-113306001D01*
X163155000Y-112405999D01*
X163156204Y-112381495D01*
X163159804Y-112357227D01*
X163165765Y-112333428D01*
X163174030Y-112310329D01*
X163184520Y-112288150D01*
X163197132Y-112267107D01*
X163211747Y-112247401D01*
X163228223Y-112229223D01*
X163246401Y-112212747D01*
X163266107Y-112198132D01*
X163287150Y-112185520D01*
X163309329Y-112175030D01*
X163332428Y-112166765D01*
X163356227Y-112160804D01*
X163380495Y-112157204D01*
X163404999Y-112156000D01*
X164255001Y-112156000D01*
X164279505Y-112157204D01*
X164279505Y-112157204D01*
G37*
D18*
X163830000Y-112856000D03*
G04 #@! TD*
D12*
G04 #@! TO.C,U2*
X166116000Y-117602000D03*
X165125400Y-117576600D03*
X164084000Y-117602000D03*
X163068000Y-117602000D03*
X162052000Y-117602000D03*
X161036000Y-117602000D03*
X161036000Y-127762000D03*
X162052000Y-127762000D03*
X163068000Y-127762000D03*
X164084000Y-127762000D03*
X165100000Y-127762000D03*
X166116000Y-127762000D03*
D13*
X163576000Y-122682000D03*
D14*
X169164000Y-122682000D03*
X157988000Y-122682000D03*
G04 #@! TD*
D10*
G04 #@! TO.C,C11*
G36*
X156634642Y-126809174D02*
X156658303Y-126812684D01*
X156681507Y-126818496D01*
X156704029Y-126826554D01*
X156725653Y-126836782D01*
X156746170Y-126849079D01*
X156765383Y-126863329D01*
X156783107Y-126879393D01*
X156799171Y-126897117D01*
X156813421Y-126916330D01*
X156825718Y-126936847D01*
X156835946Y-126958471D01*
X156844004Y-126980993D01*
X156849816Y-127004197D01*
X156853326Y-127027858D01*
X156854500Y-127051750D01*
X156854500Y-127964250D01*
X156853326Y-127988142D01*
X156849816Y-128011803D01*
X156844004Y-128035007D01*
X156835946Y-128057529D01*
X156825718Y-128079153D01*
X156813421Y-128099670D01*
X156799171Y-128118883D01*
X156783107Y-128136607D01*
X156765383Y-128152671D01*
X156746170Y-128166921D01*
X156725653Y-128179218D01*
X156704029Y-128189446D01*
X156681507Y-128197504D01*
X156658303Y-128203316D01*
X156634642Y-128206826D01*
X156610750Y-128208000D01*
X156123250Y-128208000D01*
X156099358Y-128206826D01*
X156075697Y-128203316D01*
X156052493Y-128197504D01*
X156029971Y-128189446D01*
X156008347Y-128179218D01*
X155987830Y-128166921D01*
X155968617Y-128152671D01*
X155950893Y-128136607D01*
X155934829Y-128118883D01*
X155920579Y-128099670D01*
X155908282Y-128079153D01*
X155898054Y-128057529D01*
X155889996Y-128035007D01*
X155884184Y-128011803D01*
X155880674Y-127988142D01*
X155879500Y-127964250D01*
X155879500Y-127051750D01*
X155880674Y-127027858D01*
X155884184Y-127004197D01*
X155889996Y-126980993D01*
X155898054Y-126958471D01*
X155908282Y-126936847D01*
X155920579Y-126916330D01*
X155934829Y-126897117D01*
X155950893Y-126879393D01*
X155968617Y-126863329D01*
X155987830Y-126849079D01*
X156008347Y-126836782D01*
X156029971Y-126826554D01*
X156052493Y-126818496D01*
X156075697Y-126812684D01*
X156099358Y-126809174D01*
X156123250Y-126808000D01*
X156610750Y-126808000D01*
X156634642Y-126809174D01*
X156634642Y-126809174D01*
G37*
D17*
X156367000Y-127508000D03*
D10*
G36*
X158509642Y-126809174D02*
X158533303Y-126812684D01*
X158556507Y-126818496D01*
X158579029Y-126826554D01*
X158600653Y-126836782D01*
X158621170Y-126849079D01*
X158640383Y-126863329D01*
X158658107Y-126879393D01*
X158674171Y-126897117D01*
X158688421Y-126916330D01*
X158700718Y-126936847D01*
X158710946Y-126958471D01*
X158719004Y-126980993D01*
X158724816Y-127004197D01*
X158728326Y-127027858D01*
X158729500Y-127051750D01*
X158729500Y-127964250D01*
X158728326Y-127988142D01*
X158724816Y-128011803D01*
X158719004Y-128035007D01*
X158710946Y-128057529D01*
X158700718Y-128079153D01*
X158688421Y-128099670D01*
X158674171Y-128118883D01*
X158658107Y-128136607D01*
X158640383Y-128152671D01*
X158621170Y-128166921D01*
X158600653Y-128179218D01*
X158579029Y-128189446D01*
X158556507Y-128197504D01*
X158533303Y-128203316D01*
X158509642Y-128206826D01*
X158485750Y-128208000D01*
X157998250Y-128208000D01*
X157974358Y-128206826D01*
X157950697Y-128203316D01*
X157927493Y-128197504D01*
X157904971Y-128189446D01*
X157883347Y-128179218D01*
X157862830Y-128166921D01*
X157843617Y-128152671D01*
X157825893Y-128136607D01*
X157809829Y-128118883D01*
X157795579Y-128099670D01*
X157783282Y-128079153D01*
X157773054Y-128057529D01*
X157764996Y-128035007D01*
X157759184Y-128011803D01*
X157755674Y-127988142D01*
X157754500Y-127964250D01*
X157754500Y-127051750D01*
X157755674Y-127027858D01*
X157759184Y-127004197D01*
X157764996Y-126980993D01*
X157773054Y-126958471D01*
X157783282Y-126936847D01*
X157795579Y-126916330D01*
X157809829Y-126897117D01*
X157825893Y-126879393D01*
X157843617Y-126863329D01*
X157862830Y-126849079D01*
X157883347Y-126836782D01*
X157904971Y-126826554D01*
X157927493Y-126818496D01*
X157950697Y-126812684D01*
X157974358Y-126809174D01*
X157998250Y-126808000D01*
X158485750Y-126808000D01*
X158509642Y-126809174D01*
X158509642Y-126809174D01*
G37*
D17*
X158242000Y-127508000D03*
G04 #@! TD*
D10*
G04 #@! TO.C,R3*
G36*
X153508142Y-130365174D02*
X153531803Y-130368684D01*
X153555007Y-130374496D01*
X153577529Y-130382554D01*
X153599153Y-130392782D01*
X153619670Y-130405079D01*
X153638883Y-130419329D01*
X153656607Y-130435393D01*
X153672671Y-130453117D01*
X153686921Y-130472330D01*
X153699218Y-130492847D01*
X153709446Y-130514471D01*
X153717504Y-130536993D01*
X153723316Y-130560197D01*
X153726826Y-130583858D01*
X153728000Y-130607750D01*
X153728000Y-131520250D01*
X153726826Y-131544142D01*
X153723316Y-131567803D01*
X153717504Y-131591007D01*
X153709446Y-131613529D01*
X153699218Y-131635153D01*
X153686921Y-131655670D01*
X153672671Y-131674883D01*
X153656607Y-131692607D01*
X153638883Y-131708671D01*
X153619670Y-131722921D01*
X153599153Y-131735218D01*
X153577529Y-131745446D01*
X153555007Y-131753504D01*
X153531803Y-131759316D01*
X153508142Y-131762826D01*
X153484250Y-131764000D01*
X152996750Y-131764000D01*
X152972858Y-131762826D01*
X152949197Y-131759316D01*
X152925993Y-131753504D01*
X152903471Y-131745446D01*
X152881847Y-131735218D01*
X152861330Y-131722921D01*
X152842117Y-131708671D01*
X152824393Y-131692607D01*
X152808329Y-131674883D01*
X152794079Y-131655670D01*
X152781782Y-131635153D01*
X152771554Y-131613529D01*
X152763496Y-131591007D01*
X152757684Y-131567803D01*
X152754174Y-131544142D01*
X152753000Y-131520250D01*
X152753000Y-130607750D01*
X152754174Y-130583858D01*
X152757684Y-130560197D01*
X152763496Y-130536993D01*
X152771554Y-130514471D01*
X152781782Y-130492847D01*
X152794079Y-130472330D01*
X152808329Y-130453117D01*
X152824393Y-130435393D01*
X152842117Y-130419329D01*
X152861330Y-130405079D01*
X152881847Y-130392782D01*
X152903471Y-130382554D01*
X152925993Y-130374496D01*
X152949197Y-130368684D01*
X152972858Y-130365174D01*
X152996750Y-130364000D01*
X153484250Y-130364000D01*
X153508142Y-130365174D01*
X153508142Y-130365174D01*
G37*
D17*
X153240500Y-131064000D03*
D10*
G36*
X155383142Y-130365174D02*
X155406803Y-130368684D01*
X155430007Y-130374496D01*
X155452529Y-130382554D01*
X155474153Y-130392782D01*
X155494670Y-130405079D01*
X155513883Y-130419329D01*
X155531607Y-130435393D01*
X155547671Y-130453117D01*
X155561921Y-130472330D01*
X155574218Y-130492847D01*
X155584446Y-130514471D01*
X155592504Y-130536993D01*
X155598316Y-130560197D01*
X155601826Y-130583858D01*
X155603000Y-130607750D01*
X155603000Y-131520250D01*
X155601826Y-131544142D01*
X155598316Y-131567803D01*
X155592504Y-131591007D01*
X155584446Y-131613529D01*
X155574218Y-131635153D01*
X155561921Y-131655670D01*
X155547671Y-131674883D01*
X155531607Y-131692607D01*
X155513883Y-131708671D01*
X155494670Y-131722921D01*
X155474153Y-131735218D01*
X155452529Y-131745446D01*
X155430007Y-131753504D01*
X155406803Y-131759316D01*
X155383142Y-131762826D01*
X155359250Y-131764000D01*
X154871750Y-131764000D01*
X154847858Y-131762826D01*
X154824197Y-131759316D01*
X154800993Y-131753504D01*
X154778471Y-131745446D01*
X154756847Y-131735218D01*
X154736330Y-131722921D01*
X154717117Y-131708671D01*
X154699393Y-131692607D01*
X154683329Y-131674883D01*
X154669079Y-131655670D01*
X154656782Y-131635153D01*
X154646554Y-131613529D01*
X154638496Y-131591007D01*
X154632684Y-131567803D01*
X154629174Y-131544142D01*
X154628000Y-131520250D01*
X154628000Y-130607750D01*
X154629174Y-130583858D01*
X154632684Y-130560197D01*
X154638496Y-130536993D01*
X154646554Y-130514471D01*
X154656782Y-130492847D01*
X154669079Y-130472330D01*
X154683329Y-130453117D01*
X154699393Y-130435393D01*
X154717117Y-130419329D01*
X154736330Y-130405079D01*
X154756847Y-130392782D01*
X154778471Y-130382554D01*
X154800993Y-130374496D01*
X154824197Y-130368684D01*
X154847858Y-130365174D01*
X154871750Y-130364000D01*
X155359250Y-130364000D01*
X155383142Y-130365174D01*
X155383142Y-130365174D01*
G37*
D17*
X155115500Y-131064000D03*
G04 #@! TD*
D10*
G04 #@! TO.C,R2*
G36*
X150968142Y-126809174D02*
X150991803Y-126812684D01*
X151015007Y-126818496D01*
X151037529Y-126826554D01*
X151059153Y-126836782D01*
X151079670Y-126849079D01*
X151098883Y-126863329D01*
X151116607Y-126879393D01*
X151132671Y-126897117D01*
X151146921Y-126916330D01*
X151159218Y-126936847D01*
X151169446Y-126958471D01*
X151177504Y-126980993D01*
X151183316Y-127004197D01*
X151186826Y-127027858D01*
X151188000Y-127051750D01*
X151188000Y-127964250D01*
X151186826Y-127988142D01*
X151183316Y-128011803D01*
X151177504Y-128035007D01*
X151169446Y-128057529D01*
X151159218Y-128079153D01*
X151146921Y-128099670D01*
X151132671Y-128118883D01*
X151116607Y-128136607D01*
X151098883Y-128152671D01*
X151079670Y-128166921D01*
X151059153Y-128179218D01*
X151037529Y-128189446D01*
X151015007Y-128197504D01*
X150991803Y-128203316D01*
X150968142Y-128206826D01*
X150944250Y-128208000D01*
X150456750Y-128208000D01*
X150432858Y-128206826D01*
X150409197Y-128203316D01*
X150385993Y-128197504D01*
X150363471Y-128189446D01*
X150341847Y-128179218D01*
X150321330Y-128166921D01*
X150302117Y-128152671D01*
X150284393Y-128136607D01*
X150268329Y-128118883D01*
X150254079Y-128099670D01*
X150241782Y-128079153D01*
X150231554Y-128057529D01*
X150223496Y-128035007D01*
X150217684Y-128011803D01*
X150214174Y-127988142D01*
X150213000Y-127964250D01*
X150213000Y-127051750D01*
X150214174Y-127027858D01*
X150217684Y-127004197D01*
X150223496Y-126980993D01*
X150231554Y-126958471D01*
X150241782Y-126936847D01*
X150254079Y-126916330D01*
X150268329Y-126897117D01*
X150284393Y-126879393D01*
X150302117Y-126863329D01*
X150321330Y-126849079D01*
X150341847Y-126836782D01*
X150363471Y-126826554D01*
X150385993Y-126818496D01*
X150409197Y-126812684D01*
X150432858Y-126809174D01*
X150456750Y-126808000D01*
X150944250Y-126808000D01*
X150968142Y-126809174D01*
X150968142Y-126809174D01*
G37*
D17*
X150700500Y-127508000D03*
D10*
G36*
X152843142Y-126809174D02*
X152866803Y-126812684D01*
X152890007Y-126818496D01*
X152912529Y-126826554D01*
X152934153Y-126836782D01*
X152954670Y-126849079D01*
X152973883Y-126863329D01*
X152991607Y-126879393D01*
X153007671Y-126897117D01*
X153021921Y-126916330D01*
X153034218Y-126936847D01*
X153044446Y-126958471D01*
X153052504Y-126980993D01*
X153058316Y-127004197D01*
X153061826Y-127027858D01*
X153063000Y-127051750D01*
X153063000Y-127964250D01*
X153061826Y-127988142D01*
X153058316Y-128011803D01*
X153052504Y-128035007D01*
X153044446Y-128057529D01*
X153034218Y-128079153D01*
X153021921Y-128099670D01*
X153007671Y-128118883D01*
X152991607Y-128136607D01*
X152973883Y-128152671D01*
X152954670Y-128166921D01*
X152934153Y-128179218D01*
X152912529Y-128189446D01*
X152890007Y-128197504D01*
X152866803Y-128203316D01*
X152843142Y-128206826D01*
X152819250Y-128208000D01*
X152331750Y-128208000D01*
X152307858Y-128206826D01*
X152284197Y-128203316D01*
X152260993Y-128197504D01*
X152238471Y-128189446D01*
X152216847Y-128179218D01*
X152196330Y-128166921D01*
X152177117Y-128152671D01*
X152159393Y-128136607D01*
X152143329Y-128118883D01*
X152129079Y-128099670D01*
X152116782Y-128079153D01*
X152106554Y-128057529D01*
X152098496Y-128035007D01*
X152092684Y-128011803D01*
X152089174Y-127988142D01*
X152088000Y-127964250D01*
X152088000Y-127051750D01*
X152089174Y-127027858D01*
X152092684Y-127004197D01*
X152098496Y-126980993D01*
X152106554Y-126958471D01*
X152116782Y-126936847D01*
X152129079Y-126916330D01*
X152143329Y-126897117D01*
X152159393Y-126879393D01*
X152177117Y-126863329D01*
X152196330Y-126849079D01*
X152216847Y-126836782D01*
X152238471Y-126826554D01*
X152260993Y-126818496D01*
X152284197Y-126812684D01*
X152307858Y-126809174D01*
X152331750Y-126808000D01*
X152819250Y-126808000D01*
X152843142Y-126809174D01*
X152843142Y-126809174D01*
G37*
D17*
X152575500Y-127508000D03*
G04 #@! TD*
D10*
G04 #@! TO.C,D2*
G36*
X167527504Y-109866204D02*
X167551773Y-109869804D01*
X167575571Y-109875765D01*
X167598671Y-109884030D01*
X167620849Y-109894520D01*
X167641893Y-109907133D01*
X167661598Y-109921747D01*
X167679777Y-109938223D01*
X167696253Y-109956402D01*
X167710867Y-109976107D01*
X167723480Y-109997151D01*
X167733970Y-110019329D01*
X167742235Y-110042429D01*
X167748196Y-110066227D01*
X167751796Y-110090496D01*
X167753000Y-110115000D01*
X167753000Y-110865000D01*
X167751796Y-110889504D01*
X167748196Y-110913773D01*
X167742235Y-110937571D01*
X167733970Y-110960671D01*
X167723480Y-110982849D01*
X167710867Y-111003893D01*
X167696253Y-111023598D01*
X167679777Y-111041777D01*
X167661598Y-111058253D01*
X167641893Y-111072867D01*
X167620849Y-111085480D01*
X167598671Y-111095970D01*
X167575571Y-111104235D01*
X167551773Y-111110196D01*
X167527504Y-111113796D01*
X167503000Y-111115000D01*
X166253000Y-111115000D01*
X166228496Y-111113796D01*
X166204227Y-111110196D01*
X166180429Y-111104235D01*
X166157329Y-111095970D01*
X166135151Y-111085480D01*
X166114107Y-111072867D01*
X166094402Y-111058253D01*
X166076223Y-111041777D01*
X166059747Y-111023598D01*
X166045133Y-111003893D01*
X166032520Y-110982849D01*
X166022030Y-110960671D01*
X166013765Y-110937571D01*
X166007804Y-110913773D01*
X166004204Y-110889504D01*
X166003000Y-110865000D01*
X166003000Y-110115000D01*
X166004204Y-110090496D01*
X166007804Y-110066227D01*
X166013765Y-110042429D01*
X166022030Y-110019329D01*
X166032520Y-109997151D01*
X166045133Y-109976107D01*
X166059747Y-109956402D01*
X166076223Y-109938223D01*
X166094402Y-109921747D01*
X166114107Y-109907133D01*
X166135151Y-109894520D01*
X166157329Y-109884030D01*
X166180429Y-109875765D01*
X166204227Y-109869804D01*
X166228496Y-109866204D01*
X166253000Y-109865000D01*
X167503000Y-109865000D01*
X167527504Y-109866204D01*
X167527504Y-109866204D01*
G37*
D11*
X166878000Y-110490000D03*
D10*
G36*
X167527504Y-112666204D02*
X167551773Y-112669804D01*
X167575571Y-112675765D01*
X167598671Y-112684030D01*
X167620849Y-112694520D01*
X167641893Y-112707133D01*
X167661598Y-112721747D01*
X167679777Y-112738223D01*
X167696253Y-112756402D01*
X167710867Y-112776107D01*
X167723480Y-112797151D01*
X167733970Y-112819329D01*
X167742235Y-112842429D01*
X167748196Y-112866227D01*
X167751796Y-112890496D01*
X167753000Y-112915000D01*
X167753000Y-113665000D01*
X167751796Y-113689504D01*
X167748196Y-113713773D01*
X167742235Y-113737571D01*
X167733970Y-113760671D01*
X167723480Y-113782849D01*
X167710867Y-113803893D01*
X167696253Y-113823598D01*
X167679777Y-113841777D01*
X167661598Y-113858253D01*
X167641893Y-113872867D01*
X167620849Y-113885480D01*
X167598671Y-113895970D01*
X167575571Y-113904235D01*
X167551773Y-113910196D01*
X167527504Y-113913796D01*
X167503000Y-113915000D01*
X166253000Y-113915000D01*
X166228496Y-113913796D01*
X166204227Y-113910196D01*
X166180429Y-113904235D01*
X166157329Y-113895970D01*
X166135151Y-113885480D01*
X166114107Y-113872867D01*
X166094402Y-113858253D01*
X166076223Y-113841777D01*
X166059747Y-113823598D01*
X166045133Y-113803893D01*
X166032520Y-113782849D01*
X166022030Y-113760671D01*
X166013765Y-113737571D01*
X166007804Y-113713773D01*
X166004204Y-113689504D01*
X166003000Y-113665000D01*
X166003000Y-112915000D01*
X166004204Y-112890496D01*
X166007804Y-112866227D01*
X166013765Y-112842429D01*
X166022030Y-112819329D01*
X166032520Y-112797151D01*
X166045133Y-112776107D01*
X166059747Y-112756402D01*
X166076223Y-112738223D01*
X166094402Y-112721747D01*
X166114107Y-112707133D01*
X166135151Y-112694520D01*
X166157329Y-112684030D01*
X166180429Y-112675765D01*
X166204227Y-112669804D01*
X166228496Y-112666204D01*
X166253000Y-112665000D01*
X167503000Y-112665000D01*
X167527504Y-112666204D01*
X167527504Y-112666204D01*
G37*
D11*
X166878000Y-113290000D03*
G04 #@! TD*
D19*
G04 #@! TO.C,U3*
X157778000Y-105033000D03*
X157778000Y-104383000D03*
X157778000Y-103733000D03*
X157778000Y-103083000D03*
X157778000Y-102433000D03*
X157778000Y-101783000D03*
X157778000Y-101133000D03*
X157778000Y-100483000D03*
X157778000Y-99833000D03*
X157778000Y-99183000D03*
X150578000Y-99183000D03*
X150578000Y-99833000D03*
X150578000Y-100483000D03*
X150578000Y-101133000D03*
X150578000Y-101783000D03*
X150578000Y-102433000D03*
X150578000Y-103083000D03*
X150578000Y-103733000D03*
X150578000Y-104383000D03*
X150578000Y-105033000D03*
G04 #@! TD*
D15*
G04 #@! TO.C,U5*
X152044000Y-111506000D03*
D16*
X158344000Y-111506000D03*
X158344000Y-109206000D03*
X158344000Y-113806000D03*
G04 #@! TD*
D10*
G04 #@! TO.C,C10*
G36*
X153780642Y-106235174D02*
X153804303Y-106238684D01*
X153827507Y-106244496D01*
X153850029Y-106252554D01*
X153871653Y-106262782D01*
X153892170Y-106275079D01*
X153911383Y-106289329D01*
X153929107Y-106305393D01*
X153945171Y-106323117D01*
X153959421Y-106342330D01*
X153971718Y-106362847D01*
X153981946Y-106384471D01*
X153990004Y-106406993D01*
X153995816Y-106430197D01*
X153999326Y-106453858D01*
X154000500Y-106477750D01*
X154000500Y-107390250D01*
X153999326Y-107414142D01*
X153995816Y-107437803D01*
X153990004Y-107461007D01*
X153981946Y-107483529D01*
X153971718Y-107505153D01*
X153959421Y-107525670D01*
X153945171Y-107544883D01*
X153929107Y-107562607D01*
X153911383Y-107578671D01*
X153892170Y-107592921D01*
X153871653Y-107605218D01*
X153850029Y-107615446D01*
X153827507Y-107623504D01*
X153804303Y-107629316D01*
X153780642Y-107632826D01*
X153756750Y-107634000D01*
X153269250Y-107634000D01*
X153245358Y-107632826D01*
X153221697Y-107629316D01*
X153198493Y-107623504D01*
X153175971Y-107615446D01*
X153154347Y-107605218D01*
X153133830Y-107592921D01*
X153114617Y-107578671D01*
X153096893Y-107562607D01*
X153080829Y-107544883D01*
X153066579Y-107525670D01*
X153054282Y-107505153D01*
X153044054Y-107483529D01*
X153035996Y-107461007D01*
X153030184Y-107437803D01*
X153026674Y-107414142D01*
X153025500Y-107390250D01*
X153025500Y-106477750D01*
X153026674Y-106453858D01*
X153030184Y-106430197D01*
X153035996Y-106406993D01*
X153044054Y-106384471D01*
X153054282Y-106362847D01*
X153066579Y-106342330D01*
X153080829Y-106323117D01*
X153096893Y-106305393D01*
X153114617Y-106289329D01*
X153133830Y-106275079D01*
X153154347Y-106262782D01*
X153175971Y-106252554D01*
X153198493Y-106244496D01*
X153221697Y-106238684D01*
X153245358Y-106235174D01*
X153269250Y-106234000D01*
X153756750Y-106234000D01*
X153780642Y-106235174D01*
X153780642Y-106235174D01*
G37*
D17*
X153513000Y-106934000D03*
D10*
G36*
X151905642Y-106235174D02*
X151929303Y-106238684D01*
X151952507Y-106244496D01*
X151975029Y-106252554D01*
X151996653Y-106262782D01*
X152017170Y-106275079D01*
X152036383Y-106289329D01*
X152054107Y-106305393D01*
X152070171Y-106323117D01*
X152084421Y-106342330D01*
X152096718Y-106362847D01*
X152106946Y-106384471D01*
X152115004Y-106406993D01*
X152120816Y-106430197D01*
X152124326Y-106453858D01*
X152125500Y-106477750D01*
X152125500Y-107390250D01*
X152124326Y-107414142D01*
X152120816Y-107437803D01*
X152115004Y-107461007D01*
X152106946Y-107483529D01*
X152096718Y-107505153D01*
X152084421Y-107525670D01*
X152070171Y-107544883D01*
X152054107Y-107562607D01*
X152036383Y-107578671D01*
X152017170Y-107592921D01*
X151996653Y-107605218D01*
X151975029Y-107615446D01*
X151952507Y-107623504D01*
X151929303Y-107629316D01*
X151905642Y-107632826D01*
X151881750Y-107634000D01*
X151394250Y-107634000D01*
X151370358Y-107632826D01*
X151346697Y-107629316D01*
X151323493Y-107623504D01*
X151300971Y-107615446D01*
X151279347Y-107605218D01*
X151258830Y-107592921D01*
X151239617Y-107578671D01*
X151221893Y-107562607D01*
X151205829Y-107544883D01*
X151191579Y-107525670D01*
X151179282Y-107505153D01*
X151169054Y-107483529D01*
X151160996Y-107461007D01*
X151155184Y-107437803D01*
X151151674Y-107414142D01*
X151150500Y-107390250D01*
X151150500Y-106477750D01*
X151151674Y-106453858D01*
X151155184Y-106430197D01*
X151160996Y-106406993D01*
X151169054Y-106384471D01*
X151179282Y-106362847D01*
X151191579Y-106342330D01*
X151205829Y-106323117D01*
X151221893Y-106305393D01*
X151239617Y-106289329D01*
X151258830Y-106275079D01*
X151279347Y-106262782D01*
X151300971Y-106252554D01*
X151323493Y-106244496D01*
X151346697Y-106238684D01*
X151370358Y-106235174D01*
X151394250Y-106234000D01*
X151881750Y-106234000D01*
X151905642Y-106235174D01*
X151905642Y-106235174D01*
G37*
D17*
X151638000Y-106934000D03*
G04 #@! TD*
D10*
G04 #@! TO.C,C3*
G36*
X161770142Y-110082174D02*
X161793803Y-110085684D01*
X161817007Y-110091496D01*
X161839529Y-110099554D01*
X161861153Y-110109782D01*
X161881670Y-110122079D01*
X161900883Y-110136329D01*
X161918607Y-110152393D01*
X161934671Y-110170117D01*
X161948921Y-110189330D01*
X161961218Y-110209847D01*
X161971446Y-110231471D01*
X161979504Y-110253993D01*
X161985316Y-110277197D01*
X161988826Y-110300858D01*
X161990000Y-110324750D01*
X161990000Y-110812250D01*
X161988826Y-110836142D01*
X161985316Y-110859803D01*
X161979504Y-110883007D01*
X161971446Y-110905529D01*
X161961218Y-110927153D01*
X161948921Y-110947670D01*
X161934671Y-110966883D01*
X161918607Y-110984607D01*
X161900883Y-111000671D01*
X161881670Y-111014921D01*
X161861153Y-111027218D01*
X161839529Y-111037446D01*
X161817007Y-111045504D01*
X161793803Y-111051316D01*
X161770142Y-111054826D01*
X161746250Y-111056000D01*
X160833750Y-111056000D01*
X160809858Y-111054826D01*
X160786197Y-111051316D01*
X160762993Y-111045504D01*
X160740471Y-111037446D01*
X160718847Y-111027218D01*
X160698330Y-111014921D01*
X160679117Y-111000671D01*
X160661393Y-110984607D01*
X160645329Y-110966883D01*
X160631079Y-110947670D01*
X160618782Y-110927153D01*
X160608554Y-110905529D01*
X160600496Y-110883007D01*
X160594684Y-110859803D01*
X160591174Y-110836142D01*
X160590000Y-110812250D01*
X160590000Y-110324750D01*
X160591174Y-110300858D01*
X160594684Y-110277197D01*
X160600496Y-110253993D01*
X160608554Y-110231471D01*
X160618782Y-110209847D01*
X160631079Y-110189330D01*
X160645329Y-110170117D01*
X160661393Y-110152393D01*
X160679117Y-110136329D01*
X160698330Y-110122079D01*
X160718847Y-110109782D01*
X160740471Y-110099554D01*
X160762993Y-110091496D01*
X160786197Y-110085684D01*
X160809858Y-110082174D01*
X160833750Y-110081000D01*
X161746250Y-110081000D01*
X161770142Y-110082174D01*
X161770142Y-110082174D01*
G37*
D17*
X161290000Y-110568500D03*
D10*
G36*
X161770142Y-111957174D02*
X161793803Y-111960684D01*
X161817007Y-111966496D01*
X161839529Y-111974554D01*
X161861153Y-111984782D01*
X161881670Y-111997079D01*
X161900883Y-112011329D01*
X161918607Y-112027393D01*
X161934671Y-112045117D01*
X161948921Y-112064330D01*
X161961218Y-112084847D01*
X161971446Y-112106471D01*
X161979504Y-112128993D01*
X161985316Y-112152197D01*
X161988826Y-112175858D01*
X161990000Y-112199750D01*
X161990000Y-112687250D01*
X161988826Y-112711142D01*
X161985316Y-112734803D01*
X161979504Y-112758007D01*
X161971446Y-112780529D01*
X161961218Y-112802153D01*
X161948921Y-112822670D01*
X161934671Y-112841883D01*
X161918607Y-112859607D01*
X161900883Y-112875671D01*
X161881670Y-112889921D01*
X161861153Y-112902218D01*
X161839529Y-112912446D01*
X161817007Y-112920504D01*
X161793803Y-112926316D01*
X161770142Y-112929826D01*
X161746250Y-112931000D01*
X160833750Y-112931000D01*
X160809858Y-112929826D01*
X160786197Y-112926316D01*
X160762993Y-112920504D01*
X160740471Y-112912446D01*
X160718847Y-112902218D01*
X160698330Y-112889921D01*
X160679117Y-112875671D01*
X160661393Y-112859607D01*
X160645329Y-112841883D01*
X160631079Y-112822670D01*
X160618782Y-112802153D01*
X160608554Y-112780529D01*
X160600496Y-112758007D01*
X160594684Y-112734803D01*
X160591174Y-112711142D01*
X160590000Y-112687250D01*
X160590000Y-112199750D01*
X160591174Y-112175858D01*
X160594684Y-112152197D01*
X160600496Y-112128993D01*
X160608554Y-112106471D01*
X160618782Y-112084847D01*
X160631079Y-112064330D01*
X160645329Y-112045117D01*
X160661393Y-112027393D01*
X160679117Y-112011329D01*
X160698330Y-111997079D01*
X160718847Y-111984782D01*
X160740471Y-111974554D01*
X160762993Y-111966496D01*
X160786197Y-111960684D01*
X160809858Y-111957174D01*
X160833750Y-111956000D01*
X161746250Y-111956000D01*
X161770142Y-111957174D01*
X161770142Y-111957174D01*
G37*
D17*
X161290000Y-112443500D03*
G04 #@! TD*
D10*
G04 #@! TO.C,C9*
G36*
X151730142Y-115633174D02*
X151753803Y-115636684D01*
X151777007Y-115642496D01*
X151799529Y-115650554D01*
X151821153Y-115660782D01*
X151841670Y-115673079D01*
X151860883Y-115687329D01*
X151878607Y-115703393D01*
X151894671Y-115721117D01*
X151908921Y-115740330D01*
X151921218Y-115760847D01*
X151931446Y-115782471D01*
X151939504Y-115804993D01*
X151945316Y-115828197D01*
X151948826Y-115851858D01*
X151950000Y-115875750D01*
X151950000Y-116788250D01*
X151948826Y-116812142D01*
X151945316Y-116835803D01*
X151939504Y-116859007D01*
X151931446Y-116881529D01*
X151921218Y-116903153D01*
X151908921Y-116923670D01*
X151894671Y-116942883D01*
X151878607Y-116960607D01*
X151860883Y-116976671D01*
X151841670Y-116990921D01*
X151821153Y-117003218D01*
X151799529Y-117013446D01*
X151777007Y-117021504D01*
X151753803Y-117027316D01*
X151730142Y-117030826D01*
X151706250Y-117032000D01*
X151218750Y-117032000D01*
X151194858Y-117030826D01*
X151171197Y-117027316D01*
X151147993Y-117021504D01*
X151125471Y-117013446D01*
X151103847Y-117003218D01*
X151083330Y-116990921D01*
X151064117Y-116976671D01*
X151046393Y-116960607D01*
X151030329Y-116942883D01*
X151016079Y-116923670D01*
X151003782Y-116903153D01*
X150993554Y-116881529D01*
X150985496Y-116859007D01*
X150979684Y-116835803D01*
X150976174Y-116812142D01*
X150975000Y-116788250D01*
X150975000Y-115875750D01*
X150976174Y-115851858D01*
X150979684Y-115828197D01*
X150985496Y-115804993D01*
X150993554Y-115782471D01*
X151003782Y-115760847D01*
X151016079Y-115740330D01*
X151030329Y-115721117D01*
X151046393Y-115703393D01*
X151064117Y-115687329D01*
X151083330Y-115673079D01*
X151103847Y-115660782D01*
X151125471Y-115650554D01*
X151147993Y-115642496D01*
X151171197Y-115636684D01*
X151194858Y-115633174D01*
X151218750Y-115632000D01*
X151706250Y-115632000D01*
X151730142Y-115633174D01*
X151730142Y-115633174D01*
G37*
D17*
X151462500Y-116332000D03*
D10*
G36*
X153605142Y-115633174D02*
X153628803Y-115636684D01*
X153652007Y-115642496D01*
X153674529Y-115650554D01*
X153696153Y-115660782D01*
X153716670Y-115673079D01*
X153735883Y-115687329D01*
X153753607Y-115703393D01*
X153769671Y-115721117D01*
X153783921Y-115740330D01*
X153796218Y-115760847D01*
X153806446Y-115782471D01*
X153814504Y-115804993D01*
X153820316Y-115828197D01*
X153823826Y-115851858D01*
X153825000Y-115875750D01*
X153825000Y-116788250D01*
X153823826Y-116812142D01*
X153820316Y-116835803D01*
X153814504Y-116859007D01*
X153806446Y-116881529D01*
X153796218Y-116903153D01*
X153783921Y-116923670D01*
X153769671Y-116942883D01*
X153753607Y-116960607D01*
X153735883Y-116976671D01*
X153716670Y-116990921D01*
X153696153Y-117003218D01*
X153674529Y-117013446D01*
X153652007Y-117021504D01*
X153628803Y-117027316D01*
X153605142Y-117030826D01*
X153581250Y-117032000D01*
X153093750Y-117032000D01*
X153069858Y-117030826D01*
X153046197Y-117027316D01*
X153022993Y-117021504D01*
X153000471Y-117013446D01*
X152978847Y-117003218D01*
X152958330Y-116990921D01*
X152939117Y-116976671D01*
X152921393Y-116960607D01*
X152905329Y-116942883D01*
X152891079Y-116923670D01*
X152878782Y-116903153D01*
X152868554Y-116881529D01*
X152860496Y-116859007D01*
X152854684Y-116835803D01*
X152851174Y-116812142D01*
X152850000Y-116788250D01*
X152850000Y-115875750D01*
X152851174Y-115851858D01*
X152854684Y-115828197D01*
X152860496Y-115804993D01*
X152868554Y-115782471D01*
X152878782Y-115760847D01*
X152891079Y-115740330D01*
X152905329Y-115721117D01*
X152921393Y-115703393D01*
X152939117Y-115687329D01*
X152958330Y-115673079D01*
X152978847Y-115660782D01*
X153000471Y-115650554D01*
X153022993Y-115642496D01*
X153046197Y-115636684D01*
X153069858Y-115633174D01*
X153093750Y-115632000D01*
X153581250Y-115632000D01*
X153605142Y-115633174D01*
X153605142Y-115633174D01*
G37*
D17*
X153337500Y-116332000D03*
G04 #@! TD*
M02*
