G04 #@! TF.GenerationSoftware,KiCad,Pcbnew,(5.0.0)*
G04 #@! TF.CreationDate,2018-10-15T11:55:30+01:00*
G04 #@! TF.ProjectId,Motor Shield,4D6F746F7220536869656C642E6B6963,rev?*
G04 #@! TF.SameCoordinates,Original*
G04 #@! TF.FileFunction,Soldermask,Top*
G04 #@! TF.FilePolarity,Negative*
%FSLAX46Y46*%
G04 Gerber Fmt 4.6, Leading zero omitted, Abs format (unit mm)*
G04 Created by KiCad (PCBNEW (5.0.0)) date 10/15/18 11:55:30*
%MOMM*%
%LPD*%
G01*
G04 APERTURE LIST*
%ADD10C,0.150000*%
%ADD11C,0.100000*%
%ADD12C,0.790000*%
%ADD13C,1.075000*%
%ADD14C,1.300000*%
%ADD15C,2.400000*%
%ADD16R,2.400000X2.400000*%
%ADD17R,2.200000X4.000000*%
%ADD18R,2.200000X1.700000*%
%ADD19R,1.900000X1.900000*%
%ADD20O,1.900000X1.900000*%
%ADD21R,1.950000X0.650000*%
%ADD22C,6.200000*%
%ADD23C,1.724000*%
%ADD24R,1.800000X3.200000*%
%ADD25R,4.200000X4.200000*%
%ADD26R,6.650000X4.600000*%
%ADD27R,0.850000X1.550000*%
G04 APERTURE END LIST*
D10*
G04 #@! TO.C,U1*
X166370000Y-83820000D02*
X167640000Y-83820000D01*
X167640000Y-83185000D02*
X166370000Y-83820000D01*
X166370000Y-83185000D02*
X167640000Y-83185000D01*
X167640000Y-82550000D02*
X166370000Y-83185000D01*
X166370000Y-82550000D02*
X167640000Y-82550000D01*
X167640000Y-81915000D02*
X166370000Y-82550000D01*
X166370000Y-81915000D02*
X167640000Y-81915000D01*
X167640000Y-81280000D02*
X166370000Y-81915000D01*
X166370000Y-81280000D02*
X167640000Y-81280000D01*
X167640000Y-80645000D02*
X166370000Y-81280000D01*
X166370000Y-80645000D02*
X167640000Y-80645000D01*
X167640000Y-80010000D02*
X166370000Y-80645000D01*
X166370000Y-80010000D02*
X167640000Y-80010000D01*
X160020000Y-83820000D02*
X161290000Y-83820000D01*
X161290000Y-83185000D02*
X160020000Y-83820000D01*
X160020000Y-83185000D02*
X161290000Y-83185000D01*
X161290000Y-82550000D02*
X160020000Y-83185000D01*
X160020000Y-82550000D02*
X161290000Y-82550000D01*
X161290000Y-81915000D02*
X160020000Y-82550000D01*
X160020000Y-81915000D02*
X161290000Y-81915000D01*
X161290000Y-81280000D02*
X160020000Y-81915000D01*
X160020000Y-81280000D02*
X161290000Y-81280000D01*
X161290000Y-80645000D02*
X160020000Y-81280000D01*
X160020000Y-80645000D02*
X161290000Y-80645000D01*
X161290000Y-80010000D02*
X160020000Y-80645000D01*
X160020000Y-80010000D02*
X161290000Y-80010000D01*
G04 #@! TO.C,U2*
X161036000Y-120777000D02*
X159766000Y-120777000D01*
X159766000Y-121412000D02*
X161036000Y-120777000D01*
X161036000Y-121412000D02*
X159766000Y-121412000D01*
X159766000Y-122047000D02*
X161036000Y-121412000D01*
X161036000Y-122047000D02*
X159766000Y-122047000D01*
X159766000Y-122682000D02*
X161036000Y-122047000D01*
X161036000Y-122682000D02*
X159766000Y-122682000D01*
X159766000Y-123317000D02*
X161036000Y-122682000D01*
X161036000Y-123317000D02*
X159766000Y-123317000D01*
X159766000Y-123952000D02*
X161036000Y-123317000D01*
X161036000Y-123952000D02*
X159766000Y-123952000D01*
X159766000Y-124587000D02*
X161036000Y-123952000D01*
X161036000Y-124587000D02*
X159766000Y-124587000D01*
X167386000Y-120777000D02*
X166116000Y-120777000D01*
X166116000Y-121412000D02*
X167386000Y-120777000D01*
X167386000Y-121412000D02*
X166116000Y-121412000D01*
X166116000Y-122047000D02*
X167386000Y-121412000D01*
X167386000Y-122047000D02*
X166116000Y-122047000D01*
X166116000Y-122682000D02*
X167386000Y-122047000D01*
X167386000Y-122682000D02*
X166116000Y-122682000D01*
X166116000Y-123317000D02*
X167386000Y-122682000D01*
X167386000Y-123317000D02*
X166116000Y-123317000D01*
X166116000Y-123952000D02*
X167386000Y-123317000D01*
X167386000Y-123952000D02*
X166116000Y-123952000D01*
X166116000Y-124587000D02*
X167386000Y-123952000D01*
X167386000Y-124587000D02*
X166116000Y-124587000D01*
G04 #@! TD*
D11*
G04 #@! TO.C,R1*
G36*
X150376858Y-71335951D02*
X150396030Y-71338795D01*
X150414831Y-71343504D01*
X150433080Y-71350034D01*
X150450601Y-71358321D01*
X150467225Y-71368285D01*
X150482793Y-71379830D01*
X150497154Y-71392846D01*
X150510170Y-71407207D01*
X150521715Y-71422775D01*
X150531679Y-71439399D01*
X150539966Y-71456920D01*
X150546496Y-71475169D01*
X150551205Y-71493970D01*
X150554049Y-71513142D01*
X150555000Y-71532500D01*
X150555000Y-71977500D01*
X150554049Y-71996858D01*
X150551205Y-72016030D01*
X150546496Y-72034831D01*
X150539966Y-72053080D01*
X150531679Y-72070601D01*
X150521715Y-72087225D01*
X150510170Y-72102793D01*
X150497154Y-72117154D01*
X150482793Y-72130170D01*
X150467225Y-72141715D01*
X150450601Y-72151679D01*
X150433080Y-72159966D01*
X150414831Y-72166496D01*
X150396030Y-72171205D01*
X150376858Y-72174049D01*
X150357500Y-72175000D01*
X149962500Y-72175000D01*
X149943142Y-72174049D01*
X149923970Y-72171205D01*
X149905169Y-72166496D01*
X149886920Y-72159966D01*
X149869399Y-72151679D01*
X149852775Y-72141715D01*
X149837207Y-72130170D01*
X149822846Y-72117154D01*
X149809830Y-72102793D01*
X149798285Y-72087225D01*
X149788321Y-72070601D01*
X149780034Y-72053080D01*
X149773504Y-72034831D01*
X149768795Y-72016030D01*
X149765951Y-71996858D01*
X149765000Y-71977500D01*
X149765000Y-71532500D01*
X149765951Y-71513142D01*
X149768795Y-71493970D01*
X149773504Y-71475169D01*
X149780034Y-71456920D01*
X149788321Y-71439399D01*
X149798285Y-71422775D01*
X149809830Y-71407207D01*
X149822846Y-71392846D01*
X149837207Y-71379830D01*
X149852775Y-71368285D01*
X149869399Y-71358321D01*
X149886920Y-71350034D01*
X149905169Y-71343504D01*
X149923970Y-71338795D01*
X149943142Y-71335951D01*
X149962500Y-71335000D01*
X150357500Y-71335000D01*
X150376858Y-71335951D01*
X150376858Y-71335951D01*
G37*
D12*
X150160000Y-71755000D03*
D11*
G36*
X151346858Y-71335951D02*
X151366030Y-71338795D01*
X151384831Y-71343504D01*
X151403080Y-71350034D01*
X151420601Y-71358321D01*
X151437225Y-71368285D01*
X151452793Y-71379830D01*
X151467154Y-71392846D01*
X151480170Y-71407207D01*
X151491715Y-71422775D01*
X151501679Y-71439399D01*
X151509966Y-71456920D01*
X151516496Y-71475169D01*
X151521205Y-71493970D01*
X151524049Y-71513142D01*
X151525000Y-71532500D01*
X151525000Y-71977500D01*
X151524049Y-71996858D01*
X151521205Y-72016030D01*
X151516496Y-72034831D01*
X151509966Y-72053080D01*
X151501679Y-72070601D01*
X151491715Y-72087225D01*
X151480170Y-72102793D01*
X151467154Y-72117154D01*
X151452793Y-72130170D01*
X151437225Y-72141715D01*
X151420601Y-72151679D01*
X151403080Y-72159966D01*
X151384831Y-72166496D01*
X151366030Y-72171205D01*
X151346858Y-72174049D01*
X151327500Y-72175000D01*
X150932500Y-72175000D01*
X150913142Y-72174049D01*
X150893970Y-72171205D01*
X150875169Y-72166496D01*
X150856920Y-72159966D01*
X150839399Y-72151679D01*
X150822775Y-72141715D01*
X150807207Y-72130170D01*
X150792846Y-72117154D01*
X150779830Y-72102793D01*
X150768285Y-72087225D01*
X150758321Y-72070601D01*
X150750034Y-72053080D01*
X150743504Y-72034831D01*
X150738795Y-72016030D01*
X150735951Y-71996858D01*
X150735000Y-71977500D01*
X150735000Y-71532500D01*
X150735951Y-71513142D01*
X150738795Y-71493970D01*
X150743504Y-71475169D01*
X150750034Y-71456920D01*
X150758321Y-71439399D01*
X150768285Y-71422775D01*
X150779830Y-71407207D01*
X150792846Y-71392846D01*
X150807207Y-71379830D01*
X150822775Y-71368285D01*
X150839399Y-71358321D01*
X150856920Y-71350034D01*
X150875169Y-71343504D01*
X150893970Y-71338795D01*
X150913142Y-71335951D01*
X150932500Y-71335000D01*
X151327500Y-71335000D01*
X151346858Y-71335951D01*
X151346858Y-71335951D01*
G37*
D12*
X151130000Y-71755000D03*
G04 #@! TD*
D11*
G04 #@! TO.C,D3*
G36*
X150485092Y-81341294D02*
X150511181Y-81345164D01*
X150536764Y-81351572D01*
X150561596Y-81360457D01*
X150585438Y-81371734D01*
X150608060Y-81385293D01*
X150629243Y-81401003D01*
X150648785Y-81418715D01*
X150666497Y-81438257D01*
X150682207Y-81459440D01*
X150695766Y-81482062D01*
X150707043Y-81505904D01*
X150715928Y-81530736D01*
X150722336Y-81556319D01*
X150726206Y-81582408D01*
X150727500Y-81608750D01*
X150727500Y-82221250D01*
X150726206Y-82247592D01*
X150722336Y-82273681D01*
X150715928Y-82299264D01*
X150707043Y-82324096D01*
X150695766Y-82347938D01*
X150682207Y-82370560D01*
X150666497Y-82391743D01*
X150648785Y-82411285D01*
X150629243Y-82428997D01*
X150608060Y-82444707D01*
X150585438Y-82458266D01*
X150561596Y-82469543D01*
X150536764Y-82478428D01*
X150511181Y-82484836D01*
X150485092Y-82488706D01*
X150458750Y-82490000D01*
X149921250Y-82490000D01*
X149894908Y-82488706D01*
X149868819Y-82484836D01*
X149843236Y-82478428D01*
X149818404Y-82469543D01*
X149794562Y-82458266D01*
X149771940Y-82444707D01*
X149750757Y-82428997D01*
X149731215Y-82411285D01*
X149713503Y-82391743D01*
X149697793Y-82370560D01*
X149684234Y-82347938D01*
X149672957Y-82324096D01*
X149664072Y-82299264D01*
X149657664Y-82273681D01*
X149653794Y-82247592D01*
X149652500Y-82221250D01*
X149652500Y-81608750D01*
X149653794Y-81582408D01*
X149657664Y-81556319D01*
X149664072Y-81530736D01*
X149672957Y-81505904D01*
X149684234Y-81482062D01*
X149697793Y-81459440D01*
X149713503Y-81438257D01*
X149731215Y-81418715D01*
X149750757Y-81401003D01*
X149771940Y-81385293D01*
X149794562Y-81371734D01*
X149818404Y-81360457D01*
X149843236Y-81351572D01*
X149868819Y-81345164D01*
X149894908Y-81341294D01*
X149921250Y-81340000D01*
X150458750Y-81340000D01*
X150485092Y-81341294D01*
X150485092Y-81341294D01*
G37*
D13*
X150190000Y-81915000D03*
D11*
G36*
X152060092Y-81341294D02*
X152086181Y-81345164D01*
X152111764Y-81351572D01*
X152136596Y-81360457D01*
X152160438Y-81371734D01*
X152183060Y-81385293D01*
X152204243Y-81401003D01*
X152223785Y-81418715D01*
X152241497Y-81438257D01*
X152257207Y-81459440D01*
X152270766Y-81482062D01*
X152282043Y-81505904D01*
X152290928Y-81530736D01*
X152297336Y-81556319D01*
X152301206Y-81582408D01*
X152302500Y-81608750D01*
X152302500Y-82221250D01*
X152301206Y-82247592D01*
X152297336Y-82273681D01*
X152290928Y-82299264D01*
X152282043Y-82324096D01*
X152270766Y-82347938D01*
X152257207Y-82370560D01*
X152241497Y-82391743D01*
X152223785Y-82411285D01*
X152204243Y-82428997D01*
X152183060Y-82444707D01*
X152160438Y-82458266D01*
X152136596Y-82469543D01*
X152111764Y-82478428D01*
X152086181Y-82484836D01*
X152060092Y-82488706D01*
X152033750Y-82490000D01*
X151496250Y-82490000D01*
X151469908Y-82488706D01*
X151443819Y-82484836D01*
X151418236Y-82478428D01*
X151393404Y-82469543D01*
X151369562Y-82458266D01*
X151346940Y-82444707D01*
X151325757Y-82428997D01*
X151306215Y-82411285D01*
X151288503Y-82391743D01*
X151272793Y-82370560D01*
X151259234Y-82347938D01*
X151247957Y-82324096D01*
X151239072Y-82299264D01*
X151232664Y-82273681D01*
X151228794Y-82247592D01*
X151227500Y-82221250D01*
X151227500Y-81608750D01*
X151228794Y-81582408D01*
X151232664Y-81556319D01*
X151239072Y-81530736D01*
X151247957Y-81505904D01*
X151259234Y-81482062D01*
X151272793Y-81459440D01*
X151288503Y-81438257D01*
X151306215Y-81418715D01*
X151325757Y-81401003D01*
X151346940Y-81385293D01*
X151369562Y-81371734D01*
X151393404Y-81360457D01*
X151418236Y-81351572D01*
X151443819Y-81345164D01*
X151469908Y-81341294D01*
X151496250Y-81340000D01*
X152033750Y-81340000D01*
X152060092Y-81341294D01*
X152060092Y-81341294D01*
G37*
D13*
X151765000Y-81915000D03*
G04 #@! TD*
D14*
G04 #@! TO.C,J4*
X167386000Y-106680000D03*
D15*
X169926000Y-106680000D03*
D14*
X167386000Y-104140000D03*
D16*
X169926000Y-104140000D03*
G04 #@! TD*
G04 #@! TO.C,J5*
X169926000Y-97790000D03*
D14*
X167386000Y-97790000D03*
D15*
X169926000Y-100330000D03*
D14*
X167386000Y-100330000D03*
G04 #@! TD*
D17*
G04 #@! TO.C,Q1*
X156058000Y-76962000D03*
D18*
X149758000Y-76962000D03*
X149758000Y-79262000D03*
X149758000Y-74662000D03*
G04 #@! TD*
D19*
G04 #@! TO.C,J3*
X156210000Y-91694000D03*
D20*
X156210000Y-89154000D03*
G04 #@! TD*
D19*
G04 #@! TO.C,J2*
X151130000Y-123698000D03*
D20*
X151130000Y-121158000D03*
G04 #@! TD*
D21*
G04 #@! TO.C,U3*
X157778000Y-105033000D03*
X157778000Y-104383000D03*
X157778000Y-103733000D03*
X157778000Y-103083000D03*
X157778000Y-102433000D03*
X157778000Y-101783000D03*
X157778000Y-101133000D03*
X157778000Y-100483000D03*
X157778000Y-99833000D03*
X157778000Y-99183000D03*
X150578000Y-99183000D03*
X150578000Y-99833000D03*
X150578000Y-100483000D03*
X150578000Y-101133000D03*
X150578000Y-101783000D03*
X150578000Y-102433000D03*
X150578000Y-103083000D03*
X150578000Y-103733000D03*
X150578000Y-104383000D03*
X150578000Y-105033000D03*
G04 #@! TD*
D17*
G04 #@! TO.C,U5*
X152044000Y-111506000D03*
D18*
X158344000Y-111506000D03*
X158344000Y-109206000D03*
X158344000Y-113806000D03*
G04 #@! TD*
D19*
G04 #@! TO.C,J6*
X170434000Y-93980000D03*
D20*
X170434000Y-91440000D03*
X170434000Y-88900000D03*
X170434000Y-86360000D03*
G04 #@! TD*
G04 #@! TO.C,J7*
X170434000Y-118110000D03*
X170434000Y-115570000D03*
X170434000Y-113030000D03*
D19*
X170434000Y-110490000D03*
G04 #@! TD*
D16*
G04 #@! TO.C,J1*
X156718000Y-71374000D03*
D14*
X156718000Y-73914000D03*
D15*
X159258000Y-71374000D03*
D14*
X159258000Y-73914000D03*
G04 #@! TD*
D22*
G04 #@! TO.C,U4*
X168910000Y-131572000D03*
X168910000Y-73152000D03*
X145415000Y-131572000D03*
X145415000Y-73152000D03*
D23*
X144145000Y-126492000D03*
X146685000Y-126492000D03*
X144145000Y-123952000D03*
X146685000Y-123952000D03*
X144145000Y-121412000D03*
X146685000Y-121412000D03*
X144145000Y-118872000D03*
X146685000Y-118872000D03*
X144145000Y-116332000D03*
X146685000Y-116332000D03*
X144145000Y-113792000D03*
X146685000Y-113792000D03*
X144145000Y-111252000D03*
X146685000Y-111252000D03*
X144145000Y-108712000D03*
X146685000Y-108712000D03*
X144145000Y-106172000D03*
X146685000Y-106172000D03*
X144145000Y-103632000D03*
X146685000Y-103632000D03*
X144145000Y-101092000D03*
X146685000Y-101092000D03*
X144145000Y-98552000D03*
X146685000Y-98552000D03*
X144145000Y-96012000D03*
X146685000Y-96012000D03*
X144145000Y-93472000D03*
X146685000Y-93472000D03*
X144145000Y-90932000D03*
X146685000Y-90932000D03*
X144145000Y-88392000D03*
X146685000Y-88392000D03*
X144145000Y-85852000D03*
X146685000Y-85852000D03*
X144145000Y-83312000D03*
X146685000Y-83312000D03*
X144145000Y-80772000D03*
X146685000Y-80772000D03*
X144145000Y-78232000D03*
X146685000Y-78232000D03*
G04 #@! TD*
D24*
G04 #@! TO.C,C1*
X163830000Y-94570000D03*
X163830000Y-90170000D03*
G04 #@! TD*
G04 #@! TO.C,C2*
X163830000Y-114300000D03*
X163830000Y-109900000D03*
G04 #@! TD*
D11*
G04 #@! TO.C,D1*
G36*
X168607592Y-91233794D02*
X168633681Y-91237664D01*
X168659264Y-91244072D01*
X168684096Y-91252957D01*
X168707938Y-91264234D01*
X168730560Y-91277793D01*
X168751743Y-91293503D01*
X168771285Y-91311215D01*
X168788997Y-91330757D01*
X168804707Y-91351940D01*
X168818266Y-91374562D01*
X168829543Y-91398404D01*
X168838428Y-91423236D01*
X168844836Y-91448819D01*
X168848706Y-91474908D01*
X168850000Y-91501250D01*
X168850000Y-92038750D01*
X168848706Y-92065092D01*
X168844836Y-92091181D01*
X168838428Y-92116764D01*
X168829543Y-92141596D01*
X168818266Y-92165438D01*
X168804707Y-92188060D01*
X168788997Y-92209243D01*
X168771285Y-92228785D01*
X168751743Y-92246497D01*
X168730560Y-92262207D01*
X168707938Y-92275766D01*
X168684096Y-92287043D01*
X168659264Y-92295928D01*
X168633681Y-92302336D01*
X168607592Y-92306206D01*
X168581250Y-92307500D01*
X167968750Y-92307500D01*
X167942408Y-92306206D01*
X167916319Y-92302336D01*
X167890736Y-92295928D01*
X167865904Y-92287043D01*
X167842062Y-92275766D01*
X167819440Y-92262207D01*
X167798257Y-92246497D01*
X167778715Y-92228785D01*
X167761003Y-92209243D01*
X167745293Y-92188060D01*
X167731734Y-92165438D01*
X167720457Y-92141596D01*
X167711572Y-92116764D01*
X167705164Y-92091181D01*
X167701294Y-92065092D01*
X167700000Y-92038750D01*
X167700000Y-91501250D01*
X167701294Y-91474908D01*
X167705164Y-91448819D01*
X167711572Y-91423236D01*
X167720457Y-91398404D01*
X167731734Y-91374562D01*
X167745293Y-91351940D01*
X167761003Y-91330757D01*
X167778715Y-91311215D01*
X167798257Y-91293503D01*
X167819440Y-91277793D01*
X167842062Y-91264234D01*
X167865904Y-91252957D01*
X167890736Y-91244072D01*
X167916319Y-91237664D01*
X167942408Y-91233794D01*
X167968750Y-91232500D01*
X168581250Y-91232500D01*
X168607592Y-91233794D01*
X168607592Y-91233794D01*
G37*
D13*
X168275000Y-91770000D03*
D11*
G36*
X168607592Y-92808794D02*
X168633681Y-92812664D01*
X168659264Y-92819072D01*
X168684096Y-92827957D01*
X168707938Y-92839234D01*
X168730560Y-92852793D01*
X168751743Y-92868503D01*
X168771285Y-92886215D01*
X168788997Y-92905757D01*
X168804707Y-92926940D01*
X168818266Y-92949562D01*
X168829543Y-92973404D01*
X168838428Y-92998236D01*
X168844836Y-93023819D01*
X168848706Y-93049908D01*
X168850000Y-93076250D01*
X168850000Y-93613750D01*
X168848706Y-93640092D01*
X168844836Y-93666181D01*
X168838428Y-93691764D01*
X168829543Y-93716596D01*
X168818266Y-93740438D01*
X168804707Y-93763060D01*
X168788997Y-93784243D01*
X168771285Y-93803785D01*
X168751743Y-93821497D01*
X168730560Y-93837207D01*
X168707938Y-93850766D01*
X168684096Y-93862043D01*
X168659264Y-93870928D01*
X168633681Y-93877336D01*
X168607592Y-93881206D01*
X168581250Y-93882500D01*
X167968750Y-93882500D01*
X167942408Y-93881206D01*
X167916319Y-93877336D01*
X167890736Y-93870928D01*
X167865904Y-93862043D01*
X167842062Y-93850766D01*
X167819440Y-93837207D01*
X167798257Y-93821497D01*
X167778715Y-93803785D01*
X167761003Y-93784243D01*
X167745293Y-93763060D01*
X167731734Y-93740438D01*
X167720457Y-93716596D01*
X167711572Y-93691764D01*
X167705164Y-93666181D01*
X167701294Y-93640092D01*
X167700000Y-93613750D01*
X167700000Y-93076250D01*
X167701294Y-93049908D01*
X167705164Y-93023819D01*
X167711572Y-92998236D01*
X167720457Y-92973404D01*
X167731734Y-92949562D01*
X167745293Y-92926940D01*
X167761003Y-92905757D01*
X167778715Y-92886215D01*
X167798257Y-92868503D01*
X167819440Y-92852793D01*
X167842062Y-92839234D01*
X167865904Y-92827957D01*
X167890736Y-92819072D01*
X167916319Y-92812664D01*
X167942408Y-92808794D01*
X167968750Y-92807500D01*
X168581250Y-92807500D01*
X168607592Y-92808794D01*
X168607592Y-92808794D01*
G37*
D13*
X168275000Y-93345000D03*
G04 #@! TD*
D11*
G04 #@! TO.C,D2*
G36*
X168353592Y-110588794D02*
X168379681Y-110592664D01*
X168405264Y-110599072D01*
X168430096Y-110607957D01*
X168453938Y-110619234D01*
X168476560Y-110632793D01*
X168497743Y-110648503D01*
X168517285Y-110666215D01*
X168534997Y-110685757D01*
X168550707Y-110706940D01*
X168564266Y-110729562D01*
X168575543Y-110753404D01*
X168584428Y-110778236D01*
X168590836Y-110803819D01*
X168594706Y-110829908D01*
X168596000Y-110856250D01*
X168596000Y-111393750D01*
X168594706Y-111420092D01*
X168590836Y-111446181D01*
X168584428Y-111471764D01*
X168575543Y-111496596D01*
X168564266Y-111520438D01*
X168550707Y-111543060D01*
X168534997Y-111564243D01*
X168517285Y-111583785D01*
X168497743Y-111601497D01*
X168476560Y-111617207D01*
X168453938Y-111630766D01*
X168430096Y-111642043D01*
X168405264Y-111650928D01*
X168379681Y-111657336D01*
X168353592Y-111661206D01*
X168327250Y-111662500D01*
X167714750Y-111662500D01*
X167688408Y-111661206D01*
X167662319Y-111657336D01*
X167636736Y-111650928D01*
X167611904Y-111642043D01*
X167588062Y-111630766D01*
X167565440Y-111617207D01*
X167544257Y-111601497D01*
X167524715Y-111583785D01*
X167507003Y-111564243D01*
X167491293Y-111543060D01*
X167477734Y-111520438D01*
X167466457Y-111496596D01*
X167457572Y-111471764D01*
X167451164Y-111446181D01*
X167447294Y-111420092D01*
X167446000Y-111393750D01*
X167446000Y-110856250D01*
X167447294Y-110829908D01*
X167451164Y-110803819D01*
X167457572Y-110778236D01*
X167466457Y-110753404D01*
X167477734Y-110729562D01*
X167491293Y-110706940D01*
X167507003Y-110685757D01*
X167524715Y-110666215D01*
X167544257Y-110648503D01*
X167565440Y-110632793D01*
X167588062Y-110619234D01*
X167611904Y-110607957D01*
X167636736Y-110599072D01*
X167662319Y-110592664D01*
X167688408Y-110588794D01*
X167714750Y-110587500D01*
X168327250Y-110587500D01*
X168353592Y-110588794D01*
X168353592Y-110588794D01*
G37*
D13*
X168021000Y-111125000D03*
D11*
G36*
X168353592Y-112163794D02*
X168379681Y-112167664D01*
X168405264Y-112174072D01*
X168430096Y-112182957D01*
X168453938Y-112194234D01*
X168476560Y-112207793D01*
X168497743Y-112223503D01*
X168517285Y-112241215D01*
X168534997Y-112260757D01*
X168550707Y-112281940D01*
X168564266Y-112304562D01*
X168575543Y-112328404D01*
X168584428Y-112353236D01*
X168590836Y-112378819D01*
X168594706Y-112404908D01*
X168596000Y-112431250D01*
X168596000Y-112968750D01*
X168594706Y-112995092D01*
X168590836Y-113021181D01*
X168584428Y-113046764D01*
X168575543Y-113071596D01*
X168564266Y-113095438D01*
X168550707Y-113118060D01*
X168534997Y-113139243D01*
X168517285Y-113158785D01*
X168497743Y-113176497D01*
X168476560Y-113192207D01*
X168453938Y-113205766D01*
X168430096Y-113217043D01*
X168405264Y-113225928D01*
X168379681Y-113232336D01*
X168353592Y-113236206D01*
X168327250Y-113237500D01*
X167714750Y-113237500D01*
X167688408Y-113236206D01*
X167662319Y-113232336D01*
X167636736Y-113225928D01*
X167611904Y-113217043D01*
X167588062Y-113205766D01*
X167565440Y-113192207D01*
X167544257Y-113176497D01*
X167524715Y-113158785D01*
X167507003Y-113139243D01*
X167491293Y-113118060D01*
X167477734Y-113095438D01*
X167466457Y-113071596D01*
X167457572Y-113046764D01*
X167451164Y-113021181D01*
X167447294Y-112995092D01*
X167446000Y-112968750D01*
X167446000Y-112431250D01*
X167447294Y-112404908D01*
X167451164Y-112378819D01*
X167457572Y-112353236D01*
X167466457Y-112328404D01*
X167477734Y-112304562D01*
X167491293Y-112281940D01*
X167507003Y-112260757D01*
X167524715Y-112241215D01*
X167544257Y-112223503D01*
X167565440Y-112207793D01*
X167588062Y-112194234D01*
X167611904Y-112182957D01*
X167636736Y-112174072D01*
X167662319Y-112167664D01*
X167688408Y-112163794D01*
X167714750Y-112162500D01*
X168327250Y-112162500D01*
X168353592Y-112163794D01*
X168353592Y-112163794D01*
G37*
D13*
X168021000Y-112700000D03*
G04 #@! TD*
D11*
G04 #@! TO.C,C3*
G36*
X161531858Y-96910951D02*
X161551030Y-96913795D01*
X161569831Y-96918504D01*
X161588080Y-96925034D01*
X161605601Y-96933321D01*
X161622225Y-96943285D01*
X161637793Y-96954830D01*
X161652154Y-96967846D01*
X161665170Y-96982207D01*
X161676715Y-96997775D01*
X161686679Y-97014399D01*
X161694966Y-97031920D01*
X161701496Y-97050169D01*
X161706205Y-97068970D01*
X161709049Y-97088142D01*
X161710000Y-97107500D01*
X161710000Y-97502500D01*
X161709049Y-97521858D01*
X161706205Y-97541030D01*
X161701496Y-97559831D01*
X161694966Y-97578080D01*
X161686679Y-97595601D01*
X161676715Y-97612225D01*
X161665170Y-97627793D01*
X161652154Y-97642154D01*
X161637793Y-97655170D01*
X161622225Y-97666715D01*
X161605601Y-97676679D01*
X161588080Y-97684966D01*
X161569831Y-97691496D01*
X161551030Y-97696205D01*
X161531858Y-97699049D01*
X161512500Y-97700000D01*
X161067500Y-97700000D01*
X161048142Y-97699049D01*
X161028970Y-97696205D01*
X161010169Y-97691496D01*
X160991920Y-97684966D01*
X160974399Y-97676679D01*
X160957775Y-97666715D01*
X160942207Y-97655170D01*
X160927846Y-97642154D01*
X160914830Y-97627793D01*
X160903285Y-97612225D01*
X160893321Y-97595601D01*
X160885034Y-97578080D01*
X160878504Y-97559831D01*
X160873795Y-97541030D01*
X160870951Y-97521858D01*
X160870000Y-97502500D01*
X160870000Y-97107500D01*
X160870951Y-97088142D01*
X160873795Y-97068970D01*
X160878504Y-97050169D01*
X160885034Y-97031920D01*
X160893321Y-97014399D01*
X160903285Y-96997775D01*
X160914830Y-96982207D01*
X160927846Y-96967846D01*
X160942207Y-96954830D01*
X160957775Y-96943285D01*
X160974399Y-96933321D01*
X160991920Y-96925034D01*
X161010169Y-96918504D01*
X161028970Y-96913795D01*
X161048142Y-96910951D01*
X161067500Y-96910000D01*
X161512500Y-96910000D01*
X161531858Y-96910951D01*
X161531858Y-96910951D01*
G37*
D12*
X161290000Y-97305000D03*
D11*
G36*
X161531858Y-97880951D02*
X161551030Y-97883795D01*
X161569831Y-97888504D01*
X161588080Y-97895034D01*
X161605601Y-97903321D01*
X161622225Y-97913285D01*
X161637793Y-97924830D01*
X161652154Y-97937846D01*
X161665170Y-97952207D01*
X161676715Y-97967775D01*
X161686679Y-97984399D01*
X161694966Y-98001920D01*
X161701496Y-98020169D01*
X161706205Y-98038970D01*
X161709049Y-98058142D01*
X161710000Y-98077500D01*
X161710000Y-98472500D01*
X161709049Y-98491858D01*
X161706205Y-98511030D01*
X161701496Y-98529831D01*
X161694966Y-98548080D01*
X161686679Y-98565601D01*
X161676715Y-98582225D01*
X161665170Y-98597793D01*
X161652154Y-98612154D01*
X161637793Y-98625170D01*
X161622225Y-98636715D01*
X161605601Y-98646679D01*
X161588080Y-98654966D01*
X161569831Y-98661496D01*
X161551030Y-98666205D01*
X161531858Y-98669049D01*
X161512500Y-98670000D01*
X161067500Y-98670000D01*
X161048142Y-98669049D01*
X161028970Y-98666205D01*
X161010169Y-98661496D01*
X160991920Y-98654966D01*
X160974399Y-98646679D01*
X160957775Y-98636715D01*
X160942207Y-98625170D01*
X160927846Y-98612154D01*
X160914830Y-98597793D01*
X160903285Y-98582225D01*
X160893321Y-98565601D01*
X160885034Y-98548080D01*
X160878504Y-98529831D01*
X160873795Y-98511030D01*
X160870951Y-98491858D01*
X160870000Y-98472500D01*
X160870000Y-98077500D01*
X160870951Y-98058142D01*
X160873795Y-98038970D01*
X160878504Y-98020169D01*
X160885034Y-98001920D01*
X160893321Y-97984399D01*
X160903285Y-97967775D01*
X160914830Y-97952207D01*
X160927846Y-97937846D01*
X160942207Y-97924830D01*
X160957775Y-97913285D01*
X160974399Y-97903321D01*
X160991920Y-97895034D01*
X161010169Y-97888504D01*
X161028970Y-97883795D01*
X161048142Y-97880951D01*
X161067500Y-97880000D01*
X161512500Y-97880000D01*
X161531858Y-97880951D01*
X161531858Y-97880951D01*
G37*
D12*
X161290000Y-98275000D03*
G04 #@! TD*
D11*
G04 #@! TO.C,C4*
G36*
X161531858Y-105950951D02*
X161551030Y-105953795D01*
X161569831Y-105958504D01*
X161588080Y-105965034D01*
X161605601Y-105973321D01*
X161622225Y-105983285D01*
X161637793Y-105994830D01*
X161652154Y-106007846D01*
X161665170Y-106022207D01*
X161676715Y-106037775D01*
X161686679Y-106054399D01*
X161694966Y-106071920D01*
X161701496Y-106090169D01*
X161706205Y-106108970D01*
X161709049Y-106128142D01*
X161710000Y-106147500D01*
X161710000Y-106542500D01*
X161709049Y-106561858D01*
X161706205Y-106581030D01*
X161701496Y-106599831D01*
X161694966Y-106618080D01*
X161686679Y-106635601D01*
X161676715Y-106652225D01*
X161665170Y-106667793D01*
X161652154Y-106682154D01*
X161637793Y-106695170D01*
X161622225Y-106706715D01*
X161605601Y-106716679D01*
X161588080Y-106724966D01*
X161569831Y-106731496D01*
X161551030Y-106736205D01*
X161531858Y-106739049D01*
X161512500Y-106740000D01*
X161067500Y-106740000D01*
X161048142Y-106739049D01*
X161028970Y-106736205D01*
X161010169Y-106731496D01*
X160991920Y-106724966D01*
X160974399Y-106716679D01*
X160957775Y-106706715D01*
X160942207Y-106695170D01*
X160927846Y-106682154D01*
X160914830Y-106667793D01*
X160903285Y-106652225D01*
X160893321Y-106635601D01*
X160885034Y-106618080D01*
X160878504Y-106599831D01*
X160873795Y-106581030D01*
X160870951Y-106561858D01*
X160870000Y-106542500D01*
X160870000Y-106147500D01*
X160870951Y-106128142D01*
X160873795Y-106108970D01*
X160878504Y-106090169D01*
X160885034Y-106071920D01*
X160893321Y-106054399D01*
X160903285Y-106037775D01*
X160914830Y-106022207D01*
X160927846Y-106007846D01*
X160942207Y-105994830D01*
X160957775Y-105983285D01*
X160974399Y-105973321D01*
X160991920Y-105965034D01*
X161010169Y-105958504D01*
X161028970Y-105953795D01*
X161048142Y-105950951D01*
X161067500Y-105950000D01*
X161512500Y-105950000D01*
X161531858Y-105950951D01*
X161531858Y-105950951D01*
G37*
D12*
X161290000Y-106345000D03*
D11*
G36*
X161531858Y-106920951D02*
X161551030Y-106923795D01*
X161569831Y-106928504D01*
X161588080Y-106935034D01*
X161605601Y-106943321D01*
X161622225Y-106953285D01*
X161637793Y-106964830D01*
X161652154Y-106977846D01*
X161665170Y-106992207D01*
X161676715Y-107007775D01*
X161686679Y-107024399D01*
X161694966Y-107041920D01*
X161701496Y-107060169D01*
X161706205Y-107078970D01*
X161709049Y-107098142D01*
X161710000Y-107117500D01*
X161710000Y-107512500D01*
X161709049Y-107531858D01*
X161706205Y-107551030D01*
X161701496Y-107569831D01*
X161694966Y-107588080D01*
X161686679Y-107605601D01*
X161676715Y-107622225D01*
X161665170Y-107637793D01*
X161652154Y-107652154D01*
X161637793Y-107665170D01*
X161622225Y-107676715D01*
X161605601Y-107686679D01*
X161588080Y-107694966D01*
X161569831Y-107701496D01*
X161551030Y-107706205D01*
X161531858Y-107709049D01*
X161512500Y-107710000D01*
X161067500Y-107710000D01*
X161048142Y-107709049D01*
X161028970Y-107706205D01*
X161010169Y-107701496D01*
X160991920Y-107694966D01*
X160974399Y-107686679D01*
X160957775Y-107676715D01*
X160942207Y-107665170D01*
X160927846Y-107652154D01*
X160914830Y-107637793D01*
X160903285Y-107622225D01*
X160893321Y-107605601D01*
X160885034Y-107588080D01*
X160878504Y-107569831D01*
X160873795Y-107551030D01*
X160870951Y-107531858D01*
X160870000Y-107512500D01*
X160870000Y-107117500D01*
X160870951Y-107098142D01*
X160873795Y-107078970D01*
X160878504Y-107060169D01*
X160885034Y-107041920D01*
X160893321Y-107024399D01*
X160903285Y-107007775D01*
X160914830Y-106992207D01*
X160927846Y-106977846D01*
X160942207Y-106964830D01*
X160957775Y-106953285D01*
X160974399Y-106943321D01*
X160991920Y-106935034D01*
X161010169Y-106928504D01*
X161028970Y-106923795D01*
X161048142Y-106920951D01*
X161067500Y-106920000D01*
X161512500Y-106920000D01*
X161531858Y-106920951D01*
X161531858Y-106920951D01*
G37*
D12*
X161290000Y-107315000D03*
G04 #@! TD*
D11*
G04 #@! TO.C,C11*
G36*
X156726858Y-130390951D02*
X156746030Y-130393795D01*
X156764831Y-130398504D01*
X156783080Y-130405034D01*
X156800601Y-130413321D01*
X156817225Y-130423285D01*
X156832793Y-130434830D01*
X156847154Y-130447846D01*
X156860170Y-130462207D01*
X156871715Y-130477775D01*
X156881679Y-130494399D01*
X156889966Y-130511920D01*
X156896496Y-130530169D01*
X156901205Y-130548970D01*
X156904049Y-130568142D01*
X156905000Y-130587500D01*
X156905000Y-131032500D01*
X156904049Y-131051858D01*
X156901205Y-131071030D01*
X156896496Y-131089831D01*
X156889966Y-131108080D01*
X156881679Y-131125601D01*
X156871715Y-131142225D01*
X156860170Y-131157793D01*
X156847154Y-131172154D01*
X156832793Y-131185170D01*
X156817225Y-131196715D01*
X156800601Y-131206679D01*
X156783080Y-131214966D01*
X156764831Y-131221496D01*
X156746030Y-131226205D01*
X156726858Y-131229049D01*
X156707500Y-131230000D01*
X156312500Y-131230000D01*
X156293142Y-131229049D01*
X156273970Y-131226205D01*
X156255169Y-131221496D01*
X156236920Y-131214966D01*
X156219399Y-131206679D01*
X156202775Y-131196715D01*
X156187207Y-131185170D01*
X156172846Y-131172154D01*
X156159830Y-131157793D01*
X156148285Y-131142225D01*
X156138321Y-131125601D01*
X156130034Y-131108080D01*
X156123504Y-131089831D01*
X156118795Y-131071030D01*
X156115951Y-131051858D01*
X156115000Y-131032500D01*
X156115000Y-130587500D01*
X156115951Y-130568142D01*
X156118795Y-130548970D01*
X156123504Y-130530169D01*
X156130034Y-130511920D01*
X156138321Y-130494399D01*
X156148285Y-130477775D01*
X156159830Y-130462207D01*
X156172846Y-130447846D01*
X156187207Y-130434830D01*
X156202775Y-130423285D01*
X156219399Y-130413321D01*
X156236920Y-130405034D01*
X156255169Y-130398504D01*
X156273970Y-130393795D01*
X156293142Y-130390951D01*
X156312500Y-130390000D01*
X156707500Y-130390000D01*
X156726858Y-130390951D01*
X156726858Y-130390951D01*
G37*
D12*
X156510000Y-130810000D03*
D11*
G36*
X157696858Y-130390951D02*
X157716030Y-130393795D01*
X157734831Y-130398504D01*
X157753080Y-130405034D01*
X157770601Y-130413321D01*
X157787225Y-130423285D01*
X157802793Y-130434830D01*
X157817154Y-130447846D01*
X157830170Y-130462207D01*
X157841715Y-130477775D01*
X157851679Y-130494399D01*
X157859966Y-130511920D01*
X157866496Y-130530169D01*
X157871205Y-130548970D01*
X157874049Y-130568142D01*
X157875000Y-130587500D01*
X157875000Y-131032500D01*
X157874049Y-131051858D01*
X157871205Y-131071030D01*
X157866496Y-131089831D01*
X157859966Y-131108080D01*
X157851679Y-131125601D01*
X157841715Y-131142225D01*
X157830170Y-131157793D01*
X157817154Y-131172154D01*
X157802793Y-131185170D01*
X157787225Y-131196715D01*
X157770601Y-131206679D01*
X157753080Y-131214966D01*
X157734831Y-131221496D01*
X157716030Y-131226205D01*
X157696858Y-131229049D01*
X157677500Y-131230000D01*
X157282500Y-131230000D01*
X157263142Y-131229049D01*
X157243970Y-131226205D01*
X157225169Y-131221496D01*
X157206920Y-131214966D01*
X157189399Y-131206679D01*
X157172775Y-131196715D01*
X157157207Y-131185170D01*
X157142846Y-131172154D01*
X157129830Y-131157793D01*
X157118285Y-131142225D01*
X157108321Y-131125601D01*
X157100034Y-131108080D01*
X157093504Y-131089831D01*
X157088795Y-131071030D01*
X157085951Y-131051858D01*
X157085000Y-131032500D01*
X157085000Y-130587500D01*
X157085951Y-130568142D01*
X157088795Y-130548970D01*
X157093504Y-130530169D01*
X157100034Y-130511920D01*
X157108321Y-130494399D01*
X157118285Y-130477775D01*
X157129830Y-130462207D01*
X157142846Y-130447846D01*
X157157207Y-130434830D01*
X157172775Y-130423285D01*
X157189399Y-130413321D01*
X157206920Y-130405034D01*
X157225169Y-130398504D01*
X157243970Y-130393795D01*
X157263142Y-130390951D01*
X157282500Y-130390000D01*
X157677500Y-130390000D01*
X157696858Y-130390951D01*
X157696858Y-130390951D01*
G37*
D12*
X157480000Y-130810000D03*
G04 #@! TD*
D11*
G04 #@! TO.C,R2*
G36*
X155006858Y-127850951D02*
X155026030Y-127853795D01*
X155044831Y-127858504D01*
X155063080Y-127865034D01*
X155080601Y-127873321D01*
X155097225Y-127883285D01*
X155112793Y-127894830D01*
X155127154Y-127907846D01*
X155140170Y-127922207D01*
X155151715Y-127937775D01*
X155161679Y-127954399D01*
X155169966Y-127971920D01*
X155176496Y-127990169D01*
X155181205Y-128008970D01*
X155184049Y-128028142D01*
X155185000Y-128047500D01*
X155185000Y-128492500D01*
X155184049Y-128511858D01*
X155181205Y-128531030D01*
X155176496Y-128549831D01*
X155169966Y-128568080D01*
X155161679Y-128585601D01*
X155151715Y-128602225D01*
X155140170Y-128617793D01*
X155127154Y-128632154D01*
X155112793Y-128645170D01*
X155097225Y-128656715D01*
X155080601Y-128666679D01*
X155063080Y-128674966D01*
X155044831Y-128681496D01*
X155026030Y-128686205D01*
X155006858Y-128689049D01*
X154987500Y-128690000D01*
X154592500Y-128690000D01*
X154573142Y-128689049D01*
X154553970Y-128686205D01*
X154535169Y-128681496D01*
X154516920Y-128674966D01*
X154499399Y-128666679D01*
X154482775Y-128656715D01*
X154467207Y-128645170D01*
X154452846Y-128632154D01*
X154439830Y-128617793D01*
X154428285Y-128602225D01*
X154418321Y-128585601D01*
X154410034Y-128568080D01*
X154403504Y-128549831D01*
X154398795Y-128531030D01*
X154395951Y-128511858D01*
X154395000Y-128492500D01*
X154395000Y-128047500D01*
X154395951Y-128028142D01*
X154398795Y-128008970D01*
X154403504Y-127990169D01*
X154410034Y-127971920D01*
X154418321Y-127954399D01*
X154428285Y-127937775D01*
X154439830Y-127922207D01*
X154452846Y-127907846D01*
X154467207Y-127894830D01*
X154482775Y-127883285D01*
X154499399Y-127873321D01*
X154516920Y-127865034D01*
X154535169Y-127858504D01*
X154553970Y-127853795D01*
X154573142Y-127850951D01*
X154592500Y-127850000D01*
X154987500Y-127850000D01*
X155006858Y-127850951D01*
X155006858Y-127850951D01*
G37*
D12*
X154790000Y-128270000D03*
D11*
G36*
X154036858Y-127850951D02*
X154056030Y-127853795D01*
X154074831Y-127858504D01*
X154093080Y-127865034D01*
X154110601Y-127873321D01*
X154127225Y-127883285D01*
X154142793Y-127894830D01*
X154157154Y-127907846D01*
X154170170Y-127922207D01*
X154181715Y-127937775D01*
X154191679Y-127954399D01*
X154199966Y-127971920D01*
X154206496Y-127990169D01*
X154211205Y-128008970D01*
X154214049Y-128028142D01*
X154215000Y-128047500D01*
X154215000Y-128492500D01*
X154214049Y-128511858D01*
X154211205Y-128531030D01*
X154206496Y-128549831D01*
X154199966Y-128568080D01*
X154191679Y-128585601D01*
X154181715Y-128602225D01*
X154170170Y-128617793D01*
X154157154Y-128632154D01*
X154142793Y-128645170D01*
X154127225Y-128656715D01*
X154110601Y-128666679D01*
X154093080Y-128674966D01*
X154074831Y-128681496D01*
X154056030Y-128686205D01*
X154036858Y-128689049D01*
X154017500Y-128690000D01*
X153622500Y-128690000D01*
X153603142Y-128689049D01*
X153583970Y-128686205D01*
X153565169Y-128681496D01*
X153546920Y-128674966D01*
X153529399Y-128666679D01*
X153512775Y-128656715D01*
X153497207Y-128645170D01*
X153482846Y-128632154D01*
X153469830Y-128617793D01*
X153458285Y-128602225D01*
X153448321Y-128585601D01*
X153440034Y-128568080D01*
X153433504Y-128549831D01*
X153428795Y-128531030D01*
X153425951Y-128511858D01*
X153425000Y-128492500D01*
X153425000Y-128047500D01*
X153425951Y-128028142D01*
X153428795Y-128008970D01*
X153433504Y-127990169D01*
X153440034Y-127971920D01*
X153448321Y-127954399D01*
X153458285Y-127937775D01*
X153469830Y-127922207D01*
X153482846Y-127907846D01*
X153497207Y-127894830D01*
X153512775Y-127883285D01*
X153529399Y-127873321D01*
X153546920Y-127865034D01*
X153565169Y-127858504D01*
X153583970Y-127853795D01*
X153603142Y-127850951D01*
X153622500Y-127850000D01*
X154017500Y-127850000D01*
X154036858Y-127850951D01*
X154036858Y-127850951D01*
G37*
D12*
X153820000Y-128270000D03*
G04 #@! TD*
D11*
G04 #@! TO.C,R3*
G36*
X154036858Y-130390951D02*
X154056030Y-130393795D01*
X154074831Y-130398504D01*
X154093080Y-130405034D01*
X154110601Y-130413321D01*
X154127225Y-130423285D01*
X154142793Y-130434830D01*
X154157154Y-130447846D01*
X154170170Y-130462207D01*
X154181715Y-130477775D01*
X154191679Y-130494399D01*
X154199966Y-130511920D01*
X154206496Y-130530169D01*
X154211205Y-130548970D01*
X154214049Y-130568142D01*
X154215000Y-130587500D01*
X154215000Y-131032500D01*
X154214049Y-131051858D01*
X154211205Y-131071030D01*
X154206496Y-131089831D01*
X154199966Y-131108080D01*
X154191679Y-131125601D01*
X154181715Y-131142225D01*
X154170170Y-131157793D01*
X154157154Y-131172154D01*
X154142793Y-131185170D01*
X154127225Y-131196715D01*
X154110601Y-131206679D01*
X154093080Y-131214966D01*
X154074831Y-131221496D01*
X154056030Y-131226205D01*
X154036858Y-131229049D01*
X154017500Y-131230000D01*
X153622500Y-131230000D01*
X153603142Y-131229049D01*
X153583970Y-131226205D01*
X153565169Y-131221496D01*
X153546920Y-131214966D01*
X153529399Y-131206679D01*
X153512775Y-131196715D01*
X153497207Y-131185170D01*
X153482846Y-131172154D01*
X153469830Y-131157793D01*
X153458285Y-131142225D01*
X153448321Y-131125601D01*
X153440034Y-131108080D01*
X153433504Y-131089831D01*
X153428795Y-131071030D01*
X153425951Y-131051858D01*
X153425000Y-131032500D01*
X153425000Y-130587500D01*
X153425951Y-130568142D01*
X153428795Y-130548970D01*
X153433504Y-130530169D01*
X153440034Y-130511920D01*
X153448321Y-130494399D01*
X153458285Y-130477775D01*
X153469830Y-130462207D01*
X153482846Y-130447846D01*
X153497207Y-130434830D01*
X153512775Y-130423285D01*
X153529399Y-130413321D01*
X153546920Y-130405034D01*
X153565169Y-130398504D01*
X153583970Y-130393795D01*
X153603142Y-130390951D01*
X153622500Y-130390000D01*
X154017500Y-130390000D01*
X154036858Y-130390951D01*
X154036858Y-130390951D01*
G37*
D12*
X153820000Y-130810000D03*
D11*
G36*
X155006858Y-130390951D02*
X155026030Y-130393795D01*
X155044831Y-130398504D01*
X155063080Y-130405034D01*
X155080601Y-130413321D01*
X155097225Y-130423285D01*
X155112793Y-130434830D01*
X155127154Y-130447846D01*
X155140170Y-130462207D01*
X155151715Y-130477775D01*
X155161679Y-130494399D01*
X155169966Y-130511920D01*
X155176496Y-130530169D01*
X155181205Y-130548970D01*
X155184049Y-130568142D01*
X155185000Y-130587500D01*
X155185000Y-131032500D01*
X155184049Y-131051858D01*
X155181205Y-131071030D01*
X155176496Y-131089831D01*
X155169966Y-131108080D01*
X155161679Y-131125601D01*
X155151715Y-131142225D01*
X155140170Y-131157793D01*
X155127154Y-131172154D01*
X155112793Y-131185170D01*
X155097225Y-131196715D01*
X155080601Y-131206679D01*
X155063080Y-131214966D01*
X155044831Y-131221496D01*
X155026030Y-131226205D01*
X155006858Y-131229049D01*
X154987500Y-131230000D01*
X154592500Y-131230000D01*
X154573142Y-131229049D01*
X154553970Y-131226205D01*
X154535169Y-131221496D01*
X154516920Y-131214966D01*
X154499399Y-131206679D01*
X154482775Y-131196715D01*
X154467207Y-131185170D01*
X154452846Y-131172154D01*
X154439830Y-131157793D01*
X154428285Y-131142225D01*
X154418321Y-131125601D01*
X154410034Y-131108080D01*
X154403504Y-131089831D01*
X154398795Y-131071030D01*
X154395951Y-131051858D01*
X154395000Y-131032500D01*
X154395000Y-130587500D01*
X154395951Y-130568142D01*
X154398795Y-130548970D01*
X154403504Y-130530169D01*
X154410034Y-130511920D01*
X154418321Y-130494399D01*
X154428285Y-130477775D01*
X154439830Y-130462207D01*
X154452846Y-130447846D01*
X154467207Y-130434830D01*
X154482775Y-130423285D01*
X154499399Y-130413321D01*
X154516920Y-130405034D01*
X154535169Y-130398504D01*
X154553970Y-130393795D01*
X154573142Y-130390951D01*
X154592500Y-130390000D01*
X154987500Y-130390000D01*
X155006858Y-130390951D01*
X155006858Y-130390951D01*
G37*
D12*
X154790000Y-130810000D03*
G04 #@! TD*
D11*
G04 #@! TO.C,C9*
G36*
X152870858Y-116166951D02*
X152890030Y-116169795D01*
X152908831Y-116174504D01*
X152927080Y-116181034D01*
X152944601Y-116189321D01*
X152961225Y-116199285D01*
X152976793Y-116210830D01*
X152991154Y-116223846D01*
X153004170Y-116238207D01*
X153015715Y-116253775D01*
X153025679Y-116270399D01*
X153033966Y-116287920D01*
X153040496Y-116306169D01*
X153045205Y-116324970D01*
X153048049Y-116344142D01*
X153049000Y-116363500D01*
X153049000Y-116808500D01*
X153048049Y-116827858D01*
X153045205Y-116847030D01*
X153040496Y-116865831D01*
X153033966Y-116884080D01*
X153025679Y-116901601D01*
X153015715Y-116918225D01*
X153004170Y-116933793D01*
X152991154Y-116948154D01*
X152976793Y-116961170D01*
X152961225Y-116972715D01*
X152944601Y-116982679D01*
X152927080Y-116990966D01*
X152908831Y-116997496D01*
X152890030Y-117002205D01*
X152870858Y-117005049D01*
X152851500Y-117006000D01*
X152456500Y-117006000D01*
X152437142Y-117005049D01*
X152417970Y-117002205D01*
X152399169Y-116997496D01*
X152380920Y-116990966D01*
X152363399Y-116982679D01*
X152346775Y-116972715D01*
X152331207Y-116961170D01*
X152316846Y-116948154D01*
X152303830Y-116933793D01*
X152292285Y-116918225D01*
X152282321Y-116901601D01*
X152274034Y-116884080D01*
X152267504Y-116865831D01*
X152262795Y-116847030D01*
X152259951Y-116827858D01*
X152259000Y-116808500D01*
X152259000Y-116363500D01*
X152259951Y-116344142D01*
X152262795Y-116324970D01*
X152267504Y-116306169D01*
X152274034Y-116287920D01*
X152282321Y-116270399D01*
X152292285Y-116253775D01*
X152303830Y-116238207D01*
X152316846Y-116223846D01*
X152331207Y-116210830D01*
X152346775Y-116199285D01*
X152363399Y-116189321D01*
X152380920Y-116181034D01*
X152399169Y-116174504D01*
X152417970Y-116169795D01*
X152437142Y-116166951D01*
X152456500Y-116166000D01*
X152851500Y-116166000D01*
X152870858Y-116166951D01*
X152870858Y-116166951D01*
G37*
D12*
X152654000Y-116586000D03*
D11*
G36*
X153840858Y-116166951D02*
X153860030Y-116169795D01*
X153878831Y-116174504D01*
X153897080Y-116181034D01*
X153914601Y-116189321D01*
X153931225Y-116199285D01*
X153946793Y-116210830D01*
X153961154Y-116223846D01*
X153974170Y-116238207D01*
X153985715Y-116253775D01*
X153995679Y-116270399D01*
X154003966Y-116287920D01*
X154010496Y-116306169D01*
X154015205Y-116324970D01*
X154018049Y-116344142D01*
X154019000Y-116363500D01*
X154019000Y-116808500D01*
X154018049Y-116827858D01*
X154015205Y-116847030D01*
X154010496Y-116865831D01*
X154003966Y-116884080D01*
X153995679Y-116901601D01*
X153985715Y-116918225D01*
X153974170Y-116933793D01*
X153961154Y-116948154D01*
X153946793Y-116961170D01*
X153931225Y-116972715D01*
X153914601Y-116982679D01*
X153897080Y-116990966D01*
X153878831Y-116997496D01*
X153860030Y-117002205D01*
X153840858Y-117005049D01*
X153821500Y-117006000D01*
X153426500Y-117006000D01*
X153407142Y-117005049D01*
X153387970Y-117002205D01*
X153369169Y-116997496D01*
X153350920Y-116990966D01*
X153333399Y-116982679D01*
X153316775Y-116972715D01*
X153301207Y-116961170D01*
X153286846Y-116948154D01*
X153273830Y-116933793D01*
X153262285Y-116918225D01*
X153252321Y-116901601D01*
X153244034Y-116884080D01*
X153237504Y-116865831D01*
X153232795Y-116847030D01*
X153229951Y-116827858D01*
X153229000Y-116808500D01*
X153229000Y-116363500D01*
X153229951Y-116344142D01*
X153232795Y-116324970D01*
X153237504Y-116306169D01*
X153244034Y-116287920D01*
X153252321Y-116270399D01*
X153262285Y-116253775D01*
X153273830Y-116238207D01*
X153286846Y-116223846D01*
X153301207Y-116210830D01*
X153316775Y-116199285D01*
X153333399Y-116189321D01*
X153350920Y-116181034D01*
X153369169Y-116174504D01*
X153387970Y-116169795D01*
X153407142Y-116166951D01*
X153426500Y-116166000D01*
X153821500Y-116166000D01*
X153840858Y-116166951D01*
X153840858Y-116166951D01*
G37*
D12*
X153624000Y-116586000D03*
G04 #@! TD*
D11*
G04 #@! TO.C,C10*
G36*
X153203092Y-106360294D02*
X153229181Y-106364164D01*
X153254764Y-106370572D01*
X153279596Y-106379457D01*
X153303438Y-106390734D01*
X153326060Y-106404293D01*
X153347243Y-106420003D01*
X153366785Y-106437715D01*
X153384497Y-106457257D01*
X153400207Y-106478440D01*
X153413766Y-106501062D01*
X153425043Y-106524904D01*
X153433928Y-106549736D01*
X153440336Y-106575319D01*
X153444206Y-106601408D01*
X153445500Y-106627750D01*
X153445500Y-107240250D01*
X153444206Y-107266592D01*
X153440336Y-107292681D01*
X153433928Y-107318264D01*
X153425043Y-107343096D01*
X153413766Y-107366938D01*
X153400207Y-107389560D01*
X153384497Y-107410743D01*
X153366785Y-107430285D01*
X153347243Y-107447997D01*
X153326060Y-107463707D01*
X153303438Y-107477266D01*
X153279596Y-107488543D01*
X153254764Y-107497428D01*
X153229181Y-107503836D01*
X153203092Y-107507706D01*
X153176750Y-107509000D01*
X152639250Y-107509000D01*
X152612908Y-107507706D01*
X152586819Y-107503836D01*
X152561236Y-107497428D01*
X152536404Y-107488543D01*
X152512562Y-107477266D01*
X152489940Y-107463707D01*
X152468757Y-107447997D01*
X152449215Y-107430285D01*
X152431503Y-107410743D01*
X152415793Y-107389560D01*
X152402234Y-107366938D01*
X152390957Y-107343096D01*
X152382072Y-107318264D01*
X152375664Y-107292681D01*
X152371794Y-107266592D01*
X152370500Y-107240250D01*
X152370500Y-106627750D01*
X152371794Y-106601408D01*
X152375664Y-106575319D01*
X152382072Y-106549736D01*
X152390957Y-106524904D01*
X152402234Y-106501062D01*
X152415793Y-106478440D01*
X152431503Y-106457257D01*
X152449215Y-106437715D01*
X152468757Y-106420003D01*
X152489940Y-106404293D01*
X152512562Y-106390734D01*
X152536404Y-106379457D01*
X152561236Y-106370572D01*
X152586819Y-106364164D01*
X152612908Y-106360294D01*
X152639250Y-106359000D01*
X153176750Y-106359000D01*
X153203092Y-106360294D01*
X153203092Y-106360294D01*
G37*
D13*
X152908000Y-106934000D03*
D11*
G36*
X151628092Y-106360294D02*
X151654181Y-106364164D01*
X151679764Y-106370572D01*
X151704596Y-106379457D01*
X151728438Y-106390734D01*
X151751060Y-106404293D01*
X151772243Y-106420003D01*
X151791785Y-106437715D01*
X151809497Y-106457257D01*
X151825207Y-106478440D01*
X151838766Y-106501062D01*
X151850043Y-106524904D01*
X151858928Y-106549736D01*
X151865336Y-106575319D01*
X151869206Y-106601408D01*
X151870500Y-106627750D01*
X151870500Y-107240250D01*
X151869206Y-107266592D01*
X151865336Y-107292681D01*
X151858928Y-107318264D01*
X151850043Y-107343096D01*
X151838766Y-107366938D01*
X151825207Y-107389560D01*
X151809497Y-107410743D01*
X151791785Y-107430285D01*
X151772243Y-107447997D01*
X151751060Y-107463707D01*
X151728438Y-107477266D01*
X151704596Y-107488543D01*
X151679764Y-107497428D01*
X151654181Y-107503836D01*
X151628092Y-107507706D01*
X151601750Y-107509000D01*
X151064250Y-107509000D01*
X151037908Y-107507706D01*
X151011819Y-107503836D01*
X150986236Y-107497428D01*
X150961404Y-107488543D01*
X150937562Y-107477266D01*
X150914940Y-107463707D01*
X150893757Y-107447997D01*
X150874215Y-107430285D01*
X150856503Y-107410743D01*
X150840793Y-107389560D01*
X150827234Y-107366938D01*
X150815957Y-107343096D01*
X150807072Y-107318264D01*
X150800664Y-107292681D01*
X150796794Y-107266592D01*
X150795500Y-107240250D01*
X150795500Y-106627750D01*
X150796794Y-106601408D01*
X150800664Y-106575319D01*
X150807072Y-106549736D01*
X150815957Y-106524904D01*
X150827234Y-106501062D01*
X150840793Y-106478440D01*
X150856503Y-106457257D01*
X150874215Y-106437715D01*
X150893757Y-106420003D01*
X150914940Y-106404293D01*
X150937562Y-106390734D01*
X150961404Y-106379457D01*
X150986236Y-106370572D01*
X151011819Y-106364164D01*
X151037908Y-106360294D01*
X151064250Y-106359000D01*
X151601750Y-106359000D01*
X151628092Y-106360294D01*
X151628092Y-106360294D01*
G37*
D13*
X151333000Y-106934000D03*
G04 #@! TD*
D11*
G04 #@! TO.C,C6*
G36*
X165125092Y-103566294D02*
X165151181Y-103570164D01*
X165176764Y-103576572D01*
X165201596Y-103585457D01*
X165225438Y-103596734D01*
X165248060Y-103610293D01*
X165269243Y-103626003D01*
X165288785Y-103643715D01*
X165306497Y-103663257D01*
X165322207Y-103684440D01*
X165335766Y-103707062D01*
X165347043Y-103730904D01*
X165355928Y-103755736D01*
X165362336Y-103781319D01*
X165366206Y-103807408D01*
X165367500Y-103833750D01*
X165367500Y-104446250D01*
X165366206Y-104472592D01*
X165362336Y-104498681D01*
X165355928Y-104524264D01*
X165347043Y-104549096D01*
X165335766Y-104572938D01*
X165322207Y-104595560D01*
X165306497Y-104616743D01*
X165288785Y-104636285D01*
X165269243Y-104653997D01*
X165248060Y-104669707D01*
X165225438Y-104683266D01*
X165201596Y-104694543D01*
X165176764Y-104703428D01*
X165151181Y-104709836D01*
X165125092Y-104713706D01*
X165098750Y-104715000D01*
X164561250Y-104715000D01*
X164534908Y-104713706D01*
X164508819Y-104709836D01*
X164483236Y-104703428D01*
X164458404Y-104694543D01*
X164434562Y-104683266D01*
X164411940Y-104669707D01*
X164390757Y-104653997D01*
X164371215Y-104636285D01*
X164353503Y-104616743D01*
X164337793Y-104595560D01*
X164324234Y-104572938D01*
X164312957Y-104549096D01*
X164304072Y-104524264D01*
X164297664Y-104498681D01*
X164293794Y-104472592D01*
X164292500Y-104446250D01*
X164292500Y-103833750D01*
X164293794Y-103807408D01*
X164297664Y-103781319D01*
X164304072Y-103755736D01*
X164312957Y-103730904D01*
X164324234Y-103707062D01*
X164337793Y-103684440D01*
X164353503Y-103663257D01*
X164371215Y-103643715D01*
X164390757Y-103626003D01*
X164411940Y-103610293D01*
X164434562Y-103596734D01*
X164458404Y-103585457D01*
X164483236Y-103576572D01*
X164508819Y-103570164D01*
X164534908Y-103566294D01*
X164561250Y-103565000D01*
X165098750Y-103565000D01*
X165125092Y-103566294D01*
X165125092Y-103566294D01*
G37*
D13*
X164830000Y-104140000D03*
D11*
G36*
X163550092Y-103566294D02*
X163576181Y-103570164D01*
X163601764Y-103576572D01*
X163626596Y-103585457D01*
X163650438Y-103596734D01*
X163673060Y-103610293D01*
X163694243Y-103626003D01*
X163713785Y-103643715D01*
X163731497Y-103663257D01*
X163747207Y-103684440D01*
X163760766Y-103707062D01*
X163772043Y-103730904D01*
X163780928Y-103755736D01*
X163787336Y-103781319D01*
X163791206Y-103807408D01*
X163792500Y-103833750D01*
X163792500Y-104446250D01*
X163791206Y-104472592D01*
X163787336Y-104498681D01*
X163780928Y-104524264D01*
X163772043Y-104549096D01*
X163760766Y-104572938D01*
X163747207Y-104595560D01*
X163731497Y-104616743D01*
X163713785Y-104636285D01*
X163694243Y-104653997D01*
X163673060Y-104669707D01*
X163650438Y-104683266D01*
X163626596Y-104694543D01*
X163601764Y-104703428D01*
X163576181Y-104709836D01*
X163550092Y-104713706D01*
X163523750Y-104715000D01*
X162986250Y-104715000D01*
X162959908Y-104713706D01*
X162933819Y-104709836D01*
X162908236Y-104703428D01*
X162883404Y-104694543D01*
X162859562Y-104683266D01*
X162836940Y-104669707D01*
X162815757Y-104653997D01*
X162796215Y-104636285D01*
X162778503Y-104616743D01*
X162762793Y-104595560D01*
X162749234Y-104572938D01*
X162737957Y-104549096D01*
X162729072Y-104524264D01*
X162722664Y-104498681D01*
X162718794Y-104472592D01*
X162717500Y-104446250D01*
X162717500Y-103833750D01*
X162718794Y-103807408D01*
X162722664Y-103781319D01*
X162729072Y-103755736D01*
X162737957Y-103730904D01*
X162749234Y-103707062D01*
X162762793Y-103684440D01*
X162778503Y-103663257D01*
X162796215Y-103643715D01*
X162815757Y-103626003D01*
X162836940Y-103610293D01*
X162859562Y-103596734D01*
X162883404Y-103585457D01*
X162908236Y-103576572D01*
X162933819Y-103570164D01*
X162959908Y-103566294D01*
X162986250Y-103565000D01*
X163523750Y-103565000D01*
X163550092Y-103566294D01*
X163550092Y-103566294D01*
G37*
D13*
X163255000Y-104140000D03*
G04 #@! TD*
D11*
G04 #@! TO.C,C8*
G36*
X163617092Y-105979294D02*
X163643181Y-105983164D01*
X163668764Y-105989572D01*
X163693596Y-105998457D01*
X163717438Y-106009734D01*
X163740060Y-106023293D01*
X163761243Y-106039003D01*
X163780785Y-106056715D01*
X163798497Y-106076257D01*
X163814207Y-106097440D01*
X163827766Y-106120062D01*
X163839043Y-106143904D01*
X163847928Y-106168736D01*
X163854336Y-106194319D01*
X163858206Y-106220408D01*
X163859500Y-106246750D01*
X163859500Y-106859250D01*
X163858206Y-106885592D01*
X163854336Y-106911681D01*
X163847928Y-106937264D01*
X163839043Y-106962096D01*
X163827766Y-106985938D01*
X163814207Y-107008560D01*
X163798497Y-107029743D01*
X163780785Y-107049285D01*
X163761243Y-107066997D01*
X163740060Y-107082707D01*
X163717438Y-107096266D01*
X163693596Y-107107543D01*
X163668764Y-107116428D01*
X163643181Y-107122836D01*
X163617092Y-107126706D01*
X163590750Y-107128000D01*
X163053250Y-107128000D01*
X163026908Y-107126706D01*
X163000819Y-107122836D01*
X162975236Y-107116428D01*
X162950404Y-107107543D01*
X162926562Y-107096266D01*
X162903940Y-107082707D01*
X162882757Y-107066997D01*
X162863215Y-107049285D01*
X162845503Y-107029743D01*
X162829793Y-107008560D01*
X162816234Y-106985938D01*
X162804957Y-106962096D01*
X162796072Y-106937264D01*
X162789664Y-106911681D01*
X162785794Y-106885592D01*
X162784500Y-106859250D01*
X162784500Y-106246750D01*
X162785794Y-106220408D01*
X162789664Y-106194319D01*
X162796072Y-106168736D01*
X162804957Y-106143904D01*
X162816234Y-106120062D01*
X162829793Y-106097440D01*
X162845503Y-106076257D01*
X162863215Y-106056715D01*
X162882757Y-106039003D01*
X162903940Y-106023293D01*
X162926562Y-106009734D01*
X162950404Y-105998457D01*
X162975236Y-105989572D01*
X163000819Y-105983164D01*
X163026908Y-105979294D01*
X163053250Y-105978000D01*
X163590750Y-105978000D01*
X163617092Y-105979294D01*
X163617092Y-105979294D01*
G37*
D13*
X163322000Y-106553000D03*
D11*
G36*
X165192092Y-105979294D02*
X165218181Y-105983164D01*
X165243764Y-105989572D01*
X165268596Y-105998457D01*
X165292438Y-106009734D01*
X165315060Y-106023293D01*
X165336243Y-106039003D01*
X165355785Y-106056715D01*
X165373497Y-106076257D01*
X165389207Y-106097440D01*
X165402766Y-106120062D01*
X165414043Y-106143904D01*
X165422928Y-106168736D01*
X165429336Y-106194319D01*
X165433206Y-106220408D01*
X165434500Y-106246750D01*
X165434500Y-106859250D01*
X165433206Y-106885592D01*
X165429336Y-106911681D01*
X165422928Y-106937264D01*
X165414043Y-106962096D01*
X165402766Y-106985938D01*
X165389207Y-107008560D01*
X165373497Y-107029743D01*
X165355785Y-107049285D01*
X165336243Y-107066997D01*
X165315060Y-107082707D01*
X165292438Y-107096266D01*
X165268596Y-107107543D01*
X165243764Y-107116428D01*
X165218181Y-107122836D01*
X165192092Y-107126706D01*
X165165750Y-107128000D01*
X164628250Y-107128000D01*
X164601908Y-107126706D01*
X164575819Y-107122836D01*
X164550236Y-107116428D01*
X164525404Y-107107543D01*
X164501562Y-107096266D01*
X164478940Y-107082707D01*
X164457757Y-107066997D01*
X164438215Y-107049285D01*
X164420503Y-107029743D01*
X164404793Y-107008560D01*
X164391234Y-106985938D01*
X164379957Y-106962096D01*
X164371072Y-106937264D01*
X164364664Y-106911681D01*
X164360794Y-106885592D01*
X164359500Y-106859250D01*
X164359500Y-106246750D01*
X164360794Y-106220408D01*
X164364664Y-106194319D01*
X164371072Y-106168736D01*
X164379957Y-106143904D01*
X164391234Y-106120062D01*
X164404793Y-106097440D01*
X164420503Y-106076257D01*
X164438215Y-106056715D01*
X164457757Y-106039003D01*
X164478940Y-106023293D01*
X164501562Y-106009734D01*
X164525404Y-105998457D01*
X164550236Y-105989572D01*
X164575819Y-105983164D01*
X164601908Y-105979294D01*
X164628250Y-105978000D01*
X165165750Y-105978000D01*
X165192092Y-105979294D01*
X165192092Y-105979294D01*
G37*
D13*
X164897000Y-106553000D03*
G04 #@! TD*
D11*
G04 #@! TO.C,C5*
G36*
X165166592Y-97216294D02*
X165192681Y-97220164D01*
X165218264Y-97226572D01*
X165243096Y-97235457D01*
X165266938Y-97246734D01*
X165289560Y-97260293D01*
X165310743Y-97276003D01*
X165330285Y-97293715D01*
X165347997Y-97313257D01*
X165363707Y-97334440D01*
X165377266Y-97357062D01*
X165388543Y-97380904D01*
X165397428Y-97405736D01*
X165403836Y-97431319D01*
X165407706Y-97457408D01*
X165409000Y-97483750D01*
X165409000Y-98096250D01*
X165407706Y-98122592D01*
X165403836Y-98148681D01*
X165397428Y-98174264D01*
X165388543Y-98199096D01*
X165377266Y-98222938D01*
X165363707Y-98245560D01*
X165347997Y-98266743D01*
X165330285Y-98286285D01*
X165310743Y-98303997D01*
X165289560Y-98319707D01*
X165266938Y-98333266D01*
X165243096Y-98344543D01*
X165218264Y-98353428D01*
X165192681Y-98359836D01*
X165166592Y-98363706D01*
X165140250Y-98365000D01*
X164602750Y-98365000D01*
X164576408Y-98363706D01*
X164550319Y-98359836D01*
X164524736Y-98353428D01*
X164499904Y-98344543D01*
X164476062Y-98333266D01*
X164453440Y-98319707D01*
X164432257Y-98303997D01*
X164412715Y-98286285D01*
X164395003Y-98266743D01*
X164379293Y-98245560D01*
X164365734Y-98222938D01*
X164354457Y-98199096D01*
X164345572Y-98174264D01*
X164339164Y-98148681D01*
X164335294Y-98122592D01*
X164334000Y-98096250D01*
X164334000Y-97483750D01*
X164335294Y-97457408D01*
X164339164Y-97431319D01*
X164345572Y-97405736D01*
X164354457Y-97380904D01*
X164365734Y-97357062D01*
X164379293Y-97334440D01*
X164395003Y-97313257D01*
X164412715Y-97293715D01*
X164432257Y-97276003D01*
X164453440Y-97260293D01*
X164476062Y-97246734D01*
X164499904Y-97235457D01*
X164524736Y-97226572D01*
X164550319Y-97220164D01*
X164576408Y-97216294D01*
X164602750Y-97215000D01*
X165140250Y-97215000D01*
X165166592Y-97216294D01*
X165166592Y-97216294D01*
G37*
D13*
X164871500Y-97790000D03*
D11*
G36*
X163591592Y-97216294D02*
X163617681Y-97220164D01*
X163643264Y-97226572D01*
X163668096Y-97235457D01*
X163691938Y-97246734D01*
X163714560Y-97260293D01*
X163735743Y-97276003D01*
X163755285Y-97293715D01*
X163772997Y-97313257D01*
X163788707Y-97334440D01*
X163802266Y-97357062D01*
X163813543Y-97380904D01*
X163822428Y-97405736D01*
X163828836Y-97431319D01*
X163832706Y-97457408D01*
X163834000Y-97483750D01*
X163834000Y-98096250D01*
X163832706Y-98122592D01*
X163828836Y-98148681D01*
X163822428Y-98174264D01*
X163813543Y-98199096D01*
X163802266Y-98222938D01*
X163788707Y-98245560D01*
X163772997Y-98266743D01*
X163755285Y-98286285D01*
X163735743Y-98303997D01*
X163714560Y-98319707D01*
X163691938Y-98333266D01*
X163668096Y-98344543D01*
X163643264Y-98353428D01*
X163617681Y-98359836D01*
X163591592Y-98363706D01*
X163565250Y-98365000D01*
X163027750Y-98365000D01*
X163001408Y-98363706D01*
X162975319Y-98359836D01*
X162949736Y-98353428D01*
X162924904Y-98344543D01*
X162901062Y-98333266D01*
X162878440Y-98319707D01*
X162857257Y-98303997D01*
X162837715Y-98286285D01*
X162820003Y-98266743D01*
X162804293Y-98245560D01*
X162790734Y-98222938D01*
X162779457Y-98199096D01*
X162770572Y-98174264D01*
X162764164Y-98148681D01*
X162760294Y-98122592D01*
X162759000Y-98096250D01*
X162759000Y-97483750D01*
X162760294Y-97457408D01*
X162764164Y-97431319D01*
X162770572Y-97405736D01*
X162779457Y-97380904D01*
X162790734Y-97357062D01*
X162804293Y-97334440D01*
X162820003Y-97313257D01*
X162837715Y-97293715D01*
X162857257Y-97276003D01*
X162878440Y-97260293D01*
X162901062Y-97246734D01*
X162924904Y-97235457D01*
X162949736Y-97226572D01*
X162975319Y-97220164D01*
X163001408Y-97216294D01*
X163027750Y-97215000D01*
X163565250Y-97215000D01*
X163591592Y-97216294D01*
X163591592Y-97216294D01*
G37*
D13*
X163296500Y-97790000D03*
G04 #@! TD*
D11*
G04 #@! TO.C,C7*
G36*
X163591592Y-99629294D02*
X163617681Y-99633164D01*
X163643264Y-99639572D01*
X163668096Y-99648457D01*
X163691938Y-99659734D01*
X163714560Y-99673293D01*
X163735743Y-99689003D01*
X163755285Y-99706715D01*
X163772997Y-99726257D01*
X163788707Y-99747440D01*
X163802266Y-99770062D01*
X163813543Y-99793904D01*
X163822428Y-99818736D01*
X163828836Y-99844319D01*
X163832706Y-99870408D01*
X163834000Y-99896750D01*
X163834000Y-100509250D01*
X163832706Y-100535592D01*
X163828836Y-100561681D01*
X163822428Y-100587264D01*
X163813543Y-100612096D01*
X163802266Y-100635938D01*
X163788707Y-100658560D01*
X163772997Y-100679743D01*
X163755285Y-100699285D01*
X163735743Y-100716997D01*
X163714560Y-100732707D01*
X163691938Y-100746266D01*
X163668096Y-100757543D01*
X163643264Y-100766428D01*
X163617681Y-100772836D01*
X163591592Y-100776706D01*
X163565250Y-100778000D01*
X163027750Y-100778000D01*
X163001408Y-100776706D01*
X162975319Y-100772836D01*
X162949736Y-100766428D01*
X162924904Y-100757543D01*
X162901062Y-100746266D01*
X162878440Y-100732707D01*
X162857257Y-100716997D01*
X162837715Y-100699285D01*
X162820003Y-100679743D01*
X162804293Y-100658560D01*
X162790734Y-100635938D01*
X162779457Y-100612096D01*
X162770572Y-100587264D01*
X162764164Y-100561681D01*
X162760294Y-100535592D01*
X162759000Y-100509250D01*
X162759000Y-99896750D01*
X162760294Y-99870408D01*
X162764164Y-99844319D01*
X162770572Y-99818736D01*
X162779457Y-99793904D01*
X162790734Y-99770062D01*
X162804293Y-99747440D01*
X162820003Y-99726257D01*
X162837715Y-99706715D01*
X162857257Y-99689003D01*
X162878440Y-99673293D01*
X162901062Y-99659734D01*
X162924904Y-99648457D01*
X162949736Y-99639572D01*
X162975319Y-99633164D01*
X163001408Y-99629294D01*
X163027750Y-99628000D01*
X163565250Y-99628000D01*
X163591592Y-99629294D01*
X163591592Y-99629294D01*
G37*
D13*
X163296500Y-100203000D03*
D11*
G36*
X165166592Y-99629294D02*
X165192681Y-99633164D01*
X165218264Y-99639572D01*
X165243096Y-99648457D01*
X165266938Y-99659734D01*
X165289560Y-99673293D01*
X165310743Y-99689003D01*
X165330285Y-99706715D01*
X165347997Y-99726257D01*
X165363707Y-99747440D01*
X165377266Y-99770062D01*
X165388543Y-99793904D01*
X165397428Y-99818736D01*
X165403836Y-99844319D01*
X165407706Y-99870408D01*
X165409000Y-99896750D01*
X165409000Y-100509250D01*
X165407706Y-100535592D01*
X165403836Y-100561681D01*
X165397428Y-100587264D01*
X165388543Y-100612096D01*
X165377266Y-100635938D01*
X165363707Y-100658560D01*
X165347997Y-100679743D01*
X165330285Y-100699285D01*
X165310743Y-100716997D01*
X165289560Y-100732707D01*
X165266938Y-100746266D01*
X165243096Y-100757543D01*
X165218264Y-100766428D01*
X165192681Y-100772836D01*
X165166592Y-100776706D01*
X165140250Y-100778000D01*
X164602750Y-100778000D01*
X164576408Y-100776706D01*
X164550319Y-100772836D01*
X164524736Y-100766428D01*
X164499904Y-100757543D01*
X164476062Y-100746266D01*
X164453440Y-100732707D01*
X164432257Y-100716997D01*
X164412715Y-100699285D01*
X164395003Y-100679743D01*
X164379293Y-100658560D01*
X164365734Y-100635938D01*
X164354457Y-100612096D01*
X164345572Y-100587264D01*
X164339164Y-100561681D01*
X164335294Y-100535592D01*
X164334000Y-100509250D01*
X164334000Y-99896750D01*
X164335294Y-99870408D01*
X164339164Y-99844319D01*
X164345572Y-99818736D01*
X164354457Y-99793904D01*
X164365734Y-99770062D01*
X164379293Y-99747440D01*
X164395003Y-99726257D01*
X164412715Y-99706715D01*
X164432257Y-99689003D01*
X164453440Y-99673293D01*
X164476062Y-99659734D01*
X164499904Y-99648457D01*
X164524736Y-99639572D01*
X164550319Y-99633164D01*
X164576408Y-99629294D01*
X164602750Y-99628000D01*
X165140250Y-99628000D01*
X165166592Y-99629294D01*
X165166592Y-99629294D01*
G37*
D13*
X164871500Y-100203000D03*
G04 #@! TD*
D25*
G04 #@! TO.C,U1*
X169418000Y-81915000D03*
X158242000Y-81915000D03*
D26*
X163830000Y-81915000D03*
D27*
X161290000Y-76835000D03*
X162306000Y-76835000D03*
X163322000Y-76835000D03*
X164338000Y-76835000D03*
X165354000Y-76835000D03*
X166370000Y-76835000D03*
X166370000Y-86995000D03*
X165354000Y-86995000D03*
X164338000Y-86995000D03*
X163322000Y-86995000D03*
X162280600Y-87020400D03*
X161290000Y-86995000D03*
G04 #@! TD*
D25*
G04 #@! TO.C,U2*
X157988000Y-122682000D03*
X169164000Y-122682000D03*
D26*
X163576000Y-122682000D03*
D27*
X166116000Y-127762000D03*
X165100000Y-127762000D03*
X164084000Y-127762000D03*
X163068000Y-127762000D03*
X162052000Y-127762000D03*
X161036000Y-127762000D03*
X161036000Y-117602000D03*
X162052000Y-117602000D03*
X163068000Y-117602000D03*
X164084000Y-117602000D03*
X165125400Y-117576600D03*
X166116000Y-117602000D03*
G04 #@! TD*
M02*
