M48
;DRILL file {KiCad (5.0.0)} date 10/08/18 14:16:28
;FORMAT={-:-/ absolute / metric / decimal}
FMAT,2
METRIC,TZ
T1C0.400
T2C0.762
T3C1.000
T4C1.100
T5C2.740
T6C1.100
%
G90
G05
M71
T1
X145.542Y-76.962
X148.082Y-121.158
X148.59Y-99.822
X148.844Y-87.122
X148.844Y-114.808
X149.352Y-113.284
X149.606Y-118.364
X150.368Y-95.758
X150.368Y-115.316
X151.384Y-79.502
X152.654Y-75.184
X152.654Y-78.486
X152.908Y-95.758
X153.416Y-104.902
X153.67Y-71.628
X153.924Y-75.184
X153.924Y-87.122
X153.924Y-95.758
X154.686Y-127.508
X154.94Y-110.744
X155.448Y-115.57
X155.956Y-98.298
X156.21Y-116.586
X156.21Y-131.064
X156.718Y-95.758
X157.734Y-78.486
X158.242Y-107.442
X159.258Y-102.362
X159.258Y-104.394
X159.766Y-76.962
X159.766Y-86.106
X160.02Y-106.172
X160.02Y-118.227
X160.782Y-95.25
X161.29Y-75.184
X161.29Y-90.678
X161.29Y-108.458
X161.29Y-116.332
X162.052Y-106.68
X162.306Y-96.52
X162.306Y-112.776
X162.306Y-114.808
X163.322Y-125.222
X163.322Y-128.778
X163.83Y-90.71
X163.83Y-114.808
X164.338Y-78.486
X164.338Y-84.836
X164.846Y-101.6
X165.354Y-88.9
X165.354Y-107.95
X166.37Y-112.014
X166.624Y-96.52
X166.878Y-88.646
X166.878Y-115.316
X167.132Y-117.348
X167.64Y-85.344
X167.64Y-89.662
X167.64Y-127.508
X167.894Y-76.962
X168.148Y-108.966
X169.926Y-126.492
X170.434Y-102.362
T2
X144.145Y-78.232
X144.145Y-80.772
X144.145Y-83.312
X144.145Y-85.852
X144.145Y-88.392
X144.145Y-90.932
X144.145Y-93.472
X144.145Y-96.012
X144.145Y-98.552
X144.145Y-101.092
X144.145Y-103.632
X144.145Y-106.172
X144.145Y-108.712
X144.145Y-111.252
X144.145Y-113.792
X144.145Y-116.332
X144.145Y-118.872
X144.145Y-121.412
X144.145Y-123.952
X144.145Y-126.492
X146.685Y-78.232
X146.685Y-80.772
X146.685Y-83.312
X146.685Y-85.852
X146.685Y-88.392
X146.685Y-90.932
X146.685Y-93.472
X146.685Y-96.012
X146.685Y-98.552
X146.685Y-101.092
X146.685Y-103.632
X146.685Y-106.172
X146.685Y-108.712
X146.685Y-111.252
X146.685Y-113.792
X146.685Y-116.332
X146.685Y-118.872
X146.685Y-121.412
X146.685Y-123.952
X146.685Y-126.492
T3
X151.13Y-121.158
X151.13Y-123.698
X170.434Y-86.36
X170.434Y-88.9
X170.434Y-91.44
X170.434Y-93.98
X170.434Y-110.49
X170.434Y-113.03
X170.434Y-115.57
X170.434Y-118.11
X156.21Y-89.154
X156.21Y-91.694
T4
X169.926Y-97.79
X169.926Y-100.33
X156.718Y-71.374
X159.258Y-71.374
X169.926Y-104.14
X169.926Y-106.68
T5
X145.415Y-73.152
X145.415Y-131.572
X168.91Y-73.152
X168.91Y-131.572
T6
X167.386Y-97.79
X167.386Y-100.33
X156.718Y-73.914
X159.258Y-73.914
X167.386Y-104.14
X167.386Y-106.68
T0
M30
