G04 #@! TF.FileFunction,Copper,L2,Bot,Signal*
%FSLAX46Y46*%
G04 Gerber Fmt 4.6, Leading zero omitted, Abs format (unit mm)*
G04 Created by KiCad (PCBNEW 4.0.7) date 10/05/18 17:40:14*
%MOMM*%
%LPD*%
G01*
G04 APERTURE LIST*
%ADD10C,0.100000*%
%ADD11C,1.524000*%
%ADD12C,6.000000*%
%ADD13R,1.700000X1.700000*%
%ADD14O,1.700000X1.700000*%
%ADD15C,0.600000*%
%ADD16C,0.250000*%
%ADD17C,0.500000*%
%ADD18C,0.254000*%
G04 APERTURE END LIST*
D10*
D11*
X146685000Y-78105000D03*
X144145000Y-78105000D03*
X146685000Y-80645000D03*
X144145000Y-80645000D03*
X146685000Y-83185000D03*
X144145000Y-83185000D03*
X146685000Y-85725000D03*
X144145000Y-85725000D03*
X146685000Y-88265000D03*
X144145000Y-88265000D03*
X146685000Y-90805000D03*
X144145000Y-90805000D03*
X146685000Y-93345000D03*
X144145000Y-93345000D03*
X146685000Y-95885000D03*
X144145000Y-95885000D03*
X146685000Y-98425000D03*
X144145000Y-98425000D03*
X146685000Y-100965000D03*
X144145000Y-100965000D03*
X146685000Y-103505000D03*
X144145000Y-103505000D03*
X146685000Y-106045000D03*
X144145000Y-106045000D03*
X146685000Y-108585000D03*
X144145000Y-108585000D03*
X146685000Y-111125000D03*
X144145000Y-111125000D03*
X146685000Y-113665000D03*
X144145000Y-113665000D03*
X146685000Y-116205000D03*
X144145000Y-116205000D03*
X146685000Y-118745000D03*
X144145000Y-118745000D03*
X146685000Y-121285000D03*
X144145000Y-121285000D03*
X146685000Y-123825000D03*
X144145000Y-123825000D03*
X146685000Y-126365000D03*
X144145000Y-126365000D03*
D12*
X145415000Y-73025000D03*
X145415000Y-131445000D03*
X168910000Y-73025000D03*
X168910000Y-131445000D03*
D11*
X170180000Y-106680000D03*
X170180000Y-104140000D03*
X167640000Y-106680000D03*
X167640000Y-104140000D03*
X170180000Y-100330000D03*
X170180000Y-97790000D03*
X167640000Y-100330000D03*
X167640000Y-97790000D03*
X159385000Y-71120000D03*
X156845000Y-71120000D03*
X159385000Y-73660000D03*
X156845000Y-73660000D03*
D13*
X151130000Y-121158000D03*
D14*
X151130000Y-123698000D03*
D13*
X170434000Y-93980000D03*
D14*
X170434000Y-91440000D03*
X170434000Y-88900000D03*
X170434000Y-86360000D03*
D13*
X170434000Y-110490000D03*
D14*
X170434000Y-113030000D03*
X170434000Y-115570000D03*
X170434000Y-118110000D03*
D13*
X156210000Y-89154000D03*
D14*
X156210000Y-91694000D03*
D15*
X161290000Y-90678000D03*
X163830000Y-90710000D03*
X162306000Y-96520000D03*
X161290000Y-116332000D03*
X156210000Y-116586000D03*
X163830000Y-114808000D03*
X166878000Y-115316000D03*
X162306000Y-112776000D03*
X162052000Y-106680000D03*
X163322000Y-125222000D03*
X163322000Y-128778000D03*
X163195000Y-75565000D03*
X166624000Y-96520000D03*
X167894000Y-76962000D03*
X169926000Y-126492000D03*
X164846000Y-101600000D03*
X165354000Y-88900000D03*
X162306000Y-114808000D03*
X165354000Y-107950000D03*
X153924000Y-87122000D03*
X153924000Y-95758000D03*
X154940000Y-110744000D03*
X150368000Y-115316000D03*
X148844000Y-87122000D03*
X161290000Y-75184000D03*
X159766000Y-76962000D03*
X156718000Y-95758000D03*
X167132000Y-117348000D03*
X148844000Y-114808000D03*
X160020000Y-118110000D03*
X167640000Y-127508000D03*
X161290000Y-108458000D03*
X158242000Y-107442000D03*
X151384000Y-79502000D03*
X157734000Y-78486000D03*
X164338000Y-78486000D03*
X164338000Y-84836000D03*
X152654000Y-75184000D03*
X152654000Y-78486000D03*
X152908000Y-95758000D03*
X150368000Y-95758000D03*
X149606000Y-118364000D03*
X149352000Y-113284000D03*
X153416000Y-104902000D03*
X154686000Y-127508000D03*
X156210000Y-131064000D03*
X148082000Y-121158000D03*
X167640000Y-85344000D03*
X159766000Y-86106000D03*
X168148000Y-108966000D03*
X155448000Y-115570000D03*
X159258000Y-102362000D03*
X167640000Y-89662000D03*
X159258000Y-104394000D03*
X166878000Y-88646000D03*
X170434000Y-102362000D03*
X160782000Y-95250000D03*
X155956000Y-98298000D03*
X148590000Y-99822000D03*
X166370000Y-112014000D03*
X160020000Y-106172000D03*
D16*
X163798000Y-90678000D02*
X163830000Y-90710000D01*
X163798000Y-90678000D02*
X161290000Y-90678000D01*
X163830000Y-94996000D02*
X163830000Y-90710000D01*
X162306000Y-96520000D02*
X163830000Y-94996000D01*
X156464000Y-116332000D02*
X161290000Y-116332000D01*
X156210000Y-116586000D02*
X156464000Y-116332000D01*
X166370000Y-114808000D02*
X163830000Y-114808000D01*
X166878000Y-115316000D02*
X166370000Y-114808000D01*
X162306000Y-106934000D02*
X162306000Y-112776000D01*
X162052000Y-106680000D02*
X162306000Y-106934000D01*
X163322000Y-128778000D02*
X163322000Y-125222000D01*
X156845000Y-71120000D02*
X158115000Y-72390000D01*
X160020000Y-72390000D02*
X163195000Y-75565000D01*
X158115000Y-72390000D02*
X160020000Y-72390000D01*
D17*
X166624000Y-96520000D02*
X167386000Y-96520000D01*
X168910000Y-77978000D02*
X167894000Y-76962000D01*
X168910000Y-94996000D02*
X168910000Y-77978000D01*
X167386000Y-96520000D02*
X168910000Y-94996000D01*
D16*
X169926000Y-126492000D02*
X169926000Y-121158000D01*
X168910000Y-105410000D02*
X170180000Y-104140000D01*
X168910000Y-120142000D02*
X168910000Y-105410000D01*
X169926000Y-121158000D02*
X168910000Y-120142000D01*
D17*
X164846000Y-89408000D02*
X164846000Y-101600000D01*
X165354000Y-88900000D02*
X164846000Y-89408000D01*
D16*
X164846000Y-112268000D02*
X162306000Y-114808000D01*
X164846000Y-108458000D02*
X164846000Y-112268000D01*
X165354000Y-107950000D02*
X164846000Y-108458000D01*
X153924000Y-95758000D02*
X153924000Y-87122000D01*
X154940000Y-110744000D02*
X150368000Y-115316000D01*
X146685000Y-78105000D02*
X145288000Y-79502000D01*
X145796000Y-87122000D02*
X148844000Y-87122000D01*
X145288000Y-86614000D02*
X145796000Y-87122000D01*
X145288000Y-79502000D02*
X145288000Y-86614000D01*
X158496000Y-92964000D02*
X154178000Y-97282000D01*
X158496000Y-92964000D02*
X158496000Y-75692000D01*
X158496000Y-75692000D02*
X159004000Y-75184000D01*
X159004000Y-75184000D02*
X161290000Y-75184000D01*
X148082000Y-97282000D02*
X146685000Y-95885000D01*
X154178000Y-97282000D02*
X148082000Y-97282000D01*
X159004000Y-77724000D02*
X159766000Y-76962000D01*
X159004000Y-93472000D02*
X159004000Y-77724000D01*
X156718000Y-95758000D02*
X159004000Y-93472000D01*
X144145000Y-103505000D02*
X142748000Y-104902000D01*
X143256000Y-117348000D02*
X167132000Y-117348000D01*
X142748000Y-116840000D02*
X143256000Y-117348000D01*
X142748000Y-104902000D02*
X142748000Y-116840000D01*
X145542000Y-114808000D02*
X148844000Y-114808000D01*
X145288000Y-114554000D02*
X145542000Y-114808000D01*
X145288000Y-97536000D02*
X145288000Y-114554000D01*
X145288000Y-97536000D02*
X144145000Y-96393000D01*
X144145000Y-95885000D02*
X144145000Y-96393000D01*
X160020000Y-118110000D02*
X167640000Y-125730000D01*
X167640000Y-125730000D02*
X167640000Y-127508000D01*
X159258000Y-108458000D02*
X161290000Y-108458000D01*
X158242000Y-107442000D02*
X159258000Y-108458000D01*
D17*
X156718000Y-79502000D02*
X151384000Y-79502000D01*
X157734000Y-78486000D02*
X156718000Y-79502000D01*
X164338000Y-84836000D02*
X164338000Y-78486000D01*
X152654000Y-78486000D02*
X152654000Y-75184000D01*
D16*
X149225000Y-80645000D02*
X146685000Y-80645000D01*
X152908000Y-84328000D02*
X149225000Y-80645000D01*
X152908000Y-95758000D02*
X152908000Y-84328000D01*
X148971000Y-83185000D02*
X146685000Y-83185000D01*
X150368000Y-84582000D02*
X148971000Y-83185000D01*
X150368000Y-95758000D02*
X150368000Y-84582000D01*
X149606000Y-118364000D02*
X146685000Y-121285000D01*
X149352000Y-108966000D02*
X149352000Y-113284000D01*
X153416000Y-104902000D02*
X149352000Y-108966000D01*
X144145000Y-123825000D02*
X145542000Y-125222000D01*
X149606000Y-125222000D02*
X151130000Y-123698000D01*
X145542000Y-125222000D02*
X149606000Y-125222000D01*
X156210000Y-129032000D02*
X156210000Y-131064000D01*
X156210000Y-129032000D02*
X154686000Y-127508000D01*
X151130000Y-121158000D02*
X148082000Y-121158000D01*
X167386000Y-85598000D02*
X167640000Y-85344000D01*
X160274000Y-85598000D02*
X167386000Y-85598000D01*
X159766000Y-86106000D02*
X160274000Y-85598000D01*
X170434000Y-93980000D02*
X170434000Y-95504000D01*
X171704000Y-109220000D02*
X170434000Y-110490000D01*
X171704000Y-96774000D02*
X171704000Y-109220000D01*
X170434000Y-95504000D02*
X171704000Y-96774000D01*
X168148000Y-115062000D02*
X168148000Y-108966000D01*
X167132000Y-116078000D02*
X168148000Y-115062000D01*
X162814000Y-116078000D02*
X167132000Y-116078000D01*
X162306000Y-115570000D02*
X162814000Y-116078000D01*
X155448000Y-115570000D02*
X162306000Y-115570000D01*
X164084000Y-86106000D02*
X167132000Y-86106000D01*
X159258000Y-102362000D02*
X159512000Y-102108000D01*
X159512000Y-102108000D02*
X159512000Y-87376000D01*
X159512000Y-87376000D02*
X160782000Y-86106000D01*
X160782000Y-86106000D02*
X164084000Y-86106000D01*
X167640000Y-86614000D02*
X167640000Y-89662000D01*
X167132000Y-86106000D02*
X167640000Y-86614000D01*
X163897604Y-86556002D02*
X166820002Y-86556002D01*
X159258000Y-104394000D02*
X160020000Y-103632000D01*
X160020000Y-103632000D02*
X160020000Y-87630000D01*
X160020000Y-87630000D02*
X161093998Y-86556002D01*
X161093998Y-86556002D02*
X163897604Y-86556002D01*
X167132000Y-88392000D02*
X166878000Y-88646000D01*
X167132000Y-86868000D02*
X167132000Y-88392000D01*
X166820002Y-86556002D02*
X167132000Y-86868000D01*
X170434000Y-102362000D02*
X161036000Y-102362000D01*
X161036000Y-102362000D02*
X160782000Y-102108000D01*
X160782000Y-102108000D02*
X160782000Y-95250000D01*
X155956000Y-98298000D02*
X154432000Y-99822000D01*
X154432000Y-99822000D02*
X148590000Y-99822000D01*
X166370000Y-106680000D02*
X166370000Y-112014000D01*
X165100000Y-105410000D02*
X166370000Y-106680000D01*
X160782000Y-105410000D02*
X165100000Y-105410000D01*
X160020000Y-106172000D02*
X160782000Y-105410000D01*
D18*
G36*
X159084838Y-118295167D02*
X159226883Y-118638943D01*
X159489673Y-118902192D01*
X159833201Y-119044838D01*
X159880077Y-119044879D01*
X166880000Y-126044802D01*
X166880000Y-126945537D01*
X166847808Y-126977673D01*
X166705162Y-127321201D01*
X166704838Y-127693167D01*
X166846883Y-128036943D01*
X167078302Y-128268766D01*
X166853628Y-128361600D01*
X165830194Y-129383249D01*
X165275632Y-130718782D01*
X165274370Y-132164874D01*
X165826600Y-133501372D01*
X166234515Y-133910000D01*
X148090852Y-133910000D01*
X148494806Y-133506751D01*
X149049368Y-132171218D01*
X149050630Y-130725126D01*
X148498400Y-129388628D01*
X147476751Y-128365194D01*
X146141218Y-127810632D01*
X144695126Y-127809370D01*
X143358628Y-128361600D01*
X142950000Y-128769515D01*
X142950000Y-127131125D01*
X142959990Y-127155303D01*
X143352630Y-127548629D01*
X143865900Y-127761757D01*
X144421661Y-127762242D01*
X144935303Y-127550010D01*
X145328629Y-127157370D01*
X145414949Y-126949488D01*
X145499990Y-127155303D01*
X145892630Y-127548629D01*
X146405900Y-127761757D01*
X146961661Y-127762242D01*
X147128835Y-127693167D01*
X153750838Y-127693167D01*
X153892883Y-128036943D01*
X154155673Y-128300192D01*
X154499201Y-128442838D01*
X154546077Y-128442879D01*
X155450000Y-129346802D01*
X155450000Y-130501537D01*
X155417808Y-130533673D01*
X155275162Y-130877201D01*
X155274838Y-131249167D01*
X155416883Y-131592943D01*
X155679673Y-131856192D01*
X156023201Y-131998838D01*
X156395167Y-131999162D01*
X156738943Y-131857117D01*
X157002192Y-131594327D01*
X157144838Y-131250799D01*
X157145162Y-130878833D01*
X157003117Y-130535057D01*
X156970000Y-130501882D01*
X156970000Y-129032000D01*
X156912148Y-128741161D01*
X156912148Y-128741160D01*
X156747401Y-128494599D01*
X155621122Y-127368320D01*
X155621162Y-127322833D01*
X155479117Y-126979057D01*
X155216327Y-126715808D01*
X154872799Y-126573162D01*
X154500833Y-126572838D01*
X154157057Y-126714883D01*
X153893808Y-126977673D01*
X153751162Y-127321201D01*
X153750838Y-127693167D01*
X147128835Y-127693167D01*
X147475303Y-127550010D01*
X147868629Y-127157370D01*
X148081757Y-126644100D01*
X148082242Y-126088339D01*
X148038304Y-125982000D01*
X149606000Y-125982000D01*
X149896839Y-125924148D01*
X150143401Y-125759401D01*
X150783031Y-125119771D01*
X151100907Y-125183000D01*
X151159093Y-125183000D01*
X151727378Y-125069961D01*
X152209147Y-124748054D01*
X152531054Y-124266285D01*
X152644093Y-123698000D01*
X152531054Y-123129715D01*
X152209147Y-122647946D01*
X152167548Y-122620150D01*
X152215317Y-122611162D01*
X152431441Y-122472090D01*
X152576431Y-122259890D01*
X152627440Y-122008000D01*
X152627440Y-120308000D01*
X152583162Y-120072683D01*
X152444090Y-119856559D01*
X152231890Y-119711569D01*
X151980000Y-119660560D01*
X150280000Y-119660560D01*
X150044683Y-119704838D01*
X149828559Y-119843910D01*
X149683569Y-120056110D01*
X149632560Y-120308000D01*
X149632560Y-120398000D01*
X148646802Y-120398000D01*
X149745680Y-119299122D01*
X149791167Y-119299162D01*
X150134943Y-119157117D01*
X150398192Y-118894327D01*
X150540838Y-118550799D01*
X150541162Y-118178833D01*
X150511894Y-118108000D01*
X159085001Y-118108000D01*
X159084838Y-118295167D01*
X159084838Y-118295167D01*
G37*
X159084838Y-118295167D02*
X159226883Y-118638943D01*
X159489673Y-118902192D01*
X159833201Y-119044838D01*
X159880077Y-119044879D01*
X166880000Y-126044802D01*
X166880000Y-126945537D01*
X166847808Y-126977673D01*
X166705162Y-127321201D01*
X166704838Y-127693167D01*
X166846883Y-128036943D01*
X167078302Y-128268766D01*
X166853628Y-128361600D01*
X165830194Y-129383249D01*
X165275632Y-130718782D01*
X165274370Y-132164874D01*
X165826600Y-133501372D01*
X166234515Y-133910000D01*
X148090852Y-133910000D01*
X148494806Y-133506751D01*
X149049368Y-132171218D01*
X149050630Y-130725126D01*
X148498400Y-129388628D01*
X147476751Y-128365194D01*
X146141218Y-127810632D01*
X144695126Y-127809370D01*
X143358628Y-128361600D01*
X142950000Y-128769515D01*
X142950000Y-127131125D01*
X142959990Y-127155303D01*
X143352630Y-127548629D01*
X143865900Y-127761757D01*
X144421661Y-127762242D01*
X144935303Y-127550010D01*
X145328629Y-127157370D01*
X145414949Y-126949488D01*
X145499990Y-127155303D01*
X145892630Y-127548629D01*
X146405900Y-127761757D01*
X146961661Y-127762242D01*
X147128835Y-127693167D01*
X153750838Y-127693167D01*
X153892883Y-128036943D01*
X154155673Y-128300192D01*
X154499201Y-128442838D01*
X154546077Y-128442879D01*
X155450000Y-129346802D01*
X155450000Y-130501537D01*
X155417808Y-130533673D01*
X155275162Y-130877201D01*
X155274838Y-131249167D01*
X155416883Y-131592943D01*
X155679673Y-131856192D01*
X156023201Y-131998838D01*
X156395167Y-131999162D01*
X156738943Y-131857117D01*
X157002192Y-131594327D01*
X157144838Y-131250799D01*
X157145162Y-130878833D01*
X157003117Y-130535057D01*
X156970000Y-130501882D01*
X156970000Y-129032000D01*
X156912148Y-128741161D01*
X156912148Y-128741160D01*
X156747401Y-128494599D01*
X155621122Y-127368320D01*
X155621162Y-127322833D01*
X155479117Y-126979057D01*
X155216327Y-126715808D01*
X154872799Y-126573162D01*
X154500833Y-126572838D01*
X154157057Y-126714883D01*
X153893808Y-126977673D01*
X153751162Y-127321201D01*
X153750838Y-127693167D01*
X147128835Y-127693167D01*
X147475303Y-127550010D01*
X147868629Y-127157370D01*
X148081757Y-126644100D01*
X148082242Y-126088339D01*
X148038304Y-125982000D01*
X149606000Y-125982000D01*
X149896839Y-125924148D01*
X150143401Y-125759401D01*
X150783031Y-125119771D01*
X151100907Y-125183000D01*
X151159093Y-125183000D01*
X151727378Y-125069961D01*
X152209147Y-124748054D01*
X152531054Y-124266285D01*
X152644093Y-123698000D01*
X152531054Y-123129715D01*
X152209147Y-122647946D01*
X152167548Y-122620150D01*
X152215317Y-122611162D01*
X152431441Y-122472090D01*
X152576431Y-122259890D01*
X152627440Y-122008000D01*
X152627440Y-120308000D01*
X152583162Y-120072683D01*
X152444090Y-119856559D01*
X152231890Y-119711569D01*
X151980000Y-119660560D01*
X150280000Y-119660560D01*
X150044683Y-119704838D01*
X149828559Y-119843910D01*
X149683569Y-120056110D01*
X149632560Y-120308000D01*
X149632560Y-120398000D01*
X148646802Y-120398000D01*
X149745680Y-119299122D01*
X149791167Y-119299162D01*
X150134943Y-119157117D01*
X150398192Y-118894327D01*
X150540838Y-118550799D01*
X150541162Y-118178833D01*
X150511894Y-118108000D01*
X159085001Y-118108000D01*
X159084838Y-118295167D01*
G36*
X168150000Y-120142000D02*
X168207852Y-120432839D01*
X168372599Y-120679401D01*
X169166000Y-121472802D01*
X169166000Y-125929537D01*
X169133808Y-125961673D01*
X168991162Y-126305201D01*
X168990838Y-126677167D01*
X169132883Y-127020943D01*
X169395673Y-127284192D01*
X169739201Y-127426838D01*
X170111167Y-127427162D01*
X170454943Y-127285117D01*
X170718192Y-127022327D01*
X170860838Y-126678799D01*
X170861162Y-126306833D01*
X170719117Y-125963057D01*
X170686000Y-125929882D01*
X170686000Y-121158000D01*
X170628148Y-120867161D01*
X170463401Y-120620599D01*
X169670000Y-119827198D01*
X169670000Y-119360297D01*
X170077108Y-119551486D01*
X170307000Y-119430819D01*
X170307000Y-118237000D01*
X170287000Y-118237000D01*
X170287000Y-117983000D01*
X170307000Y-117983000D01*
X170307000Y-117963000D01*
X170561000Y-117963000D01*
X170561000Y-117983000D01*
X170581000Y-117983000D01*
X170581000Y-118237000D01*
X170561000Y-118237000D01*
X170561000Y-119430819D01*
X170790892Y-119551486D01*
X171315358Y-119305183D01*
X171375000Y-119239738D01*
X171375000Y-128769148D01*
X170971751Y-128365194D01*
X169636218Y-127810632D01*
X168527142Y-127809664D01*
X168574838Y-127694799D01*
X168575162Y-127322833D01*
X168433117Y-126979057D01*
X168400000Y-126945882D01*
X168400000Y-125730000D01*
X168342148Y-125439161D01*
X168342148Y-125439160D01*
X168177401Y-125192599D01*
X161092802Y-118108000D01*
X166569537Y-118108000D01*
X166601673Y-118140192D01*
X166945201Y-118282838D01*
X167317167Y-118283162D01*
X167660943Y-118141117D01*
X167924192Y-117878327D01*
X168066838Y-117534799D01*
X168067162Y-117162833D01*
X167925117Y-116819057D01*
X167695631Y-116589171D01*
X168150000Y-116134802D01*
X168150000Y-120142000D01*
X168150000Y-120142000D01*
G37*
X168150000Y-120142000D02*
X168207852Y-120432839D01*
X168372599Y-120679401D01*
X169166000Y-121472802D01*
X169166000Y-125929537D01*
X169133808Y-125961673D01*
X168991162Y-126305201D01*
X168990838Y-126677167D01*
X169132883Y-127020943D01*
X169395673Y-127284192D01*
X169739201Y-127426838D01*
X170111167Y-127427162D01*
X170454943Y-127285117D01*
X170718192Y-127022327D01*
X170860838Y-126678799D01*
X170861162Y-126306833D01*
X170719117Y-125963057D01*
X170686000Y-125929882D01*
X170686000Y-121158000D01*
X170628148Y-120867161D01*
X170463401Y-120620599D01*
X169670000Y-119827198D01*
X169670000Y-119360297D01*
X170077108Y-119551486D01*
X170307000Y-119430819D01*
X170307000Y-118237000D01*
X170287000Y-118237000D01*
X170287000Y-117983000D01*
X170307000Y-117983000D01*
X170307000Y-117963000D01*
X170561000Y-117963000D01*
X170561000Y-117983000D01*
X170581000Y-117983000D01*
X170581000Y-118237000D01*
X170561000Y-118237000D01*
X170561000Y-119430819D01*
X170790892Y-119551486D01*
X171315358Y-119305183D01*
X171375000Y-119239738D01*
X171375000Y-128769148D01*
X170971751Y-128365194D01*
X169636218Y-127810632D01*
X168527142Y-127809664D01*
X168574838Y-127694799D01*
X168575162Y-127322833D01*
X168433117Y-126979057D01*
X168400000Y-126945882D01*
X168400000Y-125730000D01*
X168342148Y-125439161D01*
X168342148Y-125439160D01*
X168177401Y-125192599D01*
X161092802Y-118108000D01*
X166569537Y-118108000D01*
X166601673Y-118140192D01*
X166945201Y-118282838D01*
X167317167Y-118283162D01*
X167660943Y-118141117D01*
X167924192Y-117878327D01*
X168066838Y-117534799D01*
X168067162Y-117162833D01*
X167925117Y-116819057D01*
X167695631Y-116589171D01*
X168150000Y-116134802D01*
X168150000Y-120142000D01*
G36*
X158752000Y-101559403D02*
X158729057Y-101568883D01*
X158465808Y-101831673D01*
X158323162Y-102175201D01*
X158322838Y-102547167D01*
X158464883Y-102890943D01*
X158727673Y-103154192D01*
X159071201Y-103296838D01*
X159260000Y-103297002D01*
X159260000Y-103317198D01*
X159118320Y-103458878D01*
X159072833Y-103458838D01*
X158729057Y-103600883D01*
X158465808Y-103863673D01*
X158323162Y-104207201D01*
X158322838Y-104579167D01*
X158464883Y-104922943D01*
X158727673Y-105186192D01*
X159071201Y-105328838D01*
X159443167Y-105329162D01*
X159786943Y-105187117D01*
X160050192Y-104924327D01*
X160192838Y-104580799D01*
X160192879Y-104533923D01*
X160557401Y-104169401D01*
X160722148Y-103922839D01*
X160780000Y-103632000D01*
X160780000Y-103071078D01*
X161036000Y-103122000D01*
X166682395Y-103122000D01*
X166456371Y-103347630D01*
X166243243Y-103860900D01*
X166242758Y-104416661D01*
X166454990Y-104930303D01*
X166847630Y-105323629D01*
X167055512Y-105409949D01*
X166849697Y-105494990D01*
X166554487Y-105789685D01*
X165637401Y-104872599D01*
X165390839Y-104707852D01*
X165100000Y-104650000D01*
X160782000Y-104650000D01*
X160491161Y-104707852D01*
X160244599Y-104872599D01*
X159880320Y-105236878D01*
X159834833Y-105236838D01*
X159491057Y-105378883D01*
X159227808Y-105641673D01*
X159085162Y-105985201D01*
X159084838Y-106357167D01*
X159226883Y-106700943D01*
X159489673Y-106964192D01*
X159833201Y-107106838D01*
X160205167Y-107107162D01*
X160548943Y-106965117D01*
X160812192Y-106702327D01*
X160954838Y-106358799D01*
X160954879Y-106311923D01*
X161096802Y-106170000D01*
X164785198Y-106170000D01*
X165610000Y-106994802D01*
X165610000Y-107043897D01*
X165540799Y-107015162D01*
X165168833Y-107014838D01*
X164825057Y-107156883D01*
X164561808Y-107419673D01*
X164419162Y-107763201D01*
X164419121Y-107810077D01*
X164308599Y-107920599D01*
X164143852Y-108167161D01*
X164086000Y-108458000D01*
X164086000Y-111953198D01*
X162166320Y-113872878D01*
X162120833Y-113872838D01*
X161777057Y-114014883D01*
X161513808Y-114277673D01*
X161371162Y-114621201D01*
X161370998Y-114810000D01*
X156010463Y-114810000D01*
X155978327Y-114777808D01*
X155634799Y-114635162D01*
X155262833Y-114634838D01*
X154919057Y-114776883D01*
X154655808Y-115039673D01*
X154513162Y-115383201D01*
X154512838Y-115755167D01*
X154654883Y-116098943D01*
X154917673Y-116362192D01*
X155261201Y-116504838D01*
X155633167Y-116505162D01*
X155976943Y-116363117D01*
X156010118Y-116330000D01*
X161991198Y-116330000D01*
X162249198Y-116588000D01*
X148038614Y-116588000D01*
X148081757Y-116484100D01*
X148082242Y-115928339D01*
X147933353Y-115568000D01*
X148281537Y-115568000D01*
X148313673Y-115600192D01*
X148657201Y-115742838D01*
X149029167Y-115743162D01*
X149372943Y-115601117D01*
X149444586Y-115529599D01*
X149574883Y-115844943D01*
X149837673Y-116108192D01*
X150181201Y-116250838D01*
X150553167Y-116251162D01*
X150896943Y-116109117D01*
X151160192Y-115846327D01*
X151302838Y-115502799D01*
X151302879Y-115455923D01*
X155079680Y-111679122D01*
X155125167Y-111679162D01*
X155468943Y-111537117D01*
X155732192Y-111274327D01*
X155874838Y-110930799D01*
X155875162Y-110558833D01*
X155733117Y-110215057D01*
X155470327Y-109951808D01*
X155126799Y-109809162D01*
X154754833Y-109808838D01*
X154411057Y-109950883D01*
X154147808Y-110213673D01*
X154005162Y-110557201D01*
X154005121Y-110604077D01*
X150228320Y-114380878D01*
X150182833Y-114380838D01*
X149839057Y-114522883D01*
X149767414Y-114594401D01*
X149637117Y-114279057D01*
X149565599Y-114207414D01*
X149880943Y-114077117D01*
X150144192Y-113814327D01*
X150286838Y-113470799D01*
X150287162Y-113098833D01*
X150145117Y-112755057D01*
X150112000Y-112721882D01*
X150112000Y-109280802D01*
X151765635Y-107627167D01*
X157306838Y-107627167D01*
X157448883Y-107970943D01*
X157711673Y-108234192D01*
X158055201Y-108376838D01*
X158102077Y-108376879D01*
X158720599Y-108995401D01*
X158967161Y-109160148D01*
X159258000Y-109218000D01*
X160727537Y-109218000D01*
X160759673Y-109250192D01*
X161103201Y-109392838D01*
X161475167Y-109393162D01*
X161818943Y-109251117D01*
X162082192Y-108988327D01*
X162224838Y-108644799D01*
X162225162Y-108272833D01*
X162083117Y-107929057D01*
X161820327Y-107665808D01*
X161476799Y-107523162D01*
X161104833Y-107522838D01*
X160761057Y-107664883D01*
X160727882Y-107698000D01*
X159572802Y-107698000D01*
X159177122Y-107302320D01*
X159177162Y-107256833D01*
X159035117Y-106913057D01*
X158772327Y-106649808D01*
X158428799Y-106507162D01*
X158056833Y-106506838D01*
X157713057Y-106648883D01*
X157449808Y-106911673D01*
X157307162Y-107255201D01*
X157306838Y-107627167D01*
X151765635Y-107627167D01*
X153555680Y-105837122D01*
X153601167Y-105837162D01*
X153944943Y-105695117D01*
X154208192Y-105432327D01*
X154350838Y-105088799D01*
X154351162Y-104716833D01*
X154209117Y-104373057D01*
X153946327Y-104109808D01*
X153602799Y-103967162D01*
X153230833Y-103966838D01*
X152887057Y-104108883D01*
X152623808Y-104371673D01*
X152481162Y-104715201D01*
X152481121Y-104762077D01*
X148814599Y-108428599D01*
X148649852Y-108675161D01*
X148592000Y-108966000D01*
X148592000Y-112721537D01*
X148559808Y-112753673D01*
X148417162Y-113097201D01*
X148416838Y-113469167D01*
X148558883Y-113812943D01*
X148630401Y-113884586D01*
X148315057Y-114014883D01*
X148281882Y-114048000D01*
X148038614Y-114048000D01*
X148081757Y-113944100D01*
X148082242Y-113388339D01*
X147870010Y-112874697D01*
X147477370Y-112481371D01*
X147269488Y-112395051D01*
X147475303Y-112310010D01*
X147868629Y-111917370D01*
X148081757Y-111404100D01*
X148082242Y-110848339D01*
X147870010Y-110334697D01*
X147477370Y-109941371D01*
X147269488Y-109855051D01*
X147475303Y-109770010D01*
X147868629Y-109377370D01*
X148081757Y-108864100D01*
X148082242Y-108308339D01*
X147870010Y-107794697D01*
X147477370Y-107401371D01*
X147269488Y-107315051D01*
X147475303Y-107230010D01*
X147868629Y-106837370D01*
X148081757Y-106324100D01*
X148082242Y-105768339D01*
X147870010Y-105254697D01*
X147477370Y-104861371D01*
X147269488Y-104775051D01*
X147475303Y-104690010D01*
X147868629Y-104297370D01*
X148081757Y-103784100D01*
X148082242Y-103228339D01*
X147870010Y-102714697D01*
X147477370Y-102321371D01*
X147269488Y-102235051D01*
X147475303Y-102150010D01*
X147868629Y-101757370D01*
X148081757Y-101244100D01*
X148082242Y-100688339D01*
X148045907Y-100600402D01*
X148059673Y-100614192D01*
X148403201Y-100756838D01*
X148775167Y-100757162D01*
X149118943Y-100615117D01*
X149152118Y-100582000D01*
X154432000Y-100582000D01*
X154722839Y-100524148D01*
X154969401Y-100359401D01*
X156095680Y-99233122D01*
X156141167Y-99233162D01*
X156484943Y-99091117D01*
X156748192Y-98828327D01*
X156890838Y-98484799D01*
X156891162Y-98112833D01*
X156749117Y-97769057D01*
X156486327Y-97505808D01*
X156142799Y-97363162D01*
X155770833Y-97362838D01*
X155427057Y-97504883D01*
X155163808Y-97767673D01*
X155021162Y-98111201D01*
X155021121Y-98158077D01*
X154117198Y-99062000D01*
X149152463Y-99062000D01*
X149120327Y-99029808D01*
X148776799Y-98887162D01*
X148404833Y-98886838D01*
X148061057Y-99028883D01*
X147797808Y-99291673D01*
X147655162Y-99635201D01*
X147654880Y-99959191D01*
X147477370Y-99781371D01*
X147269488Y-99695051D01*
X147475303Y-99610010D01*
X147868629Y-99217370D01*
X148081757Y-98704100D01*
X148082242Y-98148339D01*
X148034391Y-98032530D01*
X148082000Y-98042000D01*
X154178000Y-98042000D01*
X154468839Y-97984148D01*
X154715401Y-97819401D01*
X156086230Y-96448572D01*
X156187673Y-96550192D01*
X156531201Y-96692838D01*
X156903167Y-96693162D01*
X157246943Y-96551117D01*
X157510192Y-96288327D01*
X157652838Y-95944799D01*
X157652879Y-95897923D01*
X158752000Y-94798802D01*
X158752000Y-101559403D01*
X158752000Y-101559403D01*
G37*
X158752000Y-101559403D02*
X158729057Y-101568883D01*
X158465808Y-101831673D01*
X158323162Y-102175201D01*
X158322838Y-102547167D01*
X158464883Y-102890943D01*
X158727673Y-103154192D01*
X159071201Y-103296838D01*
X159260000Y-103297002D01*
X159260000Y-103317198D01*
X159118320Y-103458878D01*
X159072833Y-103458838D01*
X158729057Y-103600883D01*
X158465808Y-103863673D01*
X158323162Y-104207201D01*
X158322838Y-104579167D01*
X158464883Y-104922943D01*
X158727673Y-105186192D01*
X159071201Y-105328838D01*
X159443167Y-105329162D01*
X159786943Y-105187117D01*
X160050192Y-104924327D01*
X160192838Y-104580799D01*
X160192879Y-104533923D01*
X160557401Y-104169401D01*
X160722148Y-103922839D01*
X160780000Y-103632000D01*
X160780000Y-103071078D01*
X161036000Y-103122000D01*
X166682395Y-103122000D01*
X166456371Y-103347630D01*
X166243243Y-103860900D01*
X166242758Y-104416661D01*
X166454990Y-104930303D01*
X166847630Y-105323629D01*
X167055512Y-105409949D01*
X166849697Y-105494990D01*
X166554487Y-105789685D01*
X165637401Y-104872599D01*
X165390839Y-104707852D01*
X165100000Y-104650000D01*
X160782000Y-104650000D01*
X160491161Y-104707852D01*
X160244599Y-104872599D01*
X159880320Y-105236878D01*
X159834833Y-105236838D01*
X159491057Y-105378883D01*
X159227808Y-105641673D01*
X159085162Y-105985201D01*
X159084838Y-106357167D01*
X159226883Y-106700943D01*
X159489673Y-106964192D01*
X159833201Y-107106838D01*
X160205167Y-107107162D01*
X160548943Y-106965117D01*
X160812192Y-106702327D01*
X160954838Y-106358799D01*
X160954879Y-106311923D01*
X161096802Y-106170000D01*
X164785198Y-106170000D01*
X165610000Y-106994802D01*
X165610000Y-107043897D01*
X165540799Y-107015162D01*
X165168833Y-107014838D01*
X164825057Y-107156883D01*
X164561808Y-107419673D01*
X164419162Y-107763201D01*
X164419121Y-107810077D01*
X164308599Y-107920599D01*
X164143852Y-108167161D01*
X164086000Y-108458000D01*
X164086000Y-111953198D01*
X162166320Y-113872878D01*
X162120833Y-113872838D01*
X161777057Y-114014883D01*
X161513808Y-114277673D01*
X161371162Y-114621201D01*
X161370998Y-114810000D01*
X156010463Y-114810000D01*
X155978327Y-114777808D01*
X155634799Y-114635162D01*
X155262833Y-114634838D01*
X154919057Y-114776883D01*
X154655808Y-115039673D01*
X154513162Y-115383201D01*
X154512838Y-115755167D01*
X154654883Y-116098943D01*
X154917673Y-116362192D01*
X155261201Y-116504838D01*
X155633167Y-116505162D01*
X155976943Y-116363117D01*
X156010118Y-116330000D01*
X161991198Y-116330000D01*
X162249198Y-116588000D01*
X148038614Y-116588000D01*
X148081757Y-116484100D01*
X148082242Y-115928339D01*
X147933353Y-115568000D01*
X148281537Y-115568000D01*
X148313673Y-115600192D01*
X148657201Y-115742838D01*
X149029167Y-115743162D01*
X149372943Y-115601117D01*
X149444586Y-115529599D01*
X149574883Y-115844943D01*
X149837673Y-116108192D01*
X150181201Y-116250838D01*
X150553167Y-116251162D01*
X150896943Y-116109117D01*
X151160192Y-115846327D01*
X151302838Y-115502799D01*
X151302879Y-115455923D01*
X155079680Y-111679122D01*
X155125167Y-111679162D01*
X155468943Y-111537117D01*
X155732192Y-111274327D01*
X155874838Y-110930799D01*
X155875162Y-110558833D01*
X155733117Y-110215057D01*
X155470327Y-109951808D01*
X155126799Y-109809162D01*
X154754833Y-109808838D01*
X154411057Y-109950883D01*
X154147808Y-110213673D01*
X154005162Y-110557201D01*
X154005121Y-110604077D01*
X150228320Y-114380878D01*
X150182833Y-114380838D01*
X149839057Y-114522883D01*
X149767414Y-114594401D01*
X149637117Y-114279057D01*
X149565599Y-114207414D01*
X149880943Y-114077117D01*
X150144192Y-113814327D01*
X150286838Y-113470799D01*
X150287162Y-113098833D01*
X150145117Y-112755057D01*
X150112000Y-112721882D01*
X150112000Y-109280802D01*
X151765635Y-107627167D01*
X157306838Y-107627167D01*
X157448883Y-107970943D01*
X157711673Y-108234192D01*
X158055201Y-108376838D01*
X158102077Y-108376879D01*
X158720599Y-108995401D01*
X158967161Y-109160148D01*
X159258000Y-109218000D01*
X160727537Y-109218000D01*
X160759673Y-109250192D01*
X161103201Y-109392838D01*
X161475167Y-109393162D01*
X161818943Y-109251117D01*
X162082192Y-108988327D01*
X162224838Y-108644799D01*
X162225162Y-108272833D01*
X162083117Y-107929057D01*
X161820327Y-107665808D01*
X161476799Y-107523162D01*
X161104833Y-107522838D01*
X160761057Y-107664883D01*
X160727882Y-107698000D01*
X159572802Y-107698000D01*
X159177122Y-107302320D01*
X159177162Y-107256833D01*
X159035117Y-106913057D01*
X158772327Y-106649808D01*
X158428799Y-106507162D01*
X158056833Y-106506838D01*
X157713057Y-106648883D01*
X157449808Y-106911673D01*
X157307162Y-107255201D01*
X157306838Y-107627167D01*
X151765635Y-107627167D01*
X153555680Y-105837122D01*
X153601167Y-105837162D01*
X153944943Y-105695117D01*
X154208192Y-105432327D01*
X154350838Y-105088799D01*
X154351162Y-104716833D01*
X154209117Y-104373057D01*
X153946327Y-104109808D01*
X153602799Y-103967162D01*
X153230833Y-103966838D01*
X152887057Y-104108883D01*
X152623808Y-104371673D01*
X152481162Y-104715201D01*
X152481121Y-104762077D01*
X148814599Y-108428599D01*
X148649852Y-108675161D01*
X148592000Y-108966000D01*
X148592000Y-112721537D01*
X148559808Y-112753673D01*
X148417162Y-113097201D01*
X148416838Y-113469167D01*
X148558883Y-113812943D01*
X148630401Y-113884586D01*
X148315057Y-114014883D01*
X148281882Y-114048000D01*
X148038614Y-114048000D01*
X148081757Y-113944100D01*
X148082242Y-113388339D01*
X147870010Y-112874697D01*
X147477370Y-112481371D01*
X147269488Y-112395051D01*
X147475303Y-112310010D01*
X147868629Y-111917370D01*
X148081757Y-111404100D01*
X148082242Y-110848339D01*
X147870010Y-110334697D01*
X147477370Y-109941371D01*
X147269488Y-109855051D01*
X147475303Y-109770010D01*
X147868629Y-109377370D01*
X148081757Y-108864100D01*
X148082242Y-108308339D01*
X147870010Y-107794697D01*
X147477370Y-107401371D01*
X147269488Y-107315051D01*
X147475303Y-107230010D01*
X147868629Y-106837370D01*
X148081757Y-106324100D01*
X148082242Y-105768339D01*
X147870010Y-105254697D01*
X147477370Y-104861371D01*
X147269488Y-104775051D01*
X147475303Y-104690010D01*
X147868629Y-104297370D01*
X148081757Y-103784100D01*
X148082242Y-103228339D01*
X147870010Y-102714697D01*
X147477370Y-102321371D01*
X147269488Y-102235051D01*
X147475303Y-102150010D01*
X147868629Y-101757370D01*
X148081757Y-101244100D01*
X148082242Y-100688339D01*
X148045907Y-100600402D01*
X148059673Y-100614192D01*
X148403201Y-100756838D01*
X148775167Y-100757162D01*
X149118943Y-100615117D01*
X149152118Y-100582000D01*
X154432000Y-100582000D01*
X154722839Y-100524148D01*
X154969401Y-100359401D01*
X156095680Y-99233122D01*
X156141167Y-99233162D01*
X156484943Y-99091117D01*
X156748192Y-98828327D01*
X156890838Y-98484799D01*
X156891162Y-98112833D01*
X156749117Y-97769057D01*
X156486327Y-97505808D01*
X156142799Y-97363162D01*
X155770833Y-97362838D01*
X155427057Y-97504883D01*
X155163808Y-97767673D01*
X155021162Y-98111201D01*
X155021121Y-98158077D01*
X154117198Y-99062000D01*
X149152463Y-99062000D01*
X149120327Y-99029808D01*
X148776799Y-98887162D01*
X148404833Y-98886838D01*
X148061057Y-99028883D01*
X147797808Y-99291673D01*
X147655162Y-99635201D01*
X147654880Y-99959191D01*
X147477370Y-99781371D01*
X147269488Y-99695051D01*
X147475303Y-99610010D01*
X147868629Y-99217370D01*
X148081757Y-98704100D01*
X148082242Y-98148339D01*
X148034391Y-98032530D01*
X148082000Y-98042000D01*
X154178000Y-98042000D01*
X154468839Y-97984148D01*
X154715401Y-97819401D01*
X156086230Y-96448572D01*
X156187673Y-96550192D01*
X156531201Y-96692838D01*
X156903167Y-96693162D01*
X157246943Y-96551117D01*
X157510192Y-96288327D01*
X157652838Y-95944799D01*
X157652879Y-95897923D01*
X158752000Y-94798802D01*
X158752000Y-101559403D01*
G36*
X167360900Y-108076757D02*
X167850666Y-108077184D01*
X167619057Y-108172883D01*
X167355808Y-108435673D01*
X167213162Y-108779201D01*
X167212838Y-109151167D01*
X167354883Y-109494943D01*
X167388000Y-109528118D01*
X167388000Y-114747198D01*
X166817198Y-115318000D01*
X163128802Y-115318000D01*
X163113137Y-115302335D01*
X163240838Y-114994799D01*
X163240879Y-114947923D01*
X165383401Y-112805401D01*
X165548148Y-112558840D01*
X165559620Y-112501164D01*
X165576883Y-112542943D01*
X165839673Y-112806192D01*
X166183201Y-112948838D01*
X166555167Y-112949162D01*
X166898943Y-112807117D01*
X167162192Y-112544327D01*
X167304838Y-112200799D01*
X167305162Y-111828833D01*
X167163117Y-111485057D01*
X167130000Y-111451882D01*
X167130000Y-107980879D01*
X167360900Y-108076757D01*
X167360900Y-108076757D01*
G37*
X167360900Y-108076757D02*
X167850666Y-108077184D01*
X167619057Y-108172883D01*
X167355808Y-108435673D01*
X167213162Y-108779201D01*
X167212838Y-109151167D01*
X167354883Y-109494943D01*
X167388000Y-109528118D01*
X167388000Y-114747198D01*
X166817198Y-115318000D01*
X163128802Y-115318000D01*
X163113137Y-115302335D01*
X163240838Y-114994799D01*
X163240879Y-114947923D01*
X165383401Y-112805401D01*
X165548148Y-112558840D01*
X165559620Y-112501164D01*
X165576883Y-112542943D01*
X165839673Y-112806192D01*
X166183201Y-112948838D01*
X166555167Y-112949162D01*
X166898943Y-112807117D01*
X167162192Y-112544327D01*
X167304838Y-112200799D01*
X167305162Y-111828833D01*
X167163117Y-111485057D01*
X167130000Y-111451882D01*
X167130000Y-107980879D01*
X167360900Y-108076757D01*
G36*
X166372000Y-87843403D02*
X166349057Y-87852883D01*
X166085808Y-88115673D01*
X166028926Y-88252660D01*
X165884327Y-88107808D01*
X165540799Y-87965162D01*
X165168833Y-87964838D01*
X164825057Y-88106883D01*
X164561808Y-88369673D01*
X164511434Y-88490987D01*
X164220210Y-88782210D01*
X164028367Y-89069325D01*
X164028367Y-89069326D01*
X163960999Y-89408000D01*
X163961000Y-89408005D01*
X163961000Y-101293178D01*
X163911162Y-101413201D01*
X163910998Y-101602000D01*
X161542000Y-101602000D01*
X161542000Y-95812463D01*
X161574192Y-95780327D01*
X161716838Y-95436799D01*
X161717162Y-95064833D01*
X161575117Y-94721057D01*
X161312327Y-94457808D01*
X160968799Y-94315162D01*
X160780000Y-94314998D01*
X160780000Y-87944802D01*
X161408800Y-87316002D01*
X166372000Y-87316002D01*
X166372000Y-87843403D01*
X166372000Y-87843403D01*
G37*
X166372000Y-87843403D02*
X166349057Y-87852883D01*
X166085808Y-88115673D01*
X166028926Y-88252660D01*
X165884327Y-88107808D01*
X165540799Y-87965162D01*
X165168833Y-87964838D01*
X164825057Y-88106883D01*
X164561808Y-88369673D01*
X164511434Y-88490987D01*
X164220210Y-88782210D01*
X164028367Y-89069325D01*
X164028367Y-89069326D01*
X163960999Y-89408000D01*
X163961000Y-89408005D01*
X163961000Y-101293178D01*
X163911162Y-101413201D01*
X163910998Y-101602000D01*
X161542000Y-101602000D01*
X161542000Y-95812463D01*
X161574192Y-95780327D01*
X161716838Y-95436799D01*
X161717162Y-95064833D01*
X161575117Y-94721057D01*
X161312327Y-94457808D01*
X160968799Y-94315162D01*
X160780000Y-94314998D01*
X160780000Y-87944802D01*
X161408800Y-87316002D01*
X166372000Y-87316002D01*
X166372000Y-87843403D01*
G36*
X155435856Y-70912302D02*
X155463638Y-71467368D01*
X155622603Y-71851143D01*
X155864787Y-71920608D01*
X156665395Y-71120000D01*
X156651253Y-71105858D01*
X156830858Y-70926253D01*
X156845000Y-70940395D01*
X156859143Y-70926253D01*
X157038748Y-71105858D01*
X157024605Y-71120000D01*
X157825213Y-71920608D01*
X158067397Y-71851143D01*
X158117509Y-71710682D01*
X158199990Y-71910303D01*
X158592630Y-72303629D01*
X158800512Y-72389949D01*
X158594697Y-72474990D01*
X158201371Y-72867630D01*
X158115051Y-73075512D01*
X158030010Y-72869697D01*
X157637370Y-72476371D01*
X157445273Y-72396605D01*
X157576143Y-72342397D01*
X157645608Y-72100213D01*
X156845000Y-71299605D01*
X156044392Y-72100213D01*
X156113857Y-72342397D01*
X156254318Y-72392509D01*
X156054697Y-72474990D01*
X155661371Y-72867630D01*
X155448243Y-73380900D01*
X155447758Y-73936661D01*
X155659990Y-74450303D01*
X156052630Y-74843629D01*
X156565900Y-75056757D01*
X157121661Y-75057242D01*
X157635303Y-74845010D01*
X158028629Y-74452370D01*
X158114949Y-74244488D01*
X158199990Y-74450303D01*
X158431240Y-74681958D01*
X157958599Y-75154599D01*
X157793852Y-75401161D01*
X157736000Y-75692000D01*
X157736000Y-77551001D01*
X157548833Y-77550838D01*
X157205057Y-77692883D01*
X156941808Y-77955673D01*
X156891434Y-78076987D01*
X156351420Y-78617000D01*
X153588887Y-78617000D01*
X153589162Y-78300833D01*
X153539000Y-78179431D01*
X153539000Y-75490822D01*
X153588838Y-75370799D01*
X153589162Y-74998833D01*
X153447117Y-74655057D01*
X153184327Y-74391808D01*
X152840799Y-74249162D01*
X152468833Y-74248838D01*
X152125057Y-74390883D01*
X151861808Y-74653673D01*
X151719162Y-74997201D01*
X151718838Y-75369167D01*
X151769000Y-75490569D01*
X151769000Y-78179178D01*
X151719162Y-78299201D01*
X151718885Y-78617000D01*
X151690822Y-78617000D01*
X151570799Y-78567162D01*
X151198833Y-78566838D01*
X150855057Y-78708883D01*
X150591808Y-78971673D01*
X150449162Y-79315201D01*
X150448838Y-79687167D01*
X150590883Y-80030943D01*
X150853673Y-80294192D01*
X151197201Y-80436838D01*
X151569167Y-80437162D01*
X151690569Y-80387000D01*
X156717995Y-80387000D01*
X156718000Y-80387001D01*
X157000484Y-80330810D01*
X157056675Y-80319633D01*
X157343790Y-80127790D01*
X157736000Y-79735580D01*
X157736000Y-92649198D01*
X154845479Y-95539719D01*
X154717117Y-95229057D01*
X154684000Y-95195882D01*
X154684000Y-91694000D01*
X154695907Y-91694000D01*
X154808946Y-92262285D01*
X155130853Y-92744054D01*
X155612622Y-93065961D01*
X156180907Y-93179000D01*
X156239093Y-93179000D01*
X156807378Y-93065961D01*
X157289147Y-92744054D01*
X157611054Y-92262285D01*
X157724093Y-91694000D01*
X157611054Y-91125715D01*
X157289147Y-90643946D01*
X157247548Y-90616150D01*
X157295317Y-90607162D01*
X157511441Y-90468090D01*
X157656431Y-90255890D01*
X157707440Y-90004000D01*
X157707440Y-88304000D01*
X157663162Y-88068683D01*
X157524090Y-87852559D01*
X157311890Y-87707569D01*
X157060000Y-87656560D01*
X155360000Y-87656560D01*
X155124683Y-87700838D01*
X154908559Y-87839910D01*
X154763569Y-88052110D01*
X154712560Y-88304000D01*
X154712560Y-90004000D01*
X154756838Y-90239317D01*
X154895910Y-90455441D01*
X155108110Y-90600431D01*
X155175541Y-90614086D01*
X155130853Y-90643946D01*
X154808946Y-91125715D01*
X154695907Y-91694000D01*
X154684000Y-91694000D01*
X154684000Y-87684463D01*
X154716192Y-87652327D01*
X154858838Y-87308799D01*
X154859162Y-86936833D01*
X154717117Y-86593057D01*
X154454327Y-86329808D01*
X154110799Y-86187162D01*
X153738833Y-86186838D01*
X153668000Y-86216106D01*
X153668000Y-84328000D01*
X153610148Y-84037161D01*
X153445401Y-83790599D01*
X149762401Y-80107599D01*
X149515839Y-79942852D01*
X149225000Y-79885000D01*
X147882531Y-79885000D01*
X147870010Y-79854697D01*
X147477370Y-79461371D01*
X147269488Y-79375051D01*
X147475303Y-79290010D01*
X147868629Y-78897370D01*
X148081757Y-78384100D01*
X148082242Y-77828339D01*
X147870010Y-77314697D01*
X147477370Y-76921371D01*
X146964100Y-76708243D01*
X146408339Y-76707758D01*
X145894697Y-76919990D01*
X145501371Y-77312630D01*
X145415051Y-77520512D01*
X145330010Y-77314697D01*
X144937370Y-76921371D01*
X144424100Y-76708243D01*
X143868339Y-76707758D01*
X143354697Y-76919990D01*
X142961371Y-77312630D01*
X142950000Y-77340014D01*
X142950000Y-75700852D01*
X143353249Y-76104806D01*
X144688782Y-76659368D01*
X146134874Y-76660630D01*
X147471372Y-76108400D01*
X148494806Y-75086751D01*
X149049368Y-73751218D01*
X149050630Y-72305126D01*
X148498400Y-70968628D01*
X148090485Y-70560000D01*
X155561545Y-70560000D01*
X155435856Y-70912302D01*
X155435856Y-70912302D01*
G37*
X155435856Y-70912302D02*
X155463638Y-71467368D01*
X155622603Y-71851143D01*
X155864787Y-71920608D01*
X156665395Y-71120000D01*
X156651253Y-71105858D01*
X156830858Y-70926253D01*
X156845000Y-70940395D01*
X156859143Y-70926253D01*
X157038748Y-71105858D01*
X157024605Y-71120000D01*
X157825213Y-71920608D01*
X158067397Y-71851143D01*
X158117509Y-71710682D01*
X158199990Y-71910303D01*
X158592630Y-72303629D01*
X158800512Y-72389949D01*
X158594697Y-72474990D01*
X158201371Y-72867630D01*
X158115051Y-73075512D01*
X158030010Y-72869697D01*
X157637370Y-72476371D01*
X157445273Y-72396605D01*
X157576143Y-72342397D01*
X157645608Y-72100213D01*
X156845000Y-71299605D01*
X156044392Y-72100213D01*
X156113857Y-72342397D01*
X156254318Y-72392509D01*
X156054697Y-72474990D01*
X155661371Y-72867630D01*
X155448243Y-73380900D01*
X155447758Y-73936661D01*
X155659990Y-74450303D01*
X156052630Y-74843629D01*
X156565900Y-75056757D01*
X157121661Y-75057242D01*
X157635303Y-74845010D01*
X158028629Y-74452370D01*
X158114949Y-74244488D01*
X158199990Y-74450303D01*
X158431240Y-74681958D01*
X157958599Y-75154599D01*
X157793852Y-75401161D01*
X157736000Y-75692000D01*
X157736000Y-77551001D01*
X157548833Y-77550838D01*
X157205057Y-77692883D01*
X156941808Y-77955673D01*
X156891434Y-78076987D01*
X156351420Y-78617000D01*
X153588887Y-78617000D01*
X153589162Y-78300833D01*
X153539000Y-78179431D01*
X153539000Y-75490822D01*
X153588838Y-75370799D01*
X153589162Y-74998833D01*
X153447117Y-74655057D01*
X153184327Y-74391808D01*
X152840799Y-74249162D01*
X152468833Y-74248838D01*
X152125057Y-74390883D01*
X151861808Y-74653673D01*
X151719162Y-74997201D01*
X151718838Y-75369167D01*
X151769000Y-75490569D01*
X151769000Y-78179178D01*
X151719162Y-78299201D01*
X151718885Y-78617000D01*
X151690822Y-78617000D01*
X151570799Y-78567162D01*
X151198833Y-78566838D01*
X150855057Y-78708883D01*
X150591808Y-78971673D01*
X150449162Y-79315201D01*
X150448838Y-79687167D01*
X150590883Y-80030943D01*
X150853673Y-80294192D01*
X151197201Y-80436838D01*
X151569167Y-80437162D01*
X151690569Y-80387000D01*
X156717995Y-80387000D01*
X156718000Y-80387001D01*
X157000484Y-80330810D01*
X157056675Y-80319633D01*
X157343790Y-80127790D01*
X157736000Y-79735580D01*
X157736000Y-92649198D01*
X154845479Y-95539719D01*
X154717117Y-95229057D01*
X154684000Y-95195882D01*
X154684000Y-91694000D01*
X154695907Y-91694000D01*
X154808946Y-92262285D01*
X155130853Y-92744054D01*
X155612622Y-93065961D01*
X156180907Y-93179000D01*
X156239093Y-93179000D01*
X156807378Y-93065961D01*
X157289147Y-92744054D01*
X157611054Y-92262285D01*
X157724093Y-91694000D01*
X157611054Y-91125715D01*
X157289147Y-90643946D01*
X157247548Y-90616150D01*
X157295317Y-90607162D01*
X157511441Y-90468090D01*
X157656431Y-90255890D01*
X157707440Y-90004000D01*
X157707440Y-88304000D01*
X157663162Y-88068683D01*
X157524090Y-87852559D01*
X157311890Y-87707569D01*
X157060000Y-87656560D01*
X155360000Y-87656560D01*
X155124683Y-87700838D01*
X154908559Y-87839910D01*
X154763569Y-88052110D01*
X154712560Y-88304000D01*
X154712560Y-90004000D01*
X154756838Y-90239317D01*
X154895910Y-90455441D01*
X155108110Y-90600431D01*
X155175541Y-90614086D01*
X155130853Y-90643946D01*
X154808946Y-91125715D01*
X154695907Y-91694000D01*
X154684000Y-91694000D01*
X154684000Y-87684463D01*
X154716192Y-87652327D01*
X154858838Y-87308799D01*
X154859162Y-86936833D01*
X154717117Y-86593057D01*
X154454327Y-86329808D01*
X154110799Y-86187162D01*
X153738833Y-86186838D01*
X153668000Y-86216106D01*
X153668000Y-84328000D01*
X153610148Y-84037161D01*
X153445401Y-83790599D01*
X149762401Y-80107599D01*
X149515839Y-79942852D01*
X149225000Y-79885000D01*
X147882531Y-79885000D01*
X147870010Y-79854697D01*
X147477370Y-79461371D01*
X147269488Y-79375051D01*
X147475303Y-79290010D01*
X147868629Y-78897370D01*
X148081757Y-78384100D01*
X148082242Y-77828339D01*
X147870010Y-77314697D01*
X147477370Y-76921371D01*
X146964100Y-76708243D01*
X146408339Y-76707758D01*
X145894697Y-76919990D01*
X145501371Y-77312630D01*
X145415051Y-77520512D01*
X145330010Y-77314697D01*
X144937370Y-76921371D01*
X144424100Y-76708243D01*
X143868339Y-76707758D01*
X143354697Y-76919990D01*
X142961371Y-77312630D01*
X142950000Y-77340014D01*
X142950000Y-75700852D01*
X143353249Y-76104806D01*
X144688782Y-76659368D01*
X146134874Y-76660630D01*
X147471372Y-76108400D01*
X148494806Y-75086751D01*
X149049368Y-73751218D01*
X149050630Y-72305126D01*
X148498400Y-70968628D01*
X148090485Y-70560000D01*
X155561545Y-70560000D01*
X155435856Y-70912302D01*
G36*
X171375000Y-85230262D02*
X171315358Y-85164817D01*
X170790892Y-84918514D01*
X170561000Y-85039181D01*
X170561000Y-86233000D01*
X170581000Y-86233000D01*
X170581000Y-86487000D01*
X170561000Y-86487000D01*
X170561000Y-86507000D01*
X170307000Y-86507000D01*
X170307000Y-86487000D01*
X170287000Y-86487000D01*
X170287000Y-86233000D01*
X170307000Y-86233000D01*
X170307000Y-85039181D01*
X170077108Y-84918514D01*
X169795000Y-85050999D01*
X169795000Y-77978005D01*
X169795001Y-77978000D01*
X169727633Y-77639326D01*
X169727633Y-77639325D01*
X169535790Y-77352210D01*
X169535787Y-77352208D01*
X168843523Y-76659944D01*
X169629874Y-76660630D01*
X170966372Y-76108400D01*
X171375000Y-75700485D01*
X171375000Y-85230262D01*
X171375000Y-85230262D01*
G37*
X171375000Y-85230262D02*
X171315358Y-85164817D01*
X170790892Y-84918514D01*
X170561000Y-85039181D01*
X170561000Y-86233000D01*
X170581000Y-86233000D01*
X170581000Y-86487000D01*
X170561000Y-86487000D01*
X170561000Y-86507000D01*
X170307000Y-86507000D01*
X170307000Y-86487000D01*
X170287000Y-86487000D01*
X170287000Y-86233000D01*
X170307000Y-86233000D01*
X170307000Y-85039181D01*
X170077108Y-84918514D01*
X169795000Y-85050999D01*
X169795000Y-77978005D01*
X169795001Y-77978000D01*
X169727633Y-77639326D01*
X169727633Y-77639325D01*
X169535790Y-77352210D01*
X169535787Y-77352208D01*
X168843523Y-76659944D01*
X169629874Y-76660630D01*
X170966372Y-76108400D01*
X171375000Y-75700485D01*
X171375000Y-85230262D01*
G36*
X165830194Y-70963249D02*
X165275632Y-72298782D01*
X165274370Y-73744874D01*
X165826600Y-75081372D01*
X166848249Y-76104806D01*
X167258569Y-76275186D01*
X167101808Y-76431673D01*
X166959162Y-76775201D01*
X166958838Y-77147167D01*
X167100883Y-77490943D01*
X167363673Y-77754192D01*
X167484986Y-77804566D01*
X168025000Y-78344579D01*
X168025000Y-84491463D01*
X167826799Y-84409162D01*
X167454833Y-84408838D01*
X167111057Y-84550883D01*
X166847808Y-84813673D01*
X166837706Y-84838000D01*
X165272999Y-84838000D01*
X165273162Y-84650833D01*
X165223000Y-84529431D01*
X165223000Y-78792822D01*
X165272838Y-78672799D01*
X165273162Y-78300833D01*
X165131117Y-77957057D01*
X164868327Y-77693808D01*
X164524799Y-77551162D01*
X164152833Y-77550838D01*
X163809057Y-77692883D01*
X163545808Y-77955673D01*
X163403162Y-78299201D01*
X163402838Y-78671167D01*
X163453000Y-78792569D01*
X163453000Y-84529178D01*
X163403162Y-84649201D01*
X163402998Y-84838000D01*
X160274000Y-84838000D01*
X159983161Y-84895852D01*
X159795613Y-85021167D01*
X159764000Y-85042290D01*
X159764000Y-78038802D01*
X159905680Y-77897122D01*
X159951167Y-77897162D01*
X160294943Y-77755117D01*
X160558192Y-77492327D01*
X160700838Y-77148799D01*
X160701162Y-76776833D01*
X160559117Y-76433057D01*
X160296327Y-76169808D01*
X159952799Y-76027162D01*
X159580833Y-76026838D01*
X159256000Y-76161056D01*
X159256000Y-76006802D01*
X159318802Y-75944000D01*
X160727537Y-75944000D01*
X160759673Y-75976192D01*
X161103201Y-76118838D01*
X161475167Y-76119162D01*
X161818943Y-75977117D01*
X162082192Y-75714327D01*
X162224838Y-75370799D01*
X162225162Y-74998833D01*
X162083117Y-74655057D01*
X161820327Y-74391808D01*
X161476799Y-74249162D01*
X161104833Y-74248838D01*
X160761057Y-74390883D01*
X160727882Y-74424000D01*
X160580409Y-74424000D01*
X160781757Y-73939100D01*
X160782242Y-73383339D01*
X160570010Y-72869697D01*
X160177370Y-72476371D01*
X159969488Y-72390051D01*
X160175303Y-72305010D01*
X160568629Y-71912370D01*
X160781757Y-71399100D01*
X160782242Y-70843339D01*
X160665169Y-70560000D01*
X166234148Y-70560000D01*
X165830194Y-70963249D01*
X165830194Y-70963249D01*
G37*
X165830194Y-70963249D02*
X165275632Y-72298782D01*
X165274370Y-73744874D01*
X165826600Y-75081372D01*
X166848249Y-76104806D01*
X167258569Y-76275186D01*
X167101808Y-76431673D01*
X166959162Y-76775201D01*
X166958838Y-77147167D01*
X167100883Y-77490943D01*
X167363673Y-77754192D01*
X167484986Y-77804566D01*
X168025000Y-78344579D01*
X168025000Y-84491463D01*
X167826799Y-84409162D01*
X167454833Y-84408838D01*
X167111057Y-84550883D01*
X166847808Y-84813673D01*
X166837706Y-84838000D01*
X165272999Y-84838000D01*
X165273162Y-84650833D01*
X165223000Y-84529431D01*
X165223000Y-78792822D01*
X165272838Y-78672799D01*
X165273162Y-78300833D01*
X165131117Y-77957057D01*
X164868327Y-77693808D01*
X164524799Y-77551162D01*
X164152833Y-77550838D01*
X163809057Y-77692883D01*
X163545808Y-77955673D01*
X163403162Y-78299201D01*
X163402838Y-78671167D01*
X163453000Y-78792569D01*
X163453000Y-84529178D01*
X163403162Y-84649201D01*
X163402998Y-84838000D01*
X160274000Y-84838000D01*
X159983161Y-84895852D01*
X159795613Y-85021167D01*
X159764000Y-85042290D01*
X159764000Y-78038802D01*
X159905680Y-77897122D01*
X159951167Y-77897162D01*
X160294943Y-77755117D01*
X160558192Y-77492327D01*
X160700838Y-77148799D01*
X160701162Y-76776833D01*
X160559117Y-76433057D01*
X160296327Y-76169808D01*
X159952799Y-76027162D01*
X159580833Y-76026838D01*
X159256000Y-76161056D01*
X159256000Y-76006802D01*
X159318802Y-75944000D01*
X160727537Y-75944000D01*
X160759673Y-75976192D01*
X161103201Y-76118838D01*
X161475167Y-76119162D01*
X161818943Y-75977117D01*
X162082192Y-75714327D01*
X162224838Y-75370799D01*
X162225162Y-74998833D01*
X162083117Y-74655057D01*
X161820327Y-74391808D01*
X161476799Y-74249162D01*
X161104833Y-74248838D01*
X160761057Y-74390883D01*
X160727882Y-74424000D01*
X160580409Y-74424000D01*
X160781757Y-73939100D01*
X160782242Y-73383339D01*
X160570010Y-72869697D01*
X160177370Y-72476371D01*
X159969488Y-72390051D01*
X160175303Y-72305010D01*
X160568629Y-71912370D01*
X160781757Y-71399100D01*
X160782242Y-70843339D01*
X160665169Y-70560000D01*
X166234148Y-70560000D01*
X165830194Y-70963249D01*
G36*
X142959990Y-81435303D02*
X143352630Y-81828629D01*
X143544727Y-81908395D01*
X143413857Y-81962603D01*
X143344392Y-82204787D01*
X144145000Y-83005395D01*
X144159143Y-82991253D01*
X144338748Y-83170858D01*
X144324605Y-83185000D01*
X144338748Y-83199143D01*
X144159143Y-83378748D01*
X144145000Y-83364605D01*
X143344392Y-84165213D01*
X143413857Y-84407397D01*
X143554318Y-84457509D01*
X143354697Y-84539990D01*
X142961371Y-84932630D01*
X142950000Y-84960014D01*
X142950000Y-83924001D01*
X143164787Y-83985608D01*
X143965395Y-83185000D01*
X143164787Y-82384392D01*
X142950000Y-82445999D01*
X142950000Y-81411125D01*
X142959990Y-81435303D01*
X142959990Y-81435303D01*
G37*
X142959990Y-81435303D02*
X143352630Y-81828629D01*
X143544727Y-81908395D01*
X143413857Y-81962603D01*
X143344392Y-82204787D01*
X144145000Y-83005395D01*
X144159143Y-82991253D01*
X144338748Y-83170858D01*
X144324605Y-83185000D01*
X144338748Y-83199143D01*
X144159143Y-83378748D01*
X144145000Y-83364605D01*
X143344392Y-84165213D01*
X143413857Y-84407397D01*
X143554318Y-84457509D01*
X143354697Y-84539990D01*
X142961371Y-84932630D01*
X142950000Y-84960014D01*
X142950000Y-83924001D01*
X143164787Y-83985608D01*
X143965395Y-83185000D01*
X143164787Y-82384392D01*
X142950000Y-82445999D01*
X142950000Y-81411125D01*
X142959990Y-81435303D01*
M02*
