G04 #@! TF.GenerationSoftware,KiCad,Pcbnew,(5.0.0)*
G04 #@! TF.CreationDate,2018-10-15T11:55:30+01:00*
G04 #@! TF.ProjectId,Motor Shield,4D6F746F7220536869656C642E6B6963,rev?*
G04 #@! TF.SameCoordinates,Original*
G04 #@! TF.FileFunction,Soldermask,Bot*
G04 #@! TF.FilePolarity,Negative*
%FSLAX46Y46*%
G04 Gerber Fmt 4.6, Leading zero omitted, Abs format (unit mm)*
G04 Created by KiCad (PCBNEW (5.0.0)) date 10/15/18 11:55:30*
%MOMM*%
%LPD*%
G01*
G04 APERTURE LIST*
%ADD10C,1.300000*%
%ADD11C,2.400000*%
%ADD12R,2.400000X2.400000*%
%ADD13R,1.900000X1.900000*%
%ADD14O,1.900000X1.900000*%
%ADD15C,6.200000*%
%ADD16C,1.724000*%
G04 APERTURE END LIST*
D10*
G04 #@! TO.C,J4*
X167386000Y-106680000D03*
D11*
X169926000Y-106680000D03*
D10*
X167386000Y-104140000D03*
D12*
X169926000Y-104140000D03*
G04 #@! TD*
G04 #@! TO.C,J5*
X169926000Y-97790000D03*
D10*
X167386000Y-97790000D03*
D11*
X169926000Y-100330000D03*
D10*
X167386000Y-100330000D03*
G04 #@! TD*
D13*
G04 #@! TO.C,J3*
X156210000Y-91694000D03*
D14*
X156210000Y-89154000D03*
G04 #@! TD*
D13*
G04 #@! TO.C,J2*
X151130000Y-123698000D03*
D14*
X151130000Y-121158000D03*
G04 #@! TD*
D13*
G04 #@! TO.C,J6*
X170434000Y-93980000D03*
D14*
X170434000Y-91440000D03*
X170434000Y-88900000D03*
X170434000Y-86360000D03*
G04 #@! TD*
G04 #@! TO.C,J7*
X170434000Y-118110000D03*
X170434000Y-115570000D03*
X170434000Y-113030000D03*
D13*
X170434000Y-110490000D03*
G04 #@! TD*
D12*
G04 #@! TO.C,J1*
X156718000Y-71374000D03*
D10*
X156718000Y-73914000D03*
D11*
X159258000Y-71374000D03*
D10*
X159258000Y-73914000D03*
G04 #@! TD*
D15*
G04 #@! TO.C,U4*
X168910000Y-131572000D03*
X168910000Y-73152000D03*
X145415000Y-131572000D03*
X145415000Y-73152000D03*
D16*
X144145000Y-126492000D03*
X146685000Y-126492000D03*
X144145000Y-123952000D03*
X146685000Y-123952000D03*
X144145000Y-121412000D03*
X146685000Y-121412000D03*
X144145000Y-118872000D03*
X146685000Y-118872000D03*
X144145000Y-116332000D03*
X146685000Y-116332000D03*
X144145000Y-113792000D03*
X146685000Y-113792000D03*
X144145000Y-111252000D03*
X146685000Y-111252000D03*
X144145000Y-108712000D03*
X146685000Y-108712000D03*
X144145000Y-106172000D03*
X146685000Y-106172000D03*
X144145000Y-103632000D03*
X146685000Y-103632000D03*
X144145000Y-101092000D03*
X146685000Y-101092000D03*
X144145000Y-98552000D03*
X146685000Y-98552000D03*
X144145000Y-96012000D03*
X146685000Y-96012000D03*
X144145000Y-93472000D03*
X146685000Y-93472000D03*
X144145000Y-90932000D03*
X146685000Y-90932000D03*
X144145000Y-88392000D03*
X146685000Y-88392000D03*
X144145000Y-85852000D03*
X146685000Y-85852000D03*
X144145000Y-83312000D03*
X146685000Y-83312000D03*
X144145000Y-80772000D03*
X146685000Y-80772000D03*
X144145000Y-78232000D03*
X146685000Y-78232000D03*
G04 #@! TD*
M02*
