G04 #@! TF.GenerationSoftware,KiCad,Pcbnew,(5.0.0)*
G04 #@! TF.CreationDate,2018-11-19T15:01:22+00:00*
G04 #@! TF.ProjectId,Motor Shield,4D6F746F7220536869656C642E6B6963,rev?*
G04 #@! TF.SameCoordinates,Original*
G04 #@! TF.FileFunction,Copper,L2,Bot,Signal*
G04 #@! TF.FilePolarity,Positive*
%FSLAX46Y46*%
G04 Gerber Fmt 4.6, Leading zero omitted, Abs format (unit mm)*
G04 Created by KiCad (PCBNEW (5.0.0)) date 11/19/18 15:01:22*
%MOMM*%
%LPD*%
G01*
G04 APERTURE LIST*
G04 #@! TA.AperFunction,ComponentPad*
%ADD10C,6.000000*%
G04 #@! TD*
G04 #@! TA.AperFunction,ComponentPad*
%ADD11C,1.524000*%
G04 #@! TD*
G04 #@! TA.AperFunction,ComponentPad*
%ADD12C,2.200000*%
G04 #@! TD*
G04 #@! TA.AperFunction,ComponentPad*
%ADD13R,2.200000X2.200000*%
G04 #@! TD*
G04 #@! TA.AperFunction,ComponentPad*
%ADD14R,1.700000X1.700000*%
G04 #@! TD*
G04 #@! TA.AperFunction,ComponentPad*
%ADD15O,1.700000X1.700000*%
G04 #@! TD*
G04 #@! TA.AperFunction,ViaPad*
%ADD16C,0.600000*%
G04 #@! TD*
G04 #@! TA.AperFunction,Conductor*
%ADD17C,0.250000*%
G04 #@! TD*
G04 #@! TA.AperFunction,Conductor*
%ADD18C,0.500000*%
G04 #@! TD*
G04 #@! TA.AperFunction,Conductor*
%ADD19C,0.254000*%
G04 #@! TD*
G04 APERTURE END LIST*
D10*
G04 #@! TO.P,U4,*
G04 #@! TO.N,*
X168910000Y-73152000D03*
X168910000Y-131572000D03*
X145415000Y-73152000D03*
X145415000Y-131572000D03*
D11*
G04 #@! TO.P,U4,40*
G04 #@! TO.N,ICSP_CLK*
X144145000Y-78232000D03*
G04 #@! TO.P,U4,39*
G04 #@! TO.N,Net-(U4-Pad39)*
X146685000Y-78232000D03*
G04 #@! TO.P,U4,38*
G04 #@! TO.N,ICSP_DAT*
X144145000Y-80772000D03*
G04 #@! TO.P,U4,37*
G04 #@! TO.N,Net-(U4-Pad37)*
X146685000Y-80772000D03*
G04 #@! TO.P,U4,36*
G04 #@! TO.N,Net-(U4-Pad36)*
X144145000Y-83312000D03*
G04 #@! TO.P,U4,35*
G04 #@! TO.N,MCLR*
X146685000Y-83312000D03*
G04 #@! TO.P,U4,34*
G04 #@! TO.N,Net-(U4-Pad34)*
X144145000Y-85852000D03*
G04 #@! TO.P,U4,33*
G04 #@! TO.N,Net-(U4-Pad33)*
X146685000Y-85852000D03*
G04 #@! TO.P,U4,32*
G04 #@! TO.N,Net-(U4-Pad32)*
X144145000Y-88392000D03*
G04 #@! TO.P,U4,31*
G04 #@! TO.N,Net-(U4-Pad31)*
X146685000Y-88392000D03*
G04 #@! TO.P,U4,30*
G04 #@! TO.N,Net-(U4-Pad30)*
X144145000Y-90932000D03*
G04 #@! TO.P,U4,29*
G04 #@! TO.N,Net-(U4-Pad29)*
X146685000Y-90932000D03*
G04 #@! TO.P,U4,28*
G04 #@! TO.N,Net-(U4-Pad28)*
X144145000Y-93472000D03*
G04 #@! TO.P,U4,27*
G04 #@! TO.N,Net-(U4-Pad27)*
X146685000Y-93472000D03*
G04 #@! TO.P,U4,26*
G04 #@! TO.N,Net-(U4-Pad26)*
X144145000Y-96012000D03*
G04 #@! TO.P,U4,25*
G04 #@! TO.N,Net-(U4-Pad25)*
X146685000Y-96012000D03*
G04 #@! TO.P,U4,24*
G04 #@! TO.N,Net-(U4-Pad24)*
X144145000Y-98552000D03*
G04 #@! TO.P,U4,23*
G04 #@! TO.N,Net-(U4-Pad23)*
X146685000Y-98552000D03*
G04 #@! TO.P,U4,22*
G04 #@! TO.N,Net-(U4-Pad22)*
X144145000Y-101092000D03*
G04 #@! TO.P,U4,21*
G04 #@! TO.N,Net-(U4-Pad21)*
X146685000Y-101092000D03*
G04 #@! TO.P,U4,20*
G04 #@! TO.N,Net-(U4-Pad20)*
X144145000Y-103632000D03*
G04 #@! TO.P,U4,19*
G04 #@! TO.N,Net-(U4-Pad19)*
X146685000Y-103632000D03*
G04 #@! TO.P,U4,18*
G04 #@! TO.N,Net-(U4-Pad18)*
X144145000Y-106172000D03*
G04 #@! TO.P,U4,17*
G04 #@! TO.N,Net-(U4-Pad17)*
X146685000Y-106172000D03*
G04 #@! TO.P,U4,16*
G04 #@! TO.N,Net-(U4-Pad16)*
X144145000Y-108712000D03*
G04 #@! TO.P,U4,15*
G04 #@! TO.N,Net-(U4-Pad15)*
X146685000Y-108712000D03*
G04 #@! TO.P,U4,14*
G04 #@! TO.N,Net-(U4-Pad14)*
X144145000Y-111252000D03*
G04 #@! TO.P,U4,13*
G04 #@! TO.N,Net-(U4-Pad13)*
X146685000Y-111252000D03*
G04 #@! TO.P,U4,12*
G04 #@! TO.N,Net-(U4-Pad12)*
X144145000Y-113792000D03*
G04 #@! TO.P,U4,11*
G04 #@! TO.N,Net-(U4-Pad11)*
X146685000Y-113792000D03*
G04 #@! TO.P,U4,10*
G04 #@! TO.N,Net-(U4-Pad10)*
X144145000Y-116332000D03*
G04 #@! TO.P,U4,9*
G04 #@! TO.N,Net-(U4-Pad9)*
X146685000Y-116332000D03*
G04 #@! TO.P,U4,8*
G04 #@! TO.N,Net-(U4-Pad8)*
X144145000Y-118872000D03*
G04 #@! TO.P,U4,7*
G04 #@! TO.N,Net-(U4-Pad7)*
X146685000Y-118872000D03*
G04 #@! TO.P,U4,6*
G04 #@! TO.N,BAT-*
X144145000Y-121412000D03*
G04 #@! TO.P,U4,5*
G04 #@! TO.N,SCL*
X146685000Y-121412000D03*
G04 #@! TO.P,U4,4*
G04 #@! TO.N,Net-(U4-Pad4)*
X144145000Y-123952000D03*
G04 #@! TO.P,U4,3*
G04 #@! TO.N,SDA*
X146685000Y-123952000D03*
G04 #@! TO.P,U4,2*
G04 #@! TO.N,Net-(J3-Pad2)*
X144145000Y-126492000D03*
G04 #@! TO.P,U4,1*
G04 #@! TO.N,+3V3*
X146685000Y-126492000D03*
G04 #@! TD*
D12*
G04 #@! TO.P,J4,2*
G04 #@! TO.N,OUT3*
X168529000Y-103886000D03*
D13*
G04 #@! TO.P,J4,1*
G04 #@! TO.N,OUT4*
X168529000Y-106426000D03*
G04 #@! TD*
G04 #@! TO.P,J5,1*
G04 #@! TO.N,OUT2*
X168529000Y-100711000D03*
D12*
G04 #@! TO.P,J5,2*
G04 #@! TO.N,OUT1*
X168529000Y-98171000D03*
G04 #@! TD*
D14*
G04 #@! TO.P,J3,1*
G04 #@! TO.N,+5V*
X158750000Y-132969000D03*
D15*
G04 #@! TO.P,J3,2*
G04 #@! TO.N,Net-(J3-Pad2)*
X156210000Y-132969000D03*
G04 #@! TD*
D14*
G04 #@! TO.P,J6,1*
G04 #@! TO.N,+5V*
X170434000Y-93980000D03*
D15*
G04 #@! TO.P,J6,2*
G04 #@! TO.N,A1*
X170434000Y-91440000D03*
G04 #@! TO.P,J6,3*
G04 #@! TO.N,B1*
X170434000Y-88900000D03*
G04 #@! TO.P,J6,4*
G04 #@! TO.N,BAT-*
X170434000Y-86360000D03*
G04 #@! TD*
G04 #@! TO.P,J7,4*
G04 #@! TO.N,BAT-*
X170434000Y-118110000D03*
G04 #@! TO.P,J7,3*
G04 #@! TO.N,B2*
X170434000Y-115570000D03*
G04 #@! TO.P,J7,2*
G04 #@! TO.N,A2*
X170434000Y-113030000D03*
D14*
G04 #@! TO.P,J7,1*
G04 #@! TO.N,+5V*
X170434000Y-110490000D03*
G04 #@! TD*
D13*
G04 #@! TO.P,J1,1*
G04 #@! TO.N,BAT+*
X158750000Y-73279000D03*
D12*
G04 #@! TO.P,J1,2*
G04 #@! TO.N,BAT-*
X156210000Y-73279000D03*
G04 #@! TD*
D16*
G04 #@! TO.N,BAT-*
X162153600Y-94640400D03*
X162102800Y-91643200D03*
X161290000Y-99314000D03*
X152400000Y-95199200D03*
X155549600Y-106070400D03*
X154279600Y-109321600D03*
X153517600Y-123494800D03*
X154635200Y-118973600D03*
X157988000Y-122682000D03*
X154076400Y-128524000D03*
X151942800Y-128473200D03*
X154736800Y-113131600D03*
X161290000Y-112725200D03*
X161442400Y-109982000D03*
X151638000Y-85394800D03*
X157886400Y-84937600D03*
G04 #@! TO.N,OUT2*
X166370000Y-78384400D03*
G04 #@! TO.N,OUT4*
X161036000Y-126136400D03*
G04 #@! TO.N,OUT1*
X166725600Y-89560400D03*
G04 #@! TO.N,OUT3*
X162052000Y-116027200D03*
G04 #@! TO.N,DIR1*
X152501600Y-101041200D03*
X159867600Y-86969600D03*
G04 #@! TO.N,+3V3*
X161340800Y-89255600D03*
X156159200Y-98907600D03*
X158445200Y-98907600D03*
X165150800Y-119126000D03*
G04 #@! TO.N,EN1*
X152247600Y-103835200D03*
X162306000Y-78232000D03*
G04 #@! TO.N,PWM1*
X153619200Y-101092000D03*
X161239200Y-78181200D03*
G04 #@! TO.N,DIR2*
X150571200Y-100279200D03*
X163118800Y-119837200D03*
G04 #@! TO.N,PWM2*
X167132000Y-127609600D03*
X150469600Y-101295200D03*
G04 #@! TO.N,BAT-PROT+*
X152908000Y-87706200D03*
X152958800Y-90093800D03*
X155905200Y-114300000D03*
X151028400Y-123393200D03*
X159766000Y-93726000D03*
X158597600Y-97180400D03*
X159258000Y-108712000D03*
X159664400Y-115671600D03*
G04 #@! TO.N,+5V*
X165912800Y-129336800D03*
G04 #@! TO.N,A2*
X151384000Y-104444800D03*
X155803600Y-103581200D03*
G04 #@! TO.N,Net-(JP1-Pad2)*
X155448000Y-108000800D03*
X156972000Y-94640400D03*
X152654000Y-93370400D03*
X150571200Y-76403200D03*
G04 #@! TO.N,ERROR*
X163728400Y-119126000D03*
X156464000Y-119176800D03*
X162306000Y-89306400D03*
G04 #@! TD*
D17*
G04 #@! TO.N,BAT-*
X162153600Y-94640400D02*
X162102800Y-94589600D01*
X162102800Y-94589600D02*
X162102800Y-91643200D01*
X162153600Y-94640400D02*
X162153600Y-98450400D01*
X162153600Y-98450400D02*
X161290000Y-99314000D01*
X155549600Y-106070400D02*
X154279600Y-107340400D01*
X154279600Y-107340400D02*
X154279600Y-109321600D01*
X153517600Y-123494800D02*
X154635200Y-122377200D01*
X154635200Y-122377200D02*
X154635200Y-118973600D01*
X153517600Y-123494800D02*
X157175200Y-123494800D01*
X157175200Y-123494800D02*
X157988000Y-122682000D01*
X154076400Y-128524000D02*
X151993600Y-128524000D01*
X151993600Y-128524000D02*
X151942800Y-128473200D01*
X144145000Y-121412000D02*
X144145000Y-121437400D01*
X161290000Y-112725200D02*
X161442400Y-112572800D01*
X161442400Y-112572800D02*
X161442400Y-109982000D01*
X151638000Y-85394800D02*
X151688800Y-85445600D01*
X151688800Y-85445600D02*
X157378400Y-85445600D01*
X157378400Y-85445600D02*
X157886400Y-84937600D01*
D18*
G04 #@! TO.N,OUT2*
X166370000Y-78384400D02*
X166370000Y-88392000D01*
X166370000Y-88392000D02*
X165760400Y-89001600D01*
X165760400Y-97942400D02*
X168529000Y-100711000D01*
X165760400Y-89001600D02*
X165760400Y-97942400D01*
G04 #@! TO.N,OUT4*
X168529000Y-106426000D02*
X168529000Y-118643400D01*
X168529000Y-118643400D02*
X161036000Y-126136400D01*
G04 #@! TO.N,OUT1*
X168529000Y-98171000D02*
X167462200Y-98171000D01*
X167462200Y-98171000D02*
X166725600Y-97434400D01*
X166725600Y-97434400D02*
X166725600Y-89560400D01*
G04 #@! TO.N,OUT3*
X162052000Y-116027200D02*
X162915600Y-116027200D01*
X162915600Y-116027200D02*
X166268400Y-112674400D01*
X166268400Y-112674400D02*
X166268400Y-104394000D01*
X166776400Y-103886000D02*
X168529000Y-103886000D01*
X166268400Y-104394000D02*
X166776400Y-103886000D01*
D17*
G04 #@! TO.N,DIR1*
X152501600Y-101041200D02*
X154178000Y-99364800D01*
X154178000Y-99364800D02*
X154178000Y-90068400D01*
X154178000Y-90068400D02*
X157276800Y-86969600D01*
X157276800Y-86969600D02*
X159867600Y-86969600D01*
G04 #@! TO.N,+3V3*
X161340800Y-89255600D02*
X161086800Y-89255600D01*
X161086800Y-89255600D02*
X156159200Y-94183200D01*
X156159200Y-94183200D02*
X156159200Y-98907600D01*
X157784800Y-126492000D02*
X165150800Y-119126000D01*
X146685000Y-126492000D02*
X157784800Y-126492000D01*
X158445200Y-115976400D02*
X158445200Y-98907600D01*
X165150800Y-119126000D02*
X165150800Y-118262400D01*
X165150800Y-118262400D02*
X164236400Y-117348000D01*
X164236400Y-117348000D02*
X159816800Y-117348000D01*
X159816800Y-117348000D02*
X158445200Y-115976400D01*
G04 #@! TO.N,EN1*
X152247600Y-103835200D02*
X155498800Y-100584000D01*
X155498800Y-100584000D02*
X155498800Y-94030800D01*
X155498800Y-94030800D02*
X162306000Y-87223600D01*
X162306000Y-87223600D02*
X162306000Y-78232000D01*
G04 #@! TO.N,PWM1*
X153619200Y-101092000D02*
X154838400Y-99872800D01*
X154838400Y-99872800D02*
X154838400Y-93827600D01*
X154838400Y-93827600D02*
X161239200Y-87426800D01*
X161239200Y-87426800D02*
X161239200Y-78181200D01*
G04 #@! TO.N,DIR2*
X150571200Y-100279200D02*
X151180800Y-100888800D01*
X151180800Y-100888800D02*
X151180800Y-102108000D01*
X151180800Y-102108000D02*
X149860000Y-103428800D01*
X149860000Y-103428800D02*
X149860000Y-106730800D01*
X149860000Y-106730800D02*
X157022800Y-113893600D01*
X157022800Y-113893600D02*
X157022800Y-117449600D01*
X157022800Y-117449600D02*
X155651200Y-118821200D01*
X155651200Y-118821200D02*
X155651200Y-119634000D01*
X155651200Y-119634000D02*
X155854400Y-119837200D01*
X155854400Y-119837200D02*
X163118800Y-119837200D01*
G04 #@! TO.N,PWM2*
X145899010Y-127609600D02*
X167132000Y-127609600D01*
X149148800Y-102616000D02*
X149148800Y-124510800D01*
X150469600Y-101295200D02*
X149148800Y-102616000D01*
X149148800Y-124510800D02*
X148386800Y-125272800D01*
X148386800Y-125272800D02*
X145796000Y-125272800D01*
X145796000Y-125272800D02*
X145517305Y-125551495D01*
X145517305Y-127227895D02*
X145899010Y-127609600D01*
X145517305Y-125551495D02*
X145517305Y-127227895D01*
D18*
G04 #@! TO.N,BAT-PROT+*
X152908000Y-87706200D02*
X152908000Y-90043000D01*
X152908000Y-90043000D02*
X152958800Y-90093800D01*
X155905200Y-114300000D02*
X152908000Y-114300000D01*
X152908000Y-114300000D02*
X151028400Y-116179600D01*
X151028400Y-116179600D02*
X151028400Y-123393200D01*
X159766000Y-93726000D02*
X158597600Y-94894400D01*
X158597600Y-94894400D02*
X158597600Y-97180400D01*
X158597600Y-97180400D02*
X158597600Y-97536000D01*
X158597600Y-97536000D02*
X159258000Y-98196400D01*
X159258000Y-98196400D02*
X159258000Y-108712000D01*
X159258000Y-108712000D02*
X159258000Y-115265200D01*
X159258000Y-115265200D02*
X159664400Y-115671600D01*
D17*
G04 #@! TO.N,+5V*
X165912800Y-129336800D02*
X166928800Y-128320800D01*
X166928800Y-128320800D02*
X167386000Y-128320800D01*
X167386000Y-128320800D02*
X171653200Y-124053600D01*
X171653200Y-111709200D02*
X170434000Y-110490000D01*
X171653200Y-124053600D02*
X171653200Y-111709200D01*
G04 #@! TO.N,A2*
X151384000Y-104444800D02*
X151739600Y-104444800D01*
X151739600Y-104444800D02*
X151892000Y-104597200D01*
X154787600Y-104597200D02*
X151892000Y-104597200D01*
X155803600Y-103581200D02*
X154787600Y-104597200D01*
G04 #@! TO.N,Net-(J3-Pad2)*
X156210000Y-132969000D02*
X151968200Y-132969000D01*
X151968200Y-132969000D02*
X147066000Y-128066800D01*
X145719800Y-128066800D02*
X144145000Y-126492000D01*
X147066000Y-128066800D02*
X145719800Y-128066800D01*
G04 #@! TO.N,Net-(JP1-Pad2)*
X152654000Y-93370400D02*
X150571200Y-91287600D01*
X150571200Y-91287600D02*
X150571200Y-76403200D01*
X156870400Y-94742000D02*
X156972000Y-94640400D01*
X155448000Y-108000800D02*
X156870400Y-106578400D01*
X156870400Y-106578400D02*
X156870400Y-94742000D01*
G04 #@! TO.N,ERROR*
X163728400Y-119126000D02*
X163677600Y-119176800D01*
X163677600Y-119176800D02*
X156464000Y-119176800D01*
X157784800Y-117856000D02*
X156464000Y-119176800D01*
X157784800Y-94284800D02*
X157784800Y-117856000D01*
X162306000Y-89306400D02*
X162306000Y-89763600D01*
X162306000Y-89763600D02*
X157784800Y-94284800D01*
G04 #@! TD*
D19*
G04 #@! TO.N,BAT-*
G36*
X165772999Y-128401800D02*
X165726817Y-128401800D01*
X165383165Y-128544145D01*
X165120145Y-128807165D01*
X164977800Y-129150817D01*
X164977800Y-129522783D01*
X165120145Y-129866435D01*
X165383165Y-130129455D01*
X165545222Y-130196581D01*
X165275000Y-130848954D01*
X165275000Y-132295046D01*
X165828396Y-133631062D01*
X166209334Y-134012000D01*
X160209050Y-134012000D01*
X160247440Y-133819000D01*
X160247440Y-132119000D01*
X160198157Y-131871235D01*
X160057809Y-131661191D01*
X159847765Y-131520843D01*
X159600000Y-131471560D01*
X157900000Y-131471560D01*
X157652235Y-131520843D01*
X157442191Y-131661191D01*
X157301843Y-131871235D01*
X157292816Y-131916619D01*
X157280625Y-131898375D01*
X156789418Y-131570161D01*
X156356256Y-131484000D01*
X156063744Y-131484000D01*
X155630582Y-131570161D01*
X155139375Y-131898375D01*
X154931822Y-132209000D01*
X152283002Y-132209000D01*
X148443601Y-128369600D01*
X165805199Y-128369600D01*
X165772999Y-128401800D01*
X165772999Y-128401800D01*
G37*
X165772999Y-128401800D02*
X165726817Y-128401800D01*
X165383165Y-128544145D01*
X165120145Y-128807165D01*
X164977800Y-129150817D01*
X164977800Y-129522783D01*
X165120145Y-129866435D01*
X165383165Y-130129455D01*
X165545222Y-130196581D01*
X165275000Y-130848954D01*
X165275000Y-132295046D01*
X165828396Y-133631062D01*
X166209334Y-134012000D01*
X160209050Y-134012000D01*
X160247440Y-133819000D01*
X160247440Y-132119000D01*
X160198157Y-131871235D01*
X160057809Y-131661191D01*
X159847765Y-131520843D01*
X159600000Y-131471560D01*
X157900000Y-131471560D01*
X157652235Y-131520843D01*
X157442191Y-131661191D01*
X157301843Y-131871235D01*
X157292816Y-131916619D01*
X157280625Y-131898375D01*
X156789418Y-131570161D01*
X156356256Y-131484000D01*
X156063744Y-131484000D01*
X155630582Y-131570161D01*
X155139375Y-131898375D01*
X154931822Y-132209000D01*
X152283002Y-132209000D01*
X148443601Y-128369600D01*
X165805199Y-128369600D01*
X165772999Y-128401800D01*
G36*
X170561000Y-117983000D02*
X170581000Y-117983000D01*
X170581000Y-118237000D01*
X170561000Y-118237000D01*
X170561000Y-119430819D01*
X170790892Y-119551486D01*
X170893200Y-119503439D01*
X170893200Y-123738798D01*
X167738344Y-126893654D01*
X167661635Y-126816945D01*
X167317983Y-126674600D01*
X166946017Y-126674600D01*
X166602365Y-126816945D01*
X166569710Y-126849600D01*
X161645090Y-126849600D01*
X161828655Y-126666035D01*
X161878656Y-126545322D01*
X169093156Y-119330823D01*
X169167049Y-119281449D01*
X169220903Y-119200852D01*
X169297597Y-119086071D01*
X169321016Y-119051022D01*
X169552642Y-119305183D01*
X170077108Y-119551486D01*
X170307000Y-119430819D01*
X170307000Y-118237000D01*
X170287000Y-118237000D01*
X170287000Y-117983000D01*
X170307000Y-117983000D01*
X170307000Y-117963000D01*
X170561000Y-117963000D01*
X170561000Y-117983000D01*
X170561000Y-117983000D01*
G37*
X170561000Y-117983000D02*
X170581000Y-117983000D01*
X170581000Y-118237000D01*
X170561000Y-118237000D01*
X170561000Y-119430819D01*
X170790892Y-119551486D01*
X170893200Y-119503439D01*
X170893200Y-123738798D01*
X167738344Y-126893654D01*
X167661635Y-126816945D01*
X167317983Y-126674600D01*
X166946017Y-126674600D01*
X166602365Y-126816945D01*
X166569710Y-126849600D01*
X161645090Y-126849600D01*
X161828655Y-126666035D01*
X161878656Y-126545322D01*
X169093156Y-119330823D01*
X169167049Y-119281449D01*
X169220903Y-119200852D01*
X169297597Y-119086071D01*
X169321016Y-119051022D01*
X169552642Y-119305183D01*
X170077108Y-119551486D01*
X170307000Y-119430819D01*
X170307000Y-118237000D01*
X170287000Y-118237000D01*
X170287000Y-117983000D01*
X170307000Y-117983000D01*
X170307000Y-117963000D01*
X170561000Y-117963000D01*
X170561000Y-117983000D01*
G36*
X155469398Y-113415000D02*
X152995161Y-113415000D01*
X152908000Y-113397663D01*
X152820839Y-113415000D01*
X152820835Y-113415000D01*
X152562690Y-113466348D01*
X152343845Y-113612576D01*
X152343844Y-113612577D01*
X152269951Y-113661951D01*
X152220577Y-113735844D01*
X150464247Y-115492175D01*
X150390351Y-115541551D01*
X150194748Y-115834291D01*
X150143400Y-116092436D01*
X150143400Y-116092439D01*
X150126063Y-116179600D01*
X150143400Y-116266761D01*
X150143401Y-123086504D01*
X150093400Y-123207217D01*
X150093400Y-123579183D01*
X150235745Y-123922835D01*
X150498765Y-124185855D01*
X150842417Y-124328200D01*
X151214383Y-124328200D01*
X151558035Y-124185855D01*
X151821055Y-123922835D01*
X151963400Y-123579183D01*
X151963400Y-123207217D01*
X151913400Y-123086506D01*
X151913400Y-116546178D01*
X153274579Y-115185000D01*
X155598506Y-115185000D01*
X155719217Y-115235000D01*
X156091183Y-115235000D01*
X156262800Y-115163914D01*
X156262801Y-117134796D01*
X155166730Y-118230869D01*
X155103271Y-118273271D01*
X154935296Y-118524664D01*
X154891200Y-118746349D01*
X154891200Y-118746353D01*
X154876312Y-118821200D01*
X154891200Y-118896047D01*
X154891200Y-119559153D01*
X154876312Y-119634000D01*
X154891200Y-119708847D01*
X154891200Y-119708852D01*
X154935297Y-119930537D01*
X155022470Y-120061000D01*
X155103272Y-120181929D01*
X155166728Y-120224329D01*
X155264069Y-120321670D01*
X155306471Y-120385129D01*
X155557863Y-120553104D01*
X155779548Y-120597200D01*
X155779552Y-120597200D01*
X155854399Y-120612088D01*
X155929246Y-120597200D01*
X162556510Y-120597200D01*
X162580654Y-120621344D01*
X157469999Y-125732000D01*
X149002401Y-125732000D01*
X149633273Y-125101129D01*
X149696729Y-125058729D01*
X149751831Y-124976263D01*
X149864704Y-124807338D01*
X149877434Y-124743337D01*
X149908800Y-124585652D01*
X149908800Y-124585648D01*
X149923688Y-124510800D01*
X149908800Y-124435952D01*
X149908800Y-107854401D01*
X155469398Y-113415000D01*
X155469398Y-113415000D01*
G37*
X155469398Y-113415000D02*
X152995161Y-113415000D01*
X152908000Y-113397663D01*
X152820839Y-113415000D01*
X152820835Y-113415000D01*
X152562690Y-113466348D01*
X152343845Y-113612576D01*
X152343844Y-113612577D01*
X152269951Y-113661951D01*
X152220577Y-113735844D01*
X150464247Y-115492175D01*
X150390351Y-115541551D01*
X150194748Y-115834291D01*
X150143400Y-116092436D01*
X150143400Y-116092439D01*
X150126063Y-116179600D01*
X150143400Y-116266761D01*
X150143401Y-123086504D01*
X150093400Y-123207217D01*
X150093400Y-123579183D01*
X150235745Y-123922835D01*
X150498765Y-124185855D01*
X150842417Y-124328200D01*
X151214383Y-124328200D01*
X151558035Y-124185855D01*
X151821055Y-123922835D01*
X151963400Y-123579183D01*
X151963400Y-123207217D01*
X151913400Y-123086506D01*
X151913400Y-116546178D01*
X153274579Y-115185000D01*
X155598506Y-115185000D01*
X155719217Y-115235000D01*
X156091183Y-115235000D01*
X156262800Y-115163914D01*
X156262801Y-117134796D01*
X155166730Y-118230869D01*
X155103271Y-118273271D01*
X154935296Y-118524664D01*
X154891200Y-118746349D01*
X154891200Y-118746353D01*
X154876312Y-118821200D01*
X154891200Y-118896047D01*
X154891200Y-119559153D01*
X154876312Y-119634000D01*
X154891200Y-119708847D01*
X154891200Y-119708852D01*
X154935297Y-119930537D01*
X155022470Y-120061000D01*
X155103272Y-120181929D01*
X155166728Y-120224329D01*
X155264069Y-120321670D01*
X155306471Y-120385129D01*
X155557863Y-120553104D01*
X155779548Y-120597200D01*
X155779552Y-120597200D01*
X155854399Y-120612088D01*
X155929246Y-120597200D01*
X162556510Y-120597200D01*
X162580654Y-120621344D01*
X157469999Y-125732000D01*
X149002401Y-125732000D01*
X149633273Y-125101129D01*
X149696729Y-125058729D01*
X149751831Y-124976263D01*
X149864704Y-124807338D01*
X149877434Y-124743337D01*
X149908800Y-124585652D01*
X149908800Y-124585648D01*
X149923688Y-124510800D01*
X149908800Y-124435952D01*
X149908800Y-107854401D01*
X155469398Y-113415000D01*
G36*
X165828396Y-71092938D02*
X165275000Y-72428954D01*
X165275000Y-73875046D01*
X165828396Y-75211062D01*
X166850938Y-76233604D01*
X168186954Y-76787000D01*
X169633046Y-76787000D01*
X170969062Y-76233604D01*
X171350001Y-75852665D01*
X171350001Y-85202830D01*
X171315358Y-85164817D01*
X170790892Y-84918514D01*
X170561000Y-85039181D01*
X170561000Y-86233000D01*
X170581000Y-86233000D01*
X170581000Y-86487000D01*
X170561000Y-86487000D01*
X170561000Y-86507000D01*
X170307000Y-86507000D01*
X170307000Y-86487000D01*
X169113845Y-86487000D01*
X168992524Y-86716890D01*
X169162355Y-87126924D01*
X169552642Y-87555183D01*
X169682478Y-87616157D01*
X169363375Y-87829375D01*
X169035161Y-88320582D01*
X168919908Y-88900000D01*
X169035161Y-89479418D01*
X169363375Y-89970625D01*
X169661761Y-90170000D01*
X169363375Y-90369375D01*
X169035161Y-90860582D01*
X168919908Y-91440000D01*
X169035161Y-92019418D01*
X169363375Y-92510625D01*
X169381619Y-92522816D01*
X169336235Y-92531843D01*
X169126191Y-92672191D01*
X168985843Y-92882235D01*
X168936560Y-93130000D01*
X168936560Y-94830000D01*
X168985843Y-95077765D01*
X169126191Y-95287809D01*
X169336235Y-95428157D01*
X169584000Y-95477440D01*
X171284000Y-95477440D01*
X171350001Y-95464312D01*
X171350001Y-97004759D01*
X171304711Y-96986000D01*
X170833289Y-96986000D01*
X170397751Y-97166405D01*
X170110017Y-97454139D01*
X169999862Y-97188201D01*
X169511799Y-96700138D01*
X168874113Y-96436000D01*
X168183887Y-96436000D01*
X167610600Y-96673463D01*
X167610600Y-89867094D01*
X167660600Y-89746383D01*
X167660600Y-89374417D01*
X167518255Y-89030765D01*
X167255235Y-88767745D01*
X167198906Y-88744413D01*
X167203652Y-88737310D01*
X167205909Y-88725965D01*
X167255000Y-88479165D01*
X167255000Y-88479161D01*
X167272337Y-88392000D01*
X167255000Y-88304839D01*
X167255000Y-86003110D01*
X168992524Y-86003110D01*
X169113845Y-86233000D01*
X170307000Y-86233000D01*
X170307000Y-85039181D01*
X170077108Y-84918514D01*
X169552642Y-85164817D01*
X169162355Y-85593076D01*
X168992524Y-86003110D01*
X167255000Y-86003110D01*
X167255000Y-78691094D01*
X167305000Y-78570383D01*
X167305000Y-78198417D01*
X167162655Y-77854765D01*
X166899635Y-77591745D01*
X166555983Y-77449400D01*
X166184017Y-77449400D01*
X165840365Y-77591745D01*
X165577345Y-77854765D01*
X165435000Y-78198417D01*
X165435000Y-78570383D01*
X165485000Y-78691094D01*
X165485001Y-88025420D01*
X165196246Y-88314175D01*
X165122351Y-88363551D01*
X164926748Y-88656291D01*
X164875400Y-88914436D01*
X164875400Y-88914439D01*
X164858063Y-89001600D01*
X164875400Y-89088761D01*
X164875401Y-97855235D01*
X164858063Y-97942400D01*
X164926748Y-98287709D01*
X165072976Y-98506554D01*
X165072978Y-98506556D01*
X165122352Y-98580449D01*
X165196245Y-98629823D01*
X166781560Y-100215139D01*
X166781560Y-101811000D01*
X166830843Y-102058765D01*
X166971191Y-102268809D01*
X167181235Y-102409157D01*
X167429000Y-102458440D01*
X167502899Y-102458440D01*
X167058138Y-102903201D01*
X167017628Y-103001000D01*
X166863559Y-103001000D01*
X166776399Y-102983663D01*
X166689239Y-103001000D01*
X166689235Y-103001000D01*
X166431090Y-103052348D01*
X166138351Y-103247951D01*
X166088975Y-103321847D01*
X165704245Y-103706577D01*
X165630352Y-103755951D01*
X165580978Y-103829844D01*
X165580976Y-103829846D01*
X165434748Y-104048691D01*
X165366063Y-104394000D01*
X165383401Y-104481165D01*
X165383400Y-112307821D01*
X162549022Y-115142200D01*
X162358694Y-115142200D01*
X162237983Y-115092200D01*
X161866017Y-115092200D01*
X161522365Y-115234545D01*
X161259345Y-115497565D01*
X161117000Y-115841217D01*
X161117000Y-116213183D01*
X161259345Y-116556835D01*
X161290510Y-116588000D01*
X160131603Y-116588000D01*
X160062388Y-116518785D01*
X160194035Y-116464255D01*
X160457055Y-116201235D01*
X160599400Y-115857583D01*
X160599400Y-115485617D01*
X160457055Y-115141965D01*
X160194035Y-114878945D01*
X160143000Y-114857806D01*
X160143000Y-109018694D01*
X160193000Y-108897983D01*
X160193000Y-108526017D01*
X160143000Y-108405306D01*
X160143000Y-98283561D01*
X160160337Y-98196400D01*
X160143000Y-98109239D01*
X160143000Y-98109235D01*
X160091652Y-97851090D01*
X160043957Y-97779710D01*
X159945424Y-97632245D01*
X159945423Y-97632244D01*
X159896049Y-97558351D01*
X159822156Y-97508977D01*
X159532600Y-97219422D01*
X159532600Y-96994417D01*
X159482600Y-96873706D01*
X159482600Y-95260978D01*
X160174924Y-94568655D01*
X160295635Y-94518655D01*
X160558655Y-94255635D01*
X160701000Y-93911983D01*
X160701000Y-93540017D01*
X160558655Y-93196365D01*
X160295635Y-92933345D01*
X160235829Y-92908573D01*
X162790476Y-90353927D01*
X162853929Y-90311529D01*
X162896327Y-90248076D01*
X162896329Y-90248074D01*
X163021903Y-90060138D01*
X163021904Y-90060137D01*
X163058492Y-89876198D01*
X163098655Y-89836035D01*
X163241000Y-89492383D01*
X163241000Y-89120417D01*
X163098655Y-88776765D01*
X162835635Y-88513745D01*
X162491983Y-88371400D01*
X162233002Y-88371400D01*
X162790473Y-87813929D01*
X162853929Y-87771529D01*
X163021904Y-87520137D01*
X163066000Y-87298452D01*
X163066000Y-87298448D01*
X163080888Y-87223600D01*
X163066000Y-87148752D01*
X163066000Y-78794290D01*
X163098655Y-78761635D01*
X163241000Y-78417983D01*
X163241000Y-78046017D01*
X163098655Y-77702365D01*
X162835635Y-77439345D01*
X162491983Y-77297000D01*
X162120017Y-77297000D01*
X161806962Y-77426672D01*
X161768835Y-77388545D01*
X161425183Y-77246200D01*
X161053217Y-77246200D01*
X160709565Y-77388545D01*
X160446545Y-77651565D01*
X160304200Y-77995217D01*
X160304200Y-78367183D01*
X160446545Y-78710835D01*
X160479201Y-78743491D01*
X160479200Y-86258910D01*
X160397235Y-86176945D01*
X160053583Y-86034600D01*
X159681617Y-86034600D01*
X159337965Y-86176945D01*
X159305310Y-86209600D01*
X157351647Y-86209600D01*
X157276800Y-86194712D01*
X157201953Y-86209600D01*
X157201948Y-86209600D01*
X156980263Y-86253696D01*
X156728871Y-86421671D01*
X156686471Y-86485127D01*
X153793000Y-89378599D01*
X153793000Y-88012894D01*
X153843000Y-87892183D01*
X153843000Y-87520217D01*
X153700655Y-87176565D01*
X153437635Y-86913545D01*
X153093983Y-86771200D01*
X152722017Y-86771200D01*
X152378365Y-86913545D01*
X152115345Y-87176565D01*
X151973000Y-87520217D01*
X151973000Y-87892183D01*
X152023000Y-88012894D01*
X152023001Y-89955835D01*
X152005663Y-90043000D01*
X152023800Y-90134182D01*
X152023800Y-90279783D01*
X152166145Y-90623435D01*
X152429165Y-90886455D01*
X152772817Y-91028800D01*
X153144783Y-91028800D01*
X153418001Y-90915630D01*
X153418001Y-92812111D01*
X153183635Y-92577745D01*
X152839983Y-92435400D01*
X152793802Y-92435400D01*
X151331200Y-90972799D01*
X151331200Y-76965490D01*
X151363855Y-76932835D01*
X151506200Y-76589183D01*
X151506200Y-76217217D01*
X151363855Y-75873565D01*
X151100835Y-75610545D01*
X150757183Y-75468200D01*
X150385217Y-75468200D01*
X150041565Y-75610545D01*
X149778545Y-75873565D01*
X149636200Y-76217217D01*
X149636200Y-76589183D01*
X149778545Y-76932835D01*
X149811201Y-76965491D01*
X149811200Y-91212753D01*
X149796312Y-91287600D01*
X149811200Y-91362447D01*
X149811200Y-91362451D01*
X149855296Y-91584136D01*
X150023271Y-91835529D01*
X150086730Y-91877931D01*
X151719000Y-93510202D01*
X151719000Y-93556383D01*
X151861345Y-93900035D01*
X152124365Y-94163055D01*
X152468017Y-94305400D01*
X152839983Y-94305400D01*
X153183635Y-94163055D01*
X153418001Y-93928689D01*
X153418000Y-99049998D01*
X152361799Y-100106200D01*
X152315617Y-100106200D01*
X151971965Y-100248545D01*
X151789175Y-100431335D01*
X151728729Y-100340871D01*
X151665273Y-100298471D01*
X151506200Y-100139398D01*
X151506200Y-100093217D01*
X151363855Y-99749565D01*
X151100835Y-99486545D01*
X150757183Y-99344200D01*
X150385217Y-99344200D01*
X150041565Y-99486545D01*
X149778545Y-99749565D01*
X149636200Y-100093217D01*
X149636200Y-100465183D01*
X149736114Y-100706396D01*
X149676945Y-100765565D01*
X149534600Y-101109217D01*
X149534600Y-101155398D01*
X148664330Y-102025669D01*
X148600871Y-102068071D01*
X148432896Y-102319464D01*
X148388800Y-102541149D01*
X148388800Y-102541153D01*
X148373912Y-102616000D01*
X148388800Y-102690847D01*
X148388801Y-124195997D01*
X148071999Y-124512800D01*
X147964811Y-124512800D01*
X148082000Y-124229881D01*
X148082000Y-123674119D01*
X147869320Y-123160663D01*
X147476337Y-122767680D01*
X147269487Y-122682000D01*
X147476337Y-122596320D01*
X147869320Y-122203337D01*
X148082000Y-121689881D01*
X148082000Y-121134119D01*
X147869320Y-120620663D01*
X147476337Y-120227680D01*
X147269487Y-120142000D01*
X147476337Y-120056320D01*
X147869320Y-119663337D01*
X148082000Y-119149881D01*
X148082000Y-118594119D01*
X147869320Y-118080663D01*
X147476337Y-117687680D01*
X147269487Y-117602000D01*
X147476337Y-117516320D01*
X147869320Y-117123337D01*
X148082000Y-116609881D01*
X148082000Y-116054119D01*
X147869320Y-115540663D01*
X147476337Y-115147680D01*
X147269487Y-115062000D01*
X147476337Y-114976320D01*
X147869320Y-114583337D01*
X148082000Y-114069881D01*
X148082000Y-113514119D01*
X147869320Y-113000663D01*
X147476337Y-112607680D01*
X147269487Y-112522000D01*
X147476337Y-112436320D01*
X147869320Y-112043337D01*
X148082000Y-111529881D01*
X148082000Y-110974119D01*
X147869320Y-110460663D01*
X147476337Y-110067680D01*
X147269487Y-109982000D01*
X147476337Y-109896320D01*
X147869320Y-109503337D01*
X148082000Y-108989881D01*
X148082000Y-108434119D01*
X147869320Y-107920663D01*
X147476337Y-107527680D01*
X147269487Y-107442000D01*
X147476337Y-107356320D01*
X147869320Y-106963337D01*
X148082000Y-106449881D01*
X148082000Y-105894119D01*
X147869320Y-105380663D01*
X147476337Y-104987680D01*
X147269487Y-104902000D01*
X147476337Y-104816320D01*
X147869320Y-104423337D01*
X148082000Y-103909881D01*
X148082000Y-103354119D01*
X147869320Y-102840663D01*
X147476337Y-102447680D01*
X147269487Y-102362000D01*
X147476337Y-102276320D01*
X147869320Y-101883337D01*
X148082000Y-101369881D01*
X148082000Y-100814119D01*
X147869320Y-100300663D01*
X147476337Y-99907680D01*
X147269487Y-99822000D01*
X147476337Y-99736320D01*
X147869320Y-99343337D01*
X148082000Y-98829881D01*
X148082000Y-98274119D01*
X147869320Y-97760663D01*
X147476337Y-97367680D01*
X147269487Y-97282000D01*
X147476337Y-97196320D01*
X147869320Y-96803337D01*
X148082000Y-96289881D01*
X148082000Y-95734119D01*
X147869320Y-95220663D01*
X147476337Y-94827680D01*
X147269487Y-94742000D01*
X147476337Y-94656320D01*
X147869320Y-94263337D01*
X148082000Y-93749881D01*
X148082000Y-93194119D01*
X147869320Y-92680663D01*
X147476337Y-92287680D01*
X147269487Y-92202000D01*
X147476337Y-92116320D01*
X147869320Y-91723337D01*
X148082000Y-91209881D01*
X148082000Y-90654119D01*
X147869320Y-90140663D01*
X147476337Y-89747680D01*
X147269487Y-89662000D01*
X147476337Y-89576320D01*
X147869320Y-89183337D01*
X148082000Y-88669881D01*
X148082000Y-88114119D01*
X147869320Y-87600663D01*
X147476337Y-87207680D01*
X147269487Y-87122000D01*
X147476337Y-87036320D01*
X147869320Y-86643337D01*
X148082000Y-86129881D01*
X148082000Y-85574119D01*
X147869320Y-85060663D01*
X147476337Y-84667680D01*
X147269487Y-84582000D01*
X147476337Y-84496320D01*
X147869320Y-84103337D01*
X148082000Y-83589881D01*
X148082000Y-83034119D01*
X147869320Y-82520663D01*
X147476337Y-82127680D01*
X147269487Y-82042000D01*
X147476337Y-81956320D01*
X147869320Y-81563337D01*
X148082000Y-81049881D01*
X148082000Y-80494119D01*
X147869320Y-79980663D01*
X147476337Y-79587680D01*
X147269487Y-79502000D01*
X147476337Y-79416320D01*
X147869320Y-79023337D01*
X148082000Y-78509881D01*
X148082000Y-77954119D01*
X147869320Y-77440663D01*
X147476337Y-77047680D01*
X146962881Y-76835000D01*
X146407119Y-76835000D01*
X145893663Y-77047680D01*
X145500680Y-77440663D01*
X145415000Y-77647513D01*
X145329320Y-77440663D01*
X144936337Y-77047680D01*
X144422881Y-76835000D01*
X143867119Y-76835000D01*
X143353663Y-77047680D01*
X142975000Y-77426343D01*
X142975000Y-75852666D01*
X143355938Y-76233604D01*
X144691954Y-76787000D01*
X146138046Y-76787000D01*
X147474062Y-76233604D01*
X148496604Y-75211062D01*
X149050000Y-73875046D01*
X149050000Y-72990593D01*
X154464677Y-72990593D01*
X154487164Y-73680453D01*
X154707901Y-74213359D01*
X154985132Y-74324263D01*
X156030395Y-73279000D01*
X154985132Y-72233737D01*
X154707901Y-72344641D01*
X154464677Y-72990593D01*
X149050000Y-72990593D01*
X149050000Y-72428954D01*
X148496604Y-71092938D01*
X148136048Y-70732382D01*
X155025000Y-70726519D01*
X155025000Y-70974711D01*
X155205405Y-71410249D01*
X155485239Y-71690083D01*
X155275641Y-71776901D01*
X155164737Y-72054132D01*
X156210000Y-73099395D01*
X156224143Y-73085253D01*
X156403748Y-73264858D01*
X156389605Y-73279000D01*
X156403748Y-73293143D01*
X156224143Y-73472748D01*
X156210000Y-73458605D01*
X155164737Y-74503868D01*
X155275641Y-74781099D01*
X155921593Y-75024323D01*
X156611453Y-75001836D01*
X157144359Y-74781099D01*
X157148331Y-74771169D01*
X157192191Y-74836809D01*
X157402235Y-74977157D01*
X157650000Y-75026440D01*
X159850000Y-75026440D01*
X160097765Y-74977157D01*
X160307809Y-74836809D01*
X160448157Y-74626765D01*
X160497440Y-74379000D01*
X160497440Y-72179000D01*
X160448157Y-71931235D01*
X160307809Y-71721191D01*
X160097765Y-71580843D01*
X159850000Y-71531560D01*
X159633284Y-71531560D01*
X159754595Y-71410249D01*
X159935000Y-70974711D01*
X159935000Y-70722340D01*
X166204329Y-70717005D01*
X165828396Y-71092938D01*
X165828396Y-71092938D01*
G37*
X165828396Y-71092938D02*
X165275000Y-72428954D01*
X165275000Y-73875046D01*
X165828396Y-75211062D01*
X166850938Y-76233604D01*
X168186954Y-76787000D01*
X169633046Y-76787000D01*
X170969062Y-76233604D01*
X171350001Y-75852665D01*
X171350001Y-85202830D01*
X171315358Y-85164817D01*
X170790892Y-84918514D01*
X170561000Y-85039181D01*
X170561000Y-86233000D01*
X170581000Y-86233000D01*
X170581000Y-86487000D01*
X170561000Y-86487000D01*
X170561000Y-86507000D01*
X170307000Y-86507000D01*
X170307000Y-86487000D01*
X169113845Y-86487000D01*
X168992524Y-86716890D01*
X169162355Y-87126924D01*
X169552642Y-87555183D01*
X169682478Y-87616157D01*
X169363375Y-87829375D01*
X169035161Y-88320582D01*
X168919908Y-88900000D01*
X169035161Y-89479418D01*
X169363375Y-89970625D01*
X169661761Y-90170000D01*
X169363375Y-90369375D01*
X169035161Y-90860582D01*
X168919908Y-91440000D01*
X169035161Y-92019418D01*
X169363375Y-92510625D01*
X169381619Y-92522816D01*
X169336235Y-92531843D01*
X169126191Y-92672191D01*
X168985843Y-92882235D01*
X168936560Y-93130000D01*
X168936560Y-94830000D01*
X168985843Y-95077765D01*
X169126191Y-95287809D01*
X169336235Y-95428157D01*
X169584000Y-95477440D01*
X171284000Y-95477440D01*
X171350001Y-95464312D01*
X171350001Y-97004759D01*
X171304711Y-96986000D01*
X170833289Y-96986000D01*
X170397751Y-97166405D01*
X170110017Y-97454139D01*
X169999862Y-97188201D01*
X169511799Y-96700138D01*
X168874113Y-96436000D01*
X168183887Y-96436000D01*
X167610600Y-96673463D01*
X167610600Y-89867094D01*
X167660600Y-89746383D01*
X167660600Y-89374417D01*
X167518255Y-89030765D01*
X167255235Y-88767745D01*
X167198906Y-88744413D01*
X167203652Y-88737310D01*
X167205909Y-88725965D01*
X167255000Y-88479165D01*
X167255000Y-88479161D01*
X167272337Y-88392000D01*
X167255000Y-88304839D01*
X167255000Y-86003110D01*
X168992524Y-86003110D01*
X169113845Y-86233000D01*
X170307000Y-86233000D01*
X170307000Y-85039181D01*
X170077108Y-84918514D01*
X169552642Y-85164817D01*
X169162355Y-85593076D01*
X168992524Y-86003110D01*
X167255000Y-86003110D01*
X167255000Y-78691094D01*
X167305000Y-78570383D01*
X167305000Y-78198417D01*
X167162655Y-77854765D01*
X166899635Y-77591745D01*
X166555983Y-77449400D01*
X166184017Y-77449400D01*
X165840365Y-77591745D01*
X165577345Y-77854765D01*
X165435000Y-78198417D01*
X165435000Y-78570383D01*
X165485000Y-78691094D01*
X165485001Y-88025420D01*
X165196246Y-88314175D01*
X165122351Y-88363551D01*
X164926748Y-88656291D01*
X164875400Y-88914436D01*
X164875400Y-88914439D01*
X164858063Y-89001600D01*
X164875400Y-89088761D01*
X164875401Y-97855235D01*
X164858063Y-97942400D01*
X164926748Y-98287709D01*
X165072976Y-98506554D01*
X165072978Y-98506556D01*
X165122352Y-98580449D01*
X165196245Y-98629823D01*
X166781560Y-100215139D01*
X166781560Y-101811000D01*
X166830843Y-102058765D01*
X166971191Y-102268809D01*
X167181235Y-102409157D01*
X167429000Y-102458440D01*
X167502899Y-102458440D01*
X167058138Y-102903201D01*
X167017628Y-103001000D01*
X166863559Y-103001000D01*
X166776399Y-102983663D01*
X166689239Y-103001000D01*
X166689235Y-103001000D01*
X166431090Y-103052348D01*
X166138351Y-103247951D01*
X166088975Y-103321847D01*
X165704245Y-103706577D01*
X165630352Y-103755951D01*
X165580978Y-103829844D01*
X165580976Y-103829846D01*
X165434748Y-104048691D01*
X165366063Y-104394000D01*
X165383401Y-104481165D01*
X165383400Y-112307821D01*
X162549022Y-115142200D01*
X162358694Y-115142200D01*
X162237983Y-115092200D01*
X161866017Y-115092200D01*
X161522365Y-115234545D01*
X161259345Y-115497565D01*
X161117000Y-115841217D01*
X161117000Y-116213183D01*
X161259345Y-116556835D01*
X161290510Y-116588000D01*
X160131603Y-116588000D01*
X160062388Y-116518785D01*
X160194035Y-116464255D01*
X160457055Y-116201235D01*
X160599400Y-115857583D01*
X160599400Y-115485617D01*
X160457055Y-115141965D01*
X160194035Y-114878945D01*
X160143000Y-114857806D01*
X160143000Y-109018694D01*
X160193000Y-108897983D01*
X160193000Y-108526017D01*
X160143000Y-108405306D01*
X160143000Y-98283561D01*
X160160337Y-98196400D01*
X160143000Y-98109239D01*
X160143000Y-98109235D01*
X160091652Y-97851090D01*
X160043957Y-97779710D01*
X159945424Y-97632245D01*
X159945423Y-97632244D01*
X159896049Y-97558351D01*
X159822156Y-97508977D01*
X159532600Y-97219422D01*
X159532600Y-96994417D01*
X159482600Y-96873706D01*
X159482600Y-95260978D01*
X160174924Y-94568655D01*
X160295635Y-94518655D01*
X160558655Y-94255635D01*
X160701000Y-93911983D01*
X160701000Y-93540017D01*
X160558655Y-93196365D01*
X160295635Y-92933345D01*
X160235829Y-92908573D01*
X162790476Y-90353927D01*
X162853929Y-90311529D01*
X162896327Y-90248076D01*
X162896329Y-90248074D01*
X163021903Y-90060138D01*
X163021904Y-90060137D01*
X163058492Y-89876198D01*
X163098655Y-89836035D01*
X163241000Y-89492383D01*
X163241000Y-89120417D01*
X163098655Y-88776765D01*
X162835635Y-88513745D01*
X162491983Y-88371400D01*
X162233002Y-88371400D01*
X162790473Y-87813929D01*
X162853929Y-87771529D01*
X163021904Y-87520137D01*
X163066000Y-87298452D01*
X163066000Y-87298448D01*
X163080888Y-87223600D01*
X163066000Y-87148752D01*
X163066000Y-78794290D01*
X163098655Y-78761635D01*
X163241000Y-78417983D01*
X163241000Y-78046017D01*
X163098655Y-77702365D01*
X162835635Y-77439345D01*
X162491983Y-77297000D01*
X162120017Y-77297000D01*
X161806962Y-77426672D01*
X161768835Y-77388545D01*
X161425183Y-77246200D01*
X161053217Y-77246200D01*
X160709565Y-77388545D01*
X160446545Y-77651565D01*
X160304200Y-77995217D01*
X160304200Y-78367183D01*
X160446545Y-78710835D01*
X160479201Y-78743491D01*
X160479200Y-86258910D01*
X160397235Y-86176945D01*
X160053583Y-86034600D01*
X159681617Y-86034600D01*
X159337965Y-86176945D01*
X159305310Y-86209600D01*
X157351647Y-86209600D01*
X157276800Y-86194712D01*
X157201953Y-86209600D01*
X157201948Y-86209600D01*
X156980263Y-86253696D01*
X156728871Y-86421671D01*
X156686471Y-86485127D01*
X153793000Y-89378599D01*
X153793000Y-88012894D01*
X153843000Y-87892183D01*
X153843000Y-87520217D01*
X153700655Y-87176565D01*
X153437635Y-86913545D01*
X153093983Y-86771200D01*
X152722017Y-86771200D01*
X152378365Y-86913545D01*
X152115345Y-87176565D01*
X151973000Y-87520217D01*
X151973000Y-87892183D01*
X152023000Y-88012894D01*
X152023001Y-89955835D01*
X152005663Y-90043000D01*
X152023800Y-90134182D01*
X152023800Y-90279783D01*
X152166145Y-90623435D01*
X152429165Y-90886455D01*
X152772817Y-91028800D01*
X153144783Y-91028800D01*
X153418001Y-90915630D01*
X153418001Y-92812111D01*
X153183635Y-92577745D01*
X152839983Y-92435400D01*
X152793802Y-92435400D01*
X151331200Y-90972799D01*
X151331200Y-76965490D01*
X151363855Y-76932835D01*
X151506200Y-76589183D01*
X151506200Y-76217217D01*
X151363855Y-75873565D01*
X151100835Y-75610545D01*
X150757183Y-75468200D01*
X150385217Y-75468200D01*
X150041565Y-75610545D01*
X149778545Y-75873565D01*
X149636200Y-76217217D01*
X149636200Y-76589183D01*
X149778545Y-76932835D01*
X149811201Y-76965491D01*
X149811200Y-91212753D01*
X149796312Y-91287600D01*
X149811200Y-91362447D01*
X149811200Y-91362451D01*
X149855296Y-91584136D01*
X150023271Y-91835529D01*
X150086730Y-91877931D01*
X151719000Y-93510202D01*
X151719000Y-93556383D01*
X151861345Y-93900035D01*
X152124365Y-94163055D01*
X152468017Y-94305400D01*
X152839983Y-94305400D01*
X153183635Y-94163055D01*
X153418001Y-93928689D01*
X153418000Y-99049998D01*
X152361799Y-100106200D01*
X152315617Y-100106200D01*
X151971965Y-100248545D01*
X151789175Y-100431335D01*
X151728729Y-100340871D01*
X151665273Y-100298471D01*
X151506200Y-100139398D01*
X151506200Y-100093217D01*
X151363855Y-99749565D01*
X151100835Y-99486545D01*
X150757183Y-99344200D01*
X150385217Y-99344200D01*
X150041565Y-99486545D01*
X149778545Y-99749565D01*
X149636200Y-100093217D01*
X149636200Y-100465183D01*
X149736114Y-100706396D01*
X149676945Y-100765565D01*
X149534600Y-101109217D01*
X149534600Y-101155398D01*
X148664330Y-102025669D01*
X148600871Y-102068071D01*
X148432896Y-102319464D01*
X148388800Y-102541149D01*
X148388800Y-102541153D01*
X148373912Y-102616000D01*
X148388800Y-102690847D01*
X148388801Y-124195997D01*
X148071999Y-124512800D01*
X147964811Y-124512800D01*
X148082000Y-124229881D01*
X148082000Y-123674119D01*
X147869320Y-123160663D01*
X147476337Y-122767680D01*
X147269487Y-122682000D01*
X147476337Y-122596320D01*
X147869320Y-122203337D01*
X148082000Y-121689881D01*
X148082000Y-121134119D01*
X147869320Y-120620663D01*
X147476337Y-120227680D01*
X147269487Y-120142000D01*
X147476337Y-120056320D01*
X147869320Y-119663337D01*
X148082000Y-119149881D01*
X148082000Y-118594119D01*
X147869320Y-118080663D01*
X147476337Y-117687680D01*
X147269487Y-117602000D01*
X147476337Y-117516320D01*
X147869320Y-117123337D01*
X148082000Y-116609881D01*
X148082000Y-116054119D01*
X147869320Y-115540663D01*
X147476337Y-115147680D01*
X147269487Y-115062000D01*
X147476337Y-114976320D01*
X147869320Y-114583337D01*
X148082000Y-114069881D01*
X148082000Y-113514119D01*
X147869320Y-113000663D01*
X147476337Y-112607680D01*
X147269487Y-112522000D01*
X147476337Y-112436320D01*
X147869320Y-112043337D01*
X148082000Y-111529881D01*
X148082000Y-110974119D01*
X147869320Y-110460663D01*
X147476337Y-110067680D01*
X147269487Y-109982000D01*
X147476337Y-109896320D01*
X147869320Y-109503337D01*
X148082000Y-108989881D01*
X148082000Y-108434119D01*
X147869320Y-107920663D01*
X147476337Y-107527680D01*
X147269487Y-107442000D01*
X147476337Y-107356320D01*
X147869320Y-106963337D01*
X148082000Y-106449881D01*
X148082000Y-105894119D01*
X147869320Y-105380663D01*
X147476337Y-104987680D01*
X147269487Y-104902000D01*
X147476337Y-104816320D01*
X147869320Y-104423337D01*
X148082000Y-103909881D01*
X148082000Y-103354119D01*
X147869320Y-102840663D01*
X147476337Y-102447680D01*
X147269487Y-102362000D01*
X147476337Y-102276320D01*
X147869320Y-101883337D01*
X148082000Y-101369881D01*
X148082000Y-100814119D01*
X147869320Y-100300663D01*
X147476337Y-99907680D01*
X147269487Y-99822000D01*
X147476337Y-99736320D01*
X147869320Y-99343337D01*
X148082000Y-98829881D01*
X148082000Y-98274119D01*
X147869320Y-97760663D01*
X147476337Y-97367680D01*
X147269487Y-97282000D01*
X147476337Y-97196320D01*
X147869320Y-96803337D01*
X148082000Y-96289881D01*
X148082000Y-95734119D01*
X147869320Y-95220663D01*
X147476337Y-94827680D01*
X147269487Y-94742000D01*
X147476337Y-94656320D01*
X147869320Y-94263337D01*
X148082000Y-93749881D01*
X148082000Y-93194119D01*
X147869320Y-92680663D01*
X147476337Y-92287680D01*
X147269487Y-92202000D01*
X147476337Y-92116320D01*
X147869320Y-91723337D01*
X148082000Y-91209881D01*
X148082000Y-90654119D01*
X147869320Y-90140663D01*
X147476337Y-89747680D01*
X147269487Y-89662000D01*
X147476337Y-89576320D01*
X147869320Y-89183337D01*
X148082000Y-88669881D01*
X148082000Y-88114119D01*
X147869320Y-87600663D01*
X147476337Y-87207680D01*
X147269487Y-87122000D01*
X147476337Y-87036320D01*
X147869320Y-86643337D01*
X148082000Y-86129881D01*
X148082000Y-85574119D01*
X147869320Y-85060663D01*
X147476337Y-84667680D01*
X147269487Y-84582000D01*
X147476337Y-84496320D01*
X147869320Y-84103337D01*
X148082000Y-83589881D01*
X148082000Y-83034119D01*
X147869320Y-82520663D01*
X147476337Y-82127680D01*
X147269487Y-82042000D01*
X147476337Y-81956320D01*
X147869320Y-81563337D01*
X148082000Y-81049881D01*
X148082000Y-80494119D01*
X147869320Y-79980663D01*
X147476337Y-79587680D01*
X147269487Y-79502000D01*
X147476337Y-79416320D01*
X147869320Y-79023337D01*
X148082000Y-78509881D01*
X148082000Y-77954119D01*
X147869320Y-77440663D01*
X147476337Y-77047680D01*
X146962881Y-76835000D01*
X146407119Y-76835000D01*
X145893663Y-77047680D01*
X145500680Y-77440663D01*
X145415000Y-77647513D01*
X145329320Y-77440663D01*
X144936337Y-77047680D01*
X144422881Y-76835000D01*
X143867119Y-76835000D01*
X143353663Y-77047680D01*
X142975000Y-77426343D01*
X142975000Y-75852666D01*
X143355938Y-76233604D01*
X144691954Y-76787000D01*
X146138046Y-76787000D01*
X147474062Y-76233604D01*
X148496604Y-75211062D01*
X149050000Y-73875046D01*
X149050000Y-72990593D01*
X154464677Y-72990593D01*
X154487164Y-73680453D01*
X154707901Y-74213359D01*
X154985132Y-74324263D01*
X156030395Y-73279000D01*
X154985132Y-72233737D01*
X154707901Y-72344641D01*
X154464677Y-72990593D01*
X149050000Y-72990593D01*
X149050000Y-72428954D01*
X148496604Y-71092938D01*
X148136048Y-70732382D01*
X155025000Y-70726519D01*
X155025000Y-70974711D01*
X155205405Y-71410249D01*
X155485239Y-71690083D01*
X155275641Y-71776901D01*
X155164737Y-72054132D01*
X156210000Y-73099395D01*
X156224143Y-73085253D01*
X156403748Y-73264858D01*
X156389605Y-73279000D01*
X156403748Y-73293143D01*
X156224143Y-73472748D01*
X156210000Y-73458605D01*
X155164737Y-74503868D01*
X155275641Y-74781099D01*
X155921593Y-75024323D01*
X156611453Y-75001836D01*
X157144359Y-74781099D01*
X157148331Y-74771169D01*
X157192191Y-74836809D01*
X157402235Y-74977157D01*
X157650000Y-75026440D01*
X159850000Y-75026440D01*
X160097765Y-74977157D01*
X160307809Y-74836809D01*
X160448157Y-74626765D01*
X160497440Y-74379000D01*
X160497440Y-72179000D01*
X160448157Y-71931235D01*
X160307809Y-71721191D01*
X160097765Y-71580843D01*
X159850000Y-71531560D01*
X159633284Y-71531560D01*
X159754595Y-71410249D01*
X159935000Y-70974711D01*
X159935000Y-70722340D01*
X166204329Y-70717005D01*
X165828396Y-71092938D01*
G36*
X145500680Y-119663337D02*
X145893663Y-120056320D01*
X146100513Y-120142000D01*
X145893663Y-120227680D01*
X145500680Y-120620663D01*
X145421572Y-120811647D01*
X145367397Y-120680857D01*
X145125213Y-120611392D01*
X144324605Y-121412000D01*
X145125213Y-122212608D01*
X145367397Y-122143143D01*
X145417535Y-122002607D01*
X145500680Y-122203337D01*
X145893663Y-122596320D01*
X146100513Y-122682000D01*
X145893663Y-122767680D01*
X145500680Y-123160663D01*
X145415000Y-123367513D01*
X145329320Y-123160663D01*
X144936337Y-122767680D01*
X144745353Y-122688572D01*
X144876143Y-122634397D01*
X144945608Y-122392213D01*
X144145000Y-121591605D01*
X143344392Y-122392213D01*
X143413857Y-122634397D01*
X143554393Y-122684535D01*
X143353663Y-122767680D01*
X142975000Y-123146343D01*
X142975000Y-122158172D01*
X143164787Y-122212608D01*
X143965395Y-121412000D01*
X143164787Y-120611392D01*
X142975000Y-120665828D01*
X142975000Y-119677657D01*
X143353663Y-120056320D01*
X143544647Y-120135428D01*
X143413857Y-120189603D01*
X143344392Y-120431787D01*
X144145000Y-121232395D01*
X144945608Y-120431787D01*
X144876143Y-120189603D01*
X144735607Y-120139465D01*
X144936337Y-120056320D01*
X145329320Y-119663337D01*
X145415000Y-119456487D01*
X145500680Y-119663337D01*
X145500680Y-119663337D01*
G37*
X145500680Y-119663337D02*
X145893663Y-120056320D01*
X146100513Y-120142000D01*
X145893663Y-120227680D01*
X145500680Y-120620663D01*
X145421572Y-120811647D01*
X145367397Y-120680857D01*
X145125213Y-120611392D01*
X144324605Y-121412000D01*
X145125213Y-122212608D01*
X145367397Y-122143143D01*
X145417535Y-122002607D01*
X145500680Y-122203337D01*
X145893663Y-122596320D01*
X146100513Y-122682000D01*
X145893663Y-122767680D01*
X145500680Y-123160663D01*
X145415000Y-123367513D01*
X145329320Y-123160663D01*
X144936337Y-122767680D01*
X144745353Y-122688572D01*
X144876143Y-122634397D01*
X144945608Y-122392213D01*
X144145000Y-121591605D01*
X143344392Y-122392213D01*
X143413857Y-122634397D01*
X143554393Y-122684535D01*
X143353663Y-122767680D01*
X142975000Y-123146343D01*
X142975000Y-122158172D01*
X143164787Y-122212608D01*
X143965395Y-121412000D01*
X143164787Y-120611392D01*
X142975000Y-120665828D01*
X142975000Y-119677657D01*
X143353663Y-120056320D01*
X143544647Y-120135428D01*
X143413857Y-120189603D01*
X143344392Y-120431787D01*
X144145000Y-121232395D01*
X144945608Y-120431787D01*
X144876143Y-120189603D01*
X144735607Y-120139465D01*
X144936337Y-120056320D01*
X145329320Y-119663337D01*
X145415000Y-119456487D01*
X145500680Y-119663337D01*
G36*
X156110400Y-106263597D02*
X155308198Y-107065800D01*
X155262017Y-107065800D01*
X154918365Y-107208145D01*
X154655345Y-107471165D01*
X154513000Y-107814817D01*
X154513000Y-108186783D01*
X154655345Y-108530435D01*
X154918365Y-108793455D01*
X155262017Y-108935800D01*
X155633983Y-108935800D01*
X155977635Y-108793455D01*
X156240655Y-108530435D01*
X156383000Y-108186783D01*
X156383000Y-108140602D01*
X157024801Y-107498802D01*
X157024801Y-112820799D01*
X150620000Y-106415999D01*
X150620000Y-105003090D01*
X150854365Y-105237455D01*
X151198017Y-105379800D01*
X151569983Y-105379800D01*
X151687030Y-105331318D01*
X151817148Y-105357200D01*
X151817152Y-105357200D01*
X151891999Y-105372088D01*
X151966846Y-105357200D01*
X154712753Y-105357200D01*
X154787600Y-105372088D01*
X154862447Y-105357200D01*
X154862452Y-105357200D01*
X155084137Y-105313104D01*
X155335529Y-105145129D01*
X155377931Y-105081670D01*
X155943402Y-104516200D01*
X155989583Y-104516200D01*
X156110400Y-104466156D01*
X156110400Y-106263597D01*
X156110400Y-106263597D01*
G37*
X156110400Y-106263597D02*
X155308198Y-107065800D01*
X155262017Y-107065800D01*
X154918365Y-107208145D01*
X154655345Y-107471165D01*
X154513000Y-107814817D01*
X154513000Y-108186783D01*
X154655345Y-108530435D01*
X154918365Y-108793455D01*
X155262017Y-108935800D01*
X155633983Y-108935800D01*
X155977635Y-108793455D01*
X156240655Y-108530435D01*
X156383000Y-108186783D01*
X156383000Y-108140602D01*
X157024801Y-107498802D01*
X157024801Y-112820799D01*
X150620000Y-106415999D01*
X150620000Y-105003090D01*
X150854365Y-105237455D01*
X151198017Y-105379800D01*
X151569983Y-105379800D01*
X151687030Y-105331318D01*
X151817148Y-105357200D01*
X151817152Y-105357200D01*
X151891999Y-105372088D01*
X151966846Y-105357200D01*
X154712753Y-105357200D01*
X154787600Y-105372088D01*
X154862447Y-105357200D01*
X154862452Y-105357200D01*
X155084137Y-105313104D01*
X155335529Y-105145129D01*
X155377931Y-105081670D01*
X155943402Y-104516200D01*
X155989583Y-104516200D01*
X156110400Y-104466156D01*
X156110400Y-106263597D01*
G04 #@! TD*
M02*
