G04 #@! TF.GenerationSoftware,KiCad,Pcbnew,(5.0.0)*
G04 #@! TF.CreationDate,2018-11-19T15:05:30+00:00*
G04 #@! TF.ProjectId,Motor Shield,4D6F746F7220536869656C642E6B6963,rev?*
G04 #@! TF.SameCoordinates,Original*
G04 #@! TF.FileFunction,Soldermask,Top*
G04 #@! TF.FilePolarity,Negative*
%FSLAX46Y46*%
G04 Gerber Fmt 4.6, Leading zero omitted, Abs format (unit mm)*
G04 Created by KiCad (PCBNEW (5.0.0)) date 11/19/18 15:05:30*
%MOMM*%
%LPD*%
G01*
G04 APERTURE LIST*
%ADD10C,0.150000*%
%ADD11C,6.200000*%
%ADD12C,1.724000*%
%ADD13C,0.100000*%
%ADD14C,0.790000*%
%ADD15C,1.075000*%
%ADD16C,1.300000*%
%ADD17C,2.400000*%
%ADD18R,2.400000X2.400000*%
%ADD19R,2.200000X4.000000*%
%ADD20R,2.200000X1.700000*%
%ADD21R,1.900000X1.900000*%
%ADD22O,1.900000X1.900000*%
%ADD23R,0.650000X1.950000*%
%ADD24R,1.800000X3.200000*%
%ADD25R,1.200000X1.700000*%
%ADD26R,1.000000X1.650000*%
%ADD27R,4.200000X4.200000*%
%ADD28R,6.650000X4.600000*%
%ADD29R,0.850000X1.550000*%
G04 APERTURE END LIST*
D10*
G04 #@! TO.C,U2*
X161036000Y-120777000D02*
X159766000Y-120777000D01*
X159766000Y-121412000D02*
X161036000Y-120777000D01*
X161036000Y-121412000D02*
X159766000Y-121412000D01*
X159766000Y-122047000D02*
X161036000Y-121412000D01*
X161036000Y-122047000D02*
X159766000Y-122047000D01*
X159766000Y-122682000D02*
X161036000Y-122047000D01*
X161036000Y-122682000D02*
X159766000Y-122682000D01*
X159766000Y-123317000D02*
X161036000Y-122682000D01*
X161036000Y-123317000D02*
X159766000Y-123317000D01*
X159766000Y-123952000D02*
X161036000Y-123317000D01*
X161036000Y-123952000D02*
X159766000Y-123952000D01*
X159766000Y-124587000D02*
X161036000Y-123952000D01*
X161036000Y-124587000D02*
X159766000Y-124587000D01*
X167386000Y-120777000D02*
X166116000Y-120777000D01*
X166116000Y-121412000D02*
X167386000Y-120777000D01*
X167386000Y-121412000D02*
X166116000Y-121412000D01*
X166116000Y-122047000D02*
X167386000Y-121412000D01*
X167386000Y-122047000D02*
X166116000Y-122047000D01*
X166116000Y-122682000D02*
X167386000Y-122047000D01*
X167386000Y-122682000D02*
X166116000Y-122682000D01*
X166116000Y-123317000D02*
X167386000Y-122682000D01*
X167386000Y-123317000D02*
X166116000Y-123317000D01*
X166116000Y-123952000D02*
X167386000Y-123317000D01*
X167386000Y-123952000D02*
X166116000Y-123952000D01*
X166116000Y-124587000D02*
X167386000Y-123952000D01*
X167386000Y-124587000D02*
X166116000Y-124587000D01*
G04 #@! TO.C,U1*
X166319200Y-83743800D02*
X167589200Y-83743800D01*
X167589200Y-83108800D02*
X166319200Y-83743800D01*
X166319200Y-83108800D02*
X167589200Y-83108800D01*
X167589200Y-82473800D02*
X166319200Y-83108800D01*
X166319200Y-82473800D02*
X167589200Y-82473800D01*
X167589200Y-81838800D02*
X166319200Y-82473800D01*
X166319200Y-81838800D02*
X167589200Y-81838800D01*
X167589200Y-81203800D02*
X166319200Y-81838800D01*
X166319200Y-81203800D02*
X167589200Y-81203800D01*
X167589200Y-80568800D02*
X166319200Y-81203800D01*
X166319200Y-80568800D02*
X167589200Y-80568800D01*
X167589200Y-79933800D02*
X166319200Y-80568800D01*
X166319200Y-79933800D02*
X167589200Y-79933800D01*
X159969200Y-83743800D02*
X161239200Y-83743800D01*
X161239200Y-83108800D02*
X159969200Y-83743800D01*
X159969200Y-83108800D02*
X161239200Y-83108800D01*
X161239200Y-82473800D02*
X159969200Y-83108800D01*
X159969200Y-82473800D02*
X161239200Y-82473800D01*
X161239200Y-81838800D02*
X159969200Y-82473800D01*
X159969200Y-81838800D02*
X161239200Y-81838800D01*
X161239200Y-81203800D02*
X159969200Y-81838800D01*
X159969200Y-81203800D02*
X161239200Y-81203800D01*
X161239200Y-80568800D02*
X159969200Y-81203800D01*
X159969200Y-80568800D02*
X161239200Y-80568800D01*
X161239200Y-79933800D02*
X159969200Y-80568800D01*
X159969200Y-79933800D02*
X161239200Y-79933800D01*
G04 #@! TD*
D11*
G04 #@! TO.C,U4*
X168910000Y-73152000D03*
X168910000Y-131572000D03*
X145415000Y-73152000D03*
X145415000Y-131572000D03*
D12*
X144145000Y-78232000D03*
X146685000Y-78232000D03*
X144145000Y-80772000D03*
X146685000Y-80772000D03*
X144145000Y-83312000D03*
X146685000Y-83312000D03*
X144145000Y-85852000D03*
X146685000Y-85852000D03*
X144145000Y-88392000D03*
X146685000Y-88392000D03*
X144145000Y-90932000D03*
X146685000Y-90932000D03*
X144145000Y-93472000D03*
X146685000Y-93472000D03*
X144145000Y-96012000D03*
X146685000Y-96012000D03*
X144145000Y-98552000D03*
X146685000Y-98552000D03*
X144145000Y-101092000D03*
X146685000Y-101092000D03*
X144145000Y-103632000D03*
X146685000Y-103632000D03*
X144145000Y-106172000D03*
X146685000Y-106172000D03*
X144145000Y-108712000D03*
X146685000Y-108712000D03*
X144145000Y-111252000D03*
X146685000Y-111252000D03*
X144145000Y-113792000D03*
X146685000Y-113792000D03*
X144145000Y-116332000D03*
X146685000Y-116332000D03*
X144145000Y-118872000D03*
X146685000Y-118872000D03*
X144145000Y-121412000D03*
X146685000Y-121412000D03*
X144145000Y-123952000D03*
X146685000Y-123952000D03*
X144145000Y-126492000D03*
X146685000Y-126492000D03*
G04 #@! TD*
D13*
G04 #@! TO.C,R1*
G36*
X149995858Y-84162951D02*
X150015030Y-84165795D01*
X150033831Y-84170504D01*
X150052080Y-84177034D01*
X150069601Y-84185321D01*
X150086225Y-84195285D01*
X150101793Y-84206830D01*
X150116154Y-84219846D01*
X150129170Y-84234207D01*
X150140715Y-84249775D01*
X150150679Y-84266399D01*
X150158966Y-84283920D01*
X150165496Y-84302169D01*
X150170205Y-84320970D01*
X150173049Y-84340142D01*
X150174000Y-84359500D01*
X150174000Y-84804500D01*
X150173049Y-84823858D01*
X150170205Y-84843030D01*
X150165496Y-84861831D01*
X150158966Y-84880080D01*
X150150679Y-84897601D01*
X150140715Y-84914225D01*
X150129170Y-84929793D01*
X150116154Y-84944154D01*
X150101793Y-84957170D01*
X150086225Y-84968715D01*
X150069601Y-84978679D01*
X150052080Y-84986966D01*
X150033831Y-84993496D01*
X150015030Y-84998205D01*
X149995858Y-85001049D01*
X149976500Y-85002000D01*
X149581500Y-85002000D01*
X149562142Y-85001049D01*
X149542970Y-84998205D01*
X149524169Y-84993496D01*
X149505920Y-84986966D01*
X149488399Y-84978679D01*
X149471775Y-84968715D01*
X149456207Y-84957170D01*
X149441846Y-84944154D01*
X149428830Y-84929793D01*
X149417285Y-84914225D01*
X149407321Y-84897601D01*
X149399034Y-84880080D01*
X149392504Y-84861831D01*
X149387795Y-84843030D01*
X149384951Y-84823858D01*
X149384000Y-84804500D01*
X149384000Y-84359500D01*
X149384951Y-84340142D01*
X149387795Y-84320970D01*
X149392504Y-84302169D01*
X149399034Y-84283920D01*
X149407321Y-84266399D01*
X149417285Y-84249775D01*
X149428830Y-84234207D01*
X149441846Y-84219846D01*
X149456207Y-84206830D01*
X149471775Y-84195285D01*
X149488399Y-84185321D01*
X149505920Y-84177034D01*
X149524169Y-84170504D01*
X149542970Y-84165795D01*
X149562142Y-84162951D01*
X149581500Y-84162000D01*
X149976500Y-84162000D01*
X149995858Y-84162951D01*
X149995858Y-84162951D01*
G37*
D14*
X149779000Y-84582000D03*
D13*
G36*
X150965858Y-84162951D02*
X150985030Y-84165795D01*
X151003831Y-84170504D01*
X151022080Y-84177034D01*
X151039601Y-84185321D01*
X151056225Y-84195285D01*
X151071793Y-84206830D01*
X151086154Y-84219846D01*
X151099170Y-84234207D01*
X151110715Y-84249775D01*
X151120679Y-84266399D01*
X151128966Y-84283920D01*
X151135496Y-84302169D01*
X151140205Y-84320970D01*
X151143049Y-84340142D01*
X151144000Y-84359500D01*
X151144000Y-84804500D01*
X151143049Y-84823858D01*
X151140205Y-84843030D01*
X151135496Y-84861831D01*
X151128966Y-84880080D01*
X151120679Y-84897601D01*
X151110715Y-84914225D01*
X151099170Y-84929793D01*
X151086154Y-84944154D01*
X151071793Y-84957170D01*
X151056225Y-84968715D01*
X151039601Y-84978679D01*
X151022080Y-84986966D01*
X151003831Y-84993496D01*
X150985030Y-84998205D01*
X150965858Y-85001049D01*
X150946500Y-85002000D01*
X150551500Y-85002000D01*
X150532142Y-85001049D01*
X150512970Y-84998205D01*
X150494169Y-84993496D01*
X150475920Y-84986966D01*
X150458399Y-84978679D01*
X150441775Y-84968715D01*
X150426207Y-84957170D01*
X150411846Y-84944154D01*
X150398830Y-84929793D01*
X150387285Y-84914225D01*
X150377321Y-84897601D01*
X150369034Y-84880080D01*
X150362504Y-84861831D01*
X150357795Y-84843030D01*
X150354951Y-84823858D01*
X150354000Y-84804500D01*
X150354000Y-84359500D01*
X150354951Y-84340142D01*
X150357795Y-84320970D01*
X150362504Y-84302169D01*
X150369034Y-84283920D01*
X150377321Y-84266399D01*
X150387285Y-84249775D01*
X150398830Y-84234207D01*
X150411846Y-84219846D01*
X150426207Y-84206830D01*
X150441775Y-84195285D01*
X150458399Y-84185321D01*
X150475920Y-84177034D01*
X150494169Y-84170504D01*
X150512970Y-84165795D01*
X150532142Y-84162951D01*
X150551500Y-84162000D01*
X150946500Y-84162000D01*
X150965858Y-84162951D01*
X150965858Y-84162951D01*
G37*
D14*
X150749000Y-84582000D03*
G04 #@! TD*
D13*
G04 #@! TO.C,D3*
G36*
X151679092Y-82357294D02*
X151705181Y-82361164D01*
X151730764Y-82367572D01*
X151755596Y-82376457D01*
X151779438Y-82387734D01*
X151802060Y-82401293D01*
X151823243Y-82417003D01*
X151842785Y-82434715D01*
X151860497Y-82454257D01*
X151876207Y-82475440D01*
X151889766Y-82498062D01*
X151901043Y-82521904D01*
X151909928Y-82546736D01*
X151916336Y-82572319D01*
X151920206Y-82598408D01*
X151921500Y-82624750D01*
X151921500Y-83237250D01*
X151920206Y-83263592D01*
X151916336Y-83289681D01*
X151909928Y-83315264D01*
X151901043Y-83340096D01*
X151889766Y-83363938D01*
X151876207Y-83386560D01*
X151860497Y-83407743D01*
X151842785Y-83427285D01*
X151823243Y-83444997D01*
X151802060Y-83460707D01*
X151779438Y-83474266D01*
X151755596Y-83485543D01*
X151730764Y-83494428D01*
X151705181Y-83500836D01*
X151679092Y-83504706D01*
X151652750Y-83506000D01*
X151115250Y-83506000D01*
X151088908Y-83504706D01*
X151062819Y-83500836D01*
X151037236Y-83494428D01*
X151012404Y-83485543D01*
X150988562Y-83474266D01*
X150965940Y-83460707D01*
X150944757Y-83444997D01*
X150925215Y-83427285D01*
X150907503Y-83407743D01*
X150891793Y-83386560D01*
X150878234Y-83363938D01*
X150866957Y-83340096D01*
X150858072Y-83315264D01*
X150851664Y-83289681D01*
X150847794Y-83263592D01*
X150846500Y-83237250D01*
X150846500Y-82624750D01*
X150847794Y-82598408D01*
X150851664Y-82572319D01*
X150858072Y-82546736D01*
X150866957Y-82521904D01*
X150878234Y-82498062D01*
X150891793Y-82475440D01*
X150907503Y-82454257D01*
X150925215Y-82434715D01*
X150944757Y-82417003D01*
X150965940Y-82401293D01*
X150988562Y-82387734D01*
X151012404Y-82376457D01*
X151037236Y-82367572D01*
X151062819Y-82361164D01*
X151088908Y-82357294D01*
X151115250Y-82356000D01*
X151652750Y-82356000D01*
X151679092Y-82357294D01*
X151679092Y-82357294D01*
G37*
D15*
X151384000Y-82931000D03*
D13*
G36*
X150104092Y-82357294D02*
X150130181Y-82361164D01*
X150155764Y-82367572D01*
X150180596Y-82376457D01*
X150204438Y-82387734D01*
X150227060Y-82401293D01*
X150248243Y-82417003D01*
X150267785Y-82434715D01*
X150285497Y-82454257D01*
X150301207Y-82475440D01*
X150314766Y-82498062D01*
X150326043Y-82521904D01*
X150334928Y-82546736D01*
X150341336Y-82572319D01*
X150345206Y-82598408D01*
X150346500Y-82624750D01*
X150346500Y-83237250D01*
X150345206Y-83263592D01*
X150341336Y-83289681D01*
X150334928Y-83315264D01*
X150326043Y-83340096D01*
X150314766Y-83363938D01*
X150301207Y-83386560D01*
X150285497Y-83407743D01*
X150267785Y-83427285D01*
X150248243Y-83444997D01*
X150227060Y-83460707D01*
X150204438Y-83474266D01*
X150180596Y-83485543D01*
X150155764Y-83494428D01*
X150130181Y-83500836D01*
X150104092Y-83504706D01*
X150077750Y-83506000D01*
X149540250Y-83506000D01*
X149513908Y-83504706D01*
X149487819Y-83500836D01*
X149462236Y-83494428D01*
X149437404Y-83485543D01*
X149413562Y-83474266D01*
X149390940Y-83460707D01*
X149369757Y-83444997D01*
X149350215Y-83427285D01*
X149332503Y-83407743D01*
X149316793Y-83386560D01*
X149303234Y-83363938D01*
X149291957Y-83340096D01*
X149283072Y-83315264D01*
X149276664Y-83289681D01*
X149272794Y-83263592D01*
X149271500Y-83237250D01*
X149271500Y-82624750D01*
X149272794Y-82598408D01*
X149276664Y-82572319D01*
X149283072Y-82546736D01*
X149291957Y-82521904D01*
X149303234Y-82498062D01*
X149316793Y-82475440D01*
X149332503Y-82454257D01*
X149350215Y-82434715D01*
X149369757Y-82417003D01*
X149390940Y-82401293D01*
X149413562Y-82387734D01*
X149437404Y-82376457D01*
X149462236Y-82367572D01*
X149487819Y-82361164D01*
X149513908Y-82357294D01*
X149540250Y-82356000D01*
X150077750Y-82356000D01*
X150104092Y-82357294D01*
X150104092Y-82357294D01*
G37*
D15*
X149809000Y-82931000D03*
G04 #@! TD*
D16*
G04 #@! TO.C,J4*
X171069000Y-103886000D03*
D17*
X168529000Y-103886000D03*
D16*
X171069000Y-106426000D03*
D18*
X168529000Y-106426000D03*
G04 #@! TD*
G04 #@! TO.C,J5*
X168529000Y-100711000D03*
D16*
X171069000Y-100711000D03*
D17*
X168529000Y-98171000D03*
D16*
X171069000Y-98171000D03*
G04 #@! TD*
D19*
G04 #@! TO.C,Q1*
X156083000Y-89027000D03*
D20*
X149783000Y-89027000D03*
X149783000Y-91327000D03*
X149783000Y-86727000D03*
G04 #@! TD*
D21*
G04 #@! TO.C,J3*
X158750000Y-132969000D03*
D22*
X156210000Y-132969000D03*
G04 #@! TD*
D23*
G04 #@! TO.C,U3*
X155198000Y-98889000D03*
X154548000Y-98889000D03*
X153898000Y-98889000D03*
X153248000Y-98889000D03*
X152598000Y-98889000D03*
X151948000Y-98889000D03*
X151298000Y-98889000D03*
X150648000Y-98889000D03*
X149998000Y-98889000D03*
X149348000Y-98889000D03*
X149348000Y-106089000D03*
X149998000Y-106089000D03*
X150648000Y-106089000D03*
X151298000Y-106089000D03*
X151948000Y-106089000D03*
X152598000Y-106089000D03*
X153248000Y-106089000D03*
X153898000Y-106089000D03*
X154548000Y-106089000D03*
X155198000Y-106089000D03*
G04 #@! TD*
D21*
G04 #@! TO.C,J6*
X170434000Y-93980000D03*
D22*
X170434000Y-91440000D03*
X170434000Y-88900000D03*
X170434000Y-86360000D03*
G04 #@! TD*
G04 #@! TO.C,J7*
X170434000Y-118110000D03*
X170434000Y-115570000D03*
X170434000Y-113030000D03*
D21*
X170434000Y-110490000D03*
G04 #@! TD*
D18*
G04 #@! TO.C,J1*
X158750000Y-73279000D03*
D16*
X158750000Y-70739000D03*
D17*
X156210000Y-73279000D03*
D16*
X156210000Y-70739000D03*
G04 #@! TD*
D24*
G04 #@! TO.C,C1*
X163830000Y-94570000D03*
X163830000Y-90170000D03*
G04 #@! TD*
G04 #@! TO.C,C2*
X163830000Y-114300000D03*
X163830000Y-109900000D03*
G04 #@! TD*
D13*
G04 #@! TO.C,D1*
G36*
X160200192Y-89633594D02*
X160226281Y-89637464D01*
X160251864Y-89643872D01*
X160276696Y-89652757D01*
X160300538Y-89664034D01*
X160323160Y-89677593D01*
X160344343Y-89693303D01*
X160363885Y-89711015D01*
X160381597Y-89730557D01*
X160397307Y-89751740D01*
X160410866Y-89774362D01*
X160422143Y-89798204D01*
X160431028Y-89823036D01*
X160437436Y-89848619D01*
X160441306Y-89874708D01*
X160442600Y-89901050D01*
X160442600Y-90438550D01*
X160441306Y-90464892D01*
X160437436Y-90490981D01*
X160431028Y-90516564D01*
X160422143Y-90541396D01*
X160410866Y-90565238D01*
X160397307Y-90587860D01*
X160381597Y-90609043D01*
X160363885Y-90628585D01*
X160344343Y-90646297D01*
X160323160Y-90662007D01*
X160300538Y-90675566D01*
X160276696Y-90686843D01*
X160251864Y-90695728D01*
X160226281Y-90702136D01*
X160200192Y-90706006D01*
X160173850Y-90707300D01*
X159561350Y-90707300D01*
X159535008Y-90706006D01*
X159508919Y-90702136D01*
X159483336Y-90695728D01*
X159458504Y-90686843D01*
X159434662Y-90675566D01*
X159412040Y-90662007D01*
X159390857Y-90646297D01*
X159371315Y-90628585D01*
X159353603Y-90609043D01*
X159337893Y-90587860D01*
X159324334Y-90565238D01*
X159313057Y-90541396D01*
X159304172Y-90516564D01*
X159297764Y-90490981D01*
X159293894Y-90464892D01*
X159292600Y-90438550D01*
X159292600Y-89901050D01*
X159293894Y-89874708D01*
X159297764Y-89848619D01*
X159304172Y-89823036D01*
X159313057Y-89798204D01*
X159324334Y-89774362D01*
X159337893Y-89751740D01*
X159353603Y-89730557D01*
X159371315Y-89711015D01*
X159390857Y-89693303D01*
X159412040Y-89677593D01*
X159434662Y-89664034D01*
X159458504Y-89652757D01*
X159483336Y-89643872D01*
X159508919Y-89637464D01*
X159535008Y-89633594D01*
X159561350Y-89632300D01*
X160173850Y-89632300D01*
X160200192Y-89633594D01*
X160200192Y-89633594D01*
G37*
D15*
X159867600Y-90169800D03*
D13*
G36*
X160200192Y-91208594D02*
X160226281Y-91212464D01*
X160251864Y-91218872D01*
X160276696Y-91227757D01*
X160300538Y-91239034D01*
X160323160Y-91252593D01*
X160344343Y-91268303D01*
X160363885Y-91286015D01*
X160381597Y-91305557D01*
X160397307Y-91326740D01*
X160410866Y-91349362D01*
X160422143Y-91373204D01*
X160431028Y-91398036D01*
X160437436Y-91423619D01*
X160441306Y-91449708D01*
X160442600Y-91476050D01*
X160442600Y-92013550D01*
X160441306Y-92039892D01*
X160437436Y-92065981D01*
X160431028Y-92091564D01*
X160422143Y-92116396D01*
X160410866Y-92140238D01*
X160397307Y-92162860D01*
X160381597Y-92184043D01*
X160363885Y-92203585D01*
X160344343Y-92221297D01*
X160323160Y-92237007D01*
X160300538Y-92250566D01*
X160276696Y-92261843D01*
X160251864Y-92270728D01*
X160226281Y-92277136D01*
X160200192Y-92281006D01*
X160173850Y-92282300D01*
X159561350Y-92282300D01*
X159535008Y-92281006D01*
X159508919Y-92277136D01*
X159483336Y-92270728D01*
X159458504Y-92261843D01*
X159434662Y-92250566D01*
X159412040Y-92237007D01*
X159390857Y-92221297D01*
X159371315Y-92203585D01*
X159353603Y-92184043D01*
X159337893Y-92162860D01*
X159324334Y-92140238D01*
X159313057Y-92116396D01*
X159304172Y-92091564D01*
X159297764Y-92065981D01*
X159293894Y-92039892D01*
X159292600Y-92013550D01*
X159292600Y-91476050D01*
X159293894Y-91449708D01*
X159297764Y-91423619D01*
X159304172Y-91398036D01*
X159313057Y-91373204D01*
X159324334Y-91349362D01*
X159337893Y-91326740D01*
X159353603Y-91305557D01*
X159371315Y-91286015D01*
X159390857Y-91268303D01*
X159412040Y-91252593D01*
X159434662Y-91239034D01*
X159458504Y-91227757D01*
X159483336Y-91218872D01*
X159508919Y-91212464D01*
X159535008Y-91208594D01*
X159561350Y-91207300D01*
X160173850Y-91207300D01*
X160200192Y-91208594D01*
X160200192Y-91208594D01*
G37*
D15*
X159867600Y-91744800D03*
G04 #@! TD*
D13*
G04 #@! TO.C,D2*
G36*
X160200192Y-112188794D02*
X160226281Y-112192664D01*
X160251864Y-112199072D01*
X160276696Y-112207957D01*
X160300538Y-112219234D01*
X160323160Y-112232793D01*
X160344343Y-112248503D01*
X160363885Y-112266215D01*
X160381597Y-112285757D01*
X160397307Y-112306940D01*
X160410866Y-112329562D01*
X160422143Y-112353404D01*
X160431028Y-112378236D01*
X160437436Y-112403819D01*
X160441306Y-112429908D01*
X160442600Y-112456250D01*
X160442600Y-112993750D01*
X160441306Y-113020092D01*
X160437436Y-113046181D01*
X160431028Y-113071764D01*
X160422143Y-113096596D01*
X160410866Y-113120438D01*
X160397307Y-113143060D01*
X160381597Y-113164243D01*
X160363885Y-113183785D01*
X160344343Y-113201497D01*
X160323160Y-113217207D01*
X160300538Y-113230766D01*
X160276696Y-113242043D01*
X160251864Y-113250928D01*
X160226281Y-113257336D01*
X160200192Y-113261206D01*
X160173850Y-113262500D01*
X159561350Y-113262500D01*
X159535008Y-113261206D01*
X159508919Y-113257336D01*
X159483336Y-113250928D01*
X159458504Y-113242043D01*
X159434662Y-113230766D01*
X159412040Y-113217207D01*
X159390857Y-113201497D01*
X159371315Y-113183785D01*
X159353603Y-113164243D01*
X159337893Y-113143060D01*
X159324334Y-113120438D01*
X159313057Y-113096596D01*
X159304172Y-113071764D01*
X159297764Y-113046181D01*
X159293894Y-113020092D01*
X159292600Y-112993750D01*
X159292600Y-112456250D01*
X159293894Y-112429908D01*
X159297764Y-112403819D01*
X159304172Y-112378236D01*
X159313057Y-112353404D01*
X159324334Y-112329562D01*
X159337893Y-112306940D01*
X159353603Y-112285757D01*
X159371315Y-112266215D01*
X159390857Y-112248503D01*
X159412040Y-112232793D01*
X159434662Y-112219234D01*
X159458504Y-112207957D01*
X159483336Y-112199072D01*
X159508919Y-112192664D01*
X159535008Y-112188794D01*
X159561350Y-112187500D01*
X160173850Y-112187500D01*
X160200192Y-112188794D01*
X160200192Y-112188794D01*
G37*
D15*
X159867600Y-112725000D03*
D13*
G36*
X160200192Y-113763794D02*
X160226281Y-113767664D01*
X160251864Y-113774072D01*
X160276696Y-113782957D01*
X160300538Y-113794234D01*
X160323160Y-113807793D01*
X160344343Y-113823503D01*
X160363885Y-113841215D01*
X160381597Y-113860757D01*
X160397307Y-113881940D01*
X160410866Y-113904562D01*
X160422143Y-113928404D01*
X160431028Y-113953236D01*
X160437436Y-113978819D01*
X160441306Y-114004908D01*
X160442600Y-114031250D01*
X160442600Y-114568750D01*
X160441306Y-114595092D01*
X160437436Y-114621181D01*
X160431028Y-114646764D01*
X160422143Y-114671596D01*
X160410866Y-114695438D01*
X160397307Y-114718060D01*
X160381597Y-114739243D01*
X160363885Y-114758785D01*
X160344343Y-114776497D01*
X160323160Y-114792207D01*
X160300538Y-114805766D01*
X160276696Y-114817043D01*
X160251864Y-114825928D01*
X160226281Y-114832336D01*
X160200192Y-114836206D01*
X160173850Y-114837500D01*
X159561350Y-114837500D01*
X159535008Y-114836206D01*
X159508919Y-114832336D01*
X159483336Y-114825928D01*
X159458504Y-114817043D01*
X159434662Y-114805766D01*
X159412040Y-114792207D01*
X159390857Y-114776497D01*
X159371315Y-114758785D01*
X159353603Y-114739243D01*
X159337893Y-114718060D01*
X159324334Y-114695438D01*
X159313057Y-114671596D01*
X159304172Y-114646764D01*
X159297764Y-114621181D01*
X159293894Y-114595092D01*
X159292600Y-114568750D01*
X159292600Y-114031250D01*
X159293894Y-114004908D01*
X159297764Y-113978819D01*
X159304172Y-113953236D01*
X159313057Y-113928404D01*
X159324334Y-113904562D01*
X159337893Y-113881940D01*
X159353603Y-113860757D01*
X159371315Y-113841215D01*
X159390857Y-113823503D01*
X159412040Y-113807793D01*
X159434662Y-113794234D01*
X159458504Y-113782957D01*
X159483336Y-113774072D01*
X159508919Y-113767664D01*
X159535008Y-113763794D01*
X159561350Y-113762500D01*
X160173850Y-113762500D01*
X160200192Y-113763794D01*
X160200192Y-113763794D01*
G37*
D15*
X159867600Y-114300000D03*
G04 #@! TD*
D13*
G04 #@! TO.C,C3*
G36*
X160007858Y-96783951D02*
X160027030Y-96786795D01*
X160045831Y-96791504D01*
X160064080Y-96798034D01*
X160081601Y-96806321D01*
X160098225Y-96816285D01*
X160113793Y-96827830D01*
X160128154Y-96840846D01*
X160141170Y-96855207D01*
X160152715Y-96870775D01*
X160162679Y-96887399D01*
X160170966Y-96904920D01*
X160177496Y-96923169D01*
X160182205Y-96941970D01*
X160185049Y-96961142D01*
X160186000Y-96980500D01*
X160186000Y-97375500D01*
X160185049Y-97394858D01*
X160182205Y-97414030D01*
X160177496Y-97432831D01*
X160170966Y-97451080D01*
X160162679Y-97468601D01*
X160152715Y-97485225D01*
X160141170Y-97500793D01*
X160128154Y-97515154D01*
X160113793Y-97528170D01*
X160098225Y-97539715D01*
X160081601Y-97549679D01*
X160064080Y-97557966D01*
X160045831Y-97564496D01*
X160027030Y-97569205D01*
X160007858Y-97572049D01*
X159988500Y-97573000D01*
X159543500Y-97573000D01*
X159524142Y-97572049D01*
X159504970Y-97569205D01*
X159486169Y-97564496D01*
X159467920Y-97557966D01*
X159450399Y-97549679D01*
X159433775Y-97539715D01*
X159418207Y-97528170D01*
X159403846Y-97515154D01*
X159390830Y-97500793D01*
X159379285Y-97485225D01*
X159369321Y-97468601D01*
X159361034Y-97451080D01*
X159354504Y-97432831D01*
X159349795Y-97414030D01*
X159346951Y-97394858D01*
X159346000Y-97375500D01*
X159346000Y-96980500D01*
X159346951Y-96961142D01*
X159349795Y-96941970D01*
X159354504Y-96923169D01*
X159361034Y-96904920D01*
X159369321Y-96887399D01*
X159379285Y-96870775D01*
X159390830Y-96855207D01*
X159403846Y-96840846D01*
X159418207Y-96827830D01*
X159433775Y-96816285D01*
X159450399Y-96806321D01*
X159467920Y-96798034D01*
X159486169Y-96791504D01*
X159504970Y-96786795D01*
X159524142Y-96783951D01*
X159543500Y-96783000D01*
X159988500Y-96783000D01*
X160007858Y-96783951D01*
X160007858Y-96783951D01*
G37*
D14*
X159766000Y-97178000D03*
D13*
G36*
X160007858Y-97753951D02*
X160027030Y-97756795D01*
X160045831Y-97761504D01*
X160064080Y-97768034D01*
X160081601Y-97776321D01*
X160098225Y-97786285D01*
X160113793Y-97797830D01*
X160128154Y-97810846D01*
X160141170Y-97825207D01*
X160152715Y-97840775D01*
X160162679Y-97857399D01*
X160170966Y-97874920D01*
X160177496Y-97893169D01*
X160182205Y-97911970D01*
X160185049Y-97931142D01*
X160186000Y-97950500D01*
X160186000Y-98345500D01*
X160185049Y-98364858D01*
X160182205Y-98384030D01*
X160177496Y-98402831D01*
X160170966Y-98421080D01*
X160162679Y-98438601D01*
X160152715Y-98455225D01*
X160141170Y-98470793D01*
X160128154Y-98485154D01*
X160113793Y-98498170D01*
X160098225Y-98509715D01*
X160081601Y-98519679D01*
X160064080Y-98527966D01*
X160045831Y-98534496D01*
X160027030Y-98539205D01*
X160007858Y-98542049D01*
X159988500Y-98543000D01*
X159543500Y-98543000D01*
X159524142Y-98542049D01*
X159504970Y-98539205D01*
X159486169Y-98534496D01*
X159467920Y-98527966D01*
X159450399Y-98519679D01*
X159433775Y-98509715D01*
X159418207Y-98498170D01*
X159403846Y-98485154D01*
X159390830Y-98470793D01*
X159379285Y-98455225D01*
X159369321Y-98438601D01*
X159361034Y-98421080D01*
X159354504Y-98402831D01*
X159349795Y-98384030D01*
X159346951Y-98364858D01*
X159346000Y-98345500D01*
X159346000Y-97950500D01*
X159346951Y-97931142D01*
X159349795Y-97911970D01*
X159354504Y-97893169D01*
X159361034Y-97874920D01*
X159369321Y-97857399D01*
X159379285Y-97840775D01*
X159390830Y-97825207D01*
X159403846Y-97810846D01*
X159418207Y-97797830D01*
X159433775Y-97786285D01*
X159450399Y-97776321D01*
X159467920Y-97768034D01*
X159486169Y-97761504D01*
X159504970Y-97756795D01*
X159524142Y-97753951D01*
X159543500Y-97753000D01*
X159988500Y-97753000D01*
X160007858Y-97753951D01*
X160007858Y-97753951D01*
G37*
D14*
X159766000Y-98148000D03*
G04 #@! TD*
D13*
G04 #@! TO.C,C4*
G36*
X160007858Y-106031951D02*
X160027030Y-106034795D01*
X160045831Y-106039504D01*
X160064080Y-106046034D01*
X160081601Y-106054321D01*
X160098225Y-106064285D01*
X160113793Y-106075830D01*
X160128154Y-106088846D01*
X160141170Y-106103207D01*
X160152715Y-106118775D01*
X160162679Y-106135399D01*
X160170966Y-106152920D01*
X160177496Y-106171169D01*
X160182205Y-106189970D01*
X160185049Y-106209142D01*
X160186000Y-106228500D01*
X160186000Y-106623500D01*
X160185049Y-106642858D01*
X160182205Y-106662030D01*
X160177496Y-106680831D01*
X160170966Y-106699080D01*
X160162679Y-106716601D01*
X160152715Y-106733225D01*
X160141170Y-106748793D01*
X160128154Y-106763154D01*
X160113793Y-106776170D01*
X160098225Y-106787715D01*
X160081601Y-106797679D01*
X160064080Y-106805966D01*
X160045831Y-106812496D01*
X160027030Y-106817205D01*
X160007858Y-106820049D01*
X159988500Y-106821000D01*
X159543500Y-106821000D01*
X159524142Y-106820049D01*
X159504970Y-106817205D01*
X159486169Y-106812496D01*
X159467920Y-106805966D01*
X159450399Y-106797679D01*
X159433775Y-106787715D01*
X159418207Y-106776170D01*
X159403846Y-106763154D01*
X159390830Y-106748793D01*
X159379285Y-106733225D01*
X159369321Y-106716601D01*
X159361034Y-106699080D01*
X159354504Y-106680831D01*
X159349795Y-106662030D01*
X159346951Y-106642858D01*
X159346000Y-106623500D01*
X159346000Y-106228500D01*
X159346951Y-106209142D01*
X159349795Y-106189970D01*
X159354504Y-106171169D01*
X159361034Y-106152920D01*
X159369321Y-106135399D01*
X159379285Y-106118775D01*
X159390830Y-106103207D01*
X159403846Y-106088846D01*
X159418207Y-106075830D01*
X159433775Y-106064285D01*
X159450399Y-106054321D01*
X159467920Y-106046034D01*
X159486169Y-106039504D01*
X159504970Y-106034795D01*
X159524142Y-106031951D01*
X159543500Y-106031000D01*
X159988500Y-106031000D01*
X160007858Y-106031951D01*
X160007858Y-106031951D01*
G37*
D14*
X159766000Y-106426000D03*
D13*
G36*
X160007858Y-107001951D02*
X160027030Y-107004795D01*
X160045831Y-107009504D01*
X160064080Y-107016034D01*
X160081601Y-107024321D01*
X160098225Y-107034285D01*
X160113793Y-107045830D01*
X160128154Y-107058846D01*
X160141170Y-107073207D01*
X160152715Y-107088775D01*
X160162679Y-107105399D01*
X160170966Y-107122920D01*
X160177496Y-107141169D01*
X160182205Y-107159970D01*
X160185049Y-107179142D01*
X160186000Y-107198500D01*
X160186000Y-107593500D01*
X160185049Y-107612858D01*
X160182205Y-107632030D01*
X160177496Y-107650831D01*
X160170966Y-107669080D01*
X160162679Y-107686601D01*
X160152715Y-107703225D01*
X160141170Y-107718793D01*
X160128154Y-107733154D01*
X160113793Y-107746170D01*
X160098225Y-107757715D01*
X160081601Y-107767679D01*
X160064080Y-107775966D01*
X160045831Y-107782496D01*
X160027030Y-107787205D01*
X160007858Y-107790049D01*
X159988500Y-107791000D01*
X159543500Y-107791000D01*
X159524142Y-107790049D01*
X159504970Y-107787205D01*
X159486169Y-107782496D01*
X159467920Y-107775966D01*
X159450399Y-107767679D01*
X159433775Y-107757715D01*
X159418207Y-107746170D01*
X159403846Y-107733154D01*
X159390830Y-107718793D01*
X159379285Y-107703225D01*
X159369321Y-107686601D01*
X159361034Y-107669080D01*
X159354504Y-107650831D01*
X159349795Y-107632030D01*
X159346951Y-107612858D01*
X159346000Y-107593500D01*
X159346000Y-107198500D01*
X159346951Y-107179142D01*
X159349795Y-107159970D01*
X159354504Y-107141169D01*
X159361034Y-107122920D01*
X159369321Y-107105399D01*
X159379285Y-107088775D01*
X159390830Y-107073207D01*
X159403846Y-107058846D01*
X159418207Y-107045830D01*
X159433775Y-107034285D01*
X159450399Y-107024321D01*
X159467920Y-107016034D01*
X159486169Y-107009504D01*
X159504970Y-107004795D01*
X159524142Y-107001951D01*
X159543500Y-107001000D01*
X159988500Y-107001000D01*
X160007858Y-107001951D01*
X160007858Y-107001951D01*
G37*
D14*
X159766000Y-107396000D03*
G04 #@! TD*
D25*
G04 #@! TO.C,JP1*
X150525000Y-78105000D03*
X149225000Y-78105000D03*
G04 #@! TD*
D13*
G04 #@! TO.C,R4*
G36*
X153480458Y-107911951D02*
X153499630Y-107914795D01*
X153518431Y-107919504D01*
X153536680Y-107926034D01*
X153554201Y-107934321D01*
X153570825Y-107944285D01*
X153586393Y-107955830D01*
X153600754Y-107968846D01*
X153613770Y-107983207D01*
X153625315Y-107998775D01*
X153635279Y-108015399D01*
X153643566Y-108032920D01*
X153650096Y-108051169D01*
X153654805Y-108069970D01*
X153657649Y-108089142D01*
X153658600Y-108108500D01*
X153658600Y-108553500D01*
X153657649Y-108572858D01*
X153654805Y-108592030D01*
X153650096Y-108610831D01*
X153643566Y-108629080D01*
X153635279Y-108646601D01*
X153625315Y-108663225D01*
X153613770Y-108678793D01*
X153600754Y-108693154D01*
X153586393Y-108706170D01*
X153570825Y-108717715D01*
X153554201Y-108727679D01*
X153536680Y-108735966D01*
X153518431Y-108742496D01*
X153499630Y-108747205D01*
X153480458Y-108750049D01*
X153461100Y-108751000D01*
X153066100Y-108751000D01*
X153046742Y-108750049D01*
X153027570Y-108747205D01*
X153008769Y-108742496D01*
X152990520Y-108735966D01*
X152972999Y-108727679D01*
X152956375Y-108717715D01*
X152940807Y-108706170D01*
X152926446Y-108693154D01*
X152913430Y-108678793D01*
X152901885Y-108663225D01*
X152891921Y-108646601D01*
X152883634Y-108629080D01*
X152877104Y-108610831D01*
X152872395Y-108592030D01*
X152869551Y-108572858D01*
X152868600Y-108553500D01*
X152868600Y-108108500D01*
X152869551Y-108089142D01*
X152872395Y-108069970D01*
X152877104Y-108051169D01*
X152883634Y-108032920D01*
X152891921Y-108015399D01*
X152901885Y-107998775D01*
X152913430Y-107983207D01*
X152926446Y-107968846D01*
X152940807Y-107955830D01*
X152956375Y-107944285D01*
X152972999Y-107934321D01*
X152990520Y-107926034D01*
X153008769Y-107919504D01*
X153027570Y-107914795D01*
X153046742Y-107911951D01*
X153066100Y-107911000D01*
X153461100Y-107911000D01*
X153480458Y-107911951D01*
X153480458Y-107911951D01*
G37*
D14*
X153263600Y-108331000D03*
D13*
G36*
X154450458Y-107911951D02*
X154469630Y-107914795D01*
X154488431Y-107919504D01*
X154506680Y-107926034D01*
X154524201Y-107934321D01*
X154540825Y-107944285D01*
X154556393Y-107955830D01*
X154570754Y-107968846D01*
X154583770Y-107983207D01*
X154595315Y-107998775D01*
X154605279Y-108015399D01*
X154613566Y-108032920D01*
X154620096Y-108051169D01*
X154624805Y-108069970D01*
X154627649Y-108089142D01*
X154628600Y-108108500D01*
X154628600Y-108553500D01*
X154627649Y-108572858D01*
X154624805Y-108592030D01*
X154620096Y-108610831D01*
X154613566Y-108629080D01*
X154605279Y-108646601D01*
X154595315Y-108663225D01*
X154583770Y-108678793D01*
X154570754Y-108693154D01*
X154556393Y-108706170D01*
X154540825Y-108717715D01*
X154524201Y-108727679D01*
X154506680Y-108735966D01*
X154488431Y-108742496D01*
X154469630Y-108747205D01*
X154450458Y-108750049D01*
X154431100Y-108751000D01*
X154036100Y-108751000D01*
X154016742Y-108750049D01*
X153997570Y-108747205D01*
X153978769Y-108742496D01*
X153960520Y-108735966D01*
X153942999Y-108727679D01*
X153926375Y-108717715D01*
X153910807Y-108706170D01*
X153896446Y-108693154D01*
X153883430Y-108678793D01*
X153871885Y-108663225D01*
X153861921Y-108646601D01*
X153853634Y-108629080D01*
X153847104Y-108610831D01*
X153842395Y-108592030D01*
X153839551Y-108572858D01*
X153838600Y-108553500D01*
X153838600Y-108108500D01*
X153839551Y-108089142D01*
X153842395Y-108069970D01*
X153847104Y-108051169D01*
X153853634Y-108032920D01*
X153861921Y-108015399D01*
X153871885Y-107998775D01*
X153883430Y-107983207D01*
X153896446Y-107968846D01*
X153910807Y-107955830D01*
X153926375Y-107944285D01*
X153942999Y-107934321D01*
X153960520Y-107926034D01*
X153978769Y-107919504D01*
X153997570Y-107914795D01*
X154016742Y-107911951D01*
X154036100Y-107911000D01*
X154431100Y-107911000D01*
X154450458Y-107911951D01*
X154450458Y-107911951D01*
G37*
D14*
X154233600Y-108331000D03*
G04 #@! TD*
D13*
G04 #@! TO.C,C5*
G36*
X162522858Y-100291951D02*
X162542030Y-100294795D01*
X162560831Y-100299504D01*
X162579080Y-100306034D01*
X162596601Y-100314321D01*
X162613225Y-100324285D01*
X162628793Y-100335830D01*
X162643154Y-100348846D01*
X162656170Y-100363207D01*
X162667715Y-100378775D01*
X162677679Y-100395399D01*
X162685966Y-100412920D01*
X162692496Y-100431169D01*
X162697205Y-100449970D01*
X162700049Y-100469142D01*
X162701000Y-100488500D01*
X162701000Y-100933500D01*
X162700049Y-100952858D01*
X162697205Y-100972030D01*
X162692496Y-100990831D01*
X162685966Y-101009080D01*
X162677679Y-101026601D01*
X162667715Y-101043225D01*
X162656170Y-101058793D01*
X162643154Y-101073154D01*
X162628793Y-101086170D01*
X162613225Y-101097715D01*
X162596601Y-101107679D01*
X162579080Y-101115966D01*
X162560831Y-101122496D01*
X162542030Y-101127205D01*
X162522858Y-101130049D01*
X162503500Y-101131000D01*
X162108500Y-101131000D01*
X162089142Y-101130049D01*
X162069970Y-101127205D01*
X162051169Y-101122496D01*
X162032920Y-101115966D01*
X162015399Y-101107679D01*
X161998775Y-101097715D01*
X161983207Y-101086170D01*
X161968846Y-101073154D01*
X161955830Y-101058793D01*
X161944285Y-101043225D01*
X161934321Y-101026601D01*
X161926034Y-101009080D01*
X161919504Y-100990831D01*
X161914795Y-100972030D01*
X161911951Y-100952858D01*
X161911000Y-100933500D01*
X161911000Y-100488500D01*
X161911951Y-100469142D01*
X161914795Y-100449970D01*
X161919504Y-100431169D01*
X161926034Y-100412920D01*
X161934321Y-100395399D01*
X161944285Y-100378775D01*
X161955830Y-100363207D01*
X161968846Y-100348846D01*
X161983207Y-100335830D01*
X161998775Y-100324285D01*
X162015399Y-100314321D01*
X162032920Y-100306034D01*
X162051169Y-100299504D01*
X162069970Y-100294795D01*
X162089142Y-100291951D01*
X162108500Y-100291000D01*
X162503500Y-100291000D01*
X162522858Y-100291951D01*
X162522858Y-100291951D01*
G37*
D14*
X162306000Y-100711000D03*
D13*
G36*
X161552858Y-100291951D02*
X161572030Y-100294795D01*
X161590831Y-100299504D01*
X161609080Y-100306034D01*
X161626601Y-100314321D01*
X161643225Y-100324285D01*
X161658793Y-100335830D01*
X161673154Y-100348846D01*
X161686170Y-100363207D01*
X161697715Y-100378775D01*
X161707679Y-100395399D01*
X161715966Y-100412920D01*
X161722496Y-100431169D01*
X161727205Y-100449970D01*
X161730049Y-100469142D01*
X161731000Y-100488500D01*
X161731000Y-100933500D01*
X161730049Y-100952858D01*
X161727205Y-100972030D01*
X161722496Y-100990831D01*
X161715966Y-101009080D01*
X161707679Y-101026601D01*
X161697715Y-101043225D01*
X161686170Y-101058793D01*
X161673154Y-101073154D01*
X161658793Y-101086170D01*
X161643225Y-101097715D01*
X161626601Y-101107679D01*
X161609080Y-101115966D01*
X161590831Y-101122496D01*
X161572030Y-101127205D01*
X161552858Y-101130049D01*
X161533500Y-101131000D01*
X161138500Y-101131000D01*
X161119142Y-101130049D01*
X161099970Y-101127205D01*
X161081169Y-101122496D01*
X161062920Y-101115966D01*
X161045399Y-101107679D01*
X161028775Y-101097715D01*
X161013207Y-101086170D01*
X160998846Y-101073154D01*
X160985830Y-101058793D01*
X160974285Y-101043225D01*
X160964321Y-101026601D01*
X160956034Y-101009080D01*
X160949504Y-100990831D01*
X160944795Y-100972030D01*
X160941951Y-100952858D01*
X160941000Y-100933500D01*
X160941000Y-100488500D01*
X160941951Y-100469142D01*
X160944795Y-100449970D01*
X160949504Y-100431169D01*
X160956034Y-100412920D01*
X160964321Y-100395399D01*
X160974285Y-100378775D01*
X160985830Y-100363207D01*
X160998846Y-100348846D01*
X161013207Y-100335830D01*
X161028775Y-100324285D01*
X161045399Y-100314321D01*
X161062920Y-100306034D01*
X161081169Y-100299504D01*
X161099970Y-100294795D01*
X161119142Y-100291951D01*
X161138500Y-100291000D01*
X161533500Y-100291000D01*
X161552858Y-100291951D01*
X161552858Y-100291951D01*
G37*
D14*
X161336000Y-100711000D03*
G04 #@! TD*
D13*
G04 #@! TO.C,C6*
G36*
X162522858Y-106006951D02*
X162542030Y-106009795D01*
X162560831Y-106014504D01*
X162579080Y-106021034D01*
X162596601Y-106029321D01*
X162613225Y-106039285D01*
X162628793Y-106050830D01*
X162643154Y-106063846D01*
X162656170Y-106078207D01*
X162667715Y-106093775D01*
X162677679Y-106110399D01*
X162685966Y-106127920D01*
X162692496Y-106146169D01*
X162697205Y-106164970D01*
X162700049Y-106184142D01*
X162701000Y-106203500D01*
X162701000Y-106648500D01*
X162700049Y-106667858D01*
X162697205Y-106687030D01*
X162692496Y-106705831D01*
X162685966Y-106724080D01*
X162677679Y-106741601D01*
X162667715Y-106758225D01*
X162656170Y-106773793D01*
X162643154Y-106788154D01*
X162628793Y-106801170D01*
X162613225Y-106812715D01*
X162596601Y-106822679D01*
X162579080Y-106830966D01*
X162560831Y-106837496D01*
X162542030Y-106842205D01*
X162522858Y-106845049D01*
X162503500Y-106846000D01*
X162108500Y-106846000D01*
X162089142Y-106845049D01*
X162069970Y-106842205D01*
X162051169Y-106837496D01*
X162032920Y-106830966D01*
X162015399Y-106822679D01*
X161998775Y-106812715D01*
X161983207Y-106801170D01*
X161968846Y-106788154D01*
X161955830Y-106773793D01*
X161944285Y-106758225D01*
X161934321Y-106741601D01*
X161926034Y-106724080D01*
X161919504Y-106705831D01*
X161914795Y-106687030D01*
X161911951Y-106667858D01*
X161911000Y-106648500D01*
X161911000Y-106203500D01*
X161911951Y-106184142D01*
X161914795Y-106164970D01*
X161919504Y-106146169D01*
X161926034Y-106127920D01*
X161934321Y-106110399D01*
X161944285Y-106093775D01*
X161955830Y-106078207D01*
X161968846Y-106063846D01*
X161983207Y-106050830D01*
X161998775Y-106039285D01*
X162015399Y-106029321D01*
X162032920Y-106021034D01*
X162051169Y-106014504D01*
X162069970Y-106009795D01*
X162089142Y-106006951D01*
X162108500Y-106006000D01*
X162503500Y-106006000D01*
X162522858Y-106006951D01*
X162522858Y-106006951D01*
G37*
D14*
X162306000Y-106426000D03*
D13*
G36*
X161552858Y-106006951D02*
X161572030Y-106009795D01*
X161590831Y-106014504D01*
X161609080Y-106021034D01*
X161626601Y-106029321D01*
X161643225Y-106039285D01*
X161658793Y-106050830D01*
X161673154Y-106063846D01*
X161686170Y-106078207D01*
X161697715Y-106093775D01*
X161707679Y-106110399D01*
X161715966Y-106127920D01*
X161722496Y-106146169D01*
X161727205Y-106164970D01*
X161730049Y-106184142D01*
X161731000Y-106203500D01*
X161731000Y-106648500D01*
X161730049Y-106667858D01*
X161727205Y-106687030D01*
X161722496Y-106705831D01*
X161715966Y-106724080D01*
X161707679Y-106741601D01*
X161697715Y-106758225D01*
X161686170Y-106773793D01*
X161673154Y-106788154D01*
X161658793Y-106801170D01*
X161643225Y-106812715D01*
X161626601Y-106822679D01*
X161609080Y-106830966D01*
X161590831Y-106837496D01*
X161572030Y-106842205D01*
X161552858Y-106845049D01*
X161533500Y-106846000D01*
X161138500Y-106846000D01*
X161119142Y-106845049D01*
X161099970Y-106842205D01*
X161081169Y-106837496D01*
X161062920Y-106830966D01*
X161045399Y-106822679D01*
X161028775Y-106812715D01*
X161013207Y-106801170D01*
X160998846Y-106788154D01*
X160985830Y-106773793D01*
X160974285Y-106758225D01*
X160964321Y-106741601D01*
X160956034Y-106724080D01*
X160949504Y-106705831D01*
X160944795Y-106687030D01*
X160941951Y-106667858D01*
X160941000Y-106648500D01*
X160941000Y-106203500D01*
X160941951Y-106184142D01*
X160944795Y-106164970D01*
X160949504Y-106146169D01*
X160956034Y-106127920D01*
X160964321Y-106110399D01*
X160974285Y-106093775D01*
X160985830Y-106078207D01*
X160998846Y-106063846D01*
X161013207Y-106050830D01*
X161028775Y-106039285D01*
X161045399Y-106029321D01*
X161062920Y-106021034D01*
X161081169Y-106014504D01*
X161099970Y-106009795D01*
X161119142Y-106006951D01*
X161138500Y-106006000D01*
X161533500Y-106006000D01*
X161552858Y-106006951D01*
X161552858Y-106006951D01*
G37*
D14*
X161336000Y-106426000D03*
G04 #@! TD*
D13*
G04 #@! TO.C,C7*
G36*
X161552858Y-97751951D02*
X161572030Y-97754795D01*
X161590831Y-97759504D01*
X161609080Y-97766034D01*
X161626601Y-97774321D01*
X161643225Y-97784285D01*
X161658793Y-97795830D01*
X161673154Y-97808846D01*
X161686170Y-97823207D01*
X161697715Y-97838775D01*
X161707679Y-97855399D01*
X161715966Y-97872920D01*
X161722496Y-97891169D01*
X161727205Y-97909970D01*
X161730049Y-97929142D01*
X161731000Y-97948500D01*
X161731000Y-98393500D01*
X161730049Y-98412858D01*
X161727205Y-98432030D01*
X161722496Y-98450831D01*
X161715966Y-98469080D01*
X161707679Y-98486601D01*
X161697715Y-98503225D01*
X161686170Y-98518793D01*
X161673154Y-98533154D01*
X161658793Y-98546170D01*
X161643225Y-98557715D01*
X161626601Y-98567679D01*
X161609080Y-98575966D01*
X161590831Y-98582496D01*
X161572030Y-98587205D01*
X161552858Y-98590049D01*
X161533500Y-98591000D01*
X161138500Y-98591000D01*
X161119142Y-98590049D01*
X161099970Y-98587205D01*
X161081169Y-98582496D01*
X161062920Y-98575966D01*
X161045399Y-98567679D01*
X161028775Y-98557715D01*
X161013207Y-98546170D01*
X160998846Y-98533154D01*
X160985830Y-98518793D01*
X160974285Y-98503225D01*
X160964321Y-98486601D01*
X160956034Y-98469080D01*
X160949504Y-98450831D01*
X160944795Y-98432030D01*
X160941951Y-98412858D01*
X160941000Y-98393500D01*
X160941000Y-97948500D01*
X160941951Y-97929142D01*
X160944795Y-97909970D01*
X160949504Y-97891169D01*
X160956034Y-97872920D01*
X160964321Y-97855399D01*
X160974285Y-97838775D01*
X160985830Y-97823207D01*
X160998846Y-97808846D01*
X161013207Y-97795830D01*
X161028775Y-97784285D01*
X161045399Y-97774321D01*
X161062920Y-97766034D01*
X161081169Y-97759504D01*
X161099970Y-97754795D01*
X161119142Y-97751951D01*
X161138500Y-97751000D01*
X161533500Y-97751000D01*
X161552858Y-97751951D01*
X161552858Y-97751951D01*
G37*
D14*
X161336000Y-98171000D03*
D13*
G36*
X162522858Y-97751951D02*
X162542030Y-97754795D01*
X162560831Y-97759504D01*
X162579080Y-97766034D01*
X162596601Y-97774321D01*
X162613225Y-97784285D01*
X162628793Y-97795830D01*
X162643154Y-97808846D01*
X162656170Y-97823207D01*
X162667715Y-97838775D01*
X162677679Y-97855399D01*
X162685966Y-97872920D01*
X162692496Y-97891169D01*
X162697205Y-97909970D01*
X162700049Y-97929142D01*
X162701000Y-97948500D01*
X162701000Y-98393500D01*
X162700049Y-98412858D01*
X162697205Y-98432030D01*
X162692496Y-98450831D01*
X162685966Y-98469080D01*
X162677679Y-98486601D01*
X162667715Y-98503225D01*
X162656170Y-98518793D01*
X162643154Y-98533154D01*
X162628793Y-98546170D01*
X162613225Y-98557715D01*
X162596601Y-98567679D01*
X162579080Y-98575966D01*
X162560831Y-98582496D01*
X162542030Y-98587205D01*
X162522858Y-98590049D01*
X162503500Y-98591000D01*
X162108500Y-98591000D01*
X162089142Y-98590049D01*
X162069970Y-98587205D01*
X162051169Y-98582496D01*
X162032920Y-98575966D01*
X162015399Y-98567679D01*
X161998775Y-98557715D01*
X161983207Y-98546170D01*
X161968846Y-98533154D01*
X161955830Y-98518793D01*
X161944285Y-98503225D01*
X161934321Y-98486601D01*
X161926034Y-98469080D01*
X161919504Y-98450831D01*
X161914795Y-98432030D01*
X161911951Y-98412858D01*
X161911000Y-98393500D01*
X161911000Y-97948500D01*
X161911951Y-97929142D01*
X161914795Y-97909970D01*
X161919504Y-97891169D01*
X161926034Y-97872920D01*
X161934321Y-97855399D01*
X161944285Y-97838775D01*
X161955830Y-97823207D01*
X161968846Y-97808846D01*
X161983207Y-97795830D01*
X161998775Y-97784285D01*
X162015399Y-97774321D01*
X162032920Y-97766034D01*
X162051169Y-97759504D01*
X162069970Y-97754795D01*
X162089142Y-97751951D01*
X162108500Y-97751000D01*
X162503500Y-97751000D01*
X162522858Y-97751951D01*
X162522858Y-97751951D01*
G37*
D14*
X162306000Y-98171000D03*
G04 #@! TD*
D13*
G04 #@! TO.C,C8*
G36*
X161552858Y-103466951D02*
X161572030Y-103469795D01*
X161590831Y-103474504D01*
X161609080Y-103481034D01*
X161626601Y-103489321D01*
X161643225Y-103499285D01*
X161658793Y-103510830D01*
X161673154Y-103523846D01*
X161686170Y-103538207D01*
X161697715Y-103553775D01*
X161707679Y-103570399D01*
X161715966Y-103587920D01*
X161722496Y-103606169D01*
X161727205Y-103624970D01*
X161730049Y-103644142D01*
X161731000Y-103663500D01*
X161731000Y-104108500D01*
X161730049Y-104127858D01*
X161727205Y-104147030D01*
X161722496Y-104165831D01*
X161715966Y-104184080D01*
X161707679Y-104201601D01*
X161697715Y-104218225D01*
X161686170Y-104233793D01*
X161673154Y-104248154D01*
X161658793Y-104261170D01*
X161643225Y-104272715D01*
X161626601Y-104282679D01*
X161609080Y-104290966D01*
X161590831Y-104297496D01*
X161572030Y-104302205D01*
X161552858Y-104305049D01*
X161533500Y-104306000D01*
X161138500Y-104306000D01*
X161119142Y-104305049D01*
X161099970Y-104302205D01*
X161081169Y-104297496D01*
X161062920Y-104290966D01*
X161045399Y-104282679D01*
X161028775Y-104272715D01*
X161013207Y-104261170D01*
X160998846Y-104248154D01*
X160985830Y-104233793D01*
X160974285Y-104218225D01*
X160964321Y-104201601D01*
X160956034Y-104184080D01*
X160949504Y-104165831D01*
X160944795Y-104147030D01*
X160941951Y-104127858D01*
X160941000Y-104108500D01*
X160941000Y-103663500D01*
X160941951Y-103644142D01*
X160944795Y-103624970D01*
X160949504Y-103606169D01*
X160956034Y-103587920D01*
X160964321Y-103570399D01*
X160974285Y-103553775D01*
X160985830Y-103538207D01*
X160998846Y-103523846D01*
X161013207Y-103510830D01*
X161028775Y-103499285D01*
X161045399Y-103489321D01*
X161062920Y-103481034D01*
X161081169Y-103474504D01*
X161099970Y-103469795D01*
X161119142Y-103466951D01*
X161138500Y-103466000D01*
X161533500Y-103466000D01*
X161552858Y-103466951D01*
X161552858Y-103466951D01*
G37*
D14*
X161336000Y-103886000D03*
D13*
G36*
X162522858Y-103466951D02*
X162542030Y-103469795D01*
X162560831Y-103474504D01*
X162579080Y-103481034D01*
X162596601Y-103489321D01*
X162613225Y-103499285D01*
X162628793Y-103510830D01*
X162643154Y-103523846D01*
X162656170Y-103538207D01*
X162667715Y-103553775D01*
X162677679Y-103570399D01*
X162685966Y-103587920D01*
X162692496Y-103606169D01*
X162697205Y-103624970D01*
X162700049Y-103644142D01*
X162701000Y-103663500D01*
X162701000Y-104108500D01*
X162700049Y-104127858D01*
X162697205Y-104147030D01*
X162692496Y-104165831D01*
X162685966Y-104184080D01*
X162677679Y-104201601D01*
X162667715Y-104218225D01*
X162656170Y-104233793D01*
X162643154Y-104248154D01*
X162628793Y-104261170D01*
X162613225Y-104272715D01*
X162596601Y-104282679D01*
X162579080Y-104290966D01*
X162560831Y-104297496D01*
X162542030Y-104302205D01*
X162522858Y-104305049D01*
X162503500Y-104306000D01*
X162108500Y-104306000D01*
X162089142Y-104305049D01*
X162069970Y-104302205D01*
X162051169Y-104297496D01*
X162032920Y-104290966D01*
X162015399Y-104282679D01*
X161998775Y-104272715D01*
X161983207Y-104261170D01*
X161968846Y-104248154D01*
X161955830Y-104233793D01*
X161944285Y-104218225D01*
X161934321Y-104201601D01*
X161926034Y-104184080D01*
X161919504Y-104165831D01*
X161914795Y-104147030D01*
X161911951Y-104127858D01*
X161911000Y-104108500D01*
X161911000Y-103663500D01*
X161911951Y-103644142D01*
X161914795Y-103624970D01*
X161919504Y-103606169D01*
X161926034Y-103587920D01*
X161934321Y-103570399D01*
X161944285Y-103553775D01*
X161955830Y-103538207D01*
X161968846Y-103523846D01*
X161983207Y-103510830D01*
X161998775Y-103499285D01*
X162015399Y-103489321D01*
X162032920Y-103481034D01*
X162051169Y-103474504D01*
X162069970Y-103469795D01*
X162089142Y-103466951D01*
X162108500Y-103466000D01*
X162503500Y-103466000D01*
X162522858Y-103466951D01*
X162522858Y-103466951D01*
G37*
D14*
X162306000Y-103886000D03*
G04 #@! TD*
D13*
G04 #@! TO.C,C11*
G36*
X151219858Y-126707951D02*
X151239030Y-126710795D01*
X151257831Y-126715504D01*
X151276080Y-126722034D01*
X151293601Y-126730321D01*
X151310225Y-126740285D01*
X151325793Y-126751830D01*
X151340154Y-126764846D01*
X151353170Y-126779207D01*
X151364715Y-126794775D01*
X151374679Y-126811399D01*
X151382966Y-126828920D01*
X151389496Y-126847169D01*
X151394205Y-126865970D01*
X151397049Y-126885142D01*
X151398000Y-126904500D01*
X151398000Y-127349500D01*
X151397049Y-127368858D01*
X151394205Y-127388030D01*
X151389496Y-127406831D01*
X151382966Y-127425080D01*
X151374679Y-127442601D01*
X151364715Y-127459225D01*
X151353170Y-127474793D01*
X151340154Y-127489154D01*
X151325793Y-127502170D01*
X151310225Y-127513715D01*
X151293601Y-127523679D01*
X151276080Y-127531966D01*
X151257831Y-127538496D01*
X151239030Y-127543205D01*
X151219858Y-127546049D01*
X151200500Y-127547000D01*
X150805500Y-127547000D01*
X150786142Y-127546049D01*
X150766970Y-127543205D01*
X150748169Y-127538496D01*
X150729920Y-127531966D01*
X150712399Y-127523679D01*
X150695775Y-127513715D01*
X150680207Y-127502170D01*
X150665846Y-127489154D01*
X150652830Y-127474793D01*
X150641285Y-127459225D01*
X150631321Y-127442601D01*
X150623034Y-127425080D01*
X150616504Y-127406831D01*
X150611795Y-127388030D01*
X150608951Y-127368858D01*
X150608000Y-127349500D01*
X150608000Y-126904500D01*
X150608951Y-126885142D01*
X150611795Y-126865970D01*
X150616504Y-126847169D01*
X150623034Y-126828920D01*
X150631321Y-126811399D01*
X150641285Y-126794775D01*
X150652830Y-126779207D01*
X150665846Y-126764846D01*
X150680207Y-126751830D01*
X150695775Y-126740285D01*
X150712399Y-126730321D01*
X150729920Y-126722034D01*
X150748169Y-126715504D01*
X150766970Y-126710795D01*
X150786142Y-126707951D01*
X150805500Y-126707000D01*
X151200500Y-126707000D01*
X151219858Y-126707951D01*
X151219858Y-126707951D01*
G37*
D14*
X151003000Y-127127000D03*
D13*
G36*
X152189858Y-126707951D02*
X152209030Y-126710795D01*
X152227831Y-126715504D01*
X152246080Y-126722034D01*
X152263601Y-126730321D01*
X152280225Y-126740285D01*
X152295793Y-126751830D01*
X152310154Y-126764846D01*
X152323170Y-126779207D01*
X152334715Y-126794775D01*
X152344679Y-126811399D01*
X152352966Y-126828920D01*
X152359496Y-126847169D01*
X152364205Y-126865970D01*
X152367049Y-126885142D01*
X152368000Y-126904500D01*
X152368000Y-127349500D01*
X152367049Y-127368858D01*
X152364205Y-127388030D01*
X152359496Y-127406831D01*
X152352966Y-127425080D01*
X152344679Y-127442601D01*
X152334715Y-127459225D01*
X152323170Y-127474793D01*
X152310154Y-127489154D01*
X152295793Y-127502170D01*
X152280225Y-127513715D01*
X152263601Y-127523679D01*
X152246080Y-127531966D01*
X152227831Y-127538496D01*
X152209030Y-127543205D01*
X152189858Y-127546049D01*
X152170500Y-127547000D01*
X151775500Y-127547000D01*
X151756142Y-127546049D01*
X151736970Y-127543205D01*
X151718169Y-127538496D01*
X151699920Y-127531966D01*
X151682399Y-127523679D01*
X151665775Y-127513715D01*
X151650207Y-127502170D01*
X151635846Y-127489154D01*
X151622830Y-127474793D01*
X151611285Y-127459225D01*
X151601321Y-127442601D01*
X151593034Y-127425080D01*
X151586504Y-127406831D01*
X151581795Y-127388030D01*
X151578951Y-127368858D01*
X151578000Y-127349500D01*
X151578000Y-126904500D01*
X151578951Y-126885142D01*
X151581795Y-126865970D01*
X151586504Y-126847169D01*
X151593034Y-126828920D01*
X151601321Y-126811399D01*
X151611285Y-126794775D01*
X151622830Y-126779207D01*
X151635846Y-126764846D01*
X151650207Y-126751830D01*
X151665775Y-126740285D01*
X151682399Y-126730321D01*
X151699920Y-126722034D01*
X151718169Y-126715504D01*
X151736970Y-126710795D01*
X151756142Y-126707951D01*
X151775500Y-126707000D01*
X152170500Y-126707000D01*
X152189858Y-126707951D01*
X152189858Y-126707951D01*
G37*
D14*
X151973000Y-127127000D03*
G04 #@! TD*
D13*
G04 #@! TO.C,C12*
G36*
X152514858Y-117588951D02*
X152534030Y-117591795D01*
X152552831Y-117596504D01*
X152571080Y-117603034D01*
X152588601Y-117611321D01*
X152605225Y-117621285D01*
X152620793Y-117632830D01*
X152635154Y-117645846D01*
X152648170Y-117660207D01*
X152659715Y-117675775D01*
X152669679Y-117692399D01*
X152677966Y-117709920D01*
X152684496Y-117728169D01*
X152689205Y-117746970D01*
X152692049Y-117766142D01*
X152693000Y-117785500D01*
X152693000Y-118180500D01*
X152692049Y-118199858D01*
X152689205Y-118219030D01*
X152684496Y-118237831D01*
X152677966Y-118256080D01*
X152669679Y-118273601D01*
X152659715Y-118290225D01*
X152648170Y-118305793D01*
X152635154Y-118320154D01*
X152620793Y-118333170D01*
X152605225Y-118344715D01*
X152588601Y-118354679D01*
X152571080Y-118362966D01*
X152552831Y-118369496D01*
X152534030Y-118374205D01*
X152514858Y-118377049D01*
X152495500Y-118378000D01*
X152050500Y-118378000D01*
X152031142Y-118377049D01*
X152011970Y-118374205D01*
X151993169Y-118369496D01*
X151974920Y-118362966D01*
X151957399Y-118354679D01*
X151940775Y-118344715D01*
X151925207Y-118333170D01*
X151910846Y-118320154D01*
X151897830Y-118305793D01*
X151886285Y-118290225D01*
X151876321Y-118273601D01*
X151868034Y-118256080D01*
X151861504Y-118237831D01*
X151856795Y-118219030D01*
X151853951Y-118199858D01*
X151853000Y-118180500D01*
X151853000Y-117785500D01*
X151853951Y-117766142D01*
X151856795Y-117746970D01*
X151861504Y-117728169D01*
X151868034Y-117709920D01*
X151876321Y-117692399D01*
X151886285Y-117675775D01*
X151897830Y-117660207D01*
X151910846Y-117645846D01*
X151925207Y-117632830D01*
X151940775Y-117621285D01*
X151957399Y-117611321D01*
X151974920Y-117603034D01*
X151993169Y-117596504D01*
X152011970Y-117591795D01*
X152031142Y-117588951D01*
X152050500Y-117588000D01*
X152495500Y-117588000D01*
X152514858Y-117588951D01*
X152514858Y-117588951D01*
G37*
D14*
X152273000Y-117983000D03*
D13*
G36*
X152514858Y-116618951D02*
X152534030Y-116621795D01*
X152552831Y-116626504D01*
X152571080Y-116633034D01*
X152588601Y-116641321D01*
X152605225Y-116651285D01*
X152620793Y-116662830D01*
X152635154Y-116675846D01*
X152648170Y-116690207D01*
X152659715Y-116705775D01*
X152669679Y-116722399D01*
X152677966Y-116739920D01*
X152684496Y-116758169D01*
X152689205Y-116776970D01*
X152692049Y-116796142D01*
X152693000Y-116815500D01*
X152693000Y-117210500D01*
X152692049Y-117229858D01*
X152689205Y-117249030D01*
X152684496Y-117267831D01*
X152677966Y-117286080D01*
X152669679Y-117303601D01*
X152659715Y-117320225D01*
X152648170Y-117335793D01*
X152635154Y-117350154D01*
X152620793Y-117363170D01*
X152605225Y-117374715D01*
X152588601Y-117384679D01*
X152571080Y-117392966D01*
X152552831Y-117399496D01*
X152534030Y-117404205D01*
X152514858Y-117407049D01*
X152495500Y-117408000D01*
X152050500Y-117408000D01*
X152031142Y-117407049D01*
X152011970Y-117404205D01*
X151993169Y-117399496D01*
X151974920Y-117392966D01*
X151957399Y-117384679D01*
X151940775Y-117374715D01*
X151925207Y-117363170D01*
X151910846Y-117350154D01*
X151897830Y-117335793D01*
X151886285Y-117320225D01*
X151876321Y-117303601D01*
X151868034Y-117286080D01*
X151861504Y-117267831D01*
X151856795Y-117249030D01*
X151853951Y-117229858D01*
X151853000Y-117210500D01*
X151853000Y-116815500D01*
X151853951Y-116796142D01*
X151856795Y-116776970D01*
X151861504Y-116758169D01*
X151868034Y-116739920D01*
X151876321Y-116722399D01*
X151886285Y-116705775D01*
X151897830Y-116690207D01*
X151910846Y-116675846D01*
X151925207Y-116662830D01*
X151940775Y-116651285D01*
X151957399Y-116641321D01*
X151974920Y-116633034D01*
X151993169Y-116626504D01*
X152011970Y-116621795D01*
X152031142Y-116618951D01*
X152050500Y-116618000D01*
X152495500Y-116618000D01*
X152514858Y-116618951D01*
X152514858Y-116618951D01*
G37*
D14*
X152273000Y-117013000D03*
G04 #@! TD*
D13*
G04 #@! TO.C,C13*
G36*
X149974858Y-127702951D02*
X149994030Y-127705795D01*
X150012831Y-127710504D01*
X150031080Y-127717034D01*
X150048601Y-127725321D01*
X150065225Y-127735285D01*
X150080793Y-127746830D01*
X150095154Y-127759846D01*
X150108170Y-127774207D01*
X150119715Y-127789775D01*
X150129679Y-127806399D01*
X150137966Y-127823920D01*
X150144496Y-127842169D01*
X150149205Y-127860970D01*
X150152049Y-127880142D01*
X150153000Y-127899500D01*
X150153000Y-128294500D01*
X150152049Y-128313858D01*
X150149205Y-128333030D01*
X150144496Y-128351831D01*
X150137966Y-128370080D01*
X150129679Y-128387601D01*
X150119715Y-128404225D01*
X150108170Y-128419793D01*
X150095154Y-128434154D01*
X150080793Y-128447170D01*
X150065225Y-128458715D01*
X150048601Y-128468679D01*
X150031080Y-128476966D01*
X150012831Y-128483496D01*
X149994030Y-128488205D01*
X149974858Y-128491049D01*
X149955500Y-128492000D01*
X149510500Y-128492000D01*
X149491142Y-128491049D01*
X149471970Y-128488205D01*
X149453169Y-128483496D01*
X149434920Y-128476966D01*
X149417399Y-128468679D01*
X149400775Y-128458715D01*
X149385207Y-128447170D01*
X149370846Y-128434154D01*
X149357830Y-128419793D01*
X149346285Y-128404225D01*
X149336321Y-128387601D01*
X149328034Y-128370080D01*
X149321504Y-128351831D01*
X149316795Y-128333030D01*
X149313951Y-128313858D01*
X149313000Y-128294500D01*
X149313000Y-127899500D01*
X149313951Y-127880142D01*
X149316795Y-127860970D01*
X149321504Y-127842169D01*
X149328034Y-127823920D01*
X149336321Y-127806399D01*
X149346285Y-127789775D01*
X149357830Y-127774207D01*
X149370846Y-127759846D01*
X149385207Y-127746830D01*
X149400775Y-127735285D01*
X149417399Y-127725321D01*
X149434920Y-127717034D01*
X149453169Y-127710504D01*
X149471970Y-127705795D01*
X149491142Y-127702951D01*
X149510500Y-127702000D01*
X149955500Y-127702000D01*
X149974858Y-127702951D01*
X149974858Y-127702951D01*
G37*
D14*
X149733000Y-128097000D03*
D13*
G36*
X149974858Y-126732951D02*
X149994030Y-126735795D01*
X150012831Y-126740504D01*
X150031080Y-126747034D01*
X150048601Y-126755321D01*
X150065225Y-126765285D01*
X150080793Y-126776830D01*
X150095154Y-126789846D01*
X150108170Y-126804207D01*
X150119715Y-126819775D01*
X150129679Y-126836399D01*
X150137966Y-126853920D01*
X150144496Y-126872169D01*
X150149205Y-126890970D01*
X150152049Y-126910142D01*
X150153000Y-126929500D01*
X150153000Y-127324500D01*
X150152049Y-127343858D01*
X150149205Y-127363030D01*
X150144496Y-127381831D01*
X150137966Y-127400080D01*
X150129679Y-127417601D01*
X150119715Y-127434225D01*
X150108170Y-127449793D01*
X150095154Y-127464154D01*
X150080793Y-127477170D01*
X150065225Y-127488715D01*
X150048601Y-127498679D01*
X150031080Y-127506966D01*
X150012831Y-127513496D01*
X149994030Y-127518205D01*
X149974858Y-127521049D01*
X149955500Y-127522000D01*
X149510500Y-127522000D01*
X149491142Y-127521049D01*
X149471970Y-127518205D01*
X149453169Y-127513496D01*
X149434920Y-127506966D01*
X149417399Y-127498679D01*
X149400775Y-127488715D01*
X149385207Y-127477170D01*
X149370846Y-127464154D01*
X149357830Y-127449793D01*
X149346285Y-127434225D01*
X149336321Y-127417601D01*
X149328034Y-127400080D01*
X149321504Y-127381831D01*
X149316795Y-127363030D01*
X149313951Y-127343858D01*
X149313000Y-127324500D01*
X149313000Y-126929500D01*
X149313951Y-126910142D01*
X149316795Y-126890970D01*
X149321504Y-126872169D01*
X149328034Y-126853920D01*
X149336321Y-126836399D01*
X149346285Y-126819775D01*
X149357830Y-126804207D01*
X149370846Y-126789846D01*
X149385207Y-126776830D01*
X149400775Y-126765285D01*
X149417399Y-126755321D01*
X149434920Y-126747034D01*
X149453169Y-126740504D01*
X149471970Y-126735795D01*
X149491142Y-126732951D01*
X149510500Y-126732000D01*
X149955500Y-126732000D01*
X149974858Y-126732951D01*
X149974858Y-126732951D01*
G37*
D14*
X149733000Y-127127000D03*
G04 #@! TD*
D13*
G04 #@! TO.C,C14*
G36*
X151806092Y-131379294D02*
X151832181Y-131383164D01*
X151857764Y-131389572D01*
X151882596Y-131398457D01*
X151906438Y-131409734D01*
X151929060Y-131423293D01*
X151950243Y-131439003D01*
X151969785Y-131456715D01*
X151987497Y-131476257D01*
X152003207Y-131497440D01*
X152016766Y-131520062D01*
X152028043Y-131543904D01*
X152036928Y-131568736D01*
X152043336Y-131594319D01*
X152047206Y-131620408D01*
X152048500Y-131646750D01*
X152048500Y-132259250D01*
X152047206Y-132285592D01*
X152043336Y-132311681D01*
X152036928Y-132337264D01*
X152028043Y-132362096D01*
X152016766Y-132385938D01*
X152003207Y-132408560D01*
X151987497Y-132429743D01*
X151969785Y-132449285D01*
X151950243Y-132466997D01*
X151929060Y-132482707D01*
X151906438Y-132496266D01*
X151882596Y-132507543D01*
X151857764Y-132516428D01*
X151832181Y-132522836D01*
X151806092Y-132526706D01*
X151779750Y-132528000D01*
X151242250Y-132528000D01*
X151215908Y-132526706D01*
X151189819Y-132522836D01*
X151164236Y-132516428D01*
X151139404Y-132507543D01*
X151115562Y-132496266D01*
X151092940Y-132482707D01*
X151071757Y-132466997D01*
X151052215Y-132449285D01*
X151034503Y-132429743D01*
X151018793Y-132408560D01*
X151005234Y-132385938D01*
X150993957Y-132362096D01*
X150985072Y-132337264D01*
X150978664Y-132311681D01*
X150974794Y-132285592D01*
X150973500Y-132259250D01*
X150973500Y-131646750D01*
X150974794Y-131620408D01*
X150978664Y-131594319D01*
X150985072Y-131568736D01*
X150993957Y-131543904D01*
X151005234Y-131520062D01*
X151018793Y-131497440D01*
X151034503Y-131476257D01*
X151052215Y-131456715D01*
X151071757Y-131439003D01*
X151092940Y-131423293D01*
X151115562Y-131409734D01*
X151139404Y-131398457D01*
X151164236Y-131389572D01*
X151189819Y-131383164D01*
X151215908Y-131379294D01*
X151242250Y-131378000D01*
X151779750Y-131378000D01*
X151806092Y-131379294D01*
X151806092Y-131379294D01*
G37*
D15*
X151511000Y-131953000D03*
D13*
G36*
X150231092Y-131379294D02*
X150257181Y-131383164D01*
X150282764Y-131389572D01*
X150307596Y-131398457D01*
X150331438Y-131409734D01*
X150354060Y-131423293D01*
X150375243Y-131439003D01*
X150394785Y-131456715D01*
X150412497Y-131476257D01*
X150428207Y-131497440D01*
X150441766Y-131520062D01*
X150453043Y-131543904D01*
X150461928Y-131568736D01*
X150468336Y-131594319D01*
X150472206Y-131620408D01*
X150473500Y-131646750D01*
X150473500Y-132259250D01*
X150472206Y-132285592D01*
X150468336Y-132311681D01*
X150461928Y-132337264D01*
X150453043Y-132362096D01*
X150441766Y-132385938D01*
X150428207Y-132408560D01*
X150412497Y-132429743D01*
X150394785Y-132449285D01*
X150375243Y-132466997D01*
X150354060Y-132482707D01*
X150331438Y-132496266D01*
X150307596Y-132507543D01*
X150282764Y-132516428D01*
X150257181Y-132522836D01*
X150231092Y-132526706D01*
X150204750Y-132528000D01*
X149667250Y-132528000D01*
X149640908Y-132526706D01*
X149614819Y-132522836D01*
X149589236Y-132516428D01*
X149564404Y-132507543D01*
X149540562Y-132496266D01*
X149517940Y-132482707D01*
X149496757Y-132466997D01*
X149477215Y-132449285D01*
X149459503Y-132429743D01*
X149443793Y-132408560D01*
X149430234Y-132385938D01*
X149418957Y-132362096D01*
X149410072Y-132337264D01*
X149403664Y-132311681D01*
X149399794Y-132285592D01*
X149398500Y-132259250D01*
X149398500Y-131646750D01*
X149399794Y-131620408D01*
X149403664Y-131594319D01*
X149410072Y-131568736D01*
X149418957Y-131543904D01*
X149430234Y-131520062D01*
X149443793Y-131497440D01*
X149459503Y-131476257D01*
X149477215Y-131456715D01*
X149496757Y-131439003D01*
X149517940Y-131423293D01*
X149540562Y-131409734D01*
X149564404Y-131398457D01*
X149589236Y-131389572D01*
X149614819Y-131383164D01*
X149640908Y-131379294D01*
X149667250Y-131378000D01*
X150204750Y-131378000D01*
X150231092Y-131379294D01*
X150231092Y-131379294D01*
G37*
D15*
X149936000Y-131953000D03*
G04 #@! TD*
D13*
G04 #@! TO.C,D4*
G36*
X151806092Y-129347294D02*
X151832181Y-129351164D01*
X151857764Y-129357572D01*
X151882596Y-129366457D01*
X151906438Y-129377734D01*
X151929060Y-129391293D01*
X151950243Y-129407003D01*
X151969785Y-129424715D01*
X151987497Y-129444257D01*
X152003207Y-129465440D01*
X152016766Y-129488062D01*
X152028043Y-129511904D01*
X152036928Y-129536736D01*
X152043336Y-129562319D01*
X152047206Y-129588408D01*
X152048500Y-129614750D01*
X152048500Y-130227250D01*
X152047206Y-130253592D01*
X152043336Y-130279681D01*
X152036928Y-130305264D01*
X152028043Y-130330096D01*
X152016766Y-130353938D01*
X152003207Y-130376560D01*
X151987497Y-130397743D01*
X151969785Y-130417285D01*
X151950243Y-130434997D01*
X151929060Y-130450707D01*
X151906438Y-130464266D01*
X151882596Y-130475543D01*
X151857764Y-130484428D01*
X151832181Y-130490836D01*
X151806092Y-130494706D01*
X151779750Y-130496000D01*
X151242250Y-130496000D01*
X151215908Y-130494706D01*
X151189819Y-130490836D01*
X151164236Y-130484428D01*
X151139404Y-130475543D01*
X151115562Y-130464266D01*
X151092940Y-130450707D01*
X151071757Y-130434997D01*
X151052215Y-130417285D01*
X151034503Y-130397743D01*
X151018793Y-130376560D01*
X151005234Y-130353938D01*
X150993957Y-130330096D01*
X150985072Y-130305264D01*
X150978664Y-130279681D01*
X150974794Y-130253592D01*
X150973500Y-130227250D01*
X150973500Y-129614750D01*
X150974794Y-129588408D01*
X150978664Y-129562319D01*
X150985072Y-129536736D01*
X150993957Y-129511904D01*
X151005234Y-129488062D01*
X151018793Y-129465440D01*
X151034503Y-129444257D01*
X151052215Y-129424715D01*
X151071757Y-129407003D01*
X151092940Y-129391293D01*
X151115562Y-129377734D01*
X151139404Y-129366457D01*
X151164236Y-129357572D01*
X151189819Y-129351164D01*
X151215908Y-129347294D01*
X151242250Y-129346000D01*
X151779750Y-129346000D01*
X151806092Y-129347294D01*
X151806092Y-129347294D01*
G37*
D15*
X151511000Y-129921000D03*
D13*
G36*
X150231092Y-129347294D02*
X150257181Y-129351164D01*
X150282764Y-129357572D01*
X150307596Y-129366457D01*
X150331438Y-129377734D01*
X150354060Y-129391293D01*
X150375243Y-129407003D01*
X150394785Y-129424715D01*
X150412497Y-129444257D01*
X150428207Y-129465440D01*
X150441766Y-129488062D01*
X150453043Y-129511904D01*
X150461928Y-129536736D01*
X150468336Y-129562319D01*
X150472206Y-129588408D01*
X150473500Y-129614750D01*
X150473500Y-130227250D01*
X150472206Y-130253592D01*
X150468336Y-130279681D01*
X150461928Y-130305264D01*
X150453043Y-130330096D01*
X150441766Y-130353938D01*
X150428207Y-130376560D01*
X150412497Y-130397743D01*
X150394785Y-130417285D01*
X150375243Y-130434997D01*
X150354060Y-130450707D01*
X150331438Y-130464266D01*
X150307596Y-130475543D01*
X150282764Y-130484428D01*
X150257181Y-130490836D01*
X150231092Y-130494706D01*
X150204750Y-130496000D01*
X149667250Y-130496000D01*
X149640908Y-130494706D01*
X149614819Y-130490836D01*
X149589236Y-130484428D01*
X149564404Y-130475543D01*
X149540562Y-130464266D01*
X149517940Y-130450707D01*
X149496757Y-130434997D01*
X149477215Y-130417285D01*
X149459503Y-130397743D01*
X149443793Y-130376560D01*
X149430234Y-130353938D01*
X149418957Y-130330096D01*
X149410072Y-130305264D01*
X149403664Y-130279681D01*
X149399794Y-130253592D01*
X149398500Y-130227250D01*
X149398500Y-129614750D01*
X149399794Y-129588408D01*
X149403664Y-129562319D01*
X149410072Y-129536736D01*
X149418957Y-129511904D01*
X149430234Y-129488062D01*
X149443793Y-129465440D01*
X149459503Y-129444257D01*
X149477215Y-129424715D01*
X149496757Y-129407003D01*
X149517940Y-129391293D01*
X149540562Y-129377734D01*
X149564404Y-129366457D01*
X149589236Y-129357572D01*
X149614819Y-129351164D01*
X149640908Y-129347294D01*
X149667250Y-129346000D01*
X150204750Y-129346000D01*
X150231092Y-129347294D01*
X150231092Y-129347294D01*
G37*
D15*
X149936000Y-129921000D03*
G04 #@! TD*
D13*
G04 #@! TO.C,L1*
G36*
X153457092Y-129347294D02*
X153483181Y-129351164D01*
X153508764Y-129357572D01*
X153533596Y-129366457D01*
X153557438Y-129377734D01*
X153580060Y-129391293D01*
X153601243Y-129407003D01*
X153620785Y-129424715D01*
X153638497Y-129444257D01*
X153654207Y-129465440D01*
X153667766Y-129488062D01*
X153679043Y-129511904D01*
X153687928Y-129536736D01*
X153694336Y-129562319D01*
X153698206Y-129588408D01*
X153699500Y-129614750D01*
X153699500Y-130227250D01*
X153698206Y-130253592D01*
X153694336Y-130279681D01*
X153687928Y-130305264D01*
X153679043Y-130330096D01*
X153667766Y-130353938D01*
X153654207Y-130376560D01*
X153638497Y-130397743D01*
X153620785Y-130417285D01*
X153601243Y-130434997D01*
X153580060Y-130450707D01*
X153557438Y-130464266D01*
X153533596Y-130475543D01*
X153508764Y-130484428D01*
X153483181Y-130490836D01*
X153457092Y-130494706D01*
X153430750Y-130496000D01*
X152893250Y-130496000D01*
X152866908Y-130494706D01*
X152840819Y-130490836D01*
X152815236Y-130484428D01*
X152790404Y-130475543D01*
X152766562Y-130464266D01*
X152743940Y-130450707D01*
X152722757Y-130434997D01*
X152703215Y-130417285D01*
X152685503Y-130397743D01*
X152669793Y-130376560D01*
X152656234Y-130353938D01*
X152644957Y-130330096D01*
X152636072Y-130305264D01*
X152629664Y-130279681D01*
X152625794Y-130253592D01*
X152624500Y-130227250D01*
X152624500Y-129614750D01*
X152625794Y-129588408D01*
X152629664Y-129562319D01*
X152636072Y-129536736D01*
X152644957Y-129511904D01*
X152656234Y-129488062D01*
X152669793Y-129465440D01*
X152685503Y-129444257D01*
X152703215Y-129424715D01*
X152722757Y-129407003D01*
X152743940Y-129391293D01*
X152766562Y-129377734D01*
X152790404Y-129366457D01*
X152815236Y-129357572D01*
X152840819Y-129351164D01*
X152866908Y-129347294D01*
X152893250Y-129346000D01*
X153430750Y-129346000D01*
X153457092Y-129347294D01*
X153457092Y-129347294D01*
G37*
D15*
X153162000Y-129921000D03*
D13*
G36*
X155032092Y-129347294D02*
X155058181Y-129351164D01*
X155083764Y-129357572D01*
X155108596Y-129366457D01*
X155132438Y-129377734D01*
X155155060Y-129391293D01*
X155176243Y-129407003D01*
X155195785Y-129424715D01*
X155213497Y-129444257D01*
X155229207Y-129465440D01*
X155242766Y-129488062D01*
X155254043Y-129511904D01*
X155262928Y-129536736D01*
X155269336Y-129562319D01*
X155273206Y-129588408D01*
X155274500Y-129614750D01*
X155274500Y-130227250D01*
X155273206Y-130253592D01*
X155269336Y-130279681D01*
X155262928Y-130305264D01*
X155254043Y-130330096D01*
X155242766Y-130353938D01*
X155229207Y-130376560D01*
X155213497Y-130397743D01*
X155195785Y-130417285D01*
X155176243Y-130434997D01*
X155155060Y-130450707D01*
X155132438Y-130464266D01*
X155108596Y-130475543D01*
X155083764Y-130484428D01*
X155058181Y-130490836D01*
X155032092Y-130494706D01*
X155005750Y-130496000D01*
X154468250Y-130496000D01*
X154441908Y-130494706D01*
X154415819Y-130490836D01*
X154390236Y-130484428D01*
X154365404Y-130475543D01*
X154341562Y-130464266D01*
X154318940Y-130450707D01*
X154297757Y-130434997D01*
X154278215Y-130417285D01*
X154260503Y-130397743D01*
X154244793Y-130376560D01*
X154231234Y-130353938D01*
X154219957Y-130330096D01*
X154211072Y-130305264D01*
X154204664Y-130279681D01*
X154200794Y-130253592D01*
X154199500Y-130227250D01*
X154199500Y-129614750D01*
X154200794Y-129588408D01*
X154204664Y-129562319D01*
X154211072Y-129536736D01*
X154219957Y-129511904D01*
X154231234Y-129488062D01*
X154244793Y-129465440D01*
X154260503Y-129444257D01*
X154278215Y-129424715D01*
X154297757Y-129407003D01*
X154318940Y-129391293D01*
X154341562Y-129377734D01*
X154365404Y-129366457D01*
X154390236Y-129357572D01*
X154415819Y-129351164D01*
X154441908Y-129347294D01*
X154468250Y-129346000D01*
X155005750Y-129346000D01*
X155032092Y-129347294D01*
X155032092Y-129347294D01*
G37*
D15*
X154737000Y-129921000D03*
G04 #@! TD*
D13*
G04 #@! TO.C,R2*
G36*
X152489858Y-115404951D02*
X152509030Y-115407795D01*
X152527831Y-115412504D01*
X152546080Y-115419034D01*
X152563601Y-115427321D01*
X152580225Y-115437285D01*
X152595793Y-115448830D01*
X152610154Y-115461846D01*
X152623170Y-115476207D01*
X152634715Y-115491775D01*
X152644679Y-115508399D01*
X152652966Y-115525920D01*
X152659496Y-115544169D01*
X152664205Y-115562970D01*
X152667049Y-115582142D01*
X152668000Y-115601500D01*
X152668000Y-116046500D01*
X152667049Y-116065858D01*
X152664205Y-116085030D01*
X152659496Y-116103831D01*
X152652966Y-116122080D01*
X152644679Y-116139601D01*
X152634715Y-116156225D01*
X152623170Y-116171793D01*
X152610154Y-116186154D01*
X152595793Y-116199170D01*
X152580225Y-116210715D01*
X152563601Y-116220679D01*
X152546080Y-116228966D01*
X152527831Y-116235496D01*
X152509030Y-116240205D01*
X152489858Y-116243049D01*
X152470500Y-116244000D01*
X152075500Y-116244000D01*
X152056142Y-116243049D01*
X152036970Y-116240205D01*
X152018169Y-116235496D01*
X151999920Y-116228966D01*
X151982399Y-116220679D01*
X151965775Y-116210715D01*
X151950207Y-116199170D01*
X151935846Y-116186154D01*
X151922830Y-116171793D01*
X151911285Y-116156225D01*
X151901321Y-116139601D01*
X151893034Y-116122080D01*
X151886504Y-116103831D01*
X151881795Y-116085030D01*
X151878951Y-116065858D01*
X151878000Y-116046500D01*
X151878000Y-115601500D01*
X151878951Y-115582142D01*
X151881795Y-115562970D01*
X151886504Y-115544169D01*
X151893034Y-115525920D01*
X151901321Y-115508399D01*
X151911285Y-115491775D01*
X151922830Y-115476207D01*
X151935846Y-115461846D01*
X151950207Y-115448830D01*
X151965775Y-115437285D01*
X151982399Y-115427321D01*
X151999920Y-115419034D01*
X152018169Y-115412504D01*
X152036970Y-115407795D01*
X152056142Y-115404951D01*
X152075500Y-115404000D01*
X152470500Y-115404000D01*
X152489858Y-115404951D01*
X152489858Y-115404951D01*
G37*
D14*
X152273000Y-115824000D03*
D13*
G36*
X153459858Y-115404951D02*
X153479030Y-115407795D01*
X153497831Y-115412504D01*
X153516080Y-115419034D01*
X153533601Y-115427321D01*
X153550225Y-115437285D01*
X153565793Y-115448830D01*
X153580154Y-115461846D01*
X153593170Y-115476207D01*
X153604715Y-115491775D01*
X153614679Y-115508399D01*
X153622966Y-115525920D01*
X153629496Y-115544169D01*
X153634205Y-115562970D01*
X153637049Y-115582142D01*
X153638000Y-115601500D01*
X153638000Y-116046500D01*
X153637049Y-116065858D01*
X153634205Y-116085030D01*
X153629496Y-116103831D01*
X153622966Y-116122080D01*
X153614679Y-116139601D01*
X153604715Y-116156225D01*
X153593170Y-116171793D01*
X153580154Y-116186154D01*
X153565793Y-116199170D01*
X153550225Y-116210715D01*
X153533601Y-116220679D01*
X153516080Y-116228966D01*
X153497831Y-116235496D01*
X153479030Y-116240205D01*
X153459858Y-116243049D01*
X153440500Y-116244000D01*
X153045500Y-116244000D01*
X153026142Y-116243049D01*
X153006970Y-116240205D01*
X152988169Y-116235496D01*
X152969920Y-116228966D01*
X152952399Y-116220679D01*
X152935775Y-116210715D01*
X152920207Y-116199170D01*
X152905846Y-116186154D01*
X152892830Y-116171793D01*
X152881285Y-116156225D01*
X152871321Y-116139601D01*
X152863034Y-116122080D01*
X152856504Y-116103831D01*
X152851795Y-116085030D01*
X152848951Y-116065858D01*
X152848000Y-116046500D01*
X152848000Y-115601500D01*
X152848951Y-115582142D01*
X152851795Y-115562970D01*
X152856504Y-115544169D01*
X152863034Y-115525920D01*
X152871321Y-115508399D01*
X152881285Y-115491775D01*
X152892830Y-115476207D01*
X152905846Y-115461846D01*
X152920207Y-115448830D01*
X152935775Y-115437285D01*
X152952399Y-115427321D01*
X152969920Y-115419034D01*
X152988169Y-115412504D01*
X153006970Y-115407795D01*
X153026142Y-115404951D01*
X153045500Y-115404000D01*
X153440500Y-115404000D01*
X153459858Y-115404951D01*
X153459858Y-115404951D01*
G37*
D14*
X153243000Y-115824000D03*
G04 #@! TD*
D13*
G04 #@! TO.C,R3*
G36*
X153759858Y-117563951D02*
X153779030Y-117566795D01*
X153797831Y-117571504D01*
X153816080Y-117578034D01*
X153833601Y-117586321D01*
X153850225Y-117596285D01*
X153865793Y-117607830D01*
X153880154Y-117620846D01*
X153893170Y-117635207D01*
X153904715Y-117650775D01*
X153914679Y-117667399D01*
X153922966Y-117684920D01*
X153929496Y-117703169D01*
X153934205Y-117721970D01*
X153937049Y-117741142D01*
X153938000Y-117760500D01*
X153938000Y-118205500D01*
X153937049Y-118224858D01*
X153934205Y-118244030D01*
X153929496Y-118262831D01*
X153922966Y-118281080D01*
X153914679Y-118298601D01*
X153904715Y-118315225D01*
X153893170Y-118330793D01*
X153880154Y-118345154D01*
X153865793Y-118358170D01*
X153850225Y-118369715D01*
X153833601Y-118379679D01*
X153816080Y-118387966D01*
X153797831Y-118394496D01*
X153779030Y-118399205D01*
X153759858Y-118402049D01*
X153740500Y-118403000D01*
X153345500Y-118403000D01*
X153326142Y-118402049D01*
X153306970Y-118399205D01*
X153288169Y-118394496D01*
X153269920Y-118387966D01*
X153252399Y-118379679D01*
X153235775Y-118369715D01*
X153220207Y-118358170D01*
X153205846Y-118345154D01*
X153192830Y-118330793D01*
X153181285Y-118315225D01*
X153171321Y-118298601D01*
X153163034Y-118281080D01*
X153156504Y-118262831D01*
X153151795Y-118244030D01*
X153148951Y-118224858D01*
X153148000Y-118205500D01*
X153148000Y-117760500D01*
X153148951Y-117741142D01*
X153151795Y-117721970D01*
X153156504Y-117703169D01*
X153163034Y-117684920D01*
X153171321Y-117667399D01*
X153181285Y-117650775D01*
X153192830Y-117635207D01*
X153205846Y-117620846D01*
X153220207Y-117607830D01*
X153235775Y-117596285D01*
X153252399Y-117586321D01*
X153269920Y-117578034D01*
X153288169Y-117571504D01*
X153306970Y-117566795D01*
X153326142Y-117563951D01*
X153345500Y-117563000D01*
X153740500Y-117563000D01*
X153759858Y-117563951D01*
X153759858Y-117563951D01*
G37*
D14*
X153543000Y-117983000D03*
D13*
G36*
X154729858Y-117563951D02*
X154749030Y-117566795D01*
X154767831Y-117571504D01*
X154786080Y-117578034D01*
X154803601Y-117586321D01*
X154820225Y-117596285D01*
X154835793Y-117607830D01*
X154850154Y-117620846D01*
X154863170Y-117635207D01*
X154874715Y-117650775D01*
X154884679Y-117667399D01*
X154892966Y-117684920D01*
X154899496Y-117703169D01*
X154904205Y-117721970D01*
X154907049Y-117741142D01*
X154908000Y-117760500D01*
X154908000Y-118205500D01*
X154907049Y-118224858D01*
X154904205Y-118244030D01*
X154899496Y-118262831D01*
X154892966Y-118281080D01*
X154884679Y-118298601D01*
X154874715Y-118315225D01*
X154863170Y-118330793D01*
X154850154Y-118345154D01*
X154835793Y-118358170D01*
X154820225Y-118369715D01*
X154803601Y-118379679D01*
X154786080Y-118387966D01*
X154767831Y-118394496D01*
X154749030Y-118399205D01*
X154729858Y-118402049D01*
X154710500Y-118403000D01*
X154315500Y-118403000D01*
X154296142Y-118402049D01*
X154276970Y-118399205D01*
X154258169Y-118394496D01*
X154239920Y-118387966D01*
X154222399Y-118379679D01*
X154205775Y-118369715D01*
X154190207Y-118358170D01*
X154175846Y-118345154D01*
X154162830Y-118330793D01*
X154151285Y-118315225D01*
X154141321Y-118298601D01*
X154133034Y-118281080D01*
X154126504Y-118262831D01*
X154121795Y-118244030D01*
X154118951Y-118224858D01*
X154118000Y-118205500D01*
X154118000Y-117760500D01*
X154118951Y-117741142D01*
X154121795Y-117721970D01*
X154126504Y-117703169D01*
X154133034Y-117684920D01*
X154141321Y-117667399D01*
X154151285Y-117650775D01*
X154162830Y-117635207D01*
X154175846Y-117620846D01*
X154190207Y-117607830D01*
X154205775Y-117596285D01*
X154222399Y-117586321D01*
X154239920Y-117578034D01*
X154258169Y-117571504D01*
X154276970Y-117566795D01*
X154296142Y-117563951D01*
X154315500Y-117563000D01*
X154710500Y-117563000D01*
X154729858Y-117563951D01*
X154729858Y-117563951D01*
G37*
D14*
X154513000Y-117983000D03*
G04 #@! TD*
D13*
G04 #@! TO.C,R5*
G36*
X156451858Y-128556951D02*
X156471030Y-128559795D01*
X156489831Y-128564504D01*
X156508080Y-128571034D01*
X156525601Y-128579321D01*
X156542225Y-128589285D01*
X156557793Y-128600830D01*
X156572154Y-128613846D01*
X156585170Y-128628207D01*
X156596715Y-128643775D01*
X156606679Y-128660399D01*
X156614966Y-128677920D01*
X156621496Y-128696169D01*
X156626205Y-128714970D01*
X156629049Y-128734142D01*
X156630000Y-128753500D01*
X156630000Y-129148500D01*
X156629049Y-129167858D01*
X156626205Y-129187030D01*
X156621496Y-129205831D01*
X156614966Y-129224080D01*
X156606679Y-129241601D01*
X156596715Y-129258225D01*
X156585170Y-129273793D01*
X156572154Y-129288154D01*
X156557793Y-129301170D01*
X156542225Y-129312715D01*
X156525601Y-129322679D01*
X156508080Y-129330966D01*
X156489831Y-129337496D01*
X156471030Y-129342205D01*
X156451858Y-129345049D01*
X156432500Y-129346000D01*
X155987500Y-129346000D01*
X155968142Y-129345049D01*
X155948970Y-129342205D01*
X155930169Y-129337496D01*
X155911920Y-129330966D01*
X155894399Y-129322679D01*
X155877775Y-129312715D01*
X155862207Y-129301170D01*
X155847846Y-129288154D01*
X155834830Y-129273793D01*
X155823285Y-129258225D01*
X155813321Y-129241601D01*
X155805034Y-129224080D01*
X155798504Y-129205831D01*
X155793795Y-129187030D01*
X155790951Y-129167858D01*
X155790000Y-129148500D01*
X155790000Y-128753500D01*
X155790951Y-128734142D01*
X155793795Y-128714970D01*
X155798504Y-128696169D01*
X155805034Y-128677920D01*
X155813321Y-128660399D01*
X155823285Y-128643775D01*
X155834830Y-128628207D01*
X155847846Y-128613846D01*
X155862207Y-128600830D01*
X155877775Y-128589285D01*
X155894399Y-128579321D01*
X155911920Y-128571034D01*
X155930169Y-128564504D01*
X155948970Y-128559795D01*
X155968142Y-128556951D01*
X155987500Y-128556000D01*
X156432500Y-128556000D01*
X156451858Y-128556951D01*
X156451858Y-128556951D01*
G37*
D14*
X156210000Y-128951000D03*
D13*
G36*
X156451858Y-129526951D02*
X156471030Y-129529795D01*
X156489831Y-129534504D01*
X156508080Y-129541034D01*
X156525601Y-129549321D01*
X156542225Y-129559285D01*
X156557793Y-129570830D01*
X156572154Y-129583846D01*
X156585170Y-129598207D01*
X156596715Y-129613775D01*
X156606679Y-129630399D01*
X156614966Y-129647920D01*
X156621496Y-129666169D01*
X156626205Y-129684970D01*
X156629049Y-129704142D01*
X156630000Y-129723500D01*
X156630000Y-130118500D01*
X156629049Y-130137858D01*
X156626205Y-130157030D01*
X156621496Y-130175831D01*
X156614966Y-130194080D01*
X156606679Y-130211601D01*
X156596715Y-130228225D01*
X156585170Y-130243793D01*
X156572154Y-130258154D01*
X156557793Y-130271170D01*
X156542225Y-130282715D01*
X156525601Y-130292679D01*
X156508080Y-130300966D01*
X156489831Y-130307496D01*
X156471030Y-130312205D01*
X156451858Y-130315049D01*
X156432500Y-130316000D01*
X155987500Y-130316000D01*
X155968142Y-130315049D01*
X155948970Y-130312205D01*
X155930169Y-130307496D01*
X155911920Y-130300966D01*
X155894399Y-130292679D01*
X155877775Y-130282715D01*
X155862207Y-130271170D01*
X155847846Y-130258154D01*
X155834830Y-130243793D01*
X155823285Y-130228225D01*
X155813321Y-130211601D01*
X155805034Y-130194080D01*
X155798504Y-130175831D01*
X155793795Y-130157030D01*
X155790951Y-130137858D01*
X155790000Y-130118500D01*
X155790000Y-129723500D01*
X155790951Y-129704142D01*
X155793795Y-129684970D01*
X155798504Y-129666169D01*
X155805034Y-129647920D01*
X155813321Y-129630399D01*
X155823285Y-129613775D01*
X155834830Y-129598207D01*
X155847846Y-129583846D01*
X155862207Y-129570830D01*
X155877775Y-129559285D01*
X155894399Y-129549321D01*
X155911920Y-129541034D01*
X155930169Y-129534504D01*
X155948970Y-129529795D01*
X155968142Y-129526951D01*
X155987500Y-129526000D01*
X156432500Y-129526000D01*
X156451858Y-129526951D01*
X156451858Y-129526951D01*
G37*
D14*
X156210000Y-129921000D03*
G04 #@! TD*
D26*
G04 #@! TO.C,U6*
X153543000Y-119930000D03*
X152273000Y-119930000D03*
X151003000Y-119930000D03*
X149733000Y-119930000D03*
X153543000Y-125180000D03*
X152273000Y-125180000D03*
X151003000Y-125180000D03*
X149733000Y-125180000D03*
G04 #@! TD*
D13*
G04 #@! TO.C,D5*
G36*
X153459858Y-95846951D02*
X153479030Y-95849795D01*
X153497831Y-95854504D01*
X153516080Y-95861034D01*
X153533601Y-95869321D01*
X153550225Y-95879285D01*
X153565793Y-95890830D01*
X153580154Y-95903846D01*
X153593170Y-95918207D01*
X153604715Y-95933775D01*
X153614679Y-95950399D01*
X153622966Y-95967920D01*
X153629496Y-95986169D01*
X153634205Y-96004970D01*
X153637049Y-96024142D01*
X153638000Y-96043500D01*
X153638000Y-96488500D01*
X153637049Y-96507858D01*
X153634205Y-96527030D01*
X153629496Y-96545831D01*
X153622966Y-96564080D01*
X153614679Y-96581601D01*
X153604715Y-96598225D01*
X153593170Y-96613793D01*
X153580154Y-96628154D01*
X153565793Y-96641170D01*
X153550225Y-96652715D01*
X153533601Y-96662679D01*
X153516080Y-96670966D01*
X153497831Y-96677496D01*
X153479030Y-96682205D01*
X153459858Y-96685049D01*
X153440500Y-96686000D01*
X153045500Y-96686000D01*
X153026142Y-96685049D01*
X153006970Y-96682205D01*
X152988169Y-96677496D01*
X152969920Y-96670966D01*
X152952399Y-96662679D01*
X152935775Y-96652715D01*
X152920207Y-96641170D01*
X152905846Y-96628154D01*
X152892830Y-96613793D01*
X152881285Y-96598225D01*
X152871321Y-96581601D01*
X152863034Y-96564080D01*
X152856504Y-96545831D01*
X152851795Y-96527030D01*
X152848951Y-96507858D01*
X152848000Y-96488500D01*
X152848000Y-96043500D01*
X152848951Y-96024142D01*
X152851795Y-96004970D01*
X152856504Y-95986169D01*
X152863034Y-95967920D01*
X152871321Y-95950399D01*
X152881285Y-95933775D01*
X152892830Y-95918207D01*
X152905846Y-95903846D01*
X152920207Y-95890830D01*
X152935775Y-95879285D01*
X152952399Y-95869321D01*
X152969920Y-95861034D01*
X152988169Y-95854504D01*
X153006970Y-95849795D01*
X153026142Y-95846951D01*
X153045500Y-95846000D01*
X153440500Y-95846000D01*
X153459858Y-95846951D01*
X153459858Y-95846951D01*
G37*
D14*
X153243000Y-96266000D03*
D13*
G36*
X152489858Y-95846951D02*
X152509030Y-95849795D01*
X152527831Y-95854504D01*
X152546080Y-95861034D01*
X152563601Y-95869321D01*
X152580225Y-95879285D01*
X152595793Y-95890830D01*
X152610154Y-95903846D01*
X152623170Y-95918207D01*
X152634715Y-95933775D01*
X152644679Y-95950399D01*
X152652966Y-95967920D01*
X152659496Y-95986169D01*
X152664205Y-96004970D01*
X152667049Y-96024142D01*
X152668000Y-96043500D01*
X152668000Y-96488500D01*
X152667049Y-96507858D01*
X152664205Y-96527030D01*
X152659496Y-96545831D01*
X152652966Y-96564080D01*
X152644679Y-96581601D01*
X152634715Y-96598225D01*
X152623170Y-96613793D01*
X152610154Y-96628154D01*
X152595793Y-96641170D01*
X152580225Y-96652715D01*
X152563601Y-96662679D01*
X152546080Y-96670966D01*
X152527831Y-96677496D01*
X152509030Y-96682205D01*
X152489858Y-96685049D01*
X152470500Y-96686000D01*
X152075500Y-96686000D01*
X152056142Y-96685049D01*
X152036970Y-96682205D01*
X152018169Y-96677496D01*
X151999920Y-96670966D01*
X151982399Y-96662679D01*
X151965775Y-96652715D01*
X151950207Y-96641170D01*
X151935846Y-96628154D01*
X151922830Y-96613793D01*
X151911285Y-96598225D01*
X151901321Y-96581601D01*
X151893034Y-96564080D01*
X151886504Y-96545831D01*
X151881795Y-96527030D01*
X151878951Y-96507858D01*
X151878000Y-96488500D01*
X151878000Y-96043500D01*
X151878951Y-96024142D01*
X151881795Y-96004970D01*
X151886504Y-95986169D01*
X151893034Y-95967920D01*
X151901321Y-95950399D01*
X151911285Y-95933775D01*
X151922830Y-95918207D01*
X151935846Y-95903846D01*
X151950207Y-95890830D01*
X151965775Y-95879285D01*
X151982399Y-95869321D01*
X151999920Y-95861034D01*
X152018169Y-95854504D01*
X152036970Y-95849795D01*
X152056142Y-95846951D01*
X152075500Y-95846000D01*
X152470500Y-95846000D01*
X152489858Y-95846951D01*
X152489858Y-95846951D01*
G37*
D14*
X152273000Y-96266000D03*
G04 #@! TD*
D13*
G04 #@! TO.C,R6*
G36*
X150224458Y-95846951D02*
X150243630Y-95849795D01*
X150262431Y-95854504D01*
X150280680Y-95861034D01*
X150298201Y-95869321D01*
X150314825Y-95879285D01*
X150330393Y-95890830D01*
X150344754Y-95903846D01*
X150357770Y-95918207D01*
X150369315Y-95933775D01*
X150379279Y-95950399D01*
X150387566Y-95967920D01*
X150394096Y-95986169D01*
X150398805Y-96004970D01*
X150401649Y-96024142D01*
X150402600Y-96043500D01*
X150402600Y-96488500D01*
X150401649Y-96507858D01*
X150398805Y-96527030D01*
X150394096Y-96545831D01*
X150387566Y-96564080D01*
X150379279Y-96581601D01*
X150369315Y-96598225D01*
X150357770Y-96613793D01*
X150344754Y-96628154D01*
X150330393Y-96641170D01*
X150314825Y-96652715D01*
X150298201Y-96662679D01*
X150280680Y-96670966D01*
X150262431Y-96677496D01*
X150243630Y-96682205D01*
X150224458Y-96685049D01*
X150205100Y-96686000D01*
X149810100Y-96686000D01*
X149790742Y-96685049D01*
X149771570Y-96682205D01*
X149752769Y-96677496D01*
X149734520Y-96670966D01*
X149716999Y-96662679D01*
X149700375Y-96652715D01*
X149684807Y-96641170D01*
X149670446Y-96628154D01*
X149657430Y-96613793D01*
X149645885Y-96598225D01*
X149635921Y-96581601D01*
X149627634Y-96564080D01*
X149621104Y-96545831D01*
X149616395Y-96527030D01*
X149613551Y-96507858D01*
X149612600Y-96488500D01*
X149612600Y-96043500D01*
X149613551Y-96024142D01*
X149616395Y-96004970D01*
X149621104Y-95986169D01*
X149627634Y-95967920D01*
X149635921Y-95950399D01*
X149645885Y-95933775D01*
X149657430Y-95918207D01*
X149670446Y-95903846D01*
X149684807Y-95890830D01*
X149700375Y-95879285D01*
X149716999Y-95869321D01*
X149734520Y-95861034D01*
X149752769Y-95854504D01*
X149771570Y-95849795D01*
X149790742Y-95846951D01*
X149810100Y-95846000D01*
X150205100Y-95846000D01*
X150224458Y-95846951D01*
X150224458Y-95846951D01*
G37*
D14*
X150007600Y-96266000D03*
D13*
G36*
X151194458Y-95846951D02*
X151213630Y-95849795D01*
X151232431Y-95854504D01*
X151250680Y-95861034D01*
X151268201Y-95869321D01*
X151284825Y-95879285D01*
X151300393Y-95890830D01*
X151314754Y-95903846D01*
X151327770Y-95918207D01*
X151339315Y-95933775D01*
X151349279Y-95950399D01*
X151357566Y-95967920D01*
X151364096Y-95986169D01*
X151368805Y-96004970D01*
X151371649Y-96024142D01*
X151372600Y-96043500D01*
X151372600Y-96488500D01*
X151371649Y-96507858D01*
X151368805Y-96527030D01*
X151364096Y-96545831D01*
X151357566Y-96564080D01*
X151349279Y-96581601D01*
X151339315Y-96598225D01*
X151327770Y-96613793D01*
X151314754Y-96628154D01*
X151300393Y-96641170D01*
X151284825Y-96652715D01*
X151268201Y-96662679D01*
X151250680Y-96670966D01*
X151232431Y-96677496D01*
X151213630Y-96682205D01*
X151194458Y-96685049D01*
X151175100Y-96686000D01*
X150780100Y-96686000D01*
X150760742Y-96685049D01*
X150741570Y-96682205D01*
X150722769Y-96677496D01*
X150704520Y-96670966D01*
X150686999Y-96662679D01*
X150670375Y-96652715D01*
X150654807Y-96641170D01*
X150640446Y-96628154D01*
X150627430Y-96613793D01*
X150615885Y-96598225D01*
X150605921Y-96581601D01*
X150597634Y-96564080D01*
X150591104Y-96545831D01*
X150586395Y-96527030D01*
X150583551Y-96507858D01*
X150582600Y-96488500D01*
X150582600Y-96043500D01*
X150583551Y-96024142D01*
X150586395Y-96004970D01*
X150591104Y-95986169D01*
X150597634Y-95967920D01*
X150605921Y-95950399D01*
X150615885Y-95933775D01*
X150627430Y-95918207D01*
X150640446Y-95903846D01*
X150654807Y-95890830D01*
X150670375Y-95879285D01*
X150686999Y-95869321D01*
X150704520Y-95861034D01*
X150722769Y-95854504D01*
X150741570Y-95849795D01*
X150760742Y-95846951D01*
X150780100Y-95846000D01*
X151175100Y-95846000D01*
X151194458Y-95846951D01*
X151194458Y-95846951D01*
G37*
D14*
X150977600Y-96266000D03*
G04 #@! TD*
D27*
G04 #@! TO.C,U2*
X157988000Y-122682000D03*
X169164000Y-122682000D03*
D28*
X163576000Y-122682000D03*
D29*
X166116000Y-127762000D03*
X165100000Y-127762000D03*
X164084000Y-127762000D03*
X163068000Y-127762000D03*
X162052000Y-127762000D03*
X161036000Y-127762000D03*
X161036000Y-117602000D03*
X162052000Y-117602000D03*
X163068000Y-117602000D03*
X164084000Y-117602000D03*
X165125400Y-117576600D03*
X166116000Y-117602000D03*
G04 #@! TD*
D27*
G04 #@! TO.C,U1*
X169367200Y-81838800D03*
X158191200Y-81838800D03*
D28*
X163779200Y-81838800D03*
D29*
X161239200Y-76758800D03*
X162255200Y-76758800D03*
X163271200Y-76758800D03*
X164287200Y-76758800D03*
X165303200Y-76758800D03*
X166319200Y-76758800D03*
X166319200Y-86918800D03*
X165303200Y-86918800D03*
X164287200Y-86918800D03*
X163271200Y-86918800D03*
X162229800Y-86944200D03*
X161239200Y-86918800D03*
G04 #@! TD*
M02*
