M48
;DRILL file {KiCad 4.0.7} date 09/18/18 17:43:53
;FORMAT={-:-/ absolute / metric / decimal}
FMAT,2
METRIC,TZ
T1C0.400
T2C0.762
T3C2.740
%
G90
G05
M71
T1
X147.828Y-89.662
X148.082Y-93.472
X148.082Y-96.012
X149.352Y-96.012
X149.352Y-114.808
X150.114Y-89.408
X150.622Y-87.376
X151.384Y-79.502
X151.638Y-89.662
X151.638Y-91.948
X152.654Y-75.184
X152.654Y-78.486
X153.162Y-91.948
X153.416Y-87.376
X155.702Y-93.472
X157.226Y-92.71
X157.48Y-85.598
X157.734Y-78.486
X159.258Y-76.708
X159.258Y-87.376
X159.258Y-88.392
X161.29Y-75.184
X161.29Y-90.932
X162.052Y-106.68
X162.306Y-112.776
X162.306Y-114.808
X163.195Y-75.565
X163.322Y-125.222
X163.322Y-128.778
X163.83Y-90.71
X163.83Y-114.808
X164.338Y-78.486
X164.338Y-85.344
X164.846Y-101.6
X164.846Y-102.616
X165.354Y-88.9
X165.354Y-107.95
X166.624Y-96.52
X166.878Y-115.316
X167.64Y-127.508
X167.894Y-76.962
X168.148Y-117.348
X169.926Y-126.492
T2
X144.145Y-78.105
X144.145Y-80.645
X144.145Y-83.185
X144.145Y-85.725
X144.145Y-88.265
X144.145Y-90.805
X144.145Y-93.345
X144.145Y-95.885
X144.145Y-98.425
X144.145Y-100.965
X144.145Y-103.505
X144.145Y-106.045
X144.145Y-108.585
X144.145Y-111.125
X144.145Y-113.665
X144.145Y-116.205
X144.145Y-118.745
X144.145Y-121.285
X144.145Y-123.825
X144.145Y-126.365
X146.685Y-78.105
X146.685Y-80.645
X146.685Y-83.185
X146.685Y-85.725
X146.685Y-88.265
X146.685Y-90.805
X146.685Y-93.345
X146.685Y-95.885
X146.685Y-98.425
X146.685Y-100.965
X146.685Y-103.505
X146.685Y-106.045
X146.685Y-108.585
X146.685Y-111.125
X146.685Y-113.665
X146.685Y-116.205
X146.685Y-118.745
X146.685Y-121.285
X146.685Y-123.825
X146.685Y-126.365
X156.845Y-71.12
X156.845Y-73.66
X159.385Y-71.12
X159.385Y-73.66
X167.64Y-97.79
X167.64Y-100.33
X167.64Y-104.14
X167.64Y-106.68
X170.18Y-97.79
X170.18Y-100.33
X170.18Y-104.14
X170.18Y-106.68
T3
X145.415Y-73.025
X145.415Y-131.445
X168.91Y-73.025
X168.91Y-131.445
T0
M30
