G04 #@! TF.FileFunction,Copper,L1,Top,Signal*
%FSLAX46Y46*%
G04 Gerber Fmt 4.6, Leading zero omitted, Abs format (unit mm)*
G04 Created by KiCad (PCBNEW 4.0.7) date 09/18/18 17:43:47*
%MOMM*%
%LPD*%
G01*
G04 APERTURE LIST*
%ADD10C,0.100000*%
%ADD11R,0.650000X1.350000*%
%ADD12R,6.450000X4.400000*%
%ADD13R,5.000000X5.000000*%
%ADD14R,1.500000X3.200000*%
%ADD15R,1.250000X1.000000*%
%ADD16R,1.000000X1.250000*%
%ADD17R,1.600000X1.000000*%
%ADD18C,1.524000*%
%ADD19R,1.000000X1.600000*%
%ADD20R,2.000000X3.800000*%
%ADD21R,2.000000X1.500000*%
%ADD22R,0.700000X1.300000*%
%ADD23C,6.000000*%
%ADD24R,0.850000X0.300000*%
%ADD25R,0.300000X0.850000*%
%ADD26R,1.300000X1.300000*%
%ADD27C,0.600000*%
%ADD28C,0.250000*%
%ADD29C,0.500000*%
%ADD30C,0.254000*%
G04 APERTURE END LIST*
D10*
D11*
X161290000Y-86995000D03*
X162280600Y-87020400D03*
X163322000Y-86995000D03*
X164338000Y-86995000D03*
X165354000Y-86995000D03*
X166370000Y-86995000D03*
X166370000Y-76835000D03*
X165354000Y-76835000D03*
X164338000Y-76835000D03*
X163322000Y-76835000D03*
X162306000Y-76835000D03*
X161290000Y-76835000D03*
D12*
X163830000Y-81915000D03*
D13*
X158242000Y-81915000D03*
X169418000Y-81915000D03*
D14*
X163830000Y-94710000D03*
X163830000Y-90710000D03*
X163830000Y-109760000D03*
X163830000Y-113760000D03*
D15*
X161290000Y-110506000D03*
X161290000Y-112506000D03*
X161036000Y-93710000D03*
X161036000Y-91710000D03*
D16*
X164830000Y-97790000D03*
X162830000Y-97790000D03*
X164830000Y-104140000D03*
X162830000Y-104140000D03*
X164830000Y-100330000D03*
X162830000Y-100330000D03*
X164830000Y-106680000D03*
X162830000Y-106680000D03*
D17*
X167132000Y-94210000D03*
X167132000Y-91210000D03*
X166878000Y-110260000D03*
X166878000Y-113260000D03*
D18*
X170180000Y-106680000D03*
X170180000Y-104140000D03*
X167640000Y-106680000D03*
X167640000Y-104140000D03*
X170180000Y-100330000D03*
X170180000Y-97790000D03*
X167640000Y-100330000D03*
X167640000Y-97790000D03*
D11*
X166370000Y-117475000D03*
X165379400Y-117449600D03*
X164338000Y-117475000D03*
X163322000Y-117475000D03*
X162306000Y-117475000D03*
X161290000Y-117475000D03*
X161290000Y-127635000D03*
X162306000Y-127635000D03*
X163322000Y-127635000D03*
X164338000Y-127635000D03*
X165354000Y-127635000D03*
X166370000Y-127635000D03*
D12*
X163830000Y-122555000D03*
D13*
X169418000Y-122555000D03*
X158242000Y-122555000D03*
D19*
X149630000Y-81915000D03*
X152630000Y-81915000D03*
D20*
X156185000Y-76835000D03*
D21*
X149885000Y-76835000D03*
X149885000Y-79135000D03*
X149885000Y-74535000D03*
D22*
X150180000Y-71755000D03*
X152080000Y-71755000D03*
D18*
X159385000Y-71120000D03*
X156845000Y-71120000D03*
X159385000Y-73660000D03*
X156845000Y-73660000D03*
D16*
X151400000Y-107315000D03*
X153400000Y-107315000D03*
X150765000Y-95885000D03*
X152765000Y-95885000D03*
X154162000Y-85344000D03*
X152162000Y-85344000D03*
D15*
X150368000Y-86122000D03*
X150368000Y-88122000D03*
X150368000Y-89932000D03*
X150368000Y-91932000D03*
D16*
X158226000Y-85598000D03*
X156226000Y-85598000D03*
D18*
X146685000Y-78105000D03*
X144145000Y-78105000D03*
X146685000Y-80645000D03*
X144145000Y-80645000D03*
X146685000Y-83185000D03*
X144145000Y-83185000D03*
X146685000Y-85725000D03*
X144145000Y-85725000D03*
X146685000Y-88265000D03*
X144145000Y-88265000D03*
X146685000Y-90805000D03*
X144145000Y-90805000D03*
X146685000Y-93345000D03*
X144145000Y-93345000D03*
X146685000Y-95885000D03*
X144145000Y-95885000D03*
X146685000Y-98425000D03*
X144145000Y-98425000D03*
X146685000Y-100965000D03*
X144145000Y-100965000D03*
X146685000Y-103505000D03*
X144145000Y-103505000D03*
X146685000Y-106045000D03*
X144145000Y-106045000D03*
X146685000Y-108585000D03*
X144145000Y-108585000D03*
X146685000Y-111125000D03*
X144145000Y-111125000D03*
X146685000Y-113665000D03*
X144145000Y-113665000D03*
X146685000Y-116205000D03*
X144145000Y-116205000D03*
X146685000Y-118745000D03*
X144145000Y-118745000D03*
X146685000Y-121285000D03*
X144145000Y-121285000D03*
X146685000Y-123825000D03*
X144145000Y-123825000D03*
X146685000Y-126365000D03*
X144145000Y-126365000D03*
D23*
X145415000Y-73025000D03*
X145415000Y-131445000D03*
X168910000Y-73025000D03*
X168910000Y-131445000D03*
D24*
X153498000Y-88412000D03*
X153498000Y-88912000D03*
X153498000Y-89412000D03*
X153498000Y-89912000D03*
X153498000Y-90412000D03*
X153498000Y-90912000D03*
D25*
X154198000Y-91612000D03*
X154698000Y-91612000D03*
X155198000Y-91612000D03*
X155698000Y-91612000D03*
X156198000Y-91612000D03*
X156698000Y-91612000D03*
D24*
X157398000Y-90912000D03*
X157398000Y-90412000D03*
X157398000Y-89912000D03*
X157398000Y-89412000D03*
X157398000Y-88912000D03*
X157398000Y-88412000D03*
D25*
X156698000Y-87712000D03*
X156198000Y-87712000D03*
X155698000Y-87712000D03*
X155198000Y-87712000D03*
X154698000Y-87712000D03*
X154198000Y-87712000D03*
D26*
X156098000Y-90312000D03*
X156098000Y-89012000D03*
X154798000Y-90312000D03*
X154798000Y-89012000D03*
D20*
X158090000Y-101600000D03*
D21*
X151790000Y-101600000D03*
X151790000Y-103900000D03*
X151790000Y-99300000D03*
D27*
X163830000Y-114808000D03*
X166878000Y-115316000D03*
X162306000Y-112776000D03*
X162052000Y-106680000D03*
X163830000Y-90710000D03*
X161290000Y-90932000D03*
X157480000Y-85598000D03*
X153162000Y-91948000D03*
X163322000Y-125222000D03*
X163322000Y-128778000D03*
X151638000Y-91948000D03*
X151638000Y-89662000D03*
X163195000Y-75565000D03*
X166624000Y-96520000D03*
X167894000Y-76962000D03*
X169926000Y-126492000D03*
X164846000Y-102616000D03*
X164846000Y-101600000D03*
X165354000Y-88900000D03*
X162306000Y-114808000D03*
X165354000Y-107950000D03*
X157226000Y-92710000D03*
X148082000Y-96012000D03*
X148082000Y-93472000D03*
X147828000Y-89662000D03*
X150114000Y-89408000D03*
X161290000Y-75184000D03*
X159258000Y-76708000D03*
X159258000Y-87376000D03*
X168148000Y-117348000D03*
X149352000Y-114808000D03*
X167640000Y-127508000D03*
X159258000Y-88392000D03*
X151384000Y-79502000D03*
X157734000Y-78486000D03*
X164338000Y-78486000D03*
X164338000Y-85344000D03*
X152654000Y-75184000D03*
X152654000Y-78486000D03*
X149352000Y-96012000D03*
X155702000Y-93472000D03*
X150622000Y-87376000D03*
X153416000Y-87376000D03*
D28*
X149885000Y-76835000D02*
X156185000Y-76835000D01*
D29*
X156185000Y-76835000D02*
X156210000Y-76835000D01*
X156210000Y-76835000D02*
X158115000Y-74930000D01*
X158115000Y-74930000D02*
X158115000Y-72390000D01*
X158115000Y-72390000D02*
X159385000Y-71120000D01*
D28*
X166878000Y-113260000D02*
X166878000Y-115316000D01*
X163830000Y-114808000D02*
X163830000Y-113760000D01*
X162830000Y-106680000D02*
X162052000Y-106680000D01*
X162036000Y-112506000D02*
X161290000Y-112506000D01*
X162306000Y-112776000D02*
X162036000Y-112506000D01*
X161036000Y-91710000D02*
X161036000Y-91186000D01*
X161290000Y-90932000D02*
X161036000Y-91186000D01*
X151638000Y-91948000D02*
X153162000Y-91948000D01*
X157480000Y-85598000D02*
X158226000Y-85598000D01*
X156198000Y-87712000D02*
X155698000Y-87712000D01*
X163322000Y-127635000D02*
X163322000Y-128778000D01*
X163322000Y-125222000D02*
X163830000Y-124714000D01*
X163830000Y-124714000D02*
X163830000Y-122555000D01*
X163830000Y-113760000D02*
X163608000Y-113760000D01*
X156198000Y-87712000D02*
X156198000Y-87134000D01*
X157210000Y-86868000D02*
X158226000Y-85852000D01*
X156464000Y-86868000D02*
X157210000Y-86868000D01*
X156198000Y-87134000D02*
X156464000Y-86868000D01*
X153498000Y-89912000D02*
X151888000Y-89912000D01*
X151622000Y-91932000D02*
X150368000Y-91932000D01*
X151638000Y-91948000D02*
X151622000Y-91932000D01*
X151888000Y-89912000D02*
X151638000Y-89662000D01*
X153498000Y-90912000D02*
X151388000Y-90912000D01*
X151388000Y-90912000D02*
X150368000Y-91932000D01*
D29*
X162830000Y-97790000D02*
X162830000Y-100330000D01*
X162830000Y-104140000D02*
X162830000Y-106680000D01*
X152765000Y-95885000D02*
X152765000Y-98325000D01*
X152765000Y-98325000D02*
X151790000Y-99300000D01*
D28*
X163322000Y-75692000D02*
X163322000Y-76835000D01*
X163195000Y-75565000D02*
X163322000Y-75692000D01*
X156845000Y-71120000D02*
X152715000Y-71120000D01*
X152715000Y-71120000D02*
X152080000Y-71755000D01*
D29*
X164338000Y-76835000D02*
X165354000Y-76835000D01*
X163322000Y-76835000D02*
X164338000Y-76835000D01*
X166370000Y-76835000D02*
X167767000Y-76835000D01*
X167767000Y-76835000D02*
X167894000Y-76962000D01*
X164830000Y-97790000D02*
X165354000Y-97790000D01*
X168910000Y-96520000D02*
X170180000Y-97790000D01*
X166624000Y-96520000D02*
X168910000Y-96520000D01*
X165354000Y-97790000D02*
X166624000Y-96520000D01*
D28*
X164830000Y-104140000D02*
X164830000Y-102632000D01*
X161290000Y-126492000D02*
X161290000Y-127635000D01*
X161544000Y-126238000D02*
X161290000Y-126492000D01*
X169672000Y-126238000D02*
X161544000Y-126238000D01*
X169926000Y-126492000D02*
X169672000Y-126238000D01*
X164830000Y-102632000D02*
X164846000Y-102616000D01*
D29*
X164830000Y-104140000D02*
X165354000Y-104140000D01*
X168910000Y-102870000D02*
X170180000Y-104140000D01*
X166624000Y-102870000D02*
X168910000Y-102870000D01*
X165354000Y-104140000D02*
X166624000Y-102870000D01*
X165354000Y-86995000D02*
X165354000Y-88900000D01*
X164830000Y-101584000D02*
X164830000Y-100330000D01*
X164846000Y-101600000D02*
X164830000Y-101584000D01*
X164830000Y-100330000D02*
X164846000Y-100330000D01*
X165100000Y-100076000D02*
X166624000Y-101600000D01*
X166624000Y-101600000D02*
X168910000Y-101600000D01*
X168910000Y-101600000D02*
X170180000Y-100330000D01*
D28*
X164830000Y-106680000D02*
X164830000Y-107426000D01*
X162306000Y-114808000D02*
X162306000Y-117475000D01*
X164830000Y-107426000D02*
X165354000Y-107950000D01*
D29*
X170180000Y-106680000D02*
X168910000Y-107950000D01*
X165354000Y-106680000D02*
X164830000Y-106680000D01*
X166624000Y-107950000D02*
X165354000Y-106680000D01*
X168910000Y-107950000D02*
X166624000Y-107950000D01*
D28*
X156718000Y-94488000D02*
X159004000Y-94488000D01*
X156718000Y-94488000D02*
X145796000Y-94488000D01*
X145796000Y-94488000D02*
X145288000Y-94996000D01*
X145288000Y-94996000D02*
X145288000Y-97282000D01*
X144145000Y-98425000D02*
X145288000Y-97282000D01*
X161290000Y-89662000D02*
X161290000Y-86995000D01*
X159766000Y-91186000D02*
X161290000Y-89662000D01*
X159766000Y-93726000D02*
X159766000Y-91186000D01*
X159004000Y-94488000D02*
X159766000Y-93726000D01*
X151400000Y-107315000D02*
X151400000Y-115332000D01*
X165379400Y-118592600D02*
X165379400Y-117449600D01*
X164846000Y-119126000D02*
X165379400Y-118592600D01*
X155194000Y-119126000D02*
X164846000Y-119126000D01*
X151400000Y-115332000D02*
X155194000Y-119126000D01*
X150128000Y-103900000D02*
X151790000Y-103900000D01*
X148082000Y-101854000D02*
X150128000Y-103900000D01*
X148082000Y-96012000D02*
X148082000Y-101854000D01*
X148082000Y-89916000D02*
X148082000Y-93472000D01*
X147828000Y-89662000D02*
X148082000Y-89916000D01*
X162280600Y-87020400D02*
X162280600Y-85572600D01*
X162280600Y-85572600D02*
X162052000Y-85344000D01*
X162052000Y-85344000D02*
X161036000Y-85344000D01*
X161036000Y-85344000D02*
X160020000Y-86360000D01*
X160020000Y-86360000D02*
X160020000Y-89916000D01*
X160020000Y-89916000D02*
X157226000Y-92710000D01*
X150114000Y-89408000D02*
X150368000Y-89662000D01*
X150368000Y-89662000D02*
X150368000Y-89932000D01*
X153498000Y-89412000D02*
X152529602Y-89412000D01*
X151400000Y-88900000D02*
X150368000Y-89932000D01*
X152017602Y-88900000D02*
X151400000Y-88900000D01*
X152529602Y-89412000D02*
X152017602Y-88900000D01*
X153498000Y-90412000D02*
X150848000Y-90412000D01*
X150848000Y-90412000D02*
X150368000Y-89932000D01*
D29*
X151400000Y-107315000D02*
X151400000Y-104290000D01*
X151400000Y-104290000D02*
X151790000Y-103900000D01*
D28*
X162306000Y-76200000D02*
X161290000Y-75184000D01*
X162306000Y-76200000D02*
X162306000Y-76835000D01*
X156698000Y-87712000D02*
X158922000Y-87712000D01*
X159385000Y-76835000D02*
X161290000Y-76835000D01*
X159258000Y-76708000D02*
X159385000Y-76835000D01*
X158922000Y-87712000D02*
X159258000Y-87376000D01*
X168021000Y-117475000D02*
X166370000Y-117475000D01*
X168148000Y-117348000D02*
X168021000Y-117475000D01*
X149352000Y-114808000D02*
X149352000Y-127508000D01*
X149352000Y-127508000D02*
X151384000Y-129540000D01*
X151384000Y-129540000D02*
X164846000Y-129540000D01*
X164846000Y-129540000D02*
X165354000Y-129032000D01*
X165354000Y-129032000D02*
X165354000Y-127635000D01*
X157398000Y-88412000D02*
X159238000Y-88412000D01*
X167513000Y-127635000D02*
X166370000Y-127635000D01*
X167640000Y-127508000D02*
X167513000Y-127635000D01*
X159238000Y-88412000D02*
X159258000Y-88392000D01*
D29*
X163830000Y-94710000D02*
X162846000Y-94710000D01*
X162846000Y-94710000D02*
X161290000Y-96266000D01*
X161290000Y-96266000D02*
X161290000Y-107220000D01*
X161290000Y-107220000D02*
X163830000Y-109760000D01*
X164338000Y-86995000D02*
X164338000Y-85344000D01*
X151017000Y-79135000D02*
X149885000Y-79135000D01*
X151384000Y-79502000D02*
X151017000Y-79135000D01*
X164338000Y-78486000D02*
X157734000Y-78486000D01*
X163322000Y-117475000D02*
X163322000Y-116332000D01*
X165354000Y-111784000D02*
X166878000Y-110260000D01*
X165354000Y-115570000D02*
X165354000Y-111784000D01*
X165100000Y-115824000D02*
X165354000Y-115570000D01*
X163830000Y-115824000D02*
X165100000Y-115824000D01*
X163322000Y-116332000D02*
X163830000Y-115824000D01*
X164338000Y-86995000D02*
X164338000Y-88138000D01*
X162306000Y-92440000D02*
X161036000Y-93710000D01*
X162306000Y-89154000D02*
X162306000Y-92440000D01*
X163068000Y-88392000D02*
X162306000Y-89154000D01*
X164084000Y-88392000D02*
X163068000Y-88392000D01*
X164338000Y-88138000D02*
X164084000Y-88392000D01*
X164330000Y-94210000D02*
X163830000Y-94710000D01*
X167132000Y-94210000D02*
X164330000Y-94210000D01*
X161036000Y-93710000D02*
X162830000Y-93710000D01*
X162830000Y-93710000D02*
X163830000Y-94710000D01*
X166878000Y-110260000D02*
X164330000Y-110260000D01*
X164330000Y-110260000D02*
X163830000Y-109760000D01*
X161290000Y-110506000D02*
X163084000Y-110506000D01*
X163084000Y-110506000D02*
X163830000Y-109760000D01*
X149630000Y-81915000D02*
X149630000Y-79390000D01*
X149630000Y-79390000D02*
X149885000Y-79135000D01*
X150180000Y-71755000D02*
X150180000Y-74240000D01*
X150180000Y-74240000D02*
X149885000Y-74535000D01*
X152630000Y-81915000D02*
X152630000Y-78510000D01*
X152005000Y-74535000D02*
X149885000Y-74535000D01*
X152654000Y-75184000D02*
X152005000Y-74535000D01*
X152630000Y-78510000D02*
X152654000Y-78486000D01*
D28*
X155698000Y-91612000D02*
X155698000Y-93468000D01*
X149479000Y-95885000D02*
X150765000Y-95885000D01*
X149352000Y-96012000D02*
X149479000Y-95885000D01*
X155698000Y-93468000D02*
X155702000Y-93472000D01*
X150765000Y-95885000D02*
X150765000Y-97139000D01*
X149860000Y-99670000D02*
X151790000Y-101600000D01*
X149860000Y-98044000D02*
X149860000Y-99670000D01*
X150765000Y-97139000D02*
X149860000Y-98044000D01*
X151790000Y-101600000D02*
X158090000Y-101600000D01*
X154198000Y-87712000D02*
X154198000Y-85380000D01*
X154198000Y-85380000D02*
X154162000Y-85344000D01*
X154198000Y-85888000D02*
X154162000Y-85852000D01*
X153498000Y-88912000D02*
X152666000Y-88912000D01*
X152162000Y-88408000D02*
X152162000Y-85344000D01*
X152666000Y-88912000D02*
X152162000Y-88408000D01*
X154698000Y-87712000D02*
X154698000Y-86743602D01*
X150368000Y-84836000D02*
X150368000Y-86122000D01*
X151130000Y-84074000D02*
X150368000Y-84836000D01*
X154940000Y-84074000D02*
X151130000Y-84074000D01*
X155194000Y-84328000D02*
X154940000Y-84074000D01*
X155194000Y-86247602D02*
X155194000Y-84328000D01*
X154698000Y-86743602D02*
X155194000Y-86247602D01*
X153498000Y-88412000D02*
X153498000Y-87458000D01*
X150622000Y-87376000D02*
X150368000Y-87630000D01*
X153498000Y-87458000D02*
X153416000Y-87376000D01*
X150368000Y-87630000D02*
X150368000Y-88122000D01*
X155198000Y-87712000D02*
X155198000Y-86880000D01*
X155198000Y-86880000D02*
X156226000Y-85852000D01*
X155198000Y-91612000D02*
X155198000Y-92706000D01*
X145288000Y-82042000D02*
X146685000Y-80645000D01*
X145288000Y-86360000D02*
X145288000Y-82042000D01*
X146050000Y-87122000D02*
X145288000Y-86360000D01*
X147574000Y-87122000D02*
X146050000Y-87122000D01*
X148590000Y-88138000D02*
X147574000Y-87122000D01*
X148590000Y-92710000D02*
X148590000Y-88138000D01*
X149606000Y-93726000D02*
X148590000Y-92710000D01*
X154178000Y-93726000D02*
X149606000Y-93726000D01*
X155198000Y-92706000D02*
X154178000Y-93726000D01*
X154698000Y-91612000D02*
X154698000Y-92444000D01*
X149098000Y-85598000D02*
X146685000Y-83185000D01*
X149098000Y-92456000D02*
X149098000Y-85598000D01*
X149860000Y-93218000D02*
X149098000Y-92456000D01*
X153924000Y-93218000D02*
X149860000Y-93218000D01*
X154698000Y-92444000D02*
X153924000Y-93218000D01*
D30*
G36*
X149590599Y-104437401D02*
X149837161Y-104602148D01*
X150128000Y-104660000D01*
X150144442Y-104660000D01*
X150186838Y-104885317D01*
X150325910Y-105101441D01*
X150515000Y-105230641D01*
X150515000Y-106183156D01*
X150448559Y-106225910D01*
X150303569Y-106438110D01*
X150252560Y-106690000D01*
X150252560Y-107940000D01*
X150296838Y-108175317D01*
X150435910Y-108391441D01*
X150640000Y-108530890D01*
X150640000Y-115332000D01*
X150697852Y-115622839D01*
X150862599Y-115869401D01*
X154656599Y-119663401D01*
X154903160Y-119828148D01*
X155129959Y-119873261D01*
X155107000Y-119928690D01*
X155107000Y-122269250D01*
X155265750Y-122428000D01*
X158115000Y-122428000D01*
X158115000Y-122408000D01*
X158369000Y-122408000D01*
X158369000Y-122428000D01*
X163703000Y-122428000D01*
X163703000Y-122408000D01*
X163957000Y-122408000D01*
X163957000Y-122428000D01*
X169291000Y-122428000D01*
X169291000Y-119578750D01*
X169132250Y-119420000D01*
X166791691Y-119420000D01*
X166558302Y-119516673D01*
X166379673Y-119695301D01*
X166369442Y-119720000D01*
X165298694Y-119720000D01*
X165383401Y-119663401D01*
X165916801Y-119130001D01*
X166081548Y-118883439D01*
X166098654Y-118797440D01*
X166695000Y-118797440D01*
X166930317Y-118753162D01*
X167146441Y-118614090D01*
X167291431Y-118401890D01*
X167325227Y-118235000D01*
X167845995Y-118235000D01*
X167961201Y-118282838D01*
X168333167Y-118283162D01*
X168676943Y-118141117D01*
X168940192Y-117878327D01*
X169082838Y-117534799D01*
X169083162Y-117162833D01*
X168941117Y-116819057D01*
X168678327Y-116555808D01*
X168334799Y-116413162D01*
X167962833Y-116412838D01*
X167619057Y-116554883D01*
X167458660Y-116715000D01*
X167326446Y-116715000D01*
X167298162Y-116564683D01*
X167159090Y-116348559D01*
X166946890Y-116203569D01*
X166695000Y-116152560D01*
X166045000Y-116152560D01*
X166003451Y-116160378D01*
X166171633Y-115908675D01*
X166179445Y-115869401D01*
X166239001Y-115570000D01*
X166239000Y-115569995D01*
X166239000Y-114395000D01*
X166592250Y-114395000D01*
X166751000Y-114236250D01*
X166751000Y-113387000D01*
X167005000Y-113387000D01*
X167005000Y-114236250D01*
X167163750Y-114395000D01*
X167804310Y-114395000D01*
X168037699Y-114298327D01*
X168216327Y-114119698D01*
X168313000Y-113886309D01*
X168313000Y-113545750D01*
X168154250Y-113387000D01*
X167005000Y-113387000D01*
X166751000Y-113387000D01*
X166731000Y-113387000D01*
X166731000Y-113133000D01*
X166751000Y-113133000D01*
X166751000Y-112283750D01*
X167005000Y-112283750D01*
X167005000Y-113133000D01*
X168154250Y-113133000D01*
X168313000Y-112974250D01*
X168313000Y-112633691D01*
X168216327Y-112400302D01*
X168037699Y-112221673D01*
X167804310Y-112125000D01*
X167163750Y-112125000D01*
X167005000Y-112283750D01*
X166751000Y-112283750D01*
X166592250Y-112125000D01*
X166264580Y-112125000D01*
X166982139Y-111407440D01*
X167678000Y-111407440D01*
X167913317Y-111363162D01*
X168129441Y-111224090D01*
X168274431Y-111011890D01*
X168325440Y-110760000D01*
X168325440Y-109760000D01*
X168281162Y-109524683D01*
X168142090Y-109308559D01*
X167929890Y-109163569D01*
X167678000Y-109112560D01*
X166078000Y-109112560D01*
X165842683Y-109156838D01*
X165626559Y-109295910D01*
X165572519Y-109375000D01*
X165227440Y-109375000D01*
X165227440Y-108884890D01*
X165539167Y-108885162D01*
X165882943Y-108743117D01*
X166029571Y-108596745D01*
X166199071Y-108710000D01*
X166285325Y-108767633D01*
X166624000Y-108835001D01*
X166624005Y-108835000D01*
X168909995Y-108835000D01*
X168910000Y-108835001D01*
X169192484Y-108778810D01*
X169248675Y-108767633D01*
X169535790Y-108575790D01*
X170034706Y-108076874D01*
X170456661Y-108077242D01*
X170970303Y-107865010D01*
X171363629Y-107472370D01*
X171375000Y-107444986D01*
X171375000Y-119420000D01*
X169703750Y-119420000D01*
X169545000Y-119578750D01*
X169545000Y-122428000D01*
X169565000Y-122428000D01*
X169565000Y-122682000D01*
X169545000Y-122682000D01*
X169545000Y-122702000D01*
X169291000Y-122702000D01*
X169291000Y-122682000D01*
X163957000Y-122682000D01*
X163957000Y-125231250D01*
X164115750Y-125390000D01*
X166369442Y-125390000D01*
X166379673Y-125414699D01*
X166442974Y-125478000D01*
X161544000Y-125478000D01*
X161253160Y-125535852D01*
X161006599Y-125700599D01*
X160752599Y-125954599D01*
X160587852Y-126201161D01*
X160531521Y-126484352D01*
X160513559Y-126495910D01*
X160368569Y-126708110D01*
X160317560Y-126960000D01*
X160317560Y-128310000D01*
X160361838Y-128545317D01*
X160500910Y-128761441D01*
X160528072Y-128780000D01*
X151698802Y-128780000D01*
X150112000Y-127193198D01*
X150112000Y-122840750D01*
X155107000Y-122840750D01*
X155107000Y-125181310D01*
X155203673Y-125414699D01*
X155382302Y-125593327D01*
X155615691Y-125690000D01*
X157956250Y-125690000D01*
X158115000Y-125531250D01*
X158115000Y-122682000D01*
X158369000Y-122682000D01*
X158369000Y-125531250D01*
X158527750Y-125690000D01*
X160868309Y-125690000D01*
X161101698Y-125593327D01*
X161280327Y-125414699D01*
X161290558Y-125390000D01*
X163544250Y-125390000D01*
X163703000Y-125231250D01*
X163703000Y-122682000D01*
X158369000Y-122682000D01*
X158115000Y-122682000D01*
X155265750Y-122682000D01*
X155107000Y-122840750D01*
X150112000Y-122840750D01*
X150112000Y-115370463D01*
X150144192Y-115338327D01*
X150286838Y-114994799D01*
X150287162Y-114622833D01*
X150145117Y-114279057D01*
X149882327Y-114015808D01*
X149538799Y-113873162D01*
X149166833Y-113872838D01*
X148823057Y-114014883D01*
X148559808Y-114277673D01*
X148417162Y-114621201D01*
X148416838Y-114993167D01*
X148558883Y-115336943D01*
X148592000Y-115370118D01*
X148592000Y-127508000D01*
X148649852Y-127798839D01*
X148814599Y-128045401D01*
X150846599Y-130077401D01*
X151093161Y-130242148D01*
X151384000Y-130300000D01*
X164846000Y-130300000D01*
X165136839Y-130242148D01*
X165383401Y-130077401D01*
X165654546Y-129806256D01*
X165275632Y-130718782D01*
X165274370Y-132164874D01*
X165826600Y-133501372D01*
X166234515Y-133910000D01*
X148090852Y-133910000D01*
X148494806Y-133506751D01*
X149049368Y-132171218D01*
X149050630Y-130725126D01*
X148498400Y-129388628D01*
X147476751Y-128365194D01*
X146141218Y-127810632D01*
X144695126Y-127809370D01*
X143358628Y-128361600D01*
X142950000Y-128769515D01*
X142950000Y-127131125D01*
X142959990Y-127155303D01*
X143352630Y-127548629D01*
X143865900Y-127761757D01*
X144421661Y-127762242D01*
X144935303Y-127550010D01*
X145328629Y-127157370D01*
X145414949Y-126949488D01*
X145499990Y-127155303D01*
X145892630Y-127548629D01*
X146405900Y-127761757D01*
X146961661Y-127762242D01*
X147475303Y-127550010D01*
X147868629Y-127157370D01*
X148081757Y-126644100D01*
X148082242Y-126088339D01*
X147870010Y-125574697D01*
X147477370Y-125181371D01*
X147269488Y-125095051D01*
X147475303Y-125010010D01*
X147868629Y-124617370D01*
X148081757Y-124104100D01*
X148082242Y-123548339D01*
X147870010Y-123034697D01*
X147477370Y-122641371D01*
X147269488Y-122555051D01*
X147475303Y-122470010D01*
X147868629Y-122077370D01*
X148081757Y-121564100D01*
X148082242Y-121008339D01*
X147870010Y-120494697D01*
X147477370Y-120101371D01*
X147269488Y-120015051D01*
X147475303Y-119930010D01*
X147868629Y-119537370D01*
X148081757Y-119024100D01*
X148082242Y-118468339D01*
X147870010Y-117954697D01*
X147477370Y-117561371D01*
X147269488Y-117475051D01*
X147475303Y-117390010D01*
X147868629Y-116997370D01*
X148081757Y-116484100D01*
X148082242Y-115928339D01*
X147870010Y-115414697D01*
X147477370Y-115021371D01*
X147269488Y-114935051D01*
X147475303Y-114850010D01*
X147868629Y-114457370D01*
X148081757Y-113944100D01*
X148082242Y-113388339D01*
X147870010Y-112874697D01*
X147477370Y-112481371D01*
X147269488Y-112395051D01*
X147475303Y-112310010D01*
X147868629Y-111917370D01*
X148081757Y-111404100D01*
X148082242Y-110848339D01*
X147870010Y-110334697D01*
X147477370Y-109941371D01*
X147269488Y-109855051D01*
X147475303Y-109770010D01*
X147868629Y-109377370D01*
X148081757Y-108864100D01*
X148082242Y-108308339D01*
X147870010Y-107794697D01*
X147477370Y-107401371D01*
X147269488Y-107315051D01*
X147475303Y-107230010D01*
X147868629Y-106837370D01*
X148081757Y-106324100D01*
X148082242Y-105768339D01*
X147870010Y-105254697D01*
X147477370Y-104861371D01*
X147269488Y-104775051D01*
X147475303Y-104690010D01*
X147868629Y-104297370D01*
X148081757Y-103784100D01*
X148082242Y-103228339D01*
X147871499Y-102718301D01*
X149590599Y-104437401D01*
X149590599Y-104437401D01*
G37*
X149590599Y-104437401D02*
X149837161Y-104602148D01*
X150128000Y-104660000D01*
X150144442Y-104660000D01*
X150186838Y-104885317D01*
X150325910Y-105101441D01*
X150515000Y-105230641D01*
X150515000Y-106183156D01*
X150448559Y-106225910D01*
X150303569Y-106438110D01*
X150252560Y-106690000D01*
X150252560Y-107940000D01*
X150296838Y-108175317D01*
X150435910Y-108391441D01*
X150640000Y-108530890D01*
X150640000Y-115332000D01*
X150697852Y-115622839D01*
X150862599Y-115869401D01*
X154656599Y-119663401D01*
X154903160Y-119828148D01*
X155129959Y-119873261D01*
X155107000Y-119928690D01*
X155107000Y-122269250D01*
X155265750Y-122428000D01*
X158115000Y-122428000D01*
X158115000Y-122408000D01*
X158369000Y-122408000D01*
X158369000Y-122428000D01*
X163703000Y-122428000D01*
X163703000Y-122408000D01*
X163957000Y-122408000D01*
X163957000Y-122428000D01*
X169291000Y-122428000D01*
X169291000Y-119578750D01*
X169132250Y-119420000D01*
X166791691Y-119420000D01*
X166558302Y-119516673D01*
X166379673Y-119695301D01*
X166369442Y-119720000D01*
X165298694Y-119720000D01*
X165383401Y-119663401D01*
X165916801Y-119130001D01*
X166081548Y-118883439D01*
X166098654Y-118797440D01*
X166695000Y-118797440D01*
X166930317Y-118753162D01*
X167146441Y-118614090D01*
X167291431Y-118401890D01*
X167325227Y-118235000D01*
X167845995Y-118235000D01*
X167961201Y-118282838D01*
X168333167Y-118283162D01*
X168676943Y-118141117D01*
X168940192Y-117878327D01*
X169082838Y-117534799D01*
X169083162Y-117162833D01*
X168941117Y-116819057D01*
X168678327Y-116555808D01*
X168334799Y-116413162D01*
X167962833Y-116412838D01*
X167619057Y-116554883D01*
X167458660Y-116715000D01*
X167326446Y-116715000D01*
X167298162Y-116564683D01*
X167159090Y-116348559D01*
X166946890Y-116203569D01*
X166695000Y-116152560D01*
X166045000Y-116152560D01*
X166003451Y-116160378D01*
X166171633Y-115908675D01*
X166179445Y-115869401D01*
X166239001Y-115570000D01*
X166239000Y-115569995D01*
X166239000Y-114395000D01*
X166592250Y-114395000D01*
X166751000Y-114236250D01*
X166751000Y-113387000D01*
X167005000Y-113387000D01*
X167005000Y-114236250D01*
X167163750Y-114395000D01*
X167804310Y-114395000D01*
X168037699Y-114298327D01*
X168216327Y-114119698D01*
X168313000Y-113886309D01*
X168313000Y-113545750D01*
X168154250Y-113387000D01*
X167005000Y-113387000D01*
X166751000Y-113387000D01*
X166731000Y-113387000D01*
X166731000Y-113133000D01*
X166751000Y-113133000D01*
X166751000Y-112283750D01*
X167005000Y-112283750D01*
X167005000Y-113133000D01*
X168154250Y-113133000D01*
X168313000Y-112974250D01*
X168313000Y-112633691D01*
X168216327Y-112400302D01*
X168037699Y-112221673D01*
X167804310Y-112125000D01*
X167163750Y-112125000D01*
X167005000Y-112283750D01*
X166751000Y-112283750D01*
X166592250Y-112125000D01*
X166264580Y-112125000D01*
X166982139Y-111407440D01*
X167678000Y-111407440D01*
X167913317Y-111363162D01*
X168129441Y-111224090D01*
X168274431Y-111011890D01*
X168325440Y-110760000D01*
X168325440Y-109760000D01*
X168281162Y-109524683D01*
X168142090Y-109308559D01*
X167929890Y-109163569D01*
X167678000Y-109112560D01*
X166078000Y-109112560D01*
X165842683Y-109156838D01*
X165626559Y-109295910D01*
X165572519Y-109375000D01*
X165227440Y-109375000D01*
X165227440Y-108884890D01*
X165539167Y-108885162D01*
X165882943Y-108743117D01*
X166029571Y-108596745D01*
X166199071Y-108710000D01*
X166285325Y-108767633D01*
X166624000Y-108835001D01*
X166624005Y-108835000D01*
X168909995Y-108835000D01*
X168910000Y-108835001D01*
X169192484Y-108778810D01*
X169248675Y-108767633D01*
X169535790Y-108575790D01*
X170034706Y-108076874D01*
X170456661Y-108077242D01*
X170970303Y-107865010D01*
X171363629Y-107472370D01*
X171375000Y-107444986D01*
X171375000Y-119420000D01*
X169703750Y-119420000D01*
X169545000Y-119578750D01*
X169545000Y-122428000D01*
X169565000Y-122428000D01*
X169565000Y-122682000D01*
X169545000Y-122682000D01*
X169545000Y-122702000D01*
X169291000Y-122702000D01*
X169291000Y-122682000D01*
X163957000Y-122682000D01*
X163957000Y-125231250D01*
X164115750Y-125390000D01*
X166369442Y-125390000D01*
X166379673Y-125414699D01*
X166442974Y-125478000D01*
X161544000Y-125478000D01*
X161253160Y-125535852D01*
X161006599Y-125700599D01*
X160752599Y-125954599D01*
X160587852Y-126201161D01*
X160531521Y-126484352D01*
X160513559Y-126495910D01*
X160368569Y-126708110D01*
X160317560Y-126960000D01*
X160317560Y-128310000D01*
X160361838Y-128545317D01*
X160500910Y-128761441D01*
X160528072Y-128780000D01*
X151698802Y-128780000D01*
X150112000Y-127193198D01*
X150112000Y-122840750D01*
X155107000Y-122840750D01*
X155107000Y-125181310D01*
X155203673Y-125414699D01*
X155382302Y-125593327D01*
X155615691Y-125690000D01*
X157956250Y-125690000D01*
X158115000Y-125531250D01*
X158115000Y-122682000D01*
X158369000Y-122682000D01*
X158369000Y-125531250D01*
X158527750Y-125690000D01*
X160868309Y-125690000D01*
X161101698Y-125593327D01*
X161280327Y-125414699D01*
X161290558Y-125390000D01*
X163544250Y-125390000D01*
X163703000Y-125231250D01*
X163703000Y-122682000D01*
X158369000Y-122682000D01*
X158115000Y-122682000D01*
X155265750Y-122682000D01*
X155107000Y-122840750D01*
X150112000Y-122840750D01*
X150112000Y-115370463D01*
X150144192Y-115338327D01*
X150286838Y-114994799D01*
X150287162Y-114622833D01*
X150145117Y-114279057D01*
X149882327Y-114015808D01*
X149538799Y-113873162D01*
X149166833Y-113872838D01*
X148823057Y-114014883D01*
X148559808Y-114277673D01*
X148417162Y-114621201D01*
X148416838Y-114993167D01*
X148558883Y-115336943D01*
X148592000Y-115370118D01*
X148592000Y-127508000D01*
X148649852Y-127798839D01*
X148814599Y-128045401D01*
X150846599Y-130077401D01*
X151093161Y-130242148D01*
X151384000Y-130300000D01*
X164846000Y-130300000D01*
X165136839Y-130242148D01*
X165383401Y-130077401D01*
X165654546Y-129806256D01*
X165275632Y-130718782D01*
X165274370Y-132164874D01*
X165826600Y-133501372D01*
X166234515Y-133910000D01*
X148090852Y-133910000D01*
X148494806Y-133506751D01*
X149049368Y-132171218D01*
X149050630Y-130725126D01*
X148498400Y-129388628D01*
X147476751Y-128365194D01*
X146141218Y-127810632D01*
X144695126Y-127809370D01*
X143358628Y-128361600D01*
X142950000Y-128769515D01*
X142950000Y-127131125D01*
X142959990Y-127155303D01*
X143352630Y-127548629D01*
X143865900Y-127761757D01*
X144421661Y-127762242D01*
X144935303Y-127550010D01*
X145328629Y-127157370D01*
X145414949Y-126949488D01*
X145499990Y-127155303D01*
X145892630Y-127548629D01*
X146405900Y-127761757D01*
X146961661Y-127762242D01*
X147475303Y-127550010D01*
X147868629Y-127157370D01*
X148081757Y-126644100D01*
X148082242Y-126088339D01*
X147870010Y-125574697D01*
X147477370Y-125181371D01*
X147269488Y-125095051D01*
X147475303Y-125010010D01*
X147868629Y-124617370D01*
X148081757Y-124104100D01*
X148082242Y-123548339D01*
X147870010Y-123034697D01*
X147477370Y-122641371D01*
X147269488Y-122555051D01*
X147475303Y-122470010D01*
X147868629Y-122077370D01*
X148081757Y-121564100D01*
X148082242Y-121008339D01*
X147870010Y-120494697D01*
X147477370Y-120101371D01*
X147269488Y-120015051D01*
X147475303Y-119930010D01*
X147868629Y-119537370D01*
X148081757Y-119024100D01*
X148082242Y-118468339D01*
X147870010Y-117954697D01*
X147477370Y-117561371D01*
X147269488Y-117475051D01*
X147475303Y-117390010D01*
X147868629Y-116997370D01*
X148081757Y-116484100D01*
X148082242Y-115928339D01*
X147870010Y-115414697D01*
X147477370Y-115021371D01*
X147269488Y-114935051D01*
X147475303Y-114850010D01*
X147868629Y-114457370D01*
X148081757Y-113944100D01*
X148082242Y-113388339D01*
X147870010Y-112874697D01*
X147477370Y-112481371D01*
X147269488Y-112395051D01*
X147475303Y-112310010D01*
X147868629Y-111917370D01*
X148081757Y-111404100D01*
X148082242Y-110848339D01*
X147870010Y-110334697D01*
X147477370Y-109941371D01*
X147269488Y-109855051D01*
X147475303Y-109770010D01*
X147868629Y-109377370D01*
X148081757Y-108864100D01*
X148082242Y-108308339D01*
X147870010Y-107794697D01*
X147477370Y-107401371D01*
X147269488Y-107315051D01*
X147475303Y-107230010D01*
X147868629Y-106837370D01*
X148081757Y-106324100D01*
X148082242Y-105768339D01*
X147870010Y-105254697D01*
X147477370Y-104861371D01*
X147269488Y-104775051D01*
X147475303Y-104690010D01*
X147868629Y-104297370D01*
X148081757Y-103784100D01*
X148082242Y-103228339D01*
X147871499Y-102718301D01*
X149590599Y-104437401D01*
G36*
X162433000Y-127508000D02*
X163195000Y-127508000D01*
X163195000Y-127488000D01*
X163449000Y-127488000D01*
X163449000Y-127508000D01*
X164211000Y-127508000D01*
X164211000Y-127488000D01*
X164381560Y-127488000D01*
X164381560Y-127782000D01*
X164211000Y-127782000D01*
X164211000Y-127762000D01*
X163449000Y-127762000D01*
X163449000Y-127782000D01*
X163195000Y-127782000D01*
X163195000Y-127762000D01*
X162433000Y-127762000D01*
X162433000Y-127782000D01*
X162262440Y-127782000D01*
X162262440Y-127488000D01*
X162433000Y-127488000D01*
X162433000Y-127508000D01*
X162433000Y-127508000D01*
G37*
X162433000Y-127508000D02*
X163195000Y-127508000D01*
X163195000Y-127488000D01*
X163449000Y-127488000D01*
X163449000Y-127508000D01*
X164211000Y-127508000D01*
X164211000Y-127488000D01*
X164381560Y-127488000D01*
X164381560Y-127782000D01*
X164211000Y-127782000D01*
X164211000Y-127762000D01*
X163449000Y-127762000D01*
X163449000Y-127782000D01*
X163195000Y-127782000D01*
X163195000Y-127762000D01*
X162433000Y-127762000D01*
X162433000Y-127782000D01*
X162262440Y-127782000D01*
X162262440Y-127488000D01*
X162433000Y-127488000D01*
X162433000Y-127508000D01*
G36*
X159946910Y-94661441D02*
X160159110Y-94806431D01*
X160411000Y-94857440D01*
X161446981Y-94857440D01*
X160664210Y-95640210D01*
X160472367Y-95927325D01*
X160472367Y-95927326D01*
X160404999Y-96266000D01*
X160405000Y-96266005D01*
X160405000Y-107219995D01*
X160404999Y-107220000D01*
X160444993Y-107421057D01*
X160472367Y-107558675D01*
X160543210Y-107664699D01*
X160664210Y-107845790D01*
X162359798Y-109541377D01*
X162166890Y-109409569D01*
X161915000Y-109358560D01*
X160665000Y-109358560D01*
X160429683Y-109402838D01*
X160213559Y-109541910D01*
X160068569Y-109754110D01*
X160017560Y-110006000D01*
X160017560Y-111006000D01*
X160061838Y-111241317D01*
X160200910Y-111457441D01*
X160269006Y-111503969D01*
X160126673Y-111646302D01*
X160030000Y-111879691D01*
X160030000Y-112220250D01*
X160188750Y-112379000D01*
X161163000Y-112379000D01*
X161163000Y-112359000D01*
X161417000Y-112359000D01*
X161417000Y-112379000D01*
X161437000Y-112379000D01*
X161437000Y-112633000D01*
X161417000Y-112633000D01*
X161417000Y-113482250D01*
X161575750Y-113641000D01*
X162041310Y-113641000D01*
X162274699Y-113544327D01*
X162445000Y-113374025D01*
X162445000Y-113474250D01*
X162603750Y-113633000D01*
X163703000Y-113633000D01*
X163703000Y-113613000D01*
X163957000Y-113613000D01*
X163957000Y-113633000D01*
X163977000Y-113633000D01*
X163977000Y-113887000D01*
X163957000Y-113887000D01*
X163957000Y-113907000D01*
X163703000Y-113907000D01*
X163703000Y-113887000D01*
X162603750Y-113887000D01*
X162580974Y-113909776D01*
X162492799Y-113873162D01*
X162120833Y-113872838D01*
X161777057Y-114014883D01*
X161513808Y-114277673D01*
X161371162Y-114621201D01*
X161370838Y-114993167D01*
X161512883Y-115336943D01*
X161546000Y-115370118D01*
X161546000Y-116194750D01*
X161417000Y-116323750D01*
X161417000Y-116500646D01*
X161384569Y-116548110D01*
X161333560Y-116800000D01*
X161333560Y-117622000D01*
X161163000Y-117622000D01*
X161163000Y-117602000D01*
X160488750Y-117602000D01*
X160330000Y-117760750D01*
X160330000Y-118276310D01*
X160367151Y-118366000D01*
X155508802Y-118366000D01*
X153816492Y-116673690D01*
X160330000Y-116673690D01*
X160330000Y-117189250D01*
X160488750Y-117348000D01*
X161163000Y-117348000D01*
X161163000Y-116323750D01*
X161004250Y-116165000D01*
X160838691Y-116165000D01*
X160605302Y-116261673D01*
X160426673Y-116440301D01*
X160330000Y-116673690D01*
X153816492Y-116673690D01*
X152160000Y-115017198D01*
X152160000Y-112791750D01*
X160030000Y-112791750D01*
X160030000Y-113132309D01*
X160126673Y-113365698D01*
X160305301Y-113544327D01*
X160538690Y-113641000D01*
X161004250Y-113641000D01*
X161163000Y-113482250D01*
X161163000Y-112633000D01*
X160188750Y-112633000D01*
X160030000Y-112791750D01*
X152160000Y-112791750D01*
X152160000Y-108527279D01*
X152351441Y-108404090D01*
X152397969Y-108335994D01*
X152540302Y-108478327D01*
X152773691Y-108575000D01*
X153114250Y-108575000D01*
X153273000Y-108416250D01*
X153273000Y-107442000D01*
X153527000Y-107442000D01*
X153527000Y-108416250D01*
X153685750Y-108575000D01*
X154026309Y-108575000D01*
X154259698Y-108478327D01*
X154438327Y-108299699D01*
X154535000Y-108066310D01*
X154535000Y-107600750D01*
X154376250Y-107442000D01*
X153527000Y-107442000D01*
X153273000Y-107442000D01*
X153253000Y-107442000D01*
X153253000Y-107188000D01*
X153273000Y-107188000D01*
X153273000Y-106213750D01*
X153527000Y-106213750D01*
X153527000Y-107188000D01*
X154376250Y-107188000D01*
X154535000Y-107029250D01*
X154535000Y-106563690D01*
X154438327Y-106330301D01*
X154259698Y-106151673D01*
X154026309Y-106055000D01*
X153685750Y-106055000D01*
X153527000Y-106213750D01*
X153273000Y-106213750D01*
X153114250Y-106055000D01*
X152773691Y-106055000D01*
X152540302Y-106151673D01*
X152399064Y-106292910D01*
X152364090Y-106238559D01*
X152285000Y-106184519D01*
X152285000Y-105297440D01*
X152790000Y-105297440D01*
X153025317Y-105253162D01*
X153241441Y-105114090D01*
X153386431Y-104901890D01*
X153437440Y-104650000D01*
X153437440Y-103150000D01*
X153393162Y-102914683D01*
X153286241Y-102748523D01*
X153386431Y-102601890D01*
X153435415Y-102360000D01*
X156442560Y-102360000D01*
X156442560Y-103500000D01*
X156486838Y-103735317D01*
X156625910Y-103951441D01*
X156838110Y-104096431D01*
X157090000Y-104147440D01*
X159090000Y-104147440D01*
X159325317Y-104103162D01*
X159541441Y-103964090D01*
X159686431Y-103751890D01*
X159737440Y-103500000D01*
X159737440Y-99700000D01*
X159693162Y-99464683D01*
X159554090Y-99248559D01*
X159341890Y-99103569D01*
X159090000Y-99052560D01*
X157090000Y-99052560D01*
X156854683Y-99096838D01*
X156638559Y-99235910D01*
X156493569Y-99448110D01*
X156442560Y-99700000D01*
X156442560Y-100840000D01*
X153435558Y-100840000D01*
X153393162Y-100614683D01*
X153287518Y-100450508D01*
X153328327Y-100409699D01*
X153425000Y-100176310D01*
X153425000Y-99585750D01*
X153266250Y-99427000D01*
X151917000Y-99427000D01*
X151917000Y-99447000D01*
X151663000Y-99447000D01*
X151663000Y-99427000D01*
X151643000Y-99427000D01*
X151643000Y-99173000D01*
X151663000Y-99173000D01*
X151663000Y-98073750D01*
X151917000Y-98073750D01*
X151917000Y-99173000D01*
X153266250Y-99173000D01*
X153425000Y-99014250D01*
X153425000Y-98423690D01*
X153328327Y-98190301D01*
X153149698Y-98011673D01*
X152916309Y-97915000D01*
X152075750Y-97915000D01*
X151917000Y-98073750D01*
X151663000Y-98073750D01*
X151504250Y-97915000D01*
X151063802Y-97915000D01*
X151302401Y-97676401D01*
X151467148Y-97429840D01*
X151525000Y-97139000D01*
X151525000Y-97097279D01*
X151716441Y-96974090D01*
X151762969Y-96905994D01*
X151905302Y-97048327D01*
X152138691Y-97145000D01*
X152479250Y-97145000D01*
X152638000Y-96986250D01*
X152638000Y-96012000D01*
X152892000Y-96012000D01*
X152892000Y-96986250D01*
X153050750Y-97145000D01*
X153391309Y-97145000D01*
X153624698Y-97048327D01*
X153803327Y-96869699D01*
X153900000Y-96636310D01*
X153900000Y-96170750D01*
X153741250Y-96012000D01*
X152892000Y-96012000D01*
X152638000Y-96012000D01*
X152618000Y-96012000D01*
X152618000Y-95758000D01*
X152638000Y-95758000D01*
X152638000Y-95738000D01*
X152892000Y-95738000D01*
X152892000Y-95758000D01*
X153741250Y-95758000D01*
X153900000Y-95599250D01*
X153900000Y-95248000D01*
X159004000Y-95248000D01*
X159294839Y-95190148D01*
X159541401Y-95025401D01*
X159930642Y-94636160D01*
X159946910Y-94661441D01*
X159946910Y-94661441D01*
G37*
X159946910Y-94661441D02*
X160159110Y-94806431D01*
X160411000Y-94857440D01*
X161446981Y-94857440D01*
X160664210Y-95640210D01*
X160472367Y-95927325D01*
X160472367Y-95927326D01*
X160404999Y-96266000D01*
X160405000Y-96266005D01*
X160405000Y-107219995D01*
X160404999Y-107220000D01*
X160444993Y-107421057D01*
X160472367Y-107558675D01*
X160543210Y-107664699D01*
X160664210Y-107845790D01*
X162359798Y-109541377D01*
X162166890Y-109409569D01*
X161915000Y-109358560D01*
X160665000Y-109358560D01*
X160429683Y-109402838D01*
X160213559Y-109541910D01*
X160068569Y-109754110D01*
X160017560Y-110006000D01*
X160017560Y-111006000D01*
X160061838Y-111241317D01*
X160200910Y-111457441D01*
X160269006Y-111503969D01*
X160126673Y-111646302D01*
X160030000Y-111879691D01*
X160030000Y-112220250D01*
X160188750Y-112379000D01*
X161163000Y-112379000D01*
X161163000Y-112359000D01*
X161417000Y-112359000D01*
X161417000Y-112379000D01*
X161437000Y-112379000D01*
X161437000Y-112633000D01*
X161417000Y-112633000D01*
X161417000Y-113482250D01*
X161575750Y-113641000D01*
X162041310Y-113641000D01*
X162274699Y-113544327D01*
X162445000Y-113374025D01*
X162445000Y-113474250D01*
X162603750Y-113633000D01*
X163703000Y-113633000D01*
X163703000Y-113613000D01*
X163957000Y-113613000D01*
X163957000Y-113633000D01*
X163977000Y-113633000D01*
X163977000Y-113887000D01*
X163957000Y-113887000D01*
X163957000Y-113907000D01*
X163703000Y-113907000D01*
X163703000Y-113887000D01*
X162603750Y-113887000D01*
X162580974Y-113909776D01*
X162492799Y-113873162D01*
X162120833Y-113872838D01*
X161777057Y-114014883D01*
X161513808Y-114277673D01*
X161371162Y-114621201D01*
X161370838Y-114993167D01*
X161512883Y-115336943D01*
X161546000Y-115370118D01*
X161546000Y-116194750D01*
X161417000Y-116323750D01*
X161417000Y-116500646D01*
X161384569Y-116548110D01*
X161333560Y-116800000D01*
X161333560Y-117622000D01*
X161163000Y-117622000D01*
X161163000Y-117602000D01*
X160488750Y-117602000D01*
X160330000Y-117760750D01*
X160330000Y-118276310D01*
X160367151Y-118366000D01*
X155508802Y-118366000D01*
X153816492Y-116673690D01*
X160330000Y-116673690D01*
X160330000Y-117189250D01*
X160488750Y-117348000D01*
X161163000Y-117348000D01*
X161163000Y-116323750D01*
X161004250Y-116165000D01*
X160838691Y-116165000D01*
X160605302Y-116261673D01*
X160426673Y-116440301D01*
X160330000Y-116673690D01*
X153816492Y-116673690D01*
X152160000Y-115017198D01*
X152160000Y-112791750D01*
X160030000Y-112791750D01*
X160030000Y-113132309D01*
X160126673Y-113365698D01*
X160305301Y-113544327D01*
X160538690Y-113641000D01*
X161004250Y-113641000D01*
X161163000Y-113482250D01*
X161163000Y-112633000D01*
X160188750Y-112633000D01*
X160030000Y-112791750D01*
X152160000Y-112791750D01*
X152160000Y-108527279D01*
X152351441Y-108404090D01*
X152397969Y-108335994D01*
X152540302Y-108478327D01*
X152773691Y-108575000D01*
X153114250Y-108575000D01*
X153273000Y-108416250D01*
X153273000Y-107442000D01*
X153527000Y-107442000D01*
X153527000Y-108416250D01*
X153685750Y-108575000D01*
X154026309Y-108575000D01*
X154259698Y-108478327D01*
X154438327Y-108299699D01*
X154535000Y-108066310D01*
X154535000Y-107600750D01*
X154376250Y-107442000D01*
X153527000Y-107442000D01*
X153273000Y-107442000D01*
X153253000Y-107442000D01*
X153253000Y-107188000D01*
X153273000Y-107188000D01*
X153273000Y-106213750D01*
X153527000Y-106213750D01*
X153527000Y-107188000D01*
X154376250Y-107188000D01*
X154535000Y-107029250D01*
X154535000Y-106563690D01*
X154438327Y-106330301D01*
X154259698Y-106151673D01*
X154026309Y-106055000D01*
X153685750Y-106055000D01*
X153527000Y-106213750D01*
X153273000Y-106213750D01*
X153114250Y-106055000D01*
X152773691Y-106055000D01*
X152540302Y-106151673D01*
X152399064Y-106292910D01*
X152364090Y-106238559D01*
X152285000Y-106184519D01*
X152285000Y-105297440D01*
X152790000Y-105297440D01*
X153025317Y-105253162D01*
X153241441Y-105114090D01*
X153386431Y-104901890D01*
X153437440Y-104650000D01*
X153437440Y-103150000D01*
X153393162Y-102914683D01*
X153286241Y-102748523D01*
X153386431Y-102601890D01*
X153435415Y-102360000D01*
X156442560Y-102360000D01*
X156442560Y-103500000D01*
X156486838Y-103735317D01*
X156625910Y-103951441D01*
X156838110Y-104096431D01*
X157090000Y-104147440D01*
X159090000Y-104147440D01*
X159325317Y-104103162D01*
X159541441Y-103964090D01*
X159686431Y-103751890D01*
X159737440Y-103500000D01*
X159737440Y-99700000D01*
X159693162Y-99464683D01*
X159554090Y-99248559D01*
X159341890Y-99103569D01*
X159090000Y-99052560D01*
X157090000Y-99052560D01*
X156854683Y-99096838D01*
X156638559Y-99235910D01*
X156493569Y-99448110D01*
X156442560Y-99700000D01*
X156442560Y-100840000D01*
X153435558Y-100840000D01*
X153393162Y-100614683D01*
X153287518Y-100450508D01*
X153328327Y-100409699D01*
X153425000Y-100176310D01*
X153425000Y-99585750D01*
X153266250Y-99427000D01*
X151917000Y-99427000D01*
X151917000Y-99447000D01*
X151663000Y-99447000D01*
X151663000Y-99427000D01*
X151643000Y-99427000D01*
X151643000Y-99173000D01*
X151663000Y-99173000D01*
X151663000Y-98073750D01*
X151917000Y-98073750D01*
X151917000Y-99173000D01*
X153266250Y-99173000D01*
X153425000Y-99014250D01*
X153425000Y-98423690D01*
X153328327Y-98190301D01*
X153149698Y-98011673D01*
X152916309Y-97915000D01*
X152075750Y-97915000D01*
X151917000Y-98073750D01*
X151663000Y-98073750D01*
X151504250Y-97915000D01*
X151063802Y-97915000D01*
X151302401Y-97676401D01*
X151467148Y-97429840D01*
X151525000Y-97139000D01*
X151525000Y-97097279D01*
X151716441Y-96974090D01*
X151762969Y-96905994D01*
X151905302Y-97048327D01*
X152138691Y-97145000D01*
X152479250Y-97145000D01*
X152638000Y-96986250D01*
X152638000Y-96012000D01*
X152892000Y-96012000D01*
X152892000Y-96986250D01*
X153050750Y-97145000D01*
X153391309Y-97145000D01*
X153624698Y-97048327D01*
X153803327Y-96869699D01*
X153900000Y-96636310D01*
X153900000Y-96170750D01*
X153741250Y-96012000D01*
X152892000Y-96012000D01*
X152638000Y-96012000D01*
X152618000Y-96012000D01*
X152618000Y-95758000D01*
X152638000Y-95758000D01*
X152638000Y-95738000D01*
X152892000Y-95738000D01*
X152892000Y-95758000D01*
X153741250Y-95758000D01*
X153900000Y-95599250D01*
X153900000Y-95248000D01*
X159004000Y-95248000D01*
X159294839Y-95190148D01*
X159541401Y-95025401D01*
X159930642Y-94636160D01*
X159946910Y-94661441D01*
G36*
X162957000Y-97663000D02*
X162977000Y-97663000D01*
X162977000Y-97917000D01*
X162957000Y-97917000D01*
X162957000Y-98891250D01*
X163115750Y-99050000D01*
X163456309Y-99050000D01*
X163689698Y-98953327D01*
X163830936Y-98812090D01*
X163865910Y-98866441D01*
X164078110Y-99011431D01*
X164317509Y-99059910D01*
X164094683Y-99101838D01*
X163878559Y-99240910D01*
X163832031Y-99309006D01*
X163689698Y-99166673D01*
X163456309Y-99070000D01*
X163115750Y-99070000D01*
X162957000Y-99228750D01*
X162957000Y-100203000D01*
X162977000Y-100203000D01*
X162977000Y-100457000D01*
X162957000Y-100457000D01*
X162957000Y-101431250D01*
X163115750Y-101590000D01*
X163456309Y-101590000D01*
X163689698Y-101493327D01*
X163830936Y-101352090D01*
X163865910Y-101406441D01*
X163911141Y-101437346D01*
X163910838Y-101785167D01*
X164044383Y-102108371D01*
X163911162Y-102429201D01*
X163910838Y-102801167D01*
X163985576Y-102982047D01*
X163878559Y-103050910D01*
X163832031Y-103119006D01*
X163689698Y-102976673D01*
X163456309Y-102880000D01*
X163115750Y-102880000D01*
X162957000Y-103038750D01*
X162957000Y-104013000D01*
X162977000Y-104013000D01*
X162977000Y-104267000D01*
X162957000Y-104267000D01*
X162957000Y-105241250D01*
X163115750Y-105400000D01*
X163456309Y-105400000D01*
X163689698Y-105303327D01*
X163830936Y-105162090D01*
X163865910Y-105216441D01*
X164078110Y-105361431D01*
X164317509Y-105409910D01*
X164094683Y-105451838D01*
X163878559Y-105590910D01*
X163832031Y-105659006D01*
X163689698Y-105516673D01*
X163456309Y-105420000D01*
X163115750Y-105420000D01*
X162957000Y-105578750D01*
X162957000Y-106553000D01*
X162977000Y-106553000D01*
X162977000Y-106807000D01*
X162957000Y-106807000D01*
X162957000Y-106827000D01*
X162703000Y-106827000D01*
X162703000Y-106807000D01*
X162683000Y-106807000D01*
X162683000Y-106553000D01*
X162703000Y-106553000D01*
X162703000Y-105578750D01*
X162544250Y-105420000D01*
X162203691Y-105420000D01*
X162175000Y-105431884D01*
X162175000Y-105388116D01*
X162203691Y-105400000D01*
X162544250Y-105400000D01*
X162703000Y-105241250D01*
X162703000Y-104267000D01*
X162683000Y-104267000D01*
X162683000Y-104013000D01*
X162703000Y-104013000D01*
X162703000Y-103038750D01*
X162544250Y-102880000D01*
X162203691Y-102880000D01*
X162175000Y-102891884D01*
X162175000Y-101578116D01*
X162203691Y-101590000D01*
X162544250Y-101590000D01*
X162703000Y-101431250D01*
X162703000Y-100457000D01*
X162683000Y-100457000D01*
X162683000Y-100203000D01*
X162703000Y-100203000D01*
X162703000Y-99228750D01*
X162544250Y-99070000D01*
X162203691Y-99070000D01*
X162175000Y-99081884D01*
X162175000Y-99038116D01*
X162203691Y-99050000D01*
X162544250Y-99050000D01*
X162703000Y-98891250D01*
X162703000Y-97917000D01*
X162683000Y-97917000D01*
X162683000Y-97663000D01*
X162703000Y-97663000D01*
X162703000Y-97643000D01*
X162957000Y-97643000D01*
X162957000Y-97663000D01*
X162957000Y-97663000D01*
G37*
X162957000Y-97663000D02*
X162977000Y-97663000D01*
X162977000Y-97917000D01*
X162957000Y-97917000D01*
X162957000Y-98891250D01*
X163115750Y-99050000D01*
X163456309Y-99050000D01*
X163689698Y-98953327D01*
X163830936Y-98812090D01*
X163865910Y-98866441D01*
X164078110Y-99011431D01*
X164317509Y-99059910D01*
X164094683Y-99101838D01*
X163878559Y-99240910D01*
X163832031Y-99309006D01*
X163689698Y-99166673D01*
X163456309Y-99070000D01*
X163115750Y-99070000D01*
X162957000Y-99228750D01*
X162957000Y-100203000D01*
X162977000Y-100203000D01*
X162977000Y-100457000D01*
X162957000Y-100457000D01*
X162957000Y-101431250D01*
X163115750Y-101590000D01*
X163456309Y-101590000D01*
X163689698Y-101493327D01*
X163830936Y-101352090D01*
X163865910Y-101406441D01*
X163911141Y-101437346D01*
X163910838Y-101785167D01*
X164044383Y-102108371D01*
X163911162Y-102429201D01*
X163910838Y-102801167D01*
X163985576Y-102982047D01*
X163878559Y-103050910D01*
X163832031Y-103119006D01*
X163689698Y-102976673D01*
X163456309Y-102880000D01*
X163115750Y-102880000D01*
X162957000Y-103038750D01*
X162957000Y-104013000D01*
X162977000Y-104013000D01*
X162977000Y-104267000D01*
X162957000Y-104267000D01*
X162957000Y-105241250D01*
X163115750Y-105400000D01*
X163456309Y-105400000D01*
X163689698Y-105303327D01*
X163830936Y-105162090D01*
X163865910Y-105216441D01*
X164078110Y-105361431D01*
X164317509Y-105409910D01*
X164094683Y-105451838D01*
X163878559Y-105590910D01*
X163832031Y-105659006D01*
X163689698Y-105516673D01*
X163456309Y-105420000D01*
X163115750Y-105420000D01*
X162957000Y-105578750D01*
X162957000Y-106553000D01*
X162977000Y-106553000D01*
X162977000Y-106807000D01*
X162957000Y-106807000D01*
X162957000Y-106827000D01*
X162703000Y-106827000D01*
X162703000Y-106807000D01*
X162683000Y-106807000D01*
X162683000Y-106553000D01*
X162703000Y-106553000D01*
X162703000Y-105578750D01*
X162544250Y-105420000D01*
X162203691Y-105420000D01*
X162175000Y-105431884D01*
X162175000Y-105388116D01*
X162203691Y-105400000D01*
X162544250Y-105400000D01*
X162703000Y-105241250D01*
X162703000Y-104267000D01*
X162683000Y-104267000D01*
X162683000Y-104013000D01*
X162703000Y-104013000D01*
X162703000Y-103038750D01*
X162544250Y-102880000D01*
X162203691Y-102880000D01*
X162175000Y-102891884D01*
X162175000Y-101578116D01*
X162203691Y-101590000D01*
X162544250Y-101590000D01*
X162703000Y-101431250D01*
X162703000Y-100457000D01*
X162683000Y-100457000D01*
X162683000Y-100203000D01*
X162703000Y-100203000D01*
X162703000Y-99228750D01*
X162544250Y-99070000D01*
X162203691Y-99070000D01*
X162175000Y-99081884D01*
X162175000Y-99038116D01*
X162203691Y-99050000D01*
X162544250Y-99050000D01*
X162703000Y-98891250D01*
X162703000Y-97917000D01*
X162683000Y-97917000D01*
X162683000Y-97663000D01*
X162703000Y-97663000D01*
X162703000Y-97643000D01*
X162957000Y-97643000D01*
X162957000Y-97663000D01*
G36*
X165830194Y-70963249D02*
X165275632Y-72298782D01*
X165274370Y-73744874D01*
X165826600Y-75081372D01*
X166257036Y-75512560D01*
X166045000Y-75512560D01*
X165859529Y-75547459D01*
X165805309Y-75525000D01*
X165639750Y-75525000D01*
X165481000Y-75683750D01*
X165481000Y-75860646D01*
X165448569Y-75908110D01*
X165397560Y-76160000D01*
X165397560Y-77510000D01*
X165441838Y-77745317D01*
X165481000Y-77806176D01*
X165481000Y-77986250D01*
X165639750Y-78145000D01*
X165805309Y-78145000D01*
X165863842Y-78120755D01*
X166045000Y-78157440D01*
X166695000Y-78157440D01*
X166930317Y-78113162D01*
X167146441Y-77974090D01*
X167291431Y-77761890D01*
X167299914Y-77720000D01*
X167329541Y-77720000D01*
X167363673Y-77754192D01*
X167707201Y-77896838D01*
X168079167Y-77897162D01*
X168422943Y-77755117D01*
X168686192Y-77492327D01*
X168828838Y-77148799D01*
X168829162Y-76776833D01*
X168780842Y-76659889D01*
X169629874Y-76660630D01*
X170966372Y-76108400D01*
X171375000Y-75700485D01*
X171375000Y-78780000D01*
X169703750Y-78780000D01*
X169545000Y-78938750D01*
X169545000Y-81788000D01*
X169565000Y-81788000D01*
X169565000Y-82042000D01*
X169545000Y-82042000D01*
X169545000Y-84891250D01*
X169703750Y-85050000D01*
X171375000Y-85050000D01*
X171375000Y-97023875D01*
X171365010Y-96999697D01*
X170972370Y-96606371D01*
X170459100Y-96393243D01*
X170034452Y-96392872D01*
X169535790Y-95894210D01*
X169522006Y-95885000D01*
X169248675Y-95702367D01*
X169192484Y-95691190D01*
X168910000Y-95634999D01*
X168909995Y-95635000D01*
X166930822Y-95635000D01*
X166810799Y-95585162D01*
X166438833Y-95584838D01*
X166095057Y-95726883D01*
X165831808Y-95989673D01*
X165781434Y-96110987D01*
X165367306Y-96525115D01*
X165330000Y-96517560D01*
X165185408Y-96517560D01*
X165227440Y-96310000D01*
X165227440Y-95095000D01*
X165825156Y-95095000D01*
X165867910Y-95161441D01*
X166080110Y-95306431D01*
X166332000Y-95357440D01*
X167932000Y-95357440D01*
X168167317Y-95313162D01*
X168383441Y-95174090D01*
X168528431Y-94961890D01*
X168579440Y-94710000D01*
X168579440Y-93710000D01*
X168535162Y-93474683D01*
X168396090Y-93258559D01*
X168183890Y-93113569D01*
X167932000Y-93062560D01*
X166332000Y-93062560D01*
X166096683Y-93106838D01*
X165880559Y-93245910D01*
X165826519Y-93325000D01*
X165227440Y-93325000D01*
X165227440Y-93110000D01*
X165183162Y-92874683D01*
X165077518Y-92710507D01*
X165118327Y-92669698D01*
X165215000Y-92436309D01*
X165215000Y-91495750D01*
X165697000Y-91495750D01*
X165697000Y-91836309D01*
X165793673Y-92069698D01*
X165972301Y-92248327D01*
X166205690Y-92345000D01*
X166846250Y-92345000D01*
X167005000Y-92186250D01*
X167005000Y-91337000D01*
X167259000Y-91337000D01*
X167259000Y-92186250D01*
X167417750Y-92345000D01*
X168058310Y-92345000D01*
X168291699Y-92248327D01*
X168470327Y-92069698D01*
X168567000Y-91836309D01*
X168567000Y-91495750D01*
X168408250Y-91337000D01*
X167259000Y-91337000D01*
X167005000Y-91337000D01*
X165855750Y-91337000D01*
X165697000Y-91495750D01*
X165215000Y-91495750D01*
X165215000Y-90995750D01*
X165056250Y-90837000D01*
X163957000Y-90837000D01*
X163957000Y-90857000D01*
X163703000Y-90857000D01*
X163703000Y-90837000D01*
X163683000Y-90837000D01*
X163683000Y-90583691D01*
X165697000Y-90583691D01*
X165697000Y-90924250D01*
X165855750Y-91083000D01*
X167005000Y-91083000D01*
X167005000Y-90233750D01*
X167259000Y-90233750D01*
X167259000Y-91083000D01*
X168408250Y-91083000D01*
X168567000Y-90924250D01*
X168567000Y-90583691D01*
X168470327Y-90350302D01*
X168291699Y-90171673D01*
X168058310Y-90075000D01*
X167417750Y-90075000D01*
X167259000Y-90233750D01*
X167005000Y-90233750D01*
X166846250Y-90075000D01*
X166205690Y-90075000D01*
X165972301Y-90171673D01*
X165793673Y-90350302D01*
X165697000Y-90583691D01*
X163683000Y-90583691D01*
X163683000Y-90583000D01*
X163703000Y-90583000D01*
X163703000Y-90563000D01*
X163957000Y-90563000D01*
X163957000Y-90583000D01*
X165056250Y-90583000D01*
X165215000Y-90424250D01*
X165215000Y-89834880D01*
X165539167Y-89835162D01*
X165882943Y-89693117D01*
X166146192Y-89430327D01*
X166288838Y-89086799D01*
X166289162Y-88714833D01*
X166239000Y-88593431D01*
X166239000Y-88150250D01*
X166243000Y-88146250D01*
X166243000Y-87969354D01*
X166275431Y-87921890D01*
X166326440Y-87670000D01*
X166326440Y-87122000D01*
X166497000Y-87122000D01*
X166497000Y-88146250D01*
X166655750Y-88305000D01*
X166821309Y-88305000D01*
X167054698Y-88208327D01*
X167233327Y-88029699D01*
X167330000Y-87796310D01*
X167330000Y-87280750D01*
X167171250Y-87122000D01*
X166497000Y-87122000D01*
X166326440Y-87122000D01*
X166326440Y-86320000D01*
X166282162Y-86084683D01*
X166243000Y-86023824D01*
X166243000Y-85843750D01*
X166497000Y-85843750D01*
X166497000Y-86868000D01*
X167171250Y-86868000D01*
X167330000Y-86709250D01*
X167330000Y-86193690D01*
X167233327Y-85960301D01*
X167054698Y-85781673D01*
X166821309Y-85685000D01*
X166655750Y-85685000D01*
X166497000Y-85843750D01*
X166243000Y-85843750D01*
X166084250Y-85685000D01*
X165918691Y-85685000D01*
X165860158Y-85709245D01*
X165679000Y-85672560D01*
X165223000Y-85672560D01*
X165223000Y-85650822D01*
X165272838Y-85530799D01*
X165273162Y-85158833D01*
X165131117Y-84815057D01*
X165066173Y-84750000D01*
X166369442Y-84750000D01*
X166379673Y-84774699D01*
X166558302Y-84953327D01*
X166791691Y-85050000D01*
X169132250Y-85050000D01*
X169291000Y-84891250D01*
X169291000Y-82042000D01*
X163957000Y-82042000D01*
X163957000Y-82062000D01*
X163703000Y-82062000D01*
X163703000Y-82042000D01*
X158369000Y-82042000D01*
X158369000Y-84480750D01*
X158353000Y-84496750D01*
X158353000Y-85471000D01*
X159202250Y-85471000D01*
X159361000Y-85312250D01*
X159361000Y-85050000D01*
X160255198Y-85050000D01*
X159482599Y-85822599D01*
X159361000Y-86004585D01*
X159361000Y-85883750D01*
X159202250Y-85725000D01*
X158353000Y-85725000D01*
X158353000Y-86699250D01*
X158482630Y-86828880D01*
X158465808Y-86845673D01*
X158421657Y-86952000D01*
X157387018Y-86952000D01*
X157312090Y-86835559D01*
X157134880Y-86714477D01*
X157177441Y-86687090D01*
X157223969Y-86618994D01*
X157366302Y-86761327D01*
X157599691Y-86858000D01*
X157940250Y-86858000D01*
X158099000Y-86699250D01*
X158099000Y-85725000D01*
X158079000Y-85725000D01*
X158079000Y-85471000D01*
X158099000Y-85471000D01*
X158099000Y-84907250D01*
X158115000Y-84891250D01*
X158115000Y-82042000D01*
X155265750Y-82042000D01*
X155107000Y-82200750D01*
X155107000Y-83347219D01*
X154940000Y-83314000D01*
X153371785Y-83314000D01*
X153581441Y-83179090D01*
X153726431Y-82966890D01*
X153777440Y-82715000D01*
X153777440Y-81115000D01*
X153733162Y-80879683D01*
X153594090Y-80663559D01*
X153515000Y-80609519D01*
X153515000Y-78850620D01*
X153588838Y-78672799D01*
X153589162Y-78300833D01*
X153447117Y-77957057D01*
X153184327Y-77693808D01*
X152946372Y-77595000D01*
X154537560Y-77595000D01*
X154537560Y-78735000D01*
X154581838Y-78970317D01*
X154720910Y-79186441D01*
X154933110Y-79331431D01*
X155107000Y-79366645D01*
X155107000Y-81629250D01*
X155265750Y-81788000D01*
X158115000Y-81788000D01*
X158115000Y-81768000D01*
X158369000Y-81768000D01*
X158369000Y-81788000D01*
X163703000Y-81788000D01*
X163703000Y-81768000D01*
X163957000Y-81768000D01*
X163957000Y-81788000D01*
X169291000Y-81788000D01*
X169291000Y-78938750D01*
X169132250Y-78780000D01*
X166791691Y-78780000D01*
X166558302Y-78876673D01*
X166379673Y-79055301D01*
X166369442Y-79080000D01*
X165066408Y-79080000D01*
X165130192Y-79016327D01*
X165272838Y-78672799D01*
X165273162Y-78300833D01*
X165167687Y-78045563D01*
X165227000Y-77986250D01*
X165227000Y-77807719D01*
X165298000Y-77636310D01*
X165298000Y-77120750D01*
X165227000Y-77049750D01*
X165227000Y-76962000D01*
X164465000Y-76962000D01*
X164465000Y-76982000D01*
X164211000Y-76982000D01*
X164211000Y-76962000D01*
X163449000Y-76962000D01*
X163449000Y-76982000D01*
X163278440Y-76982000D01*
X163278440Y-76160000D01*
X163254674Y-76033690D01*
X163378000Y-76033690D01*
X163378000Y-76549250D01*
X163449000Y-76620250D01*
X163449000Y-76708000D01*
X164211000Y-76708000D01*
X164211000Y-76620250D01*
X164282000Y-76549250D01*
X164282000Y-76033690D01*
X164394000Y-76033690D01*
X164394000Y-76549250D01*
X164465000Y-76620250D01*
X164465000Y-76708000D01*
X165227000Y-76708000D01*
X165227000Y-76620250D01*
X165298000Y-76549250D01*
X165298000Y-76033690D01*
X165227000Y-75862281D01*
X165227000Y-75683750D01*
X165068250Y-75525000D01*
X164902691Y-75525000D01*
X164846000Y-75548482D01*
X164789309Y-75525000D01*
X164623750Y-75525000D01*
X164465000Y-75683750D01*
X164465000Y-75862281D01*
X164394000Y-76033690D01*
X164282000Y-76033690D01*
X164211000Y-75862281D01*
X164211000Y-75683750D01*
X164052250Y-75525000D01*
X163886691Y-75525000D01*
X163830000Y-75548482D01*
X163773309Y-75525000D01*
X163607750Y-75525000D01*
X163449000Y-75683750D01*
X163449000Y-75862281D01*
X163378000Y-76033690D01*
X163254674Y-76033690D01*
X163234162Y-75924683D01*
X163195000Y-75863824D01*
X163195000Y-75683750D01*
X163036250Y-75525000D01*
X162870691Y-75525000D01*
X162812158Y-75549245D01*
X162709197Y-75528395D01*
X162225122Y-75044320D01*
X162225162Y-74998833D01*
X162083117Y-74655057D01*
X161820327Y-74391808D01*
X161476799Y-74249162D01*
X161104833Y-74248838D01*
X160761057Y-74390883D01*
X160497808Y-74653673D01*
X160355162Y-74997201D01*
X160354838Y-75369167D01*
X160496883Y-75712943D01*
X160499874Y-75715939D01*
X160368569Y-75908110D01*
X160334773Y-76075000D01*
X159947241Y-76075000D01*
X159788327Y-75915808D01*
X159444799Y-75773162D01*
X159072833Y-75772838D01*
X158729057Y-75914883D01*
X158465808Y-76177673D01*
X158323162Y-76521201D01*
X158322838Y-76893167D01*
X158464883Y-77236943D01*
X158727673Y-77500192D01*
X158970444Y-77601000D01*
X158040822Y-77601000D01*
X157920799Y-77551162D01*
X157832440Y-77551085D01*
X157832440Y-76464139D01*
X158740787Y-75555792D01*
X158740790Y-75555790D01*
X158932633Y-75268675D01*
X158961212Y-75125000D01*
X158984790Y-75006468D01*
X159105900Y-75056757D01*
X159661661Y-75057242D01*
X160175303Y-74845010D01*
X160568629Y-74452370D01*
X160781757Y-73939100D01*
X160782242Y-73383339D01*
X160570010Y-72869697D01*
X160177370Y-72476371D01*
X159969488Y-72390051D01*
X160175303Y-72305010D01*
X160568629Y-71912370D01*
X160781757Y-71399100D01*
X160782242Y-70843339D01*
X160665169Y-70560000D01*
X166234148Y-70560000D01*
X165830194Y-70963249D01*
X165830194Y-70963249D01*
G37*
X165830194Y-70963249D02*
X165275632Y-72298782D01*
X165274370Y-73744874D01*
X165826600Y-75081372D01*
X166257036Y-75512560D01*
X166045000Y-75512560D01*
X165859529Y-75547459D01*
X165805309Y-75525000D01*
X165639750Y-75525000D01*
X165481000Y-75683750D01*
X165481000Y-75860646D01*
X165448569Y-75908110D01*
X165397560Y-76160000D01*
X165397560Y-77510000D01*
X165441838Y-77745317D01*
X165481000Y-77806176D01*
X165481000Y-77986250D01*
X165639750Y-78145000D01*
X165805309Y-78145000D01*
X165863842Y-78120755D01*
X166045000Y-78157440D01*
X166695000Y-78157440D01*
X166930317Y-78113162D01*
X167146441Y-77974090D01*
X167291431Y-77761890D01*
X167299914Y-77720000D01*
X167329541Y-77720000D01*
X167363673Y-77754192D01*
X167707201Y-77896838D01*
X168079167Y-77897162D01*
X168422943Y-77755117D01*
X168686192Y-77492327D01*
X168828838Y-77148799D01*
X168829162Y-76776833D01*
X168780842Y-76659889D01*
X169629874Y-76660630D01*
X170966372Y-76108400D01*
X171375000Y-75700485D01*
X171375000Y-78780000D01*
X169703750Y-78780000D01*
X169545000Y-78938750D01*
X169545000Y-81788000D01*
X169565000Y-81788000D01*
X169565000Y-82042000D01*
X169545000Y-82042000D01*
X169545000Y-84891250D01*
X169703750Y-85050000D01*
X171375000Y-85050000D01*
X171375000Y-97023875D01*
X171365010Y-96999697D01*
X170972370Y-96606371D01*
X170459100Y-96393243D01*
X170034452Y-96392872D01*
X169535790Y-95894210D01*
X169522006Y-95885000D01*
X169248675Y-95702367D01*
X169192484Y-95691190D01*
X168910000Y-95634999D01*
X168909995Y-95635000D01*
X166930822Y-95635000D01*
X166810799Y-95585162D01*
X166438833Y-95584838D01*
X166095057Y-95726883D01*
X165831808Y-95989673D01*
X165781434Y-96110987D01*
X165367306Y-96525115D01*
X165330000Y-96517560D01*
X165185408Y-96517560D01*
X165227440Y-96310000D01*
X165227440Y-95095000D01*
X165825156Y-95095000D01*
X165867910Y-95161441D01*
X166080110Y-95306431D01*
X166332000Y-95357440D01*
X167932000Y-95357440D01*
X168167317Y-95313162D01*
X168383441Y-95174090D01*
X168528431Y-94961890D01*
X168579440Y-94710000D01*
X168579440Y-93710000D01*
X168535162Y-93474683D01*
X168396090Y-93258559D01*
X168183890Y-93113569D01*
X167932000Y-93062560D01*
X166332000Y-93062560D01*
X166096683Y-93106838D01*
X165880559Y-93245910D01*
X165826519Y-93325000D01*
X165227440Y-93325000D01*
X165227440Y-93110000D01*
X165183162Y-92874683D01*
X165077518Y-92710507D01*
X165118327Y-92669698D01*
X165215000Y-92436309D01*
X165215000Y-91495750D01*
X165697000Y-91495750D01*
X165697000Y-91836309D01*
X165793673Y-92069698D01*
X165972301Y-92248327D01*
X166205690Y-92345000D01*
X166846250Y-92345000D01*
X167005000Y-92186250D01*
X167005000Y-91337000D01*
X167259000Y-91337000D01*
X167259000Y-92186250D01*
X167417750Y-92345000D01*
X168058310Y-92345000D01*
X168291699Y-92248327D01*
X168470327Y-92069698D01*
X168567000Y-91836309D01*
X168567000Y-91495750D01*
X168408250Y-91337000D01*
X167259000Y-91337000D01*
X167005000Y-91337000D01*
X165855750Y-91337000D01*
X165697000Y-91495750D01*
X165215000Y-91495750D01*
X165215000Y-90995750D01*
X165056250Y-90837000D01*
X163957000Y-90837000D01*
X163957000Y-90857000D01*
X163703000Y-90857000D01*
X163703000Y-90837000D01*
X163683000Y-90837000D01*
X163683000Y-90583691D01*
X165697000Y-90583691D01*
X165697000Y-90924250D01*
X165855750Y-91083000D01*
X167005000Y-91083000D01*
X167005000Y-90233750D01*
X167259000Y-90233750D01*
X167259000Y-91083000D01*
X168408250Y-91083000D01*
X168567000Y-90924250D01*
X168567000Y-90583691D01*
X168470327Y-90350302D01*
X168291699Y-90171673D01*
X168058310Y-90075000D01*
X167417750Y-90075000D01*
X167259000Y-90233750D01*
X167005000Y-90233750D01*
X166846250Y-90075000D01*
X166205690Y-90075000D01*
X165972301Y-90171673D01*
X165793673Y-90350302D01*
X165697000Y-90583691D01*
X163683000Y-90583691D01*
X163683000Y-90583000D01*
X163703000Y-90583000D01*
X163703000Y-90563000D01*
X163957000Y-90563000D01*
X163957000Y-90583000D01*
X165056250Y-90583000D01*
X165215000Y-90424250D01*
X165215000Y-89834880D01*
X165539167Y-89835162D01*
X165882943Y-89693117D01*
X166146192Y-89430327D01*
X166288838Y-89086799D01*
X166289162Y-88714833D01*
X166239000Y-88593431D01*
X166239000Y-88150250D01*
X166243000Y-88146250D01*
X166243000Y-87969354D01*
X166275431Y-87921890D01*
X166326440Y-87670000D01*
X166326440Y-87122000D01*
X166497000Y-87122000D01*
X166497000Y-88146250D01*
X166655750Y-88305000D01*
X166821309Y-88305000D01*
X167054698Y-88208327D01*
X167233327Y-88029699D01*
X167330000Y-87796310D01*
X167330000Y-87280750D01*
X167171250Y-87122000D01*
X166497000Y-87122000D01*
X166326440Y-87122000D01*
X166326440Y-86320000D01*
X166282162Y-86084683D01*
X166243000Y-86023824D01*
X166243000Y-85843750D01*
X166497000Y-85843750D01*
X166497000Y-86868000D01*
X167171250Y-86868000D01*
X167330000Y-86709250D01*
X167330000Y-86193690D01*
X167233327Y-85960301D01*
X167054698Y-85781673D01*
X166821309Y-85685000D01*
X166655750Y-85685000D01*
X166497000Y-85843750D01*
X166243000Y-85843750D01*
X166084250Y-85685000D01*
X165918691Y-85685000D01*
X165860158Y-85709245D01*
X165679000Y-85672560D01*
X165223000Y-85672560D01*
X165223000Y-85650822D01*
X165272838Y-85530799D01*
X165273162Y-85158833D01*
X165131117Y-84815057D01*
X165066173Y-84750000D01*
X166369442Y-84750000D01*
X166379673Y-84774699D01*
X166558302Y-84953327D01*
X166791691Y-85050000D01*
X169132250Y-85050000D01*
X169291000Y-84891250D01*
X169291000Y-82042000D01*
X163957000Y-82042000D01*
X163957000Y-82062000D01*
X163703000Y-82062000D01*
X163703000Y-82042000D01*
X158369000Y-82042000D01*
X158369000Y-84480750D01*
X158353000Y-84496750D01*
X158353000Y-85471000D01*
X159202250Y-85471000D01*
X159361000Y-85312250D01*
X159361000Y-85050000D01*
X160255198Y-85050000D01*
X159482599Y-85822599D01*
X159361000Y-86004585D01*
X159361000Y-85883750D01*
X159202250Y-85725000D01*
X158353000Y-85725000D01*
X158353000Y-86699250D01*
X158482630Y-86828880D01*
X158465808Y-86845673D01*
X158421657Y-86952000D01*
X157387018Y-86952000D01*
X157312090Y-86835559D01*
X157134880Y-86714477D01*
X157177441Y-86687090D01*
X157223969Y-86618994D01*
X157366302Y-86761327D01*
X157599691Y-86858000D01*
X157940250Y-86858000D01*
X158099000Y-86699250D01*
X158099000Y-85725000D01*
X158079000Y-85725000D01*
X158079000Y-85471000D01*
X158099000Y-85471000D01*
X158099000Y-84907250D01*
X158115000Y-84891250D01*
X158115000Y-82042000D01*
X155265750Y-82042000D01*
X155107000Y-82200750D01*
X155107000Y-83347219D01*
X154940000Y-83314000D01*
X153371785Y-83314000D01*
X153581441Y-83179090D01*
X153726431Y-82966890D01*
X153777440Y-82715000D01*
X153777440Y-81115000D01*
X153733162Y-80879683D01*
X153594090Y-80663559D01*
X153515000Y-80609519D01*
X153515000Y-78850620D01*
X153588838Y-78672799D01*
X153589162Y-78300833D01*
X153447117Y-77957057D01*
X153184327Y-77693808D01*
X152946372Y-77595000D01*
X154537560Y-77595000D01*
X154537560Y-78735000D01*
X154581838Y-78970317D01*
X154720910Y-79186441D01*
X154933110Y-79331431D01*
X155107000Y-79366645D01*
X155107000Y-81629250D01*
X155265750Y-81788000D01*
X158115000Y-81788000D01*
X158115000Y-81768000D01*
X158369000Y-81768000D01*
X158369000Y-81788000D01*
X163703000Y-81788000D01*
X163703000Y-81768000D01*
X163957000Y-81768000D01*
X163957000Y-81788000D01*
X169291000Y-81788000D01*
X169291000Y-78938750D01*
X169132250Y-78780000D01*
X166791691Y-78780000D01*
X166558302Y-78876673D01*
X166379673Y-79055301D01*
X166369442Y-79080000D01*
X165066408Y-79080000D01*
X165130192Y-79016327D01*
X165272838Y-78672799D01*
X165273162Y-78300833D01*
X165167687Y-78045563D01*
X165227000Y-77986250D01*
X165227000Y-77807719D01*
X165298000Y-77636310D01*
X165298000Y-77120750D01*
X165227000Y-77049750D01*
X165227000Y-76962000D01*
X164465000Y-76962000D01*
X164465000Y-76982000D01*
X164211000Y-76982000D01*
X164211000Y-76962000D01*
X163449000Y-76962000D01*
X163449000Y-76982000D01*
X163278440Y-76982000D01*
X163278440Y-76160000D01*
X163254674Y-76033690D01*
X163378000Y-76033690D01*
X163378000Y-76549250D01*
X163449000Y-76620250D01*
X163449000Y-76708000D01*
X164211000Y-76708000D01*
X164211000Y-76620250D01*
X164282000Y-76549250D01*
X164282000Y-76033690D01*
X164394000Y-76033690D01*
X164394000Y-76549250D01*
X164465000Y-76620250D01*
X164465000Y-76708000D01*
X165227000Y-76708000D01*
X165227000Y-76620250D01*
X165298000Y-76549250D01*
X165298000Y-76033690D01*
X165227000Y-75862281D01*
X165227000Y-75683750D01*
X165068250Y-75525000D01*
X164902691Y-75525000D01*
X164846000Y-75548482D01*
X164789309Y-75525000D01*
X164623750Y-75525000D01*
X164465000Y-75683750D01*
X164465000Y-75862281D01*
X164394000Y-76033690D01*
X164282000Y-76033690D01*
X164211000Y-75862281D01*
X164211000Y-75683750D01*
X164052250Y-75525000D01*
X163886691Y-75525000D01*
X163830000Y-75548482D01*
X163773309Y-75525000D01*
X163607750Y-75525000D01*
X163449000Y-75683750D01*
X163449000Y-75862281D01*
X163378000Y-76033690D01*
X163254674Y-76033690D01*
X163234162Y-75924683D01*
X163195000Y-75863824D01*
X163195000Y-75683750D01*
X163036250Y-75525000D01*
X162870691Y-75525000D01*
X162812158Y-75549245D01*
X162709197Y-75528395D01*
X162225122Y-75044320D01*
X162225162Y-74998833D01*
X162083117Y-74655057D01*
X161820327Y-74391808D01*
X161476799Y-74249162D01*
X161104833Y-74248838D01*
X160761057Y-74390883D01*
X160497808Y-74653673D01*
X160355162Y-74997201D01*
X160354838Y-75369167D01*
X160496883Y-75712943D01*
X160499874Y-75715939D01*
X160368569Y-75908110D01*
X160334773Y-76075000D01*
X159947241Y-76075000D01*
X159788327Y-75915808D01*
X159444799Y-75773162D01*
X159072833Y-75772838D01*
X158729057Y-75914883D01*
X158465808Y-76177673D01*
X158323162Y-76521201D01*
X158322838Y-76893167D01*
X158464883Y-77236943D01*
X158727673Y-77500192D01*
X158970444Y-77601000D01*
X158040822Y-77601000D01*
X157920799Y-77551162D01*
X157832440Y-77551085D01*
X157832440Y-76464139D01*
X158740787Y-75555792D01*
X158740790Y-75555790D01*
X158932633Y-75268675D01*
X158961212Y-75125000D01*
X158984790Y-75006468D01*
X159105900Y-75056757D01*
X159661661Y-75057242D01*
X160175303Y-74845010D01*
X160568629Y-74452370D01*
X160781757Y-73939100D01*
X160782242Y-73383339D01*
X160570010Y-72869697D01*
X160177370Y-72476371D01*
X159969488Y-72390051D01*
X160175303Y-72305010D01*
X160568629Y-71912370D01*
X160781757Y-71399100D01*
X160782242Y-70843339D01*
X160665169Y-70560000D01*
X166234148Y-70560000D01*
X165830194Y-70963249D01*
G36*
X152438000Y-91188310D02*
X152534673Y-91421699D01*
X152713302Y-91600327D01*
X152946691Y-91697000D01*
X153212250Y-91697000D01*
X153370998Y-91538252D01*
X153370998Y-91697000D01*
X153400560Y-91697000D01*
X153400560Y-92037000D01*
X153444838Y-92272317D01*
X153564322Y-92458000D01*
X151628000Y-92458000D01*
X151628000Y-92217750D01*
X151469250Y-92059000D01*
X150495000Y-92059000D01*
X150495000Y-92079000D01*
X150241000Y-92079000D01*
X150241000Y-92059000D01*
X150221000Y-92059000D01*
X150221000Y-91805000D01*
X150241000Y-91805000D01*
X150241000Y-91785000D01*
X150495000Y-91785000D01*
X150495000Y-91805000D01*
X151469250Y-91805000D01*
X151628000Y-91646250D01*
X151628000Y-91305691D01*
X151572623Y-91172000D01*
X152438000Y-91172000D01*
X152438000Y-91188310D01*
X152438000Y-91188310D01*
G37*
X152438000Y-91188310D02*
X152534673Y-91421699D01*
X152713302Y-91600327D01*
X152946691Y-91697000D01*
X153212250Y-91697000D01*
X153370998Y-91538252D01*
X153370998Y-91697000D01*
X153400560Y-91697000D01*
X153400560Y-92037000D01*
X153444838Y-92272317D01*
X153564322Y-92458000D01*
X151628000Y-92458000D01*
X151628000Y-92217750D01*
X151469250Y-92059000D01*
X150495000Y-92059000D01*
X150495000Y-92079000D01*
X150241000Y-92079000D01*
X150241000Y-92059000D01*
X150221000Y-92059000D01*
X150221000Y-91805000D01*
X150241000Y-91805000D01*
X150241000Y-91785000D01*
X150495000Y-91785000D01*
X150495000Y-91805000D01*
X151469250Y-91805000D01*
X151628000Y-91646250D01*
X151628000Y-91305691D01*
X151572623Y-91172000D01*
X152438000Y-91172000D01*
X152438000Y-91188310D01*
G36*
X161163000Y-91583000D02*
X161183000Y-91583000D01*
X161183000Y-91837000D01*
X161163000Y-91837000D01*
X161163000Y-91857000D01*
X160909000Y-91857000D01*
X160909000Y-91837000D01*
X160889000Y-91837000D01*
X160889000Y-91583000D01*
X160909000Y-91583000D01*
X160909000Y-91563000D01*
X161163000Y-91563000D01*
X161163000Y-91583000D01*
X161163000Y-91583000D01*
G37*
X161163000Y-91583000D02*
X161183000Y-91583000D01*
X161183000Y-91837000D01*
X161163000Y-91837000D01*
X161163000Y-91857000D01*
X160909000Y-91857000D01*
X160909000Y-91837000D01*
X160889000Y-91837000D01*
X160889000Y-91583000D01*
X160909000Y-91583000D01*
X160909000Y-91563000D01*
X161163000Y-91563000D01*
X161163000Y-91583000D01*
G36*
X142959990Y-81435303D02*
X143352630Y-81828629D01*
X143544727Y-81908395D01*
X143413857Y-81962603D01*
X143344392Y-82204787D01*
X144145000Y-83005395D01*
X144159143Y-82991253D01*
X144338748Y-83170858D01*
X144324605Y-83185000D01*
X144338748Y-83199143D01*
X144159143Y-83378748D01*
X144145000Y-83364605D01*
X143344392Y-84165213D01*
X143413857Y-84407397D01*
X143554318Y-84457509D01*
X143354697Y-84539990D01*
X142961371Y-84932630D01*
X142950000Y-84960014D01*
X142950000Y-83924001D01*
X143164787Y-83985608D01*
X143965395Y-83185000D01*
X143164787Y-82384392D01*
X142950000Y-82445999D01*
X142950000Y-81411125D01*
X142959990Y-81435303D01*
X142959990Y-81435303D01*
G37*
X142959990Y-81435303D02*
X143352630Y-81828629D01*
X143544727Y-81908395D01*
X143413857Y-81962603D01*
X143344392Y-82204787D01*
X144145000Y-83005395D01*
X144159143Y-82991253D01*
X144338748Y-83170858D01*
X144324605Y-83185000D01*
X144338748Y-83199143D01*
X144159143Y-83378748D01*
X144145000Y-83364605D01*
X143344392Y-84165213D01*
X143413857Y-84407397D01*
X143554318Y-84457509D01*
X143354697Y-84539990D01*
X142961371Y-84932630D01*
X142950000Y-84960014D01*
X142950000Y-83924001D01*
X143164787Y-83985608D01*
X143965395Y-83185000D01*
X143164787Y-82384392D01*
X142950000Y-82445999D01*
X142950000Y-81411125D01*
X142959990Y-81435303D01*
G36*
X155435856Y-70912302D02*
X155463638Y-71467368D01*
X155622603Y-71851143D01*
X155864787Y-71920608D01*
X156665395Y-71120000D01*
X156651253Y-71105858D01*
X156830858Y-70926253D01*
X156845000Y-70940395D01*
X156859143Y-70926253D01*
X157038748Y-71105858D01*
X157024605Y-71120000D01*
X157038748Y-71134143D01*
X156859143Y-71313748D01*
X156845000Y-71299605D01*
X156044392Y-72100213D01*
X156113857Y-72342397D01*
X156254318Y-72392509D01*
X156054697Y-72474990D01*
X155661371Y-72867630D01*
X155448243Y-73380900D01*
X155447758Y-73936661D01*
X155592746Y-74287560D01*
X155185000Y-74287560D01*
X154949683Y-74331838D01*
X154733559Y-74470910D01*
X154588569Y-74683110D01*
X154537560Y-74935000D01*
X154537560Y-76075000D01*
X152946047Y-76075000D01*
X153182943Y-75977117D01*
X153446192Y-75714327D01*
X153588838Y-75370799D01*
X153589162Y-74998833D01*
X153447117Y-74655057D01*
X153184327Y-74391808D01*
X153063013Y-74341434D01*
X152630790Y-73909210D01*
X152618991Y-73901326D01*
X152343675Y-73717367D01*
X152287484Y-73706190D01*
X152005000Y-73649999D01*
X152004995Y-73650000D01*
X151507038Y-73650000D01*
X151488162Y-73549683D01*
X151349090Y-73333559D01*
X151136890Y-73188569D01*
X151065000Y-73174011D01*
X151065000Y-72746797D01*
X151126431Y-72656890D01*
X151133191Y-72623510D01*
X151191673Y-72764699D01*
X151370302Y-72943327D01*
X151603691Y-73040000D01*
X151794250Y-73040000D01*
X151953000Y-72881250D01*
X151953000Y-71882000D01*
X152207000Y-71882000D01*
X152207000Y-72881250D01*
X152365750Y-73040000D01*
X152556309Y-73040000D01*
X152789698Y-72943327D01*
X152968327Y-72764699D01*
X153065000Y-72531310D01*
X153065000Y-72040750D01*
X152906250Y-71882000D01*
X152207000Y-71882000D01*
X151953000Y-71882000D01*
X151933000Y-71882000D01*
X151933000Y-71628000D01*
X151953000Y-71628000D01*
X151953000Y-71608000D01*
X152207000Y-71608000D01*
X152207000Y-71628000D01*
X152906250Y-71628000D01*
X153065000Y-71469250D01*
X153065000Y-70978690D01*
X152968327Y-70745301D01*
X152789698Y-70566673D01*
X152773588Y-70560000D01*
X155561545Y-70560000D01*
X155435856Y-70912302D01*
X155435856Y-70912302D01*
G37*
X155435856Y-70912302D02*
X155463638Y-71467368D01*
X155622603Y-71851143D01*
X155864787Y-71920608D01*
X156665395Y-71120000D01*
X156651253Y-71105858D01*
X156830858Y-70926253D01*
X156845000Y-70940395D01*
X156859143Y-70926253D01*
X157038748Y-71105858D01*
X157024605Y-71120000D01*
X157038748Y-71134143D01*
X156859143Y-71313748D01*
X156845000Y-71299605D01*
X156044392Y-72100213D01*
X156113857Y-72342397D01*
X156254318Y-72392509D01*
X156054697Y-72474990D01*
X155661371Y-72867630D01*
X155448243Y-73380900D01*
X155447758Y-73936661D01*
X155592746Y-74287560D01*
X155185000Y-74287560D01*
X154949683Y-74331838D01*
X154733559Y-74470910D01*
X154588569Y-74683110D01*
X154537560Y-74935000D01*
X154537560Y-76075000D01*
X152946047Y-76075000D01*
X153182943Y-75977117D01*
X153446192Y-75714327D01*
X153588838Y-75370799D01*
X153589162Y-74998833D01*
X153447117Y-74655057D01*
X153184327Y-74391808D01*
X153063013Y-74341434D01*
X152630790Y-73909210D01*
X152618991Y-73901326D01*
X152343675Y-73717367D01*
X152287484Y-73706190D01*
X152005000Y-73649999D01*
X152004995Y-73650000D01*
X151507038Y-73650000D01*
X151488162Y-73549683D01*
X151349090Y-73333559D01*
X151136890Y-73188569D01*
X151065000Y-73174011D01*
X151065000Y-72746797D01*
X151126431Y-72656890D01*
X151133191Y-72623510D01*
X151191673Y-72764699D01*
X151370302Y-72943327D01*
X151603691Y-73040000D01*
X151794250Y-73040000D01*
X151953000Y-72881250D01*
X151953000Y-71882000D01*
X152207000Y-71882000D01*
X152207000Y-72881250D01*
X152365750Y-73040000D01*
X152556309Y-73040000D01*
X152789698Y-72943327D01*
X152968327Y-72764699D01*
X153065000Y-72531310D01*
X153065000Y-72040750D01*
X152906250Y-71882000D01*
X152207000Y-71882000D01*
X151953000Y-71882000D01*
X151933000Y-71882000D01*
X151933000Y-71628000D01*
X151953000Y-71628000D01*
X151953000Y-71608000D01*
X152207000Y-71608000D01*
X152207000Y-71628000D01*
X152906250Y-71628000D01*
X153065000Y-71469250D01*
X153065000Y-70978690D01*
X152968327Y-70745301D01*
X152789698Y-70566673D01*
X152773588Y-70560000D01*
X155561545Y-70560000D01*
X155435856Y-70912302D01*
M02*
