G04 #@! TF.GenerationSoftware,KiCad,Pcbnew,(5.0.0-3-g5ebb6b6)*
G04 #@! TF.CreationDate,2018-10-06T17:40:51+01:00*
G04 #@! TF.ProjectId,Motor Shield,4D6F746F7220536869656C642E6B6963,rev?*
G04 #@! TF.SameCoordinates,Original*
G04 #@! TF.FileFunction,Legend,Top*
G04 #@! TF.FilePolarity,Positive*
%FSLAX46Y46*%
G04 Gerber Fmt 4.6, Leading zero omitted, Abs format (unit mm)*
G04 Created by KiCad (PCBNEW (5.0.0-3-g5ebb6b6)) date 2018 October 06, Saturday 17:40:51*
%MOMM*%
%LPD*%
G01*
G04 APERTURE LIST*
%ADD10C,0.150000*%
%ADD11C,0.120000*%
G04 APERTURE END LIST*
D10*
G04 #@! TO.C,U1*
X160528000Y-78359000D02*
X167132000Y-78359000D01*
X167132000Y-78359000D02*
X167132000Y-85471000D01*
X167132000Y-85471000D02*
X160528000Y-85471000D01*
X160528000Y-85471000D02*
X160528000Y-78359000D01*
D11*
G04 #@! TO.C,C1*
X162780000Y-96610000D02*
X162780000Y-91110000D01*
X164880000Y-96610000D02*
X164880000Y-91110000D01*
X162780000Y-96610000D02*
X164880000Y-96610000D01*
G04 #@! TO.C,C2*
X164880000Y-107860000D02*
X164880000Y-113360000D01*
X162780000Y-107860000D02*
X162780000Y-113360000D01*
X164880000Y-107860000D02*
X162780000Y-107860000D01*
G04 #@! TO.C,C3*
X162140000Y-112006000D02*
X162140000Y-111006000D01*
X160440000Y-111006000D02*
X160440000Y-112006000D01*
G04 #@! TO.C,C4*
X160186000Y-92210000D02*
X160186000Y-93210000D01*
X161886000Y-93210000D02*
X161886000Y-92210000D01*
G04 #@! TO.C,C5*
X163330000Y-98640000D02*
X164330000Y-98640000D01*
X164330000Y-96940000D02*
X163330000Y-96940000D01*
G04 #@! TO.C,C6*
X163330000Y-104990000D02*
X164330000Y-104990000D01*
X164330000Y-103290000D02*
X163330000Y-103290000D01*
G04 #@! TO.C,C7*
X163330000Y-101180000D02*
X164330000Y-101180000D01*
X164330000Y-99480000D02*
X163330000Y-99480000D01*
G04 #@! TO.C,C8*
X163330000Y-107530000D02*
X164330000Y-107530000D01*
X164330000Y-105830000D02*
X163330000Y-105830000D01*
G04 #@! TO.C,D1*
X166072000Y-94910000D02*
X168192000Y-94910000D01*
X166072000Y-91710000D02*
X166072000Y-94910000D01*
X168192000Y-94910000D02*
X168192000Y-91710000D01*
G04 #@! TO.C,D2*
X167938000Y-109560000D02*
X165818000Y-109560000D01*
X167938000Y-112760000D02*
X167938000Y-109560000D01*
X165818000Y-109560000D02*
X165818000Y-112760000D01*
D10*
G04 #@! TO.C,U2*
X167132000Y-126111000D02*
X160528000Y-126111000D01*
X160528000Y-126111000D02*
X160528000Y-118999000D01*
X160528000Y-118999000D02*
X167132000Y-118999000D01*
X167132000Y-118999000D02*
X167132000Y-126111000D01*
D11*
G04 #@! TO.C,D3*
X148930000Y-80855000D02*
X148930000Y-82975000D01*
X152130000Y-80855000D02*
X148930000Y-80855000D01*
X148930000Y-82975000D02*
X152130000Y-82975000D01*
G04 #@! TO.C,Q1*
X154945000Y-80245000D02*
X154945000Y-78985000D01*
X154945000Y-73425000D02*
X154945000Y-74685000D01*
X151185000Y-80245000D02*
X154945000Y-80245000D01*
X148935000Y-73425000D02*
X154945000Y-73425000D01*
G04 #@! TO.C,R1*
X151730000Y-72635000D02*
X150530000Y-72635000D01*
X150530000Y-70875000D02*
X151730000Y-70875000D01*
D10*
G04 #@! TO.C,J1*
X161290000Y-67945000D02*
X154940000Y-67945000D01*
X154940000Y-67945000D02*
X154940000Y-74295000D01*
X154940000Y-74295000D02*
X161290000Y-74295000D01*
X161290000Y-74295000D02*
X161290000Y-67945000D01*
G04 #@! TO.C,U3*
X156799000Y-105933000D02*
X156799000Y-105583000D01*
X151049000Y-105933000D02*
X151049000Y-105483000D01*
X151049000Y-98283000D02*
X151049000Y-98733000D01*
X156799000Y-98283000D02*
X156799000Y-98733000D01*
X156799000Y-105933000D02*
X151049000Y-105933000D01*
X156799000Y-98283000D02*
X151049000Y-98283000D01*
X156799000Y-105583000D02*
X158399000Y-105583000D01*
D11*
G04 #@! TO.C,C9*
X152900000Y-115482000D02*
X151900000Y-115482000D01*
X151900000Y-117182000D02*
X152900000Y-117182000D01*
G04 #@! TO.C,C10*
X152154000Y-108038000D02*
X153154000Y-108038000D01*
X153154000Y-106338000D02*
X152154000Y-106338000D01*
G04 #@! TO.C,C11*
X157726000Y-126658000D02*
X156726000Y-126658000D01*
X156726000Y-128358000D02*
X157726000Y-128358000D01*
G04 #@! TO.C,R2*
X152238000Y-128388000D02*
X151038000Y-128388000D01*
X151038000Y-126628000D02*
X152238000Y-126628000D01*
G04 #@! TO.C,R3*
X154778000Y-131944000D02*
X153578000Y-131944000D01*
X153578000Y-130184000D02*
X154778000Y-130184000D01*
G04 #@! TO.C,U5*
X153030000Y-108350000D02*
X153030000Y-109610000D01*
X153030000Y-115170000D02*
X153030000Y-113910000D01*
X156790000Y-108350000D02*
X153030000Y-108350000D01*
X159040000Y-115170000D02*
X153030000Y-115170000D01*
G04 #@! TO.C,J3*
X157540000Y-93024000D02*
X156210000Y-93024000D01*
X157540000Y-91694000D02*
X157540000Y-93024000D01*
X157540000Y-90424000D02*
X154880000Y-90424000D01*
X154880000Y-90424000D02*
X154880000Y-87824000D01*
X157540000Y-90424000D02*
X157540000Y-87824000D01*
X157540000Y-87824000D02*
X154880000Y-87824000D01*
G04 #@! TO.C,J4*
X166526000Y-102340000D02*
X166526000Y-102840000D01*
X167266000Y-102340000D02*
X166526000Y-102340000D01*
X173086000Y-108240000D02*
X166766000Y-108240000D01*
X173086000Y-102580000D02*
X166766000Y-102580000D01*
X166766000Y-107470000D02*
X166766000Y-108240000D01*
X166766000Y-104930000D02*
X166766000Y-105890000D01*
X166766000Y-102580000D02*
X166766000Y-103350000D01*
X173086000Y-102580000D02*
X173086000Y-108240000D01*
X172626000Y-102580000D02*
X172626000Y-108240000D01*
X167326000Y-107470000D02*
X167326000Y-108240000D01*
X167326000Y-104930000D02*
X167326000Y-105890000D01*
X167326000Y-102580000D02*
X167326000Y-103350000D01*
G04 #@! TO.C,J5*
X167326000Y-96230000D02*
X167326000Y-97000000D01*
X167326000Y-98580000D02*
X167326000Y-99540000D01*
X167326000Y-101120000D02*
X167326000Y-101890000D01*
X172626000Y-96230000D02*
X172626000Y-101890000D01*
X173086000Y-96230000D02*
X173086000Y-101890000D01*
X166766000Y-96230000D02*
X166766000Y-97000000D01*
X166766000Y-98580000D02*
X166766000Y-99540000D01*
X166766000Y-101120000D02*
X166766000Y-101890000D01*
X173086000Y-96230000D02*
X166766000Y-96230000D01*
X173086000Y-101890000D02*
X166766000Y-101890000D01*
X167266000Y-95990000D02*
X166526000Y-95990000D01*
X166526000Y-95990000D02*
X166526000Y-96490000D01*
G04 #@! TO.C,J6*
X171764000Y-95310000D02*
X170434000Y-95310000D01*
X171764000Y-93980000D02*
X171764000Y-95310000D01*
X169104000Y-92710000D02*
X171764000Y-92710000D01*
X169104000Y-85030000D02*
X169104000Y-92710000D01*
X171764000Y-85030000D02*
X169104000Y-85030000D01*
X171764000Y-92710000D02*
X171764000Y-85030000D01*
G04 #@! TO.C,J2*
X152460000Y-125028000D02*
X151130000Y-125028000D01*
X152460000Y-123698000D02*
X152460000Y-125028000D01*
X152460000Y-122428000D02*
X149800000Y-122428000D01*
X149800000Y-122428000D02*
X149800000Y-119828000D01*
X152460000Y-122428000D02*
X152460000Y-119828000D01*
X152460000Y-119828000D02*
X149800000Y-119828000D01*
G04 #@! TO.C,J7*
X169104000Y-109160000D02*
X170434000Y-109160000D01*
X169104000Y-110490000D02*
X169104000Y-109160000D01*
X171764000Y-111760000D02*
X169104000Y-111760000D01*
X171764000Y-119440000D02*
X171764000Y-111760000D01*
X169104000Y-119440000D02*
X171764000Y-119440000D01*
X169104000Y-111760000D02*
X169104000Y-119440000D01*
G04 #@! TO.C,U1*
D10*
X163576095Y-74255380D02*
X163576095Y-75064904D01*
X163623714Y-75160142D01*
X163671333Y-75207761D01*
X163766571Y-75255380D01*
X163957047Y-75255380D01*
X164052285Y-75207761D01*
X164099904Y-75160142D01*
X164147523Y-75064904D01*
X164147523Y-74255380D01*
X165147523Y-75255380D02*
X164576095Y-75255380D01*
X164861809Y-75255380D02*
X164861809Y-74255380D01*
X164766571Y-74398238D01*
X164671333Y-74493476D01*
X164576095Y-74541095D01*
G04 #@! TO.C,C1*
X161637142Y-92876666D02*
X161684761Y-92924285D01*
X161732380Y-93067142D01*
X161732380Y-93162380D01*
X161684761Y-93305238D01*
X161589523Y-93400476D01*
X161494285Y-93448095D01*
X161303809Y-93495714D01*
X161160952Y-93495714D01*
X160970476Y-93448095D01*
X160875238Y-93400476D01*
X160780000Y-93305238D01*
X160732380Y-93162380D01*
X160732380Y-93067142D01*
X160780000Y-92924285D01*
X160827619Y-92876666D01*
X161732380Y-91924285D02*
X161732380Y-92495714D01*
X161732380Y-92210000D02*
X160732380Y-92210000D01*
X160875238Y-92305238D01*
X160970476Y-92400476D01*
X161018095Y-92495714D01*
G04 #@! TO.C,C2*
X166737142Y-111926666D02*
X166784761Y-111974285D01*
X166832380Y-112117142D01*
X166832380Y-112212380D01*
X166784761Y-112355238D01*
X166689523Y-112450476D01*
X166594285Y-112498095D01*
X166403809Y-112545714D01*
X166260952Y-112545714D01*
X166070476Y-112498095D01*
X165975238Y-112450476D01*
X165880000Y-112355238D01*
X165832380Y-112212380D01*
X165832380Y-112117142D01*
X165880000Y-111974285D01*
X165927619Y-111926666D01*
X165927619Y-111545714D02*
X165880000Y-111498095D01*
X165832380Y-111402857D01*
X165832380Y-111164761D01*
X165880000Y-111069523D01*
X165927619Y-111021904D01*
X166022857Y-110974285D01*
X166118095Y-110974285D01*
X166260952Y-111021904D01*
X166832380Y-111593333D01*
X166832380Y-110974285D01*
G04 #@! TO.C,C3*
X163147142Y-111672666D02*
X163194761Y-111720285D01*
X163242380Y-111863142D01*
X163242380Y-111958380D01*
X163194761Y-112101238D01*
X163099523Y-112196476D01*
X163004285Y-112244095D01*
X162813809Y-112291714D01*
X162670952Y-112291714D01*
X162480476Y-112244095D01*
X162385238Y-112196476D01*
X162290000Y-112101238D01*
X162242380Y-111958380D01*
X162242380Y-111863142D01*
X162290000Y-111720285D01*
X162337619Y-111672666D01*
X162242380Y-111339333D02*
X162242380Y-110720285D01*
X162623333Y-111053619D01*
X162623333Y-110910761D01*
X162670952Y-110815523D01*
X162718571Y-110767904D01*
X162813809Y-110720285D01*
X163051904Y-110720285D01*
X163147142Y-110767904D01*
X163194761Y-110815523D01*
X163242380Y-110910761D01*
X163242380Y-111196476D01*
X163194761Y-111291714D01*
X163147142Y-111339333D01*
G04 #@! TO.C,C4*
X159893142Y-92876666D02*
X159940761Y-92924285D01*
X159988380Y-93067142D01*
X159988380Y-93162380D01*
X159940761Y-93305238D01*
X159845523Y-93400476D01*
X159750285Y-93448095D01*
X159559809Y-93495714D01*
X159416952Y-93495714D01*
X159226476Y-93448095D01*
X159131238Y-93400476D01*
X159036000Y-93305238D01*
X158988380Y-93162380D01*
X158988380Y-93067142D01*
X159036000Y-92924285D01*
X159083619Y-92876666D01*
X159321714Y-92019523D02*
X159988380Y-92019523D01*
X158940761Y-92257619D02*
X159655047Y-92495714D01*
X159655047Y-91876666D01*
G04 #@! TO.C,C5*
X163663333Y-99647142D02*
X163615714Y-99694761D01*
X163472857Y-99742380D01*
X163377619Y-99742380D01*
X163234761Y-99694761D01*
X163139523Y-99599523D01*
X163091904Y-99504285D01*
X163044285Y-99313809D01*
X163044285Y-99170952D01*
X163091904Y-98980476D01*
X163139523Y-98885238D01*
X163234761Y-98790000D01*
X163377619Y-98742380D01*
X163472857Y-98742380D01*
X163615714Y-98790000D01*
X163663333Y-98837619D01*
X164568095Y-98742380D02*
X164091904Y-98742380D01*
X164044285Y-99218571D01*
X164091904Y-99170952D01*
X164187142Y-99123333D01*
X164425238Y-99123333D01*
X164520476Y-99170952D01*
X164568095Y-99218571D01*
X164615714Y-99313809D01*
X164615714Y-99551904D01*
X164568095Y-99647142D01*
X164520476Y-99694761D01*
X164425238Y-99742380D01*
X164187142Y-99742380D01*
X164091904Y-99694761D01*
X164044285Y-99647142D01*
G04 #@! TO.C,C6*
X163663333Y-105997142D02*
X163615714Y-106044761D01*
X163472857Y-106092380D01*
X163377619Y-106092380D01*
X163234761Y-106044761D01*
X163139523Y-105949523D01*
X163091904Y-105854285D01*
X163044285Y-105663809D01*
X163044285Y-105520952D01*
X163091904Y-105330476D01*
X163139523Y-105235238D01*
X163234761Y-105140000D01*
X163377619Y-105092380D01*
X163472857Y-105092380D01*
X163615714Y-105140000D01*
X163663333Y-105187619D01*
X164520476Y-105092380D02*
X164330000Y-105092380D01*
X164234761Y-105140000D01*
X164187142Y-105187619D01*
X164091904Y-105330476D01*
X164044285Y-105520952D01*
X164044285Y-105901904D01*
X164091904Y-105997142D01*
X164139523Y-106044761D01*
X164234761Y-106092380D01*
X164425238Y-106092380D01*
X164520476Y-106044761D01*
X164568095Y-105997142D01*
X164615714Y-105901904D01*
X164615714Y-105663809D01*
X164568095Y-105568571D01*
X164520476Y-105520952D01*
X164425238Y-105473333D01*
X164234761Y-105473333D01*
X164139523Y-105520952D01*
X164091904Y-105568571D01*
X164044285Y-105663809D01*
G04 #@! TO.C,C7*
X163663333Y-102187142D02*
X163615714Y-102234761D01*
X163472857Y-102282380D01*
X163377619Y-102282380D01*
X163234761Y-102234761D01*
X163139523Y-102139523D01*
X163091904Y-102044285D01*
X163044285Y-101853809D01*
X163044285Y-101710952D01*
X163091904Y-101520476D01*
X163139523Y-101425238D01*
X163234761Y-101330000D01*
X163377619Y-101282380D01*
X163472857Y-101282380D01*
X163615714Y-101330000D01*
X163663333Y-101377619D01*
X163996666Y-101282380D02*
X164663333Y-101282380D01*
X164234761Y-102282380D01*
G04 #@! TO.C,C8*
X163663333Y-108537142D02*
X163615714Y-108584761D01*
X163472857Y-108632380D01*
X163377619Y-108632380D01*
X163234761Y-108584761D01*
X163139523Y-108489523D01*
X163091904Y-108394285D01*
X163044285Y-108203809D01*
X163044285Y-108060952D01*
X163091904Y-107870476D01*
X163139523Y-107775238D01*
X163234761Y-107680000D01*
X163377619Y-107632380D01*
X163472857Y-107632380D01*
X163615714Y-107680000D01*
X163663333Y-107727619D01*
X164234761Y-108060952D02*
X164139523Y-108013333D01*
X164091904Y-107965714D01*
X164044285Y-107870476D01*
X164044285Y-107822857D01*
X164091904Y-107727619D01*
X164139523Y-107680000D01*
X164234761Y-107632380D01*
X164425238Y-107632380D01*
X164520476Y-107680000D01*
X164568095Y-107727619D01*
X164615714Y-107822857D01*
X164615714Y-107870476D01*
X164568095Y-107965714D01*
X164520476Y-108013333D01*
X164425238Y-108060952D01*
X164234761Y-108060952D01*
X164139523Y-108108571D01*
X164091904Y-108156190D01*
X164044285Y-108251428D01*
X164044285Y-108441904D01*
X164091904Y-108537142D01*
X164139523Y-108584761D01*
X164234761Y-108632380D01*
X164425238Y-108632380D01*
X164520476Y-108584761D01*
X164568095Y-108537142D01*
X164615714Y-108441904D01*
X164615714Y-108251428D01*
X164568095Y-108156190D01*
X164520476Y-108108571D01*
X164425238Y-108060952D01*
G04 #@! TO.C,D1*
X165784380Y-93448095D02*
X164784380Y-93448095D01*
X164784380Y-93210000D01*
X164832000Y-93067142D01*
X164927238Y-92971904D01*
X165022476Y-92924285D01*
X165212952Y-92876666D01*
X165355809Y-92876666D01*
X165546285Y-92924285D01*
X165641523Y-92971904D01*
X165736761Y-93067142D01*
X165784380Y-93210000D01*
X165784380Y-93448095D01*
X165784380Y-91924285D02*
X165784380Y-92495714D01*
X165784380Y-92210000D02*
X164784380Y-92210000D01*
X164927238Y-92305238D01*
X165022476Y-92400476D01*
X165070095Y-92495714D01*
G04 #@! TO.C,D2*
X169130380Y-112498095D02*
X168130380Y-112498095D01*
X168130380Y-112260000D01*
X168178000Y-112117142D01*
X168273238Y-112021904D01*
X168368476Y-111974285D01*
X168558952Y-111926666D01*
X168701809Y-111926666D01*
X168892285Y-111974285D01*
X168987523Y-112021904D01*
X169082761Y-112117142D01*
X169130380Y-112260000D01*
X169130380Y-112498095D01*
X168225619Y-111545714D02*
X168178000Y-111498095D01*
X168130380Y-111402857D01*
X168130380Y-111164761D01*
X168178000Y-111069523D01*
X168225619Y-111021904D01*
X168320857Y-110974285D01*
X168416095Y-110974285D01*
X168558952Y-111021904D01*
X169130380Y-111593333D01*
X169130380Y-110974285D01*
G04 #@! TO.C,U2*
X162560095Y-129119380D02*
X162560095Y-129928904D01*
X162607714Y-130024142D01*
X162655333Y-130071761D01*
X162750571Y-130119380D01*
X162941047Y-130119380D01*
X163036285Y-130071761D01*
X163083904Y-130024142D01*
X163131523Y-129928904D01*
X163131523Y-129119380D01*
X163560095Y-129214619D02*
X163607714Y-129167000D01*
X163702952Y-129119380D01*
X163941047Y-129119380D01*
X164036285Y-129167000D01*
X164083904Y-129214619D01*
X164131523Y-129309857D01*
X164131523Y-129405095D01*
X164083904Y-129547952D01*
X163512476Y-130119380D01*
X164131523Y-130119380D01*
G04 #@! TO.C,D3*
X150391904Y-80567380D02*
X150391904Y-79567380D01*
X150630000Y-79567380D01*
X150772857Y-79615000D01*
X150868095Y-79710238D01*
X150915714Y-79805476D01*
X150963333Y-79995952D01*
X150963333Y-80138809D01*
X150915714Y-80329285D01*
X150868095Y-80424523D01*
X150772857Y-80519761D01*
X150630000Y-80567380D01*
X150391904Y-80567380D01*
X151296666Y-79567380D02*
X151915714Y-79567380D01*
X151582380Y-79948333D01*
X151725238Y-79948333D01*
X151820476Y-79995952D01*
X151868095Y-80043571D01*
X151915714Y-80138809D01*
X151915714Y-80376904D01*
X151868095Y-80472142D01*
X151820476Y-80519761D01*
X151725238Y-80567380D01*
X151439523Y-80567380D01*
X151344285Y-80519761D01*
X151296666Y-80472142D01*
G04 #@! TO.C,Q1*
X152939761Y-72882619D02*
X152844523Y-72835000D01*
X152749285Y-72739761D01*
X152606428Y-72596904D01*
X152511190Y-72549285D01*
X152415952Y-72549285D01*
X152463571Y-72787380D02*
X152368333Y-72739761D01*
X152273095Y-72644523D01*
X152225476Y-72454047D01*
X152225476Y-72120714D01*
X152273095Y-71930238D01*
X152368333Y-71835000D01*
X152463571Y-71787380D01*
X152654047Y-71787380D01*
X152749285Y-71835000D01*
X152844523Y-71930238D01*
X152892142Y-72120714D01*
X152892142Y-72454047D01*
X152844523Y-72644523D01*
X152749285Y-72739761D01*
X152654047Y-72787380D01*
X152463571Y-72787380D01*
X153844523Y-72787380D02*
X153273095Y-72787380D01*
X153558809Y-72787380D02*
X153558809Y-71787380D01*
X153463571Y-71930238D01*
X153368333Y-72025476D01*
X153273095Y-72073095D01*
G04 #@! TO.C,R1*
X150963333Y-70557380D02*
X150630000Y-70081190D01*
X150391904Y-70557380D02*
X150391904Y-69557380D01*
X150772857Y-69557380D01*
X150868095Y-69605000D01*
X150915714Y-69652619D01*
X150963333Y-69747857D01*
X150963333Y-69890714D01*
X150915714Y-69985952D01*
X150868095Y-70033571D01*
X150772857Y-70081190D01*
X150391904Y-70081190D01*
X151915714Y-70557380D02*
X151344285Y-70557380D01*
X151630000Y-70557380D02*
X151630000Y-69557380D01*
X151534761Y-69700238D01*
X151439523Y-69795476D01*
X151344285Y-69843095D01*
G04 #@! TO.C,J1*
X157781666Y-74382380D02*
X157781666Y-75096666D01*
X157734047Y-75239523D01*
X157638809Y-75334761D01*
X157495952Y-75382380D01*
X157400714Y-75382380D01*
X158781666Y-75382380D02*
X158210238Y-75382380D01*
X158495952Y-75382380D02*
X158495952Y-74382380D01*
X158400714Y-74525238D01*
X158305476Y-74620476D01*
X158210238Y-74668095D01*
G04 #@! TO.C,U3*
X153162095Y-106310380D02*
X153162095Y-107119904D01*
X153209714Y-107215142D01*
X153257333Y-107262761D01*
X153352571Y-107310380D01*
X153543047Y-107310380D01*
X153638285Y-107262761D01*
X153685904Y-107215142D01*
X153733523Y-107119904D01*
X153733523Y-106310380D01*
X154114476Y-106310380D02*
X154733523Y-106310380D01*
X154400190Y-106691333D01*
X154543047Y-106691333D01*
X154638285Y-106738952D01*
X154685904Y-106786571D01*
X154733523Y-106881809D01*
X154733523Y-107119904D01*
X154685904Y-107215142D01*
X154638285Y-107262761D01*
X154543047Y-107310380D01*
X154257333Y-107310380D01*
X154162095Y-107262761D01*
X154114476Y-107215142D01*
G04 #@! TO.C,C9*
X152233333Y-115189142D02*
X152185714Y-115236761D01*
X152042857Y-115284380D01*
X151947619Y-115284380D01*
X151804761Y-115236761D01*
X151709523Y-115141523D01*
X151661904Y-115046285D01*
X151614285Y-114855809D01*
X151614285Y-114712952D01*
X151661904Y-114522476D01*
X151709523Y-114427238D01*
X151804761Y-114332000D01*
X151947619Y-114284380D01*
X152042857Y-114284380D01*
X152185714Y-114332000D01*
X152233333Y-114379619D01*
X152709523Y-115284380D02*
X152900000Y-115284380D01*
X152995238Y-115236761D01*
X153042857Y-115189142D01*
X153138095Y-115046285D01*
X153185714Y-114855809D01*
X153185714Y-114474857D01*
X153138095Y-114379619D01*
X153090476Y-114332000D01*
X152995238Y-114284380D01*
X152804761Y-114284380D01*
X152709523Y-114332000D01*
X152661904Y-114379619D01*
X152614285Y-114474857D01*
X152614285Y-114712952D01*
X152661904Y-114808190D01*
X152709523Y-114855809D01*
X152804761Y-114903428D01*
X152995238Y-114903428D01*
X153090476Y-114855809D01*
X153138095Y-114808190D01*
X153185714Y-114712952D01*
G04 #@! TO.C,C10*
X152011142Y-109045142D02*
X151963523Y-109092761D01*
X151820666Y-109140380D01*
X151725428Y-109140380D01*
X151582571Y-109092761D01*
X151487333Y-108997523D01*
X151439714Y-108902285D01*
X151392095Y-108711809D01*
X151392095Y-108568952D01*
X151439714Y-108378476D01*
X151487333Y-108283238D01*
X151582571Y-108188000D01*
X151725428Y-108140380D01*
X151820666Y-108140380D01*
X151963523Y-108188000D01*
X152011142Y-108235619D01*
X152963523Y-109140380D02*
X152392095Y-109140380D01*
X152677809Y-109140380D02*
X152677809Y-108140380D01*
X152582571Y-108283238D01*
X152487333Y-108378476D01*
X152392095Y-108426095D01*
X153582571Y-108140380D02*
X153677809Y-108140380D01*
X153773047Y-108188000D01*
X153820666Y-108235619D01*
X153868285Y-108330857D01*
X153915904Y-108521333D01*
X153915904Y-108759428D01*
X153868285Y-108949904D01*
X153820666Y-109045142D01*
X153773047Y-109092761D01*
X153677809Y-109140380D01*
X153582571Y-109140380D01*
X153487333Y-109092761D01*
X153439714Y-109045142D01*
X153392095Y-108949904D01*
X153344476Y-108759428D01*
X153344476Y-108521333D01*
X153392095Y-108330857D01*
X153439714Y-108235619D01*
X153487333Y-108188000D01*
X153582571Y-108140380D01*
G04 #@! TO.C,C11*
X156583142Y-126365142D02*
X156535523Y-126412761D01*
X156392666Y-126460380D01*
X156297428Y-126460380D01*
X156154571Y-126412761D01*
X156059333Y-126317523D01*
X156011714Y-126222285D01*
X155964095Y-126031809D01*
X155964095Y-125888952D01*
X156011714Y-125698476D01*
X156059333Y-125603238D01*
X156154571Y-125508000D01*
X156297428Y-125460380D01*
X156392666Y-125460380D01*
X156535523Y-125508000D01*
X156583142Y-125555619D01*
X157535523Y-126460380D02*
X156964095Y-126460380D01*
X157249809Y-126460380D02*
X157249809Y-125460380D01*
X157154571Y-125603238D01*
X157059333Y-125698476D01*
X156964095Y-125746095D01*
X158487904Y-126460380D02*
X157916476Y-126460380D01*
X158202190Y-126460380D02*
X158202190Y-125460380D01*
X158106952Y-125603238D01*
X158011714Y-125698476D01*
X157916476Y-125746095D01*
G04 #@! TO.C,R2*
X151471333Y-126310380D02*
X151138000Y-125834190D01*
X150899904Y-126310380D02*
X150899904Y-125310380D01*
X151280857Y-125310380D01*
X151376095Y-125358000D01*
X151423714Y-125405619D01*
X151471333Y-125500857D01*
X151471333Y-125643714D01*
X151423714Y-125738952D01*
X151376095Y-125786571D01*
X151280857Y-125834190D01*
X150899904Y-125834190D01*
X151852285Y-125405619D02*
X151899904Y-125358000D01*
X151995142Y-125310380D01*
X152233238Y-125310380D01*
X152328476Y-125358000D01*
X152376095Y-125405619D01*
X152423714Y-125500857D01*
X152423714Y-125596095D01*
X152376095Y-125738952D01*
X151804666Y-126310380D01*
X152423714Y-126310380D01*
G04 #@! TO.C,R3*
X154011333Y-129866380D02*
X153678000Y-129390190D01*
X153439904Y-129866380D02*
X153439904Y-128866380D01*
X153820857Y-128866380D01*
X153916095Y-128914000D01*
X153963714Y-128961619D01*
X154011333Y-129056857D01*
X154011333Y-129199714D01*
X153963714Y-129294952D01*
X153916095Y-129342571D01*
X153820857Y-129390190D01*
X153439904Y-129390190D01*
X154344666Y-128866380D02*
X154963714Y-128866380D01*
X154630380Y-129247333D01*
X154773238Y-129247333D01*
X154868476Y-129294952D01*
X154916095Y-129342571D01*
X154963714Y-129437809D01*
X154963714Y-129675904D01*
X154916095Y-129771142D01*
X154868476Y-129818761D01*
X154773238Y-129866380D01*
X154487523Y-129866380D01*
X154392285Y-129818761D01*
X154344666Y-129771142D01*
G04 #@! TO.C,U5*
X154178095Y-115712380D02*
X154178095Y-116521904D01*
X154225714Y-116617142D01*
X154273333Y-116664761D01*
X154368571Y-116712380D01*
X154559047Y-116712380D01*
X154654285Y-116664761D01*
X154701904Y-116617142D01*
X154749523Y-116521904D01*
X154749523Y-115712380D01*
X155701904Y-115712380D02*
X155225714Y-115712380D01*
X155178095Y-116188571D01*
X155225714Y-116140952D01*
X155320952Y-116093333D01*
X155559047Y-116093333D01*
X155654285Y-116140952D01*
X155701904Y-116188571D01*
X155749523Y-116283809D01*
X155749523Y-116521904D01*
X155701904Y-116617142D01*
X155654285Y-116664761D01*
X155559047Y-116712380D01*
X155320952Y-116712380D01*
X155225714Y-116664761D01*
X155178095Y-116617142D01*
G04 #@! TO.C,J3*
X155876666Y-93476380D02*
X155876666Y-94190666D01*
X155829047Y-94333523D01*
X155733809Y-94428761D01*
X155590952Y-94476380D01*
X155495714Y-94476380D01*
X156257619Y-93476380D02*
X156876666Y-93476380D01*
X156543333Y-93857333D01*
X156686190Y-93857333D01*
X156781428Y-93904952D01*
X156829047Y-93952571D01*
X156876666Y-94047809D01*
X156876666Y-94285904D01*
X156829047Y-94381142D01*
X156781428Y-94428761D01*
X156686190Y-94476380D01*
X156400476Y-94476380D01*
X156305238Y-94428761D01*
X156257619Y-94381142D01*
G04 #@! TO.C,J4*
X173538380Y-105743333D02*
X174252666Y-105743333D01*
X174395523Y-105790952D01*
X174490761Y-105886190D01*
X174538380Y-106029047D01*
X174538380Y-106124285D01*
X173871714Y-104838571D02*
X174538380Y-104838571D01*
X173490761Y-105076666D02*
X174205047Y-105314761D01*
X174205047Y-104695714D01*
G04 #@! TO.C,J5*
X173538380Y-99393333D02*
X174252666Y-99393333D01*
X174395523Y-99440952D01*
X174490761Y-99536190D01*
X174538380Y-99679047D01*
X174538380Y-99774285D01*
X173538380Y-98440952D02*
X173538380Y-98917142D01*
X174014571Y-98964761D01*
X173966952Y-98917142D01*
X173919333Y-98821904D01*
X173919333Y-98583809D01*
X173966952Y-98488571D01*
X174014571Y-98440952D01*
X174109809Y-98393333D01*
X174347904Y-98393333D01*
X174443142Y-98440952D01*
X174490761Y-98488571D01*
X174538380Y-98583809D01*
X174538380Y-98821904D01*
X174490761Y-98917142D01*
X174443142Y-98964761D01*
G04 #@! TO.C,J6*
X170100666Y-95762380D02*
X170100666Y-96476666D01*
X170053047Y-96619523D01*
X169957809Y-96714761D01*
X169814952Y-96762380D01*
X169719714Y-96762380D01*
X171005428Y-95762380D02*
X170814952Y-95762380D01*
X170719714Y-95810000D01*
X170672095Y-95857619D01*
X170576857Y-96000476D01*
X170529238Y-96190952D01*
X170529238Y-96571904D01*
X170576857Y-96667142D01*
X170624476Y-96714761D01*
X170719714Y-96762380D01*
X170910190Y-96762380D01*
X171005428Y-96714761D01*
X171053047Y-96667142D01*
X171100666Y-96571904D01*
X171100666Y-96333809D01*
X171053047Y-96238571D01*
X171005428Y-96190952D01*
X170910190Y-96143333D01*
X170719714Y-96143333D01*
X170624476Y-96190952D01*
X170576857Y-96238571D01*
X170529238Y-96333809D01*
G04 #@! TO.C,J2*
X150796666Y-125480380D02*
X150796666Y-126194666D01*
X150749047Y-126337523D01*
X150653809Y-126432761D01*
X150510952Y-126480380D01*
X150415714Y-126480380D01*
X151225238Y-125575619D02*
X151272857Y-125528000D01*
X151368095Y-125480380D01*
X151606190Y-125480380D01*
X151701428Y-125528000D01*
X151749047Y-125575619D01*
X151796666Y-125670857D01*
X151796666Y-125766095D01*
X151749047Y-125908952D01*
X151177619Y-126480380D01*
X151796666Y-126480380D01*
G04 #@! TO.C,J7*
X170100666Y-107612380D02*
X170100666Y-108326666D01*
X170053047Y-108469523D01*
X169957809Y-108564761D01*
X169814952Y-108612380D01*
X169719714Y-108612380D01*
X170481619Y-107612380D02*
X171148285Y-107612380D01*
X170719714Y-108612380D01*
G04 #@! TD*
M02*
