M48
;DRILL file {KiCad 4.0.7} date 09/19/18 17:05:44
;FORMAT={-:-/ absolute / metric / decimal}
FMAT,2
METRIC,TZ
T1C0.400
T2C0.762
T3C2.740
%
G90
G05
M71
T1
X148.844Y-114.808
X149.352Y-113.284
X149.606Y-118.364
X150.368Y-95.758
X151.384Y-79.502
X152.654Y-75.184
X152.654Y-78.486
X152.908Y-95.758
X153.416Y-104.902
X153.67Y-114.046
X156.21Y-116.586
X157.734Y-78.486
X159.258Y-105.156
X159.766Y-76.962
X160.02Y-95.504
X160.02Y-118.11
X161.036Y-90.932
X161.29Y-75.184
X161.29Y-116.332
X162.052Y-106.68
X162.306Y-85.598
X162.306Y-112.776
X162.306Y-114.808
X163.195Y-75.565
X163.322Y-125.222
X163.322Y-128.778
X163.83Y-90.71
X163.83Y-114.808
X164.338Y-78.486
X164.338Y-85.344
X164.846Y-101.6
X164.846Y-102.616
X165.1Y-115.824
X165.354Y-88.9
X165.354Y-107.95
X166.624Y-96.52
X166.878Y-115.316
X167.64Y-127.508
X167.894Y-76.962
X168.148Y-117.348
X169.926Y-126.492
T2
X144.145Y-78.105
X144.145Y-80.645
X144.145Y-83.185
X144.145Y-85.725
X144.145Y-88.265
X144.145Y-90.805
X144.145Y-93.345
X144.145Y-95.885
X144.145Y-98.425
X144.145Y-100.965
X144.145Y-103.505
X144.145Y-106.045
X144.145Y-108.585
X144.145Y-111.125
X144.145Y-113.665
X144.145Y-116.205
X144.145Y-118.745
X144.145Y-121.285
X144.145Y-123.825
X144.145Y-126.365
X146.685Y-78.105
X146.685Y-80.645
X146.685Y-83.185
X146.685Y-85.725
X146.685Y-88.265
X146.685Y-90.805
X146.685Y-93.345
X146.685Y-95.885
X146.685Y-98.425
X146.685Y-100.965
X146.685Y-103.505
X146.685Y-106.045
X146.685Y-108.585
X146.685Y-111.125
X146.685Y-113.665
X146.685Y-116.205
X146.685Y-118.745
X146.685Y-121.285
X146.685Y-123.825
X146.685Y-126.365
X156.845Y-71.12
X156.845Y-73.66
X159.385Y-71.12
X159.385Y-73.66
X167.64Y-97.79
X167.64Y-100.33
X167.64Y-104.14
X167.64Y-106.68
X170.18Y-97.79
X170.18Y-100.33
X170.18Y-104.14
X170.18Y-106.68
T3
X145.415Y-73.025
X145.415Y-131.445
X168.91Y-73.025
X168.91Y-131.445
T0
M30
