G04 #@! TF.GenerationSoftware,KiCad,Pcbnew,(5.0.0)*
G04 #@! TF.CreationDate,2018-10-08T14:17:52+01:00*
G04 #@! TF.ProjectId,Motor Shield,4D6F746F7220536869656C642E6B6963,rev?*
G04 #@! TF.SameCoordinates,Original*
G04 #@! TF.FileFunction,Legend,Top*
G04 #@! TF.FilePolarity,Positive*
%FSLAX46Y46*%
G04 Gerber Fmt 4.6, Leading zero omitted, Abs format (unit mm)*
G04 Created by KiCad (PCBNEW (5.0.0)) date 10/08/18 14:17:52*
%MOMM*%
%LPD*%
G01*
G04 APERTURE LIST*
%ADD10C,0.120000*%
%ADD11C,0.150000*%
G04 APERTURE END LIST*
D10*
G04 #@! TO.C,D1*
X165997000Y-91110000D02*
X165997000Y-94995000D01*
X165997000Y-94995000D02*
X168267000Y-94995000D01*
X168267000Y-94995000D02*
X168267000Y-91110000D01*
G04 #@! TO.C,D3*
X152730000Y-80907000D02*
X148845000Y-80907000D01*
X148845000Y-80907000D02*
X148845000Y-83177000D01*
X148845000Y-83177000D02*
X152730000Y-83177000D01*
G04 #@! TO.C,J4*
X166526000Y-102340000D02*
X166526000Y-102840000D01*
X167266000Y-102340000D02*
X166526000Y-102340000D01*
X173086000Y-108240000D02*
X166766000Y-108240000D01*
X173086000Y-102580000D02*
X166766000Y-102580000D01*
X166766000Y-107470000D02*
X166766000Y-108240000D01*
X166766000Y-104930000D02*
X166766000Y-105890000D01*
X166766000Y-102580000D02*
X166766000Y-103350000D01*
X173086000Y-102580000D02*
X173086000Y-108240000D01*
X172626000Y-102580000D02*
X172626000Y-108240000D01*
X167326000Y-107470000D02*
X167326000Y-108240000D01*
X167326000Y-104930000D02*
X167326000Y-105890000D01*
X167326000Y-102580000D02*
X167326000Y-103350000D01*
G04 #@! TO.C,J5*
X167326000Y-96230000D02*
X167326000Y-97000000D01*
X167326000Y-98580000D02*
X167326000Y-99540000D01*
X167326000Y-101120000D02*
X167326000Y-101890000D01*
X172626000Y-96230000D02*
X172626000Y-101890000D01*
X173086000Y-96230000D02*
X173086000Y-101890000D01*
X166766000Y-96230000D02*
X166766000Y-97000000D01*
X166766000Y-98580000D02*
X166766000Y-99540000D01*
X166766000Y-101120000D02*
X166766000Y-101890000D01*
X173086000Y-96230000D02*
X166766000Y-96230000D01*
X173086000Y-101890000D02*
X166766000Y-101890000D01*
X167266000Y-95990000D02*
X166526000Y-95990000D01*
X166526000Y-95990000D02*
X166526000Y-96490000D01*
D11*
G04 #@! TO.C,U1*
X160528000Y-78486000D02*
X167132000Y-78486000D01*
X167132000Y-78486000D02*
X167132000Y-85598000D01*
X167132000Y-85598000D02*
X160528000Y-85598000D01*
X160528000Y-85598000D02*
X160528000Y-78486000D01*
D10*
G04 #@! TO.C,Q1*
X154818000Y-80372000D02*
X154818000Y-79112000D01*
X154818000Y-73552000D02*
X154818000Y-74812000D01*
X151058000Y-80372000D02*
X154818000Y-80372000D01*
X148808000Y-73552000D02*
X154818000Y-73552000D01*
G04 #@! TO.C,R1*
X151125422Y-70918000D02*
X151642578Y-70918000D01*
X151125422Y-72338000D02*
X151642578Y-72338000D01*
G04 #@! TO.C,C1*
X162895000Y-90936000D02*
X162895000Y-94846000D01*
X162895000Y-94846000D02*
X164765000Y-94846000D01*
X164765000Y-94846000D02*
X164765000Y-90936000D01*
G04 #@! TO.C,C4*
X160326000Y-92968578D02*
X160326000Y-92451422D01*
X161746000Y-92968578D02*
X161746000Y-92451422D01*
G04 #@! TO.C,C5*
X164151078Y-98500000D02*
X163633922Y-98500000D01*
X164151078Y-97080000D02*
X163633922Y-97080000D01*
G04 #@! TO.C,C7*
X164167078Y-99620000D02*
X163649922Y-99620000D01*
X164167078Y-101040000D02*
X163649922Y-101040000D01*
G04 #@! TO.C,C6*
X164167078Y-104850000D02*
X163649922Y-104850000D01*
X164167078Y-103430000D02*
X163649922Y-103430000D01*
G04 #@! TO.C,C8*
X164167078Y-105970000D02*
X163649922Y-105970000D01*
X164167078Y-107390000D02*
X163649922Y-107390000D01*
G04 #@! TO.C,C2*
X164765000Y-113106000D02*
X164765000Y-109196000D01*
X164765000Y-109196000D02*
X162895000Y-109196000D01*
X162895000Y-109196000D02*
X162895000Y-113106000D01*
D11*
G04 #@! TO.C,U2*
X166878000Y-126238000D02*
X160274000Y-126238000D01*
X160274000Y-126238000D02*
X160274000Y-119126000D01*
X160274000Y-119126000D02*
X166878000Y-119126000D01*
X166878000Y-119126000D02*
X166878000Y-126238000D01*
D10*
G04 #@! TO.C,C11*
X157045922Y-126798000D02*
X157563078Y-126798000D01*
X157045922Y-128218000D02*
X157563078Y-128218000D01*
G04 #@! TO.C,R3*
X153919422Y-130354000D02*
X154436578Y-130354000D01*
X153919422Y-131774000D02*
X154436578Y-131774000D01*
G04 #@! TO.C,R2*
X151379422Y-126798000D02*
X151896578Y-126798000D01*
X151379422Y-128218000D02*
X151896578Y-128218000D01*
G04 #@! TO.C,J3*
X157540000Y-93024000D02*
X157540000Y-87824000D01*
X157480000Y-93024000D02*
X157540000Y-93024000D01*
X154880000Y-87824000D02*
X157540000Y-87824000D01*
X157480000Y-93024000D02*
X157480000Y-90424000D01*
X157480000Y-90424000D02*
X154880000Y-90424000D01*
X154880000Y-90424000D02*
X154880000Y-87824000D01*
X156210000Y-93024000D02*
X154880000Y-93024000D01*
X154880000Y-93024000D02*
X154880000Y-91694000D01*
G04 #@! TO.C,J2*
X152460000Y-125028000D02*
X152460000Y-119828000D01*
X152400000Y-125028000D02*
X152460000Y-125028000D01*
X149800000Y-119828000D02*
X152460000Y-119828000D01*
X152400000Y-125028000D02*
X152400000Y-122428000D01*
X152400000Y-122428000D02*
X149800000Y-122428000D01*
X149800000Y-122428000D02*
X149800000Y-119828000D01*
X151130000Y-125028000D02*
X149800000Y-125028000D01*
X149800000Y-125028000D02*
X149800000Y-123698000D01*
G04 #@! TO.C,D2*
X168013000Y-113490000D02*
X168013000Y-109605000D01*
X168013000Y-109605000D02*
X165743000Y-109605000D01*
X165743000Y-109605000D02*
X165743000Y-113490000D01*
D11*
G04 #@! TO.C,U3*
X157053000Y-105933000D02*
X157053000Y-105583000D01*
X151303000Y-105933000D02*
X151303000Y-105483000D01*
X151303000Y-98283000D02*
X151303000Y-98733000D01*
X157053000Y-98283000D02*
X157053000Y-98733000D01*
X157053000Y-105933000D02*
X151303000Y-105933000D01*
X157053000Y-98283000D02*
X151303000Y-98283000D01*
X157053000Y-105583000D02*
X158653000Y-105583000D01*
D10*
G04 #@! TO.C,U5*
X153284000Y-108096000D02*
X153284000Y-109356000D01*
X153284000Y-114916000D02*
X153284000Y-113656000D01*
X157044000Y-108096000D02*
X153284000Y-108096000D01*
X159294000Y-114916000D02*
X153284000Y-114916000D01*
G04 #@! TO.C,J6*
X171764000Y-92710000D02*
X169104000Y-92710000D01*
X171764000Y-92710000D02*
X171764000Y-85030000D01*
X171764000Y-85030000D02*
X169104000Y-85030000D01*
X169104000Y-92710000D02*
X169104000Y-85030000D01*
X169104000Y-95310000D02*
X169104000Y-93980000D01*
X170434000Y-95310000D02*
X169104000Y-95310000D01*
G04 #@! TO.C,J7*
X170434000Y-109160000D02*
X171764000Y-109160000D01*
X171764000Y-109160000D02*
X171764000Y-110490000D01*
X171764000Y-111760000D02*
X171764000Y-119440000D01*
X169104000Y-119440000D02*
X171764000Y-119440000D01*
X169104000Y-111760000D02*
X169104000Y-119440000D01*
X169104000Y-111760000D02*
X171764000Y-111760000D01*
G04 #@! TO.C,C10*
X152834078Y-107644000D02*
X152316922Y-107644000D01*
X152834078Y-106224000D02*
X152316922Y-106224000D01*
G04 #@! TO.C,J1*
X155158000Y-73974000D02*
X155928000Y-73974000D01*
X157508000Y-73974000D02*
X158468000Y-73974000D01*
X160048000Y-73974000D02*
X160818000Y-73974000D01*
X155158000Y-68674000D02*
X160818000Y-68674000D01*
X155158000Y-68214000D02*
X160818000Y-68214000D01*
X155158000Y-74534000D02*
X155928000Y-74534000D01*
X157508000Y-74534000D02*
X158468000Y-74534000D01*
X160048000Y-74534000D02*
X160818000Y-74534000D01*
X155158000Y-68214000D02*
X155158000Y-74534000D01*
X160818000Y-68214000D02*
X160818000Y-74534000D01*
X154918000Y-74034000D02*
X154918000Y-74774000D01*
X154918000Y-74774000D02*
X155418000Y-74774000D01*
G04 #@! TO.C,C3*
X162000000Y-111247422D02*
X162000000Y-111764578D01*
X160580000Y-111247422D02*
X160580000Y-111764578D01*
G04 #@! TO.C,C9*
X152141422Y-115622000D02*
X152658578Y-115622000D01*
X152141422Y-117042000D02*
X152658578Y-117042000D01*
G04 #@! TO.C,D1*
D11*
X165764380Y-93448095D02*
X164764380Y-93448095D01*
X164764380Y-93210000D01*
X164812000Y-93067142D01*
X164907238Y-92971904D01*
X165002476Y-92924285D01*
X165192952Y-92876666D01*
X165335809Y-92876666D01*
X165526285Y-92924285D01*
X165621523Y-92971904D01*
X165716761Y-93067142D01*
X165764380Y-93210000D01*
X165764380Y-93448095D01*
X165764380Y-91924285D02*
X165764380Y-92495714D01*
X165764380Y-92210000D02*
X164764380Y-92210000D01*
X164907238Y-92305238D01*
X165002476Y-92400476D01*
X165050095Y-92495714D01*
G04 #@! TO.C,D3*
X150391904Y-80674380D02*
X150391904Y-79674380D01*
X150630000Y-79674380D01*
X150772857Y-79722000D01*
X150868095Y-79817238D01*
X150915714Y-79912476D01*
X150963333Y-80102952D01*
X150963333Y-80245809D01*
X150915714Y-80436285D01*
X150868095Y-80531523D01*
X150772857Y-80626761D01*
X150630000Y-80674380D01*
X150391904Y-80674380D01*
X151296666Y-79674380D02*
X151915714Y-79674380D01*
X151582380Y-80055333D01*
X151725238Y-80055333D01*
X151820476Y-80102952D01*
X151868095Y-80150571D01*
X151915714Y-80245809D01*
X151915714Y-80483904D01*
X151868095Y-80579142D01*
X151820476Y-80626761D01*
X151725238Y-80674380D01*
X151439523Y-80674380D01*
X151344285Y-80626761D01*
X151296666Y-80579142D01*
G04 #@! TO.C,J4*
X173538380Y-105743333D02*
X174252666Y-105743333D01*
X174395523Y-105790952D01*
X174490761Y-105886190D01*
X174538380Y-106029047D01*
X174538380Y-106124285D01*
X173871714Y-104838571D02*
X174538380Y-104838571D01*
X173490761Y-105076666D02*
X174205047Y-105314761D01*
X174205047Y-104695714D01*
G04 #@! TO.C,J5*
X173538380Y-99393333D02*
X174252666Y-99393333D01*
X174395523Y-99440952D01*
X174490761Y-99536190D01*
X174538380Y-99679047D01*
X174538380Y-99774285D01*
X173538380Y-98440952D02*
X173538380Y-98917142D01*
X174014571Y-98964761D01*
X173966952Y-98917142D01*
X173919333Y-98821904D01*
X173919333Y-98583809D01*
X173966952Y-98488571D01*
X174014571Y-98440952D01*
X174109809Y-98393333D01*
X174347904Y-98393333D01*
X174443142Y-98440952D01*
X174490761Y-98488571D01*
X174538380Y-98583809D01*
X174538380Y-98821904D01*
X174490761Y-98917142D01*
X174443142Y-98964761D01*
G04 #@! TO.C,U1*
X163576095Y-74382380D02*
X163576095Y-75191904D01*
X163623714Y-75287142D01*
X163671333Y-75334761D01*
X163766571Y-75382380D01*
X163957047Y-75382380D01*
X164052285Y-75334761D01*
X164099904Y-75287142D01*
X164147523Y-75191904D01*
X164147523Y-74382380D01*
X165147523Y-75382380D02*
X164576095Y-75382380D01*
X164861809Y-75382380D02*
X164861809Y-74382380D01*
X164766571Y-74525238D01*
X164671333Y-74620476D01*
X164576095Y-74668095D01*
G04 #@! TO.C,Q1*
X152812761Y-73009619D02*
X152717523Y-72962000D01*
X152622285Y-72866761D01*
X152479428Y-72723904D01*
X152384190Y-72676285D01*
X152288952Y-72676285D01*
X152336571Y-72914380D02*
X152241333Y-72866761D01*
X152146095Y-72771523D01*
X152098476Y-72581047D01*
X152098476Y-72247714D01*
X152146095Y-72057238D01*
X152241333Y-71962000D01*
X152336571Y-71914380D01*
X152527047Y-71914380D01*
X152622285Y-71962000D01*
X152717523Y-72057238D01*
X152765142Y-72247714D01*
X152765142Y-72581047D01*
X152717523Y-72771523D01*
X152622285Y-72866761D01*
X152527047Y-72914380D01*
X152336571Y-72914380D01*
X153717523Y-72914380D02*
X153146095Y-72914380D01*
X153431809Y-72914380D02*
X153431809Y-71914380D01*
X153336571Y-72057238D01*
X153241333Y-72152476D01*
X153146095Y-72200095D01*
G04 #@! TO.C,R1*
X151217333Y-70430380D02*
X150884000Y-69954190D01*
X150645904Y-70430380D02*
X150645904Y-69430380D01*
X151026857Y-69430380D01*
X151122095Y-69478000D01*
X151169714Y-69525619D01*
X151217333Y-69620857D01*
X151217333Y-69763714D01*
X151169714Y-69858952D01*
X151122095Y-69906571D01*
X151026857Y-69954190D01*
X150645904Y-69954190D01*
X152169714Y-70430380D02*
X151598285Y-70430380D01*
X151884000Y-70430380D02*
X151884000Y-69430380D01*
X151788761Y-69573238D01*
X151693523Y-69668476D01*
X151598285Y-69716095D01*
G04 #@! TO.C,C1*
X162437142Y-92702666D02*
X162484761Y-92750285D01*
X162532380Y-92893142D01*
X162532380Y-92988380D01*
X162484761Y-93131238D01*
X162389523Y-93226476D01*
X162294285Y-93274095D01*
X162103809Y-93321714D01*
X161960952Y-93321714D01*
X161770476Y-93274095D01*
X161675238Y-93226476D01*
X161580000Y-93131238D01*
X161532380Y-92988380D01*
X161532380Y-92893142D01*
X161580000Y-92750285D01*
X161627619Y-92702666D01*
X162532380Y-91750285D02*
X162532380Y-92321714D01*
X162532380Y-92036000D02*
X161532380Y-92036000D01*
X161675238Y-92131238D01*
X161770476Y-92226476D01*
X161818095Y-92321714D01*
G04 #@! TO.C,C4*
X159743142Y-92876666D02*
X159790761Y-92924285D01*
X159838380Y-93067142D01*
X159838380Y-93162380D01*
X159790761Y-93305238D01*
X159695523Y-93400476D01*
X159600285Y-93448095D01*
X159409809Y-93495714D01*
X159266952Y-93495714D01*
X159076476Y-93448095D01*
X158981238Y-93400476D01*
X158886000Y-93305238D01*
X158838380Y-93162380D01*
X158838380Y-93067142D01*
X158886000Y-92924285D01*
X158933619Y-92876666D01*
X159171714Y-92019523D02*
X159838380Y-92019523D01*
X158790761Y-92257619D02*
X159505047Y-92495714D01*
X159505047Y-91876666D01*
G04 #@! TO.C,C5*
X163725833Y-99797142D02*
X163678214Y-99844761D01*
X163535357Y-99892380D01*
X163440119Y-99892380D01*
X163297261Y-99844761D01*
X163202023Y-99749523D01*
X163154404Y-99654285D01*
X163106785Y-99463809D01*
X163106785Y-99320952D01*
X163154404Y-99130476D01*
X163202023Y-99035238D01*
X163297261Y-98940000D01*
X163440119Y-98892380D01*
X163535357Y-98892380D01*
X163678214Y-98940000D01*
X163725833Y-98987619D01*
X164630595Y-98892380D02*
X164154404Y-98892380D01*
X164106785Y-99368571D01*
X164154404Y-99320952D01*
X164249642Y-99273333D01*
X164487738Y-99273333D01*
X164582976Y-99320952D01*
X164630595Y-99368571D01*
X164678214Y-99463809D01*
X164678214Y-99701904D01*
X164630595Y-99797142D01*
X164582976Y-99844761D01*
X164487738Y-99892380D01*
X164249642Y-99892380D01*
X164154404Y-99844761D01*
X164106785Y-99797142D01*
G04 #@! TO.C,C7*
X163741833Y-102337142D02*
X163694214Y-102384761D01*
X163551357Y-102432380D01*
X163456119Y-102432380D01*
X163313261Y-102384761D01*
X163218023Y-102289523D01*
X163170404Y-102194285D01*
X163122785Y-102003809D01*
X163122785Y-101860952D01*
X163170404Y-101670476D01*
X163218023Y-101575238D01*
X163313261Y-101480000D01*
X163456119Y-101432380D01*
X163551357Y-101432380D01*
X163694214Y-101480000D01*
X163741833Y-101527619D01*
X164075166Y-101432380D02*
X164741833Y-101432380D01*
X164313261Y-102432380D01*
G04 #@! TO.C,C6*
X163741833Y-106147142D02*
X163694214Y-106194761D01*
X163551357Y-106242380D01*
X163456119Y-106242380D01*
X163313261Y-106194761D01*
X163218023Y-106099523D01*
X163170404Y-106004285D01*
X163122785Y-105813809D01*
X163122785Y-105670952D01*
X163170404Y-105480476D01*
X163218023Y-105385238D01*
X163313261Y-105290000D01*
X163456119Y-105242380D01*
X163551357Y-105242380D01*
X163694214Y-105290000D01*
X163741833Y-105337619D01*
X164598976Y-105242380D02*
X164408500Y-105242380D01*
X164313261Y-105290000D01*
X164265642Y-105337619D01*
X164170404Y-105480476D01*
X164122785Y-105670952D01*
X164122785Y-106051904D01*
X164170404Y-106147142D01*
X164218023Y-106194761D01*
X164313261Y-106242380D01*
X164503738Y-106242380D01*
X164598976Y-106194761D01*
X164646595Y-106147142D01*
X164694214Y-106051904D01*
X164694214Y-105813809D01*
X164646595Y-105718571D01*
X164598976Y-105670952D01*
X164503738Y-105623333D01*
X164313261Y-105623333D01*
X164218023Y-105670952D01*
X164170404Y-105718571D01*
X164122785Y-105813809D01*
G04 #@! TO.C,C8*
X163741833Y-108687142D02*
X163694214Y-108734761D01*
X163551357Y-108782380D01*
X163456119Y-108782380D01*
X163313261Y-108734761D01*
X163218023Y-108639523D01*
X163170404Y-108544285D01*
X163122785Y-108353809D01*
X163122785Y-108210952D01*
X163170404Y-108020476D01*
X163218023Y-107925238D01*
X163313261Y-107830000D01*
X163456119Y-107782380D01*
X163551357Y-107782380D01*
X163694214Y-107830000D01*
X163741833Y-107877619D01*
X164313261Y-108210952D02*
X164218023Y-108163333D01*
X164170404Y-108115714D01*
X164122785Y-108020476D01*
X164122785Y-107972857D01*
X164170404Y-107877619D01*
X164218023Y-107830000D01*
X164313261Y-107782380D01*
X164503738Y-107782380D01*
X164598976Y-107830000D01*
X164646595Y-107877619D01*
X164694214Y-107972857D01*
X164694214Y-108020476D01*
X164646595Y-108115714D01*
X164598976Y-108163333D01*
X164503738Y-108210952D01*
X164313261Y-108210952D01*
X164218023Y-108258571D01*
X164170404Y-108306190D01*
X164122785Y-108401428D01*
X164122785Y-108591904D01*
X164170404Y-108687142D01*
X164218023Y-108734761D01*
X164313261Y-108782380D01*
X164503738Y-108782380D01*
X164598976Y-108734761D01*
X164646595Y-108687142D01*
X164694214Y-108591904D01*
X164694214Y-108401428D01*
X164646595Y-108306190D01*
X164598976Y-108258571D01*
X164503738Y-108210952D01*
G04 #@! TO.C,C2*
X165937142Y-111672666D02*
X165984761Y-111720285D01*
X166032380Y-111863142D01*
X166032380Y-111958380D01*
X165984761Y-112101238D01*
X165889523Y-112196476D01*
X165794285Y-112244095D01*
X165603809Y-112291714D01*
X165460952Y-112291714D01*
X165270476Y-112244095D01*
X165175238Y-112196476D01*
X165080000Y-112101238D01*
X165032380Y-111958380D01*
X165032380Y-111863142D01*
X165080000Y-111720285D01*
X165127619Y-111672666D01*
X165127619Y-111291714D02*
X165080000Y-111244095D01*
X165032380Y-111148857D01*
X165032380Y-110910761D01*
X165080000Y-110815523D01*
X165127619Y-110767904D01*
X165222857Y-110720285D01*
X165318095Y-110720285D01*
X165460952Y-110767904D01*
X166032380Y-111339333D01*
X166032380Y-110720285D01*
G04 #@! TO.C,U2*
X162306095Y-129246380D02*
X162306095Y-130055904D01*
X162353714Y-130151142D01*
X162401333Y-130198761D01*
X162496571Y-130246380D01*
X162687047Y-130246380D01*
X162782285Y-130198761D01*
X162829904Y-130151142D01*
X162877523Y-130055904D01*
X162877523Y-129246380D01*
X163306095Y-129341619D02*
X163353714Y-129294000D01*
X163448952Y-129246380D01*
X163687047Y-129246380D01*
X163782285Y-129294000D01*
X163829904Y-129341619D01*
X163877523Y-129436857D01*
X163877523Y-129532095D01*
X163829904Y-129674952D01*
X163258476Y-130246380D01*
X163877523Y-130246380D01*
G04 #@! TO.C,C11*
X156661642Y-126215142D02*
X156614023Y-126262761D01*
X156471166Y-126310380D01*
X156375928Y-126310380D01*
X156233071Y-126262761D01*
X156137833Y-126167523D01*
X156090214Y-126072285D01*
X156042595Y-125881809D01*
X156042595Y-125738952D01*
X156090214Y-125548476D01*
X156137833Y-125453238D01*
X156233071Y-125358000D01*
X156375928Y-125310380D01*
X156471166Y-125310380D01*
X156614023Y-125358000D01*
X156661642Y-125405619D01*
X157614023Y-126310380D02*
X157042595Y-126310380D01*
X157328309Y-126310380D02*
X157328309Y-125310380D01*
X157233071Y-125453238D01*
X157137833Y-125548476D01*
X157042595Y-125596095D01*
X158566404Y-126310380D02*
X157994976Y-126310380D01*
X158280690Y-126310380D02*
X158280690Y-125310380D01*
X158185452Y-125453238D01*
X158090214Y-125548476D01*
X157994976Y-125596095D01*
G04 #@! TO.C,R3*
X154011333Y-129866380D02*
X153678000Y-129390190D01*
X153439904Y-129866380D02*
X153439904Y-128866380D01*
X153820857Y-128866380D01*
X153916095Y-128914000D01*
X153963714Y-128961619D01*
X154011333Y-129056857D01*
X154011333Y-129199714D01*
X153963714Y-129294952D01*
X153916095Y-129342571D01*
X153820857Y-129390190D01*
X153439904Y-129390190D01*
X154344666Y-128866380D02*
X154963714Y-128866380D01*
X154630380Y-129247333D01*
X154773238Y-129247333D01*
X154868476Y-129294952D01*
X154916095Y-129342571D01*
X154963714Y-129437809D01*
X154963714Y-129675904D01*
X154916095Y-129771142D01*
X154868476Y-129818761D01*
X154773238Y-129866380D01*
X154487523Y-129866380D01*
X154392285Y-129818761D01*
X154344666Y-129771142D01*
G04 #@! TO.C,R2*
X151471333Y-126310380D02*
X151138000Y-125834190D01*
X150899904Y-126310380D02*
X150899904Y-125310380D01*
X151280857Y-125310380D01*
X151376095Y-125358000D01*
X151423714Y-125405619D01*
X151471333Y-125500857D01*
X151471333Y-125643714D01*
X151423714Y-125738952D01*
X151376095Y-125786571D01*
X151280857Y-125834190D01*
X150899904Y-125834190D01*
X151852285Y-125405619D02*
X151899904Y-125358000D01*
X151995142Y-125310380D01*
X152233238Y-125310380D01*
X152328476Y-125358000D01*
X152376095Y-125405619D01*
X152423714Y-125500857D01*
X152423714Y-125596095D01*
X152376095Y-125738952D01*
X151804666Y-126310380D01*
X152423714Y-126310380D01*
G04 #@! TO.C,J3*
X153332380Y-90757333D02*
X154046666Y-90757333D01*
X154189523Y-90804952D01*
X154284761Y-90900190D01*
X154332380Y-91043047D01*
X154332380Y-91138285D01*
X153332380Y-90376380D02*
X153332380Y-89757333D01*
X153713333Y-90090666D01*
X153713333Y-89947809D01*
X153760952Y-89852571D01*
X153808571Y-89804952D01*
X153903809Y-89757333D01*
X154141904Y-89757333D01*
X154237142Y-89804952D01*
X154284761Y-89852571D01*
X154332380Y-89947809D01*
X154332380Y-90233523D01*
X154284761Y-90328761D01*
X154237142Y-90376380D01*
G04 #@! TO.C,J2*
X148252380Y-122761333D02*
X148966666Y-122761333D01*
X149109523Y-122808952D01*
X149204761Y-122904190D01*
X149252380Y-123047047D01*
X149252380Y-123142285D01*
X148347619Y-122332761D02*
X148300000Y-122285142D01*
X148252380Y-122189904D01*
X148252380Y-121951809D01*
X148300000Y-121856571D01*
X148347619Y-121808952D01*
X148442857Y-121761333D01*
X148538095Y-121761333D01*
X148680952Y-121808952D01*
X149252380Y-122380380D01*
X149252380Y-121761333D01*
G04 #@! TO.C,D2*
X169150380Y-112628095D02*
X168150380Y-112628095D01*
X168150380Y-112390000D01*
X168198000Y-112247142D01*
X168293238Y-112151904D01*
X168388476Y-112104285D01*
X168578952Y-112056666D01*
X168721809Y-112056666D01*
X168912285Y-112104285D01*
X169007523Y-112151904D01*
X169102761Y-112247142D01*
X169150380Y-112390000D01*
X169150380Y-112628095D01*
X168245619Y-111675714D02*
X168198000Y-111628095D01*
X168150380Y-111532857D01*
X168150380Y-111294761D01*
X168198000Y-111199523D01*
X168245619Y-111151904D01*
X168340857Y-111104285D01*
X168436095Y-111104285D01*
X168578952Y-111151904D01*
X169150380Y-111723333D01*
X169150380Y-111104285D01*
G04 #@! TO.C,U3*
X153416095Y-106310380D02*
X153416095Y-107119904D01*
X153463714Y-107215142D01*
X153511333Y-107262761D01*
X153606571Y-107310380D01*
X153797047Y-107310380D01*
X153892285Y-107262761D01*
X153939904Y-107215142D01*
X153987523Y-107119904D01*
X153987523Y-106310380D01*
X154368476Y-106310380D02*
X154987523Y-106310380D01*
X154654190Y-106691333D01*
X154797047Y-106691333D01*
X154892285Y-106738952D01*
X154939904Y-106786571D01*
X154987523Y-106881809D01*
X154987523Y-107119904D01*
X154939904Y-107215142D01*
X154892285Y-107262761D01*
X154797047Y-107310380D01*
X154511333Y-107310380D01*
X154416095Y-107262761D01*
X154368476Y-107215142D01*
G04 #@! TO.C,U5*
X154432095Y-115458380D02*
X154432095Y-116267904D01*
X154479714Y-116363142D01*
X154527333Y-116410761D01*
X154622571Y-116458380D01*
X154813047Y-116458380D01*
X154908285Y-116410761D01*
X154955904Y-116363142D01*
X155003523Y-116267904D01*
X155003523Y-115458380D01*
X155955904Y-115458380D02*
X155479714Y-115458380D01*
X155432095Y-115934571D01*
X155479714Y-115886952D01*
X155574952Y-115839333D01*
X155813047Y-115839333D01*
X155908285Y-115886952D01*
X155955904Y-115934571D01*
X156003523Y-116029809D01*
X156003523Y-116267904D01*
X155955904Y-116363142D01*
X155908285Y-116410761D01*
X155813047Y-116458380D01*
X155574952Y-116458380D01*
X155479714Y-116410761D01*
X155432095Y-116363142D01*
G04 #@! TO.C,J6*
X170100666Y-96202380D02*
X170100666Y-96916666D01*
X170053047Y-97059523D01*
X169957809Y-97154761D01*
X169814952Y-97202380D01*
X169719714Y-97202380D01*
X171005428Y-96202380D02*
X170814952Y-96202380D01*
X170719714Y-96250000D01*
X170672095Y-96297619D01*
X170576857Y-96440476D01*
X170529238Y-96630952D01*
X170529238Y-97011904D01*
X170576857Y-97107142D01*
X170624476Y-97154761D01*
X170719714Y-97202380D01*
X170910190Y-97202380D01*
X171005428Y-97154761D01*
X171053047Y-97107142D01*
X171100666Y-97011904D01*
X171100666Y-96773809D01*
X171053047Y-96678571D01*
X171005428Y-96630952D01*
X170910190Y-96583333D01*
X170719714Y-96583333D01*
X170624476Y-96630952D01*
X170576857Y-96678571D01*
X170529238Y-96773809D01*
G04 #@! TO.C,J7*
X170100666Y-107172380D02*
X170100666Y-107886666D01*
X170053047Y-108029523D01*
X169957809Y-108124761D01*
X169814952Y-108172380D01*
X169719714Y-108172380D01*
X170481619Y-107172380D02*
X171148285Y-107172380D01*
X170719714Y-108172380D01*
G04 #@! TO.C,C10*
X151932642Y-108941142D02*
X151885023Y-108988761D01*
X151742166Y-109036380D01*
X151646928Y-109036380D01*
X151504071Y-108988761D01*
X151408833Y-108893523D01*
X151361214Y-108798285D01*
X151313595Y-108607809D01*
X151313595Y-108464952D01*
X151361214Y-108274476D01*
X151408833Y-108179238D01*
X151504071Y-108084000D01*
X151646928Y-108036380D01*
X151742166Y-108036380D01*
X151885023Y-108084000D01*
X151932642Y-108131619D01*
X152885023Y-109036380D02*
X152313595Y-109036380D01*
X152599309Y-109036380D02*
X152599309Y-108036380D01*
X152504071Y-108179238D01*
X152408833Y-108274476D01*
X152313595Y-108322095D01*
X153504071Y-108036380D02*
X153599309Y-108036380D01*
X153694547Y-108084000D01*
X153742166Y-108131619D01*
X153789785Y-108226857D01*
X153837404Y-108417333D01*
X153837404Y-108655428D01*
X153789785Y-108845904D01*
X153742166Y-108941142D01*
X153694547Y-108988761D01*
X153599309Y-109036380D01*
X153504071Y-109036380D01*
X153408833Y-108988761D01*
X153361214Y-108941142D01*
X153313595Y-108845904D01*
X153265976Y-108655428D01*
X153265976Y-108417333D01*
X153313595Y-108226857D01*
X153361214Y-108131619D01*
X153408833Y-108084000D01*
X153504071Y-108036380D01*
G04 #@! TO.C,J1*
X157654666Y-66666380D02*
X157654666Y-67380666D01*
X157607047Y-67523523D01*
X157511809Y-67618761D01*
X157368952Y-67666380D01*
X157273714Y-67666380D01*
X158654666Y-67666380D02*
X158083238Y-67666380D01*
X158368952Y-67666380D02*
X158368952Y-66666380D01*
X158273714Y-66809238D01*
X158178476Y-66904476D01*
X158083238Y-66952095D01*
G04 #@! TO.C,C3*
X163297142Y-111672666D02*
X163344761Y-111720285D01*
X163392380Y-111863142D01*
X163392380Y-111958380D01*
X163344761Y-112101238D01*
X163249523Y-112196476D01*
X163154285Y-112244095D01*
X162963809Y-112291714D01*
X162820952Y-112291714D01*
X162630476Y-112244095D01*
X162535238Y-112196476D01*
X162440000Y-112101238D01*
X162392380Y-111958380D01*
X162392380Y-111863142D01*
X162440000Y-111720285D01*
X162487619Y-111672666D01*
X162392380Y-111339333D02*
X162392380Y-110720285D01*
X162773333Y-111053619D01*
X162773333Y-110910761D01*
X162820952Y-110815523D01*
X162868571Y-110767904D01*
X162963809Y-110720285D01*
X163201904Y-110720285D01*
X163297142Y-110767904D01*
X163344761Y-110815523D01*
X163392380Y-110910761D01*
X163392380Y-111196476D01*
X163344761Y-111291714D01*
X163297142Y-111339333D01*
G04 #@! TO.C,C9*
X152233333Y-115039142D02*
X152185714Y-115086761D01*
X152042857Y-115134380D01*
X151947619Y-115134380D01*
X151804761Y-115086761D01*
X151709523Y-114991523D01*
X151661904Y-114896285D01*
X151614285Y-114705809D01*
X151614285Y-114562952D01*
X151661904Y-114372476D01*
X151709523Y-114277238D01*
X151804761Y-114182000D01*
X151947619Y-114134380D01*
X152042857Y-114134380D01*
X152185714Y-114182000D01*
X152233333Y-114229619D01*
X152709523Y-115134380D02*
X152900000Y-115134380D01*
X152995238Y-115086761D01*
X153042857Y-115039142D01*
X153138095Y-114896285D01*
X153185714Y-114705809D01*
X153185714Y-114324857D01*
X153138095Y-114229619D01*
X153090476Y-114182000D01*
X152995238Y-114134380D01*
X152804761Y-114134380D01*
X152709523Y-114182000D01*
X152661904Y-114229619D01*
X152614285Y-114324857D01*
X152614285Y-114562952D01*
X152661904Y-114658190D01*
X152709523Y-114705809D01*
X152804761Y-114753428D01*
X152995238Y-114753428D01*
X153090476Y-114705809D01*
X153138095Y-114658190D01*
X153185714Y-114562952D01*
G04 #@! TD*
M02*
