G04 #@! TF.FileFunction,Copper,L2,Bot,Signal*
%FSLAX46Y46*%
G04 Gerber Fmt 4.6, Leading zero omitted, Abs format (unit mm)*
G04 Created by KiCad (PCBNEW 4.0.7) date 09/19/18 17:05:40*
%MOMM*%
%LPD*%
G01*
G04 APERTURE LIST*
%ADD10C,0.100000*%
%ADD11C,1.524000*%
%ADD12C,6.000000*%
%ADD13C,0.600000*%
%ADD14C,0.250000*%
%ADD15C,0.500000*%
%ADD16C,0.254000*%
G04 APERTURE END LIST*
D10*
D11*
X146685000Y-78105000D03*
X144145000Y-78105000D03*
X146685000Y-80645000D03*
X144145000Y-80645000D03*
X146685000Y-83185000D03*
X144145000Y-83185000D03*
X146685000Y-85725000D03*
X144145000Y-85725000D03*
X146685000Y-88265000D03*
X144145000Y-88265000D03*
X146685000Y-90805000D03*
X144145000Y-90805000D03*
X146685000Y-93345000D03*
X144145000Y-93345000D03*
X146685000Y-95885000D03*
X144145000Y-95885000D03*
X146685000Y-98425000D03*
X144145000Y-98425000D03*
X146685000Y-100965000D03*
X144145000Y-100965000D03*
X146685000Y-103505000D03*
X144145000Y-103505000D03*
X146685000Y-106045000D03*
X144145000Y-106045000D03*
X146685000Y-108585000D03*
X144145000Y-108585000D03*
X146685000Y-111125000D03*
X144145000Y-111125000D03*
X146685000Y-113665000D03*
X144145000Y-113665000D03*
X146685000Y-116205000D03*
X144145000Y-116205000D03*
X146685000Y-118745000D03*
X144145000Y-118745000D03*
X146685000Y-121285000D03*
X144145000Y-121285000D03*
X146685000Y-123825000D03*
X144145000Y-123825000D03*
X146685000Y-126365000D03*
X144145000Y-126365000D03*
D12*
X145415000Y-73025000D03*
X145415000Y-131445000D03*
X168910000Y-73025000D03*
X168910000Y-131445000D03*
D11*
X170180000Y-106680000D03*
X170180000Y-104140000D03*
X167640000Y-106680000D03*
X167640000Y-104140000D03*
X170180000Y-100330000D03*
X170180000Y-97790000D03*
X167640000Y-100330000D03*
X167640000Y-97790000D03*
X159385000Y-71120000D03*
X156845000Y-71120000D03*
X159385000Y-73660000D03*
X156845000Y-73660000D03*
D13*
X163830000Y-90710000D03*
X161036000Y-90932000D03*
X161290000Y-116332000D03*
X156210000Y-116586000D03*
X163830000Y-114808000D03*
X166878000Y-115316000D03*
X162306000Y-112776000D03*
X162052000Y-106680000D03*
X163322000Y-125222000D03*
X163322000Y-128778000D03*
X163195000Y-75565000D03*
X166624000Y-96520000D03*
X167894000Y-76962000D03*
X169926000Y-126492000D03*
X164846000Y-102616000D03*
X164846000Y-101600000D03*
X165354000Y-88900000D03*
X162306000Y-114808000D03*
X165354000Y-107950000D03*
X162306000Y-85598000D03*
X159258000Y-105156000D03*
X161290000Y-75184000D03*
X159766000Y-76962000D03*
X160020000Y-95504000D03*
X168148000Y-117348000D03*
X148844000Y-114808000D03*
X167640000Y-127508000D03*
X160020000Y-118110000D03*
X165100000Y-115824000D03*
X153670000Y-114046000D03*
X151384000Y-79502000D03*
X157734000Y-78486000D03*
X164338000Y-78486000D03*
X164338000Y-85344000D03*
X152654000Y-75184000D03*
X152654000Y-78486000D03*
X152908000Y-95758000D03*
X150368000Y-95758000D03*
X149606000Y-118364000D03*
X149352000Y-113284000D03*
X153416000Y-104902000D03*
D14*
X161258000Y-90710000D02*
X163830000Y-90710000D01*
X161036000Y-90932000D02*
X161258000Y-90710000D01*
X156464000Y-116332000D02*
X161290000Y-116332000D01*
X156210000Y-116586000D02*
X156464000Y-116332000D01*
X166370000Y-114808000D02*
X163830000Y-114808000D01*
X166878000Y-115316000D02*
X166370000Y-114808000D01*
X162306000Y-106934000D02*
X162306000Y-112776000D01*
X162052000Y-106680000D02*
X162306000Y-106934000D01*
X163322000Y-128778000D02*
X163322000Y-125222000D01*
X156845000Y-71120000D02*
X158115000Y-72390000D01*
X160020000Y-72390000D02*
X163195000Y-75565000D01*
X158115000Y-72390000D02*
X160020000Y-72390000D01*
D15*
X166624000Y-78232000D02*
X166624000Y-96520000D01*
X167894000Y-76962000D02*
X166624000Y-78232000D01*
D14*
X169926000Y-116586000D02*
X169926000Y-126492000D01*
X166116000Y-112776000D02*
X169926000Y-116586000D01*
X166116000Y-103886000D02*
X166116000Y-112776000D01*
X164846000Y-102616000D02*
X166116000Y-103886000D01*
D15*
X164846000Y-89408000D02*
X164846000Y-101600000D01*
X165354000Y-88900000D02*
X164846000Y-89408000D01*
D14*
X164846000Y-112268000D02*
X162306000Y-114808000D01*
X164846000Y-108458000D02*
X164846000Y-112268000D01*
X165354000Y-107950000D02*
X164846000Y-108458000D01*
X160274000Y-87630000D02*
X162306000Y-85598000D01*
X160274000Y-91948000D02*
X160274000Y-87630000D01*
X161036000Y-92710000D02*
X160274000Y-91948000D01*
X161036000Y-103378000D02*
X161036000Y-92710000D01*
X159258000Y-105156000D02*
X161036000Y-103378000D01*
X158496000Y-92964000D02*
X154178000Y-97282000D01*
X158496000Y-92964000D02*
X158496000Y-75692000D01*
X158496000Y-75692000D02*
X159004000Y-75184000D01*
X159004000Y-75184000D02*
X161290000Y-75184000D01*
X148082000Y-97282000D02*
X146685000Y-95885000D01*
X154178000Y-97282000D02*
X148082000Y-97282000D01*
X159766000Y-95250000D02*
X159766000Y-76962000D01*
X160020000Y-95504000D02*
X159766000Y-95250000D01*
X144145000Y-103505000D02*
X142748000Y-104902000D01*
X143256000Y-117348000D02*
X168148000Y-117348000D01*
X142748000Y-116840000D02*
X143256000Y-117348000D01*
X142748000Y-104902000D02*
X142748000Y-116840000D01*
X145542000Y-114808000D02*
X148844000Y-114808000D01*
X145288000Y-114554000D02*
X145542000Y-114808000D01*
X145288000Y-97536000D02*
X145288000Y-114554000D01*
X145288000Y-97536000D02*
X144145000Y-96393000D01*
X144145000Y-95885000D02*
X144145000Y-96393000D01*
X167640000Y-125730000D02*
X167640000Y-127508000D01*
X160020000Y-118110000D02*
X167640000Y-125730000D01*
D15*
X155194000Y-115570000D02*
X153670000Y-114046000D01*
X164846000Y-115570000D02*
X155194000Y-115570000D01*
X164846000Y-115570000D02*
X165100000Y-115824000D01*
X156718000Y-79502000D02*
X151384000Y-79502000D01*
X157734000Y-78486000D02*
X156718000Y-79502000D01*
X164338000Y-85344000D02*
X164338000Y-78486000D01*
X152654000Y-78486000D02*
X152654000Y-75184000D01*
D14*
X149225000Y-80645000D02*
X146685000Y-80645000D01*
X152908000Y-84328000D02*
X149225000Y-80645000D01*
X152908000Y-95758000D02*
X152908000Y-84328000D01*
X148971000Y-83185000D02*
X146685000Y-83185000D01*
X150368000Y-84582000D02*
X148971000Y-83185000D01*
X150368000Y-95758000D02*
X150368000Y-84582000D01*
X149606000Y-118364000D02*
X146685000Y-121285000D01*
X149352000Y-108966000D02*
X149352000Y-113284000D01*
X153416000Y-104902000D02*
X149352000Y-108966000D01*
X146685000Y-78105000D02*
X146939000Y-78105000D01*
D16*
G36*
X159084838Y-118295167D02*
X159226883Y-118638943D01*
X159489673Y-118902192D01*
X159833201Y-119044838D01*
X159880077Y-119044879D01*
X166880000Y-126044802D01*
X166880000Y-126945537D01*
X166847808Y-126977673D01*
X166705162Y-127321201D01*
X166704838Y-127693167D01*
X166846883Y-128036943D01*
X167078302Y-128268766D01*
X166853628Y-128361600D01*
X165830194Y-129383249D01*
X165275632Y-130718782D01*
X165274370Y-132164874D01*
X165826600Y-133501372D01*
X166234515Y-133910000D01*
X148090852Y-133910000D01*
X148494806Y-133506751D01*
X149049368Y-132171218D01*
X149050630Y-130725126D01*
X148498400Y-129388628D01*
X147476751Y-128365194D01*
X146141218Y-127810632D01*
X144695126Y-127809370D01*
X143358628Y-128361600D01*
X142950000Y-128769515D01*
X142950000Y-127131125D01*
X142959990Y-127155303D01*
X143352630Y-127548629D01*
X143865900Y-127761757D01*
X144421661Y-127762242D01*
X144935303Y-127550010D01*
X145328629Y-127157370D01*
X145414949Y-126949488D01*
X145499990Y-127155303D01*
X145892630Y-127548629D01*
X146405900Y-127761757D01*
X146961661Y-127762242D01*
X147475303Y-127550010D01*
X147868629Y-127157370D01*
X148081757Y-126644100D01*
X148082242Y-126088339D01*
X147870010Y-125574697D01*
X147477370Y-125181371D01*
X147269488Y-125095051D01*
X147475303Y-125010010D01*
X147868629Y-124617370D01*
X148081757Y-124104100D01*
X148082242Y-123548339D01*
X147870010Y-123034697D01*
X147477370Y-122641371D01*
X147269488Y-122555051D01*
X147475303Y-122470010D01*
X147868629Y-122077370D01*
X148081757Y-121564100D01*
X148082242Y-121008339D01*
X148068857Y-120975945D01*
X149745680Y-119299122D01*
X149791167Y-119299162D01*
X150134943Y-119157117D01*
X150398192Y-118894327D01*
X150540838Y-118550799D01*
X150541162Y-118178833D01*
X150511894Y-118108000D01*
X159085001Y-118108000D01*
X159084838Y-118295167D01*
X159084838Y-118295167D01*
G37*
X159084838Y-118295167D02*
X159226883Y-118638943D01*
X159489673Y-118902192D01*
X159833201Y-119044838D01*
X159880077Y-119044879D01*
X166880000Y-126044802D01*
X166880000Y-126945537D01*
X166847808Y-126977673D01*
X166705162Y-127321201D01*
X166704838Y-127693167D01*
X166846883Y-128036943D01*
X167078302Y-128268766D01*
X166853628Y-128361600D01*
X165830194Y-129383249D01*
X165275632Y-130718782D01*
X165274370Y-132164874D01*
X165826600Y-133501372D01*
X166234515Y-133910000D01*
X148090852Y-133910000D01*
X148494806Y-133506751D01*
X149049368Y-132171218D01*
X149050630Y-130725126D01*
X148498400Y-129388628D01*
X147476751Y-128365194D01*
X146141218Y-127810632D01*
X144695126Y-127809370D01*
X143358628Y-128361600D01*
X142950000Y-128769515D01*
X142950000Y-127131125D01*
X142959990Y-127155303D01*
X143352630Y-127548629D01*
X143865900Y-127761757D01*
X144421661Y-127762242D01*
X144935303Y-127550010D01*
X145328629Y-127157370D01*
X145414949Y-126949488D01*
X145499990Y-127155303D01*
X145892630Y-127548629D01*
X146405900Y-127761757D01*
X146961661Y-127762242D01*
X147475303Y-127550010D01*
X147868629Y-127157370D01*
X148081757Y-126644100D01*
X148082242Y-126088339D01*
X147870010Y-125574697D01*
X147477370Y-125181371D01*
X147269488Y-125095051D01*
X147475303Y-125010010D01*
X147868629Y-124617370D01*
X148081757Y-124104100D01*
X148082242Y-123548339D01*
X147870010Y-123034697D01*
X147477370Y-122641371D01*
X147269488Y-122555051D01*
X147475303Y-122470010D01*
X147868629Y-122077370D01*
X148081757Y-121564100D01*
X148082242Y-121008339D01*
X148068857Y-120975945D01*
X149745680Y-119299122D01*
X149791167Y-119299162D01*
X150134943Y-119157117D01*
X150398192Y-118894327D01*
X150540838Y-118550799D01*
X150541162Y-118178833D01*
X150511894Y-118108000D01*
X159085001Y-118108000D01*
X159084838Y-118295167D01*
G36*
X168994990Y-107470303D02*
X169387630Y-107863629D01*
X169900900Y-108076757D01*
X170456661Y-108077242D01*
X170970303Y-107865010D01*
X171363629Y-107472370D01*
X171375000Y-107444986D01*
X171375000Y-128769148D01*
X170971751Y-128365194D01*
X169636218Y-127810632D01*
X168527142Y-127809664D01*
X168574838Y-127694799D01*
X168575162Y-127322833D01*
X168433117Y-126979057D01*
X168400000Y-126945882D01*
X168400000Y-125730000D01*
X168342148Y-125439161D01*
X168342148Y-125439160D01*
X168177401Y-125192599D01*
X161092802Y-118108000D01*
X167585537Y-118108000D01*
X167617673Y-118140192D01*
X167961201Y-118282838D01*
X168333167Y-118283162D01*
X168676943Y-118141117D01*
X168940192Y-117878327D01*
X169082838Y-117534799D01*
X169083162Y-117162833D01*
X168941117Y-116819057D01*
X168678327Y-116555808D01*
X168334799Y-116413162D01*
X167962833Y-116412838D01*
X167619057Y-116554883D01*
X167585882Y-116588000D01*
X165658111Y-116588000D01*
X165892192Y-116354327D01*
X166034838Y-116010799D01*
X166035162Y-115638833D01*
X165893117Y-115295057D01*
X165630327Y-115031808D01*
X165509014Y-114981434D01*
X165471790Y-114944210D01*
X165388919Y-114888838D01*
X165184675Y-114752367D01*
X165128484Y-114741190D01*
X164846000Y-114684999D01*
X164845995Y-114685000D01*
X163503802Y-114685000D01*
X165365424Y-112823378D01*
X165413852Y-113066839D01*
X165578599Y-113313401D01*
X169166000Y-116900802D01*
X169166000Y-125929537D01*
X169133808Y-125961673D01*
X168991162Y-126305201D01*
X168990838Y-126677167D01*
X169132883Y-127020943D01*
X169395673Y-127284192D01*
X169739201Y-127426838D01*
X170111167Y-127427162D01*
X170454943Y-127285117D01*
X170718192Y-127022327D01*
X170860838Y-126678799D01*
X170861162Y-126306833D01*
X170719117Y-125963057D01*
X170686000Y-125929882D01*
X170686000Y-116586000D01*
X170628148Y-116295161D01*
X170463401Y-116048599D01*
X166876000Y-112461198D01*
X166876000Y-107875409D01*
X167360900Y-108076757D01*
X167916661Y-108077242D01*
X168430303Y-107865010D01*
X168823629Y-107472370D01*
X168909949Y-107264488D01*
X168994990Y-107470303D01*
X168994990Y-107470303D01*
G37*
X168994990Y-107470303D02*
X169387630Y-107863629D01*
X169900900Y-108076757D01*
X170456661Y-108077242D01*
X170970303Y-107865010D01*
X171363629Y-107472370D01*
X171375000Y-107444986D01*
X171375000Y-128769148D01*
X170971751Y-128365194D01*
X169636218Y-127810632D01*
X168527142Y-127809664D01*
X168574838Y-127694799D01*
X168575162Y-127322833D01*
X168433117Y-126979057D01*
X168400000Y-126945882D01*
X168400000Y-125730000D01*
X168342148Y-125439161D01*
X168342148Y-125439160D01*
X168177401Y-125192599D01*
X161092802Y-118108000D01*
X167585537Y-118108000D01*
X167617673Y-118140192D01*
X167961201Y-118282838D01*
X168333167Y-118283162D01*
X168676943Y-118141117D01*
X168940192Y-117878327D01*
X169082838Y-117534799D01*
X169083162Y-117162833D01*
X168941117Y-116819057D01*
X168678327Y-116555808D01*
X168334799Y-116413162D01*
X167962833Y-116412838D01*
X167619057Y-116554883D01*
X167585882Y-116588000D01*
X165658111Y-116588000D01*
X165892192Y-116354327D01*
X166034838Y-116010799D01*
X166035162Y-115638833D01*
X165893117Y-115295057D01*
X165630327Y-115031808D01*
X165509014Y-114981434D01*
X165471790Y-114944210D01*
X165388919Y-114888838D01*
X165184675Y-114752367D01*
X165128484Y-114741190D01*
X164846000Y-114684999D01*
X164845995Y-114685000D01*
X163503802Y-114685000D01*
X165365424Y-112823378D01*
X165413852Y-113066839D01*
X165578599Y-113313401D01*
X169166000Y-116900802D01*
X169166000Y-125929537D01*
X169133808Y-125961673D01*
X168991162Y-126305201D01*
X168990838Y-126677167D01*
X169132883Y-127020943D01*
X169395673Y-127284192D01*
X169739201Y-127426838D01*
X170111167Y-127427162D01*
X170454943Y-127285117D01*
X170718192Y-127022327D01*
X170860838Y-126678799D01*
X170861162Y-126306833D01*
X170719117Y-125963057D01*
X170686000Y-125929882D01*
X170686000Y-116586000D01*
X170628148Y-116295161D01*
X170463401Y-116048599D01*
X166876000Y-112461198D01*
X166876000Y-107875409D01*
X167360900Y-108076757D01*
X167916661Y-108077242D01*
X168430303Y-107865010D01*
X168823629Y-107472370D01*
X168909949Y-107264488D01*
X168994990Y-107470303D01*
G36*
X165830194Y-70963249D02*
X165275632Y-72298782D01*
X165274370Y-73744874D01*
X165826600Y-75081372D01*
X166848249Y-76104806D01*
X167258569Y-76275186D01*
X167101808Y-76431673D01*
X167051434Y-76552987D01*
X165998210Y-77606210D01*
X165806367Y-77893325D01*
X165806367Y-77893326D01*
X165738999Y-78232000D01*
X165739000Y-78232005D01*
X165739000Y-88047463D01*
X165540799Y-87965162D01*
X165168833Y-87964838D01*
X164825057Y-88106883D01*
X164561808Y-88369673D01*
X164511434Y-88490987D01*
X164220210Y-88782210D01*
X164028367Y-89069325D01*
X164028367Y-89069326D01*
X163960999Y-89408000D01*
X163961000Y-89408005D01*
X163961000Y-101293178D01*
X163911162Y-101413201D01*
X163910838Y-101785167D01*
X164044383Y-102108371D01*
X163911162Y-102429201D01*
X163910838Y-102801167D01*
X164052883Y-103144943D01*
X164315673Y-103408192D01*
X164659201Y-103550838D01*
X164706077Y-103550879D01*
X165356000Y-104200802D01*
X165356000Y-107015001D01*
X165168833Y-107014838D01*
X164825057Y-107156883D01*
X164561808Y-107419673D01*
X164419162Y-107763201D01*
X164419121Y-107810077D01*
X164308599Y-107920599D01*
X164143852Y-108167161D01*
X164086000Y-108458000D01*
X164086000Y-111953198D01*
X162166320Y-113872878D01*
X162120833Y-113872838D01*
X161777057Y-114014883D01*
X161513808Y-114277673D01*
X161371162Y-114621201D01*
X161371106Y-114685000D01*
X155560579Y-114685000D01*
X154512744Y-113637164D01*
X154463117Y-113517057D01*
X154200327Y-113253808D01*
X153856799Y-113111162D01*
X153484833Y-113110838D01*
X153141057Y-113252883D01*
X152877808Y-113515673D01*
X152735162Y-113859201D01*
X152734838Y-114231167D01*
X152876883Y-114574943D01*
X153139673Y-114838192D01*
X153260986Y-114888566D01*
X154568208Y-116195787D01*
X154568210Y-116195790D01*
X154855325Y-116387633D01*
X155194000Y-116455000D01*
X164408762Y-116455000D01*
X164541530Y-116588000D01*
X148038614Y-116588000D01*
X148081757Y-116484100D01*
X148082242Y-115928339D01*
X147933353Y-115568000D01*
X148281537Y-115568000D01*
X148313673Y-115600192D01*
X148657201Y-115742838D01*
X149029167Y-115743162D01*
X149372943Y-115601117D01*
X149636192Y-115338327D01*
X149778838Y-114994799D01*
X149779162Y-114622833D01*
X149637117Y-114279057D01*
X149565599Y-114207414D01*
X149880943Y-114077117D01*
X150144192Y-113814327D01*
X150286838Y-113470799D01*
X150287162Y-113098833D01*
X150145117Y-112755057D01*
X150112000Y-112721882D01*
X150112000Y-109280802D01*
X153555680Y-105837122D01*
X153601167Y-105837162D01*
X153944943Y-105695117D01*
X154208192Y-105432327D01*
X154350838Y-105088799D01*
X154351162Y-104716833D01*
X154209117Y-104373057D01*
X153946327Y-104109808D01*
X153602799Y-103967162D01*
X153230833Y-103966838D01*
X152887057Y-104108883D01*
X152623808Y-104371673D01*
X152481162Y-104715201D01*
X152481121Y-104762077D01*
X148814599Y-108428599D01*
X148649852Y-108675161D01*
X148592000Y-108966000D01*
X148592000Y-112721537D01*
X148559808Y-112753673D01*
X148417162Y-113097201D01*
X148416838Y-113469167D01*
X148558883Y-113812943D01*
X148630401Y-113884586D01*
X148315057Y-114014883D01*
X148281882Y-114048000D01*
X148038614Y-114048000D01*
X148081757Y-113944100D01*
X148082242Y-113388339D01*
X147870010Y-112874697D01*
X147477370Y-112481371D01*
X147269488Y-112395051D01*
X147475303Y-112310010D01*
X147868629Y-111917370D01*
X148081757Y-111404100D01*
X148082242Y-110848339D01*
X147870010Y-110334697D01*
X147477370Y-109941371D01*
X147269488Y-109855051D01*
X147475303Y-109770010D01*
X147868629Y-109377370D01*
X148081757Y-108864100D01*
X148082242Y-108308339D01*
X147870010Y-107794697D01*
X147477370Y-107401371D01*
X147269488Y-107315051D01*
X147475303Y-107230010D01*
X147868629Y-106837370D01*
X148081757Y-106324100D01*
X148082242Y-105768339D01*
X147870010Y-105254697D01*
X147477370Y-104861371D01*
X147269488Y-104775051D01*
X147475303Y-104690010D01*
X147868629Y-104297370D01*
X148081757Y-103784100D01*
X148082242Y-103228339D01*
X147870010Y-102714697D01*
X147477370Y-102321371D01*
X147269488Y-102235051D01*
X147475303Y-102150010D01*
X147868629Y-101757370D01*
X148081757Y-101244100D01*
X148082242Y-100688339D01*
X147870010Y-100174697D01*
X147477370Y-99781371D01*
X147269488Y-99695051D01*
X147475303Y-99610010D01*
X147868629Y-99217370D01*
X148081757Y-98704100D01*
X148082242Y-98148339D01*
X148034391Y-98032530D01*
X148082000Y-98042000D01*
X154178000Y-98042000D01*
X154468839Y-97984148D01*
X154715401Y-97819401D01*
X159006000Y-93528802D01*
X159006000Y-95250000D01*
X159063852Y-95540839D01*
X159084940Y-95572399D01*
X159084838Y-95689167D01*
X159226883Y-96032943D01*
X159489673Y-96296192D01*
X159833201Y-96438838D01*
X160205167Y-96439162D01*
X160276000Y-96409894D01*
X160276000Y-103063198D01*
X159118320Y-104220878D01*
X159072833Y-104220838D01*
X158729057Y-104362883D01*
X158465808Y-104625673D01*
X158323162Y-104969201D01*
X158322838Y-105341167D01*
X158464883Y-105684943D01*
X158727673Y-105948192D01*
X159071201Y-106090838D01*
X159443167Y-106091162D01*
X159786943Y-105949117D01*
X160050192Y-105686327D01*
X160192838Y-105342799D01*
X160192879Y-105295923D01*
X161573401Y-103915401D01*
X161738148Y-103668839D01*
X161796000Y-103378000D01*
X161796000Y-92710000D01*
X161738148Y-92419161D01*
X161573401Y-92172599D01*
X161034000Y-91633198D01*
X161034000Y-87944802D01*
X162445680Y-86533122D01*
X162491167Y-86533162D01*
X162834943Y-86391117D01*
X163098192Y-86128327D01*
X163240838Y-85784799D01*
X163241162Y-85412833D01*
X163099117Y-85069057D01*
X162836327Y-84805808D01*
X162492799Y-84663162D01*
X162120833Y-84662838D01*
X161777057Y-84804883D01*
X161513808Y-85067673D01*
X161371162Y-85411201D01*
X161371121Y-85458077D01*
X160526000Y-86303198D01*
X160526000Y-78671167D01*
X163402838Y-78671167D01*
X163453000Y-78792569D01*
X163453000Y-85037178D01*
X163403162Y-85157201D01*
X163402838Y-85529167D01*
X163544883Y-85872943D01*
X163807673Y-86136192D01*
X164151201Y-86278838D01*
X164523167Y-86279162D01*
X164866943Y-86137117D01*
X165130192Y-85874327D01*
X165272838Y-85530799D01*
X165273162Y-85158833D01*
X165223000Y-85037431D01*
X165223000Y-78792822D01*
X165272838Y-78672799D01*
X165273162Y-78300833D01*
X165131117Y-77957057D01*
X164868327Y-77693808D01*
X164524799Y-77551162D01*
X164152833Y-77550838D01*
X163809057Y-77692883D01*
X163545808Y-77955673D01*
X163403162Y-78299201D01*
X163402838Y-78671167D01*
X160526000Y-78671167D01*
X160526000Y-77524463D01*
X160558192Y-77492327D01*
X160700838Y-77148799D01*
X160701162Y-76776833D01*
X160559117Y-76433057D01*
X160296327Y-76169808D01*
X159952799Y-76027162D01*
X159580833Y-76026838D01*
X159256000Y-76161056D01*
X159256000Y-76006802D01*
X159318802Y-75944000D01*
X160727537Y-75944000D01*
X160759673Y-75976192D01*
X161103201Y-76118838D01*
X161475167Y-76119162D01*
X161818943Y-75977117D01*
X162082192Y-75714327D01*
X162224838Y-75370799D01*
X162225162Y-74998833D01*
X162083117Y-74655057D01*
X161820327Y-74391808D01*
X161476799Y-74249162D01*
X161104833Y-74248838D01*
X160761057Y-74390883D01*
X160727882Y-74424000D01*
X160580409Y-74424000D01*
X160781757Y-73939100D01*
X160782242Y-73383339D01*
X160570010Y-72869697D01*
X160177370Y-72476371D01*
X159969488Y-72390051D01*
X160175303Y-72305010D01*
X160568629Y-71912370D01*
X160781757Y-71399100D01*
X160782242Y-70843339D01*
X160665169Y-70560000D01*
X166234148Y-70560000D01*
X165830194Y-70963249D01*
X165830194Y-70963249D01*
G37*
X165830194Y-70963249D02*
X165275632Y-72298782D01*
X165274370Y-73744874D01*
X165826600Y-75081372D01*
X166848249Y-76104806D01*
X167258569Y-76275186D01*
X167101808Y-76431673D01*
X167051434Y-76552987D01*
X165998210Y-77606210D01*
X165806367Y-77893325D01*
X165806367Y-77893326D01*
X165738999Y-78232000D01*
X165739000Y-78232005D01*
X165739000Y-88047463D01*
X165540799Y-87965162D01*
X165168833Y-87964838D01*
X164825057Y-88106883D01*
X164561808Y-88369673D01*
X164511434Y-88490987D01*
X164220210Y-88782210D01*
X164028367Y-89069325D01*
X164028367Y-89069326D01*
X163960999Y-89408000D01*
X163961000Y-89408005D01*
X163961000Y-101293178D01*
X163911162Y-101413201D01*
X163910838Y-101785167D01*
X164044383Y-102108371D01*
X163911162Y-102429201D01*
X163910838Y-102801167D01*
X164052883Y-103144943D01*
X164315673Y-103408192D01*
X164659201Y-103550838D01*
X164706077Y-103550879D01*
X165356000Y-104200802D01*
X165356000Y-107015001D01*
X165168833Y-107014838D01*
X164825057Y-107156883D01*
X164561808Y-107419673D01*
X164419162Y-107763201D01*
X164419121Y-107810077D01*
X164308599Y-107920599D01*
X164143852Y-108167161D01*
X164086000Y-108458000D01*
X164086000Y-111953198D01*
X162166320Y-113872878D01*
X162120833Y-113872838D01*
X161777057Y-114014883D01*
X161513808Y-114277673D01*
X161371162Y-114621201D01*
X161371106Y-114685000D01*
X155560579Y-114685000D01*
X154512744Y-113637164D01*
X154463117Y-113517057D01*
X154200327Y-113253808D01*
X153856799Y-113111162D01*
X153484833Y-113110838D01*
X153141057Y-113252883D01*
X152877808Y-113515673D01*
X152735162Y-113859201D01*
X152734838Y-114231167D01*
X152876883Y-114574943D01*
X153139673Y-114838192D01*
X153260986Y-114888566D01*
X154568208Y-116195787D01*
X154568210Y-116195790D01*
X154855325Y-116387633D01*
X155194000Y-116455000D01*
X164408762Y-116455000D01*
X164541530Y-116588000D01*
X148038614Y-116588000D01*
X148081757Y-116484100D01*
X148082242Y-115928339D01*
X147933353Y-115568000D01*
X148281537Y-115568000D01*
X148313673Y-115600192D01*
X148657201Y-115742838D01*
X149029167Y-115743162D01*
X149372943Y-115601117D01*
X149636192Y-115338327D01*
X149778838Y-114994799D01*
X149779162Y-114622833D01*
X149637117Y-114279057D01*
X149565599Y-114207414D01*
X149880943Y-114077117D01*
X150144192Y-113814327D01*
X150286838Y-113470799D01*
X150287162Y-113098833D01*
X150145117Y-112755057D01*
X150112000Y-112721882D01*
X150112000Y-109280802D01*
X153555680Y-105837122D01*
X153601167Y-105837162D01*
X153944943Y-105695117D01*
X154208192Y-105432327D01*
X154350838Y-105088799D01*
X154351162Y-104716833D01*
X154209117Y-104373057D01*
X153946327Y-104109808D01*
X153602799Y-103967162D01*
X153230833Y-103966838D01*
X152887057Y-104108883D01*
X152623808Y-104371673D01*
X152481162Y-104715201D01*
X152481121Y-104762077D01*
X148814599Y-108428599D01*
X148649852Y-108675161D01*
X148592000Y-108966000D01*
X148592000Y-112721537D01*
X148559808Y-112753673D01*
X148417162Y-113097201D01*
X148416838Y-113469167D01*
X148558883Y-113812943D01*
X148630401Y-113884586D01*
X148315057Y-114014883D01*
X148281882Y-114048000D01*
X148038614Y-114048000D01*
X148081757Y-113944100D01*
X148082242Y-113388339D01*
X147870010Y-112874697D01*
X147477370Y-112481371D01*
X147269488Y-112395051D01*
X147475303Y-112310010D01*
X147868629Y-111917370D01*
X148081757Y-111404100D01*
X148082242Y-110848339D01*
X147870010Y-110334697D01*
X147477370Y-109941371D01*
X147269488Y-109855051D01*
X147475303Y-109770010D01*
X147868629Y-109377370D01*
X148081757Y-108864100D01*
X148082242Y-108308339D01*
X147870010Y-107794697D01*
X147477370Y-107401371D01*
X147269488Y-107315051D01*
X147475303Y-107230010D01*
X147868629Y-106837370D01*
X148081757Y-106324100D01*
X148082242Y-105768339D01*
X147870010Y-105254697D01*
X147477370Y-104861371D01*
X147269488Y-104775051D01*
X147475303Y-104690010D01*
X147868629Y-104297370D01*
X148081757Y-103784100D01*
X148082242Y-103228339D01*
X147870010Y-102714697D01*
X147477370Y-102321371D01*
X147269488Y-102235051D01*
X147475303Y-102150010D01*
X147868629Y-101757370D01*
X148081757Y-101244100D01*
X148082242Y-100688339D01*
X147870010Y-100174697D01*
X147477370Y-99781371D01*
X147269488Y-99695051D01*
X147475303Y-99610010D01*
X147868629Y-99217370D01*
X148081757Y-98704100D01*
X148082242Y-98148339D01*
X148034391Y-98032530D01*
X148082000Y-98042000D01*
X154178000Y-98042000D01*
X154468839Y-97984148D01*
X154715401Y-97819401D01*
X159006000Y-93528802D01*
X159006000Y-95250000D01*
X159063852Y-95540839D01*
X159084940Y-95572399D01*
X159084838Y-95689167D01*
X159226883Y-96032943D01*
X159489673Y-96296192D01*
X159833201Y-96438838D01*
X160205167Y-96439162D01*
X160276000Y-96409894D01*
X160276000Y-103063198D01*
X159118320Y-104220878D01*
X159072833Y-104220838D01*
X158729057Y-104362883D01*
X158465808Y-104625673D01*
X158323162Y-104969201D01*
X158322838Y-105341167D01*
X158464883Y-105684943D01*
X158727673Y-105948192D01*
X159071201Y-106090838D01*
X159443167Y-106091162D01*
X159786943Y-105949117D01*
X160050192Y-105686327D01*
X160192838Y-105342799D01*
X160192879Y-105295923D01*
X161573401Y-103915401D01*
X161738148Y-103668839D01*
X161796000Y-103378000D01*
X161796000Y-92710000D01*
X161738148Y-92419161D01*
X161573401Y-92172599D01*
X161034000Y-91633198D01*
X161034000Y-87944802D01*
X162445680Y-86533122D01*
X162491167Y-86533162D01*
X162834943Y-86391117D01*
X163098192Y-86128327D01*
X163240838Y-85784799D01*
X163241162Y-85412833D01*
X163099117Y-85069057D01*
X162836327Y-84805808D01*
X162492799Y-84663162D01*
X162120833Y-84662838D01*
X161777057Y-84804883D01*
X161513808Y-85067673D01*
X161371162Y-85411201D01*
X161371121Y-85458077D01*
X160526000Y-86303198D01*
X160526000Y-78671167D01*
X163402838Y-78671167D01*
X163453000Y-78792569D01*
X163453000Y-85037178D01*
X163403162Y-85157201D01*
X163402838Y-85529167D01*
X163544883Y-85872943D01*
X163807673Y-86136192D01*
X164151201Y-86278838D01*
X164523167Y-86279162D01*
X164866943Y-86137117D01*
X165130192Y-85874327D01*
X165272838Y-85530799D01*
X165273162Y-85158833D01*
X165223000Y-85037431D01*
X165223000Y-78792822D01*
X165272838Y-78672799D01*
X165273162Y-78300833D01*
X165131117Y-77957057D01*
X164868327Y-77693808D01*
X164524799Y-77551162D01*
X164152833Y-77550838D01*
X163809057Y-77692883D01*
X163545808Y-77955673D01*
X163403162Y-78299201D01*
X163402838Y-78671167D01*
X160526000Y-78671167D01*
X160526000Y-77524463D01*
X160558192Y-77492327D01*
X160700838Y-77148799D01*
X160701162Y-76776833D01*
X160559117Y-76433057D01*
X160296327Y-76169808D01*
X159952799Y-76027162D01*
X159580833Y-76026838D01*
X159256000Y-76161056D01*
X159256000Y-76006802D01*
X159318802Y-75944000D01*
X160727537Y-75944000D01*
X160759673Y-75976192D01*
X161103201Y-76118838D01*
X161475167Y-76119162D01*
X161818943Y-75977117D01*
X162082192Y-75714327D01*
X162224838Y-75370799D01*
X162225162Y-74998833D01*
X162083117Y-74655057D01*
X161820327Y-74391808D01*
X161476799Y-74249162D01*
X161104833Y-74248838D01*
X160761057Y-74390883D01*
X160727882Y-74424000D01*
X160580409Y-74424000D01*
X160781757Y-73939100D01*
X160782242Y-73383339D01*
X160570010Y-72869697D01*
X160177370Y-72476371D01*
X159969488Y-72390051D01*
X160175303Y-72305010D01*
X160568629Y-71912370D01*
X160781757Y-71399100D01*
X160782242Y-70843339D01*
X160665169Y-70560000D01*
X166234148Y-70560000D01*
X165830194Y-70963249D01*
G36*
X155435856Y-70912302D02*
X155463638Y-71467368D01*
X155622603Y-71851143D01*
X155864787Y-71920608D01*
X156665395Y-71120000D01*
X156651253Y-71105858D01*
X156830858Y-70926253D01*
X156845000Y-70940395D01*
X156859143Y-70926253D01*
X157038748Y-71105858D01*
X157024605Y-71120000D01*
X157825213Y-71920608D01*
X158067397Y-71851143D01*
X158117509Y-71710682D01*
X158199990Y-71910303D01*
X158592630Y-72303629D01*
X158800512Y-72389949D01*
X158594697Y-72474990D01*
X158201371Y-72867630D01*
X158115051Y-73075512D01*
X158030010Y-72869697D01*
X157637370Y-72476371D01*
X157445273Y-72396605D01*
X157576143Y-72342397D01*
X157645608Y-72100213D01*
X156845000Y-71299605D01*
X156044392Y-72100213D01*
X156113857Y-72342397D01*
X156254318Y-72392509D01*
X156054697Y-72474990D01*
X155661371Y-72867630D01*
X155448243Y-73380900D01*
X155447758Y-73936661D01*
X155659990Y-74450303D01*
X156052630Y-74843629D01*
X156565900Y-75056757D01*
X157121661Y-75057242D01*
X157635303Y-74845010D01*
X158028629Y-74452370D01*
X158114949Y-74244488D01*
X158199990Y-74450303D01*
X158431240Y-74681958D01*
X157958599Y-75154599D01*
X157793852Y-75401161D01*
X157736000Y-75692000D01*
X157736000Y-77551001D01*
X157548833Y-77550838D01*
X157205057Y-77692883D01*
X156941808Y-77955673D01*
X156891434Y-78076987D01*
X156351420Y-78617000D01*
X153588887Y-78617000D01*
X153589162Y-78300833D01*
X153539000Y-78179431D01*
X153539000Y-75490822D01*
X153588838Y-75370799D01*
X153589162Y-74998833D01*
X153447117Y-74655057D01*
X153184327Y-74391808D01*
X152840799Y-74249162D01*
X152468833Y-74248838D01*
X152125057Y-74390883D01*
X151861808Y-74653673D01*
X151719162Y-74997201D01*
X151718838Y-75369167D01*
X151769000Y-75490569D01*
X151769000Y-78179178D01*
X151719162Y-78299201D01*
X151718885Y-78617000D01*
X151690822Y-78617000D01*
X151570799Y-78567162D01*
X151198833Y-78566838D01*
X150855057Y-78708883D01*
X150591808Y-78971673D01*
X150449162Y-79315201D01*
X150448838Y-79687167D01*
X150590883Y-80030943D01*
X150853673Y-80294192D01*
X151197201Y-80436838D01*
X151569167Y-80437162D01*
X151690569Y-80387000D01*
X156717995Y-80387000D01*
X156718000Y-80387001D01*
X157000484Y-80330810D01*
X157056675Y-80319633D01*
X157343790Y-80127790D01*
X157736000Y-79735580D01*
X157736000Y-92649198D01*
X153863198Y-96522000D01*
X153466111Y-96522000D01*
X153700192Y-96288327D01*
X153842838Y-95944799D01*
X153843162Y-95572833D01*
X153701117Y-95229057D01*
X153668000Y-95195882D01*
X153668000Y-84328000D01*
X153610148Y-84037161D01*
X153445401Y-83790599D01*
X149762401Y-80107599D01*
X149515839Y-79942852D01*
X149225000Y-79885000D01*
X147882531Y-79885000D01*
X147870010Y-79854697D01*
X147477370Y-79461371D01*
X147269488Y-79375051D01*
X147475303Y-79290010D01*
X147868629Y-78897370D01*
X148081757Y-78384100D01*
X148082242Y-77828339D01*
X147870010Y-77314697D01*
X147477370Y-76921371D01*
X146964100Y-76708243D01*
X146408339Y-76707758D01*
X145894697Y-76919990D01*
X145501371Y-77312630D01*
X145415051Y-77520512D01*
X145330010Y-77314697D01*
X144937370Y-76921371D01*
X144424100Y-76708243D01*
X143868339Y-76707758D01*
X143354697Y-76919990D01*
X142961371Y-77312630D01*
X142950000Y-77340014D01*
X142950000Y-75700852D01*
X143353249Y-76104806D01*
X144688782Y-76659368D01*
X146134874Y-76660630D01*
X147471372Y-76108400D01*
X148494806Y-75086751D01*
X149049368Y-73751218D01*
X149050630Y-72305126D01*
X148498400Y-70968628D01*
X148090485Y-70560000D01*
X155561545Y-70560000D01*
X155435856Y-70912302D01*
X155435856Y-70912302D01*
G37*
X155435856Y-70912302D02*
X155463638Y-71467368D01*
X155622603Y-71851143D01*
X155864787Y-71920608D01*
X156665395Y-71120000D01*
X156651253Y-71105858D01*
X156830858Y-70926253D01*
X156845000Y-70940395D01*
X156859143Y-70926253D01*
X157038748Y-71105858D01*
X157024605Y-71120000D01*
X157825213Y-71920608D01*
X158067397Y-71851143D01*
X158117509Y-71710682D01*
X158199990Y-71910303D01*
X158592630Y-72303629D01*
X158800512Y-72389949D01*
X158594697Y-72474990D01*
X158201371Y-72867630D01*
X158115051Y-73075512D01*
X158030010Y-72869697D01*
X157637370Y-72476371D01*
X157445273Y-72396605D01*
X157576143Y-72342397D01*
X157645608Y-72100213D01*
X156845000Y-71299605D01*
X156044392Y-72100213D01*
X156113857Y-72342397D01*
X156254318Y-72392509D01*
X156054697Y-72474990D01*
X155661371Y-72867630D01*
X155448243Y-73380900D01*
X155447758Y-73936661D01*
X155659990Y-74450303D01*
X156052630Y-74843629D01*
X156565900Y-75056757D01*
X157121661Y-75057242D01*
X157635303Y-74845010D01*
X158028629Y-74452370D01*
X158114949Y-74244488D01*
X158199990Y-74450303D01*
X158431240Y-74681958D01*
X157958599Y-75154599D01*
X157793852Y-75401161D01*
X157736000Y-75692000D01*
X157736000Y-77551001D01*
X157548833Y-77550838D01*
X157205057Y-77692883D01*
X156941808Y-77955673D01*
X156891434Y-78076987D01*
X156351420Y-78617000D01*
X153588887Y-78617000D01*
X153589162Y-78300833D01*
X153539000Y-78179431D01*
X153539000Y-75490822D01*
X153588838Y-75370799D01*
X153589162Y-74998833D01*
X153447117Y-74655057D01*
X153184327Y-74391808D01*
X152840799Y-74249162D01*
X152468833Y-74248838D01*
X152125057Y-74390883D01*
X151861808Y-74653673D01*
X151719162Y-74997201D01*
X151718838Y-75369167D01*
X151769000Y-75490569D01*
X151769000Y-78179178D01*
X151719162Y-78299201D01*
X151718885Y-78617000D01*
X151690822Y-78617000D01*
X151570799Y-78567162D01*
X151198833Y-78566838D01*
X150855057Y-78708883D01*
X150591808Y-78971673D01*
X150449162Y-79315201D01*
X150448838Y-79687167D01*
X150590883Y-80030943D01*
X150853673Y-80294192D01*
X151197201Y-80436838D01*
X151569167Y-80437162D01*
X151690569Y-80387000D01*
X156717995Y-80387000D01*
X156718000Y-80387001D01*
X157000484Y-80330810D01*
X157056675Y-80319633D01*
X157343790Y-80127790D01*
X157736000Y-79735580D01*
X157736000Y-92649198D01*
X153863198Y-96522000D01*
X153466111Y-96522000D01*
X153700192Y-96288327D01*
X153842838Y-95944799D01*
X153843162Y-95572833D01*
X153701117Y-95229057D01*
X153668000Y-95195882D01*
X153668000Y-84328000D01*
X153610148Y-84037161D01*
X153445401Y-83790599D01*
X149762401Y-80107599D01*
X149515839Y-79942852D01*
X149225000Y-79885000D01*
X147882531Y-79885000D01*
X147870010Y-79854697D01*
X147477370Y-79461371D01*
X147269488Y-79375051D01*
X147475303Y-79290010D01*
X147868629Y-78897370D01*
X148081757Y-78384100D01*
X148082242Y-77828339D01*
X147870010Y-77314697D01*
X147477370Y-76921371D01*
X146964100Y-76708243D01*
X146408339Y-76707758D01*
X145894697Y-76919990D01*
X145501371Y-77312630D01*
X145415051Y-77520512D01*
X145330010Y-77314697D01*
X144937370Y-76921371D01*
X144424100Y-76708243D01*
X143868339Y-76707758D01*
X143354697Y-76919990D01*
X142961371Y-77312630D01*
X142950000Y-77340014D01*
X142950000Y-75700852D01*
X143353249Y-76104806D01*
X144688782Y-76659368D01*
X146134874Y-76660630D01*
X147471372Y-76108400D01*
X148494806Y-75086751D01*
X149049368Y-73751218D01*
X149050630Y-72305126D01*
X148498400Y-70968628D01*
X148090485Y-70560000D01*
X155561545Y-70560000D01*
X155435856Y-70912302D01*
G36*
X145499990Y-81435303D02*
X145892630Y-81828629D01*
X146100512Y-81914949D01*
X145894697Y-81999990D01*
X145501371Y-82392630D01*
X145421605Y-82584727D01*
X145367397Y-82453857D01*
X145125213Y-82384392D01*
X144324605Y-83185000D01*
X145125213Y-83985608D01*
X145367397Y-83916143D01*
X145417509Y-83775682D01*
X145499990Y-83975303D01*
X145892630Y-84368629D01*
X146100512Y-84454949D01*
X145894697Y-84539990D01*
X145501371Y-84932630D01*
X145415051Y-85140512D01*
X145330010Y-84934697D01*
X144937370Y-84541371D01*
X144745273Y-84461605D01*
X144876143Y-84407397D01*
X144945608Y-84165213D01*
X144145000Y-83364605D01*
X143344392Y-84165213D01*
X143413857Y-84407397D01*
X143554318Y-84457509D01*
X143354697Y-84539990D01*
X142961371Y-84932630D01*
X142950000Y-84960014D01*
X142950000Y-83924001D01*
X143164787Y-83985608D01*
X143965395Y-83185000D01*
X143164787Y-82384392D01*
X142950000Y-82445999D01*
X142950000Y-81411125D01*
X142959990Y-81435303D01*
X143352630Y-81828629D01*
X143544727Y-81908395D01*
X143413857Y-81962603D01*
X143344392Y-82204787D01*
X144145000Y-83005395D01*
X144945608Y-82204787D01*
X144876143Y-81962603D01*
X144735682Y-81912491D01*
X144935303Y-81830010D01*
X145328629Y-81437370D01*
X145414949Y-81229488D01*
X145499990Y-81435303D01*
X145499990Y-81435303D01*
G37*
X145499990Y-81435303D02*
X145892630Y-81828629D01*
X146100512Y-81914949D01*
X145894697Y-81999990D01*
X145501371Y-82392630D01*
X145421605Y-82584727D01*
X145367397Y-82453857D01*
X145125213Y-82384392D01*
X144324605Y-83185000D01*
X145125213Y-83985608D01*
X145367397Y-83916143D01*
X145417509Y-83775682D01*
X145499990Y-83975303D01*
X145892630Y-84368629D01*
X146100512Y-84454949D01*
X145894697Y-84539990D01*
X145501371Y-84932630D01*
X145415051Y-85140512D01*
X145330010Y-84934697D01*
X144937370Y-84541371D01*
X144745273Y-84461605D01*
X144876143Y-84407397D01*
X144945608Y-84165213D01*
X144145000Y-83364605D01*
X143344392Y-84165213D01*
X143413857Y-84407397D01*
X143554318Y-84457509D01*
X143354697Y-84539990D01*
X142961371Y-84932630D01*
X142950000Y-84960014D01*
X142950000Y-83924001D01*
X143164787Y-83985608D01*
X143965395Y-83185000D01*
X143164787Y-82384392D01*
X142950000Y-82445999D01*
X142950000Y-81411125D01*
X142959990Y-81435303D01*
X143352630Y-81828629D01*
X143544727Y-81908395D01*
X143413857Y-81962603D01*
X143344392Y-82204787D01*
X144145000Y-83005395D01*
X144945608Y-82204787D01*
X144876143Y-81962603D01*
X144735682Y-81912491D01*
X144935303Y-81830010D01*
X145328629Y-81437370D01*
X145414949Y-81229488D01*
X145499990Y-81435303D01*
M02*
