G04 #@! TF.GenerationSoftware,KiCad,Pcbnew,(5.0.0)*
G04 #@! TF.CreationDate,2018-10-15T11:55:30+01:00*
G04 #@! TF.ProjectId,Motor Shield,4D6F746F7220536869656C642E6B6963,rev?*
G04 #@! TF.SameCoordinates,Original*
G04 #@! TF.FileFunction,Copper,L1,Top,Signal*
G04 #@! TF.FilePolarity,Positive*
%FSLAX46Y46*%
G04 Gerber Fmt 4.6, Leading zero omitted, Abs format (unit mm)*
G04 Created by KiCad (PCBNEW (5.0.0)) date 10/15/18 11:55:30*
%MOMM*%
%LPD*%
G01*
G04 APERTURE LIST*
G04 #@! TA.AperFunction,Conductor*
%ADD10C,0.100000*%
G04 #@! TD*
G04 #@! TA.AperFunction,SMDPad,CuDef*
%ADD11C,0.590000*%
G04 #@! TD*
G04 #@! TA.AperFunction,SMDPad,CuDef*
%ADD12C,0.875000*%
G04 #@! TD*
G04 #@! TA.AperFunction,ComponentPad*
%ADD13C,2.200000*%
G04 #@! TD*
G04 #@! TA.AperFunction,ComponentPad*
%ADD14R,2.200000X2.200000*%
G04 #@! TD*
G04 #@! TA.AperFunction,SMDPad,CuDef*
%ADD15R,2.000000X3.800000*%
G04 #@! TD*
G04 #@! TA.AperFunction,SMDPad,CuDef*
%ADD16R,2.000000X1.500000*%
G04 #@! TD*
G04 #@! TA.AperFunction,ComponentPad*
%ADD17R,1.700000X1.700000*%
G04 #@! TD*
G04 #@! TA.AperFunction,ComponentPad*
%ADD18O,1.700000X1.700000*%
G04 #@! TD*
G04 #@! TA.AperFunction,SMDPad,CuDef*
%ADD19R,1.750000X0.450000*%
G04 #@! TD*
G04 #@! TA.AperFunction,ComponentPad*
%ADD20C,6.000000*%
G04 #@! TD*
G04 #@! TA.AperFunction,ComponentPad*
%ADD21C,1.524000*%
G04 #@! TD*
G04 #@! TA.AperFunction,SMDPad,CuDef*
%ADD22R,1.600000X3.000000*%
G04 #@! TD*
G04 #@! TA.AperFunction,SMDPad,CuDef*
%ADD23R,4.000000X4.000000*%
G04 #@! TD*
G04 #@! TA.AperFunction,SMDPad,CuDef*
%ADD24R,6.450000X4.400000*%
G04 #@! TD*
G04 #@! TA.AperFunction,SMDPad,CuDef*
%ADD25R,0.650000X1.350000*%
G04 #@! TD*
G04 #@! TA.AperFunction,ViaPad*
%ADD26C,0.600000*%
G04 #@! TD*
G04 #@! TA.AperFunction,Conductor*
%ADD27C,0.250000*%
G04 #@! TD*
G04 #@! TA.AperFunction,Conductor*
%ADD28C,0.500000*%
G04 #@! TD*
G04 #@! TA.AperFunction,Conductor*
%ADD29C,0.254000*%
G04 #@! TD*
G04 APERTURE END LIST*
D10*
G04 #@! TO.N,Net-(D3-Pad2)*
G04 #@! TO.C,R1*
G36*
X150321958Y-71435710D02*
X150336276Y-71437834D01*
X150350317Y-71441351D01*
X150363946Y-71446228D01*
X150377031Y-71452417D01*
X150389447Y-71459858D01*
X150401073Y-71468481D01*
X150411798Y-71478202D01*
X150421519Y-71488927D01*
X150430142Y-71500553D01*
X150437583Y-71512969D01*
X150443772Y-71526054D01*
X150448649Y-71539683D01*
X150452166Y-71553724D01*
X150454290Y-71568042D01*
X150455000Y-71582500D01*
X150455000Y-71927500D01*
X150454290Y-71941958D01*
X150452166Y-71956276D01*
X150448649Y-71970317D01*
X150443772Y-71983946D01*
X150437583Y-71997031D01*
X150430142Y-72009447D01*
X150421519Y-72021073D01*
X150411798Y-72031798D01*
X150401073Y-72041519D01*
X150389447Y-72050142D01*
X150377031Y-72057583D01*
X150363946Y-72063772D01*
X150350317Y-72068649D01*
X150336276Y-72072166D01*
X150321958Y-72074290D01*
X150307500Y-72075000D01*
X150012500Y-72075000D01*
X149998042Y-72074290D01*
X149983724Y-72072166D01*
X149969683Y-72068649D01*
X149956054Y-72063772D01*
X149942969Y-72057583D01*
X149930553Y-72050142D01*
X149918927Y-72041519D01*
X149908202Y-72031798D01*
X149898481Y-72021073D01*
X149889858Y-72009447D01*
X149882417Y-71997031D01*
X149876228Y-71983946D01*
X149871351Y-71970317D01*
X149867834Y-71956276D01*
X149865710Y-71941958D01*
X149865000Y-71927500D01*
X149865000Y-71582500D01*
X149865710Y-71568042D01*
X149867834Y-71553724D01*
X149871351Y-71539683D01*
X149876228Y-71526054D01*
X149882417Y-71512969D01*
X149889858Y-71500553D01*
X149898481Y-71488927D01*
X149908202Y-71478202D01*
X149918927Y-71468481D01*
X149930553Y-71459858D01*
X149942969Y-71452417D01*
X149956054Y-71446228D01*
X149969683Y-71441351D01*
X149983724Y-71437834D01*
X149998042Y-71435710D01*
X150012500Y-71435000D01*
X150307500Y-71435000D01*
X150321958Y-71435710D01*
X150321958Y-71435710D01*
G37*
D11*
G04 #@! TD*
G04 #@! TO.P,R1,1*
G04 #@! TO.N,Net-(D3-Pad2)*
X150160000Y-71755000D03*
D10*
G04 #@! TO.N,BAT-*
G04 #@! TO.C,R1*
G36*
X151291958Y-71435710D02*
X151306276Y-71437834D01*
X151320317Y-71441351D01*
X151333946Y-71446228D01*
X151347031Y-71452417D01*
X151359447Y-71459858D01*
X151371073Y-71468481D01*
X151381798Y-71478202D01*
X151391519Y-71488927D01*
X151400142Y-71500553D01*
X151407583Y-71512969D01*
X151413772Y-71526054D01*
X151418649Y-71539683D01*
X151422166Y-71553724D01*
X151424290Y-71568042D01*
X151425000Y-71582500D01*
X151425000Y-71927500D01*
X151424290Y-71941958D01*
X151422166Y-71956276D01*
X151418649Y-71970317D01*
X151413772Y-71983946D01*
X151407583Y-71997031D01*
X151400142Y-72009447D01*
X151391519Y-72021073D01*
X151381798Y-72031798D01*
X151371073Y-72041519D01*
X151359447Y-72050142D01*
X151347031Y-72057583D01*
X151333946Y-72063772D01*
X151320317Y-72068649D01*
X151306276Y-72072166D01*
X151291958Y-72074290D01*
X151277500Y-72075000D01*
X150982500Y-72075000D01*
X150968042Y-72074290D01*
X150953724Y-72072166D01*
X150939683Y-72068649D01*
X150926054Y-72063772D01*
X150912969Y-72057583D01*
X150900553Y-72050142D01*
X150888927Y-72041519D01*
X150878202Y-72031798D01*
X150868481Y-72021073D01*
X150859858Y-72009447D01*
X150852417Y-71997031D01*
X150846228Y-71983946D01*
X150841351Y-71970317D01*
X150837834Y-71956276D01*
X150835710Y-71941958D01*
X150835000Y-71927500D01*
X150835000Y-71582500D01*
X150835710Y-71568042D01*
X150837834Y-71553724D01*
X150841351Y-71539683D01*
X150846228Y-71526054D01*
X150852417Y-71512969D01*
X150859858Y-71500553D01*
X150868481Y-71488927D01*
X150878202Y-71478202D01*
X150888927Y-71468481D01*
X150900553Y-71459858D01*
X150912969Y-71452417D01*
X150926054Y-71446228D01*
X150939683Y-71441351D01*
X150953724Y-71437834D01*
X150968042Y-71435710D01*
X150982500Y-71435000D01*
X151277500Y-71435000D01*
X151291958Y-71435710D01*
X151291958Y-71435710D01*
G37*
D11*
G04 #@! TD*
G04 #@! TO.P,R1,2*
G04 #@! TO.N,BAT-*
X151130000Y-71755000D03*
D10*
G04 #@! TO.N,BAT-PROT+*
G04 #@! TO.C,D3*
G36*
X150430191Y-81441053D02*
X150451426Y-81444203D01*
X150472250Y-81449419D01*
X150492462Y-81456651D01*
X150511868Y-81465830D01*
X150530281Y-81476866D01*
X150547524Y-81489654D01*
X150563430Y-81504070D01*
X150577846Y-81519976D01*
X150590634Y-81537219D01*
X150601670Y-81555632D01*
X150610849Y-81575038D01*
X150618081Y-81595250D01*
X150623297Y-81616074D01*
X150626447Y-81637309D01*
X150627500Y-81658750D01*
X150627500Y-82171250D01*
X150626447Y-82192691D01*
X150623297Y-82213926D01*
X150618081Y-82234750D01*
X150610849Y-82254962D01*
X150601670Y-82274368D01*
X150590634Y-82292781D01*
X150577846Y-82310024D01*
X150563430Y-82325930D01*
X150547524Y-82340346D01*
X150530281Y-82353134D01*
X150511868Y-82364170D01*
X150492462Y-82373349D01*
X150472250Y-82380581D01*
X150451426Y-82385797D01*
X150430191Y-82388947D01*
X150408750Y-82390000D01*
X149971250Y-82390000D01*
X149949809Y-82388947D01*
X149928574Y-82385797D01*
X149907750Y-82380581D01*
X149887538Y-82373349D01*
X149868132Y-82364170D01*
X149849719Y-82353134D01*
X149832476Y-82340346D01*
X149816570Y-82325930D01*
X149802154Y-82310024D01*
X149789366Y-82292781D01*
X149778330Y-82274368D01*
X149769151Y-82254962D01*
X149761919Y-82234750D01*
X149756703Y-82213926D01*
X149753553Y-82192691D01*
X149752500Y-82171250D01*
X149752500Y-81658750D01*
X149753553Y-81637309D01*
X149756703Y-81616074D01*
X149761919Y-81595250D01*
X149769151Y-81575038D01*
X149778330Y-81555632D01*
X149789366Y-81537219D01*
X149802154Y-81519976D01*
X149816570Y-81504070D01*
X149832476Y-81489654D01*
X149849719Y-81476866D01*
X149868132Y-81465830D01*
X149887538Y-81456651D01*
X149907750Y-81449419D01*
X149928574Y-81444203D01*
X149949809Y-81441053D01*
X149971250Y-81440000D01*
X150408750Y-81440000D01*
X150430191Y-81441053D01*
X150430191Y-81441053D01*
G37*
D12*
G04 #@! TD*
G04 #@! TO.P,D3,1*
G04 #@! TO.N,BAT-PROT+*
X150190000Y-81915000D03*
D10*
G04 #@! TO.N,Net-(D3-Pad2)*
G04 #@! TO.C,D3*
G36*
X152005191Y-81441053D02*
X152026426Y-81444203D01*
X152047250Y-81449419D01*
X152067462Y-81456651D01*
X152086868Y-81465830D01*
X152105281Y-81476866D01*
X152122524Y-81489654D01*
X152138430Y-81504070D01*
X152152846Y-81519976D01*
X152165634Y-81537219D01*
X152176670Y-81555632D01*
X152185849Y-81575038D01*
X152193081Y-81595250D01*
X152198297Y-81616074D01*
X152201447Y-81637309D01*
X152202500Y-81658750D01*
X152202500Y-82171250D01*
X152201447Y-82192691D01*
X152198297Y-82213926D01*
X152193081Y-82234750D01*
X152185849Y-82254962D01*
X152176670Y-82274368D01*
X152165634Y-82292781D01*
X152152846Y-82310024D01*
X152138430Y-82325930D01*
X152122524Y-82340346D01*
X152105281Y-82353134D01*
X152086868Y-82364170D01*
X152067462Y-82373349D01*
X152047250Y-82380581D01*
X152026426Y-82385797D01*
X152005191Y-82388947D01*
X151983750Y-82390000D01*
X151546250Y-82390000D01*
X151524809Y-82388947D01*
X151503574Y-82385797D01*
X151482750Y-82380581D01*
X151462538Y-82373349D01*
X151443132Y-82364170D01*
X151424719Y-82353134D01*
X151407476Y-82340346D01*
X151391570Y-82325930D01*
X151377154Y-82310024D01*
X151364366Y-82292781D01*
X151353330Y-82274368D01*
X151344151Y-82254962D01*
X151336919Y-82234750D01*
X151331703Y-82213926D01*
X151328553Y-82192691D01*
X151327500Y-82171250D01*
X151327500Y-81658750D01*
X151328553Y-81637309D01*
X151331703Y-81616074D01*
X151336919Y-81595250D01*
X151344151Y-81575038D01*
X151353330Y-81555632D01*
X151364366Y-81537219D01*
X151377154Y-81519976D01*
X151391570Y-81504070D01*
X151407476Y-81489654D01*
X151424719Y-81476866D01*
X151443132Y-81465830D01*
X151462538Y-81456651D01*
X151482750Y-81449419D01*
X151503574Y-81444203D01*
X151524809Y-81441053D01*
X151546250Y-81440000D01*
X151983750Y-81440000D01*
X152005191Y-81441053D01*
X152005191Y-81441053D01*
G37*
D12*
G04 #@! TD*
G04 #@! TO.P,D3,2*
G04 #@! TO.N,Net-(D3-Pad2)*
X151765000Y-81915000D03*
D13*
G04 #@! TO.P,J4,2*
G04 #@! TO.N,OUT3*
X169926000Y-106680000D03*
D14*
G04 #@! TO.P,J4,1*
G04 #@! TO.N,OUT4*
X169926000Y-104140000D03*
G04 #@! TD*
G04 #@! TO.P,J5,1*
G04 #@! TO.N,OUT2*
X169926000Y-97790000D03*
D13*
G04 #@! TO.P,J5,2*
G04 #@! TO.N,OUT1*
X169926000Y-100330000D03*
G04 #@! TD*
D15*
G04 #@! TO.P,Q1,4*
G04 #@! TO.N,BAT+*
X156058000Y-76962000D03*
D16*
G04 #@! TO.P,Q1,2*
X149758000Y-76962000D03*
G04 #@! TO.P,Q1,3*
G04 #@! TO.N,BAT-PROT+*
X149758000Y-79262000D03*
G04 #@! TO.P,Q1,1*
G04 #@! TO.N,Net-(D3-Pad2)*
X149758000Y-74662000D03*
G04 #@! TD*
D17*
G04 #@! TO.P,J3,1*
G04 #@! TO.N,+5V*
X156210000Y-91694000D03*
D18*
G04 #@! TO.P,J3,2*
G04 #@! TO.N,Net-(J3-Pad2)*
X156210000Y-89154000D03*
G04 #@! TD*
D17*
G04 #@! TO.P,J2,1*
G04 #@! TO.N,ICSP_DAT*
X151130000Y-123698000D03*
D18*
G04 #@! TO.P,J2,2*
G04 #@! TO.N,Net-(J2-Pad2)*
X151130000Y-121158000D03*
G04 #@! TD*
D19*
G04 #@! TO.P,U3,1*
G04 #@! TO.N,+3V3*
X157778000Y-105033000D03*
G04 #@! TO.P,U3,2*
G04 #@! TO.N,B1*
X157778000Y-104383000D03*
G04 #@! TO.P,U3,3*
G04 #@! TO.N,A1*
X157778000Y-103733000D03*
G04 #@! TO.P,U3,4*
G04 #@! TO.N,MCLR*
X157778000Y-103083000D03*
G04 #@! TO.P,U3,5*
G04 #@! TO.N,PWM1*
X157778000Y-102433000D03*
G04 #@! TO.P,U3,6*
G04 #@! TO.N,Net-(U3-Pad6)*
X157778000Y-101783000D03*
G04 #@! TO.P,U3,7*
G04 #@! TO.N,PWM2*
X157778000Y-101133000D03*
G04 #@! TO.P,U3,8*
G04 #@! TO.N,Net-(U3-Pad8)*
X157778000Y-100483000D03*
G04 #@! TO.P,U3,9*
G04 #@! TO.N,Net-(U3-Pad9)*
X157778000Y-99833000D03*
G04 #@! TO.P,U3,10*
G04 #@! TO.N,B2*
X157778000Y-99183000D03*
G04 #@! TO.P,U3,11*
G04 #@! TO.N,SCL*
X150578000Y-99183000D03*
G04 #@! TO.P,U3,12*
G04 #@! TO.N,A2*
X150578000Y-99833000D03*
G04 #@! TO.P,U3,13*
G04 #@! TO.N,SDA*
X150578000Y-100483000D03*
G04 #@! TO.P,U3,14*
G04 #@! TO.N,Net-(U3-Pad14)*
X150578000Y-101133000D03*
G04 #@! TO.P,U3,15*
G04 #@! TO.N,Net-(U3-Pad15)*
X150578000Y-101783000D03*
G04 #@! TO.P,U3,16*
G04 #@! TO.N,Net-(U3-Pad16)*
X150578000Y-102433000D03*
G04 #@! TO.P,U3,17*
G04 #@! TO.N,Net-(U3-Pad17)*
X150578000Y-103083000D03*
G04 #@! TO.P,U3,18*
G04 #@! TO.N,ICSP_CLK*
X150578000Y-103733000D03*
G04 #@! TO.P,U3,19*
G04 #@! TO.N,Net-(J2-Pad2)*
X150578000Y-104383000D03*
G04 #@! TO.P,U3,20*
G04 #@! TO.N,BAT-*
X150578000Y-105033000D03*
G04 #@! TD*
D15*
G04 #@! TO.P,U5,2*
G04 #@! TO.N,+5V*
X152044000Y-111506000D03*
D16*
X158344000Y-111506000D03*
G04 #@! TO.P,U5,3*
G04 #@! TO.N,BAT-PROT+*
X158344000Y-109206000D03*
G04 #@! TO.P,U5,1*
G04 #@! TO.N,BAT-*
X158344000Y-113806000D03*
G04 #@! TD*
D17*
G04 #@! TO.P,J6,1*
G04 #@! TO.N,+5V*
X170434000Y-93980000D03*
D18*
G04 #@! TO.P,J6,2*
G04 #@! TO.N,A1*
X170434000Y-91440000D03*
G04 #@! TO.P,J6,3*
G04 #@! TO.N,B1*
X170434000Y-88900000D03*
G04 #@! TO.P,J6,4*
G04 #@! TO.N,BAT-*
X170434000Y-86360000D03*
G04 #@! TD*
G04 #@! TO.P,J7,4*
G04 #@! TO.N,BAT-*
X170434000Y-118110000D03*
G04 #@! TO.P,J7,3*
G04 #@! TO.N,B2*
X170434000Y-115570000D03*
G04 #@! TO.P,J7,2*
G04 #@! TO.N,A2*
X170434000Y-113030000D03*
D17*
G04 #@! TO.P,J7,1*
G04 #@! TO.N,+5V*
X170434000Y-110490000D03*
G04 #@! TD*
D14*
G04 #@! TO.P,J1,1*
G04 #@! TO.N,BAT+*
X156718000Y-71374000D03*
D13*
G04 #@! TO.P,J1,2*
G04 #@! TO.N,BAT-*
X159258000Y-71374000D03*
G04 #@! TD*
D20*
G04 #@! TO.P,U4,*
G04 #@! TO.N,*
X168910000Y-131572000D03*
X168910000Y-73152000D03*
X145415000Y-131572000D03*
X145415000Y-73152000D03*
D21*
G04 #@! TO.P,U4,40*
G04 #@! TO.N,ICSP_CLK*
X144145000Y-126492000D03*
G04 #@! TO.P,U4,39*
G04 #@! TO.N,Net-(U4-Pad39)*
X146685000Y-126492000D03*
G04 #@! TO.P,U4,38*
G04 #@! TO.N,ICSP_DAT*
X144145000Y-123952000D03*
G04 #@! TO.P,U4,37*
G04 #@! TO.N,Net-(U4-Pad37)*
X146685000Y-123952000D03*
G04 #@! TO.P,U4,36*
G04 #@! TO.N,Net-(U4-Pad36)*
X144145000Y-121412000D03*
G04 #@! TO.P,U4,35*
G04 #@! TO.N,MCLR*
X146685000Y-121412000D03*
G04 #@! TO.P,U4,34*
G04 #@! TO.N,Net-(U4-Pad34)*
X144145000Y-118872000D03*
G04 #@! TO.P,U4,33*
G04 #@! TO.N,Net-(U4-Pad33)*
X146685000Y-118872000D03*
G04 #@! TO.P,U4,32*
G04 #@! TO.N,Net-(U4-Pad32)*
X144145000Y-116332000D03*
G04 #@! TO.P,U4,31*
G04 #@! TO.N,Net-(U4-Pad31)*
X146685000Y-116332000D03*
G04 #@! TO.P,U4,30*
G04 #@! TO.N,Net-(U4-Pad30)*
X144145000Y-113792000D03*
G04 #@! TO.P,U4,29*
G04 #@! TO.N,Net-(U4-Pad29)*
X146685000Y-113792000D03*
G04 #@! TO.P,U4,28*
G04 #@! TO.N,Net-(U4-Pad28)*
X144145000Y-111252000D03*
G04 #@! TO.P,U4,27*
G04 #@! TO.N,Net-(U4-Pad27)*
X146685000Y-111252000D03*
G04 #@! TO.P,U4,26*
G04 #@! TO.N,Net-(U4-Pad26)*
X144145000Y-108712000D03*
G04 #@! TO.P,U4,25*
G04 #@! TO.N,Net-(U4-Pad25)*
X146685000Y-108712000D03*
G04 #@! TO.P,U4,24*
G04 #@! TO.N,Net-(U4-Pad24)*
X144145000Y-106172000D03*
G04 #@! TO.P,U4,23*
G04 #@! TO.N,Net-(U4-Pad23)*
X146685000Y-106172000D03*
G04 #@! TO.P,U4,22*
G04 #@! TO.N,DIR2*
X144145000Y-103632000D03*
G04 #@! TO.P,U4,21*
G04 #@! TO.N,Net-(U4-Pad21)*
X146685000Y-103632000D03*
G04 #@! TO.P,U4,20*
G04 #@! TO.N,Net-(U4-Pad20)*
X144145000Y-101092000D03*
G04 #@! TO.P,U4,19*
G04 #@! TO.N,Net-(U4-Pad19)*
X146685000Y-101092000D03*
G04 #@! TO.P,U4,18*
G04 #@! TO.N,DIR1*
X144145000Y-98552000D03*
G04 #@! TO.P,U4,17*
G04 #@! TO.N,Net-(U4-Pad17)*
X146685000Y-98552000D03*
G04 #@! TO.P,U4,16*
G04 #@! TO.N,EN2*
X144145000Y-96012000D03*
G04 #@! TO.P,U4,15*
G04 #@! TO.N,EN1*
X146685000Y-96012000D03*
G04 #@! TO.P,U4,14*
G04 #@! TO.N,Net-(U4-Pad14)*
X144145000Y-93472000D03*
G04 #@! TO.P,U4,13*
G04 #@! TO.N,Net-(U4-Pad13)*
X146685000Y-93472000D03*
G04 #@! TO.P,U4,12*
G04 #@! TO.N,Net-(U4-Pad12)*
X144145000Y-90932000D03*
G04 #@! TO.P,U4,11*
G04 #@! TO.N,Net-(U4-Pad11)*
X146685000Y-90932000D03*
G04 #@! TO.P,U4,10*
G04 #@! TO.N,Net-(U4-Pad10)*
X144145000Y-88392000D03*
G04 #@! TO.P,U4,9*
G04 #@! TO.N,Net-(U4-Pad9)*
X146685000Y-88392000D03*
G04 #@! TO.P,U4,8*
G04 #@! TO.N,Net-(U4-Pad8)*
X144145000Y-85852000D03*
G04 #@! TO.P,U4,7*
G04 #@! TO.N,Net-(U4-Pad7)*
X146685000Y-85852000D03*
G04 #@! TO.P,U4,6*
G04 #@! TO.N,BAT-*
X144145000Y-83312000D03*
G04 #@! TO.P,U4,5*
G04 #@! TO.N,SCL*
X146685000Y-83312000D03*
G04 #@! TO.P,U4,4*
G04 #@! TO.N,Net-(U4-Pad4)*
X144145000Y-80772000D03*
G04 #@! TO.P,U4,3*
G04 #@! TO.N,SDA*
X146685000Y-80772000D03*
G04 #@! TO.P,U4,2*
G04 #@! TO.N,Net-(J3-Pad2)*
X144145000Y-78232000D03*
G04 #@! TO.P,U4,1*
G04 #@! TO.N,+3V3*
X146685000Y-78232000D03*
G04 #@! TD*
D22*
G04 #@! TO.P,C1,2*
G04 #@! TO.N,BAT-*
X163830000Y-94570000D03*
G04 #@! TO.P,C1,1*
G04 #@! TO.N,BAT-PROT+*
X163830000Y-90170000D03*
G04 #@! TD*
G04 #@! TO.P,C2,1*
G04 #@! TO.N,BAT-PROT+*
X163830000Y-114300000D03*
G04 #@! TO.P,C2,2*
G04 #@! TO.N,BAT-*
X163830000Y-109900000D03*
G04 #@! TD*
D10*
G04 #@! TO.N,BAT-PROT+*
G04 #@! TO.C,D1*
G36*
X168552691Y-91333553D02*
X168573926Y-91336703D01*
X168594750Y-91341919D01*
X168614962Y-91349151D01*
X168634368Y-91358330D01*
X168652781Y-91369366D01*
X168670024Y-91382154D01*
X168685930Y-91396570D01*
X168700346Y-91412476D01*
X168713134Y-91429719D01*
X168724170Y-91448132D01*
X168733349Y-91467538D01*
X168740581Y-91487750D01*
X168745797Y-91508574D01*
X168748947Y-91529809D01*
X168750000Y-91551250D01*
X168750000Y-91988750D01*
X168748947Y-92010191D01*
X168745797Y-92031426D01*
X168740581Y-92052250D01*
X168733349Y-92072462D01*
X168724170Y-92091868D01*
X168713134Y-92110281D01*
X168700346Y-92127524D01*
X168685930Y-92143430D01*
X168670024Y-92157846D01*
X168652781Y-92170634D01*
X168634368Y-92181670D01*
X168614962Y-92190849D01*
X168594750Y-92198081D01*
X168573926Y-92203297D01*
X168552691Y-92206447D01*
X168531250Y-92207500D01*
X168018750Y-92207500D01*
X167997309Y-92206447D01*
X167976074Y-92203297D01*
X167955250Y-92198081D01*
X167935038Y-92190849D01*
X167915632Y-92181670D01*
X167897219Y-92170634D01*
X167879976Y-92157846D01*
X167864070Y-92143430D01*
X167849654Y-92127524D01*
X167836866Y-92110281D01*
X167825830Y-92091868D01*
X167816651Y-92072462D01*
X167809419Y-92052250D01*
X167804203Y-92031426D01*
X167801053Y-92010191D01*
X167800000Y-91988750D01*
X167800000Y-91551250D01*
X167801053Y-91529809D01*
X167804203Y-91508574D01*
X167809419Y-91487750D01*
X167816651Y-91467538D01*
X167825830Y-91448132D01*
X167836866Y-91429719D01*
X167849654Y-91412476D01*
X167864070Y-91396570D01*
X167879976Y-91382154D01*
X167897219Y-91369366D01*
X167915632Y-91358330D01*
X167935038Y-91349151D01*
X167955250Y-91341919D01*
X167976074Y-91336703D01*
X167997309Y-91333553D01*
X168018750Y-91332500D01*
X168531250Y-91332500D01*
X168552691Y-91333553D01*
X168552691Y-91333553D01*
G37*
D12*
G04 #@! TD*
G04 #@! TO.P,D1,1*
G04 #@! TO.N,BAT-PROT+*
X168275000Y-91770000D03*
D10*
G04 #@! TO.N,BAT-*
G04 #@! TO.C,D1*
G36*
X168552691Y-92908553D02*
X168573926Y-92911703D01*
X168594750Y-92916919D01*
X168614962Y-92924151D01*
X168634368Y-92933330D01*
X168652781Y-92944366D01*
X168670024Y-92957154D01*
X168685930Y-92971570D01*
X168700346Y-92987476D01*
X168713134Y-93004719D01*
X168724170Y-93023132D01*
X168733349Y-93042538D01*
X168740581Y-93062750D01*
X168745797Y-93083574D01*
X168748947Y-93104809D01*
X168750000Y-93126250D01*
X168750000Y-93563750D01*
X168748947Y-93585191D01*
X168745797Y-93606426D01*
X168740581Y-93627250D01*
X168733349Y-93647462D01*
X168724170Y-93666868D01*
X168713134Y-93685281D01*
X168700346Y-93702524D01*
X168685930Y-93718430D01*
X168670024Y-93732846D01*
X168652781Y-93745634D01*
X168634368Y-93756670D01*
X168614962Y-93765849D01*
X168594750Y-93773081D01*
X168573926Y-93778297D01*
X168552691Y-93781447D01*
X168531250Y-93782500D01*
X168018750Y-93782500D01*
X167997309Y-93781447D01*
X167976074Y-93778297D01*
X167955250Y-93773081D01*
X167935038Y-93765849D01*
X167915632Y-93756670D01*
X167897219Y-93745634D01*
X167879976Y-93732846D01*
X167864070Y-93718430D01*
X167849654Y-93702524D01*
X167836866Y-93685281D01*
X167825830Y-93666868D01*
X167816651Y-93647462D01*
X167809419Y-93627250D01*
X167804203Y-93606426D01*
X167801053Y-93585191D01*
X167800000Y-93563750D01*
X167800000Y-93126250D01*
X167801053Y-93104809D01*
X167804203Y-93083574D01*
X167809419Y-93062750D01*
X167816651Y-93042538D01*
X167825830Y-93023132D01*
X167836866Y-93004719D01*
X167849654Y-92987476D01*
X167864070Y-92971570D01*
X167879976Y-92957154D01*
X167897219Y-92944366D01*
X167915632Y-92933330D01*
X167935038Y-92924151D01*
X167955250Y-92916919D01*
X167976074Y-92911703D01*
X167997309Y-92908553D01*
X168018750Y-92907500D01*
X168531250Y-92907500D01*
X168552691Y-92908553D01*
X168552691Y-92908553D01*
G37*
D12*
G04 #@! TD*
G04 #@! TO.P,D1,2*
G04 #@! TO.N,BAT-*
X168275000Y-93345000D03*
D10*
G04 #@! TO.N,BAT-*
G04 #@! TO.C,D2*
G36*
X168298691Y-110688553D02*
X168319926Y-110691703D01*
X168340750Y-110696919D01*
X168360962Y-110704151D01*
X168380368Y-110713330D01*
X168398781Y-110724366D01*
X168416024Y-110737154D01*
X168431930Y-110751570D01*
X168446346Y-110767476D01*
X168459134Y-110784719D01*
X168470170Y-110803132D01*
X168479349Y-110822538D01*
X168486581Y-110842750D01*
X168491797Y-110863574D01*
X168494947Y-110884809D01*
X168496000Y-110906250D01*
X168496000Y-111343750D01*
X168494947Y-111365191D01*
X168491797Y-111386426D01*
X168486581Y-111407250D01*
X168479349Y-111427462D01*
X168470170Y-111446868D01*
X168459134Y-111465281D01*
X168446346Y-111482524D01*
X168431930Y-111498430D01*
X168416024Y-111512846D01*
X168398781Y-111525634D01*
X168380368Y-111536670D01*
X168360962Y-111545849D01*
X168340750Y-111553081D01*
X168319926Y-111558297D01*
X168298691Y-111561447D01*
X168277250Y-111562500D01*
X167764750Y-111562500D01*
X167743309Y-111561447D01*
X167722074Y-111558297D01*
X167701250Y-111553081D01*
X167681038Y-111545849D01*
X167661632Y-111536670D01*
X167643219Y-111525634D01*
X167625976Y-111512846D01*
X167610070Y-111498430D01*
X167595654Y-111482524D01*
X167582866Y-111465281D01*
X167571830Y-111446868D01*
X167562651Y-111427462D01*
X167555419Y-111407250D01*
X167550203Y-111386426D01*
X167547053Y-111365191D01*
X167546000Y-111343750D01*
X167546000Y-110906250D01*
X167547053Y-110884809D01*
X167550203Y-110863574D01*
X167555419Y-110842750D01*
X167562651Y-110822538D01*
X167571830Y-110803132D01*
X167582866Y-110784719D01*
X167595654Y-110767476D01*
X167610070Y-110751570D01*
X167625976Y-110737154D01*
X167643219Y-110724366D01*
X167661632Y-110713330D01*
X167681038Y-110704151D01*
X167701250Y-110696919D01*
X167722074Y-110691703D01*
X167743309Y-110688553D01*
X167764750Y-110687500D01*
X168277250Y-110687500D01*
X168298691Y-110688553D01*
X168298691Y-110688553D01*
G37*
D12*
G04 #@! TD*
G04 #@! TO.P,D2,2*
G04 #@! TO.N,BAT-*
X168021000Y-111125000D03*
D10*
G04 #@! TO.N,BAT-PROT+*
G04 #@! TO.C,D2*
G36*
X168298691Y-112263553D02*
X168319926Y-112266703D01*
X168340750Y-112271919D01*
X168360962Y-112279151D01*
X168380368Y-112288330D01*
X168398781Y-112299366D01*
X168416024Y-112312154D01*
X168431930Y-112326570D01*
X168446346Y-112342476D01*
X168459134Y-112359719D01*
X168470170Y-112378132D01*
X168479349Y-112397538D01*
X168486581Y-112417750D01*
X168491797Y-112438574D01*
X168494947Y-112459809D01*
X168496000Y-112481250D01*
X168496000Y-112918750D01*
X168494947Y-112940191D01*
X168491797Y-112961426D01*
X168486581Y-112982250D01*
X168479349Y-113002462D01*
X168470170Y-113021868D01*
X168459134Y-113040281D01*
X168446346Y-113057524D01*
X168431930Y-113073430D01*
X168416024Y-113087846D01*
X168398781Y-113100634D01*
X168380368Y-113111670D01*
X168360962Y-113120849D01*
X168340750Y-113128081D01*
X168319926Y-113133297D01*
X168298691Y-113136447D01*
X168277250Y-113137500D01*
X167764750Y-113137500D01*
X167743309Y-113136447D01*
X167722074Y-113133297D01*
X167701250Y-113128081D01*
X167681038Y-113120849D01*
X167661632Y-113111670D01*
X167643219Y-113100634D01*
X167625976Y-113087846D01*
X167610070Y-113073430D01*
X167595654Y-113057524D01*
X167582866Y-113040281D01*
X167571830Y-113021868D01*
X167562651Y-113002462D01*
X167555419Y-112982250D01*
X167550203Y-112961426D01*
X167547053Y-112940191D01*
X167546000Y-112918750D01*
X167546000Y-112481250D01*
X167547053Y-112459809D01*
X167550203Y-112438574D01*
X167555419Y-112417750D01*
X167562651Y-112397538D01*
X167571830Y-112378132D01*
X167582866Y-112359719D01*
X167595654Y-112342476D01*
X167610070Y-112326570D01*
X167625976Y-112312154D01*
X167643219Y-112299366D01*
X167661632Y-112288330D01*
X167681038Y-112279151D01*
X167701250Y-112271919D01*
X167722074Y-112266703D01*
X167743309Y-112263553D01*
X167764750Y-112262500D01*
X168277250Y-112262500D01*
X168298691Y-112263553D01*
X168298691Y-112263553D01*
G37*
D12*
G04 #@! TD*
G04 #@! TO.P,D2,1*
G04 #@! TO.N,BAT-PROT+*
X168021000Y-112700000D03*
D10*
G04 #@! TO.N,BAT-PROT+*
G04 #@! TO.C,C3*
G36*
X161476958Y-97010710D02*
X161491276Y-97012834D01*
X161505317Y-97016351D01*
X161518946Y-97021228D01*
X161532031Y-97027417D01*
X161544447Y-97034858D01*
X161556073Y-97043481D01*
X161566798Y-97053202D01*
X161576519Y-97063927D01*
X161585142Y-97075553D01*
X161592583Y-97087969D01*
X161598772Y-97101054D01*
X161603649Y-97114683D01*
X161607166Y-97128724D01*
X161609290Y-97143042D01*
X161610000Y-97157500D01*
X161610000Y-97452500D01*
X161609290Y-97466958D01*
X161607166Y-97481276D01*
X161603649Y-97495317D01*
X161598772Y-97508946D01*
X161592583Y-97522031D01*
X161585142Y-97534447D01*
X161576519Y-97546073D01*
X161566798Y-97556798D01*
X161556073Y-97566519D01*
X161544447Y-97575142D01*
X161532031Y-97582583D01*
X161518946Y-97588772D01*
X161505317Y-97593649D01*
X161491276Y-97597166D01*
X161476958Y-97599290D01*
X161462500Y-97600000D01*
X161117500Y-97600000D01*
X161103042Y-97599290D01*
X161088724Y-97597166D01*
X161074683Y-97593649D01*
X161061054Y-97588772D01*
X161047969Y-97582583D01*
X161035553Y-97575142D01*
X161023927Y-97566519D01*
X161013202Y-97556798D01*
X161003481Y-97546073D01*
X160994858Y-97534447D01*
X160987417Y-97522031D01*
X160981228Y-97508946D01*
X160976351Y-97495317D01*
X160972834Y-97481276D01*
X160970710Y-97466958D01*
X160970000Y-97452500D01*
X160970000Y-97157500D01*
X160970710Y-97143042D01*
X160972834Y-97128724D01*
X160976351Y-97114683D01*
X160981228Y-97101054D01*
X160987417Y-97087969D01*
X160994858Y-97075553D01*
X161003481Y-97063927D01*
X161013202Y-97053202D01*
X161023927Y-97043481D01*
X161035553Y-97034858D01*
X161047969Y-97027417D01*
X161061054Y-97021228D01*
X161074683Y-97016351D01*
X161088724Y-97012834D01*
X161103042Y-97010710D01*
X161117500Y-97010000D01*
X161462500Y-97010000D01*
X161476958Y-97010710D01*
X161476958Y-97010710D01*
G37*
D11*
G04 #@! TD*
G04 #@! TO.P,C3,1*
G04 #@! TO.N,BAT-PROT+*
X161290000Y-97305000D03*
D10*
G04 #@! TO.N,BAT-*
G04 #@! TO.C,C3*
G36*
X161476958Y-97980710D02*
X161491276Y-97982834D01*
X161505317Y-97986351D01*
X161518946Y-97991228D01*
X161532031Y-97997417D01*
X161544447Y-98004858D01*
X161556073Y-98013481D01*
X161566798Y-98023202D01*
X161576519Y-98033927D01*
X161585142Y-98045553D01*
X161592583Y-98057969D01*
X161598772Y-98071054D01*
X161603649Y-98084683D01*
X161607166Y-98098724D01*
X161609290Y-98113042D01*
X161610000Y-98127500D01*
X161610000Y-98422500D01*
X161609290Y-98436958D01*
X161607166Y-98451276D01*
X161603649Y-98465317D01*
X161598772Y-98478946D01*
X161592583Y-98492031D01*
X161585142Y-98504447D01*
X161576519Y-98516073D01*
X161566798Y-98526798D01*
X161556073Y-98536519D01*
X161544447Y-98545142D01*
X161532031Y-98552583D01*
X161518946Y-98558772D01*
X161505317Y-98563649D01*
X161491276Y-98567166D01*
X161476958Y-98569290D01*
X161462500Y-98570000D01*
X161117500Y-98570000D01*
X161103042Y-98569290D01*
X161088724Y-98567166D01*
X161074683Y-98563649D01*
X161061054Y-98558772D01*
X161047969Y-98552583D01*
X161035553Y-98545142D01*
X161023927Y-98536519D01*
X161013202Y-98526798D01*
X161003481Y-98516073D01*
X160994858Y-98504447D01*
X160987417Y-98492031D01*
X160981228Y-98478946D01*
X160976351Y-98465317D01*
X160972834Y-98451276D01*
X160970710Y-98436958D01*
X160970000Y-98422500D01*
X160970000Y-98127500D01*
X160970710Y-98113042D01*
X160972834Y-98098724D01*
X160976351Y-98084683D01*
X160981228Y-98071054D01*
X160987417Y-98057969D01*
X160994858Y-98045553D01*
X161003481Y-98033927D01*
X161013202Y-98023202D01*
X161023927Y-98013481D01*
X161035553Y-98004858D01*
X161047969Y-97997417D01*
X161061054Y-97991228D01*
X161074683Y-97986351D01*
X161088724Y-97982834D01*
X161103042Y-97980710D01*
X161117500Y-97980000D01*
X161462500Y-97980000D01*
X161476958Y-97980710D01*
X161476958Y-97980710D01*
G37*
D11*
G04 #@! TD*
G04 #@! TO.P,C3,2*
G04 #@! TO.N,BAT-*
X161290000Y-98275000D03*
D10*
G04 #@! TO.N,BAT-*
G04 #@! TO.C,C4*
G36*
X161476958Y-106050710D02*
X161491276Y-106052834D01*
X161505317Y-106056351D01*
X161518946Y-106061228D01*
X161532031Y-106067417D01*
X161544447Y-106074858D01*
X161556073Y-106083481D01*
X161566798Y-106093202D01*
X161576519Y-106103927D01*
X161585142Y-106115553D01*
X161592583Y-106127969D01*
X161598772Y-106141054D01*
X161603649Y-106154683D01*
X161607166Y-106168724D01*
X161609290Y-106183042D01*
X161610000Y-106197500D01*
X161610000Y-106492500D01*
X161609290Y-106506958D01*
X161607166Y-106521276D01*
X161603649Y-106535317D01*
X161598772Y-106548946D01*
X161592583Y-106562031D01*
X161585142Y-106574447D01*
X161576519Y-106586073D01*
X161566798Y-106596798D01*
X161556073Y-106606519D01*
X161544447Y-106615142D01*
X161532031Y-106622583D01*
X161518946Y-106628772D01*
X161505317Y-106633649D01*
X161491276Y-106637166D01*
X161476958Y-106639290D01*
X161462500Y-106640000D01*
X161117500Y-106640000D01*
X161103042Y-106639290D01*
X161088724Y-106637166D01*
X161074683Y-106633649D01*
X161061054Y-106628772D01*
X161047969Y-106622583D01*
X161035553Y-106615142D01*
X161023927Y-106606519D01*
X161013202Y-106596798D01*
X161003481Y-106586073D01*
X160994858Y-106574447D01*
X160987417Y-106562031D01*
X160981228Y-106548946D01*
X160976351Y-106535317D01*
X160972834Y-106521276D01*
X160970710Y-106506958D01*
X160970000Y-106492500D01*
X160970000Y-106197500D01*
X160970710Y-106183042D01*
X160972834Y-106168724D01*
X160976351Y-106154683D01*
X160981228Y-106141054D01*
X160987417Y-106127969D01*
X160994858Y-106115553D01*
X161003481Y-106103927D01*
X161013202Y-106093202D01*
X161023927Y-106083481D01*
X161035553Y-106074858D01*
X161047969Y-106067417D01*
X161061054Y-106061228D01*
X161074683Y-106056351D01*
X161088724Y-106052834D01*
X161103042Y-106050710D01*
X161117500Y-106050000D01*
X161462500Y-106050000D01*
X161476958Y-106050710D01*
X161476958Y-106050710D01*
G37*
D11*
G04 #@! TD*
G04 #@! TO.P,C4,2*
G04 #@! TO.N,BAT-*
X161290000Y-106345000D03*
D10*
G04 #@! TO.N,BAT-PROT+*
G04 #@! TO.C,C4*
G36*
X161476958Y-107020710D02*
X161491276Y-107022834D01*
X161505317Y-107026351D01*
X161518946Y-107031228D01*
X161532031Y-107037417D01*
X161544447Y-107044858D01*
X161556073Y-107053481D01*
X161566798Y-107063202D01*
X161576519Y-107073927D01*
X161585142Y-107085553D01*
X161592583Y-107097969D01*
X161598772Y-107111054D01*
X161603649Y-107124683D01*
X161607166Y-107138724D01*
X161609290Y-107153042D01*
X161610000Y-107167500D01*
X161610000Y-107462500D01*
X161609290Y-107476958D01*
X161607166Y-107491276D01*
X161603649Y-107505317D01*
X161598772Y-107518946D01*
X161592583Y-107532031D01*
X161585142Y-107544447D01*
X161576519Y-107556073D01*
X161566798Y-107566798D01*
X161556073Y-107576519D01*
X161544447Y-107585142D01*
X161532031Y-107592583D01*
X161518946Y-107598772D01*
X161505317Y-107603649D01*
X161491276Y-107607166D01*
X161476958Y-107609290D01*
X161462500Y-107610000D01*
X161117500Y-107610000D01*
X161103042Y-107609290D01*
X161088724Y-107607166D01*
X161074683Y-107603649D01*
X161061054Y-107598772D01*
X161047969Y-107592583D01*
X161035553Y-107585142D01*
X161023927Y-107576519D01*
X161013202Y-107566798D01*
X161003481Y-107556073D01*
X160994858Y-107544447D01*
X160987417Y-107532031D01*
X160981228Y-107518946D01*
X160976351Y-107505317D01*
X160972834Y-107491276D01*
X160970710Y-107476958D01*
X160970000Y-107462500D01*
X160970000Y-107167500D01*
X160970710Y-107153042D01*
X160972834Y-107138724D01*
X160976351Y-107124683D01*
X160981228Y-107111054D01*
X160987417Y-107097969D01*
X160994858Y-107085553D01*
X161003481Y-107073927D01*
X161013202Y-107063202D01*
X161023927Y-107053481D01*
X161035553Y-107044858D01*
X161047969Y-107037417D01*
X161061054Y-107031228D01*
X161074683Y-107026351D01*
X161088724Y-107022834D01*
X161103042Y-107020710D01*
X161117500Y-107020000D01*
X161462500Y-107020000D01*
X161476958Y-107020710D01*
X161476958Y-107020710D01*
G37*
D11*
G04 #@! TD*
G04 #@! TO.P,C4,1*
G04 #@! TO.N,BAT-PROT+*
X161290000Y-107315000D03*
D10*
G04 #@! TO.N,Net-(C11-Pad1)*
G04 #@! TO.C,C11*
G36*
X156671958Y-130490710D02*
X156686276Y-130492834D01*
X156700317Y-130496351D01*
X156713946Y-130501228D01*
X156727031Y-130507417D01*
X156739447Y-130514858D01*
X156751073Y-130523481D01*
X156761798Y-130533202D01*
X156771519Y-130543927D01*
X156780142Y-130555553D01*
X156787583Y-130567969D01*
X156793772Y-130581054D01*
X156798649Y-130594683D01*
X156802166Y-130608724D01*
X156804290Y-130623042D01*
X156805000Y-130637500D01*
X156805000Y-130982500D01*
X156804290Y-130996958D01*
X156802166Y-131011276D01*
X156798649Y-131025317D01*
X156793772Y-131038946D01*
X156787583Y-131052031D01*
X156780142Y-131064447D01*
X156771519Y-131076073D01*
X156761798Y-131086798D01*
X156751073Y-131096519D01*
X156739447Y-131105142D01*
X156727031Y-131112583D01*
X156713946Y-131118772D01*
X156700317Y-131123649D01*
X156686276Y-131127166D01*
X156671958Y-131129290D01*
X156657500Y-131130000D01*
X156362500Y-131130000D01*
X156348042Y-131129290D01*
X156333724Y-131127166D01*
X156319683Y-131123649D01*
X156306054Y-131118772D01*
X156292969Y-131112583D01*
X156280553Y-131105142D01*
X156268927Y-131096519D01*
X156258202Y-131086798D01*
X156248481Y-131076073D01*
X156239858Y-131064447D01*
X156232417Y-131052031D01*
X156226228Y-131038946D01*
X156221351Y-131025317D01*
X156217834Y-131011276D01*
X156215710Y-130996958D01*
X156215000Y-130982500D01*
X156215000Y-130637500D01*
X156215710Y-130623042D01*
X156217834Y-130608724D01*
X156221351Y-130594683D01*
X156226228Y-130581054D01*
X156232417Y-130567969D01*
X156239858Y-130555553D01*
X156248481Y-130543927D01*
X156258202Y-130533202D01*
X156268927Y-130523481D01*
X156280553Y-130514858D01*
X156292969Y-130507417D01*
X156306054Y-130501228D01*
X156319683Y-130496351D01*
X156333724Y-130492834D01*
X156348042Y-130490710D01*
X156362500Y-130490000D01*
X156657500Y-130490000D01*
X156671958Y-130490710D01*
X156671958Y-130490710D01*
G37*
D11*
G04 #@! TD*
G04 #@! TO.P,C11,1*
G04 #@! TO.N,Net-(C11-Pad1)*
X156510000Y-130810000D03*
D10*
G04 #@! TO.N,BAT-*
G04 #@! TO.C,C11*
G36*
X157641958Y-130490710D02*
X157656276Y-130492834D01*
X157670317Y-130496351D01*
X157683946Y-130501228D01*
X157697031Y-130507417D01*
X157709447Y-130514858D01*
X157721073Y-130523481D01*
X157731798Y-130533202D01*
X157741519Y-130543927D01*
X157750142Y-130555553D01*
X157757583Y-130567969D01*
X157763772Y-130581054D01*
X157768649Y-130594683D01*
X157772166Y-130608724D01*
X157774290Y-130623042D01*
X157775000Y-130637500D01*
X157775000Y-130982500D01*
X157774290Y-130996958D01*
X157772166Y-131011276D01*
X157768649Y-131025317D01*
X157763772Y-131038946D01*
X157757583Y-131052031D01*
X157750142Y-131064447D01*
X157741519Y-131076073D01*
X157731798Y-131086798D01*
X157721073Y-131096519D01*
X157709447Y-131105142D01*
X157697031Y-131112583D01*
X157683946Y-131118772D01*
X157670317Y-131123649D01*
X157656276Y-131127166D01*
X157641958Y-131129290D01*
X157627500Y-131130000D01*
X157332500Y-131130000D01*
X157318042Y-131129290D01*
X157303724Y-131127166D01*
X157289683Y-131123649D01*
X157276054Y-131118772D01*
X157262969Y-131112583D01*
X157250553Y-131105142D01*
X157238927Y-131096519D01*
X157228202Y-131086798D01*
X157218481Y-131076073D01*
X157209858Y-131064447D01*
X157202417Y-131052031D01*
X157196228Y-131038946D01*
X157191351Y-131025317D01*
X157187834Y-131011276D01*
X157185710Y-130996958D01*
X157185000Y-130982500D01*
X157185000Y-130637500D01*
X157185710Y-130623042D01*
X157187834Y-130608724D01*
X157191351Y-130594683D01*
X157196228Y-130581054D01*
X157202417Y-130567969D01*
X157209858Y-130555553D01*
X157218481Y-130543927D01*
X157228202Y-130533202D01*
X157238927Y-130523481D01*
X157250553Y-130514858D01*
X157262969Y-130507417D01*
X157276054Y-130501228D01*
X157289683Y-130496351D01*
X157303724Y-130492834D01*
X157318042Y-130490710D01*
X157332500Y-130490000D01*
X157627500Y-130490000D01*
X157641958Y-130490710D01*
X157641958Y-130490710D01*
G37*
D11*
G04 #@! TD*
G04 #@! TO.P,C11,2*
G04 #@! TO.N,BAT-*
X157480000Y-130810000D03*
D10*
G04 #@! TO.N,Net-(C11-Pad1)*
G04 #@! TO.C,R2*
G36*
X154951958Y-127950710D02*
X154966276Y-127952834D01*
X154980317Y-127956351D01*
X154993946Y-127961228D01*
X155007031Y-127967417D01*
X155019447Y-127974858D01*
X155031073Y-127983481D01*
X155041798Y-127993202D01*
X155051519Y-128003927D01*
X155060142Y-128015553D01*
X155067583Y-128027969D01*
X155073772Y-128041054D01*
X155078649Y-128054683D01*
X155082166Y-128068724D01*
X155084290Y-128083042D01*
X155085000Y-128097500D01*
X155085000Y-128442500D01*
X155084290Y-128456958D01*
X155082166Y-128471276D01*
X155078649Y-128485317D01*
X155073772Y-128498946D01*
X155067583Y-128512031D01*
X155060142Y-128524447D01*
X155051519Y-128536073D01*
X155041798Y-128546798D01*
X155031073Y-128556519D01*
X155019447Y-128565142D01*
X155007031Y-128572583D01*
X154993946Y-128578772D01*
X154980317Y-128583649D01*
X154966276Y-128587166D01*
X154951958Y-128589290D01*
X154937500Y-128590000D01*
X154642500Y-128590000D01*
X154628042Y-128589290D01*
X154613724Y-128587166D01*
X154599683Y-128583649D01*
X154586054Y-128578772D01*
X154572969Y-128572583D01*
X154560553Y-128565142D01*
X154548927Y-128556519D01*
X154538202Y-128546798D01*
X154528481Y-128536073D01*
X154519858Y-128524447D01*
X154512417Y-128512031D01*
X154506228Y-128498946D01*
X154501351Y-128485317D01*
X154497834Y-128471276D01*
X154495710Y-128456958D01*
X154495000Y-128442500D01*
X154495000Y-128097500D01*
X154495710Y-128083042D01*
X154497834Y-128068724D01*
X154501351Y-128054683D01*
X154506228Y-128041054D01*
X154512417Y-128027969D01*
X154519858Y-128015553D01*
X154528481Y-128003927D01*
X154538202Y-127993202D01*
X154548927Y-127983481D01*
X154560553Y-127974858D01*
X154572969Y-127967417D01*
X154586054Y-127961228D01*
X154599683Y-127956351D01*
X154613724Y-127952834D01*
X154628042Y-127950710D01*
X154642500Y-127950000D01*
X154937500Y-127950000D01*
X154951958Y-127950710D01*
X154951958Y-127950710D01*
G37*
D11*
G04 #@! TD*
G04 #@! TO.P,R2,2*
G04 #@! TO.N,Net-(C11-Pad1)*
X154790000Y-128270000D03*
D10*
G04 #@! TO.N,+3V3*
G04 #@! TO.C,R2*
G36*
X153981958Y-127950710D02*
X153996276Y-127952834D01*
X154010317Y-127956351D01*
X154023946Y-127961228D01*
X154037031Y-127967417D01*
X154049447Y-127974858D01*
X154061073Y-127983481D01*
X154071798Y-127993202D01*
X154081519Y-128003927D01*
X154090142Y-128015553D01*
X154097583Y-128027969D01*
X154103772Y-128041054D01*
X154108649Y-128054683D01*
X154112166Y-128068724D01*
X154114290Y-128083042D01*
X154115000Y-128097500D01*
X154115000Y-128442500D01*
X154114290Y-128456958D01*
X154112166Y-128471276D01*
X154108649Y-128485317D01*
X154103772Y-128498946D01*
X154097583Y-128512031D01*
X154090142Y-128524447D01*
X154081519Y-128536073D01*
X154071798Y-128546798D01*
X154061073Y-128556519D01*
X154049447Y-128565142D01*
X154037031Y-128572583D01*
X154023946Y-128578772D01*
X154010317Y-128583649D01*
X153996276Y-128587166D01*
X153981958Y-128589290D01*
X153967500Y-128590000D01*
X153672500Y-128590000D01*
X153658042Y-128589290D01*
X153643724Y-128587166D01*
X153629683Y-128583649D01*
X153616054Y-128578772D01*
X153602969Y-128572583D01*
X153590553Y-128565142D01*
X153578927Y-128556519D01*
X153568202Y-128546798D01*
X153558481Y-128536073D01*
X153549858Y-128524447D01*
X153542417Y-128512031D01*
X153536228Y-128498946D01*
X153531351Y-128485317D01*
X153527834Y-128471276D01*
X153525710Y-128456958D01*
X153525000Y-128442500D01*
X153525000Y-128097500D01*
X153525710Y-128083042D01*
X153527834Y-128068724D01*
X153531351Y-128054683D01*
X153536228Y-128041054D01*
X153542417Y-128027969D01*
X153549858Y-128015553D01*
X153558481Y-128003927D01*
X153568202Y-127993202D01*
X153578927Y-127983481D01*
X153590553Y-127974858D01*
X153602969Y-127967417D01*
X153616054Y-127961228D01*
X153629683Y-127956351D01*
X153643724Y-127952834D01*
X153658042Y-127950710D01*
X153672500Y-127950000D01*
X153967500Y-127950000D01*
X153981958Y-127950710D01*
X153981958Y-127950710D01*
G37*
D11*
G04 #@! TD*
G04 #@! TO.P,R2,1*
G04 #@! TO.N,+3V3*
X153820000Y-128270000D03*
D10*
G04 #@! TO.N,MCLR*
G04 #@! TO.C,R3*
G36*
X153981958Y-130490710D02*
X153996276Y-130492834D01*
X154010317Y-130496351D01*
X154023946Y-130501228D01*
X154037031Y-130507417D01*
X154049447Y-130514858D01*
X154061073Y-130523481D01*
X154071798Y-130533202D01*
X154081519Y-130543927D01*
X154090142Y-130555553D01*
X154097583Y-130567969D01*
X154103772Y-130581054D01*
X154108649Y-130594683D01*
X154112166Y-130608724D01*
X154114290Y-130623042D01*
X154115000Y-130637500D01*
X154115000Y-130982500D01*
X154114290Y-130996958D01*
X154112166Y-131011276D01*
X154108649Y-131025317D01*
X154103772Y-131038946D01*
X154097583Y-131052031D01*
X154090142Y-131064447D01*
X154081519Y-131076073D01*
X154071798Y-131086798D01*
X154061073Y-131096519D01*
X154049447Y-131105142D01*
X154037031Y-131112583D01*
X154023946Y-131118772D01*
X154010317Y-131123649D01*
X153996276Y-131127166D01*
X153981958Y-131129290D01*
X153967500Y-131130000D01*
X153672500Y-131130000D01*
X153658042Y-131129290D01*
X153643724Y-131127166D01*
X153629683Y-131123649D01*
X153616054Y-131118772D01*
X153602969Y-131112583D01*
X153590553Y-131105142D01*
X153578927Y-131096519D01*
X153568202Y-131086798D01*
X153558481Y-131076073D01*
X153549858Y-131064447D01*
X153542417Y-131052031D01*
X153536228Y-131038946D01*
X153531351Y-131025317D01*
X153527834Y-131011276D01*
X153525710Y-130996958D01*
X153525000Y-130982500D01*
X153525000Y-130637500D01*
X153525710Y-130623042D01*
X153527834Y-130608724D01*
X153531351Y-130594683D01*
X153536228Y-130581054D01*
X153542417Y-130567969D01*
X153549858Y-130555553D01*
X153558481Y-130543927D01*
X153568202Y-130533202D01*
X153578927Y-130523481D01*
X153590553Y-130514858D01*
X153602969Y-130507417D01*
X153616054Y-130501228D01*
X153629683Y-130496351D01*
X153643724Y-130492834D01*
X153658042Y-130490710D01*
X153672500Y-130490000D01*
X153967500Y-130490000D01*
X153981958Y-130490710D01*
X153981958Y-130490710D01*
G37*
D11*
G04 #@! TD*
G04 #@! TO.P,R3,1*
G04 #@! TO.N,MCLR*
X153820000Y-130810000D03*
D10*
G04 #@! TO.N,Net-(C11-Pad1)*
G04 #@! TO.C,R3*
G36*
X154951958Y-130490710D02*
X154966276Y-130492834D01*
X154980317Y-130496351D01*
X154993946Y-130501228D01*
X155007031Y-130507417D01*
X155019447Y-130514858D01*
X155031073Y-130523481D01*
X155041798Y-130533202D01*
X155051519Y-130543927D01*
X155060142Y-130555553D01*
X155067583Y-130567969D01*
X155073772Y-130581054D01*
X155078649Y-130594683D01*
X155082166Y-130608724D01*
X155084290Y-130623042D01*
X155085000Y-130637500D01*
X155085000Y-130982500D01*
X155084290Y-130996958D01*
X155082166Y-131011276D01*
X155078649Y-131025317D01*
X155073772Y-131038946D01*
X155067583Y-131052031D01*
X155060142Y-131064447D01*
X155051519Y-131076073D01*
X155041798Y-131086798D01*
X155031073Y-131096519D01*
X155019447Y-131105142D01*
X155007031Y-131112583D01*
X154993946Y-131118772D01*
X154980317Y-131123649D01*
X154966276Y-131127166D01*
X154951958Y-131129290D01*
X154937500Y-131130000D01*
X154642500Y-131130000D01*
X154628042Y-131129290D01*
X154613724Y-131127166D01*
X154599683Y-131123649D01*
X154586054Y-131118772D01*
X154572969Y-131112583D01*
X154560553Y-131105142D01*
X154548927Y-131096519D01*
X154538202Y-131086798D01*
X154528481Y-131076073D01*
X154519858Y-131064447D01*
X154512417Y-131052031D01*
X154506228Y-131038946D01*
X154501351Y-131025317D01*
X154497834Y-131011276D01*
X154495710Y-130996958D01*
X154495000Y-130982500D01*
X154495000Y-130637500D01*
X154495710Y-130623042D01*
X154497834Y-130608724D01*
X154501351Y-130594683D01*
X154506228Y-130581054D01*
X154512417Y-130567969D01*
X154519858Y-130555553D01*
X154528481Y-130543927D01*
X154538202Y-130533202D01*
X154548927Y-130523481D01*
X154560553Y-130514858D01*
X154572969Y-130507417D01*
X154586054Y-130501228D01*
X154599683Y-130496351D01*
X154613724Y-130492834D01*
X154628042Y-130490710D01*
X154642500Y-130490000D01*
X154937500Y-130490000D01*
X154951958Y-130490710D01*
X154951958Y-130490710D01*
G37*
D11*
G04 #@! TD*
G04 #@! TO.P,R3,2*
G04 #@! TO.N,Net-(C11-Pad1)*
X154790000Y-130810000D03*
D10*
G04 #@! TO.N,BAT-PROT+*
G04 #@! TO.C,C9*
G36*
X152815958Y-116266710D02*
X152830276Y-116268834D01*
X152844317Y-116272351D01*
X152857946Y-116277228D01*
X152871031Y-116283417D01*
X152883447Y-116290858D01*
X152895073Y-116299481D01*
X152905798Y-116309202D01*
X152915519Y-116319927D01*
X152924142Y-116331553D01*
X152931583Y-116343969D01*
X152937772Y-116357054D01*
X152942649Y-116370683D01*
X152946166Y-116384724D01*
X152948290Y-116399042D01*
X152949000Y-116413500D01*
X152949000Y-116758500D01*
X152948290Y-116772958D01*
X152946166Y-116787276D01*
X152942649Y-116801317D01*
X152937772Y-116814946D01*
X152931583Y-116828031D01*
X152924142Y-116840447D01*
X152915519Y-116852073D01*
X152905798Y-116862798D01*
X152895073Y-116872519D01*
X152883447Y-116881142D01*
X152871031Y-116888583D01*
X152857946Y-116894772D01*
X152844317Y-116899649D01*
X152830276Y-116903166D01*
X152815958Y-116905290D01*
X152801500Y-116906000D01*
X152506500Y-116906000D01*
X152492042Y-116905290D01*
X152477724Y-116903166D01*
X152463683Y-116899649D01*
X152450054Y-116894772D01*
X152436969Y-116888583D01*
X152424553Y-116881142D01*
X152412927Y-116872519D01*
X152402202Y-116862798D01*
X152392481Y-116852073D01*
X152383858Y-116840447D01*
X152376417Y-116828031D01*
X152370228Y-116814946D01*
X152365351Y-116801317D01*
X152361834Y-116787276D01*
X152359710Y-116772958D01*
X152359000Y-116758500D01*
X152359000Y-116413500D01*
X152359710Y-116399042D01*
X152361834Y-116384724D01*
X152365351Y-116370683D01*
X152370228Y-116357054D01*
X152376417Y-116343969D01*
X152383858Y-116331553D01*
X152392481Y-116319927D01*
X152402202Y-116309202D01*
X152412927Y-116299481D01*
X152424553Y-116290858D01*
X152436969Y-116283417D01*
X152450054Y-116277228D01*
X152463683Y-116272351D01*
X152477724Y-116268834D01*
X152492042Y-116266710D01*
X152506500Y-116266000D01*
X152801500Y-116266000D01*
X152815958Y-116266710D01*
X152815958Y-116266710D01*
G37*
D11*
G04 #@! TD*
G04 #@! TO.P,C9,1*
G04 #@! TO.N,BAT-PROT+*
X152654000Y-116586000D03*
D10*
G04 #@! TO.N,BAT-*
G04 #@! TO.C,C9*
G36*
X153785958Y-116266710D02*
X153800276Y-116268834D01*
X153814317Y-116272351D01*
X153827946Y-116277228D01*
X153841031Y-116283417D01*
X153853447Y-116290858D01*
X153865073Y-116299481D01*
X153875798Y-116309202D01*
X153885519Y-116319927D01*
X153894142Y-116331553D01*
X153901583Y-116343969D01*
X153907772Y-116357054D01*
X153912649Y-116370683D01*
X153916166Y-116384724D01*
X153918290Y-116399042D01*
X153919000Y-116413500D01*
X153919000Y-116758500D01*
X153918290Y-116772958D01*
X153916166Y-116787276D01*
X153912649Y-116801317D01*
X153907772Y-116814946D01*
X153901583Y-116828031D01*
X153894142Y-116840447D01*
X153885519Y-116852073D01*
X153875798Y-116862798D01*
X153865073Y-116872519D01*
X153853447Y-116881142D01*
X153841031Y-116888583D01*
X153827946Y-116894772D01*
X153814317Y-116899649D01*
X153800276Y-116903166D01*
X153785958Y-116905290D01*
X153771500Y-116906000D01*
X153476500Y-116906000D01*
X153462042Y-116905290D01*
X153447724Y-116903166D01*
X153433683Y-116899649D01*
X153420054Y-116894772D01*
X153406969Y-116888583D01*
X153394553Y-116881142D01*
X153382927Y-116872519D01*
X153372202Y-116862798D01*
X153362481Y-116852073D01*
X153353858Y-116840447D01*
X153346417Y-116828031D01*
X153340228Y-116814946D01*
X153335351Y-116801317D01*
X153331834Y-116787276D01*
X153329710Y-116772958D01*
X153329000Y-116758500D01*
X153329000Y-116413500D01*
X153329710Y-116399042D01*
X153331834Y-116384724D01*
X153335351Y-116370683D01*
X153340228Y-116357054D01*
X153346417Y-116343969D01*
X153353858Y-116331553D01*
X153362481Y-116319927D01*
X153372202Y-116309202D01*
X153382927Y-116299481D01*
X153394553Y-116290858D01*
X153406969Y-116283417D01*
X153420054Y-116277228D01*
X153433683Y-116272351D01*
X153447724Y-116268834D01*
X153462042Y-116266710D01*
X153476500Y-116266000D01*
X153771500Y-116266000D01*
X153785958Y-116266710D01*
X153785958Y-116266710D01*
G37*
D11*
G04 #@! TD*
G04 #@! TO.P,C9,2*
G04 #@! TO.N,BAT-*
X153624000Y-116586000D03*
D10*
G04 #@! TO.N,+5V*
G04 #@! TO.C,C10*
G36*
X153148191Y-106460053D02*
X153169426Y-106463203D01*
X153190250Y-106468419D01*
X153210462Y-106475651D01*
X153229868Y-106484830D01*
X153248281Y-106495866D01*
X153265524Y-106508654D01*
X153281430Y-106523070D01*
X153295846Y-106538976D01*
X153308634Y-106556219D01*
X153319670Y-106574632D01*
X153328849Y-106594038D01*
X153336081Y-106614250D01*
X153341297Y-106635074D01*
X153344447Y-106656309D01*
X153345500Y-106677750D01*
X153345500Y-107190250D01*
X153344447Y-107211691D01*
X153341297Y-107232926D01*
X153336081Y-107253750D01*
X153328849Y-107273962D01*
X153319670Y-107293368D01*
X153308634Y-107311781D01*
X153295846Y-107329024D01*
X153281430Y-107344930D01*
X153265524Y-107359346D01*
X153248281Y-107372134D01*
X153229868Y-107383170D01*
X153210462Y-107392349D01*
X153190250Y-107399581D01*
X153169426Y-107404797D01*
X153148191Y-107407947D01*
X153126750Y-107409000D01*
X152689250Y-107409000D01*
X152667809Y-107407947D01*
X152646574Y-107404797D01*
X152625750Y-107399581D01*
X152605538Y-107392349D01*
X152586132Y-107383170D01*
X152567719Y-107372134D01*
X152550476Y-107359346D01*
X152534570Y-107344930D01*
X152520154Y-107329024D01*
X152507366Y-107311781D01*
X152496330Y-107293368D01*
X152487151Y-107273962D01*
X152479919Y-107253750D01*
X152474703Y-107232926D01*
X152471553Y-107211691D01*
X152470500Y-107190250D01*
X152470500Y-106677750D01*
X152471553Y-106656309D01*
X152474703Y-106635074D01*
X152479919Y-106614250D01*
X152487151Y-106594038D01*
X152496330Y-106574632D01*
X152507366Y-106556219D01*
X152520154Y-106538976D01*
X152534570Y-106523070D01*
X152550476Y-106508654D01*
X152567719Y-106495866D01*
X152586132Y-106484830D01*
X152605538Y-106475651D01*
X152625750Y-106468419D01*
X152646574Y-106463203D01*
X152667809Y-106460053D01*
X152689250Y-106459000D01*
X153126750Y-106459000D01*
X153148191Y-106460053D01*
X153148191Y-106460053D01*
G37*
D12*
G04 #@! TD*
G04 #@! TO.P,C10,1*
G04 #@! TO.N,+5V*
X152908000Y-106934000D03*
D10*
G04 #@! TO.N,BAT-*
G04 #@! TO.C,C10*
G36*
X151573191Y-106460053D02*
X151594426Y-106463203D01*
X151615250Y-106468419D01*
X151635462Y-106475651D01*
X151654868Y-106484830D01*
X151673281Y-106495866D01*
X151690524Y-106508654D01*
X151706430Y-106523070D01*
X151720846Y-106538976D01*
X151733634Y-106556219D01*
X151744670Y-106574632D01*
X151753849Y-106594038D01*
X151761081Y-106614250D01*
X151766297Y-106635074D01*
X151769447Y-106656309D01*
X151770500Y-106677750D01*
X151770500Y-107190250D01*
X151769447Y-107211691D01*
X151766297Y-107232926D01*
X151761081Y-107253750D01*
X151753849Y-107273962D01*
X151744670Y-107293368D01*
X151733634Y-107311781D01*
X151720846Y-107329024D01*
X151706430Y-107344930D01*
X151690524Y-107359346D01*
X151673281Y-107372134D01*
X151654868Y-107383170D01*
X151635462Y-107392349D01*
X151615250Y-107399581D01*
X151594426Y-107404797D01*
X151573191Y-107407947D01*
X151551750Y-107409000D01*
X151114250Y-107409000D01*
X151092809Y-107407947D01*
X151071574Y-107404797D01*
X151050750Y-107399581D01*
X151030538Y-107392349D01*
X151011132Y-107383170D01*
X150992719Y-107372134D01*
X150975476Y-107359346D01*
X150959570Y-107344930D01*
X150945154Y-107329024D01*
X150932366Y-107311781D01*
X150921330Y-107293368D01*
X150912151Y-107273962D01*
X150904919Y-107253750D01*
X150899703Y-107232926D01*
X150896553Y-107211691D01*
X150895500Y-107190250D01*
X150895500Y-106677750D01*
X150896553Y-106656309D01*
X150899703Y-106635074D01*
X150904919Y-106614250D01*
X150912151Y-106594038D01*
X150921330Y-106574632D01*
X150932366Y-106556219D01*
X150945154Y-106538976D01*
X150959570Y-106523070D01*
X150975476Y-106508654D01*
X150992719Y-106495866D01*
X151011132Y-106484830D01*
X151030538Y-106475651D01*
X151050750Y-106468419D01*
X151071574Y-106463203D01*
X151092809Y-106460053D01*
X151114250Y-106459000D01*
X151551750Y-106459000D01*
X151573191Y-106460053D01*
X151573191Y-106460053D01*
G37*
D12*
G04 #@! TD*
G04 #@! TO.P,C10,2*
G04 #@! TO.N,BAT-*
X151333000Y-106934000D03*
D10*
G04 #@! TO.N,OUT4*
G04 #@! TO.C,C6*
G36*
X165070191Y-103666053D02*
X165091426Y-103669203D01*
X165112250Y-103674419D01*
X165132462Y-103681651D01*
X165151868Y-103690830D01*
X165170281Y-103701866D01*
X165187524Y-103714654D01*
X165203430Y-103729070D01*
X165217846Y-103744976D01*
X165230634Y-103762219D01*
X165241670Y-103780632D01*
X165250849Y-103800038D01*
X165258081Y-103820250D01*
X165263297Y-103841074D01*
X165266447Y-103862309D01*
X165267500Y-103883750D01*
X165267500Y-104396250D01*
X165266447Y-104417691D01*
X165263297Y-104438926D01*
X165258081Y-104459750D01*
X165250849Y-104479962D01*
X165241670Y-104499368D01*
X165230634Y-104517781D01*
X165217846Y-104535024D01*
X165203430Y-104550930D01*
X165187524Y-104565346D01*
X165170281Y-104578134D01*
X165151868Y-104589170D01*
X165132462Y-104598349D01*
X165112250Y-104605581D01*
X165091426Y-104610797D01*
X165070191Y-104613947D01*
X165048750Y-104615000D01*
X164611250Y-104615000D01*
X164589809Y-104613947D01*
X164568574Y-104610797D01*
X164547750Y-104605581D01*
X164527538Y-104598349D01*
X164508132Y-104589170D01*
X164489719Y-104578134D01*
X164472476Y-104565346D01*
X164456570Y-104550930D01*
X164442154Y-104535024D01*
X164429366Y-104517781D01*
X164418330Y-104499368D01*
X164409151Y-104479962D01*
X164401919Y-104459750D01*
X164396703Y-104438926D01*
X164393553Y-104417691D01*
X164392500Y-104396250D01*
X164392500Y-103883750D01*
X164393553Y-103862309D01*
X164396703Y-103841074D01*
X164401919Y-103820250D01*
X164409151Y-103800038D01*
X164418330Y-103780632D01*
X164429366Y-103762219D01*
X164442154Y-103744976D01*
X164456570Y-103729070D01*
X164472476Y-103714654D01*
X164489719Y-103701866D01*
X164508132Y-103690830D01*
X164527538Y-103681651D01*
X164547750Y-103674419D01*
X164568574Y-103669203D01*
X164589809Y-103666053D01*
X164611250Y-103665000D01*
X165048750Y-103665000D01*
X165070191Y-103666053D01*
X165070191Y-103666053D01*
G37*
D12*
G04 #@! TD*
G04 #@! TO.P,C6,1*
G04 #@! TO.N,OUT4*
X164830000Y-104140000D03*
D10*
G04 #@! TO.N,BAT-*
G04 #@! TO.C,C6*
G36*
X163495191Y-103666053D02*
X163516426Y-103669203D01*
X163537250Y-103674419D01*
X163557462Y-103681651D01*
X163576868Y-103690830D01*
X163595281Y-103701866D01*
X163612524Y-103714654D01*
X163628430Y-103729070D01*
X163642846Y-103744976D01*
X163655634Y-103762219D01*
X163666670Y-103780632D01*
X163675849Y-103800038D01*
X163683081Y-103820250D01*
X163688297Y-103841074D01*
X163691447Y-103862309D01*
X163692500Y-103883750D01*
X163692500Y-104396250D01*
X163691447Y-104417691D01*
X163688297Y-104438926D01*
X163683081Y-104459750D01*
X163675849Y-104479962D01*
X163666670Y-104499368D01*
X163655634Y-104517781D01*
X163642846Y-104535024D01*
X163628430Y-104550930D01*
X163612524Y-104565346D01*
X163595281Y-104578134D01*
X163576868Y-104589170D01*
X163557462Y-104598349D01*
X163537250Y-104605581D01*
X163516426Y-104610797D01*
X163495191Y-104613947D01*
X163473750Y-104615000D01*
X163036250Y-104615000D01*
X163014809Y-104613947D01*
X162993574Y-104610797D01*
X162972750Y-104605581D01*
X162952538Y-104598349D01*
X162933132Y-104589170D01*
X162914719Y-104578134D01*
X162897476Y-104565346D01*
X162881570Y-104550930D01*
X162867154Y-104535024D01*
X162854366Y-104517781D01*
X162843330Y-104499368D01*
X162834151Y-104479962D01*
X162826919Y-104459750D01*
X162821703Y-104438926D01*
X162818553Y-104417691D01*
X162817500Y-104396250D01*
X162817500Y-103883750D01*
X162818553Y-103862309D01*
X162821703Y-103841074D01*
X162826919Y-103820250D01*
X162834151Y-103800038D01*
X162843330Y-103780632D01*
X162854366Y-103762219D01*
X162867154Y-103744976D01*
X162881570Y-103729070D01*
X162897476Y-103714654D01*
X162914719Y-103701866D01*
X162933132Y-103690830D01*
X162952538Y-103681651D01*
X162972750Y-103674419D01*
X162993574Y-103669203D01*
X163014809Y-103666053D01*
X163036250Y-103665000D01*
X163473750Y-103665000D01*
X163495191Y-103666053D01*
X163495191Y-103666053D01*
G37*
D12*
G04 #@! TD*
G04 #@! TO.P,C6,2*
G04 #@! TO.N,BAT-*
X163255000Y-104140000D03*
D10*
G04 #@! TO.N,BAT-*
G04 #@! TO.C,C8*
G36*
X163562191Y-106079053D02*
X163583426Y-106082203D01*
X163604250Y-106087419D01*
X163624462Y-106094651D01*
X163643868Y-106103830D01*
X163662281Y-106114866D01*
X163679524Y-106127654D01*
X163695430Y-106142070D01*
X163709846Y-106157976D01*
X163722634Y-106175219D01*
X163733670Y-106193632D01*
X163742849Y-106213038D01*
X163750081Y-106233250D01*
X163755297Y-106254074D01*
X163758447Y-106275309D01*
X163759500Y-106296750D01*
X163759500Y-106809250D01*
X163758447Y-106830691D01*
X163755297Y-106851926D01*
X163750081Y-106872750D01*
X163742849Y-106892962D01*
X163733670Y-106912368D01*
X163722634Y-106930781D01*
X163709846Y-106948024D01*
X163695430Y-106963930D01*
X163679524Y-106978346D01*
X163662281Y-106991134D01*
X163643868Y-107002170D01*
X163624462Y-107011349D01*
X163604250Y-107018581D01*
X163583426Y-107023797D01*
X163562191Y-107026947D01*
X163540750Y-107028000D01*
X163103250Y-107028000D01*
X163081809Y-107026947D01*
X163060574Y-107023797D01*
X163039750Y-107018581D01*
X163019538Y-107011349D01*
X163000132Y-107002170D01*
X162981719Y-106991134D01*
X162964476Y-106978346D01*
X162948570Y-106963930D01*
X162934154Y-106948024D01*
X162921366Y-106930781D01*
X162910330Y-106912368D01*
X162901151Y-106892962D01*
X162893919Y-106872750D01*
X162888703Y-106851926D01*
X162885553Y-106830691D01*
X162884500Y-106809250D01*
X162884500Y-106296750D01*
X162885553Y-106275309D01*
X162888703Y-106254074D01*
X162893919Y-106233250D01*
X162901151Y-106213038D01*
X162910330Y-106193632D01*
X162921366Y-106175219D01*
X162934154Y-106157976D01*
X162948570Y-106142070D01*
X162964476Y-106127654D01*
X162981719Y-106114866D01*
X163000132Y-106103830D01*
X163019538Y-106094651D01*
X163039750Y-106087419D01*
X163060574Y-106082203D01*
X163081809Y-106079053D01*
X163103250Y-106078000D01*
X163540750Y-106078000D01*
X163562191Y-106079053D01*
X163562191Y-106079053D01*
G37*
D12*
G04 #@! TD*
G04 #@! TO.P,C8,2*
G04 #@! TO.N,BAT-*
X163322000Y-106553000D03*
D10*
G04 #@! TO.N,OUT3*
G04 #@! TO.C,C8*
G36*
X165137191Y-106079053D02*
X165158426Y-106082203D01*
X165179250Y-106087419D01*
X165199462Y-106094651D01*
X165218868Y-106103830D01*
X165237281Y-106114866D01*
X165254524Y-106127654D01*
X165270430Y-106142070D01*
X165284846Y-106157976D01*
X165297634Y-106175219D01*
X165308670Y-106193632D01*
X165317849Y-106213038D01*
X165325081Y-106233250D01*
X165330297Y-106254074D01*
X165333447Y-106275309D01*
X165334500Y-106296750D01*
X165334500Y-106809250D01*
X165333447Y-106830691D01*
X165330297Y-106851926D01*
X165325081Y-106872750D01*
X165317849Y-106892962D01*
X165308670Y-106912368D01*
X165297634Y-106930781D01*
X165284846Y-106948024D01*
X165270430Y-106963930D01*
X165254524Y-106978346D01*
X165237281Y-106991134D01*
X165218868Y-107002170D01*
X165199462Y-107011349D01*
X165179250Y-107018581D01*
X165158426Y-107023797D01*
X165137191Y-107026947D01*
X165115750Y-107028000D01*
X164678250Y-107028000D01*
X164656809Y-107026947D01*
X164635574Y-107023797D01*
X164614750Y-107018581D01*
X164594538Y-107011349D01*
X164575132Y-107002170D01*
X164556719Y-106991134D01*
X164539476Y-106978346D01*
X164523570Y-106963930D01*
X164509154Y-106948024D01*
X164496366Y-106930781D01*
X164485330Y-106912368D01*
X164476151Y-106892962D01*
X164468919Y-106872750D01*
X164463703Y-106851926D01*
X164460553Y-106830691D01*
X164459500Y-106809250D01*
X164459500Y-106296750D01*
X164460553Y-106275309D01*
X164463703Y-106254074D01*
X164468919Y-106233250D01*
X164476151Y-106213038D01*
X164485330Y-106193632D01*
X164496366Y-106175219D01*
X164509154Y-106157976D01*
X164523570Y-106142070D01*
X164539476Y-106127654D01*
X164556719Y-106114866D01*
X164575132Y-106103830D01*
X164594538Y-106094651D01*
X164614750Y-106087419D01*
X164635574Y-106082203D01*
X164656809Y-106079053D01*
X164678250Y-106078000D01*
X165115750Y-106078000D01*
X165137191Y-106079053D01*
X165137191Y-106079053D01*
G37*
D12*
G04 #@! TD*
G04 #@! TO.P,C8,1*
G04 #@! TO.N,OUT3*
X164897000Y-106553000D03*
D10*
G04 #@! TO.N,OUT2*
G04 #@! TO.C,C5*
G36*
X165111691Y-97316053D02*
X165132926Y-97319203D01*
X165153750Y-97324419D01*
X165173962Y-97331651D01*
X165193368Y-97340830D01*
X165211781Y-97351866D01*
X165229024Y-97364654D01*
X165244930Y-97379070D01*
X165259346Y-97394976D01*
X165272134Y-97412219D01*
X165283170Y-97430632D01*
X165292349Y-97450038D01*
X165299581Y-97470250D01*
X165304797Y-97491074D01*
X165307947Y-97512309D01*
X165309000Y-97533750D01*
X165309000Y-98046250D01*
X165307947Y-98067691D01*
X165304797Y-98088926D01*
X165299581Y-98109750D01*
X165292349Y-98129962D01*
X165283170Y-98149368D01*
X165272134Y-98167781D01*
X165259346Y-98185024D01*
X165244930Y-98200930D01*
X165229024Y-98215346D01*
X165211781Y-98228134D01*
X165193368Y-98239170D01*
X165173962Y-98248349D01*
X165153750Y-98255581D01*
X165132926Y-98260797D01*
X165111691Y-98263947D01*
X165090250Y-98265000D01*
X164652750Y-98265000D01*
X164631309Y-98263947D01*
X164610074Y-98260797D01*
X164589250Y-98255581D01*
X164569038Y-98248349D01*
X164549632Y-98239170D01*
X164531219Y-98228134D01*
X164513976Y-98215346D01*
X164498070Y-98200930D01*
X164483654Y-98185024D01*
X164470866Y-98167781D01*
X164459830Y-98149368D01*
X164450651Y-98129962D01*
X164443419Y-98109750D01*
X164438203Y-98088926D01*
X164435053Y-98067691D01*
X164434000Y-98046250D01*
X164434000Y-97533750D01*
X164435053Y-97512309D01*
X164438203Y-97491074D01*
X164443419Y-97470250D01*
X164450651Y-97450038D01*
X164459830Y-97430632D01*
X164470866Y-97412219D01*
X164483654Y-97394976D01*
X164498070Y-97379070D01*
X164513976Y-97364654D01*
X164531219Y-97351866D01*
X164549632Y-97340830D01*
X164569038Y-97331651D01*
X164589250Y-97324419D01*
X164610074Y-97319203D01*
X164631309Y-97316053D01*
X164652750Y-97315000D01*
X165090250Y-97315000D01*
X165111691Y-97316053D01*
X165111691Y-97316053D01*
G37*
D12*
G04 #@! TD*
G04 #@! TO.P,C5,1*
G04 #@! TO.N,OUT2*
X164871500Y-97790000D03*
D10*
G04 #@! TO.N,BAT-*
G04 #@! TO.C,C5*
G36*
X163536691Y-97316053D02*
X163557926Y-97319203D01*
X163578750Y-97324419D01*
X163598962Y-97331651D01*
X163618368Y-97340830D01*
X163636781Y-97351866D01*
X163654024Y-97364654D01*
X163669930Y-97379070D01*
X163684346Y-97394976D01*
X163697134Y-97412219D01*
X163708170Y-97430632D01*
X163717349Y-97450038D01*
X163724581Y-97470250D01*
X163729797Y-97491074D01*
X163732947Y-97512309D01*
X163734000Y-97533750D01*
X163734000Y-98046250D01*
X163732947Y-98067691D01*
X163729797Y-98088926D01*
X163724581Y-98109750D01*
X163717349Y-98129962D01*
X163708170Y-98149368D01*
X163697134Y-98167781D01*
X163684346Y-98185024D01*
X163669930Y-98200930D01*
X163654024Y-98215346D01*
X163636781Y-98228134D01*
X163618368Y-98239170D01*
X163598962Y-98248349D01*
X163578750Y-98255581D01*
X163557926Y-98260797D01*
X163536691Y-98263947D01*
X163515250Y-98265000D01*
X163077750Y-98265000D01*
X163056309Y-98263947D01*
X163035074Y-98260797D01*
X163014250Y-98255581D01*
X162994038Y-98248349D01*
X162974632Y-98239170D01*
X162956219Y-98228134D01*
X162938976Y-98215346D01*
X162923070Y-98200930D01*
X162908654Y-98185024D01*
X162895866Y-98167781D01*
X162884830Y-98149368D01*
X162875651Y-98129962D01*
X162868419Y-98109750D01*
X162863203Y-98088926D01*
X162860053Y-98067691D01*
X162859000Y-98046250D01*
X162859000Y-97533750D01*
X162860053Y-97512309D01*
X162863203Y-97491074D01*
X162868419Y-97470250D01*
X162875651Y-97450038D01*
X162884830Y-97430632D01*
X162895866Y-97412219D01*
X162908654Y-97394976D01*
X162923070Y-97379070D01*
X162938976Y-97364654D01*
X162956219Y-97351866D01*
X162974632Y-97340830D01*
X162994038Y-97331651D01*
X163014250Y-97324419D01*
X163035074Y-97319203D01*
X163056309Y-97316053D01*
X163077750Y-97315000D01*
X163515250Y-97315000D01*
X163536691Y-97316053D01*
X163536691Y-97316053D01*
G37*
D12*
G04 #@! TD*
G04 #@! TO.P,C5,2*
G04 #@! TO.N,BAT-*
X163296500Y-97790000D03*
D10*
G04 #@! TO.N,BAT-*
G04 #@! TO.C,C7*
G36*
X163536691Y-99729053D02*
X163557926Y-99732203D01*
X163578750Y-99737419D01*
X163598962Y-99744651D01*
X163618368Y-99753830D01*
X163636781Y-99764866D01*
X163654024Y-99777654D01*
X163669930Y-99792070D01*
X163684346Y-99807976D01*
X163697134Y-99825219D01*
X163708170Y-99843632D01*
X163717349Y-99863038D01*
X163724581Y-99883250D01*
X163729797Y-99904074D01*
X163732947Y-99925309D01*
X163734000Y-99946750D01*
X163734000Y-100459250D01*
X163732947Y-100480691D01*
X163729797Y-100501926D01*
X163724581Y-100522750D01*
X163717349Y-100542962D01*
X163708170Y-100562368D01*
X163697134Y-100580781D01*
X163684346Y-100598024D01*
X163669930Y-100613930D01*
X163654024Y-100628346D01*
X163636781Y-100641134D01*
X163618368Y-100652170D01*
X163598962Y-100661349D01*
X163578750Y-100668581D01*
X163557926Y-100673797D01*
X163536691Y-100676947D01*
X163515250Y-100678000D01*
X163077750Y-100678000D01*
X163056309Y-100676947D01*
X163035074Y-100673797D01*
X163014250Y-100668581D01*
X162994038Y-100661349D01*
X162974632Y-100652170D01*
X162956219Y-100641134D01*
X162938976Y-100628346D01*
X162923070Y-100613930D01*
X162908654Y-100598024D01*
X162895866Y-100580781D01*
X162884830Y-100562368D01*
X162875651Y-100542962D01*
X162868419Y-100522750D01*
X162863203Y-100501926D01*
X162860053Y-100480691D01*
X162859000Y-100459250D01*
X162859000Y-99946750D01*
X162860053Y-99925309D01*
X162863203Y-99904074D01*
X162868419Y-99883250D01*
X162875651Y-99863038D01*
X162884830Y-99843632D01*
X162895866Y-99825219D01*
X162908654Y-99807976D01*
X162923070Y-99792070D01*
X162938976Y-99777654D01*
X162956219Y-99764866D01*
X162974632Y-99753830D01*
X162994038Y-99744651D01*
X163014250Y-99737419D01*
X163035074Y-99732203D01*
X163056309Y-99729053D01*
X163077750Y-99728000D01*
X163515250Y-99728000D01*
X163536691Y-99729053D01*
X163536691Y-99729053D01*
G37*
D12*
G04 #@! TD*
G04 #@! TO.P,C7,2*
G04 #@! TO.N,BAT-*
X163296500Y-100203000D03*
D10*
G04 #@! TO.N,OUT1*
G04 #@! TO.C,C7*
G36*
X165111691Y-99729053D02*
X165132926Y-99732203D01*
X165153750Y-99737419D01*
X165173962Y-99744651D01*
X165193368Y-99753830D01*
X165211781Y-99764866D01*
X165229024Y-99777654D01*
X165244930Y-99792070D01*
X165259346Y-99807976D01*
X165272134Y-99825219D01*
X165283170Y-99843632D01*
X165292349Y-99863038D01*
X165299581Y-99883250D01*
X165304797Y-99904074D01*
X165307947Y-99925309D01*
X165309000Y-99946750D01*
X165309000Y-100459250D01*
X165307947Y-100480691D01*
X165304797Y-100501926D01*
X165299581Y-100522750D01*
X165292349Y-100542962D01*
X165283170Y-100562368D01*
X165272134Y-100580781D01*
X165259346Y-100598024D01*
X165244930Y-100613930D01*
X165229024Y-100628346D01*
X165211781Y-100641134D01*
X165193368Y-100652170D01*
X165173962Y-100661349D01*
X165153750Y-100668581D01*
X165132926Y-100673797D01*
X165111691Y-100676947D01*
X165090250Y-100678000D01*
X164652750Y-100678000D01*
X164631309Y-100676947D01*
X164610074Y-100673797D01*
X164589250Y-100668581D01*
X164569038Y-100661349D01*
X164549632Y-100652170D01*
X164531219Y-100641134D01*
X164513976Y-100628346D01*
X164498070Y-100613930D01*
X164483654Y-100598024D01*
X164470866Y-100580781D01*
X164459830Y-100562368D01*
X164450651Y-100542962D01*
X164443419Y-100522750D01*
X164438203Y-100501926D01*
X164435053Y-100480691D01*
X164434000Y-100459250D01*
X164434000Y-99946750D01*
X164435053Y-99925309D01*
X164438203Y-99904074D01*
X164443419Y-99883250D01*
X164450651Y-99863038D01*
X164459830Y-99843632D01*
X164470866Y-99825219D01*
X164483654Y-99807976D01*
X164498070Y-99792070D01*
X164513976Y-99777654D01*
X164531219Y-99764866D01*
X164549632Y-99753830D01*
X164569038Y-99744651D01*
X164589250Y-99737419D01*
X164610074Y-99732203D01*
X164631309Y-99729053D01*
X164652750Y-99728000D01*
X165090250Y-99728000D01*
X165111691Y-99729053D01*
X165111691Y-99729053D01*
G37*
D12*
G04 #@! TD*
G04 #@! TO.P,C7,1*
G04 #@! TO.N,OUT1*
X164871500Y-100203000D03*
D23*
G04 #@! TO.P,U1,~*
G04 #@! TO.N,BAT-*
X169418000Y-81915000D03*
X158242000Y-81915000D03*
D24*
X163830000Y-81915000D03*
D25*
G04 #@! TO.P,U1,12*
G04 #@! TO.N,PWM1*
X161290000Y-76835000D03*
G04 #@! TO.P,U1,11*
G04 #@! TO.N,EN1*
X162306000Y-76835000D03*
G04 #@! TO.P,U1,10*
G04 #@! TO.N,BAT-*
X163322000Y-76835000D03*
G04 #@! TO.P,U1,9*
X164338000Y-76835000D03*
G04 #@! TO.P,U1,8*
X165354000Y-76835000D03*
G04 #@! TO.P,U1,7*
G04 #@! TO.N,OUT2*
X166370000Y-76835000D03*
G04 #@! TO.P,U1,6*
G04 #@! TO.N,BAT-*
X166370000Y-86995000D03*
G04 #@! TO.P,U1,5*
G04 #@! TO.N,OUT1*
X165354000Y-86995000D03*
G04 #@! TO.P,U1,4*
G04 #@! TO.N,BAT-PROT+*
X164338000Y-86995000D03*
G04 #@! TO.P,U1,3*
G04 #@! TO.N,ERROR1*
X163322000Y-86995000D03*
G04 #@! TO.P,U1,2*
G04 #@! TO.N,+3V3*
X162280600Y-87020400D03*
G04 #@! TO.P,U1,1*
G04 #@! TO.N,DIR1*
X161290000Y-86995000D03*
G04 #@! TD*
D23*
G04 #@! TO.P,U2,~*
G04 #@! TO.N,BAT-*
X157988000Y-122682000D03*
X169164000Y-122682000D03*
D24*
X163576000Y-122682000D03*
D25*
G04 #@! TO.P,U2,12*
G04 #@! TO.N,PWM2*
X166116000Y-127762000D03*
G04 #@! TO.P,U2,11*
G04 #@! TO.N,EN2*
X165100000Y-127762000D03*
G04 #@! TO.P,U2,10*
G04 #@! TO.N,BAT-*
X164084000Y-127762000D03*
G04 #@! TO.P,U2,9*
X163068000Y-127762000D03*
G04 #@! TO.P,U2,8*
X162052000Y-127762000D03*
G04 #@! TO.P,U2,7*
G04 #@! TO.N,OUT4*
X161036000Y-127762000D03*
G04 #@! TO.P,U2,6*
G04 #@! TO.N,BAT-*
X161036000Y-117602000D03*
G04 #@! TO.P,U2,5*
G04 #@! TO.N,OUT3*
X162052000Y-117602000D03*
G04 #@! TO.P,U2,4*
G04 #@! TO.N,BAT-PROT+*
X163068000Y-117602000D03*
G04 #@! TO.P,U2,3*
G04 #@! TO.N,ERROR2*
X164084000Y-117602000D03*
G04 #@! TO.P,U2,2*
G04 #@! TO.N,+3V3*
X165125400Y-117576600D03*
G04 #@! TO.P,U2,1*
G04 #@! TO.N,DIR2*
X166116000Y-117602000D03*
G04 #@! TD*
D26*
G04 #@! TO.N,BAT-*
X163322000Y-125222000D03*
X163322000Y-128778000D03*
X163830000Y-93345000D03*
X166370000Y-87630000D03*
X153035000Y-73025000D03*
X147320000Y-76835000D03*
X161290000Y-113030000D03*
X162560000Y-110490000D03*
X159385000Y-130810000D03*
X157480000Y-118745000D03*
G04 #@! TO.N,OUT2*
X166624000Y-96520000D03*
X167894000Y-76962000D03*
G04 #@! TO.N,OUT4*
X169926000Y-126492000D03*
G04 #@! TO.N,OUT1*
X164846000Y-101600000D03*
X165354000Y-88900000D03*
G04 #@! TO.N,OUT3*
X162306000Y-114808000D03*
X165354000Y-107950000D03*
G04 #@! TO.N,+3V3*
X153924000Y-87122000D03*
X153924000Y-95758000D03*
X154940000Y-110744000D03*
X150368000Y-115316000D03*
X148844000Y-87122000D03*
G04 #@! TO.N,EN1*
X161290000Y-75184000D03*
G04 #@! TO.N,PWM1*
X159766000Y-76962000D03*
X156718000Y-95758000D03*
G04 #@! TO.N,DIR2*
X167132000Y-117348000D03*
G04 #@! TO.N,EN2*
X148844000Y-114808000D03*
G04 #@! TO.N,PWM2*
X167640000Y-127508000D03*
X160020000Y-118227010D03*
G04 #@! TO.N,BAT-PROT+*
X151384000Y-79502000D03*
X157734000Y-78486000D03*
X164338000Y-78486000D03*
X164338000Y-84836000D03*
X156210000Y-109220000D03*
X161290000Y-108585000D03*
X151257000Y-116586000D03*
G04 #@! TO.N,Net-(D3-Pad2)*
X152654000Y-75184000D03*
X152654000Y-78486000D03*
G04 #@! TO.N,SDA*
X152908000Y-95758000D03*
G04 #@! TO.N,SCL*
X150368000Y-95758000D03*
G04 #@! TO.N,MCLR*
X149606000Y-118364000D03*
X149352000Y-113284000D03*
X153416000Y-104902000D03*
G04 #@! TO.N,Net-(C11-Pad1)*
X155575000Y-132080000D03*
X156210000Y-128270000D03*
G04 #@! TO.N,+5V*
X167640000Y-85344000D03*
X159766000Y-86106000D03*
X168148000Y-108966000D03*
X155448000Y-115570000D03*
G04 #@! TO.N,A1*
X159258000Y-102362000D03*
X167640000Y-89662000D03*
G04 #@! TO.N,B1*
X159258000Y-104394000D03*
X166878000Y-88646000D03*
G04 #@! TO.N,A2*
X170434000Y-102362000D03*
X160782000Y-95250000D03*
X155956000Y-98298000D03*
X148590000Y-99822000D03*
G04 #@! TO.N,B2*
X160655000Y-103505000D03*
X167005000Y-114935000D03*
G04 #@! TO.N,Net-(J2-Pad2)*
X148082000Y-121158000D03*
G04 #@! TD*
D27*
G04 #@! TO.N,BAT+*
X149885000Y-76835000D02*
X156185000Y-76835000D01*
D28*
X156058000Y-76962000D02*
X156058000Y-75286000D01*
X156058000Y-75286000D02*
X155194000Y-74422000D01*
X155194000Y-72898000D02*
X156718000Y-71374000D01*
X155194000Y-74422000D02*
X155194000Y-72898000D01*
D27*
G04 #@! TO.N,BAT-*
X158090000Y-114060000D02*
X158090000Y-114706000D01*
X158090000Y-114706000D02*
X156210000Y-116586000D01*
X161290000Y-116332000D02*
X161290000Y-117475000D01*
X163322000Y-127635000D02*
X163322000Y-128778000D01*
X163322000Y-125222000D02*
X163830000Y-124714000D01*
X163830000Y-124714000D02*
X163830000Y-122555000D01*
D28*
X162830000Y-97790000D02*
X162830000Y-100330000D01*
X162830000Y-104140000D02*
X162830000Y-106680000D01*
X164338000Y-76835000D02*
X165354000Y-76835000D01*
X163322000Y-76835000D02*
X164338000Y-76835000D01*
D27*
X166370000Y-84455000D02*
X163830000Y-81915000D01*
X166370000Y-86995000D02*
X166370000Y-84455000D01*
X155575000Y-84582000D02*
X158242000Y-81915000D01*
X145288000Y-84582000D02*
X155575000Y-84582000D01*
X144145000Y-83185000D02*
X144145000Y-83439000D01*
X144145000Y-83439000D02*
X145288000Y-84582000D01*
X169672000Y-87122000D02*
X170434000Y-86360000D01*
X166370000Y-87122000D02*
X169672000Y-87122000D01*
X165055000Y-111125000D02*
X163830000Y-109900000D01*
X168021000Y-111125000D02*
X165055000Y-111125000D01*
X162636000Y-106345000D02*
X162971000Y-106680000D01*
X161290000Y-106345000D02*
X162636000Y-106345000D01*
X165055000Y-93345000D02*
X163830000Y-94570000D01*
X168275000Y-93345000D02*
X165055000Y-93345000D01*
X162470000Y-98275000D02*
X162955000Y-97790000D01*
X161290000Y-98275000D02*
X162470000Y-98275000D01*
X162971000Y-109041000D02*
X163830000Y-109900000D01*
X162971000Y-106680000D02*
X162971000Y-109041000D01*
X162971000Y-100330000D02*
X162971000Y-104140000D01*
X162955000Y-95445000D02*
X163830000Y-94570000D01*
X162955000Y-97790000D02*
X162955000Y-95445000D01*
X163830000Y-94570000D02*
X163830000Y-93345000D01*
X166370000Y-87630000D02*
X166370000Y-87122000D01*
X159258000Y-71374000D02*
X159258000Y-71882000D01*
X152400000Y-73025000D02*
X151130000Y-71755000D01*
X153035000Y-73025000D02*
X152400000Y-73025000D01*
X161290000Y-116332000D02*
X161290000Y-113030000D01*
X163150000Y-109900000D02*
X163830000Y-109900000D01*
X162560000Y-110490000D02*
X163150000Y-109900000D01*
X159385000Y-130810000D02*
X157480000Y-130810000D01*
X150578000Y-106179000D02*
X151333000Y-106934000D01*
X150578000Y-105033000D02*
X150578000Y-106179000D01*
X161036000Y-117602000D02*
X161036000Y-118491000D01*
X161036000Y-118491000D02*
X160655000Y-118872000D01*
X160655000Y-118872000D02*
X157607000Y-118872000D01*
X153624000Y-116586000D02*
X155321000Y-116586000D01*
X155321000Y-116586000D02*
X156210000Y-116586000D01*
X157607000Y-118872000D02*
X157480000Y-118745000D01*
X157480000Y-118745000D02*
X155321000Y-116586000D01*
D28*
G04 #@! TO.N,OUT2*
X166370000Y-76835000D02*
X167767000Y-76835000D01*
X167767000Y-76835000D02*
X167894000Y-76962000D01*
X164830000Y-97790000D02*
X165354000Y-97790000D01*
X168910000Y-96520000D02*
X170180000Y-97790000D01*
X166624000Y-96520000D02*
X168910000Y-96520000D01*
X165354000Y-97790000D02*
X166624000Y-96520000D01*
D27*
G04 #@! TO.N,OUT4*
X169926000Y-126492000D02*
X169672000Y-126238000D01*
X169672000Y-126238000D02*
X161544000Y-126238000D01*
X161544000Y-126238000D02*
X161290000Y-126492000D01*
X161290000Y-127635000D02*
X161290000Y-126492000D01*
D28*
X164830000Y-104140000D02*
X165354000Y-104140000D01*
X168910000Y-102870000D02*
X170180000Y-104140000D01*
X166624000Y-102870000D02*
X168910000Y-102870000D01*
X165354000Y-104140000D02*
X166624000Y-102870000D01*
G04 #@! TO.N,OUT1*
X165354000Y-86995000D02*
X165354000Y-88900000D01*
X164830000Y-101584000D02*
X164830000Y-100330000D01*
X164846000Y-101600000D02*
X164830000Y-101584000D01*
X164830000Y-100330000D02*
X164846000Y-100330000D01*
X165100000Y-100076000D02*
X166624000Y-101600000D01*
X166624000Y-101600000D02*
X168910000Y-101600000D01*
X168910000Y-101600000D02*
X170180000Y-100330000D01*
D27*
G04 #@! TO.N,OUT3*
X164830000Y-106680000D02*
X164830000Y-107426000D01*
X162306000Y-114808000D02*
X162306000Y-117475000D01*
X164830000Y-107426000D02*
X165354000Y-107950000D01*
D28*
X170180000Y-106680000D02*
X168910000Y-107950000D01*
X165354000Y-106680000D02*
X164830000Y-106680000D01*
X166624000Y-107950000D02*
X165354000Y-106680000D01*
X168910000Y-107950000D02*
X166624000Y-107950000D01*
D27*
G04 #@! TO.N,DIR1*
X161290000Y-89662000D02*
X161290000Y-86995000D01*
X157911800Y-93040200D02*
X161290000Y-89662000D01*
X145288000Y-97282000D02*
X145288000Y-94996000D01*
X144145000Y-98425000D02*
X145288000Y-97282000D01*
X145288000Y-94996000D02*
X145542000Y-94742000D01*
X145542000Y-94742000D02*
X157327600Y-94742000D01*
X157327600Y-94742000D02*
X157911800Y-94157800D01*
X157911800Y-94157800D02*
X157911800Y-93040200D01*
G04 #@! TO.N,+3V3*
X157524000Y-105033000D02*
X156079000Y-105033000D01*
X155702000Y-85344000D02*
X155956000Y-85344000D01*
X153924000Y-87122000D02*
X155702000Y-85344000D01*
X153924000Y-99568000D02*
X153924000Y-95758000D01*
X151892000Y-101600000D02*
X153924000Y-99568000D01*
X151892000Y-104394000D02*
X151892000Y-101600000D01*
X153162000Y-105664000D02*
X151892000Y-104394000D01*
X155448000Y-105664000D02*
X153162000Y-105664000D01*
X156079000Y-105033000D02*
X155448000Y-105664000D01*
X157524000Y-105033000D02*
X157349000Y-105033000D01*
X157349000Y-105033000D02*
X154940000Y-107442000D01*
X154940000Y-107442000D02*
X154940000Y-110744000D01*
X150368000Y-115316000D02*
X150368000Y-118364000D01*
X150368000Y-118364000D02*
X151384000Y-119380000D01*
X151384000Y-119380000D02*
X154940000Y-119380000D01*
X165379400Y-118592600D02*
X165379400Y-117449600D01*
X164592000Y-119380000D02*
X165379400Y-118592600D01*
X150622000Y-85344000D02*
X155448000Y-85344000D01*
X155448000Y-85344000D02*
X155956000Y-85344000D01*
X148844000Y-87122000D02*
X150622000Y-85344000D01*
X162280600Y-86080600D02*
X162280600Y-87020400D01*
X161544000Y-85344000D02*
X162280600Y-86080600D01*
X155956000Y-85344000D02*
X161544000Y-85344000D01*
X154940000Y-119380000D02*
X156210000Y-119380000D01*
X156210000Y-119380000D02*
X164592000Y-119380000D01*
X153820000Y-120500000D02*
X153820000Y-128270000D01*
X154940000Y-119380000D02*
X153820000Y-120500000D01*
G04 #@! TO.N,EN1*
X162306000Y-76200000D02*
X161290000Y-75184000D01*
X162306000Y-76200000D02*
X162306000Y-76835000D01*
G04 #@! TO.N,PWM1*
X157524000Y-102433000D02*
X156281000Y-102433000D01*
X159893000Y-76835000D02*
X161290000Y-76835000D01*
X159766000Y-76962000D02*
X159893000Y-76835000D01*
X154940000Y-97536000D02*
X156718000Y-95758000D01*
X154940000Y-101092000D02*
X154940000Y-97536000D01*
X156281000Y-102433000D02*
X154940000Y-101092000D01*
G04 #@! TO.N,DIR2*
X167005000Y-117475000D02*
X166370000Y-117475000D01*
X167132000Y-117348000D02*
X167005000Y-117475000D01*
G04 #@! TO.N,EN2*
X165354000Y-127635000D02*
X165354000Y-129032000D01*
X164846000Y-129540000D02*
X165354000Y-129032000D01*
X150622000Y-129540000D02*
X164846000Y-129540000D01*
X148844000Y-127762000D02*
X150622000Y-129540000D01*
X148844000Y-114808000D02*
X148844000Y-127762000D01*
G04 #@! TO.N,PWM2*
X167640000Y-127508000D02*
X167513000Y-127635000D01*
X166370000Y-127635000D02*
X167513000Y-127635000D01*
X159045000Y-101133000D02*
X160020000Y-102108000D01*
X160020000Y-104648000D02*
X159258000Y-105410000D01*
X160020000Y-117802746D02*
X160020000Y-118227010D01*
X159258000Y-105410000D02*
X159258000Y-107188000D01*
X160020000Y-107950000D02*
X160020000Y-117802746D01*
X159258000Y-107188000D02*
X160020000Y-107950000D01*
X157524000Y-101133000D02*
X159045000Y-101133000D01*
X160020000Y-102108000D02*
X160020000Y-104648000D01*
D28*
G04 #@! TO.N,BAT-PROT+*
X164338000Y-86995000D02*
X164338000Y-84836000D01*
X151017000Y-79135000D02*
X149885000Y-79135000D01*
X151384000Y-79502000D02*
X151017000Y-79135000D01*
X164338000Y-78486000D02*
X157734000Y-78486000D01*
D27*
X164338000Y-89662000D02*
X163830000Y-90170000D01*
X164338000Y-87122000D02*
X164338000Y-89662000D01*
X163068000Y-115062000D02*
X163830000Y-114300000D01*
X163068000Y-117602000D02*
X163068000Y-115062000D01*
X165430000Y-112700000D02*
X163830000Y-114300000D01*
X168021000Y-112700000D02*
X165430000Y-112700000D01*
X165430000Y-91770000D02*
X163830000Y-90170000D01*
X168275000Y-91770000D02*
X165430000Y-91770000D01*
X161290000Y-97305000D02*
X161290000Y-96520000D01*
X161290000Y-96520000D02*
X161925000Y-95885000D01*
X161925000Y-92075000D02*
X163830000Y-90170000D01*
X161925000Y-95885000D02*
X161925000Y-92075000D01*
X161290000Y-111760000D02*
X163830000Y-114300000D01*
X158344000Y-109206000D02*
X156224000Y-109206000D01*
X156224000Y-109206000D02*
X156210000Y-109220000D01*
X161290000Y-107315000D02*
X161290000Y-108585000D01*
X161290000Y-108585000D02*
X161290000Y-111760000D01*
X161290000Y-107315000D02*
X160655000Y-107315000D01*
X160655000Y-107315000D02*
X160020000Y-106680000D01*
X160020000Y-106680000D02*
X160020000Y-106045000D01*
X160020000Y-106045000D02*
X161290000Y-104775000D01*
X161290000Y-104775000D02*
X161290000Y-100330000D01*
X161290000Y-100330000D02*
X160020000Y-99060000D01*
X160020000Y-99060000D02*
X160020000Y-97790000D01*
X160505000Y-97305000D02*
X161290000Y-97305000D01*
X160020000Y-97790000D02*
X160505000Y-97305000D01*
X149758000Y-81483000D02*
X150190000Y-81915000D01*
X149758000Y-79262000D02*
X149758000Y-81483000D01*
X151257000Y-116586000D02*
X152654000Y-116586000D01*
D28*
G04 #@! TO.N,Net-(D3-Pad2)*
X150180000Y-71755000D02*
X150180000Y-74240000D01*
X150180000Y-74240000D02*
X149885000Y-74535000D01*
X152005000Y-74535000D02*
X149885000Y-74535000D01*
X152654000Y-75184000D02*
X152005000Y-74535000D01*
X152630000Y-78510000D02*
X152654000Y-78486000D01*
D27*
X152654000Y-81026000D02*
X151765000Y-81915000D01*
X152654000Y-78486000D02*
X152654000Y-81026000D01*
G04 #@! TO.N,SDA*
X150324000Y-100483000D02*
X152045000Y-100483000D01*
X152908000Y-99620000D02*
X152908000Y-95758000D01*
X152045000Y-100483000D02*
X152908000Y-99620000D01*
G04 #@! TO.N,SCL*
X150324000Y-99183000D02*
X150324000Y-95802000D01*
X150324000Y-95802000D02*
X150368000Y-95758000D01*
G04 #@! TO.N,MCLR*
X157524000Y-103083000D02*
X155235000Y-103083000D01*
X149606000Y-113538000D02*
X149606000Y-118364000D01*
X149352000Y-113284000D02*
X149606000Y-113538000D01*
X155235000Y-103083000D02*
X153416000Y-104902000D01*
X146685000Y-121412000D02*
X146812000Y-121412000D01*
X146812000Y-121412000D02*
X147955000Y-122555000D01*
X147955000Y-122555000D02*
X147955000Y-128270000D01*
X150495000Y-130810000D02*
X153820000Y-130810000D01*
X147955000Y-128270000D02*
X150495000Y-130810000D01*
G04 #@! TO.N,ICSP_CLK*
X150324000Y-103733000D02*
X148489000Y-103733000D01*
X145288000Y-125222000D02*
X144145000Y-126365000D01*
X145288000Y-105664000D02*
X145288000Y-125222000D01*
X146050000Y-104902000D02*
X145288000Y-105664000D01*
X147320000Y-104902000D02*
X146050000Y-104902000D01*
X148489000Y-103733000D02*
X147320000Y-104902000D01*
G04 #@! TO.N,Net-(C11-Pad1)*
X156510000Y-130810000D02*
X154790000Y-130810000D01*
X154790000Y-130810000D02*
X154790000Y-131295000D01*
X154790000Y-131295000D02*
X155575000Y-132080000D01*
X156210000Y-128270000D02*
X154790000Y-128270000D01*
G04 #@! TO.N,+5V*
X156210000Y-91694000D02*
X157988000Y-91694000D01*
X171704000Y-92710000D02*
X170434000Y-93980000D01*
X171704000Y-85598000D02*
X171704000Y-92710000D01*
X171196000Y-85090000D02*
X171704000Y-85598000D01*
X167894000Y-85090000D02*
X171196000Y-85090000D01*
X167640000Y-85344000D02*
X167894000Y-85090000D01*
X159766000Y-89916000D02*
X159766000Y-86106000D01*
X157988000Y-91694000D02*
X159766000Y-89916000D01*
X158090000Y-111760000D02*
X156972000Y-111760000D01*
X168148000Y-108966000D02*
X169672000Y-110490000D01*
X155448000Y-113284000D02*
X155448000Y-115570000D01*
X156972000Y-111760000D02*
X155448000Y-113284000D01*
X169672000Y-110490000D02*
X170434000Y-110490000D01*
X158090000Y-111760000D02*
X151790000Y-111760000D01*
X152908000Y-110642000D02*
X152044000Y-111506000D01*
X152908000Y-106934000D02*
X152908000Y-110642000D01*
G04 #@! TO.N,A1*
X158903000Y-103733000D02*
X159258000Y-103378000D01*
X159258000Y-103378000D02*
X159258000Y-102362000D01*
X157524000Y-103733000D02*
X158903000Y-103733000D01*
X169418000Y-91440000D02*
X170434000Y-91440000D01*
X167640000Y-89662000D02*
X169418000Y-91440000D01*
G04 #@! TO.N,B1*
X159247000Y-104383000D02*
X159258000Y-104394000D01*
X157524000Y-104383000D02*
X159247000Y-104383000D01*
X167132000Y-88900000D02*
X170434000Y-88900000D01*
X166878000Y-88646000D02*
X167132000Y-88900000D01*
G04 #@! TO.N,A2*
X170434000Y-113030000D02*
X171196000Y-113030000D01*
X160782000Y-95250000D02*
X157734000Y-98298000D01*
X157734000Y-98298000D02*
X155956000Y-98298000D01*
X148590000Y-99822000D02*
X148601000Y-99833000D01*
X148601000Y-99833000D02*
X150324000Y-99833000D01*
X170434000Y-102362000D02*
X171450000Y-102362000D01*
X171450000Y-102362000D02*
X171450000Y-102381010D01*
X171684990Y-102616000D02*
X171684990Y-112522000D01*
X171450000Y-102381010D02*
X171684990Y-102616000D01*
X171684990Y-112522000D02*
X171704000Y-112522000D01*
X171196000Y-113030000D02*
X171684990Y-112522000D01*
G04 #@! TO.N,B2*
X157778000Y-99183000D02*
X158873000Y-99183000D01*
X158873000Y-99183000D02*
X160655000Y-100965000D01*
X160655000Y-100965000D02*
X160655000Y-103505000D01*
X169799000Y-114935000D02*
X170434000Y-115570000D01*
X167005000Y-114935000D02*
X169799000Y-114935000D01*
G04 #@! TO.N,Net-(J2-Pad2)*
X149109000Y-104383000D02*
X150324000Y-104383000D01*
X148082000Y-105410000D02*
X149109000Y-104383000D01*
X148082000Y-121158000D02*
X148082000Y-105410000D01*
G04 #@! TO.N,Net-(J3-Pad2)*
X155702000Y-89662000D02*
X156210000Y-89154000D01*
X143256000Y-89662000D02*
X155702000Y-89662000D01*
X142748000Y-89154000D02*
X143256000Y-89662000D01*
X144145000Y-78105000D02*
X142748000Y-79502000D01*
X142748000Y-79502000D02*
X142748000Y-89154000D01*
G04 #@! TD*
D29*
G04 #@! TO.N,BAT-*
G36*
X165275000Y-130848954D02*
X165275000Y-132295046D01*
X165828396Y-133631062D01*
X166209334Y-134012000D01*
X148115666Y-134012000D01*
X148496604Y-133631062D01*
X149050000Y-132295046D01*
X149050000Y-130848954D01*
X148760686Y-130150488D01*
X149904673Y-131294476D01*
X149947071Y-131357929D01*
X150010524Y-131400327D01*
X150010526Y-131400329D01*
X150135902Y-131484102D01*
X150198463Y-131525904D01*
X150420148Y-131570000D01*
X150420152Y-131570000D01*
X150494999Y-131584888D01*
X150569846Y-131570000D01*
X153148396Y-131570000D01*
X153368290Y-131716929D01*
X153672500Y-131777440D01*
X153967500Y-131777440D01*
X154171235Y-131736915D01*
X154242072Y-131842929D01*
X154305528Y-131885329D01*
X154640000Y-132219801D01*
X154640000Y-132265983D01*
X154782345Y-132609635D01*
X155045365Y-132872655D01*
X155389017Y-133015000D01*
X155760983Y-133015000D01*
X156104635Y-132872655D01*
X156367655Y-132609635D01*
X156510000Y-132265983D01*
X156510000Y-131894017D01*
X156461712Y-131777440D01*
X156657500Y-131777440D01*
X156948825Y-131719492D01*
X157058691Y-131765000D01*
X157194250Y-131765000D01*
X157353000Y-131606250D01*
X157353000Y-131344971D01*
X157391929Y-131286710D01*
X157452440Y-130982500D01*
X157452440Y-130937000D01*
X157607000Y-130937000D01*
X157607000Y-131606250D01*
X157765750Y-131765000D01*
X157901309Y-131765000D01*
X158134698Y-131668327D01*
X158313327Y-131489699D01*
X158410000Y-131256310D01*
X158410000Y-131095750D01*
X158251250Y-130937000D01*
X157607000Y-130937000D01*
X157452440Y-130937000D01*
X157452440Y-130663000D01*
X157607000Y-130663000D01*
X157607000Y-130683000D01*
X158251250Y-130683000D01*
X158410000Y-130524250D01*
X158410000Y-130363690D01*
X158383619Y-130300000D01*
X164771153Y-130300000D01*
X164846000Y-130314888D01*
X164920847Y-130300000D01*
X164920852Y-130300000D01*
X165142537Y-130255904D01*
X165393929Y-130087929D01*
X165436330Y-130024471D01*
X165743919Y-129716883D01*
X165275000Y-130848954D01*
X165275000Y-130848954D01*
G37*
X165275000Y-130848954D02*
X165275000Y-132295046D01*
X165828396Y-133631062D01*
X166209334Y-134012000D01*
X148115666Y-134012000D01*
X148496604Y-133631062D01*
X149050000Y-132295046D01*
X149050000Y-130848954D01*
X148760686Y-130150488D01*
X149904673Y-131294476D01*
X149947071Y-131357929D01*
X150010524Y-131400327D01*
X150010526Y-131400329D01*
X150135902Y-131484102D01*
X150198463Y-131525904D01*
X150420148Y-131570000D01*
X150420152Y-131570000D01*
X150494999Y-131584888D01*
X150569846Y-131570000D01*
X153148396Y-131570000D01*
X153368290Y-131716929D01*
X153672500Y-131777440D01*
X153967500Y-131777440D01*
X154171235Y-131736915D01*
X154242072Y-131842929D01*
X154305528Y-131885329D01*
X154640000Y-132219801D01*
X154640000Y-132265983D01*
X154782345Y-132609635D01*
X155045365Y-132872655D01*
X155389017Y-133015000D01*
X155760983Y-133015000D01*
X156104635Y-132872655D01*
X156367655Y-132609635D01*
X156510000Y-132265983D01*
X156510000Y-131894017D01*
X156461712Y-131777440D01*
X156657500Y-131777440D01*
X156948825Y-131719492D01*
X157058691Y-131765000D01*
X157194250Y-131765000D01*
X157353000Y-131606250D01*
X157353000Y-131344971D01*
X157391929Y-131286710D01*
X157452440Y-130982500D01*
X157452440Y-130937000D01*
X157607000Y-130937000D01*
X157607000Y-131606250D01*
X157765750Y-131765000D01*
X157901309Y-131765000D01*
X158134698Y-131668327D01*
X158313327Y-131489699D01*
X158410000Y-131256310D01*
X158410000Y-131095750D01*
X158251250Y-130937000D01*
X157607000Y-130937000D01*
X157452440Y-130937000D01*
X157452440Y-130663000D01*
X157607000Y-130663000D01*
X157607000Y-130683000D01*
X158251250Y-130683000D01*
X158410000Y-130524250D01*
X158410000Y-130363690D01*
X158383619Y-130300000D01*
X164771153Y-130300000D01*
X164846000Y-130314888D01*
X164920847Y-130300000D01*
X164920852Y-130300000D01*
X165142537Y-130255904D01*
X165393929Y-130087929D01*
X165436330Y-130024471D01*
X165743919Y-129716883D01*
X165275000Y-130848954D01*
G36*
X169035161Y-113609418D02*
X169363375Y-114100625D01*
X169474685Y-114175000D01*
X167567290Y-114175000D01*
X167534635Y-114142345D01*
X167190983Y-114000000D01*
X166819017Y-114000000D01*
X166475365Y-114142345D01*
X166212345Y-114405365D01*
X166070000Y-114749017D01*
X166070000Y-115120983D01*
X166212345Y-115464635D01*
X166475365Y-115727655D01*
X166819017Y-115870000D01*
X167190983Y-115870000D01*
X167534635Y-115727655D01*
X167567290Y-115695000D01*
X168944772Y-115695000D01*
X169035161Y-116149418D01*
X169363375Y-116640625D01*
X169682478Y-116853843D01*
X169552642Y-116914817D01*
X169162355Y-117343076D01*
X168992524Y-117753110D01*
X169113845Y-117983000D01*
X170307000Y-117983000D01*
X170307000Y-117963000D01*
X170561000Y-117963000D01*
X170561000Y-117983000D01*
X170581000Y-117983000D01*
X170581000Y-118237000D01*
X170561000Y-118237000D01*
X170561000Y-119430819D01*
X170790892Y-119551486D01*
X171315358Y-119305183D01*
X171350000Y-119267170D01*
X171350000Y-120071725D01*
X171290309Y-120047000D01*
X169449750Y-120047000D01*
X169291000Y-120205750D01*
X169291000Y-122555000D01*
X169311000Y-122555000D01*
X169311000Y-122809000D01*
X169291000Y-122809000D01*
X169291000Y-125158250D01*
X169449750Y-125317000D01*
X171290309Y-125317000D01*
X171350000Y-125292275D01*
X171350000Y-128871334D01*
X170969062Y-128490396D01*
X169633046Y-127937000D01*
X168474339Y-127937000D01*
X168575000Y-127693983D01*
X168575000Y-127322017D01*
X168440788Y-126998000D01*
X169123555Y-126998000D01*
X169133345Y-127021635D01*
X169396365Y-127284655D01*
X169740017Y-127427000D01*
X170111983Y-127427000D01*
X170455635Y-127284655D01*
X170718655Y-127021635D01*
X170861000Y-126677983D01*
X170861000Y-126306017D01*
X170718655Y-125962365D01*
X170455635Y-125699345D01*
X170111983Y-125557000D01*
X170020774Y-125557000D01*
X169968537Y-125522096D01*
X169746852Y-125478000D01*
X169746847Y-125478000D01*
X169672000Y-125463112D01*
X169597153Y-125478000D01*
X167021463Y-125478000D01*
X167160698Y-125420327D01*
X167264026Y-125317000D01*
X168878250Y-125317000D01*
X169037000Y-125158250D01*
X169037000Y-122809000D01*
X163703000Y-122809000D01*
X163703000Y-122829000D01*
X163449000Y-122829000D01*
X163449000Y-122809000D01*
X158115000Y-122809000D01*
X158115000Y-125158250D01*
X158273750Y-125317000D01*
X159887974Y-125317000D01*
X159991302Y-125420327D01*
X160224691Y-125517000D01*
X161273082Y-125517000D01*
X161247463Y-125522096D01*
X160996071Y-125690071D01*
X160953669Y-125753530D01*
X160805528Y-125901671D01*
X160742072Y-125944071D01*
X160699672Y-126007527D01*
X160699671Y-126007528D01*
X160574097Y-126195463D01*
X160517903Y-126477969D01*
X160463235Y-126488843D01*
X160253191Y-126629191D01*
X160112843Y-126839235D01*
X160063560Y-127087000D01*
X160063560Y-128437000D01*
X160112843Y-128684765D01*
X160176477Y-128780000D01*
X157010788Y-128780000D01*
X157145000Y-128455983D01*
X157145000Y-128084017D01*
X157002655Y-127740365D01*
X156739635Y-127477345D01*
X156395983Y-127335000D01*
X156024017Y-127335000D01*
X155680365Y-127477345D01*
X155647710Y-127510000D01*
X155461604Y-127510000D01*
X155241710Y-127363071D01*
X154937500Y-127302560D01*
X154642500Y-127302560D01*
X154580000Y-127314992D01*
X154580000Y-122967750D01*
X155353000Y-122967750D01*
X155353000Y-124808310D01*
X155449673Y-125041699D01*
X155628302Y-125220327D01*
X155861691Y-125317000D01*
X157702250Y-125317000D01*
X157861000Y-125158250D01*
X157861000Y-122809000D01*
X155511750Y-122809000D01*
X155353000Y-122967750D01*
X154580000Y-122967750D01*
X154580000Y-120814801D01*
X155254802Y-120140000D01*
X155637169Y-120140000D01*
X155628302Y-120143673D01*
X155449673Y-120322301D01*
X155353000Y-120555690D01*
X155353000Y-122396250D01*
X155511750Y-122555000D01*
X157861000Y-122555000D01*
X157861000Y-122535000D01*
X158115000Y-122535000D01*
X158115000Y-122555000D01*
X163449000Y-122555000D01*
X163449000Y-122535000D01*
X163703000Y-122535000D01*
X163703000Y-122555000D01*
X169037000Y-122555000D01*
X169037000Y-120205750D01*
X168878250Y-120047000D01*
X167264026Y-120047000D01*
X167160698Y-119943673D01*
X166927309Y-119847000D01*
X165199801Y-119847000D01*
X165863873Y-119182929D01*
X165927329Y-119140529D01*
X166019959Y-119001899D01*
X166071716Y-118924440D01*
X166441000Y-118924440D01*
X166688765Y-118875157D01*
X166898809Y-118734809D01*
X167039157Y-118524765D01*
X167050669Y-118466890D01*
X168992524Y-118466890D01*
X169162355Y-118876924D01*
X169552642Y-119305183D01*
X170077108Y-119551486D01*
X170307000Y-119430819D01*
X170307000Y-118237000D01*
X169113845Y-118237000D01*
X168992524Y-118466890D01*
X167050669Y-118466890D01*
X167087247Y-118283000D01*
X167317983Y-118283000D01*
X167661635Y-118140655D01*
X167924655Y-117877635D01*
X168067000Y-117533983D01*
X168067000Y-117162017D01*
X167924655Y-116818365D01*
X167661635Y-116555345D01*
X167317983Y-116413000D01*
X166946017Y-116413000D01*
X166864961Y-116446574D01*
X166688765Y-116328843D01*
X166441000Y-116279560D01*
X165791000Y-116279560D01*
X165684548Y-116300734D01*
X165450400Y-116254160D01*
X165090247Y-116254160D01*
X165228157Y-116047765D01*
X165277440Y-115800000D01*
X165277440Y-113927362D01*
X165744802Y-113460000D01*
X167104661Y-113460000D01*
X167152261Y-113531239D01*
X167433273Y-113719005D01*
X167764750Y-113784940D01*
X168277250Y-113784940D01*
X168608727Y-113719005D01*
X168889739Y-113531239D01*
X168989818Y-113381461D01*
X169035161Y-113609418D01*
X169035161Y-113609418D01*
G37*
X169035161Y-113609418D02*
X169363375Y-114100625D01*
X169474685Y-114175000D01*
X167567290Y-114175000D01*
X167534635Y-114142345D01*
X167190983Y-114000000D01*
X166819017Y-114000000D01*
X166475365Y-114142345D01*
X166212345Y-114405365D01*
X166070000Y-114749017D01*
X166070000Y-115120983D01*
X166212345Y-115464635D01*
X166475365Y-115727655D01*
X166819017Y-115870000D01*
X167190983Y-115870000D01*
X167534635Y-115727655D01*
X167567290Y-115695000D01*
X168944772Y-115695000D01*
X169035161Y-116149418D01*
X169363375Y-116640625D01*
X169682478Y-116853843D01*
X169552642Y-116914817D01*
X169162355Y-117343076D01*
X168992524Y-117753110D01*
X169113845Y-117983000D01*
X170307000Y-117983000D01*
X170307000Y-117963000D01*
X170561000Y-117963000D01*
X170561000Y-117983000D01*
X170581000Y-117983000D01*
X170581000Y-118237000D01*
X170561000Y-118237000D01*
X170561000Y-119430819D01*
X170790892Y-119551486D01*
X171315358Y-119305183D01*
X171350000Y-119267170D01*
X171350000Y-120071725D01*
X171290309Y-120047000D01*
X169449750Y-120047000D01*
X169291000Y-120205750D01*
X169291000Y-122555000D01*
X169311000Y-122555000D01*
X169311000Y-122809000D01*
X169291000Y-122809000D01*
X169291000Y-125158250D01*
X169449750Y-125317000D01*
X171290309Y-125317000D01*
X171350000Y-125292275D01*
X171350000Y-128871334D01*
X170969062Y-128490396D01*
X169633046Y-127937000D01*
X168474339Y-127937000D01*
X168575000Y-127693983D01*
X168575000Y-127322017D01*
X168440788Y-126998000D01*
X169123555Y-126998000D01*
X169133345Y-127021635D01*
X169396365Y-127284655D01*
X169740017Y-127427000D01*
X170111983Y-127427000D01*
X170455635Y-127284655D01*
X170718655Y-127021635D01*
X170861000Y-126677983D01*
X170861000Y-126306017D01*
X170718655Y-125962365D01*
X170455635Y-125699345D01*
X170111983Y-125557000D01*
X170020774Y-125557000D01*
X169968537Y-125522096D01*
X169746852Y-125478000D01*
X169746847Y-125478000D01*
X169672000Y-125463112D01*
X169597153Y-125478000D01*
X167021463Y-125478000D01*
X167160698Y-125420327D01*
X167264026Y-125317000D01*
X168878250Y-125317000D01*
X169037000Y-125158250D01*
X169037000Y-122809000D01*
X163703000Y-122809000D01*
X163703000Y-122829000D01*
X163449000Y-122829000D01*
X163449000Y-122809000D01*
X158115000Y-122809000D01*
X158115000Y-125158250D01*
X158273750Y-125317000D01*
X159887974Y-125317000D01*
X159991302Y-125420327D01*
X160224691Y-125517000D01*
X161273082Y-125517000D01*
X161247463Y-125522096D01*
X160996071Y-125690071D01*
X160953669Y-125753530D01*
X160805528Y-125901671D01*
X160742072Y-125944071D01*
X160699672Y-126007527D01*
X160699671Y-126007528D01*
X160574097Y-126195463D01*
X160517903Y-126477969D01*
X160463235Y-126488843D01*
X160253191Y-126629191D01*
X160112843Y-126839235D01*
X160063560Y-127087000D01*
X160063560Y-128437000D01*
X160112843Y-128684765D01*
X160176477Y-128780000D01*
X157010788Y-128780000D01*
X157145000Y-128455983D01*
X157145000Y-128084017D01*
X157002655Y-127740365D01*
X156739635Y-127477345D01*
X156395983Y-127335000D01*
X156024017Y-127335000D01*
X155680365Y-127477345D01*
X155647710Y-127510000D01*
X155461604Y-127510000D01*
X155241710Y-127363071D01*
X154937500Y-127302560D01*
X154642500Y-127302560D01*
X154580000Y-127314992D01*
X154580000Y-122967750D01*
X155353000Y-122967750D01*
X155353000Y-124808310D01*
X155449673Y-125041699D01*
X155628302Y-125220327D01*
X155861691Y-125317000D01*
X157702250Y-125317000D01*
X157861000Y-125158250D01*
X157861000Y-122809000D01*
X155511750Y-122809000D01*
X155353000Y-122967750D01*
X154580000Y-122967750D01*
X154580000Y-120814801D01*
X155254802Y-120140000D01*
X155637169Y-120140000D01*
X155628302Y-120143673D01*
X155449673Y-120322301D01*
X155353000Y-120555690D01*
X155353000Y-122396250D01*
X155511750Y-122555000D01*
X157861000Y-122555000D01*
X157861000Y-122535000D01*
X158115000Y-122535000D01*
X158115000Y-122555000D01*
X163449000Y-122555000D01*
X163449000Y-122535000D01*
X163703000Y-122535000D01*
X163703000Y-122555000D01*
X169037000Y-122555000D01*
X169037000Y-120205750D01*
X168878250Y-120047000D01*
X167264026Y-120047000D01*
X167160698Y-119943673D01*
X166927309Y-119847000D01*
X165199801Y-119847000D01*
X165863873Y-119182929D01*
X165927329Y-119140529D01*
X166019959Y-119001899D01*
X166071716Y-118924440D01*
X166441000Y-118924440D01*
X166688765Y-118875157D01*
X166898809Y-118734809D01*
X167039157Y-118524765D01*
X167050669Y-118466890D01*
X168992524Y-118466890D01*
X169162355Y-118876924D01*
X169552642Y-119305183D01*
X170077108Y-119551486D01*
X170307000Y-119430819D01*
X170307000Y-118237000D01*
X169113845Y-118237000D01*
X168992524Y-118466890D01*
X167050669Y-118466890D01*
X167087247Y-118283000D01*
X167317983Y-118283000D01*
X167661635Y-118140655D01*
X167924655Y-117877635D01*
X168067000Y-117533983D01*
X168067000Y-117162017D01*
X167924655Y-116818365D01*
X167661635Y-116555345D01*
X167317983Y-116413000D01*
X166946017Y-116413000D01*
X166864961Y-116446574D01*
X166688765Y-116328843D01*
X166441000Y-116279560D01*
X165791000Y-116279560D01*
X165684548Y-116300734D01*
X165450400Y-116254160D01*
X165090247Y-116254160D01*
X165228157Y-116047765D01*
X165277440Y-115800000D01*
X165277440Y-113927362D01*
X165744802Y-113460000D01*
X167104661Y-113460000D01*
X167152261Y-113531239D01*
X167433273Y-113719005D01*
X167764750Y-113784940D01*
X168277250Y-113784940D01*
X168608727Y-113719005D01*
X168889739Y-113531239D01*
X168989818Y-113381461D01*
X169035161Y-113609418D01*
G36*
X162179000Y-127635000D02*
X162941000Y-127635000D01*
X162941000Y-127615000D01*
X163195000Y-127615000D01*
X163195000Y-127635000D01*
X163957000Y-127635000D01*
X163957000Y-127615000D01*
X164127560Y-127615000D01*
X164127560Y-127909000D01*
X163957000Y-127909000D01*
X163957000Y-127889000D01*
X163195000Y-127889000D01*
X163195000Y-127909000D01*
X162941000Y-127909000D01*
X162941000Y-127889000D01*
X162179000Y-127889000D01*
X162179000Y-127909000D01*
X162010387Y-127909000D01*
X162050000Y-127709852D01*
X162050000Y-127615000D01*
X162179000Y-127615000D01*
X162179000Y-127635000D01*
X162179000Y-127635000D01*
G37*
X162179000Y-127635000D02*
X162941000Y-127635000D01*
X162941000Y-127615000D01*
X163195000Y-127615000D01*
X163195000Y-127635000D01*
X163957000Y-127635000D01*
X163957000Y-127615000D01*
X164127560Y-127615000D01*
X164127560Y-127909000D01*
X163957000Y-127909000D01*
X163957000Y-127889000D01*
X163195000Y-127889000D01*
X163195000Y-127909000D01*
X162941000Y-127909000D01*
X162941000Y-127889000D01*
X162179000Y-127889000D01*
X162179000Y-127909000D01*
X162010387Y-127909000D01*
X162050000Y-127709852D01*
X162050000Y-127615000D01*
X162179000Y-127615000D01*
X162179000Y-127635000D01*
G36*
X163448998Y-125478000D02*
X163329250Y-125478000D01*
X163448998Y-125358252D01*
X163448998Y-125478000D01*
X163448998Y-125478000D01*
G37*
X163448998Y-125478000D02*
X163329250Y-125478000D01*
X163448998Y-125358252D01*
X163448998Y-125478000D01*
G36*
X150705000Y-105734250D02*
X150794750Y-105824000D01*
X150769191Y-105824000D01*
X150535802Y-105920673D01*
X150357173Y-106099301D01*
X150260500Y-106332690D01*
X150260500Y-106648250D01*
X150419250Y-106807000D01*
X151206000Y-106807000D01*
X151206000Y-106787000D01*
X151460000Y-106787000D01*
X151460000Y-106807000D01*
X151480000Y-106807000D01*
X151480000Y-107061000D01*
X151460000Y-107061000D01*
X151460000Y-107885250D01*
X151618750Y-108044000D01*
X151896809Y-108044000D01*
X152130198Y-107947327D01*
X152148000Y-107929525D01*
X152148001Y-108958560D01*
X151044000Y-108958560D01*
X150796235Y-109007843D01*
X150586191Y-109148191D01*
X150445843Y-109358235D01*
X150396560Y-109606000D01*
X150396560Y-113406000D01*
X150445843Y-113653765D01*
X150586191Y-113863809D01*
X150796235Y-114004157D01*
X151044000Y-114053440D01*
X153044000Y-114053440D01*
X153291765Y-114004157D01*
X153501809Y-113863809D01*
X153642157Y-113653765D01*
X153691440Y-113406000D01*
X153691440Y-112520000D01*
X155137199Y-112520000D01*
X154963530Y-112693669D01*
X154900071Y-112736071D01*
X154732096Y-112987464D01*
X154688000Y-113209149D01*
X154688000Y-113209153D01*
X154673112Y-113284000D01*
X154688000Y-113358847D01*
X154688001Y-115007709D01*
X154655345Y-115040365D01*
X154513000Y-115384017D01*
X154513000Y-115755983D01*
X154655345Y-116099635D01*
X154918365Y-116362655D01*
X155262017Y-116505000D01*
X155633983Y-116505000D01*
X155977635Y-116362655D01*
X156240655Y-116099635D01*
X156383000Y-115755983D01*
X156383000Y-115384017D01*
X156240655Y-115040365D01*
X156208000Y-115007710D01*
X156208000Y-114091750D01*
X156709000Y-114091750D01*
X156709000Y-114682310D01*
X156805673Y-114915699D01*
X156984302Y-115094327D01*
X157217691Y-115191000D01*
X158058250Y-115191000D01*
X158217000Y-115032250D01*
X158217000Y-113933000D01*
X156867750Y-113933000D01*
X156709000Y-114091750D01*
X156208000Y-114091750D01*
X156208000Y-113598801D01*
X156709000Y-113097802D01*
X156709000Y-113520250D01*
X156867750Y-113679000D01*
X158217000Y-113679000D01*
X158217000Y-113659000D01*
X158471000Y-113659000D01*
X158471000Y-113679000D01*
X158491000Y-113679000D01*
X158491000Y-113933000D01*
X158471000Y-113933000D01*
X158471000Y-115032250D01*
X158629750Y-115191000D01*
X159260001Y-115191000D01*
X159260001Y-117664719D01*
X159227345Y-117697375D01*
X159085000Y-118041027D01*
X159085000Y-118412993D01*
X159170745Y-118620000D01*
X155014846Y-118620000D01*
X154939999Y-118605112D01*
X154865152Y-118620000D01*
X151698802Y-118620000D01*
X151128000Y-118049199D01*
X151128000Y-117521000D01*
X151442983Y-117521000D01*
X151786635Y-117378655D01*
X151819290Y-117346000D01*
X151982396Y-117346000D01*
X152202290Y-117492929D01*
X152506500Y-117553440D01*
X152801500Y-117553440D01*
X153092825Y-117495492D01*
X153202691Y-117541000D01*
X153338250Y-117541000D01*
X153497000Y-117382250D01*
X153497000Y-117120971D01*
X153535929Y-117062710D01*
X153596440Y-116758500D01*
X153596440Y-116713000D01*
X153751000Y-116713000D01*
X153751000Y-117382250D01*
X153909750Y-117541000D01*
X154045309Y-117541000D01*
X154278698Y-117444327D01*
X154457327Y-117265699D01*
X154554000Y-117032310D01*
X154554000Y-116871750D01*
X154395250Y-116713000D01*
X153751000Y-116713000D01*
X153596440Y-116713000D01*
X153596440Y-116413500D01*
X153535929Y-116109290D01*
X153497000Y-116051029D01*
X153497000Y-115789750D01*
X153751000Y-115789750D01*
X153751000Y-116459000D01*
X154395250Y-116459000D01*
X154554000Y-116300250D01*
X154554000Y-116139690D01*
X154457327Y-115906301D01*
X154278698Y-115727673D01*
X154045309Y-115631000D01*
X153909750Y-115631000D01*
X153751000Y-115789750D01*
X153497000Y-115789750D01*
X153338250Y-115631000D01*
X153202691Y-115631000D01*
X153092825Y-115676508D01*
X152801500Y-115618560D01*
X152506500Y-115618560D01*
X152202290Y-115679071D01*
X151982396Y-115826000D01*
X151819290Y-115826000D01*
X151786635Y-115793345D01*
X151442983Y-115651000D01*
X151241275Y-115651000D01*
X151303000Y-115501983D01*
X151303000Y-115130017D01*
X151160655Y-114786365D01*
X150897635Y-114523345D01*
X150553983Y-114381000D01*
X150366000Y-114381000D01*
X150366000Y-113612846D01*
X150380888Y-113537999D01*
X150366000Y-113463152D01*
X150366000Y-113463148D01*
X150321904Y-113241463D01*
X150287000Y-113189226D01*
X150287000Y-113098017D01*
X150144655Y-112754365D01*
X149881635Y-112491345D01*
X149537983Y-112349000D01*
X149166017Y-112349000D01*
X148842000Y-112483212D01*
X148842000Y-107219750D01*
X150260500Y-107219750D01*
X150260500Y-107535310D01*
X150357173Y-107768699D01*
X150535802Y-107947327D01*
X150769191Y-108044000D01*
X151047250Y-108044000D01*
X151206000Y-107885250D01*
X151206000Y-107061000D01*
X150419250Y-107061000D01*
X150260500Y-107219750D01*
X148842000Y-107219750D01*
X148842000Y-105724801D01*
X149101534Y-105465268D01*
X149164673Y-105617699D01*
X149343302Y-105796327D01*
X149576691Y-105893000D01*
X150292250Y-105893000D01*
X150451000Y-105734250D01*
X150451000Y-105255440D01*
X150705000Y-105255440D01*
X150705000Y-105734250D01*
X150705000Y-105734250D01*
G37*
X150705000Y-105734250D02*
X150794750Y-105824000D01*
X150769191Y-105824000D01*
X150535802Y-105920673D01*
X150357173Y-106099301D01*
X150260500Y-106332690D01*
X150260500Y-106648250D01*
X150419250Y-106807000D01*
X151206000Y-106807000D01*
X151206000Y-106787000D01*
X151460000Y-106787000D01*
X151460000Y-106807000D01*
X151480000Y-106807000D01*
X151480000Y-107061000D01*
X151460000Y-107061000D01*
X151460000Y-107885250D01*
X151618750Y-108044000D01*
X151896809Y-108044000D01*
X152130198Y-107947327D01*
X152148000Y-107929525D01*
X152148001Y-108958560D01*
X151044000Y-108958560D01*
X150796235Y-109007843D01*
X150586191Y-109148191D01*
X150445843Y-109358235D01*
X150396560Y-109606000D01*
X150396560Y-113406000D01*
X150445843Y-113653765D01*
X150586191Y-113863809D01*
X150796235Y-114004157D01*
X151044000Y-114053440D01*
X153044000Y-114053440D01*
X153291765Y-114004157D01*
X153501809Y-113863809D01*
X153642157Y-113653765D01*
X153691440Y-113406000D01*
X153691440Y-112520000D01*
X155137199Y-112520000D01*
X154963530Y-112693669D01*
X154900071Y-112736071D01*
X154732096Y-112987464D01*
X154688000Y-113209149D01*
X154688000Y-113209153D01*
X154673112Y-113284000D01*
X154688000Y-113358847D01*
X154688001Y-115007709D01*
X154655345Y-115040365D01*
X154513000Y-115384017D01*
X154513000Y-115755983D01*
X154655345Y-116099635D01*
X154918365Y-116362655D01*
X155262017Y-116505000D01*
X155633983Y-116505000D01*
X155977635Y-116362655D01*
X156240655Y-116099635D01*
X156383000Y-115755983D01*
X156383000Y-115384017D01*
X156240655Y-115040365D01*
X156208000Y-115007710D01*
X156208000Y-114091750D01*
X156709000Y-114091750D01*
X156709000Y-114682310D01*
X156805673Y-114915699D01*
X156984302Y-115094327D01*
X157217691Y-115191000D01*
X158058250Y-115191000D01*
X158217000Y-115032250D01*
X158217000Y-113933000D01*
X156867750Y-113933000D01*
X156709000Y-114091750D01*
X156208000Y-114091750D01*
X156208000Y-113598801D01*
X156709000Y-113097802D01*
X156709000Y-113520250D01*
X156867750Y-113679000D01*
X158217000Y-113679000D01*
X158217000Y-113659000D01*
X158471000Y-113659000D01*
X158471000Y-113679000D01*
X158491000Y-113679000D01*
X158491000Y-113933000D01*
X158471000Y-113933000D01*
X158471000Y-115032250D01*
X158629750Y-115191000D01*
X159260001Y-115191000D01*
X159260001Y-117664719D01*
X159227345Y-117697375D01*
X159085000Y-118041027D01*
X159085000Y-118412993D01*
X159170745Y-118620000D01*
X155014846Y-118620000D01*
X154939999Y-118605112D01*
X154865152Y-118620000D01*
X151698802Y-118620000D01*
X151128000Y-118049199D01*
X151128000Y-117521000D01*
X151442983Y-117521000D01*
X151786635Y-117378655D01*
X151819290Y-117346000D01*
X151982396Y-117346000D01*
X152202290Y-117492929D01*
X152506500Y-117553440D01*
X152801500Y-117553440D01*
X153092825Y-117495492D01*
X153202691Y-117541000D01*
X153338250Y-117541000D01*
X153497000Y-117382250D01*
X153497000Y-117120971D01*
X153535929Y-117062710D01*
X153596440Y-116758500D01*
X153596440Y-116713000D01*
X153751000Y-116713000D01*
X153751000Y-117382250D01*
X153909750Y-117541000D01*
X154045309Y-117541000D01*
X154278698Y-117444327D01*
X154457327Y-117265699D01*
X154554000Y-117032310D01*
X154554000Y-116871750D01*
X154395250Y-116713000D01*
X153751000Y-116713000D01*
X153596440Y-116713000D01*
X153596440Y-116413500D01*
X153535929Y-116109290D01*
X153497000Y-116051029D01*
X153497000Y-115789750D01*
X153751000Y-115789750D01*
X153751000Y-116459000D01*
X154395250Y-116459000D01*
X154554000Y-116300250D01*
X154554000Y-116139690D01*
X154457327Y-115906301D01*
X154278698Y-115727673D01*
X154045309Y-115631000D01*
X153909750Y-115631000D01*
X153751000Y-115789750D01*
X153497000Y-115789750D01*
X153338250Y-115631000D01*
X153202691Y-115631000D01*
X153092825Y-115676508D01*
X152801500Y-115618560D01*
X152506500Y-115618560D01*
X152202290Y-115679071D01*
X151982396Y-115826000D01*
X151819290Y-115826000D01*
X151786635Y-115793345D01*
X151442983Y-115651000D01*
X151241275Y-115651000D01*
X151303000Y-115501983D01*
X151303000Y-115130017D01*
X151160655Y-114786365D01*
X150897635Y-114523345D01*
X150553983Y-114381000D01*
X150366000Y-114381000D01*
X150366000Y-113612846D01*
X150380888Y-113537999D01*
X150366000Y-113463152D01*
X150366000Y-113463148D01*
X150321904Y-113241463D01*
X150287000Y-113189226D01*
X150287000Y-113098017D01*
X150144655Y-112754365D01*
X149881635Y-112491345D01*
X149537983Y-112349000D01*
X149166017Y-112349000D01*
X148842000Y-112483212D01*
X148842000Y-107219750D01*
X150260500Y-107219750D01*
X150260500Y-107535310D01*
X150357173Y-107768699D01*
X150535802Y-107947327D01*
X150769191Y-108044000D01*
X151047250Y-108044000D01*
X151206000Y-107885250D01*
X151206000Y-107061000D01*
X150419250Y-107061000D01*
X150260500Y-107219750D01*
X148842000Y-107219750D01*
X148842000Y-105724801D01*
X149101534Y-105465268D01*
X149164673Y-105617699D01*
X149343302Y-105796327D01*
X149576691Y-105893000D01*
X150292250Y-105893000D01*
X150451000Y-105734250D01*
X150451000Y-105255440D01*
X150705000Y-105255440D01*
X150705000Y-105734250D01*
G36*
X160805528Y-112350329D02*
X162328198Y-113873000D01*
X162120017Y-113873000D01*
X161776365Y-114015345D01*
X161513345Y-114278365D01*
X161371000Y-114622017D01*
X161371000Y-114993983D01*
X161513345Y-115337635D01*
X161546000Y-115370290D01*
X161546001Y-116315563D01*
X161544780Y-116315805D01*
X161487309Y-116292000D01*
X161321750Y-116292000D01*
X161163000Y-116450750D01*
X161163000Y-116628116D01*
X161128843Y-116679235D01*
X161079560Y-116927000D01*
X161079560Y-117749000D01*
X160909000Y-117749000D01*
X160909000Y-117729000D01*
X160889000Y-117729000D01*
X160889000Y-117475000D01*
X160909000Y-117475000D01*
X160909000Y-116450750D01*
X160780000Y-116321750D01*
X160780000Y-112333272D01*
X160805528Y-112350329D01*
X160805528Y-112350329D01*
G37*
X160805528Y-112350329D02*
X162328198Y-113873000D01*
X162120017Y-113873000D01*
X161776365Y-114015345D01*
X161513345Y-114278365D01*
X161371000Y-114622017D01*
X161371000Y-114993983D01*
X161513345Y-115337635D01*
X161546000Y-115370290D01*
X161546001Y-116315563D01*
X161544780Y-116315805D01*
X161487309Y-116292000D01*
X161321750Y-116292000D01*
X161163000Y-116450750D01*
X161163000Y-116628116D01*
X161128843Y-116679235D01*
X161079560Y-116927000D01*
X161079560Y-117749000D01*
X160909000Y-117749000D01*
X160909000Y-117729000D01*
X160889000Y-117729000D01*
X160889000Y-117475000D01*
X160909000Y-117475000D01*
X160909000Y-116450750D01*
X160780000Y-116321750D01*
X160780000Y-112333272D01*
X160805528Y-112350329D01*
G36*
X162382750Y-97663000D02*
X163169500Y-97663000D01*
X163169500Y-97643000D01*
X163423500Y-97643000D01*
X163423500Y-97663000D01*
X163443500Y-97663000D01*
X163443500Y-97917000D01*
X163423500Y-97917000D01*
X163423500Y-98741250D01*
X163582250Y-98900000D01*
X163860309Y-98900000D01*
X164093698Y-98803327D01*
X164158969Y-98738057D01*
X164321273Y-98846505D01*
X164652750Y-98912440D01*
X165090250Y-98912440D01*
X165421727Y-98846505D01*
X165702739Y-98658739D01*
X165747859Y-98591213D01*
X165992049Y-98428049D01*
X166041425Y-98354153D01*
X166250460Y-98145118D01*
X166381405Y-98461249D01*
X166714751Y-98794595D01*
X167150289Y-98975000D01*
X167621711Y-98975000D01*
X168057249Y-98794595D01*
X168178560Y-98673284D01*
X168178560Y-98890000D01*
X168227843Y-99137765D01*
X168368191Y-99347809D01*
X168436093Y-99393180D01*
X168344983Y-99613139D01*
X168057249Y-99325405D01*
X167621711Y-99145000D01*
X167150289Y-99145000D01*
X166714751Y-99325405D01*
X166381405Y-99658751D01*
X166250460Y-99974882D01*
X165889808Y-99614230D01*
X165702739Y-99334261D01*
X165421727Y-99146495D01*
X165090250Y-99080560D01*
X164652750Y-99080560D01*
X164321273Y-99146495D01*
X164158969Y-99254943D01*
X164093698Y-99189673D01*
X163860309Y-99093000D01*
X163582250Y-99093000D01*
X163423500Y-99251750D01*
X163423500Y-100076000D01*
X163443500Y-100076000D01*
X163443500Y-100330000D01*
X163423500Y-100330000D01*
X163423500Y-101154250D01*
X163582250Y-101313000D01*
X163860309Y-101313000D01*
X163945000Y-101277920D01*
X163945000Y-101331933D01*
X163911000Y-101414017D01*
X163911000Y-101785983D01*
X164053345Y-102129635D01*
X164316365Y-102392655D01*
X164660017Y-102535000D01*
X165031983Y-102535000D01*
X165375635Y-102392655D01*
X165638655Y-102129635D01*
X165715803Y-101943382D01*
X165936577Y-102164156D01*
X165983914Y-102235000D01*
X165936577Y-102305844D01*
X165195643Y-103046779D01*
X165048750Y-103017560D01*
X164611250Y-103017560D01*
X164279773Y-103083495D01*
X164117469Y-103191943D01*
X164052198Y-103126673D01*
X163818809Y-103030000D01*
X163540750Y-103030000D01*
X163382000Y-103188750D01*
X163382000Y-104013000D01*
X163402000Y-104013000D01*
X163402000Y-104267000D01*
X163382000Y-104267000D01*
X163382000Y-105091250D01*
X163540750Y-105250000D01*
X163818809Y-105250000D01*
X164052198Y-105153327D01*
X164117469Y-105088057D01*
X164279773Y-105196505D01*
X164611250Y-105262440D01*
X165048750Y-105262440D01*
X165380227Y-105196505D01*
X165661239Y-105008739D01*
X165682441Y-104977007D01*
X165699310Y-104973652D01*
X165992049Y-104778049D01*
X166041425Y-104704153D01*
X166250460Y-104495118D01*
X166381405Y-104811249D01*
X166714751Y-105144595D01*
X167150289Y-105325000D01*
X167621711Y-105325000D01*
X168057249Y-105144595D01*
X168178560Y-105023284D01*
X168178560Y-105240000D01*
X168227843Y-105487765D01*
X168368191Y-105697809D01*
X168436093Y-105743180D01*
X168344983Y-105963139D01*
X168057249Y-105675405D01*
X167621711Y-105495000D01*
X167150289Y-105495000D01*
X166714751Y-105675405D01*
X166381405Y-106008751D01*
X166250460Y-106324882D01*
X166041425Y-106115847D01*
X165992049Y-106041951D01*
X165921939Y-105995105D01*
X165916005Y-105965273D01*
X165728239Y-105684261D01*
X165447227Y-105496495D01*
X165115750Y-105430560D01*
X164678250Y-105430560D01*
X164346773Y-105496495D01*
X164184469Y-105604943D01*
X164119198Y-105539673D01*
X163885809Y-105443000D01*
X163607750Y-105443000D01*
X163449000Y-105601750D01*
X163449000Y-106426000D01*
X163469000Y-106426000D01*
X163469000Y-106680000D01*
X163449000Y-106680000D01*
X163449000Y-107504250D01*
X163607750Y-107663000D01*
X163885809Y-107663000D01*
X164085778Y-107580170D01*
X164099668Y-107650000D01*
X164114097Y-107722537D01*
X164142470Y-107765000D01*
X164115750Y-107765000D01*
X163957000Y-107923750D01*
X163957000Y-109773000D01*
X165106250Y-109773000D01*
X165265000Y-109614250D01*
X165265000Y-108885000D01*
X165539983Y-108885000D01*
X165883635Y-108742655D01*
X166017296Y-108608994D01*
X166059844Y-108637423D01*
X166059845Y-108637424D01*
X166107795Y-108669463D01*
X166278690Y-108783652D01*
X166536835Y-108835000D01*
X166536839Y-108835000D01*
X166623999Y-108852337D01*
X166711159Y-108835000D01*
X167213000Y-108835000D01*
X167213000Y-109151983D01*
X167355345Y-109495635D01*
X167618365Y-109758655D01*
X167962017Y-109901000D01*
X168008198Y-109901000D01*
X168233224Y-110126026D01*
X168148000Y-110211250D01*
X168148000Y-110998000D01*
X168168000Y-110998000D01*
X168168000Y-111252000D01*
X168148000Y-111252000D01*
X168148000Y-111272000D01*
X167894000Y-111272000D01*
X167894000Y-111252000D01*
X167069750Y-111252000D01*
X166911000Y-111410750D01*
X166911000Y-111688809D01*
X167007673Y-111922198D01*
X167025475Y-111940000D01*
X165504848Y-111940000D01*
X165430000Y-111925112D01*
X165355152Y-111940000D01*
X165355148Y-111940000D01*
X165183862Y-111974071D01*
X165133462Y-111984096D01*
X165025046Y-112056538D01*
X164882071Y-112152071D01*
X164852211Y-112196760D01*
X164630000Y-112152560D01*
X163030000Y-112152560D01*
X162802595Y-112197793D01*
X162050000Y-111445199D01*
X162050000Y-110185750D01*
X162395000Y-110185750D01*
X162395000Y-111526309D01*
X162491673Y-111759698D01*
X162670301Y-111938327D01*
X162903690Y-112035000D01*
X163544250Y-112035000D01*
X163703000Y-111876250D01*
X163703000Y-110027000D01*
X163957000Y-110027000D01*
X163957000Y-111876250D01*
X164115750Y-112035000D01*
X164756310Y-112035000D01*
X164989699Y-111938327D01*
X165168327Y-111759698D01*
X165265000Y-111526309D01*
X165265000Y-110561191D01*
X166911000Y-110561191D01*
X166911000Y-110839250D01*
X167069750Y-110998000D01*
X167894000Y-110998000D01*
X167894000Y-110211250D01*
X167735250Y-110052500D01*
X167419690Y-110052500D01*
X167186301Y-110149173D01*
X167007673Y-110327802D01*
X166911000Y-110561191D01*
X165265000Y-110561191D01*
X165265000Y-110185750D01*
X165106250Y-110027000D01*
X163957000Y-110027000D01*
X163703000Y-110027000D01*
X162553750Y-110027000D01*
X162395000Y-110185750D01*
X162050000Y-110185750D01*
X162050000Y-109147290D01*
X162082655Y-109114635D01*
X162225000Y-108770983D01*
X162225000Y-108399017D01*
X162173089Y-108273691D01*
X162395000Y-108273691D01*
X162395000Y-109614250D01*
X162553750Y-109773000D01*
X163703000Y-109773000D01*
X163703000Y-107923750D01*
X163544250Y-107765000D01*
X162903690Y-107765000D01*
X162670301Y-107861673D01*
X162491673Y-108040302D01*
X162395000Y-108273691D01*
X162173089Y-108273691D01*
X162082655Y-108055365D01*
X162050000Y-108022710D01*
X162050000Y-107986604D01*
X162196929Y-107766710D01*
X162257440Y-107462500D01*
X162257440Y-107173479D01*
X162346173Y-107387699D01*
X162524802Y-107566327D01*
X162758191Y-107663000D01*
X163036250Y-107663000D01*
X163195000Y-107504250D01*
X163195000Y-106680000D01*
X162408250Y-106680000D01*
X162249500Y-106838750D01*
X162249500Y-107127583D01*
X162199492Y-106876175D01*
X162245000Y-106766309D01*
X162245000Y-106630750D01*
X162086250Y-106472000D01*
X161824971Y-106472000D01*
X161766710Y-106433071D01*
X161462500Y-106372560D01*
X161143000Y-106372560D01*
X161143000Y-106218000D01*
X161163000Y-106218000D01*
X161163000Y-106198000D01*
X161417000Y-106198000D01*
X161417000Y-106218000D01*
X162086250Y-106218000D01*
X162245000Y-106059250D01*
X162245000Y-105951690D01*
X162249500Y-105951690D01*
X162249500Y-106267250D01*
X162408250Y-106426000D01*
X163195000Y-106426000D01*
X163195000Y-105601750D01*
X163036250Y-105443000D01*
X162758191Y-105443000D01*
X162524802Y-105539673D01*
X162346173Y-105718301D01*
X162249500Y-105951690D01*
X162245000Y-105951690D01*
X162245000Y-105923691D01*
X162148327Y-105690302D01*
X161969699Y-105511673D01*
X161736310Y-105415000D01*
X161724802Y-105415000D01*
X161774473Y-105365329D01*
X161837929Y-105322929D01*
X162005904Y-105071537D01*
X162050000Y-104849852D01*
X162050000Y-104849848D01*
X162064888Y-104775001D01*
X162050000Y-104700154D01*
X162050000Y-104425750D01*
X162182500Y-104425750D01*
X162182500Y-104741310D01*
X162279173Y-104974699D01*
X162457802Y-105153327D01*
X162691191Y-105250000D01*
X162969250Y-105250000D01*
X163128000Y-105091250D01*
X163128000Y-104267000D01*
X162341250Y-104267000D01*
X162182500Y-104425750D01*
X162050000Y-104425750D01*
X162050000Y-103538690D01*
X162182500Y-103538690D01*
X162182500Y-103854250D01*
X162341250Y-104013000D01*
X163128000Y-104013000D01*
X163128000Y-103188750D01*
X162969250Y-103030000D01*
X162691191Y-103030000D01*
X162457802Y-103126673D01*
X162279173Y-103305301D01*
X162182500Y-103538690D01*
X162050000Y-103538690D01*
X162050000Y-100488750D01*
X162224000Y-100488750D01*
X162224000Y-100804310D01*
X162320673Y-101037699D01*
X162499302Y-101216327D01*
X162732691Y-101313000D01*
X163010750Y-101313000D01*
X163169500Y-101154250D01*
X163169500Y-100330000D01*
X162382750Y-100330000D01*
X162224000Y-100488750D01*
X162050000Y-100488750D01*
X162050000Y-100404846D01*
X162064888Y-100329999D01*
X162050000Y-100255152D01*
X162050000Y-100255148D01*
X162005904Y-100033463D01*
X161837929Y-99782071D01*
X161774473Y-99739671D01*
X161636492Y-99601690D01*
X162224000Y-99601690D01*
X162224000Y-99917250D01*
X162382750Y-100076000D01*
X163169500Y-100076000D01*
X163169500Y-99251750D01*
X163010750Y-99093000D01*
X162732691Y-99093000D01*
X162499302Y-99189673D01*
X162320673Y-99368301D01*
X162224000Y-99601690D01*
X161636492Y-99601690D01*
X161122026Y-99087224D01*
X161163000Y-99046250D01*
X161163000Y-98402000D01*
X161143000Y-98402000D01*
X161143000Y-98247440D01*
X161437000Y-98247440D01*
X161437000Y-98402000D01*
X161417000Y-98402000D01*
X161417000Y-99046250D01*
X161575750Y-99205000D01*
X161736310Y-99205000D01*
X161969699Y-99108327D01*
X162148327Y-98929698D01*
X162245000Y-98696309D01*
X162245000Y-98560750D01*
X162086252Y-98402002D01*
X162228429Y-98402002D01*
X162320673Y-98624699D01*
X162499302Y-98803327D01*
X162732691Y-98900000D01*
X163010750Y-98900000D01*
X163169500Y-98741250D01*
X163169500Y-97917000D01*
X162382750Y-97917000D01*
X162224000Y-98075750D01*
X162224000Y-98147998D01*
X162086252Y-98147998D01*
X162245000Y-97989250D01*
X162245000Y-97853691D01*
X162199492Y-97743825D01*
X162243306Y-97523556D01*
X162382750Y-97663000D01*
X162382750Y-97663000D01*
G37*
X162382750Y-97663000D02*
X163169500Y-97663000D01*
X163169500Y-97643000D01*
X163423500Y-97643000D01*
X163423500Y-97663000D01*
X163443500Y-97663000D01*
X163443500Y-97917000D01*
X163423500Y-97917000D01*
X163423500Y-98741250D01*
X163582250Y-98900000D01*
X163860309Y-98900000D01*
X164093698Y-98803327D01*
X164158969Y-98738057D01*
X164321273Y-98846505D01*
X164652750Y-98912440D01*
X165090250Y-98912440D01*
X165421727Y-98846505D01*
X165702739Y-98658739D01*
X165747859Y-98591213D01*
X165992049Y-98428049D01*
X166041425Y-98354153D01*
X166250460Y-98145118D01*
X166381405Y-98461249D01*
X166714751Y-98794595D01*
X167150289Y-98975000D01*
X167621711Y-98975000D01*
X168057249Y-98794595D01*
X168178560Y-98673284D01*
X168178560Y-98890000D01*
X168227843Y-99137765D01*
X168368191Y-99347809D01*
X168436093Y-99393180D01*
X168344983Y-99613139D01*
X168057249Y-99325405D01*
X167621711Y-99145000D01*
X167150289Y-99145000D01*
X166714751Y-99325405D01*
X166381405Y-99658751D01*
X166250460Y-99974882D01*
X165889808Y-99614230D01*
X165702739Y-99334261D01*
X165421727Y-99146495D01*
X165090250Y-99080560D01*
X164652750Y-99080560D01*
X164321273Y-99146495D01*
X164158969Y-99254943D01*
X164093698Y-99189673D01*
X163860309Y-99093000D01*
X163582250Y-99093000D01*
X163423500Y-99251750D01*
X163423500Y-100076000D01*
X163443500Y-100076000D01*
X163443500Y-100330000D01*
X163423500Y-100330000D01*
X163423500Y-101154250D01*
X163582250Y-101313000D01*
X163860309Y-101313000D01*
X163945000Y-101277920D01*
X163945000Y-101331933D01*
X163911000Y-101414017D01*
X163911000Y-101785983D01*
X164053345Y-102129635D01*
X164316365Y-102392655D01*
X164660017Y-102535000D01*
X165031983Y-102535000D01*
X165375635Y-102392655D01*
X165638655Y-102129635D01*
X165715803Y-101943382D01*
X165936577Y-102164156D01*
X165983914Y-102235000D01*
X165936577Y-102305844D01*
X165195643Y-103046779D01*
X165048750Y-103017560D01*
X164611250Y-103017560D01*
X164279773Y-103083495D01*
X164117469Y-103191943D01*
X164052198Y-103126673D01*
X163818809Y-103030000D01*
X163540750Y-103030000D01*
X163382000Y-103188750D01*
X163382000Y-104013000D01*
X163402000Y-104013000D01*
X163402000Y-104267000D01*
X163382000Y-104267000D01*
X163382000Y-105091250D01*
X163540750Y-105250000D01*
X163818809Y-105250000D01*
X164052198Y-105153327D01*
X164117469Y-105088057D01*
X164279773Y-105196505D01*
X164611250Y-105262440D01*
X165048750Y-105262440D01*
X165380227Y-105196505D01*
X165661239Y-105008739D01*
X165682441Y-104977007D01*
X165699310Y-104973652D01*
X165992049Y-104778049D01*
X166041425Y-104704153D01*
X166250460Y-104495118D01*
X166381405Y-104811249D01*
X166714751Y-105144595D01*
X167150289Y-105325000D01*
X167621711Y-105325000D01*
X168057249Y-105144595D01*
X168178560Y-105023284D01*
X168178560Y-105240000D01*
X168227843Y-105487765D01*
X168368191Y-105697809D01*
X168436093Y-105743180D01*
X168344983Y-105963139D01*
X168057249Y-105675405D01*
X167621711Y-105495000D01*
X167150289Y-105495000D01*
X166714751Y-105675405D01*
X166381405Y-106008751D01*
X166250460Y-106324882D01*
X166041425Y-106115847D01*
X165992049Y-106041951D01*
X165921939Y-105995105D01*
X165916005Y-105965273D01*
X165728239Y-105684261D01*
X165447227Y-105496495D01*
X165115750Y-105430560D01*
X164678250Y-105430560D01*
X164346773Y-105496495D01*
X164184469Y-105604943D01*
X164119198Y-105539673D01*
X163885809Y-105443000D01*
X163607750Y-105443000D01*
X163449000Y-105601750D01*
X163449000Y-106426000D01*
X163469000Y-106426000D01*
X163469000Y-106680000D01*
X163449000Y-106680000D01*
X163449000Y-107504250D01*
X163607750Y-107663000D01*
X163885809Y-107663000D01*
X164085778Y-107580170D01*
X164099668Y-107650000D01*
X164114097Y-107722537D01*
X164142470Y-107765000D01*
X164115750Y-107765000D01*
X163957000Y-107923750D01*
X163957000Y-109773000D01*
X165106250Y-109773000D01*
X165265000Y-109614250D01*
X165265000Y-108885000D01*
X165539983Y-108885000D01*
X165883635Y-108742655D01*
X166017296Y-108608994D01*
X166059844Y-108637423D01*
X166059845Y-108637424D01*
X166107795Y-108669463D01*
X166278690Y-108783652D01*
X166536835Y-108835000D01*
X166536839Y-108835000D01*
X166623999Y-108852337D01*
X166711159Y-108835000D01*
X167213000Y-108835000D01*
X167213000Y-109151983D01*
X167355345Y-109495635D01*
X167618365Y-109758655D01*
X167962017Y-109901000D01*
X168008198Y-109901000D01*
X168233224Y-110126026D01*
X168148000Y-110211250D01*
X168148000Y-110998000D01*
X168168000Y-110998000D01*
X168168000Y-111252000D01*
X168148000Y-111252000D01*
X168148000Y-111272000D01*
X167894000Y-111272000D01*
X167894000Y-111252000D01*
X167069750Y-111252000D01*
X166911000Y-111410750D01*
X166911000Y-111688809D01*
X167007673Y-111922198D01*
X167025475Y-111940000D01*
X165504848Y-111940000D01*
X165430000Y-111925112D01*
X165355152Y-111940000D01*
X165355148Y-111940000D01*
X165183862Y-111974071D01*
X165133462Y-111984096D01*
X165025046Y-112056538D01*
X164882071Y-112152071D01*
X164852211Y-112196760D01*
X164630000Y-112152560D01*
X163030000Y-112152560D01*
X162802595Y-112197793D01*
X162050000Y-111445199D01*
X162050000Y-110185750D01*
X162395000Y-110185750D01*
X162395000Y-111526309D01*
X162491673Y-111759698D01*
X162670301Y-111938327D01*
X162903690Y-112035000D01*
X163544250Y-112035000D01*
X163703000Y-111876250D01*
X163703000Y-110027000D01*
X163957000Y-110027000D01*
X163957000Y-111876250D01*
X164115750Y-112035000D01*
X164756310Y-112035000D01*
X164989699Y-111938327D01*
X165168327Y-111759698D01*
X165265000Y-111526309D01*
X165265000Y-110561191D01*
X166911000Y-110561191D01*
X166911000Y-110839250D01*
X167069750Y-110998000D01*
X167894000Y-110998000D01*
X167894000Y-110211250D01*
X167735250Y-110052500D01*
X167419690Y-110052500D01*
X167186301Y-110149173D01*
X167007673Y-110327802D01*
X166911000Y-110561191D01*
X165265000Y-110561191D01*
X165265000Y-110185750D01*
X165106250Y-110027000D01*
X163957000Y-110027000D01*
X163703000Y-110027000D01*
X162553750Y-110027000D01*
X162395000Y-110185750D01*
X162050000Y-110185750D01*
X162050000Y-109147290D01*
X162082655Y-109114635D01*
X162225000Y-108770983D01*
X162225000Y-108399017D01*
X162173089Y-108273691D01*
X162395000Y-108273691D01*
X162395000Y-109614250D01*
X162553750Y-109773000D01*
X163703000Y-109773000D01*
X163703000Y-107923750D01*
X163544250Y-107765000D01*
X162903690Y-107765000D01*
X162670301Y-107861673D01*
X162491673Y-108040302D01*
X162395000Y-108273691D01*
X162173089Y-108273691D01*
X162082655Y-108055365D01*
X162050000Y-108022710D01*
X162050000Y-107986604D01*
X162196929Y-107766710D01*
X162257440Y-107462500D01*
X162257440Y-107173479D01*
X162346173Y-107387699D01*
X162524802Y-107566327D01*
X162758191Y-107663000D01*
X163036250Y-107663000D01*
X163195000Y-107504250D01*
X163195000Y-106680000D01*
X162408250Y-106680000D01*
X162249500Y-106838750D01*
X162249500Y-107127583D01*
X162199492Y-106876175D01*
X162245000Y-106766309D01*
X162245000Y-106630750D01*
X162086250Y-106472000D01*
X161824971Y-106472000D01*
X161766710Y-106433071D01*
X161462500Y-106372560D01*
X161143000Y-106372560D01*
X161143000Y-106218000D01*
X161163000Y-106218000D01*
X161163000Y-106198000D01*
X161417000Y-106198000D01*
X161417000Y-106218000D01*
X162086250Y-106218000D01*
X162245000Y-106059250D01*
X162245000Y-105951690D01*
X162249500Y-105951690D01*
X162249500Y-106267250D01*
X162408250Y-106426000D01*
X163195000Y-106426000D01*
X163195000Y-105601750D01*
X163036250Y-105443000D01*
X162758191Y-105443000D01*
X162524802Y-105539673D01*
X162346173Y-105718301D01*
X162249500Y-105951690D01*
X162245000Y-105951690D01*
X162245000Y-105923691D01*
X162148327Y-105690302D01*
X161969699Y-105511673D01*
X161736310Y-105415000D01*
X161724802Y-105415000D01*
X161774473Y-105365329D01*
X161837929Y-105322929D01*
X162005904Y-105071537D01*
X162050000Y-104849852D01*
X162050000Y-104849848D01*
X162064888Y-104775001D01*
X162050000Y-104700154D01*
X162050000Y-104425750D01*
X162182500Y-104425750D01*
X162182500Y-104741310D01*
X162279173Y-104974699D01*
X162457802Y-105153327D01*
X162691191Y-105250000D01*
X162969250Y-105250000D01*
X163128000Y-105091250D01*
X163128000Y-104267000D01*
X162341250Y-104267000D01*
X162182500Y-104425750D01*
X162050000Y-104425750D01*
X162050000Y-103538690D01*
X162182500Y-103538690D01*
X162182500Y-103854250D01*
X162341250Y-104013000D01*
X163128000Y-104013000D01*
X163128000Y-103188750D01*
X162969250Y-103030000D01*
X162691191Y-103030000D01*
X162457802Y-103126673D01*
X162279173Y-103305301D01*
X162182500Y-103538690D01*
X162050000Y-103538690D01*
X162050000Y-100488750D01*
X162224000Y-100488750D01*
X162224000Y-100804310D01*
X162320673Y-101037699D01*
X162499302Y-101216327D01*
X162732691Y-101313000D01*
X163010750Y-101313000D01*
X163169500Y-101154250D01*
X163169500Y-100330000D01*
X162382750Y-100330000D01*
X162224000Y-100488750D01*
X162050000Y-100488750D01*
X162050000Y-100404846D01*
X162064888Y-100329999D01*
X162050000Y-100255152D01*
X162050000Y-100255148D01*
X162005904Y-100033463D01*
X161837929Y-99782071D01*
X161774473Y-99739671D01*
X161636492Y-99601690D01*
X162224000Y-99601690D01*
X162224000Y-99917250D01*
X162382750Y-100076000D01*
X163169500Y-100076000D01*
X163169500Y-99251750D01*
X163010750Y-99093000D01*
X162732691Y-99093000D01*
X162499302Y-99189673D01*
X162320673Y-99368301D01*
X162224000Y-99601690D01*
X161636492Y-99601690D01*
X161122026Y-99087224D01*
X161163000Y-99046250D01*
X161163000Y-98402000D01*
X161143000Y-98402000D01*
X161143000Y-98247440D01*
X161437000Y-98247440D01*
X161437000Y-98402000D01*
X161417000Y-98402000D01*
X161417000Y-99046250D01*
X161575750Y-99205000D01*
X161736310Y-99205000D01*
X161969699Y-99108327D01*
X162148327Y-98929698D01*
X162245000Y-98696309D01*
X162245000Y-98560750D01*
X162086252Y-98402002D01*
X162228429Y-98402002D01*
X162320673Y-98624699D01*
X162499302Y-98803327D01*
X162732691Y-98900000D01*
X163010750Y-98900000D01*
X163169500Y-98741250D01*
X163169500Y-97917000D01*
X162382750Y-97917000D01*
X162224000Y-98075750D01*
X162224000Y-98147998D01*
X162086252Y-98147998D01*
X162245000Y-97989250D01*
X162245000Y-97853691D01*
X162199492Y-97743825D01*
X162243306Y-97523556D01*
X162382750Y-97663000D01*
G36*
X163030000Y-92317440D02*
X164630000Y-92317440D01*
X164852211Y-92273240D01*
X164882071Y-92317929D01*
X164945527Y-92360329D01*
X165133462Y-92485904D01*
X165165472Y-92492271D01*
X165355148Y-92530000D01*
X165355152Y-92530000D01*
X165430000Y-92544888D01*
X165504848Y-92530000D01*
X167279475Y-92530000D01*
X167261673Y-92547802D01*
X167165000Y-92781191D01*
X167165000Y-93059250D01*
X167323750Y-93218000D01*
X168148000Y-93218000D01*
X168148000Y-93198000D01*
X168402000Y-93198000D01*
X168402000Y-93218000D01*
X168422000Y-93218000D01*
X168422000Y-93472000D01*
X168402000Y-93472000D01*
X168402000Y-94258750D01*
X168560750Y-94417500D01*
X168876310Y-94417500D01*
X168936560Y-94392544D01*
X168936560Y-94830000D01*
X168985843Y-95077765D01*
X169126191Y-95287809D01*
X169336235Y-95428157D01*
X169584000Y-95477440D01*
X171284000Y-95477440D01*
X171350001Y-95464312D01*
X171350001Y-96142782D01*
X171273765Y-96091843D01*
X171026000Y-96042560D01*
X169684138Y-96042560D01*
X169597425Y-95955847D01*
X169548049Y-95881951D01*
X169255310Y-95686348D01*
X168997165Y-95635000D01*
X168997161Y-95635000D01*
X168910000Y-95617663D01*
X168822839Y-95635000D01*
X166930694Y-95635000D01*
X166809983Y-95585000D01*
X166438017Y-95585000D01*
X166094365Y-95727345D01*
X165831345Y-95990365D01*
X165781345Y-96111076D01*
X165202528Y-96689894D01*
X165090250Y-96667560D01*
X164846698Y-96667560D01*
X164989699Y-96608327D01*
X165168327Y-96429698D01*
X165265000Y-96196309D01*
X165265000Y-94855750D01*
X165106250Y-94697000D01*
X163957000Y-94697000D01*
X163957000Y-94717000D01*
X163703000Y-94717000D01*
X163703000Y-94697000D01*
X163683000Y-94697000D01*
X163683000Y-94443000D01*
X163703000Y-94443000D01*
X163703000Y-92593750D01*
X163957000Y-92593750D01*
X163957000Y-94443000D01*
X165106250Y-94443000D01*
X165265000Y-94284250D01*
X165265000Y-93630750D01*
X167165000Y-93630750D01*
X167165000Y-93908809D01*
X167261673Y-94142198D01*
X167440301Y-94320827D01*
X167673690Y-94417500D01*
X167989250Y-94417500D01*
X168148000Y-94258750D01*
X168148000Y-93472000D01*
X167323750Y-93472000D01*
X167165000Y-93630750D01*
X165265000Y-93630750D01*
X165265000Y-92943691D01*
X165168327Y-92710302D01*
X164989699Y-92531673D01*
X164756310Y-92435000D01*
X164115750Y-92435000D01*
X163957000Y-92593750D01*
X163703000Y-92593750D01*
X163544250Y-92435000D01*
X162903690Y-92435000D01*
X162685000Y-92525584D01*
X162685000Y-92389801D01*
X162802594Y-92272207D01*
X163030000Y-92317440D01*
X163030000Y-92317440D01*
G37*
X163030000Y-92317440D02*
X164630000Y-92317440D01*
X164852211Y-92273240D01*
X164882071Y-92317929D01*
X164945527Y-92360329D01*
X165133462Y-92485904D01*
X165165472Y-92492271D01*
X165355148Y-92530000D01*
X165355152Y-92530000D01*
X165430000Y-92544888D01*
X165504848Y-92530000D01*
X167279475Y-92530000D01*
X167261673Y-92547802D01*
X167165000Y-92781191D01*
X167165000Y-93059250D01*
X167323750Y-93218000D01*
X168148000Y-93218000D01*
X168148000Y-93198000D01*
X168402000Y-93198000D01*
X168402000Y-93218000D01*
X168422000Y-93218000D01*
X168422000Y-93472000D01*
X168402000Y-93472000D01*
X168402000Y-94258750D01*
X168560750Y-94417500D01*
X168876310Y-94417500D01*
X168936560Y-94392544D01*
X168936560Y-94830000D01*
X168985843Y-95077765D01*
X169126191Y-95287809D01*
X169336235Y-95428157D01*
X169584000Y-95477440D01*
X171284000Y-95477440D01*
X171350001Y-95464312D01*
X171350001Y-96142782D01*
X171273765Y-96091843D01*
X171026000Y-96042560D01*
X169684138Y-96042560D01*
X169597425Y-95955847D01*
X169548049Y-95881951D01*
X169255310Y-95686348D01*
X168997165Y-95635000D01*
X168997161Y-95635000D01*
X168910000Y-95617663D01*
X168822839Y-95635000D01*
X166930694Y-95635000D01*
X166809983Y-95585000D01*
X166438017Y-95585000D01*
X166094365Y-95727345D01*
X165831345Y-95990365D01*
X165781345Y-96111076D01*
X165202528Y-96689894D01*
X165090250Y-96667560D01*
X164846698Y-96667560D01*
X164989699Y-96608327D01*
X165168327Y-96429698D01*
X165265000Y-96196309D01*
X165265000Y-94855750D01*
X165106250Y-94697000D01*
X163957000Y-94697000D01*
X163957000Y-94717000D01*
X163703000Y-94717000D01*
X163703000Y-94697000D01*
X163683000Y-94697000D01*
X163683000Y-94443000D01*
X163703000Y-94443000D01*
X163703000Y-92593750D01*
X163957000Y-92593750D01*
X163957000Y-94443000D01*
X165106250Y-94443000D01*
X165265000Y-94284250D01*
X165265000Y-93630750D01*
X167165000Y-93630750D01*
X167165000Y-93908809D01*
X167261673Y-94142198D01*
X167440301Y-94320827D01*
X167673690Y-94417500D01*
X167989250Y-94417500D01*
X168148000Y-94258750D01*
X168148000Y-93472000D01*
X167323750Y-93472000D01*
X167165000Y-93630750D01*
X165265000Y-93630750D01*
X165265000Y-92943691D01*
X165168327Y-92710302D01*
X164989699Y-92531673D01*
X164756310Y-92435000D01*
X164115750Y-92435000D01*
X163957000Y-92593750D01*
X163703000Y-92593750D01*
X163544250Y-92435000D01*
X162903690Y-92435000D01*
X162685000Y-92525584D01*
X162685000Y-92389801D01*
X162802594Y-92272207D01*
X163030000Y-92317440D01*
G36*
X165828396Y-71092938D02*
X165275000Y-72428954D01*
X165275000Y-73875046D01*
X165828396Y-75211062D01*
X166129894Y-75512560D01*
X166045000Y-75512560D01*
X165862780Y-75548805D01*
X165805309Y-75525000D01*
X165639750Y-75525000D01*
X165481000Y-75683750D01*
X165481000Y-75861116D01*
X165446843Y-75912235D01*
X165397560Y-76160000D01*
X165397560Y-77510000D01*
X165446843Y-77757765D01*
X165481000Y-77808884D01*
X165481000Y-77986250D01*
X165639750Y-78145000D01*
X165805309Y-78145000D01*
X165862780Y-78121195D01*
X166045000Y-78157440D01*
X166695000Y-78157440D01*
X166942765Y-78108157D01*
X167152809Y-77967809D01*
X167293157Y-77757765D01*
X167300669Y-77720000D01*
X167329710Y-77720000D01*
X167364365Y-77754655D01*
X167708017Y-77897000D01*
X168079983Y-77897000D01*
X168423635Y-77754655D01*
X168686655Y-77491635D01*
X168829000Y-77147983D01*
X168829000Y-76787000D01*
X169633046Y-76787000D01*
X170969062Y-76233604D01*
X171350001Y-75852665D01*
X171350001Y-79280000D01*
X169703750Y-79280000D01*
X169545000Y-79438750D01*
X169545000Y-81788000D01*
X169565000Y-81788000D01*
X169565000Y-82042000D01*
X169545000Y-82042000D01*
X169545000Y-82062000D01*
X169291000Y-82062000D01*
X169291000Y-82042000D01*
X163957000Y-82042000D01*
X163957000Y-82062000D01*
X163703000Y-82062000D01*
X163703000Y-82042000D01*
X158369000Y-82042000D01*
X158369000Y-84391250D01*
X158527750Y-84550000D01*
X160141974Y-84550000D01*
X160175975Y-84584000D01*
X155776848Y-84584000D01*
X155702000Y-84569112D01*
X155627152Y-84584000D01*
X150696848Y-84584000D01*
X150622000Y-84569112D01*
X150547152Y-84584000D01*
X150547148Y-84584000D01*
X150373605Y-84618520D01*
X150325462Y-84628096D01*
X150186207Y-84721144D01*
X150074071Y-84796071D01*
X150031671Y-84859527D01*
X148704199Y-86187000D01*
X148658017Y-86187000D01*
X148314365Y-86329345D01*
X148051345Y-86592365D01*
X147909000Y-86936017D01*
X147909000Y-87307983D01*
X148051345Y-87651635D01*
X148314365Y-87914655D01*
X148658017Y-88057000D01*
X149029983Y-88057000D01*
X149373635Y-87914655D01*
X149636655Y-87651635D01*
X149779000Y-87307983D01*
X149779000Y-87261801D01*
X150936802Y-86104000D01*
X153867199Y-86104000D01*
X153784199Y-86187000D01*
X153738017Y-86187000D01*
X153394365Y-86329345D01*
X153131345Y-86592365D01*
X152989000Y-86936017D01*
X152989000Y-87307983D01*
X153131345Y-87651635D01*
X153394365Y-87914655D01*
X153738017Y-88057000D01*
X154109983Y-88057000D01*
X154453635Y-87914655D01*
X154716655Y-87651635D01*
X154859000Y-87307983D01*
X154859000Y-87261801D01*
X156016802Y-86104000D01*
X158831000Y-86104000D01*
X158831000Y-86291983D01*
X158973345Y-86635635D01*
X159006001Y-86668291D01*
X159006000Y-89601198D01*
X157707440Y-90899759D01*
X157707440Y-90844000D01*
X157658157Y-90596235D01*
X157517809Y-90386191D01*
X157307765Y-90245843D01*
X157262381Y-90236816D01*
X157280625Y-90224625D01*
X157608839Y-89733418D01*
X157724092Y-89154000D01*
X157608839Y-88574582D01*
X157280625Y-88083375D01*
X156789418Y-87755161D01*
X156356256Y-87669000D01*
X156063744Y-87669000D01*
X155630582Y-87755161D01*
X155139375Y-88083375D01*
X154811161Y-88574582D01*
X154746034Y-88902000D01*
X147985853Y-88902000D01*
X148082000Y-88669881D01*
X148082000Y-88114119D01*
X147869320Y-87600663D01*
X147476337Y-87207680D01*
X147269487Y-87122000D01*
X147476337Y-87036320D01*
X147869320Y-86643337D01*
X148082000Y-86129881D01*
X148082000Y-85574119D01*
X147869320Y-85060663D01*
X147476337Y-84667680D01*
X147269487Y-84582000D01*
X147476337Y-84496320D01*
X147869320Y-84103337D01*
X148082000Y-83589881D01*
X148082000Y-83034119D01*
X147869320Y-82520663D01*
X147476337Y-82127680D01*
X147269487Y-82042000D01*
X147476337Y-81956320D01*
X147869320Y-81563337D01*
X148082000Y-81049881D01*
X148082000Y-80494119D01*
X147869320Y-79980663D01*
X147476337Y-79587680D01*
X147269487Y-79502000D01*
X147476337Y-79416320D01*
X147869320Y-79023337D01*
X148082000Y-78509881D01*
X148082000Y-77954119D01*
X147869320Y-77440663D01*
X147476337Y-77047680D01*
X146962881Y-76835000D01*
X146407119Y-76835000D01*
X145893663Y-77047680D01*
X145500680Y-77440663D01*
X145415000Y-77647513D01*
X145329320Y-77440663D01*
X144936337Y-77047680D01*
X144422881Y-76835000D01*
X143867119Y-76835000D01*
X143353663Y-77047680D01*
X142975000Y-77426343D01*
X142975000Y-75852666D01*
X143355938Y-76233604D01*
X144691954Y-76787000D01*
X146138046Y-76787000D01*
X147474062Y-76233604D01*
X148141271Y-75566395D01*
X148159843Y-75659765D01*
X148261564Y-75812000D01*
X148159843Y-75964235D01*
X148110560Y-76212000D01*
X148110560Y-77712000D01*
X148159843Y-77959765D01*
X148261564Y-78112000D01*
X148159843Y-78264235D01*
X148110560Y-78512000D01*
X148110560Y-80012000D01*
X148159843Y-80259765D01*
X148300191Y-80469809D01*
X148510235Y-80610157D01*
X148758000Y-80659440D01*
X148998001Y-80659440D01*
X148998001Y-81408148D01*
X148983112Y-81483000D01*
X149042097Y-81779537D01*
X149105060Y-81873768D01*
X149105060Y-82171250D01*
X149170995Y-82502727D01*
X149358761Y-82783739D01*
X149639773Y-82971505D01*
X149971250Y-83037440D01*
X150408750Y-83037440D01*
X150740227Y-82971505D01*
X150977500Y-82812964D01*
X151214773Y-82971505D01*
X151546250Y-83037440D01*
X151983750Y-83037440D01*
X152315227Y-82971505D01*
X152596239Y-82783739D01*
X152784005Y-82502727D01*
X152844072Y-82200750D01*
X155607000Y-82200750D01*
X155607000Y-84041310D01*
X155703673Y-84274699D01*
X155882302Y-84453327D01*
X156115691Y-84550000D01*
X157956250Y-84550000D01*
X158115000Y-84391250D01*
X158115000Y-82042000D01*
X155765750Y-82042000D01*
X155607000Y-82200750D01*
X152844072Y-82200750D01*
X152849940Y-82171250D01*
X152849940Y-81904862D01*
X153138473Y-81616329D01*
X153201929Y-81573929D01*
X153369904Y-81322537D01*
X153414000Y-81100852D01*
X153414000Y-81100847D01*
X153428888Y-81026000D01*
X153414000Y-80951153D01*
X153414000Y-79048290D01*
X153446655Y-79015635D01*
X153589000Y-78671983D01*
X153589000Y-78300017D01*
X153446655Y-77956365D01*
X153183635Y-77693345D01*
X152946209Y-77595000D01*
X154410560Y-77595000D01*
X154410560Y-78862000D01*
X154459843Y-79109765D01*
X154600191Y-79319809D01*
X154810235Y-79460157D01*
X155058000Y-79509440D01*
X155749534Y-79509440D01*
X155703673Y-79555301D01*
X155607000Y-79788690D01*
X155607000Y-81629250D01*
X155765750Y-81788000D01*
X158115000Y-81788000D01*
X158115000Y-81768000D01*
X158369000Y-81768000D01*
X158369000Y-81788000D01*
X163703000Y-81788000D01*
X163703000Y-81768000D01*
X163957000Y-81768000D01*
X163957000Y-81788000D01*
X169291000Y-81788000D01*
X169291000Y-79438750D01*
X169132250Y-79280000D01*
X167518026Y-79280000D01*
X167414698Y-79176673D01*
X167181309Y-79080000D01*
X165066290Y-79080000D01*
X165130655Y-79015635D01*
X165273000Y-78671983D01*
X165273000Y-78300017D01*
X165167627Y-78045623D01*
X165227000Y-77986250D01*
X165227000Y-77807719D01*
X165298000Y-77636310D01*
X165298000Y-77120750D01*
X165227000Y-77049750D01*
X165227000Y-76962000D01*
X164465000Y-76962000D01*
X164465000Y-76982000D01*
X164211000Y-76982000D01*
X164211000Y-76962000D01*
X163449000Y-76962000D01*
X163449000Y-76982000D01*
X163278440Y-76982000D01*
X163278440Y-76160000D01*
X163253316Y-76033690D01*
X163378000Y-76033690D01*
X163378000Y-76549250D01*
X163449000Y-76620250D01*
X163449000Y-76708000D01*
X164211000Y-76708000D01*
X164211000Y-76620250D01*
X164282000Y-76549250D01*
X164282000Y-76033690D01*
X164394000Y-76033690D01*
X164394000Y-76549250D01*
X164465000Y-76620250D01*
X164465000Y-76708000D01*
X165227000Y-76708000D01*
X165227000Y-76620250D01*
X165298000Y-76549250D01*
X165298000Y-76033690D01*
X165227000Y-75862281D01*
X165227000Y-75683750D01*
X165068250Y-75525000D01*
X164902691Y-75525000D01*
X164846000Y-75548482D01*
X164789309Y-75525000D01*
X164623750Y-75525000D01*
X164465000Y-75683750D01*
X164465000Y-75862281D01*
X164394000Y-76033690D01*
X164282000Y-76033690D01*
X164211000Y-75862281D01*
X164211000Y-75683750D01*
X164052250Y-75525000D01*
X163886691Y-75525000D01*
X163830000Y-75548482D01*
X163773309Y-75525000D01*
X163607750Y-75525000D01*
X163449000Y-75683750D01*
X163449000Y-75862281D01*
X163378000Y-76033690D01*
X163253316Y-76033690D01*
X163229157Y-75912235D01*
X163195000Y-75861116D01*
X163195000Y-75683750D01*
X163036250Y-75525000D01*
X162870691Y-75525000D01*
X162813220Y-75548805D01*
X162708846Y-75528044D01*
X162225000Y-75044199D01*
X162225000Y-74998017D01*
X162082655Y-74654365D01*
X161819635Y-74391345D01*
X161475983Y-74249000D01*
X161104017Y-74249000D01*
X160760365Y-74391345D01*
X160497345Y-74654365D01*
X160355000Y-74998017D01*
X160355000Y-75369983D01*
X160497345Y-75713635D01*
X160498663Y-75714953D01*
X160366843Y-75912235D01*
X160334467Y-76075000D01*
X160067866Y-76075000D01*
X159951983Y-76027000D01*
X159580017Y-76027000D01*
X159236365Y-76169345D01*
X158973345Y-76432365D01*
X158831000Y-76776017D01*
X158831000Y-77147983D01*
X158973345Y-77491635D01*
X159082710Y-77601000D01*
X158040694Y-77601000D01*
X157919983Y-77551000D01*
X157705440Y-77551000D01*
X157705440Y-75062000D01*
X157656157Y-74814235D01*
X157591049Y-74716795D01*
X157722595Y-74585249D01*
X157903000Y-74149711D01*
X157903000Y-73678289D01*
X157722595Y-73242751D01*
X157601284Y-73121440D01*
X157818000Y-73121440D01*
X158065765Y-73072157D01*
X158275809Y-72931809D01*
X158319669Y-72866169D01*
X158323641Y-72876099D01*
X158538976Y-72957180D01*
X158253405Y-73242751D01*
X158073000Y-73678289D01*
X158073000Y-74149711D01*
X158253405Y-74585249D01*
X158586751Y-74918595D01*
X159022289Y-75099000D01*
X159493711Y-75099000D01*
X159929249Y-74918595D01*
X160262595Y-74585249D01*
X160443000Y-74149711D01*
X160443000Y-73678289D01*
X160262595Y-73242751D01*
X159982761Y-72962917D01*
X160192359Y-72876099D01*
X160303263Y-72598868D01*
X159258000Y-71553605D01*
X159243858Y-71567748D01*
X159064253Y-71388143D01*
X159078395Y-71374000D01*
X159064253Y-71359858D01*
X159243858Y-71180253D01*
X159258000Y-71194395D01*
X159272143Y-71180253D01*
X159451748Y-71359858D01*
X159437605Y-71374000D01*
X160482868Y-72419263D01*
X160760099Y-72308359D01*
X161003323Y-71662407D01*
X160980836Y-70972547D01*
X160876865Y-70721539D01*
X166204329Y-70717005D01*
X165828396Y-71092938D01*
X165828396Y-71092938D01*
G37*
X165828396Y-71092938D02*
X165275000Y-72428954D01*
X165275000Y-73875046D01*
X165828396Y-75211062D01*
X166129894Y-75512560D01*
X166045000Y-75512560D01*
X165862780Y-75548805D01*
X165805309Y-75525000D01*
X165639750Y-75525000D01*
X165481000Y-75683750D01*
X165481000Y-75861116D01*
X165446843Y-75912235D01*
X165397560Y-76160000D01*
X165397560Y-77510000D01*
X165446843Y-77757765D01*
X165481000Y-77808884D01*
X165481000Y-77986250D01*
X165639750Y-78145000D01*
X165805309Y-78145000D01*
X165862780Y-78121195D01*
X166045000Y-78157440D01*
X166695000Y-78157440D01*
X166942765Y-78108157D01*
X167152809Y-77967809D01*
X167293157Y-77757765D01*
X167300669Y-77720000D01*
X167329710Y-77720000D01*
X167364365Y-77754655D01*
X167708017Y-77897000D01*
X168079983Y-77897000D01*
X168423635Y-77754655D01*
X168686655Y-77491635D01*
X168829000Y-77147983D01*
X168829000Y-76787000D01*
X169633046Y-76787000D01*
X170969062Y-76233604D01*
X171350001Y-75852665D01*
X171350001Y-79280000D01*
X169703750Y-79280000D01*
X169545000Y-79438750D01*
X169545000Y-81788000D01*
X169565000Y-81788000D01*
X169565000Y-82042000D01*
X169545000Y-82042000D01*
X169545000Y-82062000D01*
X169291000Y-82062000D01*
X169291000Y-82042000D01*
X163957000Y-82042000D01*
X163957000Y-82062000D01*
X163703000Y-82062000D01*
X163703000Y-82042000D01*
X158369000Y-82042000D01*
X158369000Y-84391250D01*
X158527750Y-84550000D01*
X160141974Y-84550000D01*
X160175975Y-84584000D01*
X155776848Y-84584000D01*
X155702000Y-84569112D01*
X155627152Y-84584000D01*
X150696848Y-84584000D01*
X150622000Y-84569112D01*
X150547152Y-84584000D01*
X150547148Y-84584000D01*
X150373605Y-84618520D01*
X150325462Y-84628096D01*
X150186207Y-84721144D01*
X150074071Y-84796071D01*
X150031671Y-84859527D01*
X148704199Y-86187000D01*
X148658017Y-86187000D01*
X148314365Y-86329345D01*
X148051345Y-86592365D01*
X147909000Y-86936017D01*
X147909000Y-87307983D01*
X148051345Y-87651635D01*
X148314365Y-87914655D01*
X148658017Y-88057000D01*
X149029983Y-88057000D01*
X149373635Y-87914655D01*
X149636655Y-87651635D01*
X149779000Y-87307983D01*
X149779000Y-87261801D01*
X150936802Y-86104000D01*
X153867199Y-86104000D01*
X153784199Y-86187000D01*
X153738017Y-86187000D01*
X153394365Y-86329345D01*
X153131345Y-86592365D01*
X152989000Y-86936017D01*
X152989000Y-87307983D01*
X153131345Y-87651635D01*
X153394365Y-87914655D01*
X153738017Y-88057000D01*
X154109983Y-88057000D01*
X154453635Y-87914655D01*
X154716655Y-87651635D01*
X154859000Y-87307983D01*
X154859000Y-87261801D01*
X156016802Y-86104000D01*
X158831000Y-86104000D01*
X158831000Y-86291983D01*
X158973345Y-86635635D01*
X159006001Y-86668291D01*
X159006000Y-89601198D01*
X157707440Y-90899759D01*
X157707440Y-90844000D01*
X157658157Y-90596235D01*
X157517809Y-90386191D01*
X157307765Y-90245843D01*
X157262381Y-90236816D01*
X157280625Y-90224625D01*
X157608839Y-89733418D01*
X157724092Y-89154000D01*
X157608839Y-88574582D01*
X157280625Y-88083375D01*
X156789418Y-87755161D01*
X156356256Y-87669000D01*
X156063744Y-87669000D01*
X155630582Y-87755161D01*
X155139375Y-88083375D01*
X154811161Y-88574582D01*
X154746034Y-88902000D01*
X147985853Y-88902000D01*
X148082000Y-88669881D01*
X148082000Y-88114119D01*
X147869320Y-87600663D01*
X147476337Y-87207680D01*
X147269487Y-87122000D01*
X147476337Y-87036320D01*
X147869320Y-86643337D01*
X148082000Y-86129881D01*
X148082000Y-85574119D01*
X147869320Y-85060663D01*
X147476337Y-84667680D01*
X147269487Y-84582000D01*
X147476337Y-84496320D01*
X147869320Y-84103337D01*
X148082000Y-83589881D01*
X148082000Y-83034119D01*
X147869320Y-82520663D01*
X147476337Y-82127680D01*
X147269487Y-82042000D01*
X147476337Y-81956320D01*
X147869320Y-81563337D01*
X148082000Y-81049881D01*
X148082000Y-80494119D01*
X147869320Y-79980663D01*
X147476337Y-79587680D01*
X147269487Y-79502000D01*
X147476337Y-79416320D01*
X147869320Y-79023337D01*
X148082000Y-78509881D01*
X148082000Y-77954119D01*
X147869320Y-77440663D01*
X147476337Y-77047680D01*
X146962881Y-76835000D01*
X146407119Y-76835000D01*
X145893663Y-77047680D01*
X145500680Y-77440663D01*
X145415000Y-77647513D01*
X145329320Y-77440663D01*
X144936337Y-77047680D01*
X144422881Y-76835000D01*
X143867119Y-76835000D01*
X143353663Y-77047680D01*
X142975000Y-77426343D01*
X142975000Y-75852666D01*
X143355938Y-76233604D01*
X144691954Y-76787000D01*
X146138046Y-76787000D01*
X147474062Y-76233604D01*
X148141271Y-75566395D01*
X148159843Y-75659765D01*
X148261564Y-75812000D01*
X148159843Y-75964235D01*
X148110560Y-76212000D01*
X148110560Y-77712000D01*
X148159843Y-77959765D01*
X148261564Y-78112000D01*
X148159843Y-78264235D01*
X148110560Y-78512000D01*
X148110560Y-80012000D01*
X148159843Y-80259765D01*
X148300191Y-80469809D01*
X148510235Y-80610157D01*
X148758000Y-80659440D01*
X148998001Y-80659440D01*
X148998001Y-81408148D01*
X148983112Y-81483000D01*
X149042097Y-81779537D01*
X149105060Y-81873768D01*
X149105060Y-82171250D01*
X149170995Y-82502727D01*
X149358761Y-82783739D01*
X149639773Y-82971505D01*
X149971250Y-83037440D01*
X150408750Y-83037440D01*
X150740227Y-82971505D01*
X150977500Y-82812964D01*
X151214773Y-82971505D01*
X151546250Y-83037440D01*
X151983750Y-83037440D01*
X152315227Y-82971505D01*
X152596239Y-82783739D01*
X152784005Y-82502727D01*
X152844072Y-82200750D01*
X155607000Y-82200750D01*
X155607000Y-84041310D01*
X155703673Y-84274699D01*
X155882302Y-84453327D01*
X156115691Y-84550000D01*
X157956250Y-84550000D01*
X158115000Y-84391250D01*
X158115000Y-82042000D01*
X155765750Y-82042000D01*
X155607000Y-82200750D01*
X152844072Y-82200750D01*
X152849940Y-82171250D01*
X152849940Y-81904862D01*
X153138473Y-81616329D01*
X153201929Y-81573929D01*
X153369904Y-81322537D01*
X153414000Y-81100852D01*
X153414000Y-81100847D01*
X153428888Y-81026000D01*
X153414000Y-80951153D01*
X153414000Y-79048290D01*
X153446655Y-79015635D01*
X153589000Y-78671983D01*
X153589000Y-78300017D01*
X153446655Y-77956365D01*
X153183635Y-77693345D01*
X152946209Y-77595000D01*
X154410560Y-77595000D01*
X154410560Y-78862000D01*
X154459843Y-79109765D01*
X154600191Y-79319809D01*
X154810235Y-79460157D01*
X155058000Y-79509440D01*
X155749534Y-79509440D01*
X155703673Y-79555301D01*
X155607000Y-79788690D01*
X155607000Y-81629250D01*
X155765750Y-81788000D01*
X158115000Y-81788000D01*
X158115000Y-81768000D01*
X158369000Y-81768000D01*
X158369000Y-81788000D01*
X163703000Y-81788000D01*
X163703000Y-81768000D01*
X163957000Y-81768000D01*
X163957000Y-81788000D01*
X169291000Y-81788000D01*
X169291000Y-79438750D01*
X169132250Y-79280000D01*
X167518026Y-79280000D01*
X167414698Y-79176673D01*
X167181309Y-79080000D01*
X165066290Y-79080000D01*
X165130655Y-79015635D01*
X165273000Y-78671983D01*
X165273000Y-78300017D01*
X165167627Y-78045623D01*
X165227000Y-77986250D01*
X165227000Y-77807719D01*
X165298000Y-77636310D01*
X165298000Y-77120750D01*
X165227000Y-77049750D01*
X165227000Y-76962000D01*
X164465000Y-76962000D01*
X164465000Y-76982000D01*
X164211000Y-76982000D01*
X164211000Y-76962000D01*
X163449000Y-76962000D01*
X163449000Y-76982000D01*
X163278440Y-76982000D01*
X163278440Y-76160000D01*
X163253316Y-76033690D01*
X163378000Y-76033690D01*
X163378000Y-76549250D01*
X163449000Y-76620250D01*
X163449000Y-76708000D01*
X164211000Y-76708000D01*
X164211000Y-76620250D01*
X164282000Y-76549250D01*
X164282000Y-76033690D01*
X164394000Y-76033690D01*
X164394000Y-76549250D01*
X164465000Y-76620250D01*
X164465000Y-76708000D01*
X165227000Y-76708000D01*
X165227000Y-76620250D01*
X165298000Y-76549250D01*
X165298000Y-76033690D01*
X165227000Y-75862281D01*
X165227000Y-75683750D01*
X165068250Y-75525000D01*
X164902691Y-75525000D01*
X164846000Y-75548482D01*
X164789309Y-75525000D01*
X164623750Y-75525000D01*
X164465000Y-75683750D01*
X164465000Y-75862281D01*
X164394000Y-76033690D01*
X164282000Y-76033690D01*
X164211000Y-75862281D01*
X164211000Y-75683750D01*
X164052250Y-75525000D01*
X163886691Y-75525000D01*
X163830000Y-75548482D01*
X163773309Y-75525000D01*
X163607750Y-75525000D01*
X163449000Y-75683750D01*
X163449000Y-75862281D01*
X163378000Y-76033690D01*
X163253316Y-76033690D01*
X163229157Y-75912235D01*
X163195000Y-75861116D01*
X163195000Y-75683750D01*
X163036250Y-75525000D01*
X162870691Y-75525000D01*
X162813220Y-75548805D01*
X162708846Y-75528044D01*
X162225000Y-75044199D01*
X162225000Y-74998017D01*
X162082655Y-74654365D01*
X161819635Y-74391345D01*
X161475983Y-74249000D01*
X161104017Y-74249000D01*
X160760365Y-74391345D01*
X160497345Y-74654365D01*
X160355000Y-74998017D01*
X160355000Y-75369983D01*
X160497345Y-75713635D01*
X160498663Y-75714953D01*
X160366843Y-75912235D01*
X160334467Y-76075000D01*
X160067866Y-76075000D01*
X159951983Y-76027000D01*
X159580017Y-76027000D01*
X159236365Y-76169345D01*
X158973345Y-76432365D01*
X158831000Y-76776017D01*
X158831000Y-77147983D01*
X158973345Y-77491635D01*
X159082710Y-77601000D01*
X158040694Y-77601000D01*
X157919983Y-77551000D01*
X157705440Y-77551000D01*
X157705440Y-75062000D01*
X157656157Y-74814235D01*
X157591049Y-74716795D01*
X157722595Y-74585249D01*
X157903000Y-74149711D01*
X157903000Y-73678289D01*
X157722595Y-73242751D01*
X157601284Y-73121440D01*
X157818000Y-73121440D01*
X158065765Y-73072157D01*
X158275809Y-72931809D01*
X158319669Y-72866169D01*
X158323641Y-72876099D01*
X158538976Y-72957180D01*
X158253405Y-73242751D01*
X158073000Y-73678289D01*
X158073000Y-74149711D01*
X158253405Y-74585249D01*
X158586751Y-74918595D01*
X159022289Y-75099000D01*
X159493711Y-75099000D01*
X159929249Y-74918595D01*
X160262595Y-74585249D01*
X160443000Y-74149711D01*
X160443000Y-73678289D01*
X160262595Y-73242751D01*
X159982761Y-72962917D01*
X160192359Y-72876099D01*
X160303263Y-72598868D01*
X159258000Y-71553605D01*
X159243858Y-71567748D01*
X159064253Y-71388143D01*
X159078395Y-71374000D01*
X159064253Y-71359858D01*
X159243858Y-71180253D01*
X159258000Y-71194395D01*
X159272143Y-71180253D01*
X159451748Y-71359858D01*
X159437605Y-71374000D01*
X160482868Y-72419263D01*
X160760099Y-72308359D01*
X161003323Y-71662407D01*
X160980836Y-70972547D01*
X160876865Y-70721539D01*
X166204329Y-70717005D01*
X165828396Y-71092938D01*
G36*
X166847345Y-84814365D02*
X166705000Y-85158017D01*
X166705000Y-85529983D01*
X166769210Y-85685000D01*
X166655750Y-85685000D01*
X166497000Y-85843750D01*
X166497000Y-86868000D01*
X167171250Y-86868000D01*
X167330000Y-86709250D01*
X167330000Y-86227631D01*
X167454017Y-86279000D01*
X167825983Y-86279000D01*
X168169635Y-86136655D01*
X168432655Y-85873635D01*
X168442445Y-85850000D01*
X169055940Y-85850000D01*
X168992524Y-86003110D01*
X169113845Y-86233000D01*
X170307000Y-86233000D01*
X170307000Y-86213000D01*
X170561000Y-86213000D01*
X170561000Y-86233000D01*
X170581000Y-86233000D01*
X170581000Y-86487000D01*
X170561000Y-86487000D01*
X170561000Y-86507000D01*
X170307000Y-86507000D01*
X170307000Y-86487000D01*
X169113845Y-86487000D01*
X168992524Y-86716890D01*
X169162355Y-87126924D01*
X169552642Y-87555183D01*
X169682478Y-87616157D01*
X169363375Y-87829375D01*
X169155822Y-88140000D01*
X167680445Y-88140000D01*
X167670655Y-88116365D01*
X167407635Y-87853345D01*
X167321204Y-87817544D01*
X167330000Y-87796310D01*
X167330000Y-87280750D01*
X167171250Y-87122000D01*
X166497000Y-87122000D01*
X166497000Y-87142000D01*
X166326440Y-87142000D01*
X166326440Y-86320000D01*
X166277157Y-86072235D01*
X166243000Y-86021116D01*
X166243000Y-85843750D01*
X166084250Y-85685000D01*
X165918691Y-85685000D01*
X165861220Y-85708805D01*
X165679000Y-85672560D01*
X165223000Y-85672560D01*
X165223000Y-85142694D01*
X165273000Y-85021983D01*
X165273000Y-84750000D01*
X166911710Y-84750000D01*
X166847345Y-84814365D01*
X166847345Y-84814365D01*
G37*
X166847345Y-84814365D02*
X166705000Y-85158017D01*
X166705000Y-85529983D01*
X166769210Y-85685000D01*
X166655750Y-85685000D01*
X166497000Y-85843750D01*
X166497000Y-86868000D01*
X167171250Y-86868000D01*
X167330000Y-86709250D01*
X167330000Y-86227631D01*
X167454017Y-86279000D01*
X167825983Y-86279000D01*
X168169635Y-86136655D01*
X168432655Y-85873635D01*
X168442445Y-85850000D01*
X169055940Y-85850000D01*
X168992524Y-86003110D01*
X169113845Y-86233000D01*
X170307000Y-86233000D01*
X170307000Y-86213000D01*
X170561000Y-86213000D01*
X170561000Y-86233000D01*
X170581000Y-86233000D01*
X170581000Y-86487000D01*
X170561000Y-86487000D01*
X170561000Y-86507000D01*
X170307000Y-86507000D01*
X170307000Y-86487000D01*
X169113845Y-86487000D01*
X168992524Y-86716890D01*
X169162355Y-87126924D01*
X169552642Y-87555183D01*
X169682478Y-87616157D01*
X169363375Y-87829375D01*
X169155822Y-88140000D01*
X167680445Y-88140000D01*
X167670655Y-88116365D01*
X167407635Y-87853345D01*
X167321204Y-87817544D01*
X167330000Y-87796310D01*
X167330000Y-87280750D01*
X167171250Y-87122000D01*
X166497000Y-87122000D01*
X166497000Y-87142000D01*
X166326440Y-87142000D01*
X166326440Y-86320000D01*
X166277157Y-86072235D01*
X166243000Y-86021116D01*
X166243000Y-85843750D01*
X166084250Y-85685000D01*
X165918691Y-85685000D01*
X165861220Y-85708805D01*
X165679000Y-85672560D01*
X165223000Y-85672560D01*
X165223000Y-85142694D01*
X165273000Y-85021983D01*
X165273000Y-84750000D01*
X166911710Y-84750000D01*
X166847345Y-84814365D01*
G36*
X145500680Y-81563337D02*
X145893663Y-81956320D01*
X146100513Y-82042000D01*
X145893663Y-82127680D01*
X145500680Y-82520663D01*
X145421572Y-82711647D01*
X145367397Y-82580857D01*
X145125213Y-82511392D01*
X144324605Y-83312000D01*
X145125213Y-84112608D01*
X145367397Y-84043143D01*
X145417535Y-83902607D01*
X145500680Y-84103337D01*
X145893663Y-84496320D01*
X146100513Y-84582000D01*
X145893663Y-84667680D01*
X145500680Y-85060663D01*
X145415000Y-85267513D01*
X145329320Y-85060663D01*
X144936337Y-84667680D01*
X144745353Y-84588572D01*
X144876143Y-84534397D01*
X144945608Y-84292213D01*
X144145000Y-83491605D01*
X144130858Y-83505748D01*
X143951253Y-83326143D01*
X143965395Y-83312000D01*
X143951253Y-83297858D01*
X144130858Y-83118253D01*
X144145000Y-83132395D01*
X144945608Y-82331787D01*
X144876143Y-82089603D01*
X144735607Y-82039465D01*
X144936337Y-81956320D01*
X145329320Y-81563337D01*
X145415000Y-81356487D01*
X145500680Y-81563337D01*
X145500680Y-81563337D01*
G37*
X145500680Y-81563337D02*
X145893663Y-81956320D01*
X146100513Y-82042000D01*
X145893663Y-82127680D01*
X145500680Y-82520663D01*
X145421572Y-82711647D01*
X145367397Y-82580857D01*
X145125213Y-82511392D01*
X144324605Y-83312000D01*
X145125213Y-84112608D01*
X145367397Y-84043143D01*
X145417535Y-83902607D01*
X145500680Y-84103337D01*
X145893663Y-84496320D01*
X146100513Y-84582000D01*
X145893663Y-84667680D01*
X145500680Y-85060663D01*
X145415000Y-85267513D01*
X145329320Y-85060663D01*
X144936337Y-84667680D01*
X144745353Y-84588572D01*
X144876143Y-84534397D01*
X144945608Y-84292213D01*
X144145000Y-83491605D01*
X144130858Y-83505748D01*
X143951253Y-83326143D01*
X143965395Y-83312000D01*
X143951253Y-83297858D01*
X144130858Y-83118253D01*
X144145000Y-83132395D01*
X144945608Y-82331787D01*
X144876143Y-82089603D01*
X144735607Y-82039465D01*
X144936337Y-81956320D01*
X145329320Y-81563337D01*
X145415000Y-81356487D01*
X145500680Y-81563337D01*
G36*
X154970560Y-71869862D02*
X154629845Y-72210577D01*
X154555952Y-72259951D01*
X154506578Y-72333844D01*
X154506576Y-72333846D01*
X154360348Y-72552691D01*
X154291663Y-72898000D01*
X154309001Y-72985165D01*
X154309000Y-74334839D01*
X154291663Y-74422000D01*
X154309000Y-74509161D01*
X154309000Y-74509164D01*
X154360348Y-74767309D01*
X154444212Y-74892820D01*
X154410560Y-75062000D01*
X154410560Y-76075000D01*
X152946209Y-76075000D01*
X153183635Y-75976655D01*
X153446655Y-75713635D01*
X153589000Y-75369983D01*
X153589000Y-74998017D01*
X153446655Y-74654365D01*
X153183635Y-74391345D01*
X153062923Y-74341345D01*
X152692424Y-73970846D01*
X152643049Y-73896951D01*
X152350310Y-73701348D01*
X152092165Y-73650000D01*
X152092161Y-73650000D01*
X152005000Y-73632663D01*
X151917839Y-73650000D01*
X151346645Y-73650000D01*
X151215809Y-73454191D01*
X151065000Y-73353423D01*
X151065000Y-72115724D01*
X151102440Y-71927500D01*
X151102440Y-71882000D01*
X151257000Y-71882000D01*
X151257000Y-72551250D01*
X151415750Y-72710000D01*
X151551309Y-72710000D01*
X151784698Y-72613327D01*
X151963327Y-72434699D01*
X152060000Y-72201310D01*
X152060000Y-72040750D01*
X151901250Y-71882000D01*
X151257000Y-71882000D01*
X151102440Y-71882000D01*
X151102440Y-71582500D01*
X151041929Y-71278290D01*
X151003000Y-71220029D01*
X151003000Y-70958750D01*
X151257000Y-70958750D01*
X151257000Y-71628000D01*
X151901250Y-71628000D01*
X152060000Y-71469250D01*
X152060000Y-71308690D01*
X151963327Y-71075301D01*
X151784698Y-70896673D01*
X151551309Y-70800000D01*
X151415750Y-70800000D01*
X151257000Y-70958750D01*
X151003000Y-70958750D01*
X150844250Y-70800000D01*
X150708691Y-70800000D01*
X150598825Y-70845508D01*
X150307500Y-70787560D01*
X150012500Y-70787560D01*
X149708290Y-70848071D01*
X149450393Y-71020393D01*
X149278071Y-71278290D01*
X149217560Y-71582500D01*
X149217560Y-71927500D01*
X149278071Y-72231710D01*
X149295000Y-72257046D01*
X149295001Y-73264560D01*
X149050000Y-73264560D01*
X149050000Y-72428954D01*
X148496604Y-71092938D01*
X148136048Y-70732382D01*
X154970560Y-70726565D01*
X154970560Y-71869862D01*
X154970560Y-71869862D01*
G37*
X154970560Y-71869862D02*
X154629845Y-72210577D01*
X154555952Y-72259951D01*
X154506578Y-72333844D01*
X154506576Y-72333846D01*
X154360348Y-72552691D01*
X154291663Y-72898000D01*
X154309001Y-72985165D01*
X154309000Y-74334839D01*
X154291663Y-74422000D01*
X154309000Y-74509161D01*
X154309000Y-74509164D01*
X154360348Y-74767309D01*
X154444212Y-74892820D01*
X154410560Y-75062000D01*
X154410560Y-76075000D01*
X152946209Y-76075000D01*
X153183635Y-75976655D01*
X153446655Y-75713635D01*
X153589000Y-75369983D01*
X153589000Y-74998017D01*
X153446655Y-74654365D01*
X153183635Y-74391345D01*
X153062923Y-74341345D01*
X152692424Y-73970846D01*
X152643049Y-73896951D01*
X152350310Y-73701348D01*
X152092165Y-73650000D01*
X152092161Y-73650000D01*
X152005000Y-73632663D01*
X151917839Y-73650000D01*
X151346645Y-73650000D01*
X151215809Y-73454191D01*
X151065000Y-73353423D01*
X151065000Y-72115724D01*
X151102440Y-71927500D01*
X151102440Y-71882000D01*
X151257000Y-71882000D01*
X151257000Y-72551250D01*
X151415750Y-72710000D01*
X151551309Y-72710000D01*
X151784698Y-72613327D01*
X151963327Y-72434699D01*
X152060000Y-72201310D01*
X152060000Y-72040750D01*
X151901250Y-71882000D01*
X151257000Y-71882000D01*
X151102440Y-71882000D01*
X151102440Y-71582500D01*
X151041929Y-71278290D01*
X151003000Y-71220029D01*
X151003000Y-70958750D01*
X151257000Y-70958750D01*
X151257000Y-71628000D01*
X151901250Y-71628000D01*
X152060000Y-71469250D01*
X152060000Y-71308690D01*
X151963327Y-71075301D01*
X151784698Y-70896673D01*
X151551309Y-70800000D01*
X151415750Y-70800000D01*
X151257000Y-70958750D01*
X151003000Y-70958750D01*
X150844250Y-70800000D01*
X150708691Y-70800000D01*
X150598825Y-70845508D01*
X150307500Y-70787560D01*
X150012500Y-70787560D01*
X149708290Y-70848071D01*
X149450393Y-71020393D01*
X149278071Y-71278290D01*
X149217560Y-71582500D01*
X149217560Y-71927500D01*
X149278071Y-72231710D01*
X149295000Y-72257046D01*
X149295001Y-73264560D01*
X149050000Y-73264560D01*
X149050000Y-72428954D01*
X148496604Y-71092938D01*
X148136048Y-70732382D01*
X154970560Y-70726565D01*
X154970560Y-71869862D01*
G04 #@! TD*
M02*
