G04 #@! TF.GenerationSoftware,KiCad,Pcbnew,(5.0.0)*
G04 #@! TF.CreationDate,2018-10-12T16:08:17+01:00*
G04 #@! TF.ProjectId,Motor Shield,4D6F746F7220536869656C642E6B6963,rev?*
G04 #@! TF.SameCoordinates,Original*
G04 #@! TF.FileFunction,Copper,L2,Bot,Signal*
G04 #@! TF.FilePolarity,Positive*
%FSLAX46Y46*%
G04 Gerber Fmt 4.6, Leading zero omitted, Abs format (unit mm)*
G04 Created by KiCad (PCBNEW (5.0.0)) date 10/12/18 16:08:17*
%MOMM*%
%LPD*%
G01*
G04 APERTURE LIST*
G04 #@! TA.AperFunction,ComponentPad*
%ADD10C,2.200000*%
G04 #@! TD*
G04 #@! TA.AperFunction,ComponentPad*
%ADD11R,2.200000X2.200000*%
G04 #@! TD*
G04 #@! TA.AperFunction,ComponentPad*
%ADD12R,1.700000X1.700000*%
G04 #@! TD*
G04 #@! TA.AperFunction,ComponentPad*
%ADD13O,1.700000X1.700000*%
G04 #@! TD*
G04 #@! TA.AperFunction,ComponentPad*
%ADD14C,6.000000*%
G04 #@! TD*
G04 #@! TA.AperFunction,ComponentPad*
%ADD15C,1.524000*%
G04 #@! TD*
G04 #@! TA.AperFunction,ViaPad*
%ADD16C,0.600000*%
G04 #@! TD*
G04 #@! TA.AperFunction,Conductor*
%ADD17C,0.250000*%
G04 #@! TD*
G04 #@! TA.AperFunction,Conductor*
%ADD18C,0.500000*%
G04 #@! TD*
G04 #@! TA.AperFunction,Conductor*
%ADD19C,0.254000*%
G04 #@! TD*
G04 APERTURE END LIST*
D10*
G04 #@! TO.P,J4,2*
G04 #@! TO.N,OUT3*
X169926000Y-106680000D03*
D11*
G04 #@! TO.P,J4,1*
G04 #@! TO.N,OUT4*
X169926000Y-104140000D03*
G04 #@! TD*
G04 #@! TO.P,J5,1*
G04 #@! TO.N,OUT2*
X169926000Y-97790000D03*
D10*
G04 #@! TO.P,J5,2*
G04 #@! TO.N,OUT1*
X169926000Y-100330000D03*
G04 #@! TD*
D12*
G04 #@! TO.P,J3,1*
G04 #@! TO.N,+5V*
X156210000Y-91694000D03*
D13*
G04 #@! TO.P,J3,2*
G04 #@! TO.N,Net-(J3-Pad2)*
X156210000Y-89154000D03*
G04 #@! TD*
D12*
G04 #@! TO.P,J2,1*
G04 #@! TO.N,ICSP_DAT*
X151130000Y-123698000D03*
D13*
G04 #@! TO.P,J2,2*
G04 #@! TO.N,Net-(J2-Pad2)*
X151130000Y-121158000D03*
G04 #@! TD*
D12*
G04 #@! TO.P,J6,1*
G04 #@! TO.N,+5V*
X170434000Y-93980000D03*
D13*
G04 #@! TO.P,J6,2*
G04 #@! TO.N,A1*
X170434000Y-91440000D03*
G04 #@! TO.P,J6,3*
G04 #@! TO.N,B1*
X170434000Y-88900000D03*
G04 #@! TO.P,J6,4*
G04 #@! TO.N,BAT-*
X170434000Y-86360000D03*
G04 #@! TD*
G04 #@! TO.P,J7,4*
G04 #@! TO.N,BAT-*
X170434000Y-118110000D03*
G04 #@! TO.P,J7,3*
G04 #@! TO.N,B2*
X170434000Y-115570000D03*
G04 #@! TO.P,J7,2*
G04 #@! TO.N,A2*
X170434000Y-113030000D03*
D12*
G04 #@! TO.P,J7,1*
G04 #@! TO.N,+5V*
X170434000Y-110490000D03*
G04 #@! TD*
D11*
G04 #@! TO.P,J1,1*
G04 #@! TO.N,BAT+*
X156718000Y-71374000D03*
D10*
G04 #@! TO.P,J1,2*
G04 #@! TO.N,BAT-*
X159258000Y-71374000D03*
G04 #@! TD*
D14*
G04 #@! TO.P,U4,*
G04 #@! TO.N,*
X168910000Y-131572000D03*
X168910000Y-73152000D03*
X145415000Y-131572000D03*
X145415000Y-73152000D03*
D15*
G04 #@! TO.P,U4,40*
G04 #@! TO.N,ICSP_CLK*
X144145000Y-126492000D03*
G04 #@! TO.P,U4,39*
G04 #@! TO.N,Net-(U4-Pad39)*
X146685000Y-126492000D03*
G04 #@! TO.P,U4,38*
G04 #@! TO.N,ICSP_DAT*
X144145000Y-123952000D03*
G04 #@! TO.P,U4,37*
G04 #@! TO.N,Net-(U4-Pad37)*
X146685000Y-123952000D03*
G04 #@! TO.P,U4,36*
G04 #@! TO.N,Net-(U4-Pad36)*
X144145000Y-121412000D03*
G04 #@! TO.P,U4,35*
G04 #@! TO.N,MCLR*
X146685000Y-121412000D03*
G04 #@! TO.P,U4,34*
G04 #@! TO.N,Net-(U4-Pad34)*
X144145000Y-118872000D03*
G04 #@! TO.P,U4,33*
G04 #@! TO.N,Net-(U4-Pad33)*
X146685000Y-118872000D03*
G04 #@! TO.P,U4,32*
G04 #@! TO.N,Net-(U4-Pad32)*
X144145000Y-116332000D03*
G04 #@! TO.P,U4,31*
G04 #@! TO.N,Net-(U4-Pad31)*
X146685000Y-116332000D03*
G04 #@! TO.P,U4,30*
G04 #@! TO.N,Net-(U4-Pad30)*
X144145000Y-113792000D03*
G04 #@! TO.P,U4,29*
G04 #@! TO.N,Net-(U4-Pad29)*
X146685000Y-113792000D03*
G04 #@! TO.P,U4,28*
G04 #@! TO.N,Net-(U4-Pad28)*
X144145000Y-111252000D03*
G04 #@! TO.P,U4,27*
G04 #@! TO.N,Net-(U4-Pad27)*
X146685000Y-111252000D03*
G04 #@! TO.P,U4,26*
G04 #@! TO.N,Net-(U4-Pad26)*
X144145000Y-108712000D03*
G04 #@! TO.P,U4,25*
G04 #@! TO.N,Net-(U4-Pad25)*
X146685000Y-108712000D03*
G04 #@! TO.P,U4,24*
G04 #@! TO.N,Net-(U4-Pad24)*
X144145000Y-106172000D03*
G04 #@! TO.P,U4,23*
G04 #@! TO.N,Net-(U4-Pad23)*
X146685000Y-106172000D03*
G04 #@! TO.P,U4,22*
G04 #@! TO.N,DIR2*
X144145000Y-103632000D03*
G04 #@! TO.P,U4,21*
G04 #@! TO.N,Net-(U4-Pad21)*
X146685000Y-103632000D03*
G04 #@! TO.P,U4,20*
G04 #@! TO.N,Net-(U4-Pad20)*
X144145000Y-101092000D03*
G04 #@! TO.P,U4,19*
G04 #@! TO.N,Net-(U4-Pad19)*
X146685000Y-101092000D03*
G04 #@! TO.P,U4,18*
G04 #@! TO.N,DIR1*
X144145000Y-98552000D03*
G04 #@! TO.P,U4,17*
G04 #@! TO.N,Net-(U4-Pad17)*
X146685000Y-98552000D03*
G04 #@! TO.P,U4,16*
G04 #@! TO.N,EN2*
X144145000Y-96012000D03*
G04 #@! TO.P,U4,15*
G04 #@! TO.N,EN1*
X146685000Y-96012000D03*
G04 #@! TO.P,U4,14*
G04 #@! TO.N,Net-(U4-Pad14)*
X144145000Y-93472000D03*
G04 #@! TO.P,U4,13*
G04 #@! TO.N,Net-(U4-Pad13)*
X146685000Y-93472000D03*
G04 #@! TO.P,U4,12*
G04 #@! TO.N,Net-(U4-Pad12)*
X144145000Y-90932000D03*
G04 #@! TO.P,U4,11*
G04 #@! TO.N,Net-(U4-Pad11)*
X146685000Y-90932000D03*
G04 #@! TO.P,U4,10*
G04 #@! TO.N,Net-(U4-Pad10)*
X144145000Y-88392000D03*
G04 #@! TO.P,U4,9*
G04 #@! TO.N,Net-(U4-Pad9)*
X146685000Y-88392000D03*
G04 #@! TO.P,U4,8*
G04 #@! TO.N,Net-(U4-Pad8)*
X144145000Y-85852000D03*
G04 #@! TO.P,U4,7*
G04 #@! TO.N,Net-(U4-Pad7)*
X146685000Y-85852000D03*
G04 #@! TO.P,U4,6*
G04 #@! TO.N,BAT-*
X144145000Y-83312000D03*
G04 #@! TO.P,U4,5*
G04 #@! TO.N,SCL*
X146685000Y-83312000D03*
G04 #@! TO.P,U4,4*
G04 #@! TO.N,Net-(U4-Pad4)*
X144145000Y-80772000D03*
G04 #@! TO.P,U4,3*
G04 #@! TO.N,SDA*
X146685000Y-80772000D03*
G04 #@! TO.P,U4,2*
G04 #@! TO.N,Net-(J3-Pad2)*
X144145000Y-78232000D03*
G04 #@! TO.P,U4,1*
G04 #@! TO.N,+3V3*
X146685000Y-78232000D03*
G04 #@! TD*
D16*
G04 #@! TO.N,BAT-*
X163322000Y-125222000D03*
X163322000Y-128778000D03*
X163830000Y-93345000D03*
X166370000Y-87630000D03*
X153035000Y-73025000D03*
X147320000Y-76835000D03*
X161290000Y-113030000D03*
X162560000Y-110490000D03*
X159385000Y-130810000D03*
X157480000Y-118745000D03*
G04 #@! TO.N,OUT2*
X166624000Y-96520000D03*
X167894000Y-76962000D03*
G04 #@! TO.N,OUT4*
X169926000Y-126492000D03*
G04 #@! TO.N,OUT1*
X164846000Y-101600000D03*
X165354000Y-88900000D03*
G04 #@! TO.N,OUT3*
X162306000Y-114808000D03*
X165354000Y-107950000D03*
G04 #@! TO.N,+3V3*
X153924000Y-87122000D03*
X153924000Y-95758000D03*
X154940000Y-110744000D03*
X150368000Y-115316000D03*
X148844000Y-87122000D03*
G04 #@! TO.N,EN1*
X161290000Y-75184000D03*
G04 #@! TO.N,PWM1*
X159766000Y-76962000D03*
X156718000Y-95758000D03*
G04 #@! TO.N,DIR2*
X167132000Y-117348000D03*
G04 #@! TO.N,EN2*
X148844000Y-114808000D03*
G04 #@! TO.N,PWM2*
X167640000Y-127508000D03*
X160020000Y-118227010D03*
G04 #@! TO.N,BAT-PROT+*
X151384000Y-79502000D03*
X157734000Y-78486000D03*
X164338000Y-78486000D03*
X164338000Y-84836000D03*
X156210000Y-109220000D03*
X161290000Y-108585000D03*
X151257000Y-116586000D03*
G04 #@! TO.N,Net-(D3-Pad2)*
X152654000Y-75184000D03*
X152654000Y-78486000D03*
G04 #@! TO.N,SDA*
X152908000Y-95758000D03*
G04 #@! TO.N,SCL*
X150368000Y-95758000D03*
G04 #@! TO.N,MCLR*
X149606000Y-118364000D03*
X149352000Y-113284000D03*
X153416000Y-104902000D03*
G04 #@! TO.N,Net-(C11-Pad1)*
X155575000Y-132080000D03*
X156210000Y-128270000D03*
G04 #@! TO.N,+5V*
X167640000Y-85344000D03*
X159766000Y-86106000D03*
X168148000Y-108966000D03*
X155448000Y-115570000D03*
G04 #@! TO.N,A1*
X159258000Y-102362000D03*
X167640000Y-89662000D03*
G04 #@! TO.N,B1*
X159258000Y-104394000D03*
X166878000Y-88646000D03*
G04 #@! TO.N,A2*
X170434000Y-102362000D03*
X160782000Y-95250000D03*
X155956000Y-98298000D03*
X148590000Y-99822000D03*
G04 #@! TO.N,B2*
X160655000Y-103505000D03*
X167005000Y-114935000D03*
G04 #@! TO.N,Net-(J2-Pad2)*
X148082000Y-121158000D03*
G04 #@! TD*
D17*
G04 #@! TO.N,BAT-*
X163322000Y-128778000D02*
X163322000Y-125222000D01*
X163830000Y-93345000D02*
X163830000Y-88900000D01*
X163830000Y-88900000D02*
X165100000Y-87630000D01*
X165100000Y-87630000D02*
X165735000Y-87630000D01*
X165735000Y-87630000D02*
X166370000Y-87630000D01*
X159258000Y-71374000D02*
X159258000Y-71882000D01*
X159258000Y-71882000D02*
X158115000Y-73025000D01*
X158115000Y-73025000D02*
X153035000Y-73025000D01*
X153035000Y-73025000D02*
X151130000Y-73025000D01*
X151130000Y-73025000D02*
X147320000Y-76835000D01*
X161290000Y-113030000D02*
X161290000Y-111760000D01*
X161290000Y-111760000D02*
X162560000Y-110490000D01*
X163322000Y-128778000D02*
X161417000Y-128778000D01*
X161417000Y-128778000D02*
X159385000Y-130810000D01*
D18*
G04 #@! TO.N,OUT2*
X166624000Y-96520000D02*
X167386000Y-96520000D01*
X168910000Y-77978000D02*
X167894000Y-76962000D01*
X168910000Y-94996000D02*
X168910000Y-77978000D01*
X167386000Y-96520000D02*
X168910000Y-94996000D01*
D17*
G04 #@! TO.N,OUT4*
X169926000Y-126492000D02*
X169926000Y-121158000D01*
X169926000Y-121158000D02*
X168910000Y-120142000D01*
X169926000Y-104140000D02*
X169672000Y-104140000D01*
X169672000Y-104140000D02*
X168402000Y-105410000D01*
X168402000Y-105410000D02*
X168402000Y-108204000D01*
X168910000Y-108712000D02*
X168910000Y-120142000D01*
X168402000Y-108204000D02*
X168910000Y-108712000D01*
D18*
G04 #@! TO.N,OUT1*
X164846000Y-89408000D02*
X164846000Y-101600000D01*
X165354000Y-88900000D02*
X164846000Y-89408000D01*
D17*
G04 #@! TO.N,OUT3*
X164846000Y-112268000D02*
X162306000Y-114808000D01*
X164846000Y-108458000D02*
X164846000Y-112268000D01*
X165354000Y-107950000D02*
X164846000Y-108458000D01*
G04 #@! TO.N,+3V3*
X153924000Y-95758000D02*
X153924000Y-87122000D01*
X154940000Y-110744000D02*
X150368000Y-115316000D01*
X146685000Y-78105000D02*
X145288000Y-79502000D01*
X145796000Y-87122000D02*
X148844000Y-87122000D01*
X145288000Y-86614000D02*
X145796000Y-87122000D01*
X145288000Y-79502000D02*
X145288000Y-86614000D01*
G04 #@! TO.N,EN1*
X158496000Y-92964000D02*
X154178000Y-97282000D01*
X158496000Y-92964000D02*
X158496000Y-75692000D01*
X158496000Y-75692000D02*
X159004000Y-75184000D01*
X159004000Y-75184000D02*
X161290000Y-75184000D01*
X148082000Y-97282000D02*
X146685000Y-95885000D01*
X154178000Y-97282000D02*
X148082000Y-97282000D01*
G04 #@! TO.N,PWM1*
X159004000Y-77724000D02*
X159766000Y-76962000D01*
X159004000Y-93472000D02*
X159004000Y-77724000D01*
X156718000Y-95758000D02*
X159004000Y-93472000D01*
G04 #@! TO.N,DIR2*
X166878000Y-117602000D02*
X167132000Y-117348000D01*
X144145000Y-103505000D02*
X142748000Y-104902000D01*
X142748000Y-104902000D02*
X142748000Y-116840000D01*
X142748000Y-116840000D02*
X143510000Y-117602000D01*
X143510000Y-117602000D02*
X166878000Y-117602000D01*
G04 #@! TO.N,EN2*
X148590000Y-115062000D02*
X148844000Y-114808000D01*
X145796000Y-115062000D02*
X148590000Y-115062000D01*
X145288000Y-114554000D02*
X145796000Y-115062000D01*
X145288000Y-97536000D02*
X145288000Y-114554000D01*
X144145000Y-95885000D02*
X144145000Y-96393000D01*
X144145000Y-96393000D02*
X145288000Y-97536000D01*
G04 #@! TO.N,PWM2*
X167640000Y-127508000D02*
X167640000Y-125847010D01*
X167640000Y-125847010D02*
X160319999Y-118527009D01*
X160319999Y-118527009D02*
X160020000Y-118227010D01*
D18*
G04 #@! TO.N,BAT-PROT+*
X156718000Y-79502000D02*
X151384000Y-79502000D01*
X157734000Y-78486000D02*
X156718000Y-79502000D01*
X164338000Y-84836000D02*
X164338000Y-78486000D01*
D17*
X156845000Y-108585000D02*
X161290000Y-108585000D01*
X156210000Y-109220000D02*
X156845000Y-108585000D01*
X156210000Y-109220000D02*
X156210000Y-111633000D01*
X156210000Y-111633000D02*
X151257000Y-116586000D01*
D18*
G04 #@! TO.N,Net-(D3-Pad2)*
X152654000Y-78486000D02*
X152654000Y-75184000D01*
D17*
G04 #@! TO.N,SDA*
X149225000Y-80645000D02*
X146685000Y-80645000D01*
X152908000Y-84328000D02*
X149225000Y-80645000D01*
X152908000Y-95758000D02*
X152908000Y-84328000D01*
G04 #@! TO.N,SCL*
X148971000Y-83185000D02*
X146685000Y-83185000D01*
X150368000Y-84582000D02*
X148971000Y-83185000D01*
X150368000Y-95758000D02*
X150368000Y-84582000D01*
G04 #@! TO.N,MCLR*
X149606000Y-118364000D02*
X146685000Y-121285000D01*
X149352000Y-108966000D02*
X149352000Y-113284000D01*
X153416000Y-104902000D02*
X149352000Y-108966000D01*
G04 #@! TO.N,ICSP_DAT*
X144145000Y-123825000D02*
X145542000Y-125222000D01*
X149606000Y-125222000D02*
X151130000Y-123698000D01*
X145542000Y-125222000D02*
X149606000Y-125222000D01*
G04 #@! TO.N,Net-(C11-Pad1)*
X155575000Y-132080000D02*
X156210000Y-131445000D01*
X156210000Y-131445000D02*
X156210000Y-128270000D01*
G04 #@! TO.N,+5V*
X167386000Y-85598000D02*
X167640000Y-85344000D01*
X160274000Y-85598000D02*
X167386000Y-85598000D01*
X159766000Y-86106000D02*
X160274000Y-85598000D01*
X170434000Y-93980000D02*
X170434000Y-95504000D01*
X171704000Y-109220000D02*
X170434000Y-110490000D01*
X171704000Y-96774000D02*
X171704000Y-109220000D01*
X170434000Y-95504000D02*
X171704000Y-96774000D01*
X168148000Y-115062000D02*
X168148000Y-108966000D01*
X167132000Y-116078000D02*
X168148000Y-115062000D01*
X162814000Y-116078000D02*
X167132000Y-116078000D01*
X162306000Y-115570000D02*
X162814000Y-116078000D01*
X155448000Y-115570000D02*
X162306000Y-115570000D01*
G04 #@! TO.N,A1*
X164084000Y-86106000D02*
X167132000Y-86106000D01*
X159258000Y-102362000D02*
X159512000Y-102108000D01*
X159512000Y-102108000D02*
X159512000Y-87376000D01*
X159512000Y-87376000D02*
X160782000Y-86106000D01*
X160782000Y-86106000D02*
X164084000Y-86106000D01*
X167640000Y-86614000D02*
X167640000Y-89662000D01*
X167132000Y-86106000D02*
X167640000Y-86614000D01*
G04 #@! TO.N,B1*
X163897604Y-86556002D02*
X166820002Y-86556002D01*
X159258000Y-104394000D02*
X160020000Y-103632000D01*
X160020000Y-103632000D02*
X160020000Y-87630000D01*
X160020000Y-87630000D02*
X161093998Y-86556002D01*
X161093998Y-86556002D02*
X163897604Y-86556002D01*
X167132000Y-88392000D02*
X166878000Y-88646000D01*
X167132000Y-86868000D02*
X167132000Y-88392000D01*
X166820002Y-86556002D02*
X167132000Y-86868000D01*
G04 #@! TO.N,A2*
X170434000Y-102362000D02*
X161036000Y-102362000D01*
X161036000Y-102362000D02*
X160782000Y-102108000D01*
X160782000Y-102108000D02*
X160782000Y-95250000D01*
X155956000Y-98298000D02*
X154432000Y-99822000D01*
X154432000Y-99822000D02*
X148590000Y-99822000D01*
G04 #@! TO.N,B2*
X160655000Y-103505000D02*
X160655000Y-106045000D01*
X160655000Y-106045000D02*
X161290000Y-106680000D01*
X161290000Y-106680000D02*
X165100000Y-106680000D01*
X165100000Y-106680000D02*
X167005000Y-108585000D01*
X167005000Y-108585000D02*
X167005000Y-114935000D01*
G04 #@! TO.N,Net-(J2-Pad2)*
X151130000Y-121158000D02*
X148082000Y-121158000D01*
G04 #@! TD*
D19*
G04 #@! TO.N,BAT-*
G36*
X159085000Y-118412993D02*
X159227345Y-118756645D01*
X159490365Y-119019665D01*
X159834017Y-119162010D01*
X159880199Y-119162010D01*
X166880001Y-126161813D01*
X166880000Y-126945710D01*
X166847345Y-126978365D01*
X166705000Y-127322017D01*
X166705000Y-127693983D01*
X166847345Y-128037635D01*
X167110365Y-128300655D01*
X167209689Y-128341796D01*
X166850938Y-128490396D01*
X165828396Y-129512938D01*
X165275000Y-130848954D01*
X165275000Y-132295046D01*
X165828396Y-133631062D01*
X166209334Y-134012000D01*
X148115666Y-134012000D01*
X148496604Y-133631062D01*
X149050000Y-132295046D01*
X149050000Y-131894017D01*
X154640000Y-131894017D01*
X154640000Y-132265983D01*
X154782345Y-132609635D01*
X155045365Y-132872655D01*
X155389017Y-133015000D01*
X155760983Y-133015000D01*
X156104635Y-132872655D01*
X156367655Y-132609635D01*
X156510000Y-132265983D01*
X156510000Y-132219802D01*
X156694473Y-132035329D01*
X156757929Y-131992929D01*
X156925904Y-131741537D01*
X156970000Y-131519852D01*
X156970000Y-131519848D01*
X156984888Y-131445000D01*
X156970000Y-131370152D01*
X156970000Y-128832290D01*
X157002655Y-128799635D01*
X157145000Y-128455983D01*
X157145000Y-128084017D01*
X157002655Y-127740365D01*
X156739635Y-127477345D01*
X156395983Y-127335000D01*
X156024017Y-127335000D01*
X155680365Y-127477345D01*
X155417345Y-127740365D01*
X155275000Y-128084017D01*
X155275000Y-128455983D01*
X155417345Y-128799635D01*
X155450001Y-128832291D01*
X155450000Y-131130198D01*
X155435198Y-131145000D01*
X155389017Y-131145000D01*
X155045365Y-131287345D01*
X154782345Y-131550365D01*
X154640000Y-131894017D01*
X149050000Y-131894017D01*
X149050000Y-130848954D01*
X148496604Y-129512938D01*
X147474062Y-128490396D01*
X146138046Y-127937000D01*
X144691954Y-127937000D01*
X143355938Y-128490396D01*
X142975000Y-128871334D01*
X142975000Y-127297657D01*
X143353663Y-127676320D01*
X143867119Y-127889000D01*
X144422881Y-127889000D01*
X144936337Y-127676320D01*
X145329320Y-127283337D01*
X145415000Y-127076487D01*
X145500680Y-127283337D01*
X145893663Y-127676320D01*
X146407119Y-127889000D01*
X146962881Y-127889000D01*
X147476337Y-127676320D01*
X147869320Y-127283337D01*
X148082000Y-126769881D01*
X148082000Y-126214119D01*
X147985853Y-125982000D01*
X149531153Y-125982000D01*
X149606000Y-125996888D01*
X149680847Y-125982000D01*
X149680852Y-125982000D01*
X149902537Y-125937904D01*
X150153929Y-125769929D01*
X150196331Y-125706470D01*
X150707362Y-125195440D01*
X151980000Y-125195440D01*
X152227765Y-125146157D01*
X152437809Y-125005809D01*
X152578157Y-124795765D01*
X152627440Y-124548000D01*
X152627440Y-122848000D01*
X152578157Y-122600235D01*
X152437809Y-122390191D01*
X152227765Y-122249843D01*
X152182381Y-122240816D01*
X152200625Y-122228625D01*
X152528839Y-121737418D01*
X152644092Y-121158000D01*
X152528839Y-120578582D01*
X152200625Y-120087375D01*
X151709418Y-119759161D01*
X151276256Y-119673000D01*
X150983744Y-119673000D01*
X150550582Y-119759161D01*
X150059375Y-120087375D01*
X149851822Y-120398000D01*
X148646801Y-120398000D01*
X149745802Y-119299000D01*
X149791983Y-119299000D01*
X150135635Y-119156655D01*
X150398655Y-118893635D01*
X150541000Y-118549983D01*
X150541000Y-118362000D01*
X159085000Y-118362000D01*
X159085000Y-118412993D01*
X159085000Y-118412993D01*
G37*
X159085000Y-118412993D02*
X159227345Y-118756645D01*
X159490365Y-119019665D01*
X159834017Y-119162010D01*
X159880199Y-119162010D01*
X166880001Y-126161813D01*
X166880000Y-126945710D01*
X166847345Y-126978365D01*
X166705000Y-127322017D01*
X166705000Y-127693983D01*
X166847345Y-128037635D01*
X167110365Y-128300655D01*
X167209689Y-128341796D01*
X166850938Y-128490396D01*
X165828396Y-129512938D01*
X165275000Y-130848954D01*
X165275000Y-132295046D01*
X165828396Y-133631062D01*
X166209334Y-134012000D01*
X148115666Y-134012000D01*
X148496604Y-133631062D01*
X149050000Y-132295046D01*
X149050000Y-131894017D01*
X154640000Y-131894017D01*
X154640000Y-132265983D01*
X154782345Y-132609635D01*
X155045365Y-132872655D01*
X155389017Y-133015000D01*
X155760983Y-133015000D01*
X156104635Y-132872655D01*
X156367655Y-132609635D01*
X156510000Y-132265983D01*
X156510000Y-132219802D01*
X156694473Y-132035329D01*
X156757929Y-131992929D01*
X156925904Y-131741537D01*
X156970000Y-131519852D01*
X156970000Y-131519848D01*
X156984888Y-131445000D01*
X156970000Y-131370152D01*
X156970000Y-128832290D01*
X157002655Y-128799635D01*
X157145000Y-128455983D01*
X157145000Y-128084017D01*
X157002655Y-127740365D01*
X156739635Y-127477345D01*
X156395983Y-127335000D01*
X156024017Y-127335000D01*
X155680365Y-127477345D01*
X155417345Y-127740365D01*
X155275000Y-128084017D01*
X155275000Y-128455983D01*
X155417345Y-128799635D01*
X155450001Y-128832291D01*
X155450000Y-131130198D01*
X155435198Y-131145000D01*
X155389017Y-131145000D01*
X155045365Y-131287345D01*
X154782345Y-131550365D01*
X154640000Y-131894017D01*
X149050000Y-131894017D01*
X149050000Y-130848954D01*
X148496604Y-129512938D01*
X147474062Y-128490396D01*
X146138046Y-127937000D01*
X144691954Y-127937000D01*
X143355938Y-128490396D01*
X142975000Y-128871334D01*
X142975000Y-127297657D01*
X143353663Y-127676320D01*
X143867119Y-127889000D01*
X144422881Y-127889000D01*
X144936337Y-127676320D01*
X145329320Y-127283337D01*
X145415000Y-127076487D01*
X145500680Y-127283337D01*
X145893663Y-127676320D01*
X146407119Y-127889000D01*
X146962881Y-127889000D01*
X147476337Y-127676320D01*
X147869320Y-127283337D01*
X148082000Y-126769881D01*
X148082000Y-126214119D01*
X147985853Y-125982000D01*
X149531153Y-125982000D01*
X149606000Y-125996888D01*
X149680847Y-125982000D01*
X149680852Y-125982000D01*
X149902537Y-125937904D01*
X150153929Y-125769929D01*
X150196331Y-125706470D01*
X150707362Y-125195440D01*
X151980000Y-125195440D01*
X152227765Y-125146157D01*
X152437809Y-125005809D01*
X152578157Y-124795765D01*
X152627440Y-124548000D01*
X152627440Y-122848000D01*
X152578157Y-122600235D01*
X152437809Y-122390191D01*
X152227765Y-122249843D01*
X152182381Y-122240816D01*
X152200625Y-122228625D01*
X152528839Y-121737418D01*
X152644092Y-121158000D01*
X152528839Y-120578582D01*
X152200625Y-120087375D01*
X151709418Y-119759161D01*
X151276256Y-119673000D01*
X150983744Y-119673000D01*
X150550582Y-119759161D01*
X150059375Y-120087375D01*
X149851822Y-120398000D01*
X148646801Y-120398000D01*
X149745802Y-119299000D01*
X149791983Y-119299000D01*
X150135635Y-119156655D01*
X150398655Y-118893635D01*
X150541000Y-118549983D01*
X150541000Y-118362000D01*
X159085000Y-118362000D01*
X159085000Y-118412993D01*
G36*
X168150001Y-120067148D02*
X168135112Y-120142000D01*
X168194097Y-120438537D01*
X168308713Y-120610071D01*
X168362072Y-120689929D01*
X168425528Y-120732329D01*
X169166001Y-121472803D01*
X169166000Y-125929710D01*
X169133345Y-125962365D01*
X168991000Y-126306017D01*
X168991000Y-126677983D01*
X169133345Y-127021635D01*
X169396365Y-127284655D01*
X169740017Y-127427000D01*
X170111983Y-127427000D01*
X170455635Y-127284655D01*
X170718655Y-127021635D01*
X170861000Y-126677983D01*
X170861000Y-126306017D01*
X170718655Y-125962365D01*
X170686000Y-125929710D01*
X170686000Y-121232847D01*
X170700888Y-121158000D01*
X170686000Y-121083153D01*
X170686000Y-121083148D01*
X170641904Y-120861463D01*
X170473929Y-120610071D01*
X170410473Y-120567671D01*
X169670000Y-119827199D01*
X169670000Y-119360297D01*
X170077108Y-119551486D01*
X170307000Y-119430819D01*
X170307000Y-118237000D01*
X170287000Y-118237000D01*
X170287000Y-117983000D01*
X170307000Y-117983000D01*
X170307000Y-117963000D01*
X170561000Y-117963000D01*
X170561000Y-117983000D01*
X170581000Y-117983000D01*
X170581000Y-118237000D01*
X170561000Y-118237000D01*
X170561000Y-119430819D01*
X170790892Y-119551486D01*
X171315358Y-119305183D01*
X171350000Y-119267170D01*
X171350000Y-128871334D01*
X170969062Y-128490396D01*
X169633046Y-127937000D01*
X168474339Y-127937000D01*
X168575000Y-127693983D01*
X168575000Y-127322017D01*
X168432655Y-126978365D01*
X168400000Y-126945710D01*
X168400000Y-125921858D01*
X168414888Y-125847010D01*
X168400000Y-125772162D01*
X168400000Y-125772158D01*
X168355904Y-125550473D01*
X168355904Y-125550472D01*
X168230329Y-125362537D01*
X168187929Y-125299081D01*
X168124473Y-125256681D01*
X161229791Y-118362000D01*
X166803153Y-118362000D01*
X166878000Y-118376888D01*
X166952847Y-118362000D01*
X166952852Y-118362000D01*
X167174537Y-118317904D01*
X167226774Y-118283000D01*
X167317983Y-118283000D01*
X167661635Y-118140655D01*
X167924655Y-117877635D01*
X168067000Y-117533983D01*
X168067000Y-117162017D01*
X167924655Y-116818365D01*
X167700873Y-116594583D01*
X167722331Y-116562470D01*
X168150001Y-116134801D01*
X168150001Y-120067148D01*
X168150001Y-120067148D01*
G37*
X168150001Y-120067148D02*
X168135112Y-120142000D01*
X168194097Y-120438537D01*
X168308713Y-120610071D01*
X168362072Y-120689929D01*
X168425528Y-120732329D01*
X169166001Y-121472803D01*
X169166000Y-125929710D01*
X169133345Y-125962365D01*
X168991000Y-126306017D01*
X168991000Y-126677983D01*
X169133345Y-127021635D01*
X169396365Y-127284655D01*
X169740017Y-127427000D01*
X170111983Y-127427000D01*
X170455635Y-127284655D01*
X170718655Y-127021635D01*
X170861000Y-126677983D01*
X170861000Y-126306017D01*
X170718655Y-125962365D01*
X170686000Y-125929710D01*
X170686000Y-121232847D01*
X170700888Y-121158000D01*
X170686000Y-121083153D01*
X170686000Y-121083148D01*
X170641904Y-120861463D01*
X170473929Y-120610071D01*
X170410473Y-120567671D01*
X169670000Y-119827199D01*
X169670000Y-119360297D01*
X170077108Y-119551486D01*
X170307000Y-119430819D01*
X170307000Y-118237000D01*
X170287000Y-118237000D01*
X170287000Y-117983000D01*
X170307000Y-117983000D01*
X170307000Y-117963000D01*
X170561000Y-117963000D01*
X170561000Y-117983000D01*
X170581000Y-117983000D01*
X170581000Y-118237000D01*
X170561000Y-118237000D01*
X170561000Y-119430819D01*
X170790892Y-119551486D01*
X171315358Y-119305183D01*
X171350000Y-119267170D01*
X171350000Y-128871334D01*
X170969062Y-128490396D01*
X169633046Y-127937000D01*
X168474339Y-127937000D01*
X168575000Y-127693983D01*
X168575000Y-127322017D01*
X168432655Y-126978365D01*
X168400000Y-126945710D01*
X168400000Y-125921858D01*
X168414888Y-125847010D01*
X168400000Y-125772162D01*
X168400000Y-125772158D01*
X168355904Y-125550473D01*
X168355904Y-125550472D01*
X168230329Y-125362537D01*
X168187929Y-125299081D01*
X168124473Y-125256681D01*
X161229791Y-118362000D01*
X166803153Y-118362000D01*
X166878000Y-118376888D01*
X166952847Y-118362000D01*
X166952852Y-118362000D01*
X167174537Y-118317904D01*
X167226774Y-118283000D01*
X167317983Y-118283000D01*
X167661635Y-118140655D01*
X167924655Y-117877635D01*
X168067000Y-117533983D01*
X168067000Y-117162017D01*
X167924655Y-116818365D01*
X167700873Y-116594583D01*
X167722331Y-116562470D01*
X168150001Y-116134801D01*
X168150001Y-120067148D01*
G36*
X158752000Y-101559555D02*
X158728365Y-101569345D01*
X158465345Y-101832365D01*
X158323000Y-102176017D01*
X158323000Y-102547983D01*
X158465345Y-102891635D01*
X158728365Y-103154655D01*
X159072017Y-103297000D01*
X159260000Y-103297000D01*
X159260000Y-103317198D01*
X159118198Y-103459000D01*
X159072017Y-103459000D01*
X158728365Y-103601345D01*
X158465345Y-103864365D01*
X158323000Y-104208017D01*
X158323000Y-104579983D01*
X158465345Y-104923635D01*
X158728365Y-105186655D01*
X159072017Y-105329000D01*
X159443983Y-105329000D01*
X159787635Y-105186655D01*
X159895001Y-105079289D01*
X159895001Y-105970148D01*
X159880112Y-106045000D01*
X159895001Y-106119852D01*
X159939097Y-106341537D01*
X160107072Y-106592929D01*
X160170528Y-106635329D01*
X160699670Y-107164472D01*
X160742071Y-107227929D01*
X160993463Y-107395904D01*
X161215148Y-107440000D01*
X161215152Y-107440000D01*
X161290000Y-107454888D01*
X161364848Y-107440000D01*
X164553212Y-107440000D01*
X164419000Y-107764017D01*
X164419000Y-107810198D01*
X164361529Y-107867670D01*
X164298071Y-107910071D01*
X164130096Y-108161464D01*
X164086000Y-108383149D01*
X164086000Y-108383153D01*
X164071112Y-108458000D01*
X164086000Y-108532847D01*
X164086001Y-111953196D01*
X162166199Y-113873000D01*
X162120017Y-113873000D01*
X161776365Y-114015345D01*
X161513345Y-114278365D01*
X161371000Y-114622017D01*
X161371000Y-114810000D01*
X156010290Y-114810000D01*
X155977635Y-114777345D01*
X155633983Y-114635000D01*
X155262017Y-114635000D01*
X154918365Y-114777345D01*
X154655345Y-115040365D01*
X154513000Y-115384017D01*
X154513000Y-115755983D01*
X154655345Y-116099635D01*
X154918365Y-116362655D01*
X155262017Y-116505000D01*
X155633983Y-116505000D01*
X155977635Y-116362655D01*
X156010290Y-116330000D01*
X161991198Y-116330000D01*
X162223672Y-116562475D01*
X162266071Y-116625929D01*
X162329524Y-116668327D01*
X162329526Y-116668329D01*
X162454902Y-116752102D01*
X162517463Y-116793904D01*
X162739148Y-116838000D01*
X162739152Y-116838000D01*
X162759261Y-116842000D01*
X152162998Y-116842000D01*
X152192000Y-116771983D01*
X152192000Y-116725801D01*
X156694473Y-112223329D01*
X156757929Y-112180929D01*
X156849865Y-112043337D01*
X156925904Y-111929538D01*
X156967569Y-111720072D01*
X156970000Y-111707852D01*
X156970000Y-111707848D01*
X156984888Y-111633000D01*
X156970000Y-111558152D01*
X156970000Y-109782290D01*
X157002655Y-109749635D01*
X157145000Y-109405983D01*
X157145000Y-109359802D01*
X157159802Y-109345000D01*
X160727710Y-109345000D01*
X160760365Y-109377655D01*
X161104017Y-109520000D01*
X161475983Y-109520000D01*
X161819635Y-109377655D01*
X162082655Y-109114635D01*
X162225000Y-108770983D01*
X162225000Y-108399017D01*
X162082655Y-108055365D01*
X161819635Y-107792345D01*
X161475983Y-107650000D01*
X161104017Y-107650000D01*
X160760365Y-107792345D01*
X160727710Y-107825000D01*
X156919848Y-107825000D01*
X156845000Y-107810112D01*
X156770152Y-107825000D01*
X156770148Y-107825000D01*
X156548463Y-107869096D01*
X156297071Y-108037071D01*
X156254671Y-108100527D01*
X156070198Y-108285000D01*
X156024017Y-108285000D01*
X155680365Y-108427345D01*
X155417345Y-108690365D01*
X155275000Y-109034017D01*
X155275000Y-109405983D01*
X155417345Y-109749635D01*
X155450000Y-109782290D01*
X155450000Y-109943212D01*
X155125983Y-109809000D01*
X154754017Y-109809000D01*
X154410365Y-109951345D01*
X154147345Y-110214365D01*
X154005000Y-110558017D01*
X154005000Y-110604197D01*
X150228199Y-114381000D01*
X150182017Y-114381000D01*
X149838365Y-114523345D01*
X149767487Y-114594223D01*
X149636655Y-114278365D01*
X149565777Y-114207487D01*
X149881635Y-114076655D01*
X150144655Y-113813635D01*
X150287000Y-113469983D01*
X150287000Y-113098017D01*
X150144655Y-112754365D01*
X150112000Y-112721710D01*
X150112000Y-109280801D01*
X153555802Y-105837000D01*
X153601983Y-105837000D01*
X153945635Y-105694655D01*
X154208655Y-105431635D01*
X154351000Y-105087983D01*
X154351000Y-104716017D01*
X154208655Y-104372365D01*
X153945635Y-104109345D01*
X153601983Y-103967000D01*
X153230017Y-103967000D01*
X152886365Y-104109345D01*
X152623345Y-104372365D01*
X152481000Y-104716017D01*
X152481000Y-104762198D01*
X148867530Y-108375669D01*
X148804071Y-108418071D01*
X148636096Y-108669464D01*
X148592000Y-108891149D01*
X148592000Y-108891153D01*
X148577112Y-108966000D01*
X148592000Y-109040847D01*
X148592001Y-112721709D01*
X148559345Y-112754365D01*
X148417000Y-113098017D01*
X148417000Y-113469983D01*
X148559345Y-113813635D01*
X148630223Y-113884513D01*
X148314365Y-114015345D01*
X148051345Y-114278365D01*
X148041555Y-114302000D01*
X147985853Y-114302000D01*
X148082000Y-114069881D01*
X148082000Y-113514119D01*
X147869320Y-113000663D01*
X147476337Y-112607680D01*
X147269487Y-112522000D01*
X147476337Y-112436320D01*
X147869320Y-112043337D01*
X148082000Y-111529881D01*
X148082000Y-110974119D01*
X147869320Y-110460663D01*
X147476337Y-110067680D01*
X147269487Y-109982000D01*
X147476337Y-109896320D01*
X147869320Y-109503337D01*
X148082000Y-108989881D01*
X148082000Y-108434119D01*
X147869320Y-107920663D01*
X147476337Y-107527680D01*
X147269487Y-107442000D01*
X147476337Y-107356320D01*
X147869320Y-106963337D01*
X148082000Y-106449881D01*
X148082000Y-105894119D01*
X147869320Y-105380663D01*
X147476337Y-104987680D01*
X147269487Y-104902000D01*
X147476337Y-104816320D01*
X147869320Y-104423337D01*
X148082000Y-103909881D01*
X148082000Y-103354119D01*
X147869320Y-102840663D01*
X147476337Y-102447680D01*
X147269487Y-102362000D01*
X147476337Y-102276320D01*
X147869320Y-101883337D01*
X148082000Y-101369881D01*
X148082000Y-100814119D01*
X147956256Y-100510546D01*
X148060365Y-100614655D01*
X148404017Y-100757000D01*
X148775983Y-100757000D01*
X149119635Y-100614655D01*
X149152290Y-100582000D01*
X154357153Y-100582000D01*
X154432000Y-100596888D01*
X154506847Y-100582000D01*
X154506852Y-100582000D01*
X154728537Y-100537904D01*
X154979929Y-100369929D01*
X155022331Y-100306470D01*
X156095802Y-99233000D01*
X156141983Y-99233000D01*
X156485635Y-99090655D01*
X156748655Y-98827635D01*
X156891000Y-98483983D01*
X156891000Y-98112017D01*
X156748655Y-97768365D01*
X156485635Y-97505345D01*
X156141983Y-97363000D01*
X155770017Y-97363000D01*
X155426365Y-97505345D01*
X155163345Y-97768365D01*
X155021000Y-98112017D01*
X155021000Y-98158198D01*
X154117199Y-99062000D01*
X149152290Y-99062000D01*
X149119635Y-99029345D01*
X148775983Y-98887000D01*
X148404017Y-98887000D01*
X148060365Y-99029345D01*
X147956256Y-99133454D01*
X148082000Y-98829881D01*
X148082000Y-98274119D01*
X147983941Y-98037384D01*
X148007148Y-98042000D01*
X148007152Y-98042000D01*
X148081999Y-98056888D01*
X148156846Y-98042000D01*
X154103153Y-98042000D01*
X154178000Y-98056888D01*
X154252847Y-98042000D01*
X154252852Y-98042000D01*
X154474537Y-97997904D01*
X154725929Y-97829929D01*
X154768331Y-97766470D01*
X156086256Y-96448546D01*
X156188365Y-96550655D01*
X156532017Y-96693000D01*
X156903983Y-96693000D01*
X157247635Y-96550655D01*
X157510655Y-96287635D01*
X157653000Y-95943983D01*
X157653000Y-95897801D01*
X158752000Y-94798801D01*
X158752000Y-101559555D01*
X158752000Y-101559555D01*
G37*
X158752000Y-101559555D02*
X158728365Y-101569345D01*
X158465345Y-101832365D01*
X158323000Y-102176017D01*
X158323000Y-102547983D01*
X158465345Y-102891635D01*
X158728365Y-103154655D01*
X159072017Y-103297000D01*
X159260000Y-103297000D01*
X159260000Y-103317198D01*
X159118198Y-103459000D01*
X159072017Y-103459000D01*
X158728365Y-103601345D01*
X158465345Y-103864365D01*
X158323000Y-104208017D01*
X158323000Y-104579983D01*
X158465345Y-104923635D01*
X158728365Y-105186655D01*
X159072017Y-105329000D01*
X159443983Y-105329000D01*
X159787635Y-105186655D01*
X159895001Y-105079289D01*
X159895001Y-105970148D01*
X159880112Y-106045000D01*
X159895001Y-106119852D01*
X159939097Y-106341537D01*
X160107072Y-106592929D01*
X160170528Y-106635329D01*
X160699670Y-107164472D01*
X160742071Y-107227929D01*
X160993463Y-107395904D01*
X161215148Y-107440000D01*
X161215152Y-107440000D01*
X161290000Y-107454888D01*
X161364848Y-107440000D01*
X164553212Y-107440000D01*
X164419000Y-107764017D01*
X164419000Y-107810198D01*
X164361529Y-107867670D01*
X164298071Y-107910071D01*
X164130096Y-108161464D01*
X164086000Y-108383149D01*
X164086000Y-108383153D01*
X164071112Y-108458000D01*
X164086000Y-108532847D01*
X164086001Y-111953196D01*
X162166199Y-113873000D01*
X162120017Y-113873000D01*
X161776365Y-114015345D01*
X161513345Y-114278365D01*
X161371000Y-114622017D01*
X161371000Y-114810000D01*
X156010290Y-114810000D01*
X155977635Y-114777345D01*
X155633983Y-114635000D01*
X155262017Y-114635000D01*
X154918365Y-114777345D01*
X154655345Y-115040365D01*
X154513000Y-115384017D01*
X154513000Y-115755983D01*
X154655345Y-116099635D01*
X154918365Y-116362655D01*
X155262017Y-116505000D01*
X155633983Y-116505000D01*
X155977635Y-116362655D01*
X156010290Y-116330000D01*
X161991198Y-116330000D01*
X162223672Y-116562475D01*
X162266071Y-116625929D01*
X162329524Y-116668327D01*
X162329526Y-116668329D01*
X162454902Y-116752102D01*
X162517463Y-116793904D01*
X162739148Y-116838000D01*
X162739152Y-116838000D01*
X162759261Y-116842000D01*
X152162998Y-116842000D01*
X152192000Y-116771983D01*
X152192000Y-116725801D01*
X156694473Y-112223329D01*
X156757929Y-112180929D01*
X156849865Y-112043337D01*
X156925904Y-111929538D01*
X156967569Y-111720072D01*
X156970000Y-111707852D01*
X156970000Y-111707848D01*
X156984888Y-111633000D01*
X156970000Y-111558152D01*
X156970000Y-109782290D01*
X157002655Y-109749635D01*
X157145000Y-109405983D01*
X157145000Y-109359802D01*
X157159802Y-109345000D01*
X160727710Y-109345000D01*
X160760365Y-109377655D01*
X161104017Y-109520000D01*
X161475983Y-109520000D01*
X161819635Y-109377655D01*
X162082655Y-109114635D01*
X162225000Y-108770983D01*
X162225000Y-108399017D01*
X162082655Y-108055365D01*
X161819635Y-107792345D01*
X161475983Y-107650000D01*
X161104017Y-107650000D01*
X160760365Y-107792345D01*
X160727710Y-107825000D01*
X156919848Y-107825000D01*
X156845000Y-107810112D01*
X156770152Y-107825000D01*
X156770148Y-107825000D01*
X156548463Y-107869096D01*
X156297071Y-108037071D01*
X156254671Y-108100527D01*
X156070198Y-108285000D01*
X156024017Y-108285000D01*
X155680365Y-108427345D01*
X155417345Y-108690365D01*
X155275000Y-109034017D01*
X155275000Y-109405983D01*
X155417345Y-109749635D01*
X155450000Y-109782290D01*
X155450000Y-109943212D01*
X155125983Y-109809000D01*
X154754017Y-109809000D01*
X154410365Y-109951345D01*
X154147345Y-110214365D01*
X154005000Y-110558017D01*
X154005000Y-110604197D01*
X150228199Y-114381000D01*
X150182017Y-114381000D01*
X149838365Y-114523345D01*
X149767487Y-114594223D01*
X149636655Y-114278365D01*
X149565777Y-114207487D01*
X149881635Y-114076655D01*
X150144655Y-113813635D01*
X150287000Y-113469983D01*
X150287000Y-113098017D01*
X150144655Y-112754365D01*
X150112000Y-112721710D01*
X150112000Y-109280801D01*
X153555802Y-105837000D01*
X153601983Y-105837000D01*
X153945635Y-105694655D01*
X154208655Y-105431635D01*
X154351000Y-105087983D01*
X154351000Y-104716017D01*
X154208655Y-104372365D01*
X153945635Y-104109345D01*
X153601983Y-103967000D01*
X153230017Y-103967000D01*
X152886365Y-104109345D01*
X152623345Y-104372365D01*
X152481000Y-104716017D01*
X152481000Y-104762198D01*
X148867530Y-108375669D01*
X148804071Y-108418071D01*
X148636096Y-108669464D01*
X148592000Y-108891149D01*
X148592000Y-108891153D01*
X148577112Y-108966000D01*
X148592000Y-109040847D01*
X148592001Y-112721709D01*
X148559345Y-112754365D01*
X148417000Y-113098017D01*
X148417000Y-113469983D01*
X148559345Y-113813635D01*
X148630223Y-113884513D01*
X148314365Y-114015345D01*
X148051345Y-114278365D01*
X148041555Y-114302000D01*
X147985853Y-114302000D01*
X148082000Y-114069881D01*
X148082000Y-113514119D01*
X147869320Y-113000663D01*
X147476337Y-112607680D01*
X147269487Y-112522000D01*
X147476337Y-112436320D01*
X147869320Y-112043337D01*
X148082000Y-111529881D01*
X148082000Y-110974119D01*
X147869320Y-110460663D01*
X147476337Y-110067680D01*
X147269487Y-109982000D01*
X147476337Y-109896320D01*
X147869320Y-109503337D01*
X148082000Y-108989881D01*
X148082000Y-108434119D01*
X147869320Y-107920663D01*
X147476337Y-107527680D01*
X147269487Y-107442000D01*
X147476337Y-107356320D01*
X147869320Y-106963337D01*
X148082000Y-106449881D01*
X148082000Y-105894119D01*
X147869320Y-105380663D01*
X147476337Y-104987680D01*
X147269487Y-104902000D01*
X147476337Y-104816320D01*
X147869320Y-104423337D01*
X148082000Y-103909881D01*
X148082000Y-103354119D01*
X147869320Y-102840663D01*
X147476337Y-102447680D01*
X147269487Y-102362000D01*
X147476337Y-102276320D01*
X147869320Y-101883337D01*
X148082000Y-101369881D01*
X148082000Y-100814119D01*
X147956256Y-100510546D01*
X148060365Y-100614655D01*
X148404017Y-100757000D01*
X148775983Y-100757000D01*
X149119635Y-100614655D01*
X149152290Y-100582000D01*
X154357153Y-100582000D01*
X154432000Y-100596888D01*
X154506847Y-100582000D01*
X154506852Y-100582000D01*
X154728537Y-100537904D01*
X154979929Y-100369929D01*
X155022331Y-100306470D01*
X156095802Y-99233000D01*
X156141983Y-99233000D01*
X156485635Y-99090655D01*
X156748655Y-98827635D01*
X156891000Y-98483983D01*
X156891000Y-98112017D01*
X156748655Y-97768365D01*
X156485635Y-97505345D01*
X156141983Y-97363000D01*
X155770017Y-97363000D01*
X155426365Y-97505345D01*
X155163345Y-97768365D01*
X155021000Y-98112017D01*
X155021000Y-98158198D01*
X154117199Y-99062000D01*
X149152290Y-99062000D01*
X149119635Y-99029345D01*
X148775983Y-98887000D01*
X148404017Y-98887000D01*
X148060365Y-99029345D01*
X147956256Y-99133454D01*
X148082000Y-98829881D01*
X148082000Y-98274119D01*
X147983941Y-98037384D01*
X148007148Y-98042000D01*
X148007152Y-98042000D01*
X148081999Y-98056888D01*
X148156846Y-98042000D01*
X154103153Y-98042000D01*
X154178000Y-98056888D01*
X154252847Y-98042000D01*
X154252852Y-98042000D01*
X154474537Y-97997904D01*
X154725929Y-97829929D01*
X154768331Y-97766470D01*
X156086256Y-96448546D01*
X156188365Y-96550655D01*
X156532017Y-96693000D01*
X156903983Y-96693000D01*
X157247635Y-96550655D01*
X157510655Y-96287635D01*
X157653000Y-95943983D01*
X157653000Y-95897801D01*
X158752000Y-94798801D01*
X158752000Y-101559555D01*
G36*
X166372001Y-87843555D02*
X166348365Y-87853345D01*
X166085345Y-88116365D01*
X166028907Y-88252617D01*
X165883635Y-88107345D01*
X165539983Y-87965000D01*
X165168017Y-87965000D01*
X164824365Y-88107345D01*
X164561345Y-88370365D01*
X164511344Y-88491078D01*
X164281847Y-88720575D01*
X164207951Y-88769951D01*
X164012348Y-89062691D01*
X163961000Y-89320836D01*
X163961000Y-89320839D01*
X163943663Y-89408000D01*
X163961000Y-89495161D01*
X163961001Y-101293304D01*
X163911000Y-101414017D01*
X163911000Y-101602000D01*
X161542000Y-101602000D01*
X161542000Y-95812290D01*
X161574655Y-95779635D01*
X161717000Y-95435983D01*
X161717000Y-95064017D01*
X161574655Y-94720365D01*
X161311635Y-94457345D01*
X160967983Y-94315000D01*
X160780000Y-94315000D01*
X160780000Y-87944801D01*
X161408800Y-87316002D01*
X166372000Y-87316002D01*
X166372001Y-87843555D01*
X166372001Y-87843555D01*
G37*
X166372001Y-87843555D02*
X166348365Y-87853345D01*
X166085345Y-88116365D01*
X166028907Y-88252617D01*
X165883635Y-88107345D01*
X165539983Y-87965000D01*
X165168017Y-87965000D01*
X164824365Y-88107345D01*
X164561345Y-88370365D01*
X164511344Y-88491078D01*
X164281847Y-88720575D01*
X164207951Y-88769951D01*
X164012348Y-89062691D01*
X163961000Y-89320836D01*
X163961000Y-89320839D01*
X163943663Y-89408000D01*
X163961000Y-89495161D01*
X163961001Y-101293304D01*
X163911000Y-101414017D01*
X163911000Y-101602000D01*
X161542000Y-101602000D01*
X161542000Y-95812290D01*
X161574655Y-95779635D01*
X161717000Y-95435983D01*
X161717000Y-95064017D01*
X161574655Y-94720365D01*
X161311635Y-94457345D01*
X160967983Y-94315000D01*
X160780000Y-94315000D01*
X160780000Y-87944801D01*
X161408800Y-87316002D01*
X166372000Y-87316002D01*
X166372001Y-87843555D01*
G36*
X154970560Y-72474000D02*
X155019843Y-72721765D01*
X155160191Y-72931809D01*
X155370235Y-73072157D01*
X155618000Y-73121440D01*
X155834716Y-73121440D01*
X155713405Y-73242751D01*
X155533000Y-73678289D01*
X155533000Y-74149711D01*
X155713405Y-74585249D01*
X156046751Y-74918595D01*
X156482289Y-75099000D01*
X156953711Y-75099000D01*
X157389249Y-74918595D01*
X157722595Y-74585249D01*
X157903000Y-74149711D01*
X157903000Y-73678289D01*
X157722595Y-73242751D01*
X157601284Y-73121440D01*
X157818000Y-73121440D01*
X158065765Y-73072157D01*
X158275809Y-72931809D01*
X158319669Y-72866169D01*
X158323641Y-72876099D01*
X158538976Y-72957180D01*
X158253405Y-73242751D01*
X158073000Y-73678289D01*
X158073000Y-74149711D01*
X158253405Y-74585249D01*
X158390677Y-74722521D01*
X158011527Y-75101672D01*
X157948072Y-75144071D01*
X157905672Y-75207527D01*
X157905671Y-75207528D01*
X157780097Y-75395463D01*
X157721112Y-75692000D01*
X157736001Y-75766852D01*
X157736001Y-77551000D01*
X157548017Y-77551000D01*
X157204365Y-77693345D01*
X156941345Y-77956365D01*
X156891345Y-78077076D01*
X156351422Y-78617000D01*
X153589000Y-78617000D01*
X153589000Y-78300017D01*
X153539000Y-78179306D01*
X153539000Y-75490694D01*
X153589000Y-75369983D01*
X153589000Y-74998017D01*
X153446655Y-74654365D01*
X153183635Y-74391345D01*
X152839983Y-74249000D01*
X152468017Y-74249000D01*
X152124365Y-74391345D01*
X151861345Y-74654365D01*
X151719000Y-74998017D01*
X151719000Y-75369983D01*
X151769001Y-75490696D01*
X151769000Y-78179306D01*
X151719000Y-78300017D01*
X151719000Y-78617000D01*
X151690694Y-78617000D01*
X151569983Y-78567000D01*
X151198017Y-78567000D01*
X150854365Y-78709345D01*
X150591345Y-78972365D01*
X150449000Y-79316017D01*
X150449000Y-79687983D01*
X150591345Y-80031635D01*
X150854365Y-80294655D01*
X151198017Y-80437000D01*
X151569983Y-80437000D01*
X151690694Y-80387000D01*
X156630839Y-80387000D01*
X156718000Y-80404337D01*
X156805161Y-80387000D01*
X156805165Y-80387000D01*
X157063310Y-80335652D01*
X157356049Y-80140049D01*
X157405425Y-80066153D01*
X157736001Y-79735578D01*
X157736000Y-92649198D01*
X157674228Y-92710970D01*
X157707440Y-92544000D01*
X157707440Y-90844000D01*
X157658157Y-90596235D01*
X157517809Y-90386191D01*
X157307765Y-90245843D01*
X157262381Y-90236816D01*
X157280625Y-90224625D01*
X157608839Y-89733418D01*
X157724092Y-89154000D01*
X157608839Y-88574582D01*
X157280625Y-88083375D01*
X156789418Y-87755161D01*
X156356256Y-87669000D01*
X156063744Y-87669000D01*
X155630582Y-87755161D01*
X155139375Y-88083375D01*
X154811161Y-88574582D01*
X154695908Y-89154000D01*
X154811161Y-89733418D01*
X155139375Y-90224625D01*
X155157619Y-90236816D01*
X155112235Y-90245843D01*
X154902191Y-90386191D01*
X154761843Y-90596235D01*
X154712560Y-90844000D01*
X154712560Y-92544000D01*
X154761843Y-92791765D01*
X154902191Y-93001809D01*
X155112235Y-93142157D01*
X155360000Y-93191440D01*
X157060000Y-93191440D01*
X157226970Y-93158228D01*
X154845580Y-95539619D01*
X154716655Y-95228365D01*
X154684000Y-95195710D01*
X154684000Y-87684290D01*
X154716655Y-87651635D01*
X154859000Y-87307983D01*
X154859000Y-86936017D01*
X154716655Y-86592365D01*
X154453635Y-86329345D01*
X154109983Y-86187000D01*
X153738017Y-86187000D01*
X153668000Y-86216002D01*
X153668000Y-84402848D01*
X153682888Y-84328000D01*
X153668000Y-84253152D01*
X153668000Y-84253148D01*
X153623904Y-84031463D01*
X153455929Y-83780071D01*
X153392473Y-83737671D01*
X149815331Y-80160530D01*
X149772929Y-80097071D01*
X149521537Y-79929096D01*
X149299852Y-79885000D01*
X149299847Y-79885000D01*
X149225000Y-79870112D01*
X149150153Y-79885000D01*
X147773657Y-79885000D01*
X147476337Y-79587680D01*
X147269487Y-79502000D01*
X147476337Y-79416320D01*
X147869320Y-79023337D01*
X148082000Y-78509881D01*
X148082000Y-77954119D01*
X147869320Y-77440663D01*
X147476337Y-77047680D01*
X146962881Y-76835000D01*
X146407119Y-76835000D01*
X145893663Y-77047680D01*
X145500680Y-77440663D01*
X145415000Y-77647513D01*
X145329320Y-77440663D01*
X144936337Y-77047680D01*
X144422881Y-76835000D01*
X143867119Y-76835000D01*
X143353663Y-77047680D01*
X142975000Y-77426343D01*
X142975000Y-75852666D01*
X143355938Y-76233604D01*
X144691954Y-76787000D01*
X146138046Y-76787000D01*
X147474062Y-76233604D01*
X148496604Y-75211062D01*
X149050000Y-73875046D01*
X149050000Y-72428954D01*
X148496604Y-71092938D01*
X148136048Y-70732382D01*
X154970560Y-70726565D01*
X154970560Y-72474000D01*
X154970560Y-72474000D01*
G37*
X154970560Y-72474000D02*
X155019843Y-72721765D01*
X155160191Y-72931809D01*
X155370235Y-73072157D01*
X155618000Y-73121440D01*
X155834716Y-73121440D01*
X155713405Y-73242751D01*
X155533000Y-73678289D01*
X155533000Y-74149711D01*
X155713405Y-74585249D01*
X156046751Y-74918595D01*
X156482289Y-75099000D01*
X156953711Y-75099000D01*
X157389249Y-74918595D01*
X157722595Y-74585249D01*
X157903000Y-74149711D01*
X157903000Y-73678289D01*
X157722595Y-73242751D01*
X157601284Y-73121440D01*
X157818000Y-73121440D01*
X158065765Y-73072157D01*
X158275809Y-72931809D01*
X158319669Y-72866169D01*
X158323641Y-72876099D01*
X158538976Y-72957180D01*
X158253405Y-73242751D01*
X158073000Y-73678289D01*
X158073000Y-74149711D01*
X158253405Y-74585249D01*
X158390677Y-74722521D01*
X158011527Y-75101672D01*
X157948072Y-75144071D01*
X157905672Y-75207527D01*
X157905671Y-75207528D01*
X157780097Y-75395463D01*
X157721112Y-75692000D01*
X157736001Y-75766852D01*
X157736001Y-77551000D01*
X157548017Y-77551000D01*
X157204365Y-77693345D01*
X156941345Y-77956365D01*
X156891345Y-78077076D01*
X156351422Y-78617000D01*
X153589000Y-78617000D01*
X153589000Y-78300017D01*
X153539000Y-78179306D01*
X153539000Y-75490694D01*
X153589000Y-75369983D01*
X153589000Y-74998017D01*
X153446655Y-74654365D01*
X153183635Y-74391345D01*
X152839983Y-74249000D01*
X152468017Y-74249000D01*
X152124365Y-74391345D01*
X151861345Y-74654365D01*
X151719000Y-74998017D01*
X151719000Y-75369983D01*
X151769001Y-75490696D01*
X151769000Y-78179306D01*
X151719000Y-78300017D01*
X151719000Y-78617000D01*
X151690694Y-78617000D01*
X151569983Y-78567000D01*
X151198017Y-78567000D01*
X150854365Y-78709345D01*
X150591345Y-78972365D01*
X150449000Y-79316017D01*
X150449000Y-79687983D01*
X150591345Y-80031635D01*
X150854365Y-80294655D01*
X151198017Y-80437000D01*
X151569983Y-80437000D01*
X151690694Y-80387000D01*
X156630839Y-80387000D01*
X156718000Y-80404337D01*
X156805161Y-80387000D01*
X156805165Y-80387000D01*
X157063310Y-80335652D01*
X157356049Y-80140049D01*
X157405425Y-80066153D01*
X157736001Y-79735578D01*
X157736000Y-92649198D01*
X157674228Y-92710970D01*
X157707440Y-92544000D01*
X157707440Y-90844000D01*
X157658157Y-90596235D01*
X157517809Y-90386191D01*
X157307765Y-90245843D01*
X157262381Y-90236816D01*
X157280625Y-90224625D01*
X157608839Y-89733418D01*
X157724092Y-89154000D01*
X157608839Y-88574582D01*
X157280625Y-88083375D01*
X156789418Y-87755161D01*
X156356256Y-87669000D01*
X156063744Y-87669000D01*
X155630582Y-87755161D01*
X155139375Y-88083375D01*
X154811161Y-88574582D01*
X154695908Y-89154000D01*
X154811161Y-89733418D01*
X155139375Y-90224625D01*
X155157619Y-90236816D01*
X155112235Y-90245843D01*
X154902191Y-90386191D01*
X154761843Y-90596235D01*
X154712560Y-90844000D01*
X154712560Y-92544000D01*
X154761843Y-92791765D01*
X154902191Y-93001809D01*
X155112235Y-93142157D01*
X155360000Y-93191440D01*
X157060000Y-93191440D01*
X157226970Y-93158228D01*
X154845580Y-95539619D01*
X154716655Y-95228365D01*
X154684000Y-95195710D01*
X154684000Y-87684290D01*
X154716655Y-87651635D01*
X154859000Y-87307983D01*
X154859000Y-86936017D01*
X154716655Y-86592365D01*
X154453635Y-86329345D01*
X154109983Y-86187000D01*
X153738017Y-86187000D01*
X153668000Y-86216002D01*
X153668000Y-84402848D01*
X153682888Y-84328000D01*
X153668000Y-84253152D01*
X153668000Y-84253148D01*
X153623904Y-84031463D01*
X153455929Y-83780071D01*
X153392473Y-83737671D01*
X149815331Y-80160530D01*
X149772929Y-80097071D01*
X149521537Y-79929096D01*
X149299852Y-79885000D01*
X149299847Y-79885000D01*
X149225000Y-79870112D01*
X149150153Y-79885000D01*
X147773657Y-79885000D01*
X147476337Y-79587680D01*
X147269487Y-79502000D01*
X147476337Y-79416320D01*
X147869320Y-79023337D01*
X148082000Y-78509881D01*
X148082000Y-77954119D01*
X147869320Y-77440663D01*
X147476337Y-77047680D01*
X146962881Y-76835000D01*
X146407119Y-76835000D01*
X145893663Y-77047680D01*
X145500680Y-77440663D01*
X145415000Y-77647513D01*
X145329320Y-77440663D01*
X144936337Y-77047680D01*
X144422881Y-76835000D01*
X143867119Y-76835000D01*
X143353663Y-77047680D01*
X142975000Y-77426343D01*
X142975000Y-75852666D01*
X143355938Y-76233604D01*
X144691954Y-76787000D01*
X146138046Y-76787000D01*
X147474062Y-76233604D01*
X148496604Y-75211062D01*
X149050000Y-73875046D01*
X149050000Y-72428954D01*
X148496604Y-71092938D01*
X148136048Y-70732382D01*
X154970560Y-70726565D01*
X154970560Y-72474000D01*
G36*
X171350001Y-85202830D02*
X171315358Y-85164817D01*
X170790892Y-84918514D01*
X170561000Y-85039181D01*
X170561000Y-86233000D01*
X170581000Y-86233000D01*
X170581000Y-86487000D01*
X170561000Y-86487000D01*
X170561000Y-86507000D01*
X170307000Y-86507000D01*
X170307000Y-86487000D01*
X170287000Y-86487000D01*
X170287000Y-86233000D01*
X170307000Y-86233000D01*
X170307000Y-85039181D01*
X170077108Y-84918514D01*
X169795000Y-85050999D01*
X169795000Y-78065161D01*
X169812337Y-77978000D01*
X169795000Y-77890839D01*
X169795000Y-77890835D01*
X169743652Y-77632690D01*
X169548049Y-77339951D01*
X169474156Y-77290577D01*
X168970578Y-76787000D01*
X169633046Y-76787000D01*
X170969062Y-76233604D01*
X171350001Y-75852665D01*
X171350001Y-85202830D01*
X171350001Y-85202830D01*
G37*
X171350001Y-85202830D02*
X171315358Y-85164817D01*
X170790892Y-84918514D01*
X170561000Y-85039181D01*
X170561000Y-86233000D01*
X170581000Y-86233000D01*
X170581000Y-86487000D01*
X170561000Y-86487000D01*
X170561000Y-86507000D01*
X170307000Y-86507000D01*
X170307000Y-86487000D01*
X170287000Y-86487000D01*
X170287000Y-86233000D01*
X170307000Y-86233000D01*
X170307000Y-85039181D01*
X170077108Y-84918514D01*
X169795000Y-85050999D01*
X169795000Y-78065161D01*
X169812337Y-77978000D01*
X169795000Y-77890839D01*
X169795000Y-77890835D01*
X169743652Y-77632690D01*
X169548049Y-77339951D01*
X169474156Y-77290577D01*
X168970578Y-76787000D01*
X169633046Y-76787000D01*
X170969062Y-76233604D01*
X171350001Y-75852665D01*
X171350001Y-85202830D01*
G36*
X143353663Y-81956320D02*
X143544647Y-82035428D01*
X143413857Y-82089603D01*
X143344392Y-82331787D01*
X144145000Y-83132395D01*
X144159143Y-83118253D01*
X144338748Y-83297858D01*
X144324605Y-83312000D01*
X144338748Y-83326143D01*
X144159143Y-83505748D01*
X144145000Y-83491605D01*
X143344392Y-84292213D01*
X143413857Y-84534397D01*
X143554393Y-84584535D01*
X143353663Y-84667680D01*
X142975000Y-85046343D01*
X142975000Y-84058172D01*
X143164787Y-84112608D01*
X143965395Y-83312000D01*
X143164787Y-82511392D01*
X142975000Y-82565828D01*
X142975000Y-81577657D01*
X143353663Y-81956320D01*
X143353663Y-81956320D01*
G37*
X143353663Y-81956320D02*
X143544647Y-82035428D01*
X143413857Y-82089603D01*
X143344392Y-82331787D01*
X144145000Y-83132395D01*
X144159143Y-83118253D01*
X144338748Y-83297858D01*
X144324605Y-83312000D01*
X144338748Y-83326143D01*
X144159143Y-83505748D01*
X144145000Y-83491605D01*
X143344392Y-84292213D01*
X143413857Y-84534397D01*
X143554393Y-84584535D01*
X143353663Y-84667680D01*
X142975000Y-85046343D01*
X142975000Y-84058172D01*
X143164787Y-84112608D01*
X143965395Y-83312000D01*
X143164787Y-82511392D01*
X142975000Y-82565828D01*
X142975000Y-81577657D01*
X143353663Y-81956320D01*
G36*
X165828396Y-71092938D02*
X165275000Y-72428954D01*
X165275000Y-73875046D01*
X165828396Y-75211062D01*
X166850938Y-76233604D01*
X167168548Y-76365162D01*
X167101345Y-76432365D01*
X166959000Y-76776017D01*
X166959000Y-77147983D01*
X167101345Y-77491635D01*
X167364365Y-77754655D01*
X167485077Y-77804656D01*
X168025001Y-78344580D01*
X168025001Y-84491436D01*
X167825983Y-84409000D01*
X167454017Y-84409000D01*
X167110365Y-84551345D01*
X166847345Y-84814365D01*
X166837555Y-84838000D01*
X165273000Y-84838000D01*
X165273000Y-84650017D01*
X165223000Y-84529306D01*
X165223000Y-78792694D01*
X165273000Y-78671983D01*
X165273000Y-78300017D01*
X165130655Y-77956365D01*
X164867635Y-77693345D01*
X164523983Y-77551000D01*
X164152017Y-77551000D01*
X163808365Y-77693345D01*
X163545345Y-77956365D01*
X163403000Y-78300017D01*
X163403000Y-78671983D01*
X163453001Y-78792696D01*
X163453000Y-84529306D01*
X163403000Y-84650017D01*
X163403000Y-84838000D01*
X160348846Y-84838000D01*
X160273999Y-84823112D01*
X160199152Y-84838000D01*
X160199148Y-84838000D01*
X159977463Y-84882096D01*
X159977461Y-84882097D01*
X159977462Y-84882097D01*
X159789526Y-85007671D01*
X159789524Y-85007673D01*
X159764000Y-85024728D01*
X159764000Y-78038801D01*
X159905801Y-77897000D01*
X159951983Y-77897000D01*
X160295635Y-77754655D01*
X160558655Y-77491635D01*
X160701000Y-77147983D01*
X160701000Y-76776017D01*
X160558655Y-76432365D01*
X160295635Y-76169345D01*
X159951983Y-76027000D01*
X159580017Y-76027000D01*
X159256000Y-76161212D01*
X159256000Y-76006802D01*
X159318802Y-75944000D01*
X160727710Y-75944000D01*
X160760365Y-75976655D01*
X161104017Y-76119000D01*
X161475983Y-76119000D01*
X161819635Y-75976655D01*
X162082655Y-75713635D01*
X162225000Y-75369983D01*
X162225000Y-74998017D01*
X162082655Y-74654365D01*
X161819635Y-74391345D01*
X161475983Y-74249000D01*
X161104017Y-74249000D01*
X160760365Y-74391345D01*
X160727710Y-74424000D01*
X160329386Y-74424000D01*
X160443000Y-74149711D01*
X160443000Y-73678289D01*
X160262595Y-73242751D01*
X159982761Y-72962917D01*
X160192359Y-72876099D01*
X160303263Y-72598868D01*
X159258000Y-71553605D01*
X159243858Y-71567748D01*
X159064253Y-71388143D01*
X159078395Y-71374000D01*
X159064253Y-71359858D01*
X159243858Y-71180253D01*
X159258000Y-71194395D01*
X159272143Y-71180253D01*
X159451748Y-71359858D01*
X159437605Y-71374000D01*
X160482868Y-72419263D01*
X160760099Y-72308359D01*
X161003323Y-71662407D01*
X160980836Y-70972547D01*
X160876865Y-70721539D01*
X166204329Y-70717005D01*
X165828396Y-71092938D01*
X165828396Y-71092938D01*
G37*
X165828396Y-71092938D02*
X165275000Y-72428954D01*
X165275000Y-73875046D01*
X165828396Y-75211062D01*
X166850938Y-76233604D01*
X167168548Y-76365162D01*
X167101345Y-76432365D01*
X166959000Y-76776017D01*
X166959000Y-77147983D01*
X167101345Y-77491635D01*
X167364365Y-77754655D01*
X167485077Y-77804656D01*
X168025001Y-78344580D01*
X168025001Y-84491436D01*
X167825983Y-84409000D01*
X167454017Y-84409000D01*
X167110365Y-84551345D01*
X166847345Y-84814365D01*
X166837555Y-84838000D01*
X165273000Y-84838000D01*
X165273000Y-84650017D01*
X165223000Y-84529306D01*
X165223000Y-78792694D01*
X165273000Y-78671983D01*
X165273000Y-78300017D01*
X165130655Y-77956365D01*
X164867635Y-77693345D01*
X164523983Y-77551000D01*
X164152017Y-77551000D01*
X163808365Y-77693345D01*
X163545345Y-77956365D01*
X163403000Y-78300017D01*
X163403000Y-78671983D01*
X163453001Y-78792696D01*
X163453000Y-84529306D01*
X163403000Y-84650017D01*
X163403000Y-84838000D01*
X160348846Y-84838000D01*
X160273999Y-84823112D01*
X160199152Y-84838000D01*
X160199148Y-84838000D01*
X159977463Y-84882096D01*
X159977461Y-84882097D01*
X159977462Y-84882097D01*
X159789526Y-85007671D01*
X159789524Y-85007673D01*
X159764000Y-85024728D01*
X159764000Y-78038801D01*
X159905801Y-77897000D01*
X159951983Y-77897000D01*
X160295635Y-77754655D01*
X160558655Y-77491635D01*
X160701000Y-77147983D01*
X160701000Y-76776017D01*
X160558655Y-76432365D01*
X160295635Y-76169345D01*
X159951983Y-76027000D01*
X159580017Y-76027000D01*
X159256000Y-76161212D01*
X159256000Y-76006802D01*
X159318802Y-75944000D01*
X160727710Y-75944000D01*
X160760365Y-75976655D01*
X161104017Y-76119000D01*
X161475983Y-76119000D01*
X161819635Y-75976655D01*
X162082655Y-75713635D01*
X162225000Y-75369983D01*
X162225000Y-74998017D01*
X162082655Y-74654365D01*
X161819635Y-74391345D01*
X161475983Y-74249000D01*
X161104017Y-74249000D01*
X160760365Y-74391345D01*
X160727710Y-74424000D01*
X160329386Y-74424000D01*
X160443000Y-74149711D01*
X160443000Y-73678289D01*
X160262595Y-73242751D01*
X159982761Y-72962917D01*
X160192359Y-72876099D01*
X160303263Y-72598868D01*
X159258000Y-71553605D01*
X159243858Y-71567748D01*
X159064253Y-71388143D01*
X159078395Y-71374000D01*
X159064253Y-71359858D01*
X159243858Y-71180253D01*
X159258000Y-71194395D01*
X159272143Y-71180253D01*
X159451748Y-71359858D01*
X159437605Y-71374000D01*
X160482868Y-72419263D01*
X160760099Y-72308359D01*
X161003323Y-71662407D01*
X160980836Y-70972547D01*
X160876865Y-70721539D01*
X166204329Y-70717005D01*
X165828396Y-71092938D01*
G04 #@! TD*
M02*
