M48
;DRILL file {KiCad (5.0.0)} date 11/19/18 15:05:33
;FORMAT={-:-/ absolute / metric / decimal}
FMAT,2
METRIC,TZ
T1C0.400
T2C0.762
T3C1.000
T4C1.100
T5C2.740
T6C1.100
%
G90
G05
M71
T1
X150.47Y-101.295
X150.571Y-76.403
X150.571Y-100.279
X151.028Y-123.393
X151.384Y-104.445
X151.638Y-85.395
X151.943Y-128.473
X152.248Y-103.835
X152.4Y-95.199
X152.502Y-101.041
X152.654Y-93.37
X152.908Y-87.706
X152.959Y-90.094
X153.518Y-123.495
X153.619Y-101.092
X154.076Y-128.524
X154.28Y-109.322
X154.635Y-118.974
X154.737Y-113.132
X155.448Y-108.001
X155.55Y-106.07
X155.804Y-103.581
X155.905Y-114.3
X156.159Y-98.908
X156.464Y-119.177
X156.972Y-94.64
X157.886Y-84.938
X157.988Y-122.682
X158.445Y-98.908
X158.598Y-97.18
X159.258Y-108.712
X159.664Y-115.672
X159.766Y-93.726
X159.868Y-86.97
X161.036Y-126.136
X161.239Y-78.181
X161.29Y-99.314
X161.29Y-112.725
X161.341Y-89.256
X161.442Y-109.982
X162.052Y-116.027
X162.103Y-91.643
X162.154Y-94.64
X162.306Y-78.232
X162.306Y-89.306
X163.119Y-119.837
X163.728Y-119.126
X165.151Y-119.126
X165.913Y-129.337
X166.37Y-78.384
X166.726Y-89.56
X167.132Y-127.61
T2
X144.145Y-78.232
X144.145Y-80.772
X144.145Y-83.312
X144.145Y-85.852
X144.145Y-88.392
X144.145Y-90.932
X144.145Y-93.472
X144.145Y-96.012
X144.145Y-98.552
X144.145Y-101.092
X144.145Y-103.632
X144.145Y-106.172
X144.145Y-108.712
X144.145Y-111.252
X144.145Y-113.792
X144.145Y-116.332
X144.145Y-118.872
X144.145Y-121.412
X144.145Y-123.952
X144.145Y-126.492
X146.685Y-78.232
X146.685Y-80.772
X146.685Y-83.312
X146.685Y-85.852
X146.685Y-88.392
X146.685Y-90.932
X146.685Y-93.472
X146.685Y-96.012
X146.685Y-98.552
X146.685Y-101.092
X146.685Y-103.632
X146.685Y-106.172
X146.685Y-108.712
X146.685Y-111.252
X146.685Y-113.792
X146.685Y-116.332
X146.685Y-118.872
X146.685Y-121.412
X146.685Y-123.952
X146.685Y-126.492
T3
X170.434Y-110.49
X170.434Y-113.03
X170.434Y-115.57
X170.434Y-118.11
X156.21Y-132.969
X158.75Y-132.969
X170.434Y-86.36
X170.434Y-88.9
X170.434Y-91.44
X170.434Y-93.98
T4
X168.529Y-98.171
X168.529Y-100.711
X156.21Y-73.279
X158.75Y-73.279
X168.529Y-103.886
X168.529Y-106.426
T5
X145.415Y-73.152
X145.415Y-131.572
X168.91Y-73.152
X168.91Y-131.572
T6
X171.069Y-98.171
X171.069Y-100.711
X156.21Y-70.739
X158.75Y-70.739
X171.069Y-103.886
X171.069Y-106.426
T0
M30
