G04 #@! TF.FileFunction,Legend,Top*
%FSLAX46Y46*%
G04 Gerber Fmt 4.6, Leading zero omitted, Abs format (unit mm)*
G04 Created by KiCad (PCBNEW 4.0.7) date 10/05/18 17:40:14*
%MOMM*%
%LPD*%
G01*
G04 APERTURE LIST*
%ADD10C,0.100000*%
%ADD11C,0.150000*%
%ADD12C,0.120000*%
G04 APERTURE END LIST*
D10*
D11*
X160528000Y-78359000D02*
X167132000Y-78359000D01*
X167132000Y-78359000D02*
X167132000Y-85471000D01*
X167132000Y-85471000D02*
X160528000Y-85471000D01*
X160528000Y-85471000D02*
X160528000Y-78359000D01*
D12*
X162780000Y-96610000D02*
X162780000Y-91110000D01*
X164880000Y-96610000D02*
X164880000Y-91110000D01*
X162780000Y-96610000D02*
X164880000Y-96610000D01*
X164880000Y-107860000D02*
X164880000Y-113360000D01*
X162780000Y-107860000D02*
X162780000Y-113360000D01*
X164880000Y-107860000D02*
X162780000Y-107860000D01*
X162140000Y-112006000D02*
X162140000Y-111006000D01*
X160440000Y-111006000D02*
X160440000Y-112006000D01*
X160186000Y-92210000D02*
X160186000Y-93210000D01*
X161886000Y-93210000D02*
X161886000Y-92210000D01*
X163330000Y-98640000D02*
X164330000Y-98640000D01*
X164330000Y-96940000D02*
X163330000Y-96940000D01*
X163330000Y-104990000D02*
X164330000Y-104990000D01*
X164330000Y-103290000D02*
X163330000Y-103290000D01*
X163330000Y-101180000D02*
X164330000Y-101180000D01*
X164330000Y-99480000D02*
X163330000Y-99480000D01*
X163330000Y-107530000D02*
X164330000Y-107530000D01*
X164330000Y-105830000D02*
X163330000Y-105830000D01*
X166072000Y-94910000D02*
X168192000Y-94910000D01*
X166072000Y-91710000D02*
X166072000Y-94910000D01*
X168192000Y-94910000D02*
X168192000Y-91710000D01*
X167938000Y-109560000D02*
X165818000Y-109560000D01*
X167938000Y-112760000D02*
X167938000Y-109560000D01*
X165818000Y-109560000D02*
X165818000Y-112760000D01*
D11*
X173355000Y-108585000D02*
X173355000Y-102235000D01*
X173355000Y-102235000D02*
X167005000Y-102235000D01*
X167005000Y-102235000D02*
X167005000Y-108585000D01*
X167005000Y-108585000D02*
X173355000Y-108585000D01*
X173355000Y-102235000D02*
X173355000Y-95885000D01*
X173355000Y-95885000D02*
X167005000Y-95885000D01*
X167005000Y-95885000D02*
X167005000Y-102235000D01*
X167005000Y-102235000D02*
X173355000Y-102235000D01*
X167132000Y-126111000D02*
X160528000Y-126111000D01*
X160528000Y-126111000D02*
X160528000Y-118999000D01*
X160528000Y-118999000D02*
X167132000Y-118999000D01*
X167132000Y-118999000D02*
X167132000Y-126111000D01*
D12*
X148930000Y-80855000D02*
X148930000Y-82975000D01*
X152130000Y-80855000D02*
X148930000Y-80855000D01*
X148930000Y-82975000D02*
X152130000Y-82975000D01*
X154945000Y-80245000D02*
X154945000Y-78985000D01*
X154945000Y-73425000D02*
X154945000Y-74685000D01*
X151185000Y-80245000D02*
X154945000Y-80245000D01*
X148935000Y-73425000D02*
X154945000Y-73425000D01*
X151730000Y-72635000D02*
X150530000Y-72635000D01*
X150530000Y-70875000D02*
X151730000Y-70875000D01*
D11*
X161290000Y-67945000D02*
X154940000Y-67945000D01*
X154940000Y-67945000D02*
X154940000Y-74295000D01*
X154940000Y-74295000D02*
X161290000Y-74295000D01*
X161290000Y-74295000D02*
X161290000Y-67945000D01*
X156799000Y-105933000D02*
X156799000Y-105583000D01*
X151049000Y-105933000D02*
X151049000Y-105483000D01*
X151049000Y-98283000D02*
X151049000Y-98733000D01*
X156799000Y-98283000D02*
X156799000Y-98733000D01*
X156799000Y-105933000D02*
X151049000Y-105933000D01*
X156799000Y-98283000D02*
X151049000Y-98283000D01*
X156799000Y-105583000D02*
X158399000Y-105583000D01*
D12*
X152900000Y-115482000D02*
X151900000Y-115482000D01*
X151900000Y-117182000D02*
X152900000Y-117182000D01*
X152154000Y-108038000D02*
X153154000Y-108038000D01*
X153154000Y-106338000D02*
X152154000Y-106338000D01*
X157726000Y-126658000D02*
X156726000Y-126658000D01*
X156726000Y-128358000D02*
X157726000Y-128358000D01*
X149800000Y-125028000D02*
X152460000Y-125028000D01*
X149800000Y-122428000D02*
X149800000Y-125028000D01*
X152460000Y-122428000D02*
X152460000Y-125028000D01*
X149800000Y-122428000D02*
X152460000Y-122428000D01*
X149800000Y-121158000D02*
X149800000Y-119828000D01*
X149800000Y-119828000D02*
X151130000Y-119828000D01*
X152238000Y-128388000D02*
X151038000Y-128388000D01*
X151038000Y-126628000D02*
X152238000Y-126628000D01*
X154778000Y-131944000D02*
X153578000Y-131944000D01*
X153578000Y-130184000D02*
X154778000Y-130184000D01*
X171764000Y-85030000D02*
X169104000Y-85030000D01*
X171764000Y-92710000D02*
X171764000Y-85030000D01*
X169104000Y-92710000D02*
X169104000Y-85030000D01*
X171764000Y-92710000D02*
X169104000Y-92710000D01*
X171764000Y-93980000D02*
X171764000Y-95310000D01*
X171764000Y-95310000D02*
X170434000Y-95310000D01*
X169104000Y-119440000D02*
X171764000Y-119440000D01*
X169104000Y-111760000D02*
X169104000Y-119440000D01*
X171764000Y-111760000D02*
X171764000Y-119440000D01*
X169104000Y-111760000D02*
X171764000Y-111760000D01*
X169104000Y-110490000D02*
X169104000Y-109160000D01*
X169104000Y-109160000D02*
X170434000Y-109160000D01*
X153030000Y-108350000D02*
X153030000Y-109610000D01*
X153030000Y-115170000D02*
X153030000Y-113910000D01*
X156790000Y-108350000D02*
X153030000Y-108350000D01*
X159040000Y-115170000D02*
X153030000Y-115170000D01*
X154880000Y-93024000D02*
X157540000Y-93024000D01*
X154880000Y-90424000D02*
X154880000Y-93024000D01*
X157540000Y-90424000D02*
X157540000Y-93024000D01*
X154880000Y-90424000D02*
X157540000Y-90424000D01*
X154880000Y-89154000D02*
X154880000Y-87824000D01*
X154880000Y-87824000D02*
X156210000Y-87824000D01*
D11*
X163576095Y-74255381D02*
X163576095Y-75064905D01*
X163623714Y-75160143D01*
X163671333Y-75207762D01*
X163766571Y-75255381D01*
X163957048Y-75255381D01*
X164052286Y-75207762D01*
X164099905Y-75160143D01*
X164147524Y-75064905D01*
X164147524Y-74255381D01*
X165147524Y-75255381D02*
X164576095Y-75255381D01*
X164861809Y-75255381D02*
X164861809Y-74255381D01*
X164766571Y-74398238D01*
X164671333Y-74493476D01*
X164576095Y-74541095D01*
X161637143Y-92876666D02*
X161684762Y-92924285D01*
X161732381Y-93067142D01*
X161732381Y-93162380D01*
X161684762Y-93305238D01*
X161589524Y-93400476D01*
X161494286Y-93448095D01*
X161303810Y-93495714D01*
X161160952Y-93495714D01*
X160970476Y-93448095D01*
X160875238Y-93400476D01*
X160780000Y-93305238D01*
X160732381Y-93162380D01*
X160732381Y-93067142D01*
X160780000Y-92924285D01*
X160827619Y-92876666D01*
X161732381Y-91924285D02*
X161732381Y-92495714D01*
X161732381Y-92210000D02*
X160732381Y-92210000D01*
X160875238Y-92305238D01*
X160970476Y-92400476D01*
X161018095Y-92495714D01*
X166737143Y-111926666D02*
X166784762Y-111974285D01*
X166832381Y-112117142D01*
X166832381Y-112212380D01*
X166784762Y-112355238D01*
X166689524Y-112450476D01*
X166594286Y-112498095D01*
X166403810Y-112545714D01*
X166260952Y-112545714D01*
X166070476Y-112498095D01*
X165975238Y-112450476D01*
X165880000Y-112355238D01*
X165832381Y-112212380D01*
X165832381Y-112117142D01*
X165880000Y-111974285D01*
X165927619Y-111926666D01*
X165927619Y-111545714D02*
X165880000Y-111498095D01*
X165832381Y-111402857D01*
X165832381Y-111164761D01*
X165880000Y-111069523D01*
X165927619Y-111021904D01*
X166022857Y-110974285D01*
X166118095Y-110974285D01*
X166260952Y-111021904D01*
X166832381Y-111593333D01*
X166832381Y-110974285D01*
X163147143Y-111672666D02*
X163194762Y-111720285D01*
X163242381Y-111863142D01*
X163242381Y-111958380D01*
X163194762Y-112101238D01*
X163099524Y-112196476D01*
X163004286Y-112244095D01*
X162813810Y-112291714D01*
X162670952Y-112291714D01*
X162480476Y-112244095D01*
X162385238Y-112196476D01*
X162290000Y-112101238D01*
X162242381Y-111958380D01*
X162242381Y-111863142D01*
X162290000Y-111720285D01*
X162337619Y-111672666D01*
X162242381Y-111339333D02*
X162242381Y-110720285D01*
X162623333Y-111053619D01*
X162623333Y-110910761D01*
X162670952Y-110815523D01*
X162718571Y-110767904D01*
X162813810Y-110720285D01*
X163051905Y-110720285D01*
X163147143Y-110767904D01*
X163194762Y-110815523D01*
X163242381Y-110910761D01*
X163242381Y-111196476D01*
X163194762Y-111291714D01*
X163147143Y-111339333D01*
X159893143Y-92876666D02*
X159940762Y-92924285D01*
X159988381Y-93067142D01*
X159988381Y-93162380D01*
X159940762Y-93305238D01*
X159845524Y-93400476D01*
X159750286Y-93448095D01*
X159559810Y-93495714D01*
X159416952Y-93495714D01*
X159226476Y-93448095D01*
X159131238Y-93400476D01*
X159036000Y-93305238D01*
X158988381Y-93162380D01*
X158988381Y-93067142D01*
X159036000Y-92924285D01*
X159083619Y-92876666D01*
X159321714Y-92019523D02*
X159988381Y-92019523D01*
X158940762Y-92257619D02*
X159655048Y-92495714D01*
X159655048Y-91876666D01*
X163663334Y-99647143D02*
X163615715Y-99694762D01*
X163472858Y-99742381D01*
X163377620Y-99742381D01*
X163234762Y-99694762D01*
X163139524Y-99599524D01*
X163091905Y-99504286D01*
X163044286Y-99313810D01*
X163044286Y-99170952D01*
X163091905Y-98980476D01*
X163139524Y-98885238D01*
X163234762Y-98790000D01*
X163377620Y-98742381D01*
X163472858Y-98742381D01*
X163615715Y-98790000D01*
X163663334Y-98837619D01*
X164568096Y-98742381D02*
X164091905Y-98742381D01*
X164044286Y-99218571D01*
X164091905Y-99170952D01*
X164187143Y-99123333D01*
X164425239Y-99123333D01*
X164520477Y-99170952D01*
X164568096Y-99218571D01*
X164615715Y-99313810D01*
X164615715Y-99551905D01*
X164568096Y-99647143D01*
X164520477Y-99694762D01*
X164425239Y-99742381D01*
X164187143Y-99742381D01*
X164091905Y-99694762D01*
X164044286Y-99647143D01*
X163663334Y-105997143D02*
X163615715Y-106044762D01*
X163472858Y-106092381D01*
X163377620Y-106092381D01*
X163234762Y-106044762D01*
X163139524Y-105949524D01*
X163091905Y-105854286D01*
X163044286Y-105663810D01*
X163044286Y-105520952D01*
X163091905Y-105330476D01*
X163139524Y-105235238D01*
X163234762Y-105140000D01*
X163377620Y-105092381D01*
X163472858Y-105092381D01*
X163615715Y-105140000D01*
X163663334Y-105187619D01*
X164520477Y-105092381D02*
X164330000Y-105092381D01*
X164234762Y-105140000D01*
X164187143Y-105187619D01*
X164091905Y-105330476D01*
X164044286Y-105520952D01*
X164044286Y-105901905D01*
X164091905Y-105997143D01*
X164139524Y-106044762D01*
X164234762Y-106092381D01*
X164425239Y-106092381D01*
X164520477Y-106044762D01*
X164568096Y-105997143D01*
X164615715Y-105901905D01*
X164615715Y-105663810D01*
X164568096Y-105568571D01*
X164520477Y-105520952D01*
X164425239Y-105473333D01*
X164234762Y-105473333D01*
X164139524Y-105520952D01*
X164091905Y-105568571D01*
X164044286Y-105663810D01*
X163663334Y-102187143D02*
X163615715Y-102234762D01*
X163472858Y-102282381D01*
X163377620Y-102282381D01*
X163234762Y-102234762D01*
X163139524Y-102139524D01*
X163091905Y-102044286D01*
X163044286Y-101853810D01*
X163044286Y-101710952D01*
X163091905Y-101520476D01*
X163139524Y-101425238D01*
X163234762Y-101330000D01*
X163377620Y-101282381D01*
X163472858Y-101282381D01*
X163615715Y-101330000D01*
X163663334Y-101377619D01*
X163996667Y-101282381D02*
X164663334Y-101282381D01*
X164234762Y-102282381D01*
X163663334Y-108537143D02*
X163615715Y-108584762D01*
X163472858Y-108632381D01*
X163377620Y-108632381D01*
X163234762Y-108584762D01*
X163139524Y-108489524D01*
X163091905Y-108394286D01*
X163044286Y-108203810D01*
X163044286Y-108060952D01*
X163091905Y-107870476D01*
X163139524Y-107775238D01*
X163234762Y-107680000D01*
X163377620Y-107632381D01*
X163472858Y-107632381D01*
X163615715Y-107680000D01*
X163663334Y-107727619D01*
X164234762Y-108060952D02*
X164139524Y-108013333D01*
X164091905Y-107965714D01*
X164044286Y-107870476D01*
X164044286Y-107822857D01*
X164091905Y-107727619D01*
X164139524Y-107680000D01*
X164234762Y-107632381D01*
X164425239Y-107632381D01*
X164520477Y-107680000D01*
X164568096Y-107727619D01*
X164615715Y-107822857D01*
X164615715Y-107870476D01*
X164568096Y-107965714D01*
X164520477Y-108013333D01*
X164425239Y-108060952D01*
X164234762Y-108060952D01*
X164139524Y-108108571D01*
X164091905Y-108156190D01*
X164044286Y-108251429D01*
X164044286Y-108441905D01*
X164091905Y-108537143D01*
X164139524Y-108584762D01*
X164234762Y-108632381D01*
X164425239Y-108632381D01*
X164520477Y-108584762D01*
X164568096Y-108537143D01*
X164615715Y-108441905D01*
X164615715Y-108251429D01*
X164568096Y-108156190D01*
X164520477Y-108108571D01*
X164425239Y-108060952D01*
X165784381Y-93448095D02*
X164784381Y-93448095D01*
X164784381Y-93210000D01*
X164832000Y-93067142D01*
X164927238Y-92971904D01*
X165022476Y-92924285D01*
X165212952Y-92876666D01*
X165355810Y-92876666D01*
X165546286Y-92924285D01*
X165641524Y-92971904D01*
X165736762Y-93067142D01*
X165784381Y-93210000D01*
X165784381Y-93448095D01*
X165784381Y-91924285D02*
X165784381Y-92495714D01*
X165784381Y-92210000D02*
X164784381Y-92210000D01*
X164927238Y-92305238D01*
X165022476Y-92400476D01*
X165070095Y-92495714D01*
X169130381Y-112498095D02*
X168130381Y-112498095D01*
X168130381Y-112260000D01*
X168178000Y-112117142D01*
X168273238Y-112021904D01*
X168368476Y-111974285D01*
X168558952Y-111926666D01*
X168701810Y-111926666D01*
X168892286Y-111974285D01*
X168987524Y-112021904D01*
X169082762Y-112117142D01*
X169130381Y-112260000D01*
X169130381Y-112498095D01*
X168225619Y-111545714D02*
X168178000Y-111498095D01*
X168130381Y-111402857D01*
X168130381Y-111164761D01*
X168178000Y-111069523D01*
X168225619Y-111021904D01*
X168320857Y-110974285D01*
X168416095Y-110974285D01*
X168558952Y-111021904D01*
X169130381Y-111593333D01*
X169130381Y-110974285D01*
X165822381Y-105743333D02*
X166536667Y-105743333D01*
X166679524Y-105790953D01*
X166774762Y-105886191D01*
X166822381Y-106029048D01*
X166822381Y-106124286D01*
X165822381Y-105362381D02*
X165822381Y-104743333D01*
X166203333Y-105076667D01*
X166203333Y-104933809D01*
X166250952Y-104838571D01*
X166298571Y-104790952D01*
X166393810Y-104743333D01*
X166631905Y-104743333D01*
X166727143Y-104790952D01*
X166774762Y-104838571D01*
X166822381Y-104933809D01*
X166822381Y-105219524D01*
X166774762Y-105314762D01*
X166727143Y-105362381D01*
X165822381Y-99393333D02*
X166536667Y-99393333D01*
X166679524Y-99440953D01*
X166774762Y-99536191D01*
X166822381Y-99679048D01*
X166822381Y-99774286D01*
X166155714Y-98488571D02*
X166822381Y-98488571D01*
X165774762Y-98726667D02*
X166489048Y-98964762D01*
X166489048Y-98345714D01*
X162560095Y-129119381D02*
X162560095Y-129928905D01*
X162607714Y-130024143D01*
X162655333Y-130071762D01*
X162750571Y-130119381D01*
X162941048Y-130119381D01*
X163036286Y-130071762D01*
X163083905Y-130024143D01*
X163131524Y-129928905D01*
X163131524Y-129119381D01*
X163560095Y-129214619D02*
X163607714Y-129167000D01*
X163702952Y-129119381D01*
X163941048Y-129119381D01*
X164036286Y-129167000D01*
X164083905Y-129214619D01*
X164131524Y-129309857D01*
X164131524Y-129405095D01*
X164083905Y-129547952D01*
X163512476Y-130119381D01*
X164131524Y-130119381D01*
X150391905Y-80567381D02*
X150391905Y-79567381D01*
X150630000Y-79567381D01*
X150772858Y-79615000D01*
X150868096Y-79710238D01*
X150915715Y-79805476D01*
X150963334Y-79995952D01*
X150963334Y-80138810D01*
X150915715Y-80329286D01*
X150868096Y-80424524D01*
X150772858Y-80519762D01*
X150630000Y-80567381D01*
X150391905Y-80567381D01*
X151296667Y-79567381D02*
X151915715Y-79567381D01*
X151582381Y-79948333D01*
X151725239Y-79948333D01*
X151820477Y-79995952D01*
X151868096Y-80043571D01*
X151915715Y-80138810D01*
X151915715Y-80376905D01*
X151868096Y-80472143D01*
X151820477Y-80519762D01*
X151725239Y-80567381D01*
X151439524Y-80567381D01*
X151344286Y-80519762D01*
X151296667Y-80472143D01*
X152939762Y-72882619D02*
X152844524Y-72835000D01*
X152749286Y-72739762D01*
X152606429Y-72596905D01*
X152511190Y-72549286D01*
X152415952Y-72549286D01*
X152463571Y-72787381D02*
X152368333Y-72739762D01*
X152273095Y-72644524D01*
X152225476Y-72454048D01*
X152225476Y-72120714D01*
X152273095Y-71930238D01*
X152368333Y-71835000D01*
X152463571Y-71787381D01*
X152654048Y-71787381D01*
X152749286Y-71835000D01*
X152844524Y-71930238D01*
X152892143Y-72120714D01*
X152892143Y-72454048D01*
X152844524Y-72644524D01*
X152749286Y-72739762D01*
X152654048Y-72787381D01*
X152463571Y-72787381D01*
X153844524Y-72787381D02*
X153273095Y-72787381D01*
X153558809Y-72787381D02*
X153558809Y-71787381D01*
X153463571Y-71930238D01*
X153368333Y-72025476D01*
X153273095Y-72073095D01*
X150963334Y-70557381D02*
X150630000Y-70081190D01*
X150391905Y-70557381D02*
X150391905Y-69557381D01*
X150772858Y-69557381D01*
X150868096Y-69605000D01*
X150915715Y-69652619D01*
X150963334Y-69747857D01*
X150963334Y-69890714D01*
X150915715Y-69985952D01*
X150868096Y-70033571D01*
X150772858Y-70081190D01*
X150391905Y-70081190D01*
X151915715Y-70557381D02*
X151344286Y-70557381D01*
X151630000Y-70557381D02*
X151630000Y-69557381D01*
X151534762Y-69700238D01*
X151439524Y-69795476D01*
X151344286Y-69843095D01*
X157781667Y-74382381D02*
X157781667Y-75096667D01*
X157734047Y-75239524D01*
X157638809Y-75334762D01*
X157495952Y-75382381D01*
X157400714Y-75382381D01*
X158781667Y-75382381D02*
X158210238Y-75382381D01*
X158495952Y-75382381D02*
X158495952Y-74382381D01*
X158400714Y-74525238D01*
X158305476Y-74620476D01*
X158210238Y-74668095D01*
X153162095Y-106310381D02*
X153162095Y-107119905D01*
X153209714Y-107215143D01*
X153257333Y-107262762D01*
X153352571Y-107310381D01*
X153543048Y-107310381D01*
X153638286Y-107262762D01*
X153685905Y-107215143D01*
X153733524Y-107119905D01*
X153733524Y-106310381D01*
X154114476Y-106310381D02*
X154733524Y-106310381D01*
X154400190Y-106691333D01*
X154543048Y-106691333D01*
X154638286Y-106738952D01*
X154685905Y-106786571D01*
X154733524Y-106881810D01*
X154733524Y-107119905D01*
X154685905Y-107215143D01*
X154638286Y-107262762D01*
X154543048Y-107310381D01*
X154257333Y-107310381D01*
X154162095Y-107262762D01*
X154114476Y-107215143D01*
X152233334Y-115189143D02*
X152185715Y-115236762D01*
X152042858Y-115284381D01*
X151947620Y-115284381D01*
X151804762Y-115236762D01*
X151709524Y-115141524D01*
X151661905Y-115046286D01*
X151614286Y-114855810D01*
X151614286Y-114712952D01*
X151661905Y-114522476D01*
X151709524Y-114427238D01*
X151804762Y-114332000D01*
X151947620Y-114284381D01*
X152042858Y-114284381D01*
X152185715Y-114332000D01*
X152233334Y-114379619D01*
X152709524Y-115284381D02*
X152900000Y-115284381D01*
X152995239Y-115236762D01*
X153042858Y-115189143D01*
X153138096Y-115046286D01*
X153185715Y-114855810D01*
X153185715Y-114474857D01*
X153138096Y-114379619D01*
X153090477Y-114332000D01*
X152995239Y-114284381D01*
X152804762Y-114284381D01*
X152709524Y-114332000D01*
X152661905Y-114379619D01*
X152614286Y-114474857D01*
X152614286Y-114712952D01*
X152661905Y-114808190D01*
X152709524Y-114855810D01*
X152804762Y-114903429D01*
X152995239Y-114903429D01*
X153090477Y-114855810D01*
X153138096Y-114808190D01*
X153185715Y-114712952D01*
X152011143Y-109045143D02*
X151963524Y-109092762D01*
X151820667Y-109140381D01*
X151725429Y-109140381D01*
X151582571Y-109092762D01*
X151487333Y-108997524D01*
X151439714Y-108902286D01*
X151392095Y-108711810D01*
X151392095Y-108568952D01*
X151439714Y-108378476D01*
X151487333Y-108283238D01*
X151582571Y-108188000D01*
X151725429Y-108140381D01*
X151820667Y-108140381D01*
X151963524Y-108188000D01*
X152011143Y-108235619D01*
X152963524Y-109140381D02*
X152392095Y-109140381D01*
X152677809Y-109140381D02*
X152677809Y-108140381D01*
X152582571Y-108283238D01*
X152487333Y-108378476D01*
X152392095Y-108426095D01*
X153582571Y-108140381D02*
X153677810Y-108140381D01*
X153773048Y-108188000D01*
X153820667Y-108235619D01*
X153868286Y-108330857D01*
X153915905Y-108521333D01*
X153915905Y-108759429D01*
X153868286Y-108949905D01*
X153820667Y-109045143D01*
X153773048Y-109092762D01*
X153677810Y-109140381D01*
X153582571Y-109140381D01*
X153487333Y-109092762D01*
X153439714Y-109045143D01*
X153392095Y-108949905D01*
X153344476Y-108759429D01*
X153344476Y-108521333D01*
X153392095Y-108330857D01*
X153439714Y-108235619D01*
X153487333Y-108188000D01*
X153582571Y-108140381D01*
X156583143Y-126365143D02*
X156535524Y-126412762D01*
X156392667Y-126460381D01*
X156297429Y-126460381D01*
X156154571Y-126412762D01*
X156059333Y-126317524D01*
X156011714Y-126222286D01*
X155964095Y-126031810D01*
X155964095Y-125888952D01*
X156011714Y-125698476D01*
X156059333Y-125603238D01*
X156154571Y-125508000D01*
X156297429Y-125460381D01*
X156392667Y-125460381D01*
X156535524Y-125508000D01*
X156583143Y-125555619D01*
X157535524Y-126460381D02*
X156964095Y-126460381D01*
X157249809Y-126460381D02*
X157249809Y-125460381D01*
X157154571Y-125603238D01*
X157059333Y-125698476D01*
X156964095Y-125746095D01*
X158487905Y-126460381D02*
X157916476Y-126460381D01*
X158202190Y-126460381D02*
X158202190Y-125460381D01*
X158106952Y-125603238D01*
X158011714Y-125698476D01*
X157916476Y-125746095D01*
X150796667Y-118280381D02*
X150796667Y-118994667D01*
X150749047Y-119137524D01*
X150653809Y-119232762D01*
X150510952Y-119280381D01*
X150415714Y-119280381D01*
X151225238Y-118375619D02*
X151272857Y-118328000D01*
X151368095Y-118280381D01*
X151606191Y-118280381D01*
X151701429Y-118328000D01*
X151749048Y-118375619D01*
X151796667Y-118470857D01*
X151796667Y-118566095D01*
X151749048Y-118708952D01*
X151177619Y-119280381D01*
X151796667Y-119280381D01*
X151471334Y-126310381D02*
X151138000Y-125834190D01*
X150899905Y-126310381D02*
X150899905Y-125310381D01*
X151280858Y-125310381D01*
X151376096Y-125358000D01*
X151423715Y-125405619D01*
X151471334Y-125500857D01*
X151471334Y-125643714D01*
X151423715Y-125738952D01*
X151376096Y-125786571D01*
X151280858Y-125834190D01*
X150899905Y-125834190D01*
X151852286Y-125405619D02*
X151899905Y-125358000D01*
X151995143Y-125310381D01*
X152233239Y-125310381D01*
X152328477Y-125358000D01*
X152376096Y-125405619D01*
X152423715Y-125500857D01*
X152423715Y-125596095D01*
X152376096Y-125738952D01*
X151804667Y-126310381D01*
X152423715Y-126310381D01*
X154011334Y-129866381D02*
X153678000Y-129390190D01*
X153439905Y-129866381D02*
X153439905Y-128866381D01*
X153820858Y-128866381D01*
X153916096Y-128914000D01*
X153963715Y-128961619D01*
X154011334Y-129056857D01*
X154011334Y-129199714D01*
X153963715Y-129294952D01*
X153916096Y-129342571D01*
X153820858Y-129390190D01*
X153439905Y-129390190D01*
X154344667Y-128866381D02*
X154963715Y-128866381D01*
X154630381Y-129247333D01*
X154773239Y-129247333D01*
X154868477Y-129294952D01*
X154916096Y-129342571D01*
X154963715Y-129437810D01*
X154963715Y-129675905D01*
X154916096Y-129771143D01*
X154868477Y-129818762D01*
X154773239Y-129866381D01*
X154487524Y-129866381D01*
X154392286Y-129818762D01*
X154344667Y-129771143D01*
X170100667Y-95762381D02*
X170100667Y-96476667D01*
X170053047Y-96619524D01*
X169957809Y-96714762D01*
X169814952Y-96762381D01*
X169719714Y-96762381D01*
X171053048Y-95762381D02*
X170576857Y-95762381D01*
X170529238Y-96238571D01*
X170576857Y-96190952D01*
X170672095Y-96143333D01*
X170910191Y-96143333D01*
X171005429Y-96190952D01*
X171053048Y-96238571D01*
X171100667Y-96333810D01*
X171100667Y-96571905D01*
X171053048Y-96667143D01*
X171005429Y-96714762D01*
X170910191Y-96762381D01*
X170672095Y-96762381D01*
X170576857Y-96714762D01*
X170529238Y-96667143D01*
X170100667Y-107612381D02*
X170100667Y-108326667D01*
X170053047Y-108469524D01*
X169957809Y-108564762D01*
X169814952Y-108612381D01*
X169719714Y-108612381D01*
X171005429Y-107612381D02*
X170814952Y-107612381D01*
X170719714Y-107660000D01*
X170672095Y-107707619D01*
X170576857Y-107850476D01*
X170529238Y-108040952D01*
X170529238Y-108421905D01*
X170576857Y-108517143D01*
X170624476Y-108564762D01*
X170719714Y-108612381D01*
X170910191Y-108612381D01*
X171005429Y-108564762D01*
X171053048Y-108517143D01*
X171100667Y-108421905D01*
X171100667Y-108183810D01*
X171053048Y-108088571D01*
X171005429Y-108040952D01*
X170910191Y-107993333D01*
X170719714Y-107993333D01*
X170624476Y-108040952D01*
X170576857Y-108088571D01*
X170529238Y-108183810D01*
X154178095Y-115712381D02*
X154178095Y-116521905D01*
X154225714Y-116617143D01*
X154273333Y-116664762D01*
X154368571Y-116712381D01*
X154559048Y-116712381D01*
X154654286Y-116664762D01*
X154701905Y-116617143D01*
X154749524Y-116521905D01*
X154749524Y-115712381D01*
X155701905Y-115712381D02*
X155225714Y-115712381D01*
X155178095Y-116188571D01*
X155225714Y-116140952D01*
X155320952Y-116093333D01*
X155559048Y-116093333D01*
X155654286Y-116140952D01*
X155701905Y-116188571D01*
X155749524Y-116283810D01*
X155749524Y-116521905D01*
X155701905Y-116617143D01*
X155654286Y-116664762D01*
X155559048Y-116712381D01*
X155320952Y-116712381D01*
X155225714Y-116664762D01*
X155178095Y-116617143D01*
X155876667Y-86276381D02*
X155876667Y-86990667D01*
X155829047Y-87133524D01*
X155733809Y-87228762D01*
X155590952Y-87276381D01*
X155495714Y-87276381D01*
X156257619Y-86276381D02*
X156924286Y-86276381D01*
X156495714Y-87276381D01*
M02*
