G04 #@! TF.GenerationSoftware,KiCad,Pcbnew,(5.0.0-3-g5ebb6b6)*
G04 #@! TF.CreationDate,2018-12-14T01:06:50+00:00*
G04 #@! TF.ProjectId,Motor Shield,4D6F746F7220536869656C642E6B6963,rev?*
G04 #@! TF.SameCoordinates,Original*
G04 #@! TF.FileFunction,Legend,Top*
G04 #@! TF.FilePolarity,Positive*
%FSLAX46Y46*%
G04 Gerber Fmt 4.6, Leading zero omitted, Abs format (unit mm)*
G04 Created by KiCad (PCBNEW (5.0.0-3-g5ebb6b6)) date 2018 December 14, Friday 01:06:50*
%MOMM*%
%LPD*%
G01*
G04 APERTURE LIST*
%ADD10C,0.250000*%
%ADD11C,0.200000*%
%ADD12C,0.187500*%
%ADD13C,0.125000*%
%ADD14C,0.300000*%
%ADD15C,0.120000*%
%ADD16C,0.150000*%
%ADD17C,0.100000*%
G04 APERTURE END LIST*
D10*
X167498780Y-110680476D02*
X167498780Y-111156666D01*
X167974971Y-111204285D01*
X167927352Y-111156666D01*
X167879733Y-111061428D01*
X167879733Y-110823333D01*
X167927352Y-110728095D01*
X167974971Y-110680476D01*
X168070209Y-110632857D01*
X168308304Y-110632857D01*
X168403542Y-110680476D01*
X168451161Y-110728095D01*
X168498780Y-110823333D01*
X168498780Y-111061428D01*
X168451161Y-111156666D01*
X168403542Y-111204285D01*
X167498780Y-110347142D02*
X168498780Y-110013809D01*
X167498780Y-109680476D01*
X168213066Y-113718885D02*
X168213066Y-113242695D01*
X168498780Y-113814123D02*
X167498780Y-113480790D01*
X168498780Y-113147457D01*
X167594019Y-112861742D02*
X167546400Y-112814123D01*
X167498780Y-112718885D01*
X167498780Y-112480790D01*
X167546400Y-112385552D01*
X167594019Y-112337933D01*
X167689257Y-112290314D01*
X167784495Y-112290314D01*
X167927352Y-112337933D01*
X168498780Y-112909361D01*
X168498780Y-112290314D01*
X167521000Y-119049704D02*
X167473380Y-119144942D01*
X167473380Y-119287800D01*
X167521000Y-119430657D01*
X167616238Y-119525895D01*
X167711476Y-119573514D01*
X167901952Y-119621133D01*
X168044809Y-119621133D01*
X168235285Y-119573514D01*
X168330523Y-119525895D01*
X168425761Y-119430657D01*
X168473380Y-119287800D01*
X168473380Y-119192561D01*
X168425761Y-119049704D01*
X168378142Y-119002085D01*
X168044809Y-119002085D01*
X168044809Y-119192561D01*
X168473380Y-118573514D02*
X167473380Y-118573514D01*
X168473380Y-118002085D01*
X167473380Y-118002085D01*
X168473380Y-117525895D02*
X167473380Y-117525895D01*
X167473380Y-117287800D01*
X167521000Y-117144942D01*
X167616238Y-117049704D01*
X167711476Y-117002085D01*
X167901952Y-116954466D01*
X168044809Y-116954466D01*
X168235285Y-117002085D01*
X168330523Y-117049704D01*
X168425761Y-117144942D01*
X168473380Y-117287800D01*
X168473380Y-117525895D01*
X167949571Y-116000161D02*
X167997190Y-115857304D01*
X168044809Y-115809685D01*
X168140047Y-115762066D01*
X168282904Y-115762066D01*
X168378142Y-115809685D01*
X168425761Y-115857304D01*
X168473380Y-115952542D01*
X168473380Y-116333495D01*
X167473380Y-116333495D01*
X167473380Y-116000161D01*
X167521000Y-115904923D01*
X167568619Y-115857304D01*
X167663857Y-115809685D01*
X167759095Y-115809685D01*
X167854333Y-115857304D01*
X167901952Y-115904923D01*
X167949571Y-116000161D01*
X167949571Y-116333495D01*
X167568619Y-115381114D02*
X167521000Y-115333495D01*
X167473380Y-115238257D01*
X167473380Y-115000161D01*
X167521000Y-114904923D01*
X167568619Y-114857304D01*
X167663857Y-114809685D01*
X167759095Y-114809685D01*
X167901952Y-114857304D01*
X168473380Y-115428733D01*
X168473380Y-114809685D01*
X167597200Y-87020304D02*
X167549580Y-87115542D01*
X167549580Y-87258400D01*
X167597200Y-87401257D01*
X167692438Y-87496495D01*
X167787676Y-87544114D01*
X167978152Y-87591733D01*
X168121009Y-87591733D01*
X168311485Y-87544114D01*
X168406723Y-87496495D01*
X168501961Y-87401257D01*
X168549580Y-87258400D01*
X168549580Y-87163161D01*
X168501961Y-87020304D01*
X168454342Y-86972685D01*
X168121009Y-86972685D01*
X168121009Y-87163161D01*
X168549580Y-86544114D02*
X167549580Y-86544114D01*
X168549580Y-85972685D01*
X167549580Y-85972685D01*
X168549580Y-85496495D02*
X167549580Y-85496495D01*
X167549580Y-85258400D01*
X167597200Y-85115542D01*
X167692438Y-85020304D01*
X167787676Y-84972685D01*
X167978152Y-84925066D01*
X168121009Y-84925066D01*
X168311485Y-84972685D01*
X168406723Y-85020304D01*
X168501961Y-85115542D01*
X168549580Y-85258400D01*
X168549580Y-85496495D01*
X168025771Y-89304761D02*
X168073390Y-89161904D01*
X168121009Y-89114285D01*
X168216247Y-89066666D01*
X168359104Y-89066666D01*
X168454342Y-89114285D01*
X168501961Y-89161904D01*
X168549580Y-89257142D01*
X168549580Y-89638095D01*
X167549580Y-89638095D01*
X167549580Y-89304761D01*
X167597200Y-89209523D01*
X167644819Y-89161904D01*
X167740057Y-89114285D01*
X167835295Y-89114285D01*
X167930533Y-89161904D01*
X167978152Y-89209523D01*
X168025771Y-89304761D01*
X168025771Y-89638095D01*
X168549580Y-88114285D02*
X168549580Y-88685714D01*
X168549580Y-88400000D02*
X167549580Y-88400000D01*
X167692438Y-88495238D01*
X167787676Y-88590476D01*
X167835295Y-88685714D01*
X168263866Y-92154285D02*
X168263866Y-91678095D01*
X168549580Y-92249523D02*
X167549580Y-91916190D01*
X168549580Y-91582857D01*
X168549580Y-90725714D02*
X168549580Y-91297142D01*
X168549580Y-91011428D02*
X167549580Y-91011428D01*
X167692438Y-91106666D01*
X167787676Y-91201904D01*
X167835295Y-91297142D01*
X167549580Y-94119676D02*
X167549580Y-94595866D01*
X168025771Y-94643485D01*
X167978152Y-94595866D01*
X167930533Y-94500628D01*
X167930533Y-94262533D01*
X167978152Y-94167295D01*
X168025771Y-94119676D01*
X168121009Y-94072057D01*
X168359104Y-94072057D01*
X168454342Y-94119676D01*
X168501961Y-94167295D01*
X168549580Y-94262533D01*
X168549580Y-94500628D01*
X168501961Y-94595866D01*
X168454342Y-94643485D01*
X167549580Y-93786342D02*
X168549580Y-93453009D01*
X167549580Y-93119676D01*
D11*
X152527000Y-129921000D02*
G75*
G03X152527000Y-129921000I-127000J0D01*
G01*
X152400000Y-82931000D02*
G75*
G03X152400000Y-82931000I-127000J0D01*
G01*
X159994600Y-115163600D02*
G75*
G03X159994600Y-115163600I-127000J0D01*
G01*
X159994600Y-89306400D02*
G75*
G03X159994600Y-89306400I-127000J0D01*
G01*
D12*
X164899571Y-106711714D02*
X164899571Y-106140285D01*
X164899571Y-100996714D02*
X164899571Y-100425285D01*
X164560285Y-103939571D02*
X165131714Y-103939571D01*
X164846000Y-104225285D02*
X164846000Y-103653857D01*
X164560285Y-98224571D02*
X165131714Y-98224571D01*
X164846000Y-98510285D02*
X164846000Y-97938857D01*
X160871571Y-132558285D02*
X160514428Y-132558285D01*
X160478714Y-132915428D01*
X160514428Y-132879714D01*
X160585857Y-132844000D01*
X160764428Y-132844000D01*
X160835857Y-132879714D01*
X160871571Y-132915428D01*
X160907285Y-132986857D01*
X160907285Y-133165428D01*
X160871571Y-133236857D01*
X160835857Y-133272571D01*
X160764428Y-133308285D01*
X160585857Y-133308285D01*
X160514428Y-133272571D01*
X160478714Y-133236857D01*
X161121571Y-132558285D02*
X161371571Y-133308285D01*
X161621571Y-132558285D01*
X162335857Y-132808285D02*
X162621571Y-132808285D01*
X162443000Y-132558285D02*
X162443000Y-133201142D01*
X162478714Y-133272571D01*
X162550142Y-133308285D01*
X162621571Y-133308285D01*
X162978714Y-133308285D02*
X162907285Y-133272571D01*
X162871571Y-133236857D01*
X162835857Y-133165428D01*
X162835857Y-132951142D01*
X162871571Y-132879714D01*
X162907285Y-132844000D01*
X162978714Y-132808285D01*
X163085857Y-132808285D01*
X163157285Y-132844000D01*
X163193000Y-132879714D01*
X163228714Y-132951142D01*
X163228714Y-133165428D01*
X163193000Y-133236857D01*
X163157285Y-133272571D01*
X163085857Y-133308285D01*
X162978714Y-133308285D01*
X164550142Y-133308285D02*
X164300142Y-132951142D01*
X164121571Y-133308285D02*
X164121571Y-132558285D01*
X164407285Y-132558285D01*
X164478714Y-132594000D01*
X164514428Y-132629714D01*
X164550142Y-132701142D01*
X164550142Y-132808285D01*
X164514428Y-132879714D01*
X164478714Y-132915428D01*
X164407285Y-132951142D01*
X164121571Y-132951142D01*
X164871571Y-133308285D02*
X164871571Y-132558285D01*
X165157285Y-132558285D01*
X165228714Y-132594000D01*
X165264428Y-132629714D01*
X165300142Y-132701142D01*
X165300142Y-132808285D01*
X165264428Y-132879714D01*
X165228714Y-132915428D01*
X165157285Y-132951142D01*
X164871571Y-132951142D01*
X165621571Y-133308285D02*
X165621571Y-132558285D01*
D13*
X147455238Y-76553190D02*
X147455238Y-76053190D01*
X147645714Y-76053190D01*
X147693333Y-76077000D01*
X147717142Y-76100809D01*
X147740952Y-76148428D01*
X147740952Y-76219857D01*
X147717142Y-76267476D01*
X147693333Y-76291285D01*
X147645714Y-76315095D01*
X147455238Y-76315095D01*
X148240952Y-76553190D02*
X148074285Y-76315095D01*
X147955238Y-76553190D02*
X147955238Y-76053190D01*
X148145714Y-76053190D01*
X148193333Y-76077000D01*
X148217142Y-76100809D01*
X148240952Y-76148428D01*
X148240952Y-76219857D01*
X148217142Y-76267476D01*
X148193333Y-76291285D01*
X148145714Y-76315095D01*
X147955238Y-76315095D01*
X148550476Y-76053190D02*
X148645714Y-76053190D01*
X148693333Y-76077000D01*
X148740952Y-76124619D01*
X148764761Y-76219857D01*
X148764761Y-76386523D01*
X148740952Y-76481761D01*
X148693333Y-76529380D01*
X148645714Y-76553190D01*
X148550476Y-76553190D01*
X148502857Y-76529380D01*
X148455238Y-76481761D01*
X148431428Y-76386523D01*
X148431428Y-76219857D01*
X148455238Y-76124619D01*
X148502857Y-76077000D01*
X148550476Y-76053190D01*
X149240952Y-76077000D02*
X149193333Y-76053190D01*
X149121904Y-76053190D01*
X149050476Y-76077000D01*
X149002857Y-76124619D01*
X148979047Y-76172238D01*
X148955238Y-76267476D01*
X148955238Y-76338904D01*
X148979047Y-76434142D01*
X149002857Y-76481761D01*
X149050476Y-76529380D01*
X149121904Y-76553190D01*
X149169523Y-76553190D01*
X149240952Y-76529380D01*
X149264761Y-76505571D01*
X149264761Y-76338904D01*
X149169523Y-76338904D01*
X149764761Y-76553190D02*
X149598095Y-76315095D01*
X149479047Y-76553190D02*
X149479047Y-76053190D01*
X149669523Y-76053190D01*
X149717142Y-76077000D01*
X149740952Y-76100809D01*
X149764761Y-76148428D01*
X149764761Y-76219857D01*
X149740952Y-76267476D01*
X149717142Y-76291285D01*
X149669523Y-76315095D01*
X149479047Y-76315095D01*
X149955238Y-76410333D02*
X150193333Y-76410333D01*
X149907619Y-76553190D02*
X150074285Y-76053190D01*
X150240952Y-76553190D01*
X150407619Y-76553190D02*
X150407619Y-76053190D01*
X150574285Y-76410333D01*
X150740952Y-76053190D01*
X150740952Y-76553190D01*
X150979047Y-76553190D02*
X150979047Y-76053190D01*
X151145714Y-76410333D01*
X151312380Y-76053190D01*
X151312380Y-76553190D01*
X151550476Y-76291285D02*
X151717142Y-76291285D01*
X151788571Y-76553190D02*
X151550476Y-76553190D01*
X151550476Y-76053190D01*
X151788571Y-76053190D01*
X152288571Y-76553190D02*
X152121904Y-76315095D01*
X152002857Y-76553190D02*
X152002857Y-76053190D01*
X152193333Y-76053190D01*
X152240952Y-76077000D01*
X152264761Y-76100809D01*
X152288571Y-76148428D01*
X152288571Y-76219857D01*
X152264761Y-76267476D01*
X152240952Y-76291285D01*
X152193333Y-76315095D01*
X152002857Y-76315095D01*
D14*
X151165857Y-73171857D02*
X151380142Y-73243285D01*
X151451571Y-73314714D01*
X151523000Y-73457571D01*
X151523000Y-73671857D01*
X151451571Y-73814714D01*
X151380142Y-73886142D01*
X151237285Y-73957571D01*
X150665857Y-73957571D01*
X150665857Y-72457571D01*
X151165857Y-72457571D01*
X151308714Y-72529000D01*
X151380142Y-72600428D01*
X151451571Y-72743285D01*
X151451571Y-72886142D01*
X151380142Y-73029000D01*
X151308714Y-73100428D01*
X151165857Y-73171857D01*
X150665857Y-73171857D01*
X152094428Y-73529000D02*
X152808714Y-73529000D01*
X151951571Y-73957571D02*
X152451571Y-72457571D01*
X152951571Y-73957571D01*
X153237285Y-72457571D02*
X154094428Y-72457571D01*
X153665857Y-73957571D02*
X153665857Y-72457571D01*
X155638571Y-77577142D02*
X156781428Y-77577142D01*
X158305571Y-77577142D02*
X159448428Y-77577142D01*
X158877000Y-78148571D02*
X158877000Y-77005714D01*
X164127571Y-106243285D02*
X162627571Y-106243285D01*
X163699000Y-105743285D01*
X162627571Y-105243285D01*
X164127571Y-105243285D01*
X162770428Y-104600428D02*
X162699000Y-104529000D01*
X162627571Y-104386142D01*
X162627571Y-104029000D01*
X162699000Y-103886142D01*
X162770428Y-103814714D01*
X162913285Y-103743285D01*
X163056142Y-103743285D01*
X163270428Y-103814714D01*
X164127571Y-104671857D01*
X164127571Y-103743285D01*
X164127571Y-100782285D02*
X162627571Y-100782285D01*
X163699000Y-100282285D01*
X162627571Y-99782285D01*
X164127571Y-99782285D01*
X164127571Y-98282285D02*
X164127571Y-99139428D01*
X164127571Y-98710857D02*
X162627571Y-98710857D01*
X162841857Y-98853714D01*
X162984714Y-98996571D01*
X163056142Y-99139428D01*
D15*
G04 #@! TO.C,R7*
X167618000Y-93349000D02*
X167618000Y-93849000D01*
X168678000Y-93849000D02*
X168678000Y-93349000D01*
D16*
G04 #@! TO.C,U4*
X147955000Y-127762000D02*
X142875000Y-127762000D01*
X147955000Y-76962000D02*
X147955000Y-127762000D01*
X142875000Y-76962000D02*
X147955000Y-76962000D01*
X142875000Y-127762000D02*
X142875000Y-76962000D01*
X172085000Y-134747000D02*
X142240000Y-134747000D01*
X172085000Y-69977000D02*
X172085000Y-134747000D01*
X142240000Y-69977000D02*
X172085000Y-69977000D01*
X142240000Y-134747000D02*
X142240000Y-69977000D01*
D15*
G04 #@! TO.C,D3*
X149796500Y-83666000D02*
X152081500Y-83666000D01*
X152081500Y-83666000D02*
X152081500Y-82196000D01*
X152081500Y-82196000D02*
X149796500Y-82196000D01*
G04 #@! TO.C,J4*
X171929000Y-108226000D02*
X171929000Y-107726000D01*
X171189000Y-108226000D02*
X171929000Y-108226000D01*
X165369000Y-102326000D02*
X171689000Y-102326000D01*
X165369000Y-107986000D02*
X171689000Y-107986000D01*
X171689000Y-103096000D02*
X171689000Y-102326000D01*
X171689000Y-105636000D02*
X171689000Y-104676000D01*
X171689000Y-107986000D02*
X171689000Y-107216000D01*
X165369000Y-107986000D02*
X165369000Y-102326000D01*
X165829000Y-107986000D02*
X165829000Y-102326000D01*
X171129000Y-103096000D02*
X171129000Y-102326000D01*
X171129000Y-105636000D02*
X171129000Y-104676000D01*
X171129000Y-107986000D02*
X171129000Y-107216000D01*
G04 #@! TO.C,J5*
X171129000Y-102271000D02*
X171129000Y-101501000D01*
X171129000Y-99921000D02*
X171129000Y-98961000D01*
X171129000Y-97381000D02*
X171129000Y-96611000D01*
X165829000Y-102271000D02*
X165829000Y-96611000D01*
X165369000Y-102271000D02*
X165369000Y-96611000D01*
X171689000Y-102271000D02*
X171689000Y-101501000D01*
X171689000Y-99921000D02*
X171689000Y-98961000D01*
X171689000Y-97381000D02*
X171689000Y-96611000D01*
X165369000Y-102271000D02*
X171689000Y-102271000D01*
X165369000Y-96611000D02*
X171689000Y-96611000D01*
X171189000Y-102511000D02*
X171929000Y-102511000D01*
X171929000Y-102511000D02*
X171929000Y-102011000D01*
G04 #@! TO.C,Q1*
X154843000Y-92437000D02*
X154843000Y-91177000D01*
X154843000Y-85617000D02*
X154843000Y-86877000D01*
X151083000Y-92437000D02*
X154843000Y-92437000D01*
X148833000Y-85617000D02*
X154843000Y-85617000D01*
G04 #@! TO.C,J3*
X160080000Y-131639000D02*
X154880000Y-131639000D01*
X160080000Y-131699000D02*
X160080000Y-131639000D01*
X154880000Y-134299000D02*
X154880000Y-131639000D01*
X160080000Y-131699000D02*
X157480000Y-131699000D01*
X157480000Y-131699000D02*
X157480000Y-134299000D01*
X157480000Y-134299000D02*
X154880000Y-134299000D01*
X160080000Y-132969000D02*
X160080000Y-134299000D01*
X160080000Y-134299000D02*
X158750000Y-134299000D01*
D16*
G04 #@! TO.C,U3*
X156098000Y-99614000D02*
X155748000Y-99614000D01*
X156098000Y-105364000D02*
X155648000Y-105364000D01*
X148448000Y-105364000D02*
X148898000Y-105364000D01*
X148448000Y-99614000D02*
X148898000Y-99614000D01*
X156098000Y-99614000D02*
X156098000Y-105364000D01*
X148448000Y-99614000D02*
X148448000Y-105364000D01*
X155748000Y-99614000D02*
X155748000Y-98014000D01*
D15*
G04 #@! TO.C,J6*
X171764000Y-92710000D02*
X169104000Y-92710000D01*
X171764000Y-92710000D02*
X171764000Y-85030000D01*
X171764000Y-85030000D02*
X169104000Y-85030000D01*
X169104000Y-92710000D02*
X169104000Y-85030000D01*
X169104000Y-95310000D02*
X169104000Y-93980000D01*
X170434000Y-95310000D02*
X169104000Y-95310000D01*
G04 #@! TO.C,J7*
X170434000Y-109160000D02*
X171764000Y-109160000D01*
X171764000Y-109160000D02*
X171764000Y-110490000D01*
X171764000Y-111760000D02*
X171764000Y-119440000D01*
X169104000Y-119440000D02*
X171764000Y-119440000D01*
X169104000Y-111760000D02*
X169104000Y-119440000D01*
X169104000Y-111760000D02*
X171764000Y-111760000D01*
G04 #@! TO.C,J1*
X160310000Y-70679000D02*
X159540000Y-70679000D01*
X157960000Y-70679000D02*
X157000000Y-70679000D01*
X155420000Y-70679000D02*
X154650000Y-70679000D01*
X160310000Y-75979000D02*
X154650000Y-75979000D01*
X160310000Y-76439000D02*
X154650000Y-76439000D01*
X160310000Y-70119000D02*
X159540000Y-70119000D01*
X157960000Y-70119000D02*
X157000000Y-70119000D01*
X155420000Y-70119000D02*
X154650000Y-70119000D01*
X160310000Y-76439000D02*
X160310000Y-70119000D01*
X154650000Y-76439000D02*
X154650000Y-70119000D01*
X160550000Y-70619000D02*
X160550000Y-69879000D01*
X160550000Y-69879000D02*
X160050000Y-69879000D01*
G04 #@! TO.C,C1*
X165827500Y-89057500D02*
X165202500Y-89057500D01*
X165515000Y-88745000D02*
X165515000Y-89370000D01*
X162134437Y-89610000D02*
X161070000Y-90674437D01*
X165525563Y-89610000D02*
X166590000Y-90674437D01*
X165525563Y-89610000D02*
X164890000Y-89610000D01*
X162134437Y-89610000D02*
X162770000Y-89610000D01*
X161070000Y-90674437D02*
X161070000Y-95130000D01*
X166590000Y-90674437D02*
X166590000Y-95130000D01*
X166590000Y-95130000D02*
X164890000Y-95130000D01*
X161070000Y-95130000D02*
X162770000Y-95130000D01*
G04 #@! TO.C,C2*
X166590000Y-109340000D02*
X164890000Y-109340000D01*
X161070000Y-109340000D02*
X162770000Y-109340000D01*
X161070000Y-113795563D02*
X161070000Y-109340000D01*
X166590000Y-113795563D02*
X166590000Y-109340000D01*
X165525563Y-114860000D02*
X164890000Y-114860000D01*
X162134437Y-114860000D02*
X162770000Y-114860000D01*
X162134437Y-114860000D02*
X161070000Y-113795563D01*
X165525563Y-114860000D02*
X166590000Y-113795563D01*
X162145000Y-115725000D02*
X162145000Y-115100000D01*
X161832500Y-115412500D02*
X162457500Y-115412500D01*
G04 #@! TO.C,D1*
X160602600Y-91757300D02*
X160602600Y-89472300D01*
X160602600Y-89472300D02*
X159132600Y-89472300D01*
X159132600Y-89472300D02*
X159132600Y-91757300D01*
G04 #@! TO.C,D2*
X160602600Y-114997500D02*
X160602600Y-112712500D01*
X159132600Y-114997500D02*
X160602600Y-114997500D01*
X159132600Y-112712500D02*
X159132600Y-114997500D01*
G04 #@! TO.C,JP1*
X148475000Y-79105000D02*
X148475000Y-77105000D01*
X151275000Y-79105000D02*
X148475000Y-79105000D01*
X151275000Y-77105000D02*
X151275000Y-79105000D01*
X148475000Y-77105000D02*
X151275000Y-77105000D01*
G04 #@! TO.C,C14*
X150886279Y-132463000D02*
X150560721Y-132463000D01*
X150886279Y-131443000D02*
X150560721Y-131443000D01*
G04 #@! TO.C,D4*
X149923500Y-130656000D02*
X152208500Y-130656000D01*
X152208500Y-130656000D02*
X152208500Y-129186000D01*
X152208500Y-129186000D02*
X149923500Y-129186000D01*
G04 #@! TO.C,L1*
X153786721Y-129411000D02*
X154112279Y-129411000D01*
X153786721Y-130431000D02*
X154112279Y-130431000D01*
G04 #@! TO.C,U6*
X148908000Y-120455000D02*
X148908000Y-124655000D01*
X154368000Y-120455000D02*
X154368000Y-124655000D01*
X154198000Y-120455000D02*
X154368000Y-120455000D01*
X154208000Y-124655000D02*
X154378000Y-124655000D01*
X148908000Y-120455000D02*
X149078000Y-120455000D01*
X148908000Y-124655000D02*
X149078000Y-124655000D01*
X149078000Y-124655000D02*
X149078000Y-125845000D01*
D17*
G04 #@! TO.C,D5*
X153898000Y-96266000D02*
G75*
G03X153898000Y-96266000I-50000J0D01*
G01*
D16*
G04 #@! TO.C,U2*
X166878000Y-119989600D02*
X166878000Y-126238000D01*
X166116000Y-119126000D02*
X160274000Y-119126000D01*
X166116000Y-119126000D02*
X166878000Y-119989600D01*
X160274000Y-126238000D02*
X160274000Y-119126000D01*
X166878000Y-126238000D02*
X160274000Y-126238000D01*
G04 #@! TO.C,U1*
X160477200Y-84531200D02*
X160477200Y-78282800D01*
X161239200Y-85394800D02*
X167081200Y-85394800D01*
X161239200Y-85394800D02*
X160477200Y-84531200D01*
X167081200Y-78282800D02*
X167081200Y-85394800D01*
X160477200Y-78282800D02*
X167081200Y-78282800D01*
D15*
G04 #@! TO.C,R8*
X168678000Y-111052000D02*
X168678000Y-110552000D01*
X167618000Y-110552000D02*
X167618000Y-111052000D01*
G04 #@! TO.C,R9*
X167662000Y-93849000D02*
X167662000Y-93349000D01*
X166602000Y-93349000D02*
X166602000Y-93849000D01*
G04 #@! TO.C,R10*
X166602000Y-110563000D02*
X166602000Y-111063000D01*
X167662000Y-111063000D02*
X167662000Y-110563000D01*
G04 #@! TO.C,R7*
D16*
X169950380Y-93765666D02*
X169474190Y-94099000D01*
X169950380Y-94337095D02*
X168950380Y-94337095D01*
X168950380Y-93956142D01*
X168998000Y-93860904D01*
X169045619Y-93813285D01*
X169140857Y-93765666D01*
X169283714Y-93765666D01*
X169378952Y-93813285D01*
X169426571Y-93860904D01*
X169474190Y-93956142D01*
X169474190Y-94337095D01*
X168950380Y-93432333D02*
X168950380Y-92765666D01*
X169950380Y-93194238D01*
G04 #@! TO.C,U4*
X144653095Y-131151380D02*
X144653095Y-131960904D01*
X144700714Y-132056142D01*
X144748333Y-132103761D01*
X144843571Y-132151380D01*
X145034047Y-132151380D01*
X145129285Y-132103761D01*
X145176904Y-132056142D01*
X145224523Y-131960904D01*
X145224523Y-131151380D01*
X146129285Y-131484714D02*
X146129285Y-132151380D01*
X145891190Y-131103761D02*
X145653095Y-131818047D01*
X146272142Y-131818047D01*
G04 #@! TO.C,R1*
D13*
X150116000Y-84921285D02*
X149866000Y-84564142D01*
X149687428Y-84921285D02*
X149687428Y-84171285D01*
X149973142Y-84171285D01*
X150044571Y-84207000D01*
X150080285Y-84242714D01*
X150116000Y-84314142D01*
X150116000Y-84421285D01*
X150080285Y-84492714D01*
X150044571Y-84528428D01*
X149973142Y-84564142D01*
X149687428Y-84564142D01*
X150830285Y-84921285D02*
X150401714Y-84921285D01*
X150616000Y-84921285D02*
X150616000Y-84171285D01*
X150544571Y-84278428D01*
X150473142Y-84349857D01*
X150401714Y-84385571D01*
G04 #@! TO.C,D3*
X150017428Y-83270285D02*
X150017428Y-82520285D01*
X150196000Y-82520285D01*
X150303142Y-82556000D01*
X150374571Y-82627428D01*
X150410285Y-82698857D01*
X150446000Y-82841714D01*
X150446000Y-82948857D01*
X150410285Y-83091714D01*
X150374571Y-83163142D01*
X150303142Y-83234571D01*
X150196000Y-83270285D01*
X150017428Y-83270285D01*
X150696000Y-82520285D02*
X151160285Y-82520285D01*
X150910285Y-82806000D01*
X151017428Y-82806000D01*
X151088857Y-82841714D01*
X151124571Y-82877428D01*
X151160285Y-82948857D01*
X151160285Y-83127428D01*
X151124571Y-83198857D01*
X151088857Y-83234571D01*
X151017428Y-83270285D01*
X150803142Y-83270285D01*
X150731714Y-83234571D01*
X150696000Y-83198857D01*
G04 #@! TO.C,J4*
D16*
X167981380Y-105489333D02*
X168695666Y-105489333D01*
X168838523Y-105536952D01*
X168933761Y-105632190D01*
X168981380Y-105775047D01*
X168981380Y-105870285D01*
X168314714Y-104584571D02*
X168981380Y-104584571D01*
X167933761Y-104822666D02*
X168648047Y-105060761D01*
X168648047Y-104441714D01*
G04 #@! TO.C,J5*
X167981380Y-99774333D02*
X168695666Y-99774333D01*
X168838523Y-99821952D01*
X168933761Y-99917190D01*
X168981380Y-100060047D01*
X168981380Y-100155285D01*
X167981380Y-98821952D02*
X167981380Y-99298142D01*
X168457571Y-99345761D01*
X168409952Y-99298142D01*
X168362333Y-99202904D01*
X168362333Y-98964809D01*
X168409952Y-98869571D01*
X168457571Y-98821952D01*
X168552809Y-98774333D01*
X168790904Y-98774333D01*
X168886142Y-98821952D01*
X168933761Y-98869571D01*
X168981380Y-98964809D01*
X168981380Y-99202904D01*
X168933761Y-99298142D01*
X168886142Y-99345761D01*
G04 #@! TO.C,Q1*
X152812761Y-89574619D02*
X152717523Y-89527000D01*
X152622285Y-89431761D01*
X152479428Y-89288904D01*
X152384190Y-89241285D01*
X152288952Y-89241285D01*
X152336571Y-89479380D02*
X152241333Y-89431761D01*
X152146095Y-89336523D01*
X152098476Y-89146047D01*
X152098476Y-88812714D01*
X152146095Y-88622238D01*
X152241333Y-88527000D01*
X152336571Y-88479380D01*
X152527047Y-88479380D01*
X152622285Y-88527000D01*
X152717523Y-88622238D01*
X152765142Y-88812714D01*
X152765142Y-89146047D01*
X152717523Y-89336523D01*
X152622285Y-89431761D01*
X152527047Y-89479380D01*
X152336571Y-89479380D01*
X153717523Y-89479380D02*
X153146095Y-89479380D01*
X153431809Y-89479380D02*
X153431809Y-88479380D01*
X153336571Y-88622238D01*
X153241333Y-88717476D01*
X153146095Y-88765095D01*
G04 #@! TO.C,J3*
X157146666Y-132548380D02*
X157146666Y-133262666D01*
X157099047Y-133405523D01*
X157003809Y-133500761D01*
X156860952Y-133548380D01*
X156765714Y-133548380D01*
X157527619Y-132548380D02*
X158146666Y-132548380D01*
X157813333Y-132929333D01*
X157956190Y-132929333D01*
X158051428Y-132976952D01*
X158099047Y-133024571D01*
X158146666Y-133119809D01*
X158146666Y-133357904D01*
X158099047Y-133453142D01*
X158051428Y-133500761D01*
X157956190Y-133548380D01*
X157670476Y-133548380D01*
X157575238Y-133500761D01*
X157527619Y-133453142D01*
G04 #@! TO.C,U3*
X151725380Y-103250904D02*
X152534904Y-103250904D01*
X152630142Y-103203285D01*
X152677761Y-103155666D01*
X152725380Y-103060428D01*
X152725380Y-102869952D01*
X152677761Y-102774714D01*
X152630142Y-102727095D01*
X152534904Y-102679476D01*
X151725380Y-102679476D01*
X151725380Y-102298523D02*
X151725380Y-101679476D01*
X152106333Y-102012809D01*
X152106333Y-101869952D01*
X152153952Y-101774714D01*
X152201571Y-101727095D01*
X152296809Y-101679476D01*
X152534904Y-101679476D01*
X152630142Y-101727095D01*
X152677761Y-101774714D01*
X152725380Y-101869952D01*
X152725380Y-102155666D01*
X152677761Y-102250904D01*
X152630142Y-102298523D01*
G04 #@! TO.C,J6*
X170100666Y-89622380D02*
X170100666Y-90336666D01*
X170053047Y-90479523D01*
X169957809Y-90574761D01*
X169814952Y-90622380D01*
X169719714Y-90622380D01*
X171005428Y-89622380D02*
X170814952Y-89622380D01*
X170719714Y-89670000D01*
X170672095Y-89717619D01*
X170576857Y-89860476D01*
X170529238Y-90050952D01*
X170529238Y-90431904D01*
X170576857Y-90527142D01*
X170624476Y-90574761D01*
X170719714Y-90622380D01*
X170910190Y-90622380D01*
X171005428Y-90574761D01*
X171053047Y-90527142D01*
X171100666Y-90431904D01*
X171100666Y-90193809D01*
X171053047Y-90098571D01*
X171005428Y-90050952D01*
X170910190Y-90003333D01*
X170719714Y-90003333D01*
X170624476Y-90050952D01*
X170576857Y-90098571D01*
X170529238Y-90193809D01*
G04 #@! TO.C,J7*
X170100666Y-113752380D02*
X170100666Y-114466666D01*
X170053047Y-114609523D01*
X169957809Y-114704761D01*
X169814952Y-114752380D01*
X169719714Y-114752380D01*
X170481619Y-113752380D02*
X171148285Y-113752380D01*
X170719714Y-114752380D01*
G04 #@! TO.C,J1*
X157146666Y-72604380D02*
X157146666Y-73318666D01*
X157099047Y-73461523D01*
X157003809Y-73556761D01*
X156860952Y-73604380D01*
X156765714Y-73604380D01*
X158146666Y-73604380D02*
X157575238Y-73604380D01*
X157860952Y-73604380D02*
X157860952Y-72604380D01*
X157765714Y-72747238D01*
X157670476Y-72842476D01*
X157575238Y-72890095D01*
G04 #@! TO.C,C1*
X164187142Y-92368666D02*
X164234761Y-92416285D01*
X164282380Y-92559142D01*
X164282380Y-92654380D01*
X164234761Y-92797238D01*
X164139523Y-92892476D01*
X164044285Y-92940095D01*
X163853809Y-92987714D01*
X163710952Y-92987714D01*
X163520476Y-92940095D01*
X163425238Y-92892476D01*
X163330000Y-92797238D01*
X163282380Y-92654380D01*
X163282380Y-92559142D01*
X163330000Y-92416285D01*
X163377619Y-92368666D01*
X164282380Y-91416285D02*
X164282380Y-91987714D01*
X164282380Y-91702000D02*
X163282380Y-91702000D01*
X163425238Y-91797238D01*
X163520476Y-91892476D01*
X163568095Y-91987714D01*
G04 #@! TO.C,C2*
X164187142Y-112307666D02*
X164234761Y-112355285D01*
X164282380Y-112498142D01*
X164282380Y-112593380D01*
X164234761Y-112736238D01*
X164139523Y-112831476D01*
X164044285Y-112879095D01*
X163853809Y-112926714D01*
X163710952Y-112926714D01*
X163520476Y-112879095D01*
X163425238Y-112831476D01*
X163330000Y-112736238D01*
X163282380Y-112593380D01*
X163282380Y-112498142D01*
X163330000Y-112355285D01*
X163377619Y-112307666D01*
X163377619Y-111926714D02*
X163330000Y-111879095D01*
X163282380Y-111783857D01*
X163282380Y-111545761D01*
X163330000Y-111450523D01*
X163377619Y-111402904D01*
X163472857Y-111355285D01*
X163568095Y-111355285D01*
X163710952Y-111402904D01*
X164282380Y-111974333D01*
X164282380Y-111355285D01*
G04 #@! TO.C,D1*
X160206885Y-91536371D02*
X159456885Y-91536371D01*
X159456885Y-91357800D01*
X159492600Y-91250657D01*
X159564028Y-91179228D01*
X159635457Y-91143514D01*
X159778314Y-91107800D01*
X159885457Y-91107800D01*
X160028314Y-91143514D01*
X160099742Y-91179228D01*
X160171171Y-91250657D01*
X160206885Y-91357800D01*
X160206885Y-91536371D01*
X160206885Y-90393514D02*
X160206885Y-90822085D01*
X160206885Y-90607800D02*
X159456885Y-90607800D01*
X159564028Y-90679228D01*
X159635457Y-90750657D01*
X159671171Y-90822085D01*
G04 #@! TO.C,D2*
X160206885Y-114040571D02*
X159456885Y-114040571D01*
X159456885Y-113862000D01*
X159492600Y-113754857D01*
X159564028Y-113683428D01*
X159635457Y-113647714D01*
X159778314Y-113612000D01*
X159885457Y-113612000D01*
X160028314Y-113647714D01*
X160099742Y-113683428D01*
X160171171Y-113754857D01*
X160206885Y-113862000D01*
X160206885Y-114040571D01*
X159528314Y-113326285D02*
X159492600Y-113290571D01*
X159456885Y-113219142D01*
X159456885Y-113040571D01*
X159492600Y-112969142D01*
X159528314Y-112933428D01*
X159599742Y-112897714D01*
X159671171Y-112897714D01*
X159778314Y-112933428D01*
X160206885Y-113362000D01*
X160206885Y-112897714D01*
G04 #@! TO.C,C3*
X160033857Y-97788000D02*
X160069571Y-97823714D01*
X160105285Y-97930857D01*
X160105285Y-98002285D01*
X160069571Y-98109428D01*
X159998142Y-98180857D01*
X159926714Y-98216571D01*
X159783857Y-98252285D01*
X159676714Y-98252285D01*
X159533857Y-98216571D01*
X159462428Y-98180857D01*
X159391000Y-98109428D01*
X159355285Y-98002285D01*
X159355285Y-97930857D01*
X159391000Y-97823714D01*
X159426714Y-97788000D01*
X159355285Y-97538000D02*
X159355285Y-97073714D01*
X159641000Y-97323714D01*
X159641000Y-97216571D01*
X159676714Y-97145142D01*
X159712428Y-97109428D01*
X159783857Y-97073714D01*
X159962428Y-97073714D01*
X160033857Y-97109428D01*
X160069571Y-97145142D01*
X160105285Y-97216571D01*
X160105285Y-97430857D01*
X160069571Y-97502285D01*
X160033857Y-97538000D01*
G04 #@! TO.C,C4*
X160033857Y-107059000D02*
X160069571Y-107094714D01*
X160105285Y-107201857D01*
X160105285Y-107273285D01*
X160069571Y-107380428D01*
X159998142Y-107451857D01*
X159926714Y-107487571D01*
X159783857Y-107523285D01*
X159676714Y-107523285D01*
X159533857Y-107487571D01*
X159462428Y-107451857D01*
X159391000Y-107380428D01*
X159355285Y-107273285D01*
X159355285Y-107201857D01*
X159391000Y-107094714D01*
X159426714Y-107059000D01*
X159605285Y-106416142D02*
X160105285Y-106416142D01*
X159319571Y-106594714D02*
X159855285Y-106773285D01*
X159855285Y-106309000D01*
G04 #@! TO.C,JP1*
X149041666Y-77557380D02*
X149041666Y-78271666D01*
X148994047Y-78414523D01*
X148898809Y-78509761D01*
X148755952Y-78557380D01*
X148660714Y-78557380D01*
X149517857Y-78557380D02*
X149517857Y-77557380D01*
X149898809Y-77557380D01*
X149994047Y-77605000D01*
X150041666Y-77652619D01*
X150089285Y-77747857D01*
X150089285Y-77890714D01*
X150041666Y-77985952D01*
X149994047Y-78033571D01*
X149898809Y-78081190D01*
X149517857Y-78081190D01*
X151041666Y-78557380D02*
X150470238Y-78557380D01*
X150755952Y-78557380D02*
X150755952Y-77557380D01*
X150660714Y-77700238D01*
X150565476Y-77795476D01*
X150470238Y-77843095D01*
G04 #@! TO.C,R4*
X153600600Y-108670285D02*
X153350600Y-108313142D01*
X153172028Y-108670285D02*
X153172028Y-107920285D01*
X153457742Y-107920285D01*
X153529171Y-107956000D01*
X153564885Y-107991714D01*
X153600600Y-108063142D01*
X153600600Y-108170285D01*
X153564885Y-108241714D01*
X153529171Y-108277428D01*
X153457742Y-108313142D01*
X153172028Y-108313142D01*
X154243457Y-108170285D02*
X154243457Y-108670285D01*
X154064885Y-107884571D02*
X153886314Y-108420285D01*
X154350600Y-108420285D01*
G04 #@! TO.C,C5*
X161696000Y-100978857D02*
X161660285Y-101014571D01*
X161553142Y-101050285D01*
X161481714Y-101050285D01*
X161374571Y-101014571D01*
X161303142Y-100943142D01*
X161267428Y-100871714D01*
X161231714Y-100728857D01*
X161231714Y-100621714D01*
X161267428Y-100478857D01*
X161303142Y-100407428D01*
X161374571Y-100336000D01*
X161481714Y-100300285D01*
X161553142Y-100300285D01*
X161660285Y-100336000D01*
X161696000Y-100371714D01*
X162374571Y-100300285D02*
X162017428Y-100300285D01*
X161981714Y-100657428D01*
X162017428Y-100621714D01*
X162088857Y-100586000D01*
X162267428Y-100586000D01*
X162338857Y-100621714D01*
X162374571Y-100657428D01*
X162410285Y-100728857D01*
X162410285Y-100907428D01*
X162374571Y-100978857D01*
X162338857Y-101014571D01*
X162267428Y-101050285D01*
X162088857Y-101050285D01*
X162017428Y-101014571D01*
X161981714Y-100978857D01*
G04 #@! TO.C,C6*
X161719000Y-106693857D02*
X161683285Y-106729571D01*
X161576142Y-106765285D01*
X161504714Y-106765285D01*
X161397571Y-106729571D01*
X161326142Y-106658142D01*
X161290428Y-106586714D01*
X161254714Y-106443857D01*
X161254714Y-106336714D01*
X161290428Y-106193857D01*
X161326142Y-106122428D01*
X161397571Y-106051000D01*
X161504714Y-106015285D01*
X161576142Y-106015285D01*
X161683285Y-106051000D01*
X161719000Y-106086714D01*
X162361857Y-106015285D02*
X162219000Y-106015285D01*
X162147571Y-106051000D01*
X162111857Y-106086714D01*
X162040428Y-106193857D01*
X162004714Y-106336714D01*
X162004714Y-106622428D01*
X162040428Y-106693857D01*
X162076142Y-106729571D01*
X162147571Y-106765285D01*
X162290428Y-106765285D01*
X162361857Y-106729571D01*
X162397571Y-106693857D01*
X162433285Y-106622428D01*
X162433285Y-106443857D01*
X162397571Y-106372428D01*
X162361857Y-106336714D01*
X162290428Y-106301000D01*
X162147571Y-106301000D01*
X162076142Y-106336714D01*
X162040428Y-106372428D01*
X162004714Y-106443857D01*
G04 #@! TO.C,C7*
X161673000Y-98438857D02*
X161637285Y-98474571D01*
X161530142Y-98510285D01*
X161458714Y-98510285D01*
X161351571Y-98474571D01*
X161280142Y-98403142D01*
X161244428Y-98331714D01*
X161208714Y-98188857D01*
X161208714Y-98081714D01*
X161244428Y-97938857D01*
X161280142Y-97867428D01*
X161351571Y-97796000D01*
X161458714Y-97760285D01*
X161530142Y-97760285D01*
X161637285Y-97796000D01*
X161673000Y-97831714D01*
X161923000Y-97760285D02*
X162423000Y-97760285D01*
X162101571Y-98510285D01*
G04 #@! TO.C,C8*
X161719000Y-104153857D02*
X161683285Y-104189571D01*
X161576142Y-104225285D01*
X161504714Y-104225285D01*
X161397571Y-104189571D01*
X161326142Y-104118142D01*
X161290428Y-104046714D01*
X161254714Y-103903857D01*
X161254714Y-103796714D01*
X161290428Y-103653857D01*
X161326142Y-103582428D01*
X161397571Y-103511000D01*
X161504714Y-103475285D01*
X161576142Y-103475285D01*
X161683285Y-103511000D01*
X161719000Y-103546714D01*
X162147571Y-103796714D02*
X162076142Y-103761000D01*
X162040428Y-103725285D01*
X162004714Y-103653857D01*
X162004714Y-103618142D01*
X162040428Y-103546714D01*
X162076142Y-103511000D01*
X162147571Y-103475285D01*
X162290428Y-103475285D01*
X162361857Y-103511000D01*
X162397571Y-103546714D01*
X162433285Y-103618142D01*
X162433285Y-103653857D01*
X162397571Y-103725285D01*
X162361857Y-103761000D01*
X162290428Y-103796714D01*
X162147571Y-103796714D01*
X162076142Y-103832428D01*
X162040428Y-103868142D01*
X162004714Y-103939571D01*
X162004714Y-104082428D01*
X162040428Y-104153857D01*
X162076142Y-104189571D01*
X162147571Y-104225285D01*
X162290428Y-104225285D01*
X162361857Y-104189571D01*
X162397571Y-104153857D01*
X162433285Y-104082428D01*
X162433285Y-103939571D01*
X162397571Y-103868142D01*
X162361857Y-103832428D01*
X162290428Y-103796714D01*
G04 #@! TO.C,C11*
X151028857Y-127394857D02*
X150993142Y-127430571D01*
X150886000Y-127466285D01*
X150814571Y-127466285D01*
X150707428Y-127430571D01*
X150636000Y-127359142D01*
X150600285Y-127287714D01*
X150564571Y-127144857D01*
X150564571Y-127037714D01*
X150600285Y-126894857D01*
X150636000Y-126823428D01*
X150707428Y-126752000D01*
X150814571Y-126716285D01*
X150886000Y-126716285D01*
X150993142Y-126752000D01*
X151028857Y-126787714D01*
X151743142Y-127466285D02*
X151314571Y-127466285D01*
X151528857Y-127466285D02*
X151528857Y-126716285D01*
X151457428Y-126823428D01*
X151386000Y-126894857D01*
X151314571Y-126930571D01*
X152457428Y-127466285D02*
X152028857Y-127466285D01*
X152243142Y-127466285D02*
X152243142Y-126716285D01*
X152171714Y-126823428D01*
X152100285Y-126894857D01*
X152028857Y-126930571D01*
G04 #@! TO.C,C12*
X152540857Y-117980142D02*
X152576571Y-118015857D01*
X152612285Y-118123000D01*
X152612285Y-118194428D01*
X152576571Y-118301571D01*
X152505142Y-118373000D01*
X152433714Y-118408714D01*
X152290857Y-118444428D01*
X152183714Y-118444428D01*
X152040857Y-118408714D01*
X151969428Y-118373000D01*
X151898000Y-118301571D01*
X151862285Y-118194428D01*
X151862285Y-118123000D01*
X151898000Y-118015857D01*
X151933714Y-117980142D01*
X152612285Y-117265857D02*
X152612285Y-117694428D01*
X152612285Y-117480142D02*
X151862285Y-117480142D01*
X151969428Y-117551571D01*
X152040857Y-117623000D01*
X152076571Y-117694428D01*
X151933714Y-116980142D02*
X151898000Y-116944428D01*
X151862285Y-116873000D01*
X151862285Y-116694428D01*
X151898000Y-116623000D01*
X151933714Y-116587285D01*
X152005142Y-116551571D01*
X152076571Y-116551571D01*
X152183714Y-116587285D01*
X152612285Y-117015857D01*
X152612285Y-116551571D01*
G04 #@! TO.C,C13*
X150000857Y-128094142D02*
X150036571Y-128129857D01*
X150072285Y-128237000D01*
X150072285Y-128308428D01*
X150036571Y-128415571D01*
X149965142Y-128487000D01*
X149893714Y-128522714D01*
X149750857Y-128558428D01*
X149643714Y-128558428D01*
X149500857Y-128522714D01*
X149429428Y-128487000D01*
X149358000Y-128415571D01*
X149322285Y-128308428D01*
X149322285Y-128237000D01*
X149358000Y-128129857D01*
X149393714Y-128094142D01*
X150072285Y-127379857D02*
X150072285Y-127808428D01*
X150072285Y-127594142D02*
X149322285Y-127594142D01*
X149429428Y-127665571D01*
X149500857Y-127737000D01*
X149536571Y-127808428D01*
X149322285Y-127129857D02*
X149322285Y-126665571D01*
X149608000Y-126915571D01*
X149608000Y-126808428D01*
X149643714Y-126737000D01*
X149679428Y-126701285D01*
X149750857Y-126665571D01*
X149929428Y-126665571D01*
X150000857Y-126701285D01*
X150036571Y-126737000D01*
X150072285Y-126808428D01*
X150072285Y-127022714D01*
X150036571Y-127094142D01*
X150000857Y-127129857D01*
G04 #@! TO.C,C14*
X150266857Y-132220857D02*
X150231142Y-132256571D01*
X150124000Y-132292285D01*
X150052571Y-132292285D01*
X149945428Y-132256571D01*
X149874000Y-132185142D01*
X149838285Y-132113714D01*
X149802571Y-131970857D01*
X149802571Y-131863714D01*
X149838285Y-131720857D01*
X149874000Y-131649428D01*
X149945428Y-131578000D01*
X150052571Y-131542285D01*
X150124000Y-131542285D01*
X150231142Y-131578000D01*
X150266857Y-131613714D01*
X150981142Y-132292285D02*
X150552571Y-132292285D01*
X150766857Y-132292285D02*
X150766857Y-131542285D01*
X150695428Y-131649428D01*
X150624000Y-131720857D01*
X150552571Y-131756571D01*
X151624000Y-131792285D02*
X151624000Y-132292285D01*
X151445428Y-131506571D02*
X151266857Y-132042285D01*
X151731142Y-132042285D01*
G04 #@! TO.C,D4*
X150195428Y-130260285D02*
X150195428Y-129510285D01*
X150374000Y-129510285D01*
X150481142Y-129546000D01*
X150552571Y-129617428D01*
X150588285Y-129688857D01*
X150624000Y-129831714D01*
X150624000Y-129938857D01*
X150588285Y-130081714D01*
X150552571Y-130153142D01*
X150481142Y-130224571D01*
X150374000Y-130260285D01*
X150195428Y-130260285D01*
X151266857Y-129760285D02*
X151266857Y-130260285D01*
X151088285Y-129474571D02*
X150909714Y-130010285D01*
X151374000Y-130010285D01*
G04 #@! TO.C,L1*
X153799000Y-130260285D02*
X153441857Y-130260285D01*
X153441857Y-129510285D01*
X154441857Y-130260285D02*
X154013285Y-130260285D01*
X154227571Y-130260285D02*
X154227571Y-129510285D01*
X154156142Y-129617428D01*
X154084714Y-129688857D01*
X154013285Y-129724571D01*
G04 #@! TO.C,R2*
X152633000Y-116163285D02*
X152383000Y-115806142D01*
X152204428Y-116163285D02*
X152204428Y-115413285D01*
X152490142Y-115413285D01*
X152561571Y-115449000D01*
X152597285Y-115484714D01*
X152633000Y-115556142D01*
X152633000Y-115663285D01*
X152597285Y-115734714D01*
X152561571Y-115770428D01*
X152490142Y-115806142D01*
X152204428Y-115806142D01*
X152918714Y-115484714D02*
X152954428Y-115449000D01*
X153025857Y-115413285D01*
X153204428Y-115413285D01*
X153275857Y-115449000D01*
X153311571Y-115484714D01*
X153347285Y-115556142D01*
X153347285Y-115627571D01*
X153311571Y-115734714D01*
X152883000Y-116163285D01*
X153347285Y-116163285D01*
G04 #@! TO.C,R3*
X153903000Y-118322285D02*
X153653000Y-117965142D01*
X153474428Y-118322285D02*
X153474428Y-117572285D01*
X153760142Y-117572285D01*
X153831571Y-117608000D01*
X153867285Y-117643714D01*
X153903000Y-117715142D01*
X153903000Y-117822285D01*
X153867285Y-117893714D01*
X153831571Y-117929428D01*
X153760142Y-117965142D01*
X153474428Y-117965142D01*
X154153000Y-117572285D02*
X154617285Y-117572285D01*
X154367285Y-117858000D01*
X154474428Y-117858000D01*
X154545857Y-117893714D01*
X154581571Y-117929428D01*
X154617285Y-118000857D01*
X154617285Y-118179428D01*
X154581571Y-118250857D01*
X154545857Y-118286571D01*
X154474428Y-118322285D01*
X154260142Y-118322285D01*
X154188714Y-118286571D01*
X154153000Y-118250857D01*
G04 #@! TO.C,R5*
X156549285Y-129538000D02*
X156192142Y-129788000D01*
X156549285Y-129966571D02*
X155799285Y-129966571D01*
X155799285Y-129680857D01*
X155835000Y-129609428D01*
X155870714Y-129573714D01*
X155942142Y-129538000D01*
X156049285Y-129538000D01*
X156120714Y-129573714D01*
X156156428Y-129609428D01*
X156192142Y-129680857D01*
X156192142Y-129966571D01*
X155799285Y-128859428D02*
X155799285Y-129216571D01*
X156156428Y-129252285D01*
X156120714Y-129216571D01*
X156085000Y-129145142D01*
X156085000Y-128966571D01*
X156120714Y-128895142D01*
X156156428Y-128859428D01*
X156227857Y-128823714D01*
X156406428Y-128823714D01*
X156477857Y-128859428D01*
X156513571Y-128895142D01*
X156549285Y-128966571D01*
X156549285Y-129145142D01*
X156513571Y-129216571D01*
X156477857Y-129252285D01*
G04 #@! TO.C,U6*
X151090380Y-123316904D02*
X151899904Y-123316904D01*
X151995142Y-123269285D01*
X152042761Y-123221666D01*
X152090380Y-123126428D01*
X152090380Y-122935952D01*
X152042761Y-122840714D01*
X151995142Y-122793095D01*
X151899904Y-122745476D01*
X151090380Y-122745476D01*
X151090380Y-121840714D02*
X151090380Y-122031190D01*
X151138000Y-122126428D01*
X151185619Y-122174047D01*
X151328476Y-122269285D01*
X151518952Y-122316904D01*
X151899904Y-122316904D01*
X151995142Y-122269285D01*
X152042761Y-122221666D01*
X152090380Y-122126428D01*
X152090380Y-121935952D01*
X152042761Y-121840714D01*
X151995142Y-121793095D01*
X151899904Y-121745476D01*
X151661809Y-121745476D01*
X151566571Y-121793095D01*
X151518952Y-121840714D01*
X151471333Y-121935952D01*
X151471333Y-122126428D01*
X151518952Y-122221666D01*
X151566571Y-122269285D01*
X151661809Y-122316904D01*
G04 #@! TO.C,D5*
X152204428Y-96605285D02*
X152204428Y-95855285D01*
X152383000Y-95855285D01*
X152490142Y-95891000D01*
X152561571Y-95962428D01*
X152597285Y-96033857D01*
X152633000Y-96176714D01*
X152633000Y-96283857D01*
X152597285Y-96426714D01*
X152561571Y-96498142D01*
X152490142Y-96569571D01*
X152383000Y-96605285D01*
X152204428Y-96605285D01*
X153311571Y-95855285D02*
X152954428Y-95855285D01*
X152918714Y-96212428D01*
X152954428Y-96176714D01*
X153025857Y-96141000D01*
X153204428Y-96141000D01*
X153275857Y-96176714D01*
X153311571Y-96212428D01*
X153347285Y-96283857D01*
X153347285Y-96462428D01*
X153311571Y-96533857D01*
X153275857Y-96569571D01*
X153204428Y-96605285D01*
X153025857Y-96605285D01*
X152954428Y-96569571D01*
X152918714Y-96533857D01*
G04 #@! TO.C,R6*
X150367600Y-96644284D02*
X150117600Y-96287141D01*
X149939028Y-96644284D02*
X149939028Y-95894284D01*
X150224742Y-95894284D01*
X150296171Y-95929999D01*
X150331885Y-95965713D01*
X150367600Y-96037141D01*
X150367600Y-96144284D01*
X150331885Y-96215713D01*
X150296171Y-96251427D01*
X150224742Y-96287141D01*
X149939028Y-96287141D01*
X151010457Y-95894284D02*
X150867600Y-95894284D01*
X150796171Y-95929999D01*
X150760457Y-95965713D01*
X150689028Y-96072856D01*
X150653314Y-96215713D01*
X150653314Y-96501427D01*
X150689028Y-96572856D01*
X150724742Y-96608570D01*
X150796171Y-96644284D01*
X150939028Y-96644284D01*
X151010457Y-96608570D01*
X151046171Y-96572856D01*
X151081885Y-96501427D01*
X151081885Y-96322856D01*
X151046171Y-96251427D01*
X151010457Y-96215713D01*
X150939028Y-96179999D01*
X150796171Y-96179999D01*
X150724742Y-96215713D01*
X150689028Y-96251427D01*
X150653314Y-96322856D01*
G04 #@! TO.C,U2*
X162306095Y-129246380D02*
X162306095Y-130055904D01*
X162353714Y-130151142D01*
X162401333Y-130198761D01*
X162496571Y-130246380D01*
X162687047Y-130246380D01*
X162782285Y-130198761D01*
X162829904Y-130151142D01*
X162877523Y-130055904D01*
X162877523Y-129246380D01*
X163306095Y-129341619D02*
X163353714Y-129294000D01*
X163448952Y-129246380D01*
X163687047Y-129246380D01*
X163782285Y-129294000D01*
X163829904Y-129341619D01*
X163877523Y-129436857D01*
X163877523Y-129532095D01*
X163829904Y-129674952D01*
X163258476Y-130246380D01*
X163877523Y-130246380D01*
G04 #@! TO.C,U1*
X163525295Y-74179180D02*
X163525295Y-74988704D01*
X163572914Y-75083942D01*
X163620533Y-75131561D01*
X163715771Y-75179180D01*
X163906247Y-75179180D01*
X164001485Y-75131561D01*
X164049104Y-75083942D01*
X164096723Y-74988704D01*
X164096723Y-74179180D01*
X165096723Y-75179180D02*
X164525295Y-75179180D01*
X164811009Y-75179180D02*
X164811009Y-74179180D01*
X164715771Y-74322038D01*
X164620533Y-74417276D01*
X164525295Y-74464895D01*
G04 #@! TO.C,R8*
X167250380Y-110968666D02*
X166774190Y-111302000D01*
X167250380Y-111540095D02*
X166250380Y-111540095D01*
X166250380Y-111159142D01*
X166298000Y-111063904D01*
X166345619Y-111016285D01*
X166440857Y-110968666D01*
X166583714Y-110968666D01*
X166678952Y-111016285D01*
X166726571Y-111063904D01*
X166774190Y-111159142D01*
X166774190Y-111540095D01*
X166678952Y-110397238D02*
X166631333Y-110492476D01*
X166583714Y-110540095D01*
X166488476Y-110587714D01*
X166440857Y-110587714D01*
X166345619Y-110540095D01*
X166298000Y-110492476D01*
X166250380Y-110397238D01*
X166250380Y-110206761D01*
X166298000Y-110111523D01*
X166345619Y-110063904D01*
X166440857Y-110016285D01*
X166488476Y-110016285D01*
X166583714Y-110063904D01*
X166631333Y-110111523D01*
X166678952Y-110206761D01*
X166678952Y-110397238D01*
X166726571Y-110492476D01*
X166774190Y-110540095D01*
X166869428Y-110587714D01*
X167059904Y-110587714D01*
X167155142Y-110540095D01*
X167202761Y-110492476D01*
X167250380Y-110397238D01*
X167250380Y-110206761D01*
X167202761Y-110111523D01*
X167155142Y-110063904D01*
X167059904Y-110016285D01*
X166869428Y-110016285D01*
X166774190Y-110063904D01*
X166726571Y-110111523D01*
X166678952Y-110206761D01*
G04 #@! TO.C,R9*
X168934380Y-93765666D02*
X168458190Y-94099000D01*
X168934380Y-94337095D02*
X167934380Y-94337095D01*
X167934380Y-93956142D01*
X167982000Y-93860904D01*
X168029619Y-93813285D01*
X168124857Y-93765666D01*
X168267714Y-93765666D01*
X168362952Y-93813285D01*
X168410571Y-93860904D01*
X168458190Y-93956142D01*
X168458190Y-94337095D01*
X168934380Y-93289476D02*
X168934380Y-93099000D01*
X168886761Y-93003761D01*
X168839142Y-92956142D01*
X168696285Y-92860904D01*
X168505809Y-92813285D01*
X168124857Y-92813285D01*
X168029619Y-92860904D01*
X167982000Y-92908523D01*
X167934380Y-93003761D01*
X167934380Y-93194238D01*
X167982000Y-93289476D01*
X168029619Y-93337095D01*
X168124857Y-93384714D01*
X168362952Y-93384714D01*
X168458190Y-93337095D01*
X168505809Y-93289476D01*
X168553428Y-93194238D01*
X168553428Y-93003761D01*
X168505809Y-92908523D01*
X168458190Y-92860904D01*
X168362952Y-92813285D01*
G04 #@! TO.C,R10*
X166234380Y-111455857D02*
X165758190Y-111789190D01*
X166234380Y-112027285D02*
X165234380Y-112027285D01*
X165234380Y-111646333D01*
X165282000Y-111551095D01*
X165329619Y-111503476D01*
X165424857Y-111455857D01*
X165567714Y-111455857D01*
X165662952Y-111503476D01*
X165710571Y-111551095D01*
X165758190Y-111646333D01*
X165758190Y-112027285D01*
X166234380Y-110503476D02*
X166234380Y-111074904D01*
X166234380Y-110789190D02*
X165234380Y-110789190D01*
X165377238Y-110884428D01*
X165472476Y-110979666D01*
X165520095Y-111074904D01*
X165234380Y-109884428D02*
X165234380Y-109789190D01*
X165282000Y-109693952D01*
X165329619Y-109646333D01*
X165424857Y-109598714D01*
X165615333Y-109551095D01*
X165853428Y-109551095D01*
X166043904Y-109598714D01*
X166139142Y-109646333D01*
X166186761Y-109693952D01*
X166234380Y-109789190D01*
X166234380Y-109884428D01*
X166186761Y-109979666D01*
X166139142Y-110027285D01*
X166043904Y-110074904D01*
X165853428Y-110122523D01*
X165615333Y-110122523D01*
X165424857Y-110074904D01*
X165329619Y-110027285D01*
X165282000Y-109979666D01*
X165234380Y-109884428D01*
G04 #@! TD*
M02*
