G04 #@! TF.GenerationSoftware,KiCad,Pcbnew,(5.0.0)*
G04 #@! TF.CreationDate,2018-10-15T11:55:30+01:00*
G04 #@! TF.ProjectId,Motor Shield,4D6F746F7220536869656C642E6B6963,rev?*
G04 #@! TF.SameCoordinates,Original*
G04 #@! TF.FileFunction,Legend,Top*
G04 #@! TF.FilePolarity,Positive*
%FSLAX46Y46*%
G04 Gerber Fmt 4.6, Leading zero omitted, Abs format (unit mm)*
G04 Created by KiCad (PCBNEW (5.0.0)) date 10/15/18 11:55:30*
%MOMM*%
%LPD*%
G01*
G04 APERTURE LIST*
%ADD10C,0.120000*%
%ADD11C,0.150000*%
G04 APERTURE END LIST*
D10*
G04 #@! TO.C,D3*
X151777500Y-81180000D02*
X149492500Y-81180000D01*
X149492500Y-81180000D02*
X149492500Y-82650000D01*
X149492500Y-82650000D02*
X151777500Y-82650000D01*
G04 #@! TO.C,J4*
X166526000Y-102340000D02*
X166526000Y-102840000D01*
X167266000Y-102340000D02*
X166526000Y-102340000D01*
X173086000Y-108240000D02*
X166766000Y-108240000D01*
X173086000Y-102580000D02*
X166766000Y-102580000D01*
X166766000Y-107470000D02*
X166766000Y-108240000D01*
X166766000Y-104930000D02*
X166766000Y-105890000D01*
X166766000Y-102580000D02*
X166766000Y-103350000D01*
X173086000Y-102580000D02*
X173086000Y-108240000D01*
X172626000Y-102580000D02*
X172626000Y-108240000D01*
X167326000Y-107470000D02*
X167326000Y-108240000D01*
X167326000Y-104930000D02*
X167326000Y-105890000D01*
X167326000Y-102580000D02*
X167326000Y-103350000D01*
G04 #@! TO.C,J5*
X167326000Y-96230000D02*
X167326000Y-97000000D01*
X167326000Y-98580000D02*
X167326000Y-99540000D01*
X167326000Y-101120000D02*
X167326000Y-101890000D01*
X172626000Y-96230000D02*
X172626000Y-101890000D01*
X173086000Y-96230000D02*
X173086000Y-101890000D01*
X166766000Y-96230000D02*
X166766000Y-97000000D01*
X166766000Y-98580000D02*
X166766000Y-99540000D01*
X166766000Y-101120000D02*
X166766000Y-101890000D01*
X173086000Y-96230000D02*
X166766000Y-96230000D01*
X173086000Y-101890000D02*
X166766000Y-101890000D01*
X167266000Y-95990000D02*
X166526000Y-95990000D01*
X166526000Y-95990000D02*
X166526000Y-96490000D01*
G04 #@! TO.C,Q1*
X154818000Y-80372000D02*
X154818000Y-79112000D01*
X154818000Y-73552000D02*
X154818000Y-74812000D01*
X151058000Y-80372000D02*
X154818000Y-80372000D01*
X148808000Y-73552000D02*
X154818000Y-73552000D01*
G04 #@! TO.C,J3*
X157540000Y-93024000D02*
X157540000Y-87824000D01*
X157480000Y-93024000D02*
X157540000Y-93024000D01*
X154880000Y-87824000D02*
X157540000Y-87824000D01*
X157480000Y-93024000D02*
X157480000Y-90424000D01*
X157480000Y-90424000D02*
X154880000Y-90424000D01*
X154880000Y-90424000D02*
X154880000Y-87824000D01*
X156210000Y-93024000D02*
X154880000Y-93024000D01*
X154880000Y-93024000D02*
X154880000Y-91694000D01*
G04 #@! TO.C,J2*
X152460000Y-125028000D02*
X152460000Y-119828000D01*
X152400000Y-125028000D02*
X152460000Y-125028000D01*
X149800000Y-119828000D02*
X152460000Y-119828000D01*
X152400000Y-125028000D02*
X152400000Y-122428000D01*
X152400000Y-122428000D02*
X149800000Y-122428000D01*
X149800000Y-122428000D02*
X149800000Y-119828000D01*
X151130000Y-125028000D02*
X149800000Y-125028000D01*
X149800000Y-125028000D02*
X149800000Y-123698000D01*
D11*
G04 #@! TO.C,U3*
X157053000Y-105933000D02*
X157053000Y-105583000D01*
X151303000Y-105933000D02*
X151303000Y-105483000D01*
X151303000Y-98283000D02*
X151303000Y-98733000D01*
X157053000Y-98283000D02*
X157053000Y-98733000D01*
X157053000Y-105933000D02*
X151303000Y-105933000D01*
X157053000Y-98283000D02*
X151303000Y-98283000D01*
X157053000Y-105583000D02*
X158653000Y-105583000D01*
D10*
G04 #@! TO.C,U5*
X153284000Y-108096000D02*
X153284000Y-109356000D01*
X153284000Y-114916000D02*
X153284000Y-113656000D01*
X157044000Y-108096000D02*
X153284000Y-108096000D01*
X159294000Y-114916000D02*
X153284000Y-114916000D01*
G04 #@! TO.C,J6*
X171764000Y-92710000D02*
X169104000Y-92710000D01*
X171764000Y-92710000D02*
X171764000Y-85030000D01*
X171764000Y-85030000D02*
X169104000Y-85030000D01*
X169104000Y-92710000D02*
X169104000Y-85030000D01*
X169104000Y-95310000D02*
X169104000Y-93980000D01*
X170434000Y-95310000D02*
X169104000Y-95310000D01*
G04 #@! TO.C,J7*
X170434000Y-109160000D02*
X171764000Y-109160000D01*
X171764000Y-109160000D02*
X171764000Y-110490000D01*
X171764000Y-111760000D02*
X171764000Y-119440000D01*
X169104000Y-119440000D02*
X171764000Y-119440000D01*
X169104000Y-111760000D02*
X169104000Y-119440000D01*
X169104000Y-111760000D02*
X171764000Y-111760000D01*
G04 #@! TO.C,J1*
X155158000Y-73974000D02*
X155928000Y-73974000D01*
X157508000Y-73974000D02*
X158468000Y-73974000D01*
X160048000Y-73974000D02*
X160818000Y-73974000D01*
X155158000Y-68674000D02*
X160818000Y-68674000D01*
X155158000Y-68214000D02*
X160818000Y-68214000D01*
X155158000Y-74534000D02*
X155928000Y-74534000D01*
X157508000Y-74534000D02*
X158468000Y-74534000D01*
X160048000Y-74534000D02*
X160818000Y-74534000D01*
X155158000Y-68214000D02*
X155158000Y-74534000D01*
X160818000Y-68214000D02*
X160818000Y-74534000D01*
X154918000Y-74034000D02*
X154918000Y-74774000D01*
X154918000Y-74774000D02*
X155418000Y-74774000D01*
G04 #@! TO.C,C1*
X165827500Y-89057500D02*
X165202500Y-89057500D01*
X165515000Y-88745000D02*
X165515000Y-89370000D01*
X162134437Y-89610000D02*
X161070000Y-90674437D01*
X165525563Y-89610000D02*
X166590000Y-90674437D01*
X165525563Y-89610000D02*
X164890000Y-89610000D01*
X162134437Y-89610000D02*
X162770000Y-89610000D01*
X161070000Y-90674437D02*
X161070000Y-95130000D01*
X166590000Y-90674437D02*
X166590000Y-95130000D01*
X166590000Y-95130000D02*
X164890000Y-95130000D01*
X161070000Y-95130000D02*
X162770000Y-95130000D01*
G04 #@! TO.C,C2*
X166590000Y-109340000D02*
X164890000Y-109340000D01*
X161070000Y-109340000D02*
X162770000Y-109340000D01*
X161070000Y-113795563D02*
X161070000Y-109340000D01*
X166590000Y-113795563D02*
X166590000Y-109340000D01*
X165525563Y-114860000D02*
X164890000Y-114860000D01*
X162134437Y-114860000D02*
X162770000Y-114860000D01*
X162134437Y-114860000D02*
X161070000Y-113795563D01*
X165525563Y-114860000D02*
X166590000Y-113795563D01*
X162145000Y-115725000D02*
X162145000Y-115100000D01*
X161832500Y-115412500D02*
X162457500Y-115412500D01*
G04 #@! TO.C,D1*
X169010000Y-93357500D02*
X169010000Y-91072500D01*
X169010000Y-91072500D02*
X167540000Y-91072500D01*
X167540000Y-91072500D02*
X167540000Y-93357500D01*
G04 #@! TO.C,D2*
X168756000Y-113397500D02*
X168756000Y-111112500D01*
X167286000Y-113397500D02*
X168756000Y-113397500D01*
X167286000Y-111112500D02*
X167286000Y-113397500D01*
G04 #@! TO.C,C10*
X152283279Y-107444000D02*
X151957721Y-107444000D01*
X152283279Y-106424000D02*
X151957721Y-106424000D01*
G04 #@! TO.C,C6*
X164205279Y-104650000D02*
X163879721Y-104650000D01*
X164205279Y-103630000D02*
X163879721Y-103630000D01*
G04 #@! TO.C,C8*
X164272279Y-106043000D02*
X163946721Y-106043000D01*
X164272279Y-107063000D02*
X163946721Y-107063000D01*
G04 #@! TO.C,C5*
X164246779Y-98300000D02*
X163921221Y-98300000D01*
X164246779Y-97280000D02*
X163921221Y-97280000D01*
G04 #@! TO.C,C7*
X164246779Y-99693000D02*
X163921221Y-99693000D01*
X164246779Y-100713000D02*
X163921221Y-100713000D01*
D11*
G04 #@! TO.C,U1*
X160528000Y-85471000D02*
X160528000Y-78359000D01*
X167132000Y-85471000D02*
X160528000Y-85471000D01*
X167132000Y-78359000D02*
X167132000Y-85471000D01*
X160528000Y-78359000D02*
X167132000Y-78359000D01*
G04 #@! TO.C,U2*
X166878000Y-119126000D02*
X166878000Y-126238000D01*
X160274000Y-119126000D02*
X166878000Y-119126000D01*
X160274000Y-126238000D02*
X160274000Y-119126000D01*
X166878000Y-126238000D02*
X160274000Y-126238000D01*
G04 #@! TO.C,R1*
X150478333Y-71037380D02*
X150145000Y-70561190D01*
X149906904Y-71037380D02*
X149906904Y-70037380D01*
X150287857Y-70037380D01*
X150383095Y-70085000D01*
X150430714Y-70132619D01*
X150478333Y-70227857D01*
X150478333Y-70370714D01*
X150430714Y-70465952D01*
X150383095Y-70513571D01*
X150287857Y-70561190D01*
X149906904Y-70561190D01*
X151430714Y-71037380D02*
X150859285Y-71037380D01*
X151145000Y-71037380D02*
X151145000Y-70037380D01*
X151049761Y-70180238D01*
X150954523Y-70275476D01*
X150859285Y-70323095D01*
G04 #@! TO.C,D3*
X150239404Y-80937380D02*
X150239404Y-79937380D01*
X150477500Y-79937380D01*
X150620357Y-79985000D01*
X150715595Y-80080238D01*
X150763214Y-80175476D01*
X150810833Y-80365952D01*
X150810833Y-80508809D01*
X150763214Y-80699285D01*
X150715595Y-80794523D01*
X150620357Y-80889761D01*
X150477500Y-80937380D01*
X150239404Y-80937380D01*
X151144166Y-79937380D02*
X151763214Y-79937380D01*
X151429880Y-80318333D01*
X151572738Y-80318333D01*
X151667976Y-80365952D01*
X151715595Y-80413571D01*
X151763214Y-80508809D01*
X151763214Y-80746904D01*
X151715595Y-80842142D01*
X151667976Y-80889761D01*
X151572738Y-80937380D01*
X151287023Y-80937380D01*
X151191785Y-80889761D01*
X151144166Y-80842142D01*
G04 #@! TO.C,J4*
X173538380Y-105743333D02*
X174252666Y-105743333D01*
X174395523Y-105790952D01*
X174490761Y-105886190D01*
X174538380Y-106029047D01*
X174538380Y-106124285D01*
X173871714Y-104838571D02*
X174538380Y-104838571D01*
X173490761Y-105076666D02*
X174205047Y-105314761D01*
X174205047Y-104695714D01*
G04 #@! TO.C,J5*
X173538380Y-99393333D02*
X174252666Y-99393333D01*
X174395523Y-99440952D01*
X174490761Y-99536190D01*
X174538380Y-99679047D01*
X174538380Y-99774285D01*
X173538380Y-98440952D02*
X173538380Y-98917142D01*
X174014571Y-98964761D01*
X173966952Y-98917142D01*
X173919333Y-98821904D01*
X173919333Y-98583809D01*
X173966952Y-98488571D01*
X174014571Y-98440952D01*
X174109809Y-98393333D01*
X174347904Y-98393333D01*
X174443142Y-98440952D01*
X174490761Y-98488571D01*
X174538380Y-98583809D01*
X174538380Y-98821904D01*
X174490761Y-98917142D01*
X174443142Y-98964761D01*
G04 #@! TO.C,Q1*
X152812761Y-73009619D02*
X152717523Y-72962000D01*
X152622285Y-72866761D01*
X152479428Y-72723904D01*
X152384190Y-72676285D01*
X152288952Y-72676285D01*
X152336571Y-72914380D02*
X152241333Y-72866761D01*
X152146095Y-72771523D01*
X152098476Y-72581047D01*
X152098476Y-72247714D01*
X152146095Y-72057238D01*
X152241333Y-71962000D01*
X152336571Y-71914380D01*
X152527047Y-71914380D01*
X152622285Y-71962000D01*
X152717523Y-72057238D01*
X152765142Y-72247714D01*
X152765142Y-72581047D01*
X152717523Y-72771523D01*
X152622285Y-72866761D01*
X152527047Y-72914380D01*
X152336571Y-72914380D01*
X153717523Y-72914380D02*
X153146095Y-72914380D01*
X153431809Y-72914380D02*
X153431809Y-71914380D01*
X153336571Y-72057238D01*
X153241333Y-72152476D01*
X153146095Y-72200095D01*
G04 #@! TO.C,J3*
X153332380Y-90757333D02*
X154046666Y-90757333D01*
X154189523Y-90804952D01*
X154284761Y-90900190D01*
X154332380Y-91043047D01*
X154332380Y-91138285D01*
X153332380Y-90376380D02*
X153332380Y-89757333D01*
X153713333Y-90090666D01*
X153713333Y-89947809D01*
X153760952Y-89852571D01*
X153808571Y-89804952D01*
X153903809Y-89757333D01*
X154141904Y-89757333D01*
X154237142Y-89804952D01*
X154284761Y-89852571D01*
X154332380Y-89947809D01*
X154332380Y-90233523D01*
X154284761Y-90328761D01*
X154237142Y-90376380D01*
G04 #@! TO.C,J2*
X148252380Y-122761333D02*
X148966666Y-122761333D01*
X149109523Y-122808952D01*
X149204761Y-122904190D01*
X149252380Y-123047047D01*
X149252380Y-123142285D01*
X148347619Y-122332761D02*
X148300000Y-122285142D01*
X148252380Y-122189904D01*
X148252380Y-121951809D01*
X148300000Y-121856571D01*
X148347619Y-121808952D01*
X148442857Y-121761333D01*
X148538095Y-121761333D01*
X148680952Y-121808952D01*
X149252380Y-122380380D01*
X149252380Y-121761333D01*
G04 #@! TO.C,U3*
X153416095Y-106310380D02*
X153416095Y-107119904D01*
X153463714Y-107215142D01*
X153511333Y-107262761D01*
X153606571Y-107310380D01*
X153797047Y-107310380D01*
X153892285Y-107262761D01*
X153939904Y-107215142D01*
X153987523Y-107119904D01*
X153987523Y-106310380D01*
X154368476Y-106310380D02*
X154987523Y-106310380D01*
X154654190Y-106691333D01*
X154797047Y-106691333D01*
X154892285Y-106738952D01*
X154939904Y-106786571D01*
X154987523Y-106881809D01*
X154987523Y-107119904D01*
X154939904Y-107215142D01*
X154892285Y-107262761D01*
X154797047Y-107310380D01*
X154511333Y-107310380D01*
X154416095Y-107262761D01*
X154368476Y-107215142D01*
G04 #@! TO.C,U5*
X154432095Y-115458380D02*
X154432095Y-116267904D01*
X154479714Y-116363142D01*
X154527333Y-116410761D01*
X154622571Y-116458380D01*
X154813047Y-116458380D01*
X154908285Y-116410761D01*
X154955904Y-116363142D01*
X155003523Y-116267904D01*
X155003523Y-115458380D01*
X155955904Y-115458380D02*
X155479714Y-115458380D01*
X155432095Y-115934571D01*
X155479714Y-115886952D01*
X155574952Y-115839333D01*
X155813047Y-115839333D01*
X155908285Y-115886952D01*
X155955904Y-115934571D01*
X156003523Y-116029809D01*
X156003523Y-116267904D01*
X155955904Y-116363142D01*
X155908285Y-116410761D01*
X155813047Y-116458380D01*
X155574952Y-116458380D01*
X155479714Y-116410761D01*
X155432095Y-116363142D01*
G04 #@! TO.C,J6*
X170100666Y-96202380D02*
X170100666Y-96916666D01*
X170053047Y-97059523D01*
X169957809Y-97154761D01*
X169814952Y-97202380D01*
X169719714Y-97202380D01*
X171005428Y-96202380D02*
X170814952Y-96202380D01*
X170719714Y-96250000D01*
X170672095Y-96297619D01*
X170576857Y-96440476D01*
X170529238Y-96630952D01*
X170529238Y-97011904D01*
X170576857Y-97107142D01*
X170624476Y-97154761D01*
X170719714Y-97202380D01*
X170910190Y-97202380D01*
X171005428Y-97154761D01*
X171053047Y-97107142D01*
X171100666Y-97011904D01*
X171100666Y-96773809D01*
X171053047Y-96678571D01*
X171005428Y-96630952D01*
X170910190Y-96583333D01*
X170719714Y-96583333D01*
X170624476Y-96630952D01*
X170576857Y-96678571D01*
X170529238Y-96773809D01*
G04 #@! TO.C,J7*
X170100666Y-107172380D02*
X170100666Y-107886666D01*
X170053047Y-108029523D01*
X169957809Y-108124761D01*
X169814952Y-108172380D01*
X169719714Y-108172380D01*
X170481619Y-107172380D02*
X171148285Y-107172380D01*
X170719714Y-108172380D01*
G04 #@! TO.C,J1*
X157654666Y-66666380D02*
X157654666Y-67380666D01*
X157607047Y-67523523D01*
X157511809Y-67618761D01*
X157368952Y-67666380D01*
X157273714Y-67666380D01*
X158654666Y-67666380D02*
X158083238Y-67666380D01*
X158368952Y-67666380D02*
X158368952Y-66666380D01*
X158273714Y-66809238D01*
X158178476Y-66904476D01*
X158083238Y-66952095D01*
G04 #@! TO.C,C1*
X167887142Y-92536666D02*
X167934761Y-92584285D01*
X167982380Y-92727142D01*
X167982380Y-92822380D01*
X167934761Y-92965238D01*
X167839523Y-93060476D01*
X167744285Y-93108095D01*
X167553809Y-93155714D01*
X167410952Y-93155714D01*
X167220476Y-93108095D01*
X167125238Y-93060476D01*
X167030000Y-92965238D01*
X166982380Y-92822380D01*
X166982380Y-92727142D01*
X167030000Y-92584285D01*
X167077619Y-92536666D01*
X167982380Y-91584285D02*
X167982380Y-92155714D01*
X167982380Y-91870000D02*
X166982380Y-91870000D01*
X167125238Y-91965238D01*
X167220476Y-92060476D01*
X167268095Y-92155714D01*
G04 #@! TO.C,C2*
X160487142Y-112266666D02*
X160534761Y-112314285D01*
X160582380Y-112457142D01*
X160582380Y-112552380D01*
X160534761Y-112695238D01*
X160439523Y-112790476D01*
X160344285Y-112838095D01*
X160153809Y-112885714D01*
X160010952Y-112885714D01*
X159820476Y-112838095D01*
X159725238Y-112790476D01*
X159630000Y-112695238D01*
X159582380Y-112552380D01*
X159582380Y-112457142D01*
X159630000Y-112314285D01*
X159677619Y-112266666D01*
X159677619Y-111885714D02*
X159630000Y-111838095D01*
X159582380Y-111742857D01*
X159582380Y-111504761D01*
X159630000Y-111409523D01*
X159677619Y-111361904D01*
X159772857Y-111314285D01*
X159868095Y-111314285D01*
X160010952Y-111361904D01*
X160582380Y-111933333D01*
X160582380Y-111314285D01*
G04 #@! TO.C,D1*
X170157380Y-93295595D02*
X169157380Y-93295595D01*
X169157380Y-93057500D01*
X169205000Y-92914642D01*
X169300238Y-92819404D01*
X169395476Y-92771785D01*
X169585952Y-92724166D01*
X169728809Y-92724166D01*
X169919285Y-92771785D01*
X170014523Y-92819404D01*
X170109761Y-92914642D01*
X170157380Y-93057500D01*
X170157380Y-93295595D01*
X170157380Y-91771785D02*
X170157380Y-92343214D01*
X170157380Y-92057500D02*
X169157380Y-92057500D01*
X169300238Y-92152738D01*
X169395476Y-92247976D01*
X169443095Y-92343214D01*
G04 #@! TO.C,D2*
X167043380Y-112650595D02*
X166043380Y-112650595D01*
X166043380Y-112412500D01*
X166091000Y-112269642D01*
X166186238Y-112174404D01*
X166281476Y-112126785D01*
X166471952Y-112079166D01*
X166614809Y-112079166D01*
X166805285Y-112126785D01*
X166900523Y-112174404D01*
X166995761Y-112269642D01*
X167043380Y-112412500D01*
X167043380Y-112650595D01*
X166138619Y-111698214D02*
X166091000Y-111650595D01*
X166043380Y-111555357D01*
X166043380Y-111317261D01*
X166091000Y-111222023D01*
X166138619Y-111174404D01*
X166233857Y-111126785D01*
X166329095Y-111126785D01*
X166471952Y-111174404D01*
X167043380Y-111745833D01*
X167043380Y-111126785D01*
G04 #@! TO.C,C3*
X162817142Y-97956666D02*
X162864761Y-98004285D01*
X162912380Y-98147142D01*
X162912380Y-98242380D01*
X162864761Y-98385238D01*
X162769523Y-98480476D01*
X162674285Y-98528095D01*
X162483809Y-98575714D01*
X162340952Y-98575714D01*
X162150476Y-98528095D01*
X162055238Y-98480476D01*
X161960000Y-98385238D01*
X161912380Y-98242380D01*
X161912380Y-98147142D01*
X161960000Y-98004285D01*
X162007619Y-97956666D01*
X161912380Y-97623333D02*
X161912380Y-97004285D01*
X162293333Y-97337619D01*
X162293333Y-97194761D01*
X162340952Y-97099523D01*
X162388571Y-97051904D01*
X162483809Y-97004285D01*
X162721904Y-97004285D01*
X162817142Y-97051904D01*
X162864761Y-97099523D01*
X162912380Y-97194761D01*
X162912380Y-97480476D01*
X162864761Y-97575714D01*
X162817142Y-97623333D01*
G04 #@! TO.C,C4*
X160477142Y-106996666D02*
X160524761Y-107044285D01*
X160572380Y-107187142D01*
X160572380Y-107282380D01*
X160524761Y-107425238D01*
X160429523Y-107520476D01*
X160334285Y-107568095D01*
X160143809Y-107615714D01*
X160000952Y-107615714D01*
X159810476Y-107568095D01*
X159715238Y-107520476D01*
X159620000Y-107425238D01*
X159572380Y-107282380D01*
X159572380Y-107187142D01*
X159620000Y-107044285D01*
X159667619Y-106996666D01*
X159905714Y-106139523D02*
X160572380Y-106139523D01*
X159524761Y-106377619D02*
X160239047Y-106615714D01*
X160239047Y-105996666D01*
G04 #@! TO.C,C11*
X156352142Y-129997142D02*
X156304523Y-130044761D01*
X156161666Y-130092380D01*
X156066428Y-130092380D01*
X155923571Y-130044761D01*
X155828333Y-129949523D01*
X155780714Y-129854285D01*
X155733095Y-129663809D01*
X155733095Y-129520952D01*
X155780714Y-129330476D01*
X155828333Y-129235238D01*
X155923571Y-129140000D01*
X156066428Y-129092380D01*
X156161666Y-129092380D01*
X156304523Y-129140000D01*
X156352142Y-129187619D01*
X157304523Y-130092380D02*
X156733095Y-130092380D01*
X157018809Y-130092380D02*
X157018809Y-129092380D01*
X156923571Y-129235238D01*
X156828333Y-129330476D01*
X156733095Y-129378095D01*
X158256904Y-130092380D02*
X157685476Y-130092380D01*
X157971190Y-130092380D02*
X157971190Y-129092380D01*
X157875952Y-129235238D01*
X157780714Y-129330476D01*
X157685476Y-129378095D01*
G04 #@! TO.C,R2*
X154138333Y-127552380D02*
X153805000Y-127076190D01*
X153566904Y-127552380D02*
X153566904Y-126552380D01*
X153947857Y-126552380D01*
X154043095Y-126600000D01*
X154090714Y-126647619D01*
X154138333Y-126742857D01*
X154138333Y-126885714D01*
X154090714Y-126980952D01*
X154043095Y-127028571D01*
X153947857Y-127076190D01*
X153566904Y-127076190D01*
X154519285Y-126647619D02*
X154566904Y-126600000D01*
X154662142Y-126552380D01*
X154900238Y-126552380D01*
X154995476Y-126600000D01*
X155043095Y-126647619D01*
X155090714Y-126742857D01*
X155090714Y-126838095D01*
X155043095Y-126980952D01*
X154471666Y-127552380D01*
X155090714Y-127552380D01*
G04 #@! TO.C,R3*
X154138333Y-130092380D02*
X153805000Y-129616190D01*
X153566904Y-130092380D02*
X153566904Y-129092380D01*
X153947857Y-129092380D01*
X154043095Y-129140000D01*
X154090714Y-129187619D01*
X154138333Y-129282857D01*
X154138333Y-129425714D01*
X154090714Y-129520952D01*
X154043095Y-129568571D01*
X153947857Y-129616190D01*
X153566904Y-129616190D01*
X154471666Y-129092380D02*
X155090714Y-129092380D01*
X154757380Y-129473333D01*
X154900238Y-129473333D01*
X154995476Y-129520952D01*
X155043095Y-129568571D01*
X155090714Y-129663809D01*
X155090714Y-129901904D01*
X155043095Y-129997142D01*
X154995476Y-130044761D01*
X154900238Y-130092380D01*
X154614523Y-130092380D01*
X154519285Y-130044761D01*
X154471666Y-129997142D01*
G04 #@! TO.C,C9*
X152972333Y-115773142D02*
X152924714Y-115820761D01*
X152781857Y-115868380D01*
X152686619Y-115868380D01*
X152543761Y-115820761D01*
X152448523Y-115725523D01*
X152400904Y-115630285D01*
X152353285Y-115439809D01*
X152353285Y-115296952D01*
X152400904Y-115106476D01*
X152448523Y-115011238D01*
X152543761Y-114916000D01*
X152686619Y-114868380D01*
X152781857Y-114868380D01*
X152924714Y-114916000D01*
X152972333Y-114963619D01*
X153448523Y-115868380D02*
X153639000Y-115868380D01*
X153734238Y-115820761D01*
X153781857Y-115773142D01*
X153877095Y-115630285D01*
X153924714Y-115439809D01*
X153924714Y-115058857D01*
X153877095Y-114963619D01*
X153829476Y-114916000D01*
X153734238Y-114868380D01*
X153543761Y-114868380D01*
X153448523Y-114916000D01*
X153400904Y-114963619D01*
X153353285Y-115058857D01*
X153353285Y-115296952D01*
X153400904Y-115392190D01*
X153448523Y-115439809D01*
X153543761Y-115487428D01*
X153734238Y-115487428D01*
X153829476Y-115439809D01*
X153877095Y-115392190D01*
X153924714Y-115296952D01*
G04 #@! TO.C,C10*
X151477642Y-108721142D02*
X151430023Y-108768761D01*
X151287166Y-108816380D01*
X151191928Y-108816380D01*
X151049071Y-108768761D01*
X150953833Y-108673523D01*
X150906214Y-108578285D01*
X150858595Y-108387809D01*
X150858595Y-108244952D01*
X150906214Y-108054476D01*
X150953833Y-107959238D01*
X151049071Y-107864000D01*
X151191928Y-107816380D01*
X151287166Y-107816380D01*
X151430023Y-107864000D01*
X151477642Y-107911619D01*
X152430023Y-108816380D02*
X151858595Y-108816380D01*
X152144309Y-108816380D02*
X152144309Y-107816380D01*
X152049071Y-107959238D01*
X151953833Y-108054476D01*
X151858595Y-108102095D01*
X153049071Y-107816380D02*
X153144309Y-107816380D01*
X153239547Y-107864000D01*
X153287166Y-107911619D01*
X153334785Y-108006857D01*
X153382404Y-108197333D01*
X153382404Y-108435428D01*
X153334785Y-108625904D01*
X153287166Y-108721142D01*
X153239547Y-108768761D01*
X153144309Y-108816380D01*
X153049071Y-108816380D01*
X152953833Y-108768761D01*
X152906214Y-108721142D01*
X152858595Y-108625904D01*
X152810976Y-108435428D01*
X152810976Y-108197333D01*
X152858595Y-108006857D01*
X152906214Y-107911619D01*
X152953833Y-107864000D01*
X153049071Y-107816380D01*
G04 #@! TO.C,C6*
X163875833Y-105927142D02*
X163828214Y-105974761D01*
X163685357Y-106022380D01*
X163590119Y-106022380D01*
X163447261Y-105974761D01*
X163352023Y-105879523D01*
X163304404Y-105784285D01*
X163256785Y-105593809D01*
X163256785Y-105450952D01*
X163304404Y-105260476D01*
X163352023Y-105165238D01*
X163447261Y-105070000D01*
X163590119Y-105022380D01*
X163685357Y-105022380D01*
X163828214Y-105070000D01*
X163875833Y-105117619D01*
X164732976Y-105022380D02*
X164542500Y-105022380D01*
X164447261Y-105070000D01*
X164399642Y-105117619D01*
X164304404Y-105260476D01*
X164256785Y-105450952D01*
X164256785Y-105831904D01*
X164304404Y-105927142D01*
X164352023Y-105974761D01*
X164447261Y-106022380D01*
X164637738Y-106022380D01*
X164732976Y-105974761D01*
X164780595Y-105927142D01*
X164828214Y-105831904D01*
X164828214Y-105593809D01*
X164780595Y-105498571D01*
X164732976Y-105450952D01*
X164637738Y-105403333D01*
X164447261Y-105403333D01*
X164352023Y-105450952D01*
X164304404Y-105498571D01*
X164256785Y-105593809D01*
G04 #@! TO.C,C8*
X163942833Y-108340142D02*
X163895214Y-108387761D01*
X163752357Y-108435380D01*
X163657119Y-108435380D01*
X163514261Y-108387761D01*
X163419023Y-108292523D01*
X163371404Y-108197285D01*
X163323785Y-108006809D01*
X163323785Y-107863952D01*
X163371404Y-107673476D01*
X163419023Y-107578238D01*
X163514261Y-107483000D01*
X163657119Y-107435380D01*
X163752357Y-107435380D01*
X163895214Y-107483000D01*
X163942833Y-107530619D01*
X164514261Y-107863952D02*
X164419023Y-107816333D01*
X164371404Y-107768714D01*
X164323785Y-107673476D01*
X164323785Y-107625857D01*
X164371404Y-107530619D01*
X164419023Y-107483000D01*
X164514261Y-107435380D01*
X164704738Y-107435380D01*
X164799976Y-107483000D01*
X164847595Y-107530619D01*
X164895214Y-107625857D01*
X164895214Y-107673476D01*
X164847595Y-107768714D01*
X164799976Y-107816333D01*
X164704738Y-107863952D01*
X164514261Y-107863952D01*
X164419023Y-107911571D01*
X164371404Y-107959190D01*
X164323785Y-108054428D01*
X164323785Y-108244904D01*
X164371404Y-108340142D01*
X164419023Y-108387761D01*
X164514261Y-108435380D01*
X164704738Y-108435380D01*
X164799976Y-108387761D01*
X164847595Y-108340142D01*
X164895214Y-108244904D01*
X164895214Y-108054428D01*
X164847595Y-107959190D01*
X164799976Y-107911571D01*
X164704738Y-107863952D01*
G04 #@! TO.C,C5*
X163917333Y-99577142D02*
X163869714Y-99624761D01*
X163726857Y-99672380D01*
X163631619Y-99672380D01*
X163488761Y-99624761D01*
X163393523Y-99529523D01*
X163345904Y-99434285D01*
X163298285Y-99243809D01*
X163298285Y-99100952D01*
X163345904Y-98910476D01*
X163393523Y-98815238D01*
X163488761Y-98720000D01*
X163631619Y-98672380D01*
X163726857Y-98672380D01*
X163869714Y-98720000D01*
X163917333Y-98767619D01*
X164822095Y-98672380D02*
X164345904Y-98672380D01*
X164298285Y-99148571D01*
X164345904Y-99100952D01*
X164441142Y-99053333D01*
X164679238Y-99053333D01*
X164774476Y-99100952D01*
X164822095Y-99148571D01*
X164869714Y-99243809D01*
X164869714Y-99481904D01*
X164822095Y-99577142D01*
X164774476Y-99624761D01*
X164679238Y-99672380D01*
X164441142Y-99672380D01*
X164345904Y-99624761D01*
X164298285Y-99577142D01*
G04 #@! TO.C,C7*
X163917333Y-101990142D02*
X163869714Y-102037761D01*
X163726857Y-102085380D01*
X163631619Y-102085380D01*
X163488761Y-102037761D01*
X163393523Y-101942523D01*
X163345904Y-101847285D01*
X163298285Y-101656809D01*
X163298285Y-101513952D01*
X163345904Y-101323476D01*
X163393523Y-101228238D01*
X163488761Y-101133000D01*
X163631619Y-101085380D01*
X163726857Y-101085380D01*
X163869714Y-101133000D01*
X163917333Y-101180619D01*
X164250666Y-101085380D02*
X164917333Y-101085380D01*
X164488761Y-102085380D01*
G04 #@! TO.C,U1*
X163576095Y-74255380D02*
X163576095Y-75064904D01*
X163623714Y-75160142D01*
X163671333Y-75207761D01*
X163766571Y-75255380D01*
X163957047Y-75255380D01*
X164052285Y-75207761D01*
X164099904Y-75160142D01*
X164147523Y-75064904D01*
X164147523Y-74255380D01*
X165147523Y-75255380D02*
X164576095Y-75255380D01*
X164861809Y-75255380D02*
X164861809Y-74255380D01*
X164766571Y-74398238D01*
X164671333Y-74493476D01*
X164576095Y-74541095D01*
G04 #@! TO.C,U2*
X162306095Y-129246380D02*
X162306095Y-130055904D01*
X162353714Y-130151142D01*
X162401333Y-130198761D01*
X162496571Y-130246380D01*
X162687047Y-130246380D01*
X162782285Y-130198761D01*
X162829904Y-130151142D01*
X162877523Y-130055904D01*
X162877523Y-129246380D01*
X163306095Y-129341619D02*
X163353714Y-129294000D01*
X163448952Y-129246380D01*
X163687047Y-129246380D01*
X163782285Y-129294000D01*
X163829904Y-129341619D01*
X163877523Y-129436857D01*
X163877523Y-129532095D01*
X163829904Y-129674952D01*
X163258476Y-130246380D01*
X163877523Y-130246380D01*
G04 #@! TD*
M02*
